<svg width="195" height="262" viewBox="0 0 195 262" fill="none" xmlns="http://www.w3.org/2000/svg">
<g clip-path="url(#clip0_1932_762)">
<path d="M30.7259 62.5689C31.0391 65.5034 30.3708 68.4589 28.8251 70.9749C28.6892 71.1971 28.6012 71.445 28.5669 71.703C28.5325 71.961 28.5525 72.2233 28.6255 72.4731L29.6994 76.1641L25.6603 75.2609C25.1875 75.1589 24.6935 75.2439 24.2822 75.498C22.5683 76.5439 20.6406 77.192 18.6417 77.3944C15.0694 77.7594 11.4981 76.6936 8.71348 74.4314C5.92883 72.1692 4.15893 68.896 3.79313 65.3318C3.42733 61.7676 4.4956 58.2044 6.76293 55.4261C9.03026 52.6478 12.3109 50.8819 15.8832 50.5169C16.3514 50.4696 16.8216 50.4459 17.2922 50.4458C20.6365 50.455 23.8591 51.6986 26.3393 53.9368C28.8196 56.1751 30.3821 59.2499 30.7259 62.5689ZM22.189 64.4464C22.5059 64.1303 22.7573 63.755 22.9288 63.3419C23.1003 62.9289 23.1886 62.4862 23.1886 62.0391C23.1886 61.592 23.1003 61.1493 22.9288 60.7362C22.7573 60.3232 22.5059 59.9479 22.189 59.6318C21.9026 59.3471 21.5622 59.1223 21.1877 58.9705C20.8132 58.8187 20.4121 58.7429 20.0079 58.7475C19.013 58.7624 18.0636 59.1658 17.3634 59.8712L17.1567 60.0774L16.9476 59.8712C15.6171 58.5413 13.4574 58.3042 12.1244 59.6341C11.8073 59.9501 11.5556 60.3253 11.384 60.7384C11.2123 61.1515 11.1239 61.5943 11.1239 62.0414C11.1239 62.4886 11.2123 62.9314 11.384 63.3445C11.5556 63.7576 11.8073 64.1328 12.1244 64.4487L12.3312 64.6574L16.52 68.8367C16.6036 68.9201 16.7029 68.9863 16.8121 69.0314C16.9214 69.0766 17.0385 69.0998 17.1567 69.0998C17.275 69.0998 17.3921 69.0766 17.5013 69.0314C17.6106 68.9863 17.7099 68.9201 17.7935 68.8367L21.9823 64.6574L22.189 64.4464Z" fill="white"/>
<path d="M73.5099 58.3019C74.0326 59.627 73.7118 60.9901 72.7971 61.3481C71.8824 61.706 70.7158 60.9237 70.1954 59.601C69.6751 58.2782 69.9958 56.9104 70.9082 56.5524C71.8206 56.1945 72.9919 56.9791 73.5099 58.3019Z" fill="white"/>
<path d="M75.7505 49.7607C77.1761 49.7607 78.3189 51.1594 78.3189 52.8852C78.3189 54.6109 77.1689 56.0119 75.7505 56.0119C74.332 56.0119 73.1797 54.6133 73.1797 52.8852C73.1797 51.157 74.332 49.7607 75.7505 49.7607Z" fill="white"/>
<path d="M132.626 49.7607C134.052 49.7607 135.197 51.1594 135.197 52.8852C135.197 54.6109 134.047 56.0119 132.626 56.0119C131.205 56.0119 130.058 54.6133 130.058 52.8852C130.058 51.157 131.208 49.7607 132.626 49.7607Z" fill="white"/>
<path d="M137.466 56.5526C138.381 56.9105 138.701 58.276 138.179 59.6011C137.656 60.9263 136.494 61.7062 135.565 61.3482C134.636 60.9903 134.33 59.6272 134.852 58.302C135.375 56.9769 136.551 56.1946 137.466 56.5526Z" fill="white"/>
<path d="M107.631 83.9612L107.819 84.0489C106.976 84.7652 105.94 85.217 104.841 85.3473C103.742 85.4776 102.629 85.2807 101.641 84.7814C101.249 84.582 100.882 84.3361 100.548 84.0489L100.712 83.973L100.86 83.9043L101.007 83.8331L101.152 83.7597C101.202 83.7383 101.249 83.7122 101.297 83.6885C101.456 83.6056 101.615 83.5226 101.772 83.4349L101.979 83.3211L102.128 83.2358L102.238 83.1694L102.423 83.0603L102.528 82.9963L102.646 82.9228L102.92 82.7474L103.055 82.6597L103.328 82.4724L103.544 82.3207L103.732 82.1832C103.884 82.0718 104.031 81.9604 104.176 81.8442L104.542 82.1169L104.673 82.2117C104.882 82.3658 105.096 82.5151 105.312 82.6597L105.448 82.7474L105.721 82.9228L105.873 83.0177L106.129 83.1694C106.17 83.1931 106.21 83.2192 106.251 83.2405C106.291 83.2618 106.343 83.295 106.391 83.3211L106.583 83.4278C106.769 83.5321 106.956 83.6316 107.149 83.7265L107.329 83.8166L107.493 83.8948L107.631 83.9612Z" fill="white"/>
<path d="M77.9316 116.931C78.3925 118.268 77.9458 119.629 76.9336 119.975C75.9215 120.321 74.7335 119.517 74.2749 118.183C73.8164 116.848 74.2631 115.485 75.2729 115.139C76.2826 114.793 77.4825 115.597 77.9316 116.931Z" fill="white"/>
<path d="M80.3074 107.861C81.6879 107.861 82.807 109.341 82.807 111.166C82.807 112.991 81.6879 114.47 80.3074 114.47C78.927 114.47 77.8103 112.991 77.8103 111.166C77.8103 109.341 78.9318 107.861 80.3074 107.861Z" fill="white"/>
<path d="M134.097 118.185C134.556 116.85 134.108 115.487 133.098 115.142C132.088 114.796 130.897 115.599 130.438 116.934C129.979 118.269 130.427 119.631 131.437 119.977C132.447 120.322 133.638 119.52 134.097 118.185Z" fill="white"/>
<path d="M128.064 107.861C129.445 107.861 130.564 109.341 130.564 111.166C130.564 112.991 129.445 114.47 128.064 114.47C126.684 114.47 125.565 112.991 125.565 111.166C125.565 109.341 126.684 107.861 128.064 107.861Z" fill="white"/>
<path d="M114.521 129.613C114.35 131.149 113.839 132.628 113.024 133.943C112.21 135.258 111.113 136.376 109.812 137.216C109.266 136.345 108.485 135.645 107.56 135.196C106.513 134.676 105.358 134.407 104.188 134.411C101.696 134.411 99.5479 135.554 98.5571 137.209C97.258 136.369 96.1618 135.252 95.3479 133.939C94.5339 132.625 94.0224 131.148 93.8503 129.613C96.4449 131.474 100.14 132.588 104.188 132.588C108.237 132.588 111.931 131.474 114.521 129.613Z" fill="white"/>
<path d="M70.0908 152.357L70.566 152.527C70.1716 153.3 69.789 154.087 69.416 154.881C65.9376 162.294 63.3454 170.418 62.2596 174.043L34.1591 164.292C33.9371 164.215 33.7025 164.181 33.4677 164.191C26.7413 164.475 21.4905 162.567 18.6726 158.824C17.6165 157.418 16.9194 155.777 16.6416 154.042C16.3639 152.307 16.5137 150.531 17.0783 148.867C17.1924 148.53 17.3256 148.199 17.4775 147.876C19.7061 143.204 24.6529 144.342 25.235 144.493C25.5187 144.572 25.8169 144.582 26.1053 144.523C26.3937 144.464 26.6639 144.338 26.894 144.154C27.1242 143.971 27.3076 143.736 27.4293 143.469C27.551 143.202 27.6075 142.909 27.5943 142.616C27.5064 140.556 28.0244 136.569 29.6804 136.237C30.8921 136 33.5865 139.726 35.2235 143.917C35.3265 144.181 35.488 144.417 35.6958 144.609C35.9037 144.8 36.1524 144.943 36.4234 145.025C37.1552 145.245 54.4807 150.455 68.095 152.136C68.7412 152.219 69.4065 152.293 70.0908 152.357Z" fill="white"/>
<path d="M57.4294 209.203C57.5554 219.906 59.6011 230.685 65.9591 237.252C61.8725 238.048 55.8542 239.764 52.6775 243.271C52.4257 243.55 52.1833 243.835 51.9528 244.129C39.1725 241.687 21.7401 235.424 10.3474 219.496C10.1223 219.19 9.99255 218.824 9.97438 218.445C9.95621 218.065 10.0504 217.689 10.2452 217.363C10.4091 217.076 10.6455 216.838 10.9307 216.672C11.216 216.505 11.54 216.417 11.8704 216.414C11.9423 216.41 12.0146 216.41 12.0866 216.414C21.7948 217.403 39.144 217.422 57.4294 209.203Z" fill="white"/>
<path d="M134.104 188.42C134.46 200.38 131.909 209.376 126.501 215.207C121.511 220.596 113.892 223.327 103.884 223.327C94.0072 223.327 86.4778 220.619 81.5097 215.281C76.0854 209.454 73.5146 200.425 73.8472 188.406C78.0028 191.326 86.8271 195.306 104.043 195.306C121.207 195.299 129.965 191.341 134.104 188.42Z" fill="white"/>
<path d="M190.695 148.872C191.259 150.536 191.409 152.312 191.131 154.047C190.854 155.782 190.156 157.423 189.1 158.828C186.285 162.572 181.022 164.48 174.308 164.195C174.072 164.185 173.837 164.22 173.614 164.297L145.594 174.017C144.501 170.376 141.909 162.261 138.435 154.86C138.091 154.128 137.737 153.4 137.373 152.684C137.758 152.549 138.143 152.414 138.526 152.274C138.918 152.234 139.3 152.188 139.68 152.143C153.292 150.465 170.62 145.255 171.35 145.032C171.621 144.95 171.869 144.808 172.077 144.616C172.285 144.424 172.446 144.188 172.549 143.925C174.137 139.864 176.714 136.235 177.979 136.235C178.017 136.231 178.056 136.231 178.095 136.235C179.737 136.564 180.262 140.554 180.179 142.614C180.165 142.907 180.222 143.199 180.344 143.467C180.465 143.734 180.649 143.969 180.879 144.152C181.109 144.335 181.379 144.462 181.668 144.52C181.956 144.579 182.254 144.569 182.538 144.491C182.776 144.43 187.765 143.126 190.141 147.549C190.361 147.974 190.547 148.417 190.695 148.872Z" fill="white"/>
<path d="M152.328 245.769C154.791 248.488 155.797 251.999 155.02 255.164C154.837 255.926 154.414 256.609 153.813 257.113C153.211 257.617 152.463 257.914 151.679 257.961C145.081 258.364 128.209 258.947 114.158 255.645C110.903 254.879 108.543 251.947 108.42 248.512C108.301 245.267 108.539 242.379 109.133 239.926C110.399 234.682 108.577 229.832 107.051 226.956C116.612 226.409 124.068 223.31 129.245 217.732C135.957 210.5 138.775 199.242 137.62 184.246C137.588 183.864 137.439 183.502 137.194 183.207C136.948 182.913 136.618 182.701 136.248 182.6C135.878 182.499 135.485 182.514 135.124 182.643C134.762 182.772 134.45 183.009 134.228 183.321C134.168 183.404 128.05 191.573 104.053 191.573C80.0556 191.573 73.764 183.388 73.707 183.309C73.4839 182.997 73.1696 182.761 72.807 182.634C72.4445 182.506 72.0514 182.493 71.6813 182.597C71.3112 182.701 70.9823 182.916 70.7393 183.213C70.4963 183.51 70.3511 183.875 70.3236 184.258C69.2045 199.299 72.0486 210.59 78.7749 217.815C83.9189 223.341 91.2915 226.411 100.726 226.963C99.1987 229.839 97.3763 234.689 98.6427 239.933C99.2343 242.386 99.4743 245.274 99.3555 248.521C99.232 251.954 96.8726 254.886 93.6199 255.652C79.5661 258.954 62.6968 258.371 56.0964 257.968C55.3102 257.923 54.5597 257.625 53.9562 257.121C53.3527 256.616 52.9284 255.93 52.7463 255.166C52.2075 252.813 52.5524 250.344 53.7156 248.227C54.1843 247.339 54.7639 246.513 55.4406 245.769C55.7392 245.443 56.0642 245.141 56.4124 244.868C60.0808 241.962 67.1588 240.679 70.1716 240.364C70.3194 240.407 70.4716 240.434 70.6254 240.442C70.8867 240.454 71.2241 240.483 71.5306 240.516C72.6711 240.649 73.8187 240.826 74.9568 241.064C76.3286 241.344 77.6785 241.723 78.9959 242.197C81.1147 242.941 83.0977 244.025 84.8669 245.406C85.0452 245.57 85.2808 245.656 85.5227 245.647C85.7645 245.639 85.9931 245.535 86.1588 245.359C86.3246 245.183 86.4141 244.949 86.408 244.707C86.4019 244.466 86.3006 244.237 86.1261 244.069C85.1256 243.056 84.0237 242.147 82.8378 241.357C81.4036 240.431 79.8934 239.627 78.3235 238.954C76.9841 238.381 75.6096 237.894 74.2083 237.496C73.1851 237.203 72.1507 236.956 71.1053 236.754C63.1601 231.302 61.0312 219.264 61.1595 207.399C61.1738 205.963 61.2237 204.531 61.2973 203.113C62.0101 189.7 65.1155 177.594 65.2866 176.942C65.2866 176.942 65.2866 176.942 65.2866 176.925C65.4434 176.366 69.0881 163.453 74.137 153.694C88.8609 158.117 103.024 158.037 104.188 158.022H104.635C107.353 158.022 120.281 157.8 133.769 153.829C138.283 162.586 141.655 173.818 142.401 176.397C142.398 176.574 142.419 176.751 142.463 176.923C142.591 177.397 154.917 224.737 136.402 236.927L136.29 237.005C136.014 237.071 135.739 237.138 135.451 237.211C130.699 238.475 125.978 240.53 122.478 244.074C121.668 244.92 122.84 246.16 123.738 245.411C127.751 242.239 132.959 240.869 137.993 240.447L138.136 240.428C141.717 240.867 149.274 242.401 152.328 245.769Z" fill="white"/>
<path d="M126.843 71.8072C126.843 71.9945 126.843 72.1675 126.843 72.3264C126.843 72.7224 126.82 73.1181 126.777 73.5116C126.661 74.722 126.29 75.8943 125.69 76.9522C125.089 78.0102 124.272 78.9299 123.291 79.6514C120.252 81.9272 115.564 82.6099 111.349 81.3867C109.399 80.8325 107.593 79.8619 106.056 78.542V75.2184C109.199 74.0806 113.554 70.8447 113.645 69.4746C113.646 69.4619 113.646 69.4492 113.645 69.4366C113.664 68.9056 113.338 68.2016 112.694 67.4833C111.868 66.6087 110.873 65.9097 109.769 65.428C108.005 64.6731 106.106 64.2838 104.186 64.2838C102.266 64.2838 100.367 64.6731 98.6024 65.428C97.5001 65.9105 96.5075 66.6113 95.6848 67.488C95.0409 68.1992 94.7154 68.9104 94.7344 69.439V69.4769C94.827 70.8471 99.1822 74.0829 102.326 75.2208V78.5538C101.344 79.3993 100.246 80.101 99.0658 80.6376C98.688 80.8106 98.3007 80.9694 97.9039 81.1117L97.816 81.1425L97.4525 81.2658L97.0319 81.3914C92.8193 82.6122 88.1316 81.9295 85.0927 79.6538C84.1115 78.9333 83.2935 78.0146 82.6921 76.9575C82.0907 75.9004 81.7194 74.7287 81.6024 73.5187C81.5575 73.1253 81.5353 72.7295 81.5359 72.3335C81.5359 72.1746 81.5359 72.0016 81.5359 71.8167C81.5407 71.1487 81.5979 70.4821 81.707 69.823C81.8139 69.1902 81.9826 68.5693 82.2107 67.9692C82.2629 67.9005 82.32 67.8341 82.3746 67.7677L82.282 67.7891C83.8643 63.9179 88.7992 59.4399 104.193 59.4399C119.587 59.4399 124.522 63.9179 126.104 67.7891L126.012 67.7677C126.069 67.8341 126.121 67.9005 126.175 67.9692C126.404 68.5693 126.572 69.1902 126.679 69.823C126.786 70.4792 126.84 71.1426 126.843 71.8072Z" fill="white"/>
<path d="M174.472 11.5783C175.422 26.4513 171.841 39.2997 163.818 49.7682C161.873 52.3062 159.686 54.6505 157.289 56.7685C156.338 54.9171 155.388 53.1225 154.399 51.392C159.567 46.8879 168.871 36.2014 170.468 16.5565C170.548 15.551 170.352 14.5427 169.901 13.6397C169.451 12.7366 168.763 11.9727 167.911 11.4297C167.059 10.8867 166.075 10.585 165.064 10.5569C164.054 10.5288 163.055 10.7753 162.174 11.2701C156.234 14.6174 148.241 21.6603 142.33 36.3982C141.192 35.4559 140.002 34.5782 138.766 33.7692C138.45 33.563 138.131 33.3591 137.815 33.1623C142.558 17.4929 153.454 9.04892 162.297 4.62307C163.538 3.98879 164.918 3.6767 166.311 3.71565C167.705 3.7546 169.066 4.14332 170.268 4.8459C171.479 5.52603 172.499 6.49921 173.233 7.67576C173.968 8.8523 174.393 10.1944 174.472 11.5783Z" fill="white"/>
<path d="M71.2978 32.7307C69.6901 33.6723 68.15 34.7242 66.6884 35.8788C60.8008 21.4966 52.9079 14.5769 47.0559 11.2699C46.1749 10.7751 45.1756 10.5286 44.165 10.5567C43.1544 10.5848 42.1705 10.8865 41.3185 11.4295C40.4665 11.9725 39.7785 12.7364 39.3281 13.6395C38.8777 14.5425 38.6818 15.5507 38.7614 16.5563C40.301 35.509 49.0184 46.1315 54.2693 50.894C53.2714 52.6126 52.3115 54.3906 51.3682 56.2301C44.0027 49.4906 33.223 35.4047 34.7555 11.5781C34.8337 10.193 35.2604 8.84991 35.9963 7.67282C36.7321 6.49573 37.7534 5.52261 38.9657 4.84331C40.1691 4.14194 41.53 3.75411 42.9231 3.71558C44.3162 3.67705 45.6966 3.98906 46.9371 4.62285C55.6901 9.0084 66.4793 17.3386 71.2978 32.7307Z" fill="white"/>
<path d="M63.7091 38.4792C60.8863 41.2258 58.3938 44.291 56.2818 47.613C51.5038 43.0354 43.8603 33.1881 42.4822 16.2575C42.4537 15.9254 42.5175 15.5918 42.6668 15.2936C42.816 14.9954 43.0448 14.744 43.3281 14.5672C43.6263 14.3769 43.972 14.2734 44.326 14.2686C44.6386 14.2685 44.9458 14.3503 45.217 14.5056C50.7054 17.6111 58.1731 24.2629 63.7091 38.4792Z" fill="white"/>
<path d="M165.899 14.5696C166.182 14.7456 166.412 14.9964 166.561 15.2944C166.71 15.5923 166.774 15.9256 166.745 16.2574C165.319 33.8376 157.134 43.7702 152.415 48.1108C150.379 44.849 147.989 41.8209 145.288 39.0813C150.847 24.4525 158.446 17.6561 164.013 14.5127C164.302 14.3474 164.631 14.2652 164.964 14.2752C165.297 14.2853 165.621 14.3872 165.899 14.5696Z" fill="white"/>
<path d="M167.85 103.677C167.85 105.866 167.735 108.054 167.505 110.232C166.405 120.527 162.706 129.549 156.813 136.308C151.8 142.049 144.772 145.958 137.48 148.618C136.805 148.865 136.129 149.102 135.451 149.329C134.448 149.664 133.445 149.976 132.441 150.263C128.569 151.371 124.632 152.242 120.654 152.871C111.437 154.345 104.381 154.293 104.224 154.293H104.172C104.01 154.293 96.9154 154.355 87.6586 152.871C83.514 152.216 79.4158 151.297 75.3891 150.119C74.4554 149.841 73.5169 149.545 72.5808 149.227C72.085 149.058 71.5892 148.885 71.0934 148.708C63.7422 146.046 56.6404 142.118 51.582 136.324C45.6777 129.559 41.976 120.539 40.8902 110.248C39.543 97.5822 42.197 83.6314 48.3626 70.9678C49.088 69.4775 49.7969 68.0054 50.4891 66.5515C51.2114 65.0469 51.9241 63.5709 52.6274 62.1232C53.1929 60.9648 53.7576 59.8262 54.3215 58.7073C55.2719 56.8321 56.2223 55.021 57.2273 53.281C60.278 47.9472 63.6543 43.2867 68.1021 39.5317C69.435 38.4035 70.8485 37.3735 72.3313 36.45C73.4269 35.766 74.557 35.1385 75.717 34.5701C82.6477 31.1731 91.7049 29.2695 104.212 29.2695C117.18 29.2695 126.437 31.3153 133.46 34.9589C134.094 35.2876 134.715 35.6306 135.323 35.9877C135.838 36.2927 136.341 36.6088 136.834 36.9359C137.088 37.1043 137.34 37.2726 137.587 37.4456C138.768 38.2679 139.899 39.1584 140.975 40.1125C145.216 43.8722 148.474 48.4782 151.429 53.7196C152.423 55.4785 153.385 57.3062 154.338 59.198C154.898 60.3098 155.454 61.4453 156.015 62.5997C156.649 63.8972 157.286 65.22 157.928 66.5681C158.624 68.0212 159.33 69.4957 160.066 70.9892C165.153 81.4718 167.85 92.8671 167.85 103.677ZM152.152 134.445C159.603 122.732 155.671 108.776 154.209 105.68C153.71 104.62 153.171 102.174 152.546 99.3412C151.14 92.9406 149.22 84.198 145.088 78.3C142.123 74.0638 136.679 71.0295 130.262 68.9623C129.359 64.4014 126.517 60.9711 121.78 58.7381C117.46 56.6994 111.706 55.7061 104.198 55.7061C96.6897 55.7061 90.9232 56.6994 86.6037 58.7381C81.866 60.9711 79.0244 64.4014 78.1215 68.9623C71.7064 71.0295 66.2607 74.0638 63.2955 78.3024C59.1732 84.2027 57.2012 93.1445 55.8991 99.0591C55.898 99.0788 55.898 99.0986 55.8991 99.1183L55.8492 99.3435C55.2244 102.176 54.6874 104.623 54.1861 105.68C52.7248 108.776 48.7926 122.732 56.2436 134.445C60.6202 141.319 67.9714 146.224 78.2023 149.097C85.4395 151.131 94.1078 152.15 104.207 152.155C114.307 152.16 122.999 151.133 130.283 149.073C140.46 146.2 147.785 141.312 152.152 134.445ZM141.978 55.0305C141.982 53.8716 141.801 52.7194 141.443 51.6169C140.747 49.4834 139.419 47.7434 137.739 46.7335C136.725 46.1161 135.56 45.7881 134.372 45.7853C130.169 45.7853 126.769 49.9267 126.769 55.0305C126.769 60.1343 130.174 64.2757 134.372 64.2757C138.571 64.2757 141.978 60.1367 141.978 55.0281V55.0305ZM81.6118 55.0305C81.6118 49.9219 78.2047 45.7853 74.0087 45.7853C73.3102 45.7853 72.6166 45.9006 71.9559 46.1266C69.2116 47.0606 67.0923 49.82 66.5434 53.2597C66.4494 53.8469 66.4026 54.4406 66.4033 55.0352C66.4033 60.1438 69.808 64.2805 74.0063 64.2805C78.2047 64.2805 81.6118 60.1367 81.6118 55.0281V55.0305Z" fill="white"/>
<path d="M150.831 107.266C150.893 107.394 156.409 120.797 148.999 132.449C142.256 143.052 127.178 148.429 104.188 148.429C81.1984 148.429 66.1205 143.052 59.3775 132.449C51.9669 120.797 57.4768 107.394 57.5457 107.269C58.1753 105.929 58.7004 103.661 59.3348 100.788C60.0227 99.8919 60.5559 98.888 60.9124 97.8172C62.2351 96.7817 63.2685 95.4241 63.9133 93.8749C64.5881 92.1976 64.9116 90.4001 64.8636 88.5933C64.8636 88.5933 73.8163 91.3977 76.7957 80.8818C76.7957 80.8818 81.1509 85.1086 87.1027 84.8383C88.9216 85.4333 90.8243 85.7334 92.7384 85.7273C94.0583 85.7267 95.3745 85.5893 96.6659 85.3172C97.5315 86.4941 98.6627 87.4511 99.9679 88.1107C101.273 88.7704 102.716 89.1141 104.179 89.1141C105.642 89.1141 107.084 88.7704 108.39 88.1107C109.695 87.4511 110.826 86.4941 111.691 85.3172C114.866 85.9997 118.164 85.8362 121.255 84.8431C127.195 85.1133 131.562 80.8866 131.562 80.8866C134.548 91.3929 143.508 88.5886 143.508 88.5886C143.465 90.3835 143.788 92.1683 144.458 93.8346C144.963 95.058 145.71 96.1673 146.654 97.0965C147.096 98.8396 147.999 100.433 149.267 101.71C149.792 104.144 150.268 106.076 150.831 107.266ZM137.357 113.515C137.357 108.269 134.14 104.016 130.169 104.016C126.199 104.016 122.984 108.269 122.984 113.515C122.984 118.761 126.201 123.016 130.169 123.016C134.137 123.016 137.357 118.766 137.357 113.515ZM135.539 98.7607C135.387 96.9733 134.795 92.5024 129.095 90.8264C123.395 89.1504 121.174 95.5201 121.174 95.5201C128.492 93.6189 135.539 98.7607 135.539 98.7607ZM118.323 128.485C118.326 127.181 118.143 125.884 117.781 124.631C117.673 124.265 117.456 123.942 117.158 123.704C116.861 123.465 116.497 123.324 116.116 123.298C115.736 123.272 115.356 123.363 115.029 123.559C114.702 123.755 114.442 124.046 114.286 124.394C113.281 126.615 109.491 128.862 104.188 128.862C98.8851 128.862 95.093 126.615 94.0904 124.394C93.934 124.046 93.6748 123.755 93.3476 123.559C93.0203 123.363 92.6408 123.272 92.2601 123.298C91.8794 123.324 91.5157 123.465 91.2181 123.704C90.9205 123.942 90.7031 124.265 90.5953 124.631C90.2314 125.883 90.0474 127.181 90.0489 128.485C90.0489 132.226 91.5383 135.814 94.1895 138.459C96.8407 141.104 100.436 142.59 104.186 142.59C107.935 142.59 111.531 141.104 114.182 138.459C116.833 135.814 118.323 132.226 118.323 128.485ZM109.294 121.665C109.399 118.749 107.156 115.739 104.005 115.791C100.95 115.999 98.8589 118.809 98.7639 121.665C100.634 121.023 102.577 119.655 104.145 119.513C104.768 119.489 105.469 119.795 106.148 120.11C107.056 120.546 108.033 121.136 109.294 121.675V121.665ZM85.392 95.5201C85.392 95.5201 83.1586 89.148 77.4562 90.8264C71.7539 92.5047 71.1647 96.9733 71.0126 98.7607C71.0198 98.7607 78.0692 93.6189 85.392 95.5201ZM85.392 113.515C85.392 108.269 82.1749 104.016 78.2047 104.016C74.2344 104.016 71.0198 108.269 71.0198 113.515C71.0198 118.761 74.2368 123.016 78.2047 123.016C82.1725 123.016 85.392 118.766 85.392 113.515Z" fill="white"/>
<path d="M194.235 147.687C194.993 149.922 195.194 152.308 194.822 154.639C194.449 156.969 193.514 159.174 192.097 161.064C188.573 165.746 182.355 168.175 174.514 167.938L146.499 177.658C148.517 186.045 156.198 222.414 141.819 237.261C145.906 238.057 151.924 239.774 155.103 243.28C158.398 246.916 159.724 251.695 158.65 256.062C158.282 257.598 157.428 258.975 156.214 259.988C155.001 261.002 153.492 261.598 151.912 261.69C149.474 261.839 145.668 262.01 141.116 262.01C133.037 262.01 122.604 261.467 113.317 259.281C108.429 258.129 104.889 253.76 104.706 248.659C104.573 245.074 104.846 241.846 105.517 239.065C106.467 235.149 105.105 231.358 103.903 228.995C102.701 231.365 101.344 235.158 102.29 239.063C102.962 241.846 103.24 245.074 103.103 248.661C102.92 253.76 99.377 258.129 94.492 259.281C79.9559 262.697 62.6541 262.102 55.8827 261.69C54.3035 261.596 52.7963 260.999 51.5831 259.986C50.3699 258.974 49.515 257.599 49.1444 256.064C48.4692 253.209 48.7488 250.212 49.9404 247.53C31.4079 243.711 16.7007 234.793 7.30848 221.648C6.66279 220.761 6.29092 219.706 6.23858 218.611C6.18624 217.516 6.45571 216.429 7.01386 215.485C7.55155 214.543 8.3534 213.778 9.32087 213.284C10.2883 212.791 11.3793 212.59 12.4596 212.707C22.0418 213.655 39.3911 213.655 57.4698 205.059C57.8405 193.045 60.2711 181.828 61.2713 177.632L33.2635 167.927C25.4228 168.164 19.2073 165.743 15.6814 161.052C14.2649 159.164 13.33 156.961 12.9574 154.633C12.5849 152.304 12.7859 149.92 13.543 147.687C15.5554 141.727 20.4 140.39 23.9236 140.558C24.1612 137.768 25.1401 133.357 28.9487 132.593C33.5367 131.676 37.0009 138.508 38.3599 141.72C40.9972 142.49 49.3796 144.87 58.1897 146.686C54.6742 144.525 51.4967 141.858 48.7595 138.773C42.3444 131.425 38.3385 121.705 37.1601 110.637C35.7345 97.286 38.5191 82.6193 44.9865 69.3346C45.7088 67.8506 46.4144 66.3856 47.1035 64.9396C47.9564 63.1569 48.7928 61.4122 49.6267 59.7125C47.0331 57.4372 44.6674 54.9157 42.563 52.1835C36.5993 44.465 29.7613 31.1116 31.0301 11.3434C31.1591 9.34502 31.7824 7.40968 32.8442 5.71034C33.906 4.01101 35.3733 2.60063 37.1148 1.60526C38.8564 0.609892 40.818 0.0605475 42.8243 0.00632683C44.8307 -0.0478938 46.8192 0.394699 48.6122 1.29455C57.9236 5.95746 69.3781 14.7689 74.6575 30.9598C82.453 27.2784 92.0971 25.5265 104.188 25.5265C116.662 25.5265 126.522 27.3921 134.456 31.3131C139.685 14.8969 151.235 5.99064 160.615 1.29218C162.408 0.392328 164.397 -0.0502644 166.403 0.00395627C168.409 0.0581769 170.371 0.607522 172.112 1.60289C173.854 2.59826 175.321 4.00864 176.383 5.70797C177.445 7.40731 178.068 9.34265 178.197 11.341C179.466 31.1092 172.628 44.4626 166.664 52.1812C164.4 55.1183 161.834 57.8102 159.007 60.2127C159.757 61.7488 160.511 63.3205 161.278 64.923C161.972 66.369 162.678 67.8356 163.397 69.3228C169.862 82.5979 172.64 97.2765 171.219 110.625C170.031 121.686 166.03 131.415 159.62 138.761C156.965 141.766 153.889 144.373 150.489 146.501C158.964 144.714 166.869 142.471 169.418 141.725C170.775 138.513 174.239 131.681 178.829 132.598C182.631 133.361 183.617 137.773 183.852 140.563C187.387 140.388 192.215 141.725 194.235 147.687ZM189.101 158.828C190.157 157.423 190.855 155.782 191.132 154.047C191.41 152.312 191.26 150.536 190.695 148.872C190.544 148.418 190.356 147.978 190.132 147.556C187.756 143.133 182.766 144.437 182.529 144.498C182.245 144.576 181.947 144.586 181.658 144.527C181.37 144.468 181.1 144.342 180.87 144.159C180.639 143.976 180.456 143.741 180.334 143.474C180.213 143.206 180.156 142.914 180.169 142.621C180.252 140.561 179.727 136.571 178.086 136.242C178.047 136.238 178.008 136.238 177.969 136.242C176.707 136.242 174.127 139.871 172.54 143.932C172.437 144.195 172.276 144.431 172.068 144.623C171.86 144.815 171.611 144.957 171.34 145.039C170.611 145.259 153.283 150.47 139.671 152.15C139.291 152.195 138.908 152.241 138.519 152.281C138.134 152.421 137.749 152.556 137.366 152.691C137.727 153.402 138.079 154.135 138.426 154.867C141.9 162.268 144.494 170.382 145.585 174.024L173.607 164.304C173.829 164.227 174.063 164.192 174.298 164.202C181.032 164.475 186.275 162.567 189.101 158.828ZM163.818 49.7822C171.844 39.3137 175.427 26.4652 174.472 11.5923C174.384 10.2077 173.953 8.8665 173.219 7.68855C172.484 6.51061 171.468 5.53269 170.262 4.84225C169.056 4.15181 167.697 3.77039 166.307 3.7321C164.917 3.69381 163.54 3.99984 162.297 4.62283C153.454 9.04868 142.558 17.4926 137.806 33.1597C138.129 33.3565 138.447 33.5604 138.756 33.7666C139.993 34.5756 141.183 35.4533 142.32 36.3956C148.232 21.6601 156.236 14.6171 162.164 11.2675C163.045 10.7727 164.044 10.5262 165.055 10.5543C166.066 10.5824 167.05 10.8841 167.902 11.4271C168.754 11.9701 169.442 12.734 169.892 13.6371C170.342 14.5401 170.538 15.5483 170.459 16.5539C168.864 36.1988 159.558 46.8972 154.39 51.4013C155.383 53.1318 156.336 54.9263 157.279 56.7777C159.681 54.6572 161.87 52.3097 163.818 49.7679V49.7822ZM167.505 110.232C167.735 108.051 167.849 105.86 167.848 103.668C167.848 92.8578 165.151 81.4624 160.035 70.9537C159.31 69.4602 158.597 67.9865 157.897 66.5326C157.251 65.1861 156.617 63.8633 155.996 62.5643C155.435 61.409 154.876 60.2751 154.316 59.1625C153.366 57.266 152.416 55.4431 151.411 53.6841C148.448 48.4428 145.19 43.8368 140.956 40.077C139.88 39.1248 138.749 38.2367 137.568 37.4173C137.331 37.2442 137.069 37.0759 136.815 36.9076C136.324 36.5915 135.82 36.2754 135.304 35.9594C134.702 35.6038 134.082 35.2608 133.444 34.9305C126.418 31.2941 117.161 29.2412 104.193 29.2412C91.686 29.2412 82.6312 31.1376 75.7006 34.5418C74.5395 35.1097 73.4086 35.7372 72.3124 36.4216C70.8296 37.3451 69.4161 38.3751 68.0832 39.5034C63.6354 43.2631 60.2592 47.9236 57.2084 53.2527C56.2153 54.9927 55.253 56.8085 54.3026 58.6789C53.7403 59.8105 53.1741 60.9539 52.6038 62.1091C51.9005 63.5536 51.1878 65.0296 50.4655 66.5373C49.7701 67.9881 49.0613 69.4602 48.339 70.9537C42.1781 83.6244 39.5242 97.5752 40.8666 110.232C41.9643 120.529 45.6636 129.549 51.5584 136.308C56.6145 142.102 63.7162 146.027 71.0674 148.692C71.564 148.87 72.0582 149.043 72.5548 149.211C73.4909 149.527 74.4278 149.824 75.3655 150.102C79.3913 151.281 83.4888 152.2 87.6326 152.854C96.8989 154.341 103.984 154.277 104.146 154.277H104.198C104.355 154.277 111.411 154.334 120.63 152.854C124.608 152.226 128.543 151.355 132.415 150.247C133.417 149.958 134.421 149.646 135.425 149.313C136.103 149.087 136.779 148.85 137.454 148.602C144.746 145.942 151.774 142.033 156.787 136.291C162.708 129.559 166.41 120.537 167.505 110.232ZM166.745 16.2576C166.77 15.9265 166.704 15.5948 166.556 15.2978C166.407 15.0008 166.18 14.7496 165.9 14.5707C165.619 14.3918 165.296 14.292 164.963 14.2818C164.63 14.2716 164.301 14.3515 164.01 14.5128C158.443 17.6562 150.845 24.4526 145.285 39.0814C147.986 41.8211 150.377 44.8491 152.413 48.1109C157.134 43.7704 165.315 33.8377 166.745 16.2576ZM155.02 255.163C155.797 251.999 154.782 248.488 152.328 245.769C149.275 242.4 141.717 240.867 138.129 240.43L137.989 240.449C132.959 240.871 127.751 242.242 123.733 245.413C122.835 246.162 121.664 244.923 122.474 244.076C125.974 240.52 130.69 238.477 135.447 237.214C135.734 237.14 136.012 237.074 136.288 237.007L136.397 236.929C154.913 224.74 142.574 177.402 142.46 176.925C142.415 176.754 142.393 176.577 142.396 176.399C141.653 173.82 138.279 162.588 133.764 153.831C120.276 157.802 107.348 158.025 104.63 158.025H104.184C103.019 158.039 88.8586 158.115 74.1562 153.701C69.1001 163.456 65.4625 176.368 65.3057 176.932C65.3057 176.932 65.3057 176.947 65.3057 176.949C65.1346 177.601 62.0293 189.707 61.3189 203.12C61.2428 204.542 61.1929 205.965 61.1787 207.406C61.0623 219.278 63.1792 231.313 71.1245 236.761C72.1675 236.965 73.2058 237.211 74.2275 237.503C75.6287 237.901 77.0032 238.388 78.3426 238.961C79.9126 239.634 81.4227 240.438 82.857 241.364C84.0429 242.154 85.1447 243.063 86.1453 244.076C86.3197 244.244 86.421 244.473 86.4271 244.714C86.4332 244.956 86.3437 245.19 86.178 245.366C86.0122 245.542 85.7836 245.645 85.5418 245.654C85.2999 245.663 85.0643 245.577 84.886 245.413C83.1168 244.032 81.1338 242.948 79.015 242.204C77.6975 241.73 76.3477 241.351 74.9759 241.07C73.8378 240.833 72.6878 240.656 71.5474 240.523C71.2409 240.49 70.9035 240.461 70.6421 240.449C70.4884 240.44 70.3361 240.414 70.1883 240.371C67.1756 240.679 60.0976 241.962 56.4291 244.875C56.0815 245.149 55.7565 245.45 55.4574 245.776C54.7807 246.52 54.2011 247.346 53.7324 248.234C52.5682 250.444 52.2047 252.897 52.7654 255.173C52.9479 255.934 53.3709 256.617 53.972 257.12C54.5731 257.624 55.3204 257.921 56.1036 257.968C62.704 258.371 79.5758 258.954 93.6272 255.652C96.8799 254.886 99.2392 251.954 99.3628 248.521C99.4839 245.273 99.244 242.386 98.65 239.933C97.3836 234.689 99.2083 229.839 100.734 226.963C91.2988 226.411 83.9261 223.341 78.7822 217.815C72.0558 210.59 69.2118 199.299 70.3309 184.257C70.3578 183.874 70.5028 183.509 70.7459 183.211C70.989 182.913 71.3185 182.698 71.6891 182.594C72.0597 182.49 72.4535 182.503 72.8164 182.631C73.1794 182.759 73.4938 182.996 73.7166 183.309C73.7737 183.387 80.0367 191.573 104.053 191.573C128.069 191.573 134.173 183.404 134.228 183.321C134.45 183.009 134.763 182.772 135.124 182.643C135.485 182.514 135.878 182.499 136.248 182.6C136.618 182.701 136.949 182.913 137.194 183.207C137.44 183.501 137.588 183.864 137.621 184.246C138.775 199.232 135.957 210.5 129.248 217.732C124.068 223.31 116.612 226.408 107.051 226.956C108.577 229.832 110.399 234.682 109.133 239.925C108.541 242.379 108.304 245.266 108.42 248.512C108.541 251.947 110.9 254.879 114.156 255.645C128.207 258.947 145.079 258.364 151.677 257.961C152.461 257.914 153.21 257.617 153.812 257.114C154.414 256.61 154.837 255.926 155.02 255.163ZM126.508 215.2C131.913 209.376 134.465 200.38 134.111 188.413C129.979 191.334 121.214 195.288 104.053 195.288C86.8367 195.288 78.0124 191.307 73.8568 188.387C73.5242 200.406 76.0973 209.435 81.5193 215.262C86.4874 220.601 94.0168 223.308 103.894 223.308C113.894 223.32 121.504 220.589 126.503 215.2H126.508ZM70.5661 152.527L70.0909 152.357C69.4114 152.293 68.7437 152.219 68.0975 152.141C54.4832 150.463 37.1577 145.252 36.4259 145.029C36.1568 144.946 35.9101 144.804 35.7043 144.612C35.4985 144.42 35.3391 144.184 35.2379 143.922C33.5985 139.731 30.9065 136 29.6924 136.242C28.0292 136.573 27.5184 140.561 27.6087 142.621C27.6214 142.914 27.5645 143.206 27.4426 143.473C27.3208 143.74 27.1374 143.975 26.9074 144.158C26.6774 144.341 26.4074 144.467 26.1193 144.526C25.8311 144.585 25.5331 144.576 25.2494 144.498C24.6673 144.347 19.7181 143.209 17.4919 147.881C17.3342 148.203 17.1961 148.534 17.0784 148.872C16.5139 150.536 16.364 152.312 16.6418 154.047C16.9195 155.782 17.6166 157.423 18.6727 158.828C21.4906 162.571 26.751 164.48 33.4678 164.195C33.7027 164.185 33.9373 164.22 34.1592 164.297L62.2621 174.047C63.3456 170.423 65.9377 162.299 69.4185 154.886C69.7915 154.087 70.1741 153.3 70.5661 152.527ZM66.6909 35.8788C68.1512 34.7237 69.6906 33.6717 71.2979 32.7307C66.4794 17.3386 55.6902 9.00838 46.93 4.62283C45.6896 3.98904 44.3092 3.67703 42.9161 3.71556C41.523 3.75409 40.162 4.14192 38.9587 4.84329C37.7477 5.52346 36.7278 6.49697 35.9933 7.674C35.2587 8.85103 34.8331 10.1937 34.7556 11.5781C33.2231 35.4047 44.0218 49.4906 51.3683 56.2301C52.3187 54.3905 53.2691 52.6126 54.2694 50.894C49.0185 46.1315 40.3011 35.509 38.7615 16.5563C38.6819 15.5507 38.8778 14.5425 39.3282 13.6394C39.7786 12.7364 40.4666 11.9725 41.3186 11.4295C42.1706 10.8865 43.1545 10.5848 44.1651 10.5567C45.1757 10.5286 46.175 10.7751 47.056 11.2699C52.9151 14.5768 60.8009 21.4965 66.6909 35.8788ZM56.2818 47.6131C58.3945 44.2917 60.887 41.2265 63.7091 38.4793C58.1731 24.2559 50.7078 17.6183 45.217 14.5128C44.9467 14.3575 44.6403 14.2757 44.3284 14.2758C43.9736 14.2809 43.6273 14.3843 43.3281 14.5745C43.0448 14.7513 42.816 15.0026 42.6668 15.3008C42.5175 15.599 42.4537 15.9326 42.4822 16.2647C43.8603 33.1882 51.5038 43.0355 56.2818 47.6131ZM65.9615 237.259C59.601 230.692 57.5577 219.913 57.4294 209.21C39.1345 217.429 21.79 217.41 12.0865 216.438C12.0145 216.433 11.9423 216.433 11.8703 216.438C11.5399 216.44 11.2159 216.529 10.9307 216.695C10.6455 216.862 10.4091 217.1 10.2452 217.386C10.0504 217.712 9.95618 218.089 9.97435 218.468C9.99252 218.848 10.1222 219.213 10.3473 219.52C21.752 235.447 39.1725 241.711 51.9528 244.152C52.1904 243.858 52.428 243.574 52.6775 243.294C55.8565 239.764 61.8725 238.048 65.9615 237.251V237.259Z" fill="black"/>
<path d="M141.443 51.6148C141.801 52.7173 141.982 53.8695 141.978 55.0284C141.978 60.137 138.573 64.2736 134.375 64.2736C130.176 64.2736 126.772 60.1323 126.772 55.0284C126.772 49.9246 130.179 45.7832 134.375 45.7832C135.563 45.786 136.727 46.114 137.742 46.7314C139.419 47.7413 140.747 49.4837 141.443 51.6148ZM138.181 59.6012C138.701 58.2761 138.381 56.9107 137.468 56.5527C136.556 56.1947 135.389 56.9794 134.869 58.3022C134.349 59.625 134.667 60.9904 135.582 61.3484C136.497 61.7063 137.661 60.924 138.181 59.6012ZM135.192 52.8854C135.192 51.1597 134.042 49.761 132.621 49.761C131.201 49.761 130.053 51.1597 130.053 52.8854C130.053 54.6112 131.203 56.0122 132.621 56.0122C134.04 56.0122 135.192 54.6136 135.192 52.8854Z" fill="black"/>
<path d="M130.172 104.016C134.14 104.016 137.357 108.269 137.357 113.515C137.357 118.761 134.14 123.016 130.172 123.016C126.204 123.016 122.985 118.766 122.985 113.515C122.985 108.264 126.202 104.016 130.172 104.016ZM134.095 118.183C134.553 116.846 134.095 115.485 133.097 115.139C132.099 114.793 130.897 115.596 130.438 116.931C129.979 118.266 130.438 119.629 131.436 119.975C132.434 120.321 133.636 119.517 134.095 118.183ZM130.564 111.18C130.564 109.355 129.445 107.875 128.064 107.875C126.684 107.875 125.567 109.355 125.567 111.18C125.567 113.005 126.686 114.485 128.064 114.485C129.442 114.485 130.564 112.993 130.564 111.18Z" fill="black"/>
<path d="M129.095 90.826C134.798 92.502 135.389 96.9729 135.539 98.7603C135.539 98.7603 128.492 93.6186 121.169 95.5198C121.174 95.5198 123.395 89.1477 129.095 90.826Z" fill="black"/>
<path d="M117.781 124.64C118.143 125.89 118.325 127.184 118.323 128.485C118.323 132.226 116.833 135.814 114.182 138.459C111.531 141.104 107.935 142.59 104.186 142.59C100.436 142.59 96.8407 141.104 94.1895 138.459C91.5383 135.814 90.0489 132.226 90.0489 128.485C90.0459 127.181 90.2283 125.884 90.5906 124.631C90.6984 124.265 90.9157 123.942 91.2134 123.704C91.511 123.465 91.8747 123.324 92.2554 123.298C92.6361 123.272 93.0156 123.363 93.3428 123.559C93.6701 123.755 93.9293 124.046 94.0856 124.394C95.0907 126.615 98.8803 128.862 104.183 128.862C109.487 128.862 113.279 126.615 114.284 124.394C114.439 124.046 114.698 123.755 115.026 123.558C115.353 123.362 115.732 123.271 116.113 123.297C116.494 123.323 116.857 123.464 117.155 123.703C117.452 123.941 117.669 124.265 117.776 124.631L117.781 124.64ZM109.819 137.216C111.118 136.375 112.214 135.257 113.027 133.943C113.84 132.628 114.351 131.149 114.521 129.614C111.924 131.475 108.23 132.589 104.181 132.589C100.132 132.589 96.4378 131.475 93.8433 129.614C94.0143 131.15 94.5254 132.628 95.3394 133.943C96.1534 135.258 97.25 136.376 98.5501 137.216C99.5408 135.557 101.689 134.419 104.181 134.419C105.353 134.411 106.51 134.677 107.56 135.196C108.488 135.645 109.271 136.345 109.819 137.216Z" fill="black"/>
<path d="M112.697 67.483C113.341 68.1942 113.666 68.9054 113.647 69.4364V69.4743C113.554 70.8445 109.199 74.0803 106.056 75.2182V78.5512C107.593 79.8711 109.399 80.8418 111.35 81.3959C115.567 82.6191 120.252 81.9364 123.291 79.6607C124.273 78.9404 125.091 78.0217 125.692 76.9646C126.294 75.9074 126.665 74.7356 126.781 73.5256C126.826 73.1321 126.849 72.7364 126.848 72.3403C126.848 72.1815 126.848 72.0085 126.848 71.8212C126.843 71.1541 126.786 70.4884 126.679 69.8299C126.57 69.1973 126.401 68.5765 126.173 67.9761C126.121 67.9074 126.066 67.841 126.009 67.7746L126.102 67.796C124.519 63.9248 119.582 59.4468 104.191 59.4468C88.7993 59.4468 83.8715 63.9106 82.2772 67.7817L82.3699 67.7604L82.206 67.9619C81.9779 68.562 81.8092 69.1828 81.7023 69.8157C81.5938 70.4748 81.5374 71.1414 81.5336 71.8093C81.5336 71.9942 81.5336 72.1673 81.5336 72.3261C81.5333 72.7221 81.5547 73.1178 81.5977 73.5114C81.7142 74.7218 82.085 75.8942 82.6859 76.9521C83.2869 78.01 84.1046 78.9297 85.0856 79.6512C88.1245 81.9269 92.8123 82.6096 97.0248 81.3888L97.4454 81.2632L97.8089 81.1399L97.8968 81.1091C98.2936 80.9692 98.6809 80.8104 99.0587 80.635C100.239 80.0983 101.337 79.3967 102.318 78.5512V75.2182C99.1775 74.0803 94.8199 70.8445 94.7297 69.4743C94.7285 69.4617 94.7285 69.449 94.7297 69.4364C94.7107 68.9054 95.0362 68.2013 95.68 67.4854C96.5044 66.609 97.4986 65.909 98.6025 65.4278C100.369 64.6708 102.272 64.2804 104.194 64.2804C106.117 64.2804 108.02 64.6708 109.786 65.4278C110.885 65.9108 111.875 66.6098 112.697 67.483ZM154.2 105.68C155.661 108.776 159.593 122.732 152.142 134.445C147.775 141.319 140.45 146.2 130.255 149.078C123.007 151.125 114.315 152.152 104.179 152.16C94.0905 152.16 85.423 151.14 78.1763 149.102C67.9431 146.229 60.5942 141.331 56.2153 134.449C48.7738 122.732 52.706 108.776 54.172 105.68C54.6709 104.623 55.2103 102.176 55.8352 99.3435L55.885 99.1183C55.885 99.0993 55.885 99.078 55.885 99.059C57.1895 93.1444 59.1591 84.2027 63.2814 78.3023C66.2466 74.0637 71.6899 71.0294 78.1074 68.9623C79.0103 64.4013 81.8519 60.9711 86.5896 58.738C90.9091 56.6993 96.6661 55.7061 104.184 55.7061C111.701 55.7061 117.458 56.6993 121.766 58.738C126.503 60.9711 129.345 64.4013 130.248 68.9623C136.663 71.0294 142.109 74.0637 145.074 78.2999C149.199 84.1979 151.125 92.9501 152.532 99.3411C153.174 102.172 153.711 104.62 154.2 105.68ZM148.999 132.448C156.41 120.797 150.9 107.394 150.831 107.266C150.27 106.081 149.793 104.144 149.248 101.709C147.98 100.432 147.077 98.8392 146.635 97.0962C145.698 96.1653 144.958 95.056 144.459 93.8343C143.789 92.1677 143.466 90.383 143.508 88.5882C143.508 88.5882 134.556 91.3926 131.576 80.8768C131.576 80.8768 127.221 85.1035 121.269 84.8332C118.178 85.8263 114.88 85.9899 111.706 85.3073C110.84 86.4842 109.709 87.4413 108.404 88.1009C107.099 88.7605 105.656 89.1043 104.193 89.1043C102.73 89.1043 101.287 88.7605 99.9823 88.1009C98.6771 87.4413 97.5459 86.4842 96.6803 85.3073C95.389 85.5796 94.0727 85.717 92.7529 85.7175C90.8395 85.7238 88.9375 85.4236 87.1195 84.8285C81.1653 85.0987 76.8101 80.872 76.8101 80.872C73.8283 91.3926 64.8638 88.5882 64.8638 88.5882C64.9123 90.3966 64.5889 92.1958 63.9134 93.8746C63.2678 95.4252 62.2337 96.7843 60.9102 97.8216C60.5537 98.8924 60.0205 99.8963 59.3326 100.792C58.6982 103.665 58.1755 105.934 57.5435 107.273C57.4817 107.399 51.9647 120.802 59.3753 132.453C66.1183 143.057 81.1962 148.433 104.186 148.433C127.176 148.433 142.256 143.052 148.999 132.448ZM107.821 84.0486L107.631 83.9609L107.491 83.8945L107.327 83.8163L107.146 83.7262C106.956 83.6314 106.766 83.5318 106.581 83.4275L106.389 83.3208L106.248 83.2402C106.208 83.2189 106.168 83.1928 106.127 83.1691C106.042 83.1193 105.956 83.0695 105.873 83.0174L105.718 82.9226L105.448 82.7471L105.312 82.6594C105.094 82.514 104.88 82.3647 104.671 82.2114L104.542 82.1166C104.424 82.0265 104.305 81.9364 104.188 81.8439C104.043 81.9601 103.896 82.081 103.746 82.1829L103.556 82.3204L103.34 82.4721L103.067 82.6594L102.931 82.7471C102.841 82.8064 102.751 82.8657 102.658 82.9226L102.539 82.996L102.435 83.06L102.25 83.1691L102.14 83.2355L101.991 83.3208L101.784 83.4346C101.625 83.5223 101.466 83.6053 101.309 83.6882C101.261 83.712 101.214 83.738 101.164 83.7594L101.021 83.8329L100.874 83.904L100.724 83.9727L100.56 84.0486C101.572 84.9138 102.86 85.3895 104.192 85.3895C105.524 85.3895 106.812 84.9138 107.824 84.0486H107.821Z" fill="black"/>
<path d="M104.005 115.8C107.156 115.741 109.399 118.766 109.294 121.674C108.03 121.127 107.054 120.546 106.146 120.119C105.466 119.804 104.766 119.498 104.143 119.522C102.575 119.664 100.634 121.032 98.7615 121.674C98.8589 118.818 100.95 116.009 104.005 115.8Z" fill="black"/>
<path d="M77.4563 90.826C83.1586 89.1477 85.3849 95.5198 85.3849 95.5198C78.0622 93.6233 71.0127 98.7603 71.0127 98.7603C71.1719 96.9729 71.754 92.502 77.4563 90.826Z" fill="black"/>
<path d="M78.2071 104.016C82.1749 104.016 85.392 108.269 85.392 113.515C85.392 118.761 82.1749 123.016 78.2071 123.016C74.2392 123.016 71.0198 118.766 71.0198 113.515C71.0198 108.264 74.2368 104.016 78.2071 104.016ZM82.8117 111.18C82.8117 109.355 81.6926 107.875 80.3122 107.875C78.9317 107.875 77.815 109.355 77.815 111.18C77.815 113.005 78.9317 114.485 80.3122 114.485C81.6926 114.485 82.8117 112.993 82.8117 111.18ZM76.9407 119.975C77.9528 119.629 78.3995 118.268 77.941 116.931C77.4824 115.594 76.2778 114.797 75.2823 115.139C74.2867 115.48 73.8234 116.846 74.282 118.183C74.7405 119.52 75.9309 120.321 76.9407 119.975Z" fill="black"/>
<path d="M74.004 45.7783C78.207 45.7783 81.607 49.9197 81.607 55.0235C81.607 60.1274 78.2023 64.2688 74.004 64.2688C69.8056 64.2688 66.4009 60.1274 66.4009 55.0235C66.4002 54.4289 66.4471 53.8352 66.5411 53.248C67.0899 49.8083 69.2093 47.049 71.9535 46.115C72.6137 45.8908 73.3066 45.7771 74.004 45.7783ZM78.3187 52.89C78.3187 51.1643 77.1688 49.7656 75.7503 49.7656C74.3319 49.7656 73.1795 51.1595 73.1795 52.8853C73.1795 54.6111 74.3319 56.0121 75.7503 56.0121C77.1688 56.0121 78.3187 54.6134 78.3187 52.8853V52.89ZM72.797 61.353C73.7117 60.995 74.0325 59.6319 73.5098 58.3068C72.9871 56.9816 71.8252 56.1994 70.9081 56.5573C69.991 56.9153 69.6726 58.2807 70.1953 59.6059C70.718 60.931 71.8822 61.7062 72.797 61.3482V61.353Z" fill="black"/>
<path d="M34.4514 62.1874C34.8191 65.6483 34.116 69.1385 32.4366 72.1889L34.1901 78.1485C34.2814 78.4596 34.2899 78.7891 34.2145 79.1044C34.1392 79.4197 33.9827 79.71 33.7605 79.9465C33.5383 80.183 33.2581 80.3576 32.9476 80.453C32.6371 80.5485 32.307 80.5614 31.99 80.4906L25.5749 79.0564C22.3222 80.8356 18.5817 81.5224 14.9073 81.0153C11.2329 80.5082 7.81977 78.8341 5.17328 76.2408C2.52679 73.6475 0.787606 70.2729 0.213199 66.6165C-0.361208 62.9602 0.259699 59.2165 1.984 55.9396C3.7083 52.6628 6.44433 50.027 9.78703 48.4225C13.1297 46.8181 16.9014 46.3301 20.5437 47.031C24.186 47.7319 27.5053 49.5844 30.0101 52.3141C32.515 55.0439 34.0723 58.5058 34.4514 62.1874ZM28.8157 70.9751C30.0653 68.9305 30.7474 66.591 30.7919 64.1966C30.8363 61.8022 30.2417 59.4391 29.0688 57.3496C27.896 55.2602 26.1872 53.5196 24.1177 52.3064C22.0482 51.0933 19.6925 50.4512 17.2922 50.446C16.8225 50.446 16.353 50.4698 15.8857 50.5171C14.1062 50.6831 12.3773 51.1992 10.7989 52.0356C9.22042 52.872 7.82367 54.0121 6.68929 55.39C5.55491 56.768 4.70538 58.3565 4.18973 60.0638C3.6741 61.7712 3.50257 63.5636 3.68507 65.3374C3.86757 67.1113 4.40047 68.8315 5.253 70.3987C6.10554 71.9659 7.26081 73.3491 8.65211 74.4684C10.0434 75.5877 11.6432 76.4209 13.359 76.9199C15.0748 77.4189 16.8727 77.5738 18.6489 77.3757C20.6479 77.1735 22.5756 76.5254 24.2895 75.4792C24.7016 75.2252 25.1963 75.1402 25.6699 75.2421L29.709 76.1453L28.6232 72.4544C28.5519 72.2078 28.5321 71.9493 28.5652 71.6948C28.5984 71.4403 28.6836 71.1953 28.8157 70.9751Z" fill="black"/>
<path d="M22.1891 59.6319C22.506 59.948 22.7574 60.3233 22.9289 60.7363C23.1004 61.1494 23.1887 61.5921 23.1887 62.0392C23.1887 62.4863 23.1004 62.929 22.9289 63.342C22.7574 63.7551 22.506 64.1304 22.1891 64.4465L21.9824 64.6551L17.7936 68.8344C17.71 68.9179 17.6107 68.984 17.5015 69.0292C17.3922 69.0744 17.2751 69.0976 17.1568 69.0976C17.0386 69.0976 16.9215 69.0744 16.8122 69.0292C16.703 68.984 16.6037 68.9179 16.5201 68.8344L12.3313 64.6551L12.1246 64.4465C11.8074 64.1305 11.5558 63.7553 11.3841 63.3422C11.2124 62.9292 11.124 62.4864 11.124 62.0392C11.124 61.592 11.2124 61.1492 11.3841 60.7362C11.5558 60.3231 11.8074 59.9478 12.1246 59.6319C13.4575 58.3044 15.6172 58.5414 16.9501 59.8689L17.1568 60.0752L17.3635 59.8689C18.0643 59.163 19.0146 58.7595 20.0104 58.7453C20.4144 58.741 20.8152 58.8172 21.1893 58.9695C21.5634 59.1217 21.9034 59.3469 22.1891 59.6319Z" fill="black"/>
</g>
<defs>
<clipPath id="clip0_1932_762">
<rect width="195" height="262" fill="white"/>
</clipPath>
</defs>
</svg>
