<svg width="247" height="267" viewBox="0 0 247 267" fill="none" xmlns="http://www.w3.org/2000/svg">
<g clip-path="url(#clip0_1932_800)">
<path d="M105.351 45.5107C101.553 49.5607 97.1167 52.9636 92.217 55.5846C91.7989 54.573 91.0411 52.77 89.7346 53.8764C87.4371 56.316 84.9397 58.5603 82.2684 60.5861C76.0398 59.8872 70.3909 51.2537 70.2246 57.2099C68.2485 56.1624 66.363 54.9531 64.5875 53.5945C63.4996 52.7558 62.4496 51.8602 61.4329 50.9102C74.6834 43.6437 90.7442 41.3385 105.351 45.5107Z" fill="white"/>
<path d="M152.761 76.109C151.695 82.1647 150.357 88.2134 148.381 94.0393C147.63 94.9988 145.055 93.8284 143.806 93.9516C143.055 84.0405 141.752 74.1787 139.903 64.4121C144.374 68.0939 148.628 72.0458 152.761 76.109Z" fill="white"/>
<path d="M175.405 37.0265C176.83 48.9532 172.136 60.4155 166.998 70.8401C164.385 69.8663 161.442 69.755 158.85 70.8401C157.733 54.4 156.213 37.9931 153.933 21.6763C153.695 19.6861 153.517 17.7007 153.438 15.6963C156.786 15.2428 160.161 15.0314 163.539 15.0638C163.116 16.3834 162.648 17.7007 162.252 19.0299C161.401 19.2668 160.541 19.5203 159.696 19.7904C158.327 20.2216 158.912 22.3776 160.294 21.944C164.057 20.7619 167.889 19.8085 171.768 19.0891C170.672 26.1417 168.923 33.0778 166.542 39.808C166.055 41.1655 168.224 41.7531 168.701 40.405C169.285 38.7726 169.815 37.1236 170.324 35.4699C171.768 34.9961 173.317 34.5649 174.837 34.5672C175.414 34.9795 175.215 36.3086 175.405 37.0265Z" fill="white"/>
<path d="M156.679 71.8966C156.682 71.9397 156.689 71.9825 156.7 72.0245C155.759 72.6886 154.933 73.5017 154.256 74.4316C128.838 47.2779 87.1642 27.1798 54.026 53.5114C54.026 53.5114 54.026 53.5114 54.0117 53.5114C53.1452 54.2978 52.331 55.1399 51.5745 56.0322C52.2871 44.0676 59.8887 32.5224 69.8444 26.1113C70.082 26.007 70.3006 25.9028 70.5238 25.8151C78.907 22.3513 88.561 20.7781 97.7566 22.0243C99.6216 22.2446 101.473 22.5657 103.303 22.9862C105.461 23.4721 107.588 24.0868 109.672 24.8271C111.769 25.5614 113.823 26.4125 115.825 27.3764C117.119 28.0043 118.262 26.0733 116.96 25.4455C104.553 19.4514 89.9887 17.6602 76.6313 21.3396C77.5815 20.6289 78.5317 19.9181 79.5104 19.2666C92.3785 10.4246 107.686 5.75012 123.068 3.71496C132.926 2.40004 142.898 2.13231 152.828 2.29342C149.611 11.9551 151.863 22.2139 153.023 32.0414C154.702 45.2712 155.716 58.5862 156.679 71.8966Z" fill="white"/>
<path d="M121.267 109.868C123.032 111.173 123.053 113.659 123.025 115.639C121.737 116.647 120.404 117.595 119.025 118.483C119.236 117.087 121.36 114.692 119.443 113.844C117.412 113.817 116.742 118.487 116.25 120.115C114.779 120.919 113.259 121.631 111.698 122.247C112.618 118.615 116.293 107.504 121.267 109.868Z" fill="white"/>
<path d="M101.987 112.538C102.914 116.026 93.83 115.988 91.4331 116.192C92.9344 102.685 97.2745 92.6367 101.987 112.538Z" fill="white"/>
<path d="M84.3469 91.2745C88.3591 97.9676 71.3743 93.6438 68.842 92.1156C64.9295 91.3267 56.3088 84.1621 63.3095 81.7905C69.7898 82.8519 74.9803 88.2775 80.8098 91.1632C81.4417 92.9638 83.1425 91.0945 84.3469 91.2745Z" fill="white"/>
<path d="M126.709 69.8757C131.517 76.6398 108.119 94.7928 102.527 90.052C99.3743 86.0883 106.974 88.8461 106.327 86.1665C110.862 82.1175 119.837 62.4837 126.709 69.8757Z" fill="white"/>
<path d="M172.758 80.2835C174.768 87.2159 170.661 95.3945 163.629 97.4486C159.03 99.7444 150.93 95.4798 148.873 101.419C138.278 138.071 86.9076 165.862 69.3336 119.248C66.9581 112.204 66.6493 104.582 63.6538 97.7305C57.095 85.728 49.693 72.6617 52.4985 58.4464C54.3989 55.9184 56.7886 53.8477 59.4349 52.1182C61.4731 53.7056 71.2578 63.3199 72.2626 58.1123C81.4582 64.1918 82.5486 64.5685 90.2048 56.5747C91.775 62.0974 105.622 48.5193 107.75 46.2046C118.509 49.5215 128.393 55.3095 137.206 62.249C139.362 73.0453 140.842 83.9648 141.639 94.9443C141.684 95.6077 142.114 95.9892 142.76 96.0626C144.948 96.0934 147.343 97.1738 149.412 96.3161C152.5 91.5042 152.961 85.0291 154.4 79.4946C155.716 72.1216 165.119 69.9679 170.01 75.4456C160.916 71.1502 152.799 87.6376 158.08 87.0406C158.754 86.7554 159.501 86.6919 160.214 86.8593C160.927 87.0268 161.567 87.4164 162.042 87.9717C162.409 88.3745 162.674 88.8577 162.818 89.3821C162.962 89.9065 162.981 90.4574 162.871 90.9901C165.325 96.7734 167.594 83.9748 158.94 84.5932C160.03 77.8527 168.482 74.2254 172.758 80.2835ZM130.237 105.096C130.964 103.848 129.023 102.713 128.301 103.971C127.727 105.116 126.908 106.121 125.901 106.916C125.543 107.18 125.166 107.418 124.773 107.627L123.614 104.72C119.88 105.317 115.093 102.903 122.284 100.761C116.689 83.9582 101.937 93.6531 114.069 109.214C111.705 108.444 111.549 111.74 113.948 111.437C111.572 114.962 109.891 118.902 109.275 123.098C103.251 124.993 96.8372 125.268 90.573 122.949C89.219 122.442 88.637 124.607 89.9744 125.102C104.384 133.158 134.871 113.159 125.222 113.815C125.171 112.588 124.886 111.382 124.384 110.261C126.92 109.338 129.013 107.493 130.244 105.096H130.237ZM126.232 79.7457C133.676 72.6001 127.092 60.8843 117.872 68.1958C112.786 73.382 108.845 79.6202 104.239 85.24C96.4524 85.2542 99.6023 94.1032 105.838 93.2172C105.814 94.5392 105.23 97.695 107.339 97.451C107.623 97.3665 107.864 97.1759 108.01 96.919C108.157 96.6621 108.198 96.3587 108.126 96.0721C107.923 94.9746 107.934 93.8487 108.156 92.7552C113.551 90.675 118.416 87.2372 122.718 83.4133C123.044 83.5128 123.431 83.5152 123.742 83.6502C124.399 83.9523 124.964 84.4233 125.379 85.0149C126.213 85.8773 126.519 88.301 128.144 87.5263C129.736 85.6025 126.36 82.4111 124.581 81.5914C125.146 80.9848 125.707 80.3665 126.239 79.7339L126.232 79.7457ZM103.189 115.978C106.429 112.221 101.51 100.412 96.8586 99.0549C90.4804 98.5219 89.9364 112.74 89.0812 117.329C90.3972 120.236 100.745 117.383 103.185 115.966L103.189 115.978ZM84.3682 96.6644C89.1002 94.833 87.8341 87.1875 82.3134 89.4548C75.5622 86.4767 69.2481 78.4166 61.409 79.9779C53.375 85.0528 63.4804 93.4162 69.4001 94.7121C67.5663 96.3706 66.6018 104.741 69.6234 104.964C70.253 104.791 70.5143 104.18 70.4097 103.583C68.2338 91.1844 74.6286 97.6476 82.064 97.2022C83.0231 98.5798 83.7219 100.121 84.1259 101.749C84.208 102.034 84.3986 102.275 84.657 102.422C84.9153 102.568 85.2209 102.608 85.5084 102.533C87.5324 101.301 85.0262 98.247 84.3682 96.6644ZM85.5179 117.277L84.0926 113.178C80.4462 113.69 77.2227 111.346 82.9714 109.437C77.6645 92.7741 66.2479 104.293 75.5123 116.272L74.2937 115.573C75.947 120.172 82.5794 121.165 85.5179 117.277Z" fill="white"/>
<path d="M244.777 247.001C244.955 248.797 242.907 249.543 241.351 249.844C242.342 247.733 240.995 244.724 238.46 244.774C236.759 244.895 237.204 247.26 238.781 247.056C241.066 249.553 236.405 252.481 233.973 252.031C235.234 250.249 234.626 247.342 232.367 246.729C231.555 246.452 230.626 245.909 230.058 246.85C229.229 248.428 231.536 248.572 232.217 249.219C232.233 249.262 232.256 249.303 232.284 249.34C232.904 251.92 229.236 252.42 227.388 252.583C229.433 247.639 222.998 245.838 219.606 248.364C218.306 248.982 219.442 250.913 220.734 250.292C221.939 249.719 223.658 248.871 224.936 249.733C227.573 254.071 217.675 255.258 215.525 252.59C212.802 250.638 214.475 247.191 212.976 244.672C211.028 242.699 210.396 240.408 211.55 237.79C212.598 238.718 214.104 237.138 213.083 236.172C211.983 235.3 210.764 234.397 210.151 233.092C209.914 228.611 209.275 227.346 205.555 224.562C209.866 224.138 214.09 223.252 218.055 221.191C226.844 227.986 230.806 240.145 241.639 244.438C242.727 244.914 244.627 245.592 244.777 247.001Z" fill="white"/>
<path d="M221.124 213.51C219.613 222.729 204.072 222.937 196.784 222.018C173.742 220.142 165.002 188.138 142.304 197.681C140.986 198.271 142.131 200.195 143.44 199.612C145.443 198.716 147.6 198.21 149.794 198.122C140.905 202.316 133.066 208.437 126.852 216.038C125.947 217.149 127.524 218.737 128.436 217.618C129.401 216.434 130.41 215.292 131.448 214.181C135.879 219.218 142.252 223.032 145.381 228.981C144.528 231.426 137.506 233.028 134.9 234.037C121.079 238.716 104.919 226.207 101.752 212.967C100.724 202.356 110.401 193.912 117.362 187.617C118.049 187.395 118.719 187.123 119.367 186.804C132.123 192.069 160.346 180.535 172.435 174.107C181.184 181.696 222.649 204.097 221.124 213.51Z" fill="white"/>
<path d="M188.014 153.097C187.57 164.943 164.021 159.404 157.132 156.459C149.913 154.241 137.912 157.295 136.762 147.013C137.105 146.539 137.449 146.037 137.801 145.53C136.572 143.326 133.976 141.502 131.408 142.436C130.954 143.127 130.513 143.8 130.085 144.464C127.964 137.538 138.283 137.666 141.388 141.817C148.239 142.549 135.492 133.136 130.339 137.827C129.116 132.416 139.071 129.772 141.993 133.935C142.376 134.409 143.181 134.33 143.58 133.935C144.414 129.831 137.238 129.012 134.316 130.144C137.425 124.259 146.029 124.221 150.158 129.033C153.788 131.288 148.106 146.975 152.624 144.279C163.435 150.304 188.059 134.809 188.014 153.097Z" fill="white"/>
<path d="M180.583 141.592C174.272 141.154 168.1 143.843 161.762 143.487C159.479 141.035 157.961 136.899 155.192 135.321C154.443 136.015 154.066 137.098 153.455 137.927C153.638 134.103 154.431 129.49 151.063 126.751C153.999 121.034 163.045 121.041 166.71 126.109C170.925 131.622 175.276 137.055 180.583 141.592Z" fill="white"/>
<path d="M171.965 168.395C172.459 169.58 172.602 170.572 171.913 171.52C159.515 179.22 136.185 187.394 121.521 185.522C122.632 184.71 123.612 183.735 124.429 182.629C130.814 183.21 140.133 171.02 132.584 167.172C133.876 163.405 132.624 158.965 130.365 155.765C131.463 154.409 133.123 152.163 135.116 149.368C136.708 157.696 146.464 157.127 153.049 157.913C158.75 158.565 163.758 161.666 169.44 162.289C170.283 164.325 171.129 166.353 171.965 168.395Z" fill="white"/>
<path d="M163.42 104.888C164.556 106.71 158.995 108.558 157.688 109.458C156.965 108.751 156.025 108.307 155.018 108.198C155.018 108.198 154.227 109.34 152.904 111.264C150.786 111.874 148.612 112.271 146.414 112.448C153.177 99.5076 147.452 100.692 160.346 100.318C161.379 101.842 162.404 103.365 163.42 104.888Z" fill="white"/>
<path d="M148.402 240.991C151.058 243.03 151.108 247.205 148.343 249.179C145.067 251.117 140.668 249.29 137.587 251.951C132.75 256.732 132.496 252.955 128.002 254.239C123.467 259.082 119.827 251.588 124.871 251.749C126.253 252.159 126.845 249.998 125.46 249.596C123.165 248.885 120.504 250.527 120.234 252.943C119.913 252.903 119.606 253.133 119.283 253.18C117.982 253.417 116.839 251.955 117.775 250.861C118.331 249.998 119.972 250.444 119.949 249.124C118.761 245.947 114.247 250.195 115.285 252.562C114.281 252.879 113.05 253.18 112.138 252.493C112.061 252.433 111.991 252.366 111.929 252.292C111.454 251.463 111.76 250.396 112.288 249.645C112.592 249.262 113.052 248.935 113.558 248.961C117.267 247.236 111.292 244.746 109.708 249.833C110.285 241.092 124.391 245.08 127.177 237.373C132.311 237.396 137.294 235.894 141.958 233.869C142.73 237.077 146.062 238.851 148.402 240.991Z" fill="white"/>
<path d="M131.807 169.291C136.449 171.544 127.895 182.123 123.913 180.175C123.312 179.869 122.875 179.168 123.061 178.517C124.317 177.492 125.202 176.086 125.581 174.513C126.721 173.91 127.61 172.925 128.092 171.731C129.543 171.691 130.774 170.13 131.553 169.189C131.632 169.236 131.718 169.27 131.807 169.291Z" fill="white"/>
<path d="M130.752 162.328C131.111 164.78 130.567 167.36 128.676 169C129.363 155.509 113.407 154.047 118.666 158.414C124.514 158.501 128.168 166.727 125.655 171.542C125.009 164.759 110.573 159.75 114.687 164.863C123.189 165.654 128.154 177.962 116.789 178.251C116.552 168.625 103.833 172.091 109.568 174.174C108.014 176.425 104.641 181.317 100.671 187.138C93.0699 186.584 83.1783 187.029 87.4352 176.081C92.4641 164.844 101.08 155.509 107.67 145.149C109.067 144.897 110.447 144.561 111.803 144.142C112.134 147.193 112.609 150.22 113.228 153.223C113.228 153.223 113.228 153.239 113.243 153.254C108.197 159.76 105.403 167.67 101.23 174.726C100.557 175.993 102.493 177.126 103.166 175.851C107.527 169.805 111.017 155.597 117.894 153.289C124.101 151.808 129.94 156.073 130.752 162.328Z" fill="white"/>
<path d="M128.826 146.439C128.771 146.52 128.712 146.61 128.659 146.693C125.118 146.271 121.809 143.831 120.759 140.4C123.302 139.007 125.728 137.409 128.011 135.622C127.849 136.265 127.826 136.936 127.944 137.59C128.061 138.243 128.315 138.864 128.69 139.412C127.146 141.402 126.902 144.606 128.826 146.439Z" fill="white"/>
<path d="M127.389 148.697C126.676 149.839 126.051 150.853 125.557 151.702C122.329 150.695 118.431 150.503 115.243 151.799C114.687 149.034 114.259 146.238 113.974 143.435C115.6 142.857 117.194 142.192 118.749 141.443C119.444 143.29 120.604 144.927 122.117 146.197C123.63 147.468 125.446 148.329 127.389 148.697Z" fill="white"/>
<path d="M120.913 179.803C121.164 180.58 121.64 181.265 122.281 181.772C119.357 185.326 114.625 186.617 110.112 186.065C112.069 183.144 113.653 180.772 114.625 179.317C115.901 181.331 119.013 180.431 120.913 179.803Z" fill="white"/>
<path d="M96.412 240.619C99.1154 252.292 83.7554 252.993 86.252 258.151C87.0977 259.411 88.6133 259.099 89.8937 259.324C90.5873 259.449 90.5802 259.797 90.1906 260.359C86.5703 264.128 79.7099 261.991 78.0898 257.265C79.8661 255.667 81.4921 253.91 82.9477 252.017C83.8219 250.875 81.8787 249.757 81.0117 250.892C62.8106 272.624 37.7989 267.002 20.1465 248.034C37.5875 251.422 48.2559 262.55 67.5331 253.737C68.8491 253.164 67.7136 251.233 66.3976 251.808C46.4742 261.442 34.1359 245.248 15.7447 245.85C15.5865 245.777 15.412 245.747 15.2386 245.763C15.0652 245.779 14.8989 245.84 14.7565 245.94C10.2644 246.177 6.35199 248.627 2.22812 250.086C2.22812 250.086 2.22812 250.086 2.21387 250.086C9.82973 236.219 19.3175 240.292 31.9362 243.049C33.3401 243.346 33.9458 241.192 32.5253 240.893C26.7694 239.913 21.0849 238.01 15.2435 237.671C29.2328 224.795 51.363 264.327 80.3085 233.809C82.0112 234.152 83.7624 234.18 85.4752 233.892C87.0811 237.839 85.1735 242.012 83.3064 245.537C84.4015 252.659 90.4044 236.01 87.6417 233.288C87.9339 233.177 88.2332 233.051 88.5182 232.907C91.7608 234.646 95.507 236.66 96.412 240.619Z" fill="white"/>
<path d="M91.3286 225.088C91.3642 227.694 89.6657 229.957 87.4565 230.964C87.7328 228.304 87.2312 225.622 86.0122 223.24C88.0195 223.236 89.6515 224.129 91.3286 225.088Z" fill="white"/>
<path d="M87.3211 219.25C88.6921 219.819 89.8321 220.831 90.5589 222.122C89.1362 221.444 87.588 221.068 86.0122 221.018C86.416 220.481 86.8523 219.892 87.3211 219.25Z" fill="white"/>
<path d="M85.2805 229.138C85.3087 229.787 85.2761 230.439 85.1831 231.083C85.0522 231.159 84.9386 231.261 84.8498 231.384C84.761 231.506 84.699 231.646 84.6677 231.793C83.0048 232.03 81.3277 231.793 79.7195 231.429C81.1596 229.217 82.1873 226.764 82.753 224.188C83.1901 224.131 83.4015 224.167 83.7626 223.778C84.6962 225.416 85.2171 227.255 85.2805 229.138Z" fill="white"/>
<path d="M80.767 217.185C80.47 217.659 80.1992 218.118 79.9522 218.535C79.529 217.971 79.0516 217.449 78.5269 216.976C79.2788 216.968 80.0296 217.037 80.767 217.185Z" fill="white"/>
<path d="M79.5247 223.136C79.8354 223.395 80.1798 223.61 80.5486 223.776C79.9707 226.281 78.9229 228.654 77.4604 230.77C75.3011 230.059 73.0753 229.216 71.4053 227.616C72.7617 224.574 76.2893 222.707 79.5247 223.136Z" fill="white"/>
<path d="M78.7478 220.75C78.7225 220.796 78.6995 220.842 78.6789 220.89C75.2036 220.854 71.79 222.612 69.9561 225.581C68.2433 221.868 72.094 218.407 75.3984 217.455C75.8104 217.687 76.2071 217.946 76.5861 218.229C77.1544 218.702 77.6755 219.229 78.1421 219.802C78.3511 220.101 78.5578 220.416 78.7478 220.75Z" fill="white"/>
<path d="M75.5409 232.461C76.3034 232.753 77.0802 233.013 77.8641 233.245C67.3882 245.205 49.2726 245.904 36.376 237.42C36.9223 236.861 37.4758 236.309 38.0388 235.762C41.9109 236.532 45.4314 238.453 49.2892 239.275C50.9331 240.403 67.5996 239.749 61.181 236.761C53.9238 239.095 46.7949 236.311 39.9891 233.918C41.4025 232.629 42.8397 231.383 44.3553 230.206C48.0039 230.683 51.7112 230.434 55.2624 229.472C58.8136 228.51 62.1382 226.855 65.0435 224.603C65.8013 224.716 66.7325 225.349 67.419 224.915C68.1768 228.896 71.9586 231.236 75.5409 232.461Z" fill="white"/>
<path d="M57.3304 223.539C58.9526 223.504 60.5738 223.642 62.1669 223.949C57.6844 226.942 52.3657 228.44 46.9756 228.228C50.097 226.024 53.3633 223.667 57.3304 223.539Z" fill="white"/>
<path d="M38.2145 232.499C36.8748 233.748 35.5397 235.011 34.3045 236.354C32.8792 235.643 31.4206 234.961 29.924 234.392C29.0665 232.76 27.1352 228.694 29.6699 227.863C32.3946 229.429 34.8342 232.319 38.2145 232.499Z" fill="white"/>
<path d="M246.608 245.509C245.097 242.699 241.472 242.379 239.059 240.633C231.079 235.376 227.369 225.799 219.981 219.9C230.609 210.07 214.308 200.657 206.996 195.208C196.069 187.493 184.964 180.045 173.963 172.463C175.939 169.179 172.894 165.637 171.898 162.489C182.79 163.275 194.204 160.01 189.159 146.793C184.576 140.912 177.6 137.034 173.174 130.826C169.026 124.778 163.259 117.544 154.985 120.876C158.073 116.26 160.142 113.135 160.142 113.135C159.86 112.469 159.52 111.828 159.125 111.221C165.853 107.724 168.276 106.677 162.774 99.9482C175.628 97.8822 180.493 78.4308 168.753 71.6904C174.502 61.6828 178.493 49.9977 177.725 38.3269C177.68 33.271 176.383 31.1837 171.041 32.9204C172.414 28.0234 173.46 23.041 174.172 18.0061C173.918 14.7389 166.981 18.3307 164.805 18.333C164.948 16.7125 167.582 13.4548 165.059 12.8388C161.156 12.7376 157.251 12.9468 153.381 13.4643C153.396 9.3655 153.951 5.30702 155.474 1.47598C155.759 0.765208 155.056 0.0733939 154.398 0.0544401C145.381 -0.111406 136.306 0.0497016 127.327 0.971331C106.897 2.98991 86.1451 9.45079 70.6711 23.3676C58.366 29.4139 46.8543 46.4913 49.9876 60.2352C47.5456 75.936 57.4847 88.9928 63.0528 102.734C66.4189 125.65 77.5933 148.633 104.608 145.596C97.0059 157.781 66.4261 190.194 99.3078 189.114C93.2289 198.032 86.1427 208.582 81.9951 215.176C79.9035 214.607 77.7012 214.579 75.5955 215.093C75.366 215.004 75.1136 214.994 74.878 215.065C74.6423 215.135 74.4368 215.282 74.2937 215.481C70.987 216.637 67.7849 219.322 67.3193 222.958C66.9622 222.827 66.5982 222.714 66.2289 222.622C66.1513 222.474 66.0437 222.344 65.9128 222.24C65.782 222.136 65.6308 222.06 65.469 222.017C65.3072 221.975 65.1383 221.966 64.973 221.993C64.8077 222.019 64.6497 222.079 64.509 222.169C48.7167 216.742 44.0916 234.132 35.3189 229.208C33.4802 228.247 32.2307 226.342 30.2424 225.702C25.9499 224.991 25.5745 230.658 26.9903 233.464C22.0968 232.184 14.3004 232.255 12.5639 238.202C8.77499 238.865 -5.99588 250.576 2.68658 252.249C6.10018 251.451 8.98404 249.096 12.5259 248.589C18.5882 246.819 22.7216 253.713 26.8716 257.066C40.1245 269.578 62.2072 270.44 76.282 258.795C82.6959 271.992 101.415 258.459 88.2213 256.959C99.1486 251.439 104.413 238.138 90.5612 231.589C95.2765 227.846 94.0437 219.803 88.6465 217.41C94.1577 209.736 102.717 197.077 108.712 188.131C110.14 188.386 111.592 188.476 113.041 188.398C90.0314 207.622 98.6949 228.495 124.761 237.205C120.611 242.701 110.8 240.067 107.86 247.082C107.061 248.894 107.147 251.756 109.522 252.242C110.145 255.441 114.036 255.59 116.514 254.524C117.05 254.988 117.708 255.291 118.411 255.398C119.113 255.505 119.832 255.411 120.483 255.128C122.238 259.456 126.721 258.253 129.631 256.075C133.432 257.89 136.558 255.789 139.463 253.391C145.381 251.351 153.027 253.391 152.597 243.959C152.072 238.747 145.029 237.754 144.074 232.904C155.258 228.73 136.183 217.237 132.997 212.595C139.019 206.483 146.385 201.934 154.21 198.503C169.547 203.519 175.614 221.421 196.171 224.186C198.072 224.539 200.029 224.629 201.927 224.74C203.972 226.327 207.172 227.95 207.683 230.63C207.262 232.684 208.122 234.743 209.626 236.155C208.082 241.225 208.531 242.422 211.422 246.667C210.234 254.443 219.007 258.774 225.288 254.794C227.514 254.981 229.827 254.725 231.873 253.794C234.576 254.907 237.876 254.085 239.902 252.012C243.346 252.849 248.458 249.418 246.608 245.509ZM82.7315 224.186C83.1686 224.129 83.38 224.164 83.7411 223.776C85.006 225.992 85.5067 228.562 85.1664 231.09C85.0354 231.166 84.9219 231.268 84.8331 231.39C84.7443 231.513 84.6822 231.653 84.6509 231.8C82.9881 232.037 81.3086 231.8 79.7004 231.436C81.1424 229.219 82.1694 226.76 82.7315 224.179V224.186ZM77.4413 230.763C75.2819 230.052 73.0537 229.208 71.3861 227.609C72.7425 224.567 76.2701 222.691 79.5056 223.129C79.8158 223.388 80.1603 223.603 80.5294 223.769C79.9505 226.273 78.9028 228.646 77.4413 230.763ZM80.7527 217.177C80.4534 217.651 80.185 218.111 79.9379 218.528C79.5141 217.964 79.0368 217.442 78.5126 216.969C79.264 216.963 80.014 217.035 80.7503 217.185L80.7527 217.177ZM71.3837 219.81C72.5058 218.716 73.8755 217.908 75.377 217.455C76.4444 218.036 77.3762 218.836 78.1112 219.803C78.3327 220.107 78.5373 220.423 78.724 220.75C78.6994 220.796 78.6772 220.842 78.6575 220.89C75.1822 220.855 71.7686 222.613 69.9347 225.581C68.9346 223.574 69.8397 221.26 71.3837 219.81ZM49.3391 226.579C51.1461 225.224 53.2319 224.285 55.4463 223.83C57.6607 223.375 59.9486 223.416 62.1454 223.949C57.6593 226.944 52.3362 228.442 46.9422 228.228C47.7475 227.668 48.5314 227.109 49.3391 226.579ZM61.1501 236.766C53.8905 239.1 46.764 236.316 39.9582 233.923C41.3693 232.634 42.8088 231.388 44.322 230.211C47.9728 230.689 51.6825 230.439 55.2359 229.477C58.7892 228.514 62.1156 226.857 65.0221 224.603C65.7799 224.716 66.7111 225.349 67.3976 224.915C68.3669 229.824 73.5146 231.959 77.8332 233.243C67.3668 245.215 49.2488 245.904 36.3451 237.42C36.8914 236.861 37.4457 236.308 38.0079 235.762C41.88 236.532 45.4029 238.453 49.2583 239.275C50.895 240.405 67.5687 239.766 61.1501 236.764V236.766ZM28.5202 229.104C28.9953 225.152 34.6632 233.061 38.1932 232.504C36.8534 233.753 35.5184 235.015 34.2831 236.359C32.8578 235.648 31.3993 234.966 29.9027 234.397C29.0499 232.836 28.2137 230.919 28.5202 229.104ZM96.3883 240.623C99.094 252.297 83.734 252.998 86.2306 258.156C87.0739 259.416 88.5919 259.103 89.8699 259.328C90.5659 259.454 90.5588 259.802 90.1692 260.364C86.5466 264.133 79.6885 261.996 78.066 257.27C79.8437 255.672 81.4706 253.916 82.9263 252.022C83.8005 250.88 81.8573 249.761 80.9903 250.896C62.7892 272.629 37.7775 267.007 20.1251 248.039C37.5661 251.427 48.2345 262.555 67.5117 253.742C68.8277 253.168 67.6922 251.237 66.3762 251.813C46.4505 261.446 34.1145 245.253 15.7233 245.855C15.5651 245.782 15.3906 245.752 15.2172 245.768C15.0438 245.784 14.8776 245.845 14.7351 245.945C10.2431 246.182 6.3306 248.631 2.20673 250.091C2.20673 250.091 2.20673 250.091 2.19248 250.091C9.80834 236.224 19.2961 240.296 31.9148 243.054C33.3187 243.35 33.9244 241.197 32.5039 240.898C26.7457 239.917 21.0635 238.015 15.2221 237.676C29.2186 224.811 51.3416 264.344 80.2919 233.826C81.9945 234.169 83.7458 234.197 85.4586 233.909C87.0644 237.856 85.1569 242.028 83.2898 245.554C84.3849 252.676 90.3878 236.027 87.625 233.305C87.9227 233.192 88.2145 233.065 88.4992 232.923C91.7394 234.646 95.4951 236.66 96.3883 240.619V240.623ZM91.3071 225.093C91.3427 227.699 89.6442 229.962 87.435 230.969C87.7113 228.309 87.2097 225.627 85.9907 223.245C87.998 223.236 89.63 224.129 91.3071 225.088V225.093ZM90.535 222.127C89.1143 221.448 87.5677 221.07 85.9931 221.018C86.3969 220.481 86.8332 219.892 87.302 219.251C88.6718 219.819 89.8103 220.831 90.535 222.122V222.127ZM171.944 168.4C172.438 169.584 172.578 170.577 171.891 171.525C159.493 179.225 136.161 187.399 121.5 185.527C122.61 184.715 123.591 183.74 124.407 182.634C130.793 183.215 140.112 171.025 132.562 167.177C133.855 163.41 132.603 158.97 130.344 155.77C131.441 154.414 133.102 152.168 135.095 149.373C136.686 157.7 146.442 157.132 153.027 157.918C158.729 158.57 163.736 161.671 169.418 162.294C170.262 164.325 171.107 166.353 171.944 168.395V168.4ZM131.786 169.295C136.427 171.549 127.873 182.127 123.892 180.18C123.291 179.874 122.854 179.173 123.039 178.521C124.294 177.496 125.179 176.09 125.559 174.517C126.699 173.915 127.589 172.929 128.07 171.736C129.522 171.695 130.752 170.134 131.531 169.194C131.611 169.239 131.696 169.272 131.786 169.291V169.295ZM187.553 148.941C191.905 165.886 165.888 159.987 157.12 156.464C149.899 154.248 137.9 157.3 136.748 147.018C137.092 146.544 137.437 146.041 137.789 145.534C136.56 143.331 133.964 141.507 131.396 142.44C130.94 143.132 130.5 143.805 130.073 144.468C127.952 137.543 138.271 137.671 141.376 141.822C148.227 142.554 135.48 133.141 130.327 137.832C129.104 132.421 139.059 129.777 141.981 133.939C142.364 134.413 143.169 134.335 143.566 133.939C144.4 129.836 137.223 129.016 134.301 130.149C137.411 124.264 146.015 124.226 150.144 129.038C153.773 131.293 148.091 146.98 152.609 144.283C162.814 149.771 183.279 137.436 187.553 148.937V148.941ZM128.802 146.439L128.638 146.693C125.096 146.271 121.787 143.831 120.737 140.4C123.281 139.007 125.705 137.409 127.987 135.622C127.827 136.266 127.805 136.936 127.922 137.59C128.04 138.243 128.294 138.864 128.669 139.412C127.125 141.403 126.88 144.606 128.802 146.439ZM127.377 148.697C126.664 149.839 126.039 150.853 125.545 151.702C122.315 150.695 118.407 150.503 115.228 151.799C114.67 149.034 114.245 146.238 113.957 143.435C115.582 142.857 117.173 142.192 118.725 141.443C119.421 143.289 120.582 144.927 122.095 146.197C123.609 147.467 125.424 148.328 127.367 148.697H127.377ZM139.729 123.584C141.86 120.827 143.718 117.87 145.276 114.756C147.2 114.66 149.114 114.416 151.001 114.026C149.208 116.632 146.951 119.923 144.497 123.524C142.912 123.237 141.287 123.259 139.71 123.588L139.729 123.584ZM159.567 122.368C168.19 123.122 172.991 136.721 180.581 141.587C174.269 141.149 168.098 143.838 161.757 143.483C159.477 141.031 157.957 136.894 155.189 135.316C154.441 136.01 154.063 137.093 153.453 137.922C153.617 134.098 154.408 129.495 151.041 126.754C152.548 123.482 156.173 122.439 159.548 122.373L159.567 122.368ZM163.418 104.883C164.553 106.705 158.992 108.553 157.683 109.453C156.962 108.746 156.022 108.302 155.016 108.193C155.016 108.193 154.222 109.335 152.899 111.259C150.782 111.869 148.608 112.266 146.412 112.443C153.156 99.5075 147.431 100.692 160.346 100.318C161.365 101.842 162.382 103.365 163.399 104.888L163.418 104.883ZM153.441 15.6913C156.787 15.2379 160.162 15.0265 163.539 15.0588C163.119 16.3784 162.651 17.6957 162.254 19.0248C161.401 19.2618 160.543 19.5153 159.698 19.7854C158.33 20.2166 158.914 22.3726 160.296 21.939C164.053 20.7593 167.877 19.8075 171.749 19.0888C170.652 26.1396 168.902 33.074 166.523 39.803C166.048 41.1605 168.204 41.7481 168.682 40.4C169.264 38.7676 169.796 37.1186 170.304 35.4649C171.749 34.9792 173.298 34.5622 174.818 34.5622C175.388 34.9745 175.188 36.3036 175.378 37.0215C176.804 48.9482 172.11 60.4081 166.96 70.8327C164.347 69.859 161.403 69.7476 158.812 70.8327C157.705 54.395 156.199 37.9881 153.909 21.6713C153.671 19.6859 153.498 17.7004 153.419 15.6961L153.441 15.6913ZM51.9996 52.0045C54.1376 41.6391 60.8864 31.7736 69.8159 26.1183C70.0535 26.0141 70.272 25.9098 70.4977 25.8222C78.8808 22.3583 88.5349 20.7852 97.7304 22.0314C99.5955 22.2517 101.447 22.5728 103.277 22.9933C105.435 23.4791 107.562 24.0939 109.646 24.8342C111.743 25.5689 113.797 26.42 115.799 27.3835C117.091 28.0113 118.236 26.0804 116.934 25.4526C104.522 19.4679 89.9649 17.6767 76.6098 21.3562C77.56 20.6454 78.5102 19.9346 79.4866 19.2831C92.357 10.4245 107.662 5.75006 123.051 3.7149C132.909 2.39997 142.882 2.13225 152.811 2.29336C149.592 11.9551 151.847 22.2138 153.006 32.0414C154.702 45.3209 155.681 58.6857 156.683 72.0339C155.742 72.698 154.917 73.5111 154.239 74.4411C128.821 47.2873 87.1476 27.1892 54.0093 53.5208C54.0093 53.5208 54.0093 53.5208 53.9927 53.5208C53.1243 54.3069 52.3078 55.1481 51.5483 56.0393C51.5971 54.685 51.748 53.3362 51.9996 52.0045ZM152.745 76.109C151.678 82.1647 150.341 88.2134 148.364 94.0393C147.611 94.9988 145.039 93.8284 143.789 93.9516C143.039 84.0405 141.736 74.1787 139.886 64.4121C144.352 68.0939 148.604 72.0458 152.745 76.109ZM105.33 45.5104C101.532 49.5604 97.0952 52.9633 92.1955 55.5844C91.775 54.5727 91.0196 52.7697 89.7131 53.8762C87.4151 56.3152 84.9177 58.5594 82.2469 60.5858C76.0183 59.8869 70.3694 51.2534 70.2031 57.2097C68.227 56.1622 66.3415 54.9529 64.566 53.5942C63.4781 52.7555 62.4281 51.86 61.4114 50.9099C74.6596 43.6435 90.7298 41.3382 105.33 45.5104ZM97.69 143.547C77.7572 142.637 68.1626 122.565 65.9795 105.089C61.599 89.507 48.5148 75.8152 52.4985 58.4464C54.3989 55.9184 56.7887 53.8477 59.435 52.1182C61.4731 53.7056 71.2578 63.3199 72.2627 58.1123C81.4582 64.1918 82.5486 64.5685 90.2048 56.5747C91.7751 62.0974 105.622 48.5193 107.748 46.2046C118.507 49.5215 128.393 55.3095 137.204 62.249C139.358 73.0455 140.839 83.965 141.637 94.9443C141.682 95.6077 142.112 95.9892 142.758 96.0626C144.946 96.0934 147.34 97.1738 149.41 96.3161C152.498 91.5042 152.956 85.0291 154.398 79.4946C155.714 72.1216 165.116 69.968 170.007 75.4456C160.914 71.1502 152.797 87.6376 158.075 87.0406C158.749 86.755 159.497 86.6913 160.209 86.8588C160.922 87.0262 161.563 87.4161 162.038 87.9717C162.405 88.374 162.671 88.8571 162.816 89.3816C162.96 89.9061 162.979 90.4572 162.869 90.9901C165.321 96.7734 167.592 83.9748 158.935 84.5932C160.009 77.8456 168.459 74.2183 172.737 80.2765C175.93 93.7976 163.598 99.7397 151.909 98.3418C147.647 99.607 146.255 109.477 143.528 113.237C135.073 129.999 117.084 144.824 97.69 143.547ZM100.65 187.14C93.0483 186.586 83.1544 187.031 87.4113 176.083C92.4426 164.846 101.056 155.511 107.648 145.151C109.045 144.9 110.426 144.563 111.782 144.144C112.109 147.195 112.584 150.222 113.207 153.225C113.207 153.225 113.207 153.242 113.221 153.256C108.176 159.762 105.382 167.673 101.208 174.728C101.66 182.978 112.159 156.866 114.067 155.701C121.763 146.897 136.648 160.607 128.65 169.002C129.339 155.511 113.383 154.049 118.64 158.416C124.488 158.504 128.142 166.73 125.631 171.544C124.985 164.761 110.546 159.752 114.663 164.865C123.163 165.656 128.13 177.964 116.765 178.253C116.528 168.627 103.809 172.093 109.544 174.176C107.99 176.424 104.619 181.317 100.65 187.138V187.14ZM110.085 186.067C112.043 183.146 113.627 180.774 114.599 179.32C115.886 181.333 119.003 180.433 120.894 179.793C121.144 180.571 121.62 181.256 122.262 181.762C119.331 185.335 114.599 186.617 110.085 186.065V186.067ZM148.381 240.993C151.034 243.033 151.087 247.207 148.322 249.181C145.046 251.119 140.646 249.292 137.565 251.953C132.729 256.734 132.472 252.958 127.98 254.242C123.445 259.084 119.806 251.59 124.849 251.752C126.232 252.161 126.821 250.001 125.438 249.598C123.144 248.887 120.483 250.529 120.212 252.946C119.891 252.905 119.585 253.135 119.262 253.183C117.96 253.42 116.815 251.958 117.751 250.863C118.309 250.001 119.951 250.446 119.927 249.127C118.739 245.949 114.226 250.197 115.262 252.564C114.259 252.882 113.029 253.183 112.116 252.496C112.04 252.436 111.97 252.368 111.907 252.294C111.432 251.465 111.739 250.399 112.266 249.648C112.57 249.264 113.029 248.937 113.537 248.963C117.245 247.238 111.271 244.748 109.686 249.835C110.264 241.095 124.369 245.082 127.156 237.375C132.287 237.399 137.273 235.897 141.936 233.871C142.708 237.077 146.041 238.851 148.381 240.991V240.993ZM196.763 222.018C173.706 220.122 164.993 188.138 142.281 197.681C140.965 198.271 142.11 200.195 143.416 199.612C145.42 198.716 147.577 198.21 149.771 198.122C140.882 202.317 133.045 208.438 126.83 216.038C125.925 217.149 127.503 218.736 128.415 217.618C129.379 216.44 130.383 215.294 131.427 214.18C135.857 219.217 142.231 223.032 145.369 228.981C144.516 231.426 137.494 233.028 134.888 234.037C121.067 238.716 104.907 226.207 101.74 212.967C100.721 202.356 110.389 193.912 117.35 187.61C118.037 187.388 118.707 187.116 119.355 186.797C132.099 192.068 160.327 180.535 172.414 174.107C188.166 186.11 207.044 195.084 220.416 209.774C224.972 221.968 204.633 223.283 196.763 222.018ZM241.33 249.835C242.32 247.724 240.971 244.715 238.436 244.765C236.738 244.886 237.182 247.25 238.759 247.046C241.045 249.543 236.384 252.472 233.951 252.022C235.213 250.24 234.602 247.333 232.345 246.719C231.533 246.442 230.604 245.9 230.034 246.84C229.207 248.418 231.514 248.563 232.196 249.209C232.212 249.253 232.234 249.294 232.262 249.33C232.882 251.91 229.214 252.41 227.366 252.574C229.412 247.629 222.974 245.829 219.584 248.354C218.282 248.973 219.42 250.903 220.713 250.283C221.917 249.709 223.637 248.861 224.915 249.724C227.552 254.062 217.653 255.249 215.503 252.581C212.781 250.629 214.453 247.181 212.954 244.663C211.006 242.689 210.374 240.398 211.529 237.78C212.574 238.709 214.083 237.129 213.061 236.162C211.961 235.29 210.743 234.388 210.13 233.082C209.892 228.602 209.253 227.337 205.533 224.553C209.845 224.129 214.068 223.243 218.031 221.181C224.744 226.342 228.419 234.38 234.659 240.014C236.878 243.211 251.435 246.767 241.33 249.835Z" fill="#110016"/>
<path d="M129.819 103.568C127.892 102.872 127.503 106.212 125.887 106.916C125.529 107.18 125.152 107.417 124.759 107.627L123.593 104.72C119.858 105.317 115.072 102.902 122.262 100.761C116.668 83.9581 101.916 93.653 114.046 109.214C111.684 108.444 111.525 111.74 113.927 111.436C111.551 114.962 109.867 118.902 109.254 123.098C103.23 124.993 96.816 125.268 90.5518 122.948C89.1977 122.441 88.6158 124.607 89.9532 125.102C104.363 133.157 134.85 113.159 125.201 113.815C125.148 112.588 124.864 111.383 124.362 110.261C126.593 109.34 131.574 106.231 129.819 103.568ZM123.001 115.639C121.717 116.647 120.384 117.595 119.003 118.482C119.215 117.087 121.338 114.692 119.421 113.844C117.388 113.817 116.72 118.487 116.229 120.115C114.757 120.919 113.237 121.631 111.677 122.247C112.228 115.812 122.357 101.017 123.001 115.639Z" fill="#110016"/>
<path d="M103.926 93.1105C104.553 93.2229 105.191 93.2579 105.826 93.2147C105.802 94.5367 105.218 97.6925 107.328 97.4485C107.611 97.3635 107.851 97.1728 107.998 96.9161C108.144 96.6593 108.186 96.3562 108.114 96.0696C107.912 94.9722 107.922 93.8465 108.142 92.7527C113.539 90.6725 118.405 87.2348 122.704 83.4108C123.032 83.5103 123.417 83.5127 123.73 83.6478C124.387 83.9505 124.952 84.4213 125.367 85.0124C126.199 85.8748 126.507 88.2986 128.132 87.5238C129.724 85.6 126.346 82.4087 124.569 81.5889C133.384 74.7537 129.237 60.2967 117.87 68.1838C112.782 73.3701 108.843 79.6082 104.235 85.228C97.8897 84.9864 98.3909 92.2457 103.926 93.1105ZM102.429 87.8176C103.596 86.9813 106.589 88.3578 106.308 86.1757C110.85 82.1172 119.808 62.4977 126.688 69.8849C131.482 76.668 108.102 94.7926 102.505 90.0613C101.757 89.3884 101.36 88.3057 102.429 87.8081V87.8176Z" fill="#110016"/>
<path d="M90.1764 118.435C94.419 118.106 104.881 118.807 104.208 112.546C103.432 107.67 101.88 101.048 96.8302 99.041C92.9795 98.2591 91.882 103.543 91.0886 106.22C90.7441 108.816 87.3662 117.336 90.1764 118.435ZM92.8227 108.347C95.4951 94.1675 100.864 104.969 101.966 112.538C102.89 116.033 93.8085 115.983 91.4117 116.192C91.6768 113.544 92.1486 110.922 92.8227 108.347Z" fill="#110016"/>
<path d="M87.0836 90.9784C86.2451 88.8627 84.1071 88.794 82.2899 89.4574C75.5411 86.4792 69.2246 78.4191 61.3854 79.9805C53.3467 85.0553 63.4545 93.4163 69.3647 94.7123C67.5309 96.3708 66.5664 104.741 69.588 104.964C70.2152 104.791 70.4789 104.18 70.372 103.583C68.1984 91.1845 74.5908 97.6478 82.0262 97.2024C82.9876 98.5793 83.6881 100.12 84.0929 101.749C84.175 102.034 84.3656 102.275 84.6239 102.422C84.8823 102.568 85.1879 102.608 85.4754 102.533C87.5041 101.301 85.0003 98.2472 84.3399 96.6717C86.4684 95.7406 87.9792 93.2718 87.0836 90.9784ZM84.967 93.0657C81.62 97.5317 73.2154 93.3784 68.8136 92.118C64.9012 91.3267 56.2781 84.1621 63.2811 81.7905C69.7615 82.852 74.9519 88.2775 80.7814 91.1632C81.4988 93.5419 85.7723 89.0072 84.967 93.0704V93.0657Z" fill="#110016"/>
<path d="M79.8833 112.188C78.8215 110.823 82.9406 109.437 82.9406 109.437C77.6313 92.7743 66.2171 104.294 75.4815 116.272L74.2629 115.573C75.9257 120.172 82.5581 121.165 85.5061 117.265L84.0618 113.178C84.0618 113.178 80.9452 113.552 79.8833 112.188Z" fill="#110016"/>
<path d="M54.5153 51.9904C54.5154 52.3728 54.4852 52.7547 54.4251 53.1324C54.2825 53.2508 54.1495 53.3693 54.007 53.5114C54.007 53.5114 54.007 53.5114 53.9927 53.5114C53.1235 54.3 52.3069 55.1444 51.5483 56.0394C51.676 53.1842 52.2045 50.3611 53.1185 47.6523C54.0302 48.9158 54.519 50.4338 54.5153 51.9904Z" fill="#FFF8E6"/>
<path d="M154.443 51.9904C154.586 42.2174 139.195 42.2174 139.34 51.9904C139.204 61.7635 154.588 61.7635 154.443 51.9904Z" fill="#FFF8E6"/>
<path d="M117.321 35.4387C117.466 25.6656 102.073 25.6656 102.218 35.4387C102.075 45.2117 117.466 45.2117 117.321 35.4387Z" fill="#FFF8E6"/>
<path d="M142.304 35.4387C142.447 25.6656 127.056 25.6656 127.201 35.4387C127.056 45.2117 142.449 45.2117 142.304 35.4387Z" fill="#FFF8E6"/>
<path d="M129.465 18.8899C129.61 9.11679 114.216 9.11679 114.361 18.8899C114.214 28.6677 129.605 28.6677 129.465 18.8899Z" fill="#FFF8E6"/>
<path d="M152.011 24.4266C147.497 28.8712 139.117 25.3032 139.34 18.8873C139.155 12.9643 146.426 9.22562 151.158 12.6776C151.096 16.5963 151.507 20.5387 152.011 24.4266Z" fill="#FFF8E6"/>
<path d="M142.307 2.30518C142.544 11.5783 128.106 12.3791 127.251 3.21496C132.256 2.70321 137.278 2.41653 142.307 2.30518Z" fill="#FFF8E6"/>
<path d="M153.968 40.2932C152.068 38.1609 151.607 34.5763 153.004 32.0317C153.339 34.7777 153.678 37.5355 153.968 40.2932Z" fill="#FFF8E6"/>
<path d="M152.809 2.28396C152.635 2.79335 152.479 3.31221 152.334 3.83344C152.224 3.32198 152.171 2.79991 152.177 2.27686L152.809 2.28396Z" fill="#FFF8E6"/>
<path d="M116.958 4.66992C115.518 9.8609 108.05 11.652 104.398 7.63619C108.525 6.41029 112.718 5.41993 116.958 4.66992Z" fill="#FFF8E6"/>
<path d="M78.0779 23.2778C76.3723 25.7703 72.8376 27.0686 69.8254 26.1209C70.063 26.0167 70.2815 25.9124 70.5048 25.8248C72.8851 25.1377 75.4578 23.7469 78.0779 23.2778Z" fill="#FFF8E6"/>
<path d="M79.4914 19.2832C79.4646 19.763 79.3914 20.239 79.2729 20.7047C78.3844 20.9022 77.4976 21.1209 76.6123 21.361C77.5554 20.6408 78.5151 19.9466 79.4914 19.2832Z" fill="#FFF8E6"/>
<path d="M67.3573 35.4389C67.5331 41.2886 60.4279 45.0462 55.6746 41.7387C58.0334 37.2988 61.2641 33.3445 64.9129 29.8926C65.6853 30.5962 66.3018 31.453 66.7227 32.4081C67.1437 33.3633 67.3598 34.3956 67.3573 35.4389Z" fill="#FFF8E6"/>
<path d="M129.465 51.9905C129.463 52.6116 129.383 53.23 129.227 53.8314C125.114 51.1889 120.789 48.8907 116.295 46.9607C120.557 41.8668 129.703 45.2525 129.465 51.9905Z" fill="#FFF8E6"/>
<path d="M92.3405 35.4387C92.3413 36.5315 92.1031 37.6114 91.6423 38.6029C91.1816 39.5944 90.5094 40.4737 89.6728 41.1793C86.7465 41.1999 83.8265 41.4527 80.9404 41.9351C68.355 32.1739 90.2904 19.6383 92.3405 35.4387Z" fill="#FFF8E6"/>
<path d="M104.482 18.8877C104.481 19.5935 104.383 20.2959 104.189 20.975C99.3435 19.8397 94.3708 19.3332 89.3948 19.4682C88.6988 9.26153 104.384 8.66923 104.482 18.8877Z" fill="#FFF8E6"/>
<path d="M103.256 22.9956C100.289 28.0657 91.775 27.2009 89.896 21.6451C94.3877 21.5545 98.8737 22.008 103.256 22.9956Z" fill="#FFF8E6"/>
<path d="M84.0927 101.746C83.6863 100.118 82.9869 98.5765 82.0284 97.1973C74.5788 97.638 68.2029 91.1889 70.3741 103.58C70.4787 104.175 70.2174 104.784 69.595 104.957C69.6377 110.733 73.783 119.053 80.1184 119.722C77.5719 119.672 75.1726 117.926 74.2533 115.568L75.472 116.279C66.2075 104.333 77.6099 92.7645 82.9334 109.441C77.1657 111.361 80.4296 113.706 84.0547 113.185L85.3208 116.774C88.2807 112.626 87.2521 106.992 85.5797 102.493C85.0096 102.77 84.2471 102.35 84.0927 101.746Z" fill="#FFF8E6"/>
<path d="M130.653 99.7136C130.299 95.5533 129.776 91.2721 127.586 87.6661C126.265 87.569 126.184 85.811 125.377 85.0078C124.92 84.4549 124.364 83.9921 123.737 83.6432C123.417 83.5081 123.039 83.5058 122.714 83.4062C118.414 87.2302 113.547 90.6656 108.152 92.7481C107.439 94.1933 109.225 97.3207 106.907 97.4676C108.437 101.566 109.339 106.376 112.252 109.728C112.58 108.999 113.394 109.079 114.05 109.209C101.907 93.6058 116.701 83.982 122.265 100.754C115.055 102.907 119.889 105.31 123.597 104.713L124.761 107.629C125.154 107.418 125.532 107.181 125.892 106.918C127.469 106.262 128.393 101.877 130.261 104.035C130.852 102.706 130.771 101.166 130.653 99.7136Z" fill="#FFF8E6"/>
</g>
<defs>
<clipPath id="clip0_1932_800">
<rect width="247" height="267" fill="white"/>
</clipPath>
</defs>
</svg>
