<svg width="179" height="254" viewBox="0 0 179 254" fill="none" xmlns="http://www.w3.org/2000/svg">
<g clip-path="url(#clip0_1932_1322)">
<path d="M66.0183 197.806L93.6215 210.283C93.453 212.004 93.6527 213.742 94.2074 215.38C94.762 217.018 95.659 218.52 96.8388 219.785C80.4165 221.677 67.737 218.484 64.5103 217.557C65.0618 210.978 65.5495 204.383 66.0183 197.806Z" fill="white"/>
<path d="M84.2634 11.5879C80.8754 12.6572 77.5866 14.0181 74.4342 15.6555C69.1858 12.1626 56.0612 5.55281 55.9475 16.7078C55.9559 16.7556 55.9788 16.7997 56.013 16.8341C56.0473 16.8685 56.0914 16.8915 56.1392 16.9C56.187 16.9085 56.2363 16.9021 56.2803 16.8817C56.3244 16.8613 56.3611 16.8279 56.3855 16.7859C57.4958 14.492 58.8972 12.0562 60.9261 12.4748C64.8653 12.9335 68.6081 14.9626 71.9532 17.0271C61.4465 23.1409 53.1174 32.3848 48.1329 43.4639C47.2901 31.2328 48.8999 20.0045 50.5879 12.1933C51.6603 6.82511 56.743 2.6937 62.2115 2.7741C63.5485 2.77494 64.8756 3.00203 66.1366 3.44572C73.2481 5.95484 79.7607 9.16395 84.2634 11.5879Z" fill="white"/>
<path d="M144.122 2.32959C159.697 3.22114 156.068 27.0234 156.195 38.4008C154.853 35.9402 153.332 33.5809 151.645 31.3417C152.938 25.4863 147.997 18.5714 142.621 21.7545C140.858 20.2525 139.004 18.8601 137.07 17.5853C140.429 15.2914 143.658 12.6475 147.41 11.0796C149.304 10.8171 150.708 14.3691 151.484 15.8566C151.513 15.9268 151.565 15.9849 151.631 16.0211C151.698 16.0574 151.775 16.0694 151.849 16.0551C151.923 16.0409 151.99 16.0013 152.039 15.943C152.087 15.8848 152.114 15.8116 152.114 15.736C152.161 12.8083 150.642 8.25356 146.934 8.78092C142.354 10.2637 138.49 13.3735 134.565 16.0387C131.37 14.171 127.995 12.6315 124.49 11.4438C130.896 7.64579 140.192 2.60155 144.122 2.32959Z" fill="white"/>
<path d="M141.568 27.7115C141.747 22.9818 147.098 24.0483 146.288 28.5274C145.554 32.0392 141.52 31.2375 141.568 27.7115Z" fill="white"/>
<path d="M126.324 35.0212C132.953 35.3191 132.848 37.4782 126.227 37.1968C119.606 36.9154 119.705 34.7397 126.324 35.0212Z" fill="white"/>
<path d="M95.4042 23.6058C99.2133 22.7994 100.726 29.8301 96.924 30.6578C93.1221 31.4855 91.5928 24.4335 95.4042 23.6058Z" fill="white"/>
<path d="M158.12 49.189C160.057 55.4322 159.54 64.3241 157.495 64.5984C155.679 57.0687 149.747 49.5886 143.698 47.4626C143.817 47.0512 144.614 44.9228 143.698 45.2397C142.709 45.7757 141.845 46.5176 141.167 47.4153C134.726 54.7464 126.518 57.1609 116.784 54.5832C105.144 50.6552 105.023 49.2315 99.8999 44.8873C98.9671 44.5917 100.754 48.3282 101.053 48.567C83.3947 53.6302 71.7497 60.3913 66.6954 63.721C66.6078 63.6477 66.5202 63.5744 66.4326 63.5058C66.1508 63.2832 65.8568 63.0764 65.552 62.8862C65.255 62.7014 64.9467 62.5355 64.6287 62.3896C63.6202 61.7866 61.4636 61.6612 59.2951 61.6612C57.2166 61.6612 55.1286 61.7771 54.0372 61.7015C51.1348 61.7227 48.7675 63.4065 47.0062 65.743C45.1928 64.4376 45.349 62.1224 45.3822 61.8244C47.5128 42.7069 59.3495 25.3418 76.5838 17.1735C96.7063 7.39484 123.63 8.23436 140.881 23.3009C134.65 30.8188 144.041 44.5846 150.724 34.0941C154.148 39.0201 156.603 43.9106 158.12 49.189ZM129.257 43.388C132.418 41.9691 136.239 38.5116 133.59 36.1137C127.285 31.3059 119.966 33.5951 116.497 35.1677C111.303 39.0012 121.982 43.4164 124.442 43.7262C126.043 44.124 127.728 44.0057 129.257 43.388ZM96.9359 38.8948C107.196 36.66 103.105 17.6962 92.8381 19.8766C82.578 22.1184 86.6664 41.0846 96.9336 38.9018L96.9359 38.8948Z" fill="white"/>
<path d="M57.1004 65.1401C64.818 70.9198 64.1433 89.0867 57.1004 94.1333C50.1641 98.1701 45.5975 89.0346 45.4128 79.6343C45.517 74.3583 46.5965 70.1323 49.4066 66.5992C51.3194 64.1942 54.494 63.1655 57.1004 65.1401Z" fill="white"/>
<path d="M70.1943 79.5063C70.1943 83.6803 69.1858 87.8566 67.2659 91.1485C65.3081 94.3482 63.1064 95.4998 59.5578 95.183C61.0658 93.764 62.1619 91.988 62.9928 90.0961C65.6916 83.6495 65.7247 76.0725 63.1656 69.5763C62.3229 67.5425 61.17 65.6009 59.5554 64.0851C62.0956 63.955 63.98 64.1797 65.791 66.178C68.7833 69.6378 70.1943 74.5709 70.1943 79.5063Z" fill="white"/>
<path d="M70.3316 90.5337C78.0255 117.85 116.583 125.16 137.832 112.416C115.816 130.273 76.4252 117.834 68.2744 93.9036C69.0938 92.8674 69.7846 91.7358 70.3316 90.5337Z" fill="white"/>
<path d="M66.7591 95.4858C75.2082 115.883 99.786 126.229 122.363 121.92C98.5053 131.566 69.046 120.435 57.4365 97.5622C60.5306 97.5835 64.3066 97.9382 66.7591 95.4858Z" fill="white"/>
<path d="M142.448 49.4917C160.312 56.1015 158.409 85.324 148.092 100.648C139.482 117.122 95.1864 125.044 78.1935 101.039C75.0095 96.977 72.7368 92.279 71.5294 87.2632C72.2139 84.7751 72.554 82.2051 72.5403 79.6247C72.4646 74.3062 71.4182 69.5221 68.3501 65.4498C73.5867 62.0727 85.3832 55.3566 102.771 50.5062C112.494 58.4119 132.728 61.9356 142.448 49.4917Z" fill="white"/>
<path d="M176.718 182.981C176.924 187.001 175.771 189.95 173.302 191.967C159.54 203.241 148.236 185.185 163.704 183.797C158.915 194.335 174.204 192.403 176.718 182.981Z" fill="white"/>
<path d="M171.432 166.398C174.597 172.547 177.506 180.602 172.104 186.131C170.639 187.675 166.489 190.109 165.056 187.564C165.03 185.199 166.99 182.858 168.338 180.99C169.107 180.086 168.008 178.656 166.917 179.199C163.366 181.039 160.525 180.145 158.631 176.598C158.227 178.804 159.964 180.954 161.638 181.642C158.47 181.895 153.991 184.925 153.946 188.905C152.195 185.615 150.429 181.978 148.783 179.02C154.114 167.325 168.181 166.443 171.432 166.398Z" fill="white"/>
<path d="M130.32 143.466L130.306 143.49C127.939 146.597 127.939 151.294 130.32 154.409C125.635 153.921 125.64 143.951 130.32 143.466Z" fill="white"/>
<path d="M133.324 143.864C139.553 141.099 140.663 154.269 134.799 154.428C130.15 154.189 129.697 145.767 133.324 143.864Z" fill="white"/>
<path d="M138.08 138.964C142.122 139.035 140.628 144.64 140.891 147.13C139.577 141.066 135.559 140.844 130.654 141.114C127.203 141.114 124.395 144.623 124.395 148.939C124.395 153.255 127.203 156.764 130.654 156.764C135.557 157.031 139.579 156.809 140.891 150.746C140.157 169.877 145.341 167.2 125.55 167.328C125.046 153.397 128.391 158.639 117.404 150.157V138.964H138.08Z" fill="white"/>
<path d="M123.211 157.429V167.328H104.478C103.733 167.327 103.019 167.03 102.492 166.504C101.965 165.977 101.669 165.263 101.668 164.519V141.773C101.669 141.029 101.965 140.315 102.492 139.788C103.019 139.262 103.733 138.965 104.478 138.964H115.065C115.269 139.541 114.561 151.647 115.539 151.675L123.211 157.429Z" fill="white"/>
<path d="M100.17 138.964C99.6214 139.798 99.33 140.775 99.3317 141.773C99.6466 143.578 98.5008 166.474 100.17 167.328C95.5771 167.092 91.7302 168.799 92.3196 162.258V147.477C92.3267 139.29 91.2543 138.657 100.17 138.964Z" fill="white"/>
<path d="M89.983 149.695V160.03H73.9395C75.4309 156.568 76.9436 153.11 78.5558 149.705L89.983 149.695Z" fill="white"/>
<path d="M44.9063 147.03C41.7152 152.867 38.8862 158.855 36.7413 165.171L35.2689 164.462C35.2649 161.535 35.4611 158.612 35.856 155.712C37.1272 147.612 36.9307 147.288 44.9063 147.03Z" fill="white"/>
<path d="M65.4642 112.125C65.9046 112.555 66.352 112.979 66.8065 113.395C59.3707 123.434 52.4178 133.806 46.2224 144.661C43.8163 144.669 41.4141 144.854 39.0352 145.214C40.117 134.277 41.8499 124.167 44.5487 120.248C49.2195 119.475 54.0513 119.991 58.651 120.485C55.5995 118.456 51.1891 117.883 47.47 117.751C52.3326 114.762 59.7731 113.054 65.4642 112.125Z" fill="white"/>
<path d="M136.002 117.089C141.709 120.364 164.41 150.864 170.286 164.105C165.534 164.358 153.217 166.049 147.429 176.523C146.451 174.749 145.599 173.24 144.967 172.133C144.448 168.636 143.892 165.162 143.229 161.695V141.773C143.255 138.5 140.258 136.254 137.112 136.63C133.575 125.839 132.152 124.037 135.692 136.63H95.1295C88.9744 136.902 89.9947 143.166 89.9829 147.477H79.6423C84.6563 137.843 81.1645 140.605 77.7484 147.477C73.3591 155.83 69.4259 164.413 65.9661 173.19C54.6028 162.052 44.2481 162.674 39.7454 163.696C46.5515 146.023 57.5265 130.221 68.5678 114.932C86.9479 130.973 116.606 131.938 136.002 117.089Z" fill="white"/>
<path d="M32.9487 165.94L36.0263 167.425C34.7408 171.739 33.7962 176.303 33.9951 180.805L20.3426 174.271C20.104 174.156 19.8332 174.126 19.575 174.185C19.3167 174.244 19.0864 174.39 18.9222 174.598C14.4763 179.928 5.99407 179.143 3.18403 172.039C-0.393038 165.417 7.3553 161.161 10.1204 160.562C12.412 160.033 14.0691 158.006 15.2646 156.116C15.3948 155.738 15.8991 155.343 15.6836 154.934C15.6308 154.869 15.5543 154.827 15.4709 154.818C15.3875 154.81 15.3039 154.834 15.2386 154.887C13.8182 156.036 12.251 157.391 10.5631 158.027C8.48689 141.849 32.8706 146.787 26.4409 161.489C26.3039 161.77 26.2835 162.093 26.3842 162.389C26.4849 162.684 26.6984 162.928 26.9783 163.067L32.9487 165.94Z" fill="white"/>
<path d="M65.4312 175.978C65.9855 177.023 66.4305 178.121 66.7593 179.256C64.5062 178.839 62.179 179.135 60.1023 180.103C54.0135 183.142 52.7919 191.021 57.9859 194.155C50.2376 196.479 39.0471 193.412 37.0017 184.823C35.4038 178.71 36.9449 172.223 38.8175 166.377C41.3008 165.516 52.6736 162.629 65.4312 175.978Z" fill="white"/>
<path d="M60.945 195.512L63.8379 196.82C63.3526 203.678 62.8436 210.569 62.2707 217.432C59.0464 218.917 56.0919 219.338 53.3292 218.723C42.4892 216.817 38.5025 198.22 31.2892 192.473C27.4825 190.187 22.8331 192 20.345 195.087C20.4941 191.099 22.4756 183.854 27.447 180.25L34.3123 183.527C35.6925 195.337 51.0637 200.143 60.945 195.512Z" fill="white"/>
<path d="M118.067 195.082C119.828 199.071 118.341 203.434 114.123 205.546C113.533 203.737 113.55 201.84 113.524 199.946C113.519 199.877 113.491 199.811 113.444 199.759C113.398 199.707 113.336 199.672 113.268 199.658C113.199 199.645 113.128 199.655 113.066 199.686C113.004 199.717 112.953 199.768 112.923 199.83C111.976 202.195 111.294 205.128 112.489 207.54C112.75 207.627 114.67 213.878 113.02 216.564C111.812 219.373 107.984 220.615 104.982 220.693C99.2605 221.166 94.9425 215.159 96.0623 209.815C96.1147 209.555 96.0774 209.286 95.9565 209.051C95.8357 208.815 95.6384 208.628 95.397 208.519L66.1934 195.323L61.0586 193.001C59.063 192.225 57.0578 191.189 57.1336 188.704C56.956 182.607 63.6982 179.89 68.5821 182.243L69.574 182.69L99.6985 196.238C99.9844 196.362 100.308 196.369 100.599 196.257C100.889 196.144 101.124 195.922 101.251 195.637C103.181 189.959 113.817 186.299 118.067 195.082Z" fill="white"/>
<path d="M143.949 182.745C145.807 192.062 148.407 204.712 150.8 216.283C130.105 222.968 116.156 219.161 115.212 218.884C115.1 218.603 114.989 218.322 114.88 218.04C116.888 214.564 115.789 209.699 115.051 207.694C119.445 205.459 121.679 201.439 121.012 196.941C125.741 195.028 129.889 191.916 133.045 187.912C133.142 187.803 132.983 187.647 132.872 187.725C128.815 190.369 124.823 192.76 120.304 194.373C115.879 184.116 102.849 186.706 99.6677 193.663C99.4523 193.569 69.529 180.103 69.3278 180.02C69.0151 178.347 68.4566 176.73 67.6707 175.22C69.4012 170.892 71.1578 166.557 72.9806 162.258H89.9782C89.5828 165.928 90.9251 169.544 95.1248 169.662H138.08C138.839 169.662 139.588 169.495 140.274 169.172C140.959 168.849 141.565 168.378 142.048 167.794C142.81 172.732 143.49 177.8 143.949 182.745Z" fill="white"/>
<path d="M154.993 233.92C163.861 238.886 166.879 245.822 154.96 249.131C146.833 251.115 137.99 250.744 129.837 248.991C128.832 248.657 127.913 248.105 127.147 247.374C126.381 246.642 125.786 245.751 125.406 244.763C122.984 238.614 119.71 230.297 116.256 221.533C126.653 223.527 137.702 222.784 151.274 218.57C152.237 223.214 153.168 227.632 153.965 231.525C153.808 231.525 153.644 231.525 153.475 231.525C149.574 231.525 143.85 232.707 141.698 235.635C145.874 233.849 150.519 233.345 154.993 233.92Z" fill="white"/>
<path d="M102.109 222.744C101.668 224.375 101.217 226.003 100.754 227.627C98.6096 234.346 97.0448 241.677 93.1245 247.57C86.7634 253.986 45.9977 254.3 60.3675 238.404C61.1179 237.614 61.7879 236.71 62.7182 236.171C69.548 233.035 77.7343 234.114 83.4254 239.125C79.6898 232.404 69.9978 230.935 63.052 233.48C63.5113 228.981 63.9335 224.461 64.3186 219.922C69.1101 221.897 89.4338 223.879 99.4974 221.791C100.322 222.222 101.2 222.542 102.109 222.744Z" fill="white"/>
<path d="M153.901 231.52C153.092 227.627 152.171 223.21 151.21 218.565C137.638 222.779 126.589 223.531 116.192 221.533C119.646 230.297 122.92 238.624 125.342 244.763C125.723 245.75 126.317 246.641 127.084 247.371C127.85 248.101 128.768 248.653 129.773 248.986C137.924 250.739 146.766 251.115 154.893 249.126C166.813 245.815 163.797 238.87 154.929 233.915C150.454 233.341 145.807 233.844 141.634 235.623C143.783 232.702 149.51 231.52 153.404 231.52C153.575 231.52 153.74 231.52 153.901 231.52ZM177.551 175.51C180.155 184.118 179.234 190.09 174.71 193.769C169.19 198.263 162.724 199.445 157.024 195.709C151.579 192.242 148.944 183.501 145.755 178.445C147.214 189.908 150.563 202.567 153.201 216.536C154.342 222.089 155.452 227.677 156.33 232.144C159.983 234.391 164.306 237.387 165.033 241.913C164.337 255.232 139.969 252.997 130.772 251.536C128.97 251.265 127.28 250.491 125.898 249.303C124.516 248.115 123.498 246.562 122.96 244.822C120.356 238.25 116.98 229.63 113.211 220.078C111.119 222.089 107.246 223.103 104.296 223.006C102.722 228.824 101.086 234.594 99.0286 240.27C97.8449 243.311 96.8482 246.418 94.7366 249.06C84.7274 258.202 39.0186 255.308 60.5781 234.911C61.0942 229.987 61.5629 225.031 61.9843 220.043C43.1828 227.026 38.9879 203.978 30.1245 194.538C25.4466 191.554 20.7806 197.735 20.1438 199.332C20.0298 199.556 19.8459 199.738 19.6197 199.85C19.3935 199.962 19.1371 199.997 18.8891 199.951C16.6969 199.464 17.194 186.155 25.056 179.14L20.068 176.759C6.26636 189.718 -10.279 165.126 8.2573 158.713C5.54432 138.507 35.1504 143.597 28.9077 161.439L32.8777 163.348C33.292 156.253 33.5074 149.187 36.4998 146.413C39.298 118.995 40.671 114.329 63.4118 110.079C59.9496 106.325 57.0293 102.107 54.7355 97.5457C43.7107 98.896 39.9608 76.4984 45.6851 67.7083C40.0816 63.7164 44.821 53.363 46.1586 48.1674C44.4777 33.9192 46.3053 20.6145 48.2347 11.6871C49.7995 3.526 59.0535 -1.71216 66.8468 1.23446C75.2604 4.20235 82.8525 8.13038 87.3717 10.6655C97.7218 7.87261 111.282 7.53444 121.421 10.5094C127.027 7.11822 138.727 0.357094 143.895 0C163.07 0.472972 158.217 30.2158 158.335 42.9033C161.444 50.2532 164.325 64.187 157.886 66.9326C160.286 85.4092 152.498 104.174 137.846 115.625C147.443 122.925 172.672 158.164 177.551 175.51ZM173.235 191.956C175.707 189.95 176.858 186.989 176.654 182.969C174.14 192.391 158.849 194.32 163.634 183.773C148.17 185.168 159.476 203.229 173.235 191.956ZM172.038 186.131C177.442 180.602 174.53 172.545 171.365 166.399C168.117 166.443 154.048 167.326 148.726 179.015C150.383 181.973 152.135 185.611 153.889 188.9C153.934 184.92 158.413 181.891 161.581 181.638C159.907 180.949 158.17 178.8 158.572 176.593C160.48 180.141 163.307 181.039 166.858 179.195C167.94 178.651 169.038 180.082 168.278 180.985C166.931 182.853 164.964 185.206 164.997 187.559C166.425 190.109 170.575 187.675 172.038 186.131ZM170.212 164.105C164.33 150.861 141.638 120.355 135.928 117.089C116.542 131.938 86.8817 130.973 68.504 114.932C57.4698 130.216 46.4876 146.018 39.6768 163.691C44.1747 162.669 54.539 162.035 65.8975 173.186C69.3563 164.408 73.2895 155.824 77.6798 147.473C81.1006 140.6 84.5901 137.838 79.5737 147.473H89.9119C89.9237 143.161 88.9105 136.897 95.0609 136.625H135.614C132.089 124.032 133.511 125.834 137.048 136.625C140.194 136.249 143.189 138.496 143.163 141.769V161.69C143.828 165.157 144.385 168.631 144.903 172.129C145.533 173.235 146.385 174.744 147.363 176.518C153.151 166.049 165.478 164.358 170.212 164.105ZM157.429 64.5985C159.479 64.3265 159.99 55.4323 158.054 49.1891C156.536 43.9107 154.081 39.0202 150.656 34.0942C143.975 44.5799 134.584 30.8188 140.812 23.3009C123.576 8.23444 96.6376 7.39491 76.5198 17.1736C59.2737 25.3418 47.444 42.7141 45.3158 61.8245C45.2874 62.1225 45.1264 64.4377 46.9422 65.7431C48.6964 63.4066 51.0661 61.7228 53.9684 61.711C55.0622 61.7867 57.1502 61.6708 59.2287 61.6708C61.3948 61.6708 63.5538 61.7961 64.5623 62.3991C64.8792 62.5456 65.1868 62.7114 65.4832 62.8958C65.7887 63.0848 66.0828 63.2917 66.3639 63.5154C66.4538 63.5839 66.5414 63.6573 66.629 63.7306C71.6833 60.4032 83.3259 53.6397 100.986 48.5766C100.688 48.3401 98.8984 44.6012 99.8335 44.8968C104.956 49.2316 105.077 50.6553 116.717 54.5928C126.459 57.1704 134.667 54.7583 141.101 47.4249C141.779 46.5277 142.641 45.7859 143.629 45.2492C144.541 44.9323 143.745 47.0607 143.629 47.4722C149.683 49.5887 155.615 57.0688 157.429 64.5985ZM156.136 38.4006C156.001 27.0232 159.63 3.22094 144.063 2.32939C140.133 2.60134 130.836 7.64559 124.433 11.4435C127.938 12.6317 131.313 14.1712 134.508 16.0385C138.428 13.3733 142.297 10.2635 146.868 8.78072C150.575 8.25336 152.095 12.801 152.048 15.7358C152.046 15.811 152.019 15.8833 151.97 15.9407C151.921 15.9982 151.854 16.0372 151.78 16.0513C151.706 16.0654 151.63 16.0537 151.564 16.0183C151.497 15.9828 151.445 15.9257 151.416 15.8564C150.641 14.3689 149.238 10.8169 147.344 11.0794C143.592 12.6473 140.362 15.2912 137.003 17.5851C138.941 18.8603 140.798 20.2535 142.564 21.7567C147.94 18.5665 152.881 25.4884 151.588 31.3438C153.274 33.5829 154.795 35.9413 156.138 38.4006H156.136ZM148.028 100.648C158.342 85.3241 160.248 56.1015 142.384 49.4918C132.664 61.9356 112.43 58.4002 102.707 50.5157C85.3169 55.3661 73.5204 62.0823 68.2862 65.4593C71.3637 69.5316 72.4006 74.3157 72.4764 79.6342C72.4894 82.2147 72.1485 84.7847 71.4632 87.2727C72.6705 92.2848 74.9415 96.9793 78.1225 101.039C95.1224 125.044 139.418 117.122 148.028 100.648ZM150.736 216.29C148.34 204.719 145.743 192.069 143.885 182.752C143.426 177.807 142.746 172.739 141.991 167.801C141.508 168.385 140.902 168.855 140.216 169.178C139.531 169.501 138.782 169.669 138.024 169.669H95.0656C90.866 169.551 89.5237 165.935 89.9166 162.265H72.9143C71.0915 166.564 69.3325 170.899 67.6044 175.227C68.3894 176.737 68.9477 178.354 69.2615 180.027C69.4627 180.11 99.3837 193.575 99.6015 193.67C102.781 186.713 115.813 184.123 120.238 194.38C124.736 192.767 128.76 190.376 132.806 187.732C132.915 187.654 133.073 187.81 132.979 187.919C129.823 191.923 125.676 195.036 120.948 196.95C121.623 201.443 119.381 205.464 114.984 207.703C115.725 209.709 116.822 214.561 114.814 218.049L115.148 218.894C116.092 219.161 130.041 222.968 150.736 216.283V216.29ZM146.217 28.5273C147.029 24.0482 141.679 22.9912 141.499 27.7114C141.456 31.2374 145.488 32.0391 146.217 28.5273ZM140.826 147.13C140.564 144.635 142.057 139.035 138.016 138.964H117.34V150.169C128.329 158.651 124.982 153.408 125.484 167.34C145.275 167.212 140.093 169.889 140.826 150.757C139.515 156.821 135.493 157.043 130.59 156.776C127.138 156.776 124.331 153.264 124.331 148.951C124.331 144.637 127.138 141.123 130.59 141.125C135.495 140.844 139.513 141.066 140.826 147.13ZM134.735 154.425C140.609 154.26 139.487 141.097 133.258 143.861C129.634 145.768 130.086 154.189 134.735 154.425ZM130.237 143.488C130.242 143.48 130.248 143.472 130.254 143.464C125.571 143.949 125.569 153.919 130.254 154.406C127.884 151.306 127.877 146.598 130.24 143.49L130.237 143.488ZM123.135 167.326V157.429L115.458 151.675C114.485 151.647 115.193 139.541 114.984 138.964H104.414C103.669 138.965 102.955 139.262 102.428 139.788C101.901 140.315 101.605 141.029 101.604 141.773V164.518C101.605 165.263 101.901 165.977 102.428 166.504C102.955 167.03 103.669 167.327 104.414 167.328L123.135 167.326ZM114.059 205.546C118.277 203.435 119.762 199.071 118.003 195.082C113.753 186.299 103.117 189.96 101.195 195.638C101.067 195.922 100.833 196.144 100.542 196.257C100.251 196.369 99.9276 196.363 99.6417 196.238L69.5101 182.69L68.5182 182.243C63.6343 179.878 56.8921 182.607 57.0697 188.704C56.9939 191.189 58.9991 192.225 60.9947 193.001L66.1295 195.323L95.3284 208.521C95.5682 208.632 95.7639 208.82 95.8844 209.055C96.005 209.29 96.0434 209.558 95.9936 209.817C94.8715 215.157 99.1896 221.157 104.914 220.696C107.916 220.618 111.744 219.376 112.951 216.567C114.608 213.88 112.681 207.63 112.421 207.542C111.225 205.13 111.902 202.202 112.854 199.833C112.884 199.769 112.935 199.717 112.998 199.685C113.061 199.653 113.133 199.644 113.202 199.657C113.271 199.671 113.334 199.707 113.38 199.76C113.427 199.814 113.454 199.881 113.458 199.951C113.486 201.841 113.467 203.737 114.059 205.546ZM137.78 112.416C116.53 125.16 77.9734 117.855 70.2795 90.5339C69.7324 91.736 69.0416 92.8675 68.2223 93.9038C76.3612 117.834 115.763 130.273 137.78 112.416ZM122.307 121.92C99.7151 126.229 75.1373 115.878 66.6906 95.4859C64.2427 97.9382 60.4668 97.5835 57.368 97.5575C68.9774 120.435 98.4367 131.567 122.295 121.92H122.307ZM100.702 227.629C101.165 226.007 101.616 224.379 102.056 222.746C101.146 222.548 100.265 222.23 99.4381 221.8C89.3745 223.888 69.0508 221.906 64.2569 219.932C63.8687 224.468 63.4473 228.987 62.9928 233.49C69.9362 230.945 79.6305 232.414 83.3662 239.134C77.6727 234.123 69.4888 233.045 62.659 236.181C61.7333 236.72 61.0587 237.623 60.3082 238.413C45.9266 254.3 86.6994 253.986 93.0581 247.57C96.9808 241.689 98.5433 234.357 100.69 227.627L100.702 227.629ZM99.2819 141.785C99.2813 140.787 99.5725 139.811 100.12 138.976C91.2068 138.668 92.2887 139.295 92.2698 147.489V162.269C91.6803 168.811 95.5296 167.113 100.12 167.34C98.4367 166.486 99.5802 143.578 99.2653 141.773L99.2819 141.785ZM93.5576 210.283L65.9543 197.806C65.4809 204.383 65.0074 210.978 64.444 217.558C67.673 218.485 80.3526 221.665 96.7725 219.785C95.5935 218.519 94.6972 217.017 94.143 215.379C93.5888 213.741 93.3893 212.004 93.5576 210.283ZM89.9166 160.03V149.696H78.4918C76.8773 153.101 75.3669 156.554 73.8755 160.02L89.9166 160.03ZM74.3679 15.6601C77.5212 14.0215 80.8107 12.659 84.1995 11.5878C79.7015 9.1591 73.1819 5.94998 66.0727 3.44087C64.8117 2.99717 63.4846 2.77009 62.1476 2.76925C56.6862 2.68884 51.5964 6.82025 50.5239 12.1885C48.836 19.9925 47.2239 31.228 48.069 43.459C53.0541 32.3823 61.3821 23.1403 71.8869 17.027C68.5442 14.9625 64.7849 12.9334 60.8622 12.4794C58.8333 12.0608 57.4319 14.4966 56.3192 16.7905C56.2948 16.8325 56.2581 16.8659 56.2141 16.8863C56.17 16.9067 56.1207 16.9131 56.0729 16.9046C56.0251 16.8961 55.981 16.8731 55.9468 16.8387C55.9125 16.8043 55.8896 16.7603 55.8813 16.7125C55.9973 5.55742 69.1266 12.1672 74.3679 15.6601ZM67.2019 91.1487C69.1218 87.8568 70.1303 83.6805 70.1303 79.5065C70.1303 74.5711 68.7099 69.638 65.7271 66.1782C63.9137 64.1799 62.0293 63.9552 59.4891 64.0853C61.1036 65.6012 62.2589 67.5427 63.1017 69.5765C65.6608 76.0728 65.6253 83.6498 62.9289 90.0964C62.0979 91.9883 61.0018 93.7619 59.4938 95.1832C63.0425 95.5001 65.2418 94.3578 67.2019 91.1487ZM66.6929 179.256C66.3658 178.122 65.9215 177.025 65.3672 175.983C52.6096 162.634 41.2368 165.521 38.7535 166.377C36.8786 172.228 35.3374 178.715 36.9354 184.823C38.9855 193.412 50.1712 196.48 57.9219 194.155C52.7374 191.021 53.9495 183.142 60.036 180.098C62.1132 179.132 64.4403 178.838 66.6929 179.256ZM66.7427 113.4C66.2881 112.983 65.8407 112.56 65.4004 112.13C59.7187 113.059 52.2687 114.767 47.4085 117.76C51.1276 117.902 55.538 118.47 58.5895 120.494C53.9874 119.995 49.158 119.48 44.4872 120.258C41.7884 124.172 40.0532 134.286 38.9737 145.224C41.3531 144.86 43.7562 144.672 46.1633 144.661C52.3539 133.806 59.3068 123.446 66.7427 113.395V113.4ZM63.774 196.82L60.8787 195.512C50.9974 200.143 35.6262 195.333 34.2342 183.532L27.3689 180.254C22.3975 183.858 20.4207 191.104 20.2669 195.091C22.7549 191.998 27.4044 190.191 31.2111 192.478C38.4244 198.22 42.411 216.817 53.2511 218.728C56.0138 219.343 58.9683 218.922 62.1903 217.437C62.7774 210.569 63.2863 203.678 63.774 196.82ZM57.0342 94.1332C64.0794 89.0866 64.7541 70.9197 57.0342 65.14C54.4301 63.1654 51.2555 64.1941 49.3379 66.5991C46.5397 70.1322 45.4507 74.3582 45.3466 79.6342C45.5312 89.0345 50.0978 98.17 57.0342 94.1332ZM36.675 165.171C38.8056 158.859 41.6464 152.874 44.8376 147.03C36.8691 147.288 37.0585 147.612 35.7872 155.714C35.3933 158.614 35.1979 161.538 35.2025 164.464L36.675 165.171ZM35.9837 167.432L32.8919 165.947L26.9238 163.078C26.644 162.939 26.4305 162.696 26.3298 162.4C26.2291 162.105 26.2495 161.781 26.3865 161.501C32.8138 146.799 8.43249 141.873 10.5087 158.039C12.1942 157.403 13.7685 156.048 15.1842 154.898C15.2492 154.846 15.3323 154.821 15.4153 154.83C15.4983 154.839 15.5744 154.881 15.6269 154.946C15.8447 155.35 15.338 155.745 15.2102 156.128C14.0123 158.02 12.3694 160.044 10.066 160.574C7.29853 161.182 -0.447439 165.436 3.12962 172.051C5.93967 179.145 14.4219 179.94 18.8678 174.609C19.0318 174.401 19.2621 174.255 19.5204 174.196C19.7787 174.137 20.0496 174.167 20.2882 174.283L33.9525 180.817C33.7442 176.303 34.6888 171.738 35.9837 167.432Z" fill="black"/>
<path d="M133.518 36.114C136.167 38.5119 132.335 41.9693 129.184 43.3883C127.654 44.0051 125.969 44.1227 124.369 43.7241C121.911 43.4143 111.232 38.9944 116.426 35.1657C119.897 33.5954 127.219 31.3062 133.518 36.114ZM126.158 37.1971C132.787 37.4785 132.872 35.3194 126.253 35.0214C119.634 34.7234 119.551 36.892 126.163 37.1971H126.158Z" fill="black"/>
<path d="M92.7692 19.8836C103.039 17.7032 107.127 36.6741 96.8694 38.9018C86.5999 41.0846 82.5115 22.1184 92.7692 19.8836ZM96.8529 30.6579C100.655 29.8302 99.1397 22.7995 95.333 23.6059C91.5263 24.4123 93.0367 31.4667 96.8529 30.6579Z" fill="black"/>
</g>
<defs>
<clipPath id="clip0_1932_1322">
<rect width="179" height="254" fill="white"/>
</clipPath>
</defs>
</svg>
