<svg width="220" height="259" viewBox="0 0 220 259" fill="none" xmlns="http://www.w3.org/2000/svg">
<g clip-path="url(#clip0_1932_1458)">
<path d="M61.7306 99.5677C63.7998 98.3651 66.4764 102.414 64.2862 103.688C62.2147 104.888 59.5594 100.837 61.7306 99.5677Z" fill="white"/>
<path d="M67.0648 96.5365C67.5655 91.0693 73.6804 92.0299 73.3577 97.2481C72.8476 102.703 66.7421 101.755 67.0648 96.5365Z" fill="white"/>
<path d="M126.311 100.759C127.877 97.6492 131.85 99.0509 130.272 102.433C128.703 105.55 124.731 104.141 126.311 100.759Z" fill="white"/>
<path d="M119.95 93.6667C124.422 93.0405 124.933 101.553 120.801 102.144C116.329 102.775 115.809 94.2597 119.95 93.6667Z" fill="white"/>
<path d="M215.432 48.7235C217.44 50.0921 218.042 56.8093 217.267 57.8198C210.649 69.4966 178.916 65.1727 171.323 57.9099C172.203 51.6386 168.475 45.8417 163.302 46.0314C163.219 45.8559 163.136 45.6804 163.051 45.5072C170.976 44.7079 172.386 46.8284 177.231 48.7259C189.584 54.0413 197.657 57.4877 210.006 50.6708C212.108 49.7102 214.716 48.5124 215.432 48.7235Z" fill="white"/>
<path d="M204.671 9.12217C202.939 33.0381 183.662 32.1581 176.068 45.5404C172.777 44.2026 170.473 42.3027 162.84 43.0831C164.522 37.6135 172.438 32.0537 178.916 27.5139C190.211 21.2379 193.061 11.3446 194.026 2.43578C196.001 2.04441 204.574 6.40397 204.671 9.12217Z" fill="white"/>
<path d="M160.087 45L159.978 46.2808C144.692 47.5853 122.467 49.7485 106.222 50.0332C86.003 50.23 33.9561 45.9298 31.2178 45.6451C33.9606 40.4592 37.4486 35.7028 41.5707 31.5276C70.7904 2.26539 139.566 4.98122 160.087 45Z" fill="white"/>
<path d="M164.159 48.4154C167.858 49.5041 170.21 53.8707 168.43 59.6226C129.733 64.236 75.4127 68.3987 23.7834 60.6188C21.1732 59.7056 20.9739 56.9092 21.5552 53.5577C22.1983 50.1635 24.7847 48.8138 27.1932 48.3086C31.2034 47.3053 83.0558 52.9291 106.258 52.4476C124.147 52.1819 147.328 49.6298 164.159 48.4154Z" fill="white"/>
<path d="M151.253 63.9844C160.222 108.726 150.541 115.217 101.367 114.304C53.1977 115.253 30.8427 116.652 40.3082 65.2059C73.7446 69.0223 124.05 66.9208 151.253 63.9844ZM135.138 83.8633C135.238 83.7843 135.307 83.6728 135.334 83.5481C135.36 83.4235 135.342 83.2936 135.282 83.1809C135.223 83.0683 135.126 82.98 135.008 82.9313C134.89 82.8827 134.759 82.8767 134.638 82.9145C126.439 85.7964 118.699 89.8737 111.132 94.0506C110.23 93.8751 109.729 92.6939 109.26 91.9301C107.024 90.0089 108.654 97.5183 112.107 96.2257C112.655 96.0596 113.194 95.877 113.73 95.6849C113.91 103.275 117.918 109.257 126.219 107.782C137.903 105.863 133.895 93.4007 132.996 85.3813C133.711 84.8895 134.425 84.3835 135.138 83.8633ZM82.5765 91.5554C82.5834 91.4317 82.5478 91.3094 82.4756 91.2087C82.4035 91.108 82.299 91.035 82.1797 91.0018C82.0603 90.9685 81.9331 90.9771 81.8193 91.026C81.7054 91.0749 81.6117 91.1613 81.5537 91.2707C79.7741 94.7527 79.5937 93.5122 76.7296 92.146C75.5835 91.5008 51.4987 79.3258 54.1682 83.3272C55.312 84.1361 56.4794 84.8927 57.6587 85.6232C57.0537 93.6474 53.7933 105.929 65.4039 107.35C73.2107 108.488 77.5056 102.718 77.3134 95.3979C80.4409 96.9135 82.4365 94.5558 82.5765 91.5554Z" fill="white"/>
<path d="M169.049 100.785C175.178 111.762 174.507 128.816 155.593 137.63C138.375 145.144 126.805 145.832 110.27 147.198C107.119 141.79 102.203 130.196 96.2372 135.369C90.267 130.201 85.3622 141.773 82.2063 147.186C67.3781 145.893 52.2699 145.051 37.7312 137.753C37.5644 137.66 37.3779 137.608 37.187 137.6C36.9961 137.593 36.8062 137.631 36.6326 137.71C19.4363 129.883 13.7983 117.895 21.9041 100.709C21.0285 100.787 21.0403 72.196 24.5143 63.1733C28.8899 63.8564 33.3438 64.4399 37.8428 64.9332C27.8766 119.738 54.6428 117.63 101.436 116.714C149.656 117.831 163.537 111.05 153.735 63.7331C159.15 63.1851 163.366 62.6894 166.074 62.355C170.027 80.7017 169.061 100.519 169.049 100.785Z" fill="white"/>
<path d="M136.757 146.489C136.56 147.561 136.356 148.465 136.206 149.069C132.913 149.281 129.413 149.394 126.095 149.449C126.515 148.941 126.928 148.443 127.327 147.957C130.16 147.575 134.381 146.909 136.757 146.489Z" fill="white"/>
<path d="M124.406 148.33C124.089 148.709 123.773 149.093 123.457 149.48C119.617 149.508 116.191 149.466 113.849 149.421L113.887 149.38C117.418 149.084 120.78 148.768 124.406 148.33Z" fill="white"/>
<path d="M74.9832 149.473C69.8625 149.52 62.6679 149.473 56.2374 149.07C56.0879 148.458 55.8815 147.54 55.6821 146.46C62.0404 147.899 68.4889 148.905 74.9832 149.473Z" fill="white"/>
<path d="M200.699 161.667C204.239 167.637 203.819 189.776 198.969 189.819C194.698 188.365 193.511 179.299 193.087 173.967C192.289 168.144 195.149 149.463 200.699 161.667Z" fill="white"/>
<path d="M191.184 158.066L193.338 157.891C188.929 166.228 189.935 182.63 195.168 190.047L187.752 190.49C181.158 180.542 179.969 166.743 185.636 158.526L191.184 158.066Z" fill="white"/>
<path d="M187.178 192.942L192.399 192.629C187.783 215.343 176.586 198.924 173.975 177.053C173.176 167.985 172.521 151.607 180.128 148.445C182.413 148.182 185.187 150.948 187.589 155.943C186.903 156.18 184.449 155.836 184.029 156.621C178.399 164.807 176.989 178.132 186.087 192.38C186.202 192.563 186.364 192.711 186.556 192.81C186.748 192.909 186.963 192.955 187.178 192.942Z" fill="white"/>
<path d="M131.598 182.428C133.34 182.485 135.06 182.489 136.778 182.428C135.775 182.817 134.727 183.202 133.634 183.583C132.959 183.218 132.28 182.833 131.598 182.428Z" fill="white"/>
<path d="M127.436 182.2C128.649 182.992 129.861 183.744 131.062 184.446C127.927 185.445 124.468 186.382 120.702 187.179C119.133 186.299 114.691 183.728 109.003 179.719C115.429 180.265 121.656 182.006 127.436 182.2Z" fill="white"/>
<path d="M181.697 204.067L152.434 207.43C152.14 199.909 151.756 192.988 151.578 189.935C152.887 186.508 153.727 182.886 154.304 179.157C167.951 174.06 169.728 161.975 163.663 150.338L175.382 148.991C166.698 162.824 171.942 195.281 181.697 204.067Z" fill="white"/>
<path d="M159.933 148.337C179.153 181.97 134.438 182.978 112.024 177.523C114.724 169.774 113.725 158.709 111.955 151.795C119.9 151.906 132.125 152.17 140.736 151.029C141.498 150.844 144.125 150.576 144.153 149.606C142.471 148.567 140.579 148.994 138.731 148.894C138.904 148.123 139.108 147.125 139.293 146C145.305 144.509 150.575 142.691 155.104 140.545C156.869 143.043 158.481 145.645 159.933 148.337Z" fill="white"/>
<path d="M109.789 151.46C111.654 158.669 112.779 169.458 109.96 177.335C107.637 177.233 98.3135 176.738 98.1972 173.991C97.6609 167.321 97.6586 157.127 97.5541 148.972C101.125 148.633 101.994 152.056 103.897 154.19C104.583 150.789 101.187 146.581 97.5399 146.904C97.5399 145.429 97.5233 143.979 97.5186 142.575C100.278 142.122 102.435 144.902 103.688 147.129C103.826 147.286 105.133 149.565 105.254 149.055C105.112 145.044 101.956 140.163 97.5186 140.516C97.5186 139.62 97.5186 138.747 97.5186 137.907C100.482 131.702 107.425 147.589 109.789 151.46Z" fill="white"/>
<path d="M93.9663 136.622C95.4683 137.537 94.8229 139.081 94.951 140.526C88.2049 139.527 85.374 153.035 88.3568 147.805C89.7473 145.433 91.9019 142.086 94.9439 142.587C94.9439 143.994 94.932 145.447 94.9226 146.925C91.3253 146.451 87.7042 151.102 88.6249 154.171C90.3381 152.037 91.5934 148.571 94.9083 148.979C94.8442 156.377 94.7565 164.397 94.4812 170.801C94.3934 172.698 94.2914 174.053 94.1751 174.631C92.8154 176.358 86.933 177.214 82.5029 177.34C79.5723 168.211 80.8418 159.375 82.6761 151.463C83.5493 150.208 84.0476 148.711 84.8496 147.364C88.0174 142.105 90.5375 135.927 93.9663 136.622Z" fill="white"/>
<path d="M80.5001 151.802C78.8581 159.259 77.5079 167.853 80.4289 177.53C46.4397 184.864 10.4809 177.274 37.2875 140.647C41.7722 142.616 47.4695 144.442 53.1384 145.865C53.3258 147.051 53.5417 148.102 53.7221 148.906C51.959 149.001 49.8353 148.612 48.2858 149.644C48.6417 150.739 50.7607 150.775 51.717 151.043C61.6024 152.238 72.4584 151.876 80.5001 151.802Z" fill="white"/>
<path d="M117.695 187.769C116.012 188.086 114.272 188.362 112.475 188.599C110.147 182.772 102.57 185.378 99.7348 187.297C97.063 185.767 90.0653 184.733 87.0423 189.33C74.1148 188.355 63.6147 185.45 55.8269 182.44C63.9968 182.637 72.0171 181.745 81.4849 179.767C83.8033 179.767 93.7219 179.51 96.2135 175.898C97.6586 177.992 101.598 178.955 105.107 179.399C110.439 183.315 114.993 186.161 117.695 187.769Z" fill="white"/>
<path d="M85.844 191.669C85.2418 193.521 85.2261 195.514 85.7989 197.375C85.1658 198.173 84.6215 199.036 84.1758 199.951C72.6104 198.898 55.1222 195.782 42.4462 186.65C42.1543 185.608 41.4662 183.011 40.9299 180.16C55.051 183.474 64.0253 190.141 85.844 191.669Z" fill="white"/>
<path d="M98.9685 189.6C101.394 193.047 100.741 198.941 99.6021 200.971C97.5566 202.525 91.7146 202.523 89.4224 199.311C86.9119 196.012 87.2512 191.054 90.9766 189.055C93.1312 187.589 97.737 188.834 98.9685 189.6Z" fill="white"/>
<path d="M110.859 191.412C111.993 196.012 107.262 201.695 102.198 200.955C103.318 198.191 103.588 192.71 101.458 189.095C105.071 187.088 109.969 185.82 110.859 191.412Z" fill="white"/>
<path d="M151.684 180.108C151.148 182.978 150.434 185.666 150.161 186.65C139.336 194.447 125.008 197.857 113.856 199.342C113.19 198.971 112.598 198.478 112.112 197.891C113.257 195.774 113.654 193.333 113.239 190.962C130.58 188.967 138.47 183.246 149.898 180.637C150.505 180.471 151.101 180.295 151.684 180.108Z" fill="white"/>
<path d="M148.766 190.492C146.152 196.804 141.835 202.267 136.296 206.27C132.903 201.671 127.771 200.853 120.196 200.848C129.436 199.152 139.894 196.069 148.766 190.492Z" fill="white"/>
<path d="M134.417 207.779L129.909 214.235C129.362 213.656 128.766 213.126 128.129 212.648C121.625 207.556 108.861 211.536 104.682 203.296C106.818 202.862 108.954 201.572 110.629 199.88C116.077 206 129.833 200.426 134.417 207.779Z" fill="white"/>
<path d="M115.56 211.671C118.106 212.019 120.669 212.112 123.141 212.833C118.203 214.474 112.126 215.622 106.313 216.123C103.94 216.336 101.474 216.469 98.914 216.521C96.5245 212.98 93.5062 206.578 94.5597 204.346C96.7428 204.584 99.4977 204.071 100.838 203.07C101.242 203.214 101.66 203.317 102.084 203.379C103.166 207.105 108.818 211.239 115.56 211.671Z" fill="white"/>
<path d="M97.7228 219.183C98.8617 220.986 99.6211 222.193 100.307 224.195C98.0304 224.717 95.9113 225.774 94.1255 227.278C93.0767 225.352 91.0288 221.968 88.3783 219.366C87.8072 218.779 87.3273 218.11 86.9546 217.38C84.4441 212.326 83.8461 205.213 86.938 199.935C88.1 201.881 89.9712 203.3 92.1583 203.896C90.8533 207.333 94.8516 214.978 97.7228 219.183Z" fill="white"/>
<path d="M14.4177 211.64L8.91026 212.399C1.83431 206.61 0.908884 187.307 4.33534 180.028L10.8537 178.842C8.94349 188.251 10.5404 202.772 14.4177 211.64Z" fill="white"/>
<path d="M40.1966 187.587C39.3851 189.413 38.9651 206.398 38.5641 220.518L27.4779 221.792C13.1599 223.293 3.08465 164.444 25.6461 166.199C26.9013 172.041 31.3173 176.353 38.3102 179.221C38.7393 182.051 39.3697 184.846 40.1966 187.587Z" fill="white"/>
<path d="M83.5376 215.35C83.5922 215.521 83.6491 215.689 83.7061 215.855C64.0799 213.457 50.4002 205.801 43.8416 190.5C56.4582 198.424 72.2711 201.308 83.2315 202.335C81.9217 206.657 82.3203 211.512 83.5376 215.35Z" fill="white"/>
<path d="M81.6844 218.035C78.7918 224.98 75.064 232.15 73.8895 234.372C70.0715 234.029 53.3545 232.492 41.1436 230.945C40.5148 219.958 41.6182 201.144 42.0524 192.444C49.0999 207.508 62.0369 215.162 81.6844 218.035Z" fill="white"/>
<path d="M149.423 194.733C149.924 204.408 150.788 222.746 150.206 230.936C138.007 232.482 121.288 234.019 117.472 234.363C116.305 232.157 112.625 225.075 109.741 218.177C115.856 217.426 121.368 216.128 126.278 214.283C127.347 215.019 128.295 215.919 129.085 216.949C129.203 217.095 129.353 217.213 129.523 217.292C129.694 217.371 129.88 217.409 130.068 217.404C130.256 217.399 130.44 217.35 130.606 217.261C130.772 217.173 130.915 217.047 131.024 216.894L134.486 211.925L136.327 209.283L136.432 209.133C141.902 205.499 146.37 200.547 149.423 194.733Z" fill="white"/>
<path d="M161.905 256.118C162.007 257.454 117.565 256.14 117.097 256.593C116.971 256.593 116.851 256.543 116.762 256.454C116.673 256.365 116.623 256.244 116.623 256.118V253.746C116.608 253.075 117.626 253.322 118.025 253.272H161.437C161.563 253.272 161.684 253.322 161.773 253.411C161.862 253.5 161.912 253.621 161.912 253.746L161.905 256.118Z" fill="white"/>
<path d="M161.34 244.306C162.144 247.845 160.324 250.262 159.712 250.848H158.385C158.658 249.662 159.396 245.684 158.018 245.191C157.156 247.055 156.997 248.917 156.269 250.848H154.33C154.567 249.311 154.641 245.231 152.921 244.73C152.584 246.865 152.847 248.763 152.249 250.848H148.721C148.991 249.505 149.06 245.463 147.394 245.212C147.247 245.784 147.189 246.375 147.223 246.965C147.223 248.288 146.936 249.557 146.642 250.848H141.576C142.141 249.076 142.015 247.181 141.595 245.416C146.341 243.492 151.798 239.809 159.328 240.812C160.35 242.069 161.105 243.281 161.34 244.306Z" fill="white"/>
<path d="M157.731 239.05C150.548 238.813 145.584 242.015 141.12 243.894C134.476 240.471 125.697 244.828 122.849 250.857H121.188C124.748 241.946 134.754 240.208 140.613 242.342C146.158 239.847 153.353 237.504 156.468 237.824C156.905 238.225 157.323 238.635 157.731 239.05Z" fill="white"/>
<path d="M151.006 233.279C151.979 233.991 153.353 235.058 154.784 236.296C151.108 236.638 145.529 238.09 140.784 240.708C132.953 237.995 122.541 241.92 119.461 250.857H119.278C119.328 248.863 119.674 238.775 118.566 236.702C123.651 236.242 139.481 234.752 151.006 233.279Z" fill="white"/>
<path d="M140.271 245.345C140.271 245.523 140.271 245.703 140.271 245.886C140.271 247.584 140.114 249.342 139.364 250.867H124.726C127.388 245.869 135.255 242.463 140.271 245.345Z" fill="white"/>
<path d="M74.7317 253.741V256.113C74.7317 256.239 74.6817 256.36 74.5927 256.449C74.5037 256.538 74.383 256.588 74.2571 256.588H29.9221C29.7962 256.588 29.6755 256.538 29.5865 256.449C29.4975 256.36 29.4475 256.239 29.4475 256.113V253.741C29.4475 253.616 29.4975 253.495 29.5865 253.406C29.6755 253.317 29.7962 253.267 29.9221 253.267H74.2714C74.3948 253.271 74.5118 253.322 74.5978 253.411C74.6837 253.5 74.7318 253.618 74.7317 253.741Z" fill="white"/>
<path d="M72.0932 250.857H71.9105C68.8257 241.885 58.385 238.007 50.5877 240.708C45.8419 238.099 40.2514 236.636 36.5876 236.296C38.0114 235.058 39.3924 233.988 40.3629 233.279C51.8904 234.752 67.7176 236.235 72.824 236.702C71.6969 238.775 72.0457 248.863 72.0932 250.857Z" fill="white"/>
<path d="M70.1639 250.857H68.5028C65.6696 244.842 56.8757 240.454 50.2767 243.896C45.7682 242.043 40.8421 238.801 33.6309 239.05C34.0366 238.635 34.4543 238.225 34.8814 237.824C37.9993 237.504 45.1939 239.849 50.7394 242.342C56.6004 240.177 66.652 241.994 70.1639 250.857Z" fill="white"/>
<path d="M66.6355 250.857H51.9877C51.5569 249.936 51.2872 248.948 51.1904 247.935C51.0409 247.084 51.1192 246.209 51.0955 245.343C56.1141 242.454 63.9921 245.891 66.6355 250.857Z" fill="white"/>
<path d="M49.776 250.857H44.7193C44.4227 249.567 44.1404 248.298 44.138 246.974C44.1714 246.385 44.1129 245.793 43.9648 245.222C43.9611 245.206 43.9536 245.191 43.9429 245.179C43.9322 245.166 43.9186 245.157 43.9034 245.151C43.8882 245.145 43.8718 245.143 43.8556 245.145C43.8394 245.147 43.8239 245.153 43.8105 245.162C42.1495 246.505 42.4366 248.957 42.6407 250.855H39.1122C38.5142 248.779 38.7776 246.872 38.4431 244.742C36.7939 245.312 36.7322 248.839 37.043 250.855H35.0925C34.3617 248.922 34.2051 247.06 33.3437 245.198C32.0434 245.848 32.5607 249.017 32.9854 250.855H31.6495C31.0373 250.269 29.2173 247.852 30.0193 244.313C30.2566 243.279 31.0112 242.067 32.0339 240.819C39.5702 239.818 45.0088 243.5 49.7641 245.423C49.356 247.152 49.2207 249.123 49.776 250.857Z" fill="white"/>
<path d="M218.842 49.53C223.113 60.2605 215.406 66.788 197.989 67.7699C187.921 68.2656 171.785 62.3145 170.687 60.4668C170.364 61.6931 169.923 61.9611 168.487 62.0489C172.231 79.3638 171.603 97.6274 171.47 100.552C178.515 111.897 175.504 131.15 157.289 139.451C159.227 142.189 160.976 145.056 162.526 148.03L177.729 146.289C177.969 146.26 178.213 146.305 178.427 146.417C183.244 144.757 186.905 148.789 190.196 155.725C195.804 155.753 199.479 152.573 202.908 160.73C206.562 168.066 207.248 191.237 199.111 192.228L194.897 192.48C193.409 200.924 190.7 206.403 185.254 205.881C185.071 206.036 184.846 206.133 184.608 206.161L152.517 209.852C152.814 218.153 152.963 226.773 152.584 231.436C154.773 233.045 156.851 234.8 158.803 236.69C160.139 237.368 160.915 238.635 161.278 239.398C164.6 242.857 164.493 248.284 162.557 251.078C164.652 251.898 164.318 254.282 164.313 256.109C164.316 256.489 164.243 256.866 164.099 257.218C163.955 257.57 163.743 257.89 163.475 258.159C163.208 258.429 162.889 258.643 162.538 258.79C162.187 258.936 161.81 259.011 161.43 259.012H117.09C116.326 259.011 115.593 258.707 115.052 258.167C114.512 257.627 114.208 256.894 114.207 256.13C114.129 253.888 113.97 251.234 116.843 250.881C117.793 233.853 115.111 237.762 107.233 218.474C105.018 218.687 102.737 218.833 100.387 218.91C106.46 230.295 101.382 223.179 94.7138 230.108C94.5819 230.259 94.4144 230.376 94.2264 230.446C94.0383 230.517 93.8356 230.54 93.6365 230.513C91.8806 229.854 91.2636 225.471 86.6792 221.109C85.9109 220.315 85.2705 219.407 84.7809 218.417L84.1639 218.35C80.5192 227.171 75.7734 236.007 75.5598 236.351C74.2144 237.162 74.3473 248.824 74.5039 250.881C77.3775 251.225 77.2114 253.91 77.1402 256.13C77.1396 256.894 76.8356 257.627 76.2951 258.167C75.7545 258.707 75.0216 259.011 74.2571 259.012H29.915C29.1505 259.011 28.4176 258.707 27.877 258.167C27.3365 257.627 27.0325 256.894 27.0319 256.13C27.0177 254.311 26.7092 251.908 28.7902 251.099C26.8563 248.322 26.7472 242.864 30.0692 239.42C30.4346 238.656 31.2082 237.389 32.5418 236.711C34.4938 234.821 36.5726 233.065 38.7635 231.457C38.5879 229.323 38.5262 226.348 38.5262 222.964C27.6678 224.15 21.897 227.148 15.4403 213.95C14.8115 213.879 8.10812 215.357 7.74032 214.631C-0.690554 208.559 -1.79869 186.41 2.31352 178.509C2.38954 178.32 2.51239 178.154 2.67053 178.025C2.82867 177.896 3.01692 177.81 3.21759 177.774L11.4064 176.299C13.8434 166.745 17.9532 163.898 25.3709 163.801C25.079 154.714 32.1929 143.657 35.0357 139.608C17.678 131.427 10.8607 118.439 19.4576 100.668C18.4397 97.7745 18.7458 72.5991 22.1651 62.5849C19.002 60.8392 18.4065 57.4284 19.1848 53.0973C20.179 47.853 24.6424 46.0338 28.477 45.6661C51.5889 -1.44223 134.581 -2.81557 160.825 41.5628C170.117 24.1198 190.543 26.468 191.691 1.33053C193.578 -3.17609 207.758 4.82671 207.077 9.28589C204.574 34.9831 187.278 32.7677 178.289 46.5485C183.771 48.9702 193.16 52.7154 197.915 52.215C201.712 51.826 205.746 49.9688 208.997 48.4792C214.02 46.2734 216.69 44.5063 218.842 49.53ZM217.259 57.8316C218.028 56.8212 217.432 50.104 215.423 48.7354C214.711 48.5243 212.101 49.7221 210.005 50.6827C197.666 57.4996 189.584 54.0532 177.231 48.7378C172.386 46.8402 170.976 44.7198 163.051 45.5191C163.134 45.6922 163.219 45.8678 163.302 46.0433C168.47 45.8535 172.203 51.6505 171.323 57.9218C178.916 65.1727 210.641 69.4967 217.259 57.8198V57.8316ZM198.962 189.819C203.812 189.776 204.232 167.637 200.692 161.666C195.142 149.463 192.282 168.144 193.08 173.967C193.509 179.299 194.688 188.365 198.962 189.819ZM176.068 45.5404C183.662 32.1558 202.932 33.0358 204.664 9.11986C204.567 6.40403 196.001 2.04447 194.007 2.43583C193.042 11.3447 190.192 21.2379 178.897 27.514C172.431 32.0538 164.515 37.6135 162.839 43.0855C170.473 42.3052 172.777 44.2051 176.068 45.5404ZM193.331 157.888L191.176 158.064L185.629 158.524C179.962 166.74 181.151 180.54 187.745 190.487L195.161 190.044C189.928 182.636 188.922 166.228 193.331 157.89V157.888ZM192.382 192.627L187.162 192.94C186.946 192.953 186.73 192.907 186.538 192.808C186.345 192.709 186.183 192.561 186.068 192.378C176.97 178.13 178.379 164.805 184.01 156.619C184.433 155.834 186.886 156.185 187.57 155.941C185.166 150.945 182.394 148.18 180.109 148.443C172.502 151.605 173.157 167.983 173.954 177.051C176.578 198.924 187.776 215.343 192.391 192.629L192.382 192.627ZM152.418 207.428L181.68 204.064C171.925 195.288 166.681 162.822 175.366 148.989L163.646 150.336C169.718 161.972 167.934 174.055 154.288 179.155C153.709 182.883 152.864 186.507 151.561 189.932C151.749 192.987 152.133 199.909 152.427 207.43L152.418 207.428ZM155.576 137.627C174.495 128.813 175.162 111.759 169.03 100.782C169.045 100.516 170.01 80.6992 166.048 62.3572C163.342 62.6917 159.124 63.1874 153.709 63.7353C163.511 111.052 149.63 117.834 101.41 116.717C54.612 117.632 27.8505 119.741 37.8167 64.9355C33.3082 64.4421 28.8638 63.8587 24.4882 63.1755C21.0166 72.1888 21.0048 100.789 21.878 100.711C13.7698 117.893 19.4102 129.885 36.6065 137.713C36.7801 137.633 36.97 137.595 37.1609 137.603C37.3518 137.61 37.5383 137.662 37.7052 137.755C52.2438 145.051 67.352 145.896 82.1802 147.188C85.3361 141.773 90.248 130.203 96.2111 135.372C102.179 130.198 107.093 141.792 110.244 147.2C126.798 145.832 138.368 145.144 155.586 137.63L155.576 137.627ZM168.413 59.6201C170.191 53.8729 167.841 49.5015 164.142 48.4128C147.311 49.6272 124.131 52.1675 106.244 52.445C83.0416 52.9194 31.1892 47.3028 27.179 48.3061C24.7705 48.8113 22.196 50.1609 21.541 53.5551C20.9597 56.9066 21.1661 59.7031 23.7692 60.6163C75.4056 68.4008 129.723 64.2358 168.423 59.6224L168.413 59.6201ZM117.09 256.588C117.565 256.139 161.999 257.453 161.897 256.113V253.741C161.897 253.616 161.847 253.495 161.758 253.406C161.669 253.317 161.549 253.267 161.423 253.267H118.025C117.626 253.31 116.601 253.063 116.623 253.741V256.113C116.623 256.238 116.672 256.357 116.759 256.446C116.847 256.535 116.966 256.586 117.09 256.588ZM159.695 250.857C160.308 250.271 162.128 247.854 161.323 244.315C161.086 243.281 160.334 242.069 159.311 240.822C151.775 239.818 146.331 243.502 141.578 245.425C141.996 247.19 142.124 249.085 141.559 250.857H146.644C146.941 249.567 147.223 248.298 147.226 246.974C147.194 246.385 147.252 245.794 147.399 245.221C149.06 245.473 148.994 249.515 148.726 250.857H152.254C152.852 248.782 152.586 246.868 152.926 244.74C154.646 245.24 154.572 249.32 154.335 250.857H156.274C157.002 248.926 157.159 247.062 158.02 245.2C159.399 245.694 158.663 249.659 158.39 250.857H159.695ZM112 177.523C134.415 182.978 179.12 181.97 159.918 148.336C158.464 145.647 156.848 143.047 155.08 140.552C150.561 142.686 145.29 144.505 139.267 146.007C139.084 147.131 138.88 148.142 138.707 148.901C140.556 149.012 142.447 148.585 144.129 149.612C144.101 150.573 141.472 150.841 140.712 151.036C132.096 152.176 119.876 151.913 111.931 151.802C113.718 158.709 114.717 169.774 112.017 177.523H112ZM159.968 46.2805L160.08 44.9996C139.559 4.98088 70.7832 2.26505 41.5635 31.5272C37.4413 35.7025 33.9533 40.4588 31.2106 45.6448C33.9489 45.9294 85.9958 50.2297 106.215 50.0328C122.46 49.7482 144.684 47.585 159.968 46.2805ZM141.116 243.893C145.577 242.015 150.541 238.806 157.726 239.05C157.32 238.635 156.9 238.224 156.473 237.824C153.357 237.503 146.163 239.847 140.617 242.342C134.759 240.207 124.747 241.946 121.193 250.857H122.854C125.685 244.828 134.476 240.471 141.116 243.893ZM154.776 236.303C153.353 235.065 151.972 233.995 150.999 233.286C139.474 234.759 123.644 236.241 118.54 236.709C119.655 238.782 119.309 248.87 119.252 250.864H119.435C122.519 241.927 132.922 238.001 140.757 240.715C145.515 238.089 151.101 236.638 154.776 236.296V236.303ZM101.36 114.304C150.538 115.215 160.208 108.726 151.246 63.9844C124.043 66.9208 73.7375 69.0223 40.3011 65.2011C30.8475 116.652 53.193 115.274 101.36 114.304ZM150.154 186.647C150.424 185.663 151.141 182.976 151.677 180.106C151.094 180.292 150.496 180.469 149.883 180.635C138.456 183.244 130.566 188.965 113.222 190.959C113.64 193.33 113.243 195.771 112.098 197.888C112.584 198.476 113.175 198.968 113.842 199.339C124.994 197.857 139.329 194.446 150.154 186.65V186.647ZM150.204 230.945C150.783 222.755 149.921 204.418 149.421 194.743C146.363 200.554 141.892 205.502 136.42 209.133L136.315 209.282L134.474 211.925L131.007 216.894C130.898 217.047 130.755 217.173 130.589 217.261C130.423 217.35 130.239 217.398 130.051 217.404C129.863 217.409 129.677 217.371 129.506 217.292C129.336 217.213 129.186 217.095 129.068 216.948C128.279 215.923 127.336 215.027 126.271 214.292C121.367 216.134 115.855 217.432 109.734 218.187C112.617 225.094 116.298 232.167 117.458 234.372C121.281 234.029 138 232.492 150.204 230.945ZM136.294 206.277C141.832 202.273 146.148 196.811 148.763 190.499C139.889 196.076 129.434 199.159 120.194 200.855C127.763 200.853 132.896 201.671 136.289 206.27L136.294 206.277ZM140.276 245.888C140.276 245.706 140.276 245.526 140.276 245.347C135.255 242.465 127.393 245.871 124.731 250.86H139.376C140.114 249.342 140.266 247.584 140.271 245.886L140.276 245.888ZM136.204 149.069C136.351 148.464 136.557 147.561 136.754 146.489C134.381 146.908 130.158 147.575 127.324 147.957C126.926 148.443 126.513 148.941 126.093 149.449C129.405 149.394 132.905 149.28 136.204 149.069ZM136.776 182.435C135.058 182.489 133.337 182.485 131.596 182.435C132.277 182.838 132.955 183.225 133.629 183.597C134.713 183.211 135.76 182.824 136.771 182.435H136.776ZM129.918 214.24L134.426 207.783C129.84 200.43 116.086 206 110.65 199.885C108.975 201.576 106.839 202.866 104.704 203.3C108.882 211.54 121.646 207.57 128.15 212.653C128.782 213.131 129.372 213.662 129.913 214.24H129.918ZM131.059 184.446C129.859 183.735 128.646 182.992 127.434 182.2C121.653 182.006 115.427 180.265 109.001 179.719C114.696 183.728 119.131 186.299 120.699 187.179C124.46 186.382 127.92 185.445 131.055 184.446H131.059ZM123.438 149.48C123.764 149.094 124.08 148.71 124.387 148.329C120.754 148.768 117.399 149.084 113.856 149.38L113.818 149.42C116.172 149.465 119.594 149.508 123.438 149.48ZM123.129 212.833C120.657 212.122 118.094 212.02 115.548 211.671C108.811 211.239 103.159 207.105 102.072 203.369C101.648 203.308 101.23 203.205 100.826 203.061C99.4857 204.062 96.7308 204.562 94.5477 204.337C93.4941 206.569 96.5125 212.971 98.9019 216.512C101.457 216.46 103.923 216.327 106.301 216.114C112.114 215.623 118.191 214.475 123.129 212.833ZM112.475 188.599C114.269 188.358 116.009 188.081 117.695 187.769C114.983 186.161 110.429 183.315 105.119 179.399C101.609 178.955 97.668 177.992 96.2253 175.898C93.7338 179.51 83.8151 179.759 81.4944 179.766C72.029 181.745 64.0086 182.636 55.8388 182.44C63.6266 185.45 74.1266 188.355 87.0541 189.33C90.0772 184.733 97.0748 185.772 99.7467 187.297C102.578 185.378 110.154 182.772 112.475 188.599ZM102.184 200.957C107.247 201.697 111.979 196.014 110.845 191.415C109.955 185.82 105.057 187.089 101.443 189.095C103.579 192.712 103.311 198.194 102.191 200.957H102.184ZM109.945 177.335C112.762 169.458 111.64 158.668 109.775 151.46C107.402 147.589 100.468 131.702 97.4948 137.898C97.4948 138.737 97.4948 139.61 97.4948 140.507C101.932 140.165 105.088 145.047 105.23 149.046C105.109 149.556 103.807 147.276 103.664 147.12C102.419 144.892 100.262 142.113 97.4948 142.566C97.4948 143.97 97.5067 145.412 97.5162 146.894C101.163 146.572 104.559 150.779 103.873 154.181C101.975 152.046 101.102 148.621 97.5304 148.963C97.6348 157.117 97.6372 167.312 98.1735 173.981C98.3064 176.738 107.629 177.233 109.952 177.335H109.945ZM99.5948 200.971C100.734 198.941 101.386 193.047 98.9613 189.6C97.7297 188.834 93.124 187.589 90.9694 189.057C87.2439 191.057 86.9046 196.014 89.4151 199.313C91.7074 202.523 97.5494 202.525 99.5948 200.971ZM100.307 224.195C99.6186 222.193 98.8592 220.985 97.7226 219.183C94.8514 214.977 90.8531 207.323 92.1701 203.903C89.9829 203.307 88.1118 201.887 86.9497 199.942C83.865 205.219 84.4558 212.333 86.964 217.387C87.3375 218.116 87.8174 218.785 88.3877 219.373C91.0382 221.982 93.086 225.359 94.1348 227.285C95.9149 225.78 98.0282 224.721 100.3 224.195H100.307ZM94.9416 140.514C94.8135 139.069 95.4589 137.525 93.9568 136.61C90.5375 135.927 88.0246 142.105 84.8402 147.359C84.0382 148.706 83.5375 150.205 82.6666 151.458C80.8253 159.37 79.5629 168.206 82.4934 177.335C86.9236 177.21 92.806 176.353 94.1657 174.627C94.2819 174.048 94.384 172.693 94.4694 170.796C94.747 164.392 94.8325 156.368 94.8989 148.974C91.5768 148.566 90.3287 152.032 88.6155 154.167C87.6853 151.09 91.3087 146.451 94.9155 146.916C94.9155 145.438 94.9321 143.984 94.9369 142.577C91.8948 142.075 89.7402 145.424 88.3497 147.796C85.3575 153.023 88.1884 139.515 94.9345 140.514H94.9416ZM85.7894 197.375C85.2189 195.513 85.2355 193.521 85.8368 191.669C64.0181 190.141 55.051 183.474 40.9228 180.16C41.4591 183.006 42.1472 185.616 42.4367 186.65C55.115 195.782 72.6103 198.898 84.1687 199.951C84.6144 199.037 85.1578 198.173 85.7894 197.375ZM83.6989 215.855C83.6395 215.689 83.585 215.521 83.5304 215.35C82.3131 211.512 81.9144 206.657 83.229 202.335C72.2639 201.308 56.451 198.424 43.8391 190.499C50.393 205.8 64.0679 213.457 83.6989 215.855ZM80.4219 177.523C77.5009 167.845 78.8487 159.259 80.4907 151.795C72.4514 151.875 61.5954 152.238 51.7099 151.028C50.7608 150.76 48.6252 150.725 48.2787 149.629C49.8282 148.597 51.952 148.986 53.715 148.891C53.5347 148.087 53.3188 147.037 53.1313 145.851C47.4625 144.427 41.7652 142.608 37.2804 140.632C10.4739 177.266 46.4326 184.857 80.4219 177.523ZM73.8822 234.372C75.0568 232.15 78.7846 224.98 81.6772 218.035C62.0296 215.162 49.0927 207.508 42.0499 192.444C41.6275 201.144 40.5123 219.958 41.1411 230.945C53.3472 232.492 70.0642 234.029 73.8822 234.372ZM74.7246 256.118V253.746C74.7246 253.62 74.6746 253.5 74.5856 253.411C74.4966 253.322 74.3759 253.272 74.25 253.272H29.915C29.7891 253.272 29.6684 253.322 29.5794 253.411C29.4904 253.5 29.4404 253.62 29.4404 253.746V256.118C29.4404 256.244 29.4904 256.365 29.5794 256.453C29.6684 256.542 29.7891 256.592 29.915 256.592H74.2571C74.3818 256.591 74.5007 256.54 74.5881 256.451C74.6756 256.362 74.7246 256.243 74.7246 256.118ZM56.2374 149.069C62.6561 149.482 69.8507 149.52 74.9714 149.473C68.4808 148.901 62.0363 147.892 55.6822 146.451C55.8839 147.532 56.0903 148.457 56.2374 149.069ZM71.8985 250.857H72.0812C72.0337 248.862 71.6849 238.775 72.7931 236.702C67.6866 236.227 51.8594 234.752 40.3319 233.279C39.3614 233.991 37.9875 235.058 36.5567 236.296C40.2299 236.635 45.8109 238.089 50.5567 240.708C58.373 238.006 68.8137 241.884 71.8985 250.857ZM68.491 250.857H70.152C66.6402 241.993 56.5886 240.184 50.7276 242.342C45.1821 239.849 37.9875 237.503 34.8696 237.824C34.4424 238.224 34.0224 238.635 33.619 239.05C40.8302 238.801 45.7587 242.043 50.2649 243.896C56.8662 240.454 65.6625 244.842 68.4958 250.857H68.491ZM51.9757 250.857H66.6236C63.9801 245.89 56.1022 242.453 51.0835 245.342C51.1072 246.208 51.0289 247.083 51.176 247.935C51.2763 248.948 51.5484 249.936 51.9805 250.857H51.9757ZM44.7076 250.857H49.7642C49.2089 249.123 49.3442 247.162 49.7523 245.425C45.0065 243.502 39.5489 239.821 32.0221 240.822C30.9994 242.069 30.2424 243.281 30.0075 244.315C29.2055 247.854 31.0255 250.271 31.6353 250.857H32.9831C32.5584 249.019 32.034 245.85 33.3414 245.2C34.2028 247.067 34.3594 248.924 35.0902 250.857H37.0407C36.7299 248.841 36.7916 245.314 38.4408 244.745C38.7753 246.879 38.5119 248.777 39.1099 250.857H42.6384C42.4343 248.96 42.1425 246.505 43.8082 245.165C43.8217 245.156 43.8372 245.15 43.8532 245.149C43.8692 245.147 43.8854 245.149 43.9005 245.155C43.9155 245.161 43.929 245.17 43.9398 245.182C43.9505 245.194 43.9583 245.208 43.9625 245.224C44.1106 245.796 44.1691 246.387 44.1357 246.977C44.1357 248.298 44.4157 249.567 44.7123 250.857H44.7076ZM38.557 220.518C38.958 206.398 39.378 189.413 40.1896 187.587C39.3586 184.847 38.7242 182.051 38.2913 179.221C31.2984 176.353 26.8824 172.041 25.6272 166.199C3.05861 164.444 13.141 223.293 27.4566 221.792L38.557 220.518ZM8.89592 212.399L14.4034 211.64C10.5237 202.772 8.92914 188.251 10.8441 178.853L4.32573 180.039C0.901654 187.307 1.82708 206.609 8.90303 212.399H8.89592Z" fill="#0F0F14"/>
<path d="M134.631 82.9123C134.752 82.8745 134.883 82.8804 135.001 82.9291C135.119 82.9777 135.216 83.066 135.275 83.1787C135.335 83.2914 135.353 83.4213 135.327 83.5459C135.3 83.6705 135.231 83.782 135.131 83.8611C134.419 84.3805 133.708 84.8881 132.984 85.3814C133.883 93.4009 137.891 105.863 126.207 107.782C117.902 109.252 113.899 103.275 113.718 95.685C113.182 95.8771 112.641 96.0598 112.095 96.2258C108.647 97.5185 107.017 90.009 109.248 91.9303C109.722 92.694 110.218 93.8752 111.12 94.0508C118.692 89.8715 126.432 85.7942 134.631 82.9123ZM130.272 102.433C131.85 99.0507 127.877 97.6489 126.311 100.758C124.724 104.141 128.696 105.55 130.272 102.433ZM120.801 102.144C124.944 101.553 124.422 93.0403 119.95 93.6665C115.797 94.2595 116.321 102.775 120.794 102.144H120.801Z" fill="#0F0F14"/>
<path d="M81.5444 91.2686C81.601 91.1553 81.6953 91.0653 81.811 91.014C81.9267 90.9626 82.0568 90.953 82.1788 90.987C82.3008 91.0209 82.4072 91.0962 82.4797 91.1999C82.5523 91.3036 82.5866 91.4294 82.5766 91.5556C82.4366 94.5584 80.441 96.9161 77.3135 95.3981C77.5033 102.718 73.2108 108.489 65.404 107.35C53.7911 105.927 57.0538 93.6476 57.6589 85.6234C56.4724 84.8929 55.3121 84.1362 54.1683 83.3274C51.4988 79.326 75.5813 91.501 76.7298 92.1462C79.5867 93.51 79.7671 94.7505 81.5444 91.2686ZM73.3508 97.2339C73.6735 92.0157 67.5586 91.067 67.0579 96.5223C66.7352 101.755 72.8477 102.704 73.3508 97.2339ZM64.2792 103.688C66.4575 102.417 63.7928 98.3653 61.7236 99.5679C59.5453 100.837 62.2077 104.888 64.2792 103.688Z" fill="#0F0F14"/>
</g>
<defs>
<clipPath id="clip0_1932_1458">
<rect width="220" height="259" fill="white"/>
</clipPath>
</defs>
</svg>
