<svg width="119" height="238" viewBox="0 0 119 238" fill="none" xmlns="http://www.w3.org/2000/svg">
<g clip-path="url(#clip0_1932_1612)">
<path d="M73.8246 10.9919C74.0667 12.321 73.8074 13.692 73.0962 14.8439C72.385 15.9958 71.2714 16.8482 69.9675 17.2388C68.6636 17.6294 67.2604 17.531 66.0249 16.9623C64.7895 16.3936 63.808 15.3943 63.2673 14.1546C63.7878 14.2138 64.2581 14.2659 64.6998 14.3014C66.5334 14.4553 67.8297 14.3843 68.7059 13.5036C69.2861 12.9213 69.5177 12.1235 69.3983 11.1363C69.2025 9.58564 67.8106 8.10368 66.2588 6.91526C66.6062 6.77155 66.9679 6.66443 67.3379 6.59567C67.6751 6.53493 68.017 6.50325 68.3598 6.50098C69.1227 6.50329 69.877 6.66176 70.5754 6.96646C71.2738 7.27116 71.9012 7.71554 72.4184 8.27176C73.1395 9.02672 73.6274 9.97062 73.8246 10.9919Z" fill="white"/>
<path d="M26.7681 33.1621C27.0976 32.9964 27.4247 32.8307 27.7542 32.6578L29.4922 32.3785C29.7787 32.3264 30.0581 32.2672 30.3398 32.2009C30.7528 32.111 31.1587 32.0045 31.5717 31.9169C32.2521 31.7748 32.9206 31.5973 33.5843 31.4008C34.2886 31.1948 34.9929 30.9699 35.7044 30.7616C38.4309 29.825 41.0572 28.6228 43.5447 27.1727C44.1655 26.801 44.7862 26.4222 45.3783 25.989C45.9799 25.5913 46.572 25.1581 47.1379 24.7154C47.4315 24.5023 47.7061 24.2585 47.9878 24.0217C48.1358 23.8986 48.2862 23.7684 48.4295 23.6382C48.556 23.5246 48.6801 23.4015 48.8067 23.2949L49.2054 22.9209C49.3415 22.7883 49.4728 22.6581 49.6041 22.5232C49.7354 22.3882 49.8022 22.322 49.8906 22.2202C50.1651 22.2391 50.5185 22.2746 50.9291 22.3385C51.5372 22.4327 52.1362 22.5776 52.7197 22.7718C52.8576 22.8097 52.9931 22.8556 53.1256 22.9091C53.2927 22.9682 53.467 23.0393 53.6341 23.1103C54.9775 23.6731 56.1518 24.57 57.0434 25.7144C57.1795 25.8919 57.3108 26.0766 57.4373 26.2707C57.9788 27.1159 58.3742 28.0449 58.6072 29.0192C58.3278 29.3317 57.9267 29.7697 57.3943 30.3165C57.1317 30.5833 56.8412 30.8713 56.5229 31.1806C51.7218 35.9153 40.2214 45.5173 23.0986 49.3643C20.861 49.8668 18.5987 50.2539 16.3207 50.5243H16.2849C15.9196 50.5645 15.5543 50.6072 15.1842 50.6427C14.6184 50.7019 14.0502 50.7539 13.4724 50.7965C13.2862 50.8131 13.1 50.825 12.9162 50.8368C12.6535 50.6001 12.3957 50.3515 12.145 50.1029C10.8115 48.7418 9.70289 47.1807 8.85989 45.4771C8.62115 45.0226 8.42538 44.5538 8.23916 44.0803C8.04077 43.5937 7.86707 43.0975 7.71869 42.5936C6.86637 39.7386 6.65628 36.5782 7.12899 33.2213C7.33748 31.7718 7.65673 30.3402 8.08397 28.9387C10.9561 19.4125 18.689 10.4165 28.0645 6.15527C32.8127 4.01875 37.9701 2.92377 43.1842 2.94513C50.2559 2.94513 56.7044 4.85796 61.2907 7.27503C61.4817 7.37446 61.6655 7.47625 61.8517 7.57568C62.1072 7.71773 62.3578 7.85977 62.5918 8.00181C62.6945 8.06099 62.7948 8.12254 62.8902 8.18173C63.2364 8.39953 63.554 8.60785 63.8452 8.81381C65.5427 9.99749 66.2828 10.9586 66.4261 11.3966C65.7934 11.4439 64.5161 11.3066 63.4394 11.1954C63.2603 11.1764 63.0765 11.1528 62.8902 11.1362C62.704 11.1196 62.4892 11.0936 62.2814 11.0699C61.9949 11.0462 61.7013 11.0178 61.3981 10.987C60.9206 10.9468 60.424 10.9113 59.8988 10.8758C55.4629 10.6201 49.4776 10.9113 42.7545 14.2493L35.9479 17.6346L43.5424 17.0451C44.1822 16.993 46.2354 17.0806 47.2143 18.1057C47.6679 18.5792 47.866 19.2255 47.8254 20.0943L47.484 20.4446C47.3217 20.6175 47.1498 20.7879 46.9755 20.9536L46.7893 21.1312C46.3118 21.5881 45.8104 22.026 45.2971 22.4451C44.9915 22.7007 44.6812 22.9564 44.366 23.205C44.3175 23.2499 44.2656 23.291 44.2108 23.3281C44.2084 23.3327 44.205 23.3368 44.2009 23.34C44.1968 23.3433 44.1921 23.3457 44.187 23.347C44.0389 23.4654 43.8957 23.5719 43.7405 23.6856L43.645 23.7566C43.1484 24.1472 42.616 24.4952 42.0908 24.8456C39.8295 26.3536 37.4421 27.6668 34.9547 28.7706C33.6846 29.2867 32.4288 29.8596 31.1157 30.2763C30.6979 30.4112 30.2849 30.5651 29.8623 30.7071C29.6235 30.79 29.3848 30.8681 29.146 30.932L27.1525 31.5073C26.835 31.5949 26.5318 31.6967 26.1975 31.7725C26.1802 31.7692 26.1624 31.7692 26.145 31.7725L26.0543 31.789L25.1327 31.995L23.0915 32.4685C21.7235 32.7549 20.3387 32.9419 18.954 33.2213C20.3555 33.2213 21.7712 33.2047 23.1822 33.1384L23.5928 33.1029L24.6839 33.0011L25.2879 32.949L26.3456 32.8472C26.6559 32.8188 26.9711 32.7596 27.2767 32.7123C27.0976 32.878 26.9353 33.0129 26.7681 33.1621Z" fill="white"/>
<path d="M67.2616 25.6292C68.0977 27.3089 68.4292 29.1916 68.2166 31.0528C68.1696 31.5866 68.0898 32.1171 67.9779 32.6413C67.7681 33.6102 67.4782 34.5604 67.1112 35.4822C67.1112 35.4822 67.1112 35.4822 67.1112 35.494C66.8963 36.0306 66.652 36.5751 66.3783 37.1275C66.044 37.8045 65.662 38.4911 65.2562 39.1705C64.5433 40.3413 63.7579 41.4672 62.9045 42.5416C59.7388 46.5661 55.3077 50.5693 49.9693 54.028C48.7159 54.8448 47.4076 55.626 46.0587 56.3788C45.3186 56.786 44.5641 57.1908 43.8002 57.5743C39.6133 59.711 35.2049 61.3906 30.6525 62.5837C26.4362 63.6679 22.3394 64.2124 18.5529 64.1698C17.3128 64.1564 16.0747 64.0695 14.8452 63.9094C13.6033 63.7489 12.3768 63.4876 11.178 63.1282C10.6886 62.9743 10.2231 62.8086 9.76229 62.6263H9.75035C9.27286 62.418 8.79537 62.2049 8.36086 61.9682C6.34108 60.9028 4.83698 59.4517 3.91782 57.6643C2.96284 55.8036 2.76468 54.0635 3.32573 52.2928C3.32573 52.2928 3.32573 52.2928 3.32573 52.2809V52.2288C3.81993 50.664 4.90144 49.0945 6.54878 47.4799C7.68956 49.5589 9.17546 51.4325 10.9441 53.0219C11.1184 53.1687 11.2903 53.3226 11.4645 53.4717L11.9229 53.8623L12.2285 53.8434L12.515 53.8268C12.9686 53.796 13.4175 53.7676 13.8592 53.7321C16.1463 53.5554 18.3531 53.2792 20.4795 52.9035C21.7282 52.6952 22.9386 52.4466 24.1347 52.1791C26.7772 51.5857 29.3831 50.8419 31.9393 49.9514C36.1148 48.4858 40.1451 46.6418 43.9792 44.4426C47.8272 42.2369 51.4647 39.6886 54.8469 36.8292C56.7163 35.2431 58.1893 33.8203 59.2828 32.7076C60.1208 31.8435 60.7152 31.1688 61.0686 30.7593C61.1999 30.6101 61.2954 30.4989 61.3479 30.4278L61.4124 30.345L61.8421 29.81L61.718 29.1471C61.5882 28.4687 61.4103 27.8002 61.1856 27.1467C60.9846 26.5582 60.733 25.9879 60.4335 25.4422C59.7833 24.229 58.9095 23.1474 57.8575 22.2534C58.0413 22.2249 58.2275 22.206 58.4113 22.1894C58.9915 22.1587 59.5645 22.1468 60.1375 22.1421C60.3285 22.1421 60.5123 22.1421 60.7033 22.1421C60.9898 22.1421 61.2763 22.1421 61.5628 22.1421C62.7254 22.2283 63.8556 22.5617 64.8765 23.1198C65.8751 23.6863 66.685 24.5297 67.2067 25.5464C67.2279 25.572 67.2463 25.5998 67.2616 25.6292Z" fill="white"/>
<path d="M113.695 126.379C115.19 129.495 116.484 132.181 115.844 133.881C115.791 134.027 115.72 134.166 115.634 134.296C115.168 135.077 114.201 135.766 112.733 136.393C112.542 136.476 112.339 136.552 112.129 136.63C109.844 137.45 107.498 138.093 105.112 138.554C98.7973 135.865 89.9542 133.214 82.6056 132.572C82.5268 132.229 82.4385 131.893 82.3287 131.566C82.1377 130.942 81.8982 130.335 81.6125 129.748C80.8841 128.271 79.8739 126.949 78.6377 125.854C79.912 124.308 81.2667 122.83 82.6964 121.424C83.2693 120.854 83.8543 120.293 84.4583 119.736C85.2342 119.007 86.0221 118.302 86.8338 117.606C87.5628 116.966 88.3013 116.345 89.0494 115.74C90.076 114.9 91.1097 114.083 92.1292 113.323C95.2782 110.956 98.3174 108.972 100.753 107.698C101.385 107.367 101.97 107.083 102.515 106.853C103.589 106.396 104.484 106.171 105.191 106.171C105.532 106.162 105.872 106.23 106.182 106.373C107.626 107.102 108.314 110.032 109.113 113.43C109.604 115.684 110.218 117.91 110.952 120.098C111.749 122.24 112.665 124.337 113.695 126.379Z" fill="white"/>
<path d="M112.067 147.115C112.394 148.905 110.62 151.319 108.572 154.127C107.186 155.959 105.903 157.864 104.728 159.835C103.603 161.858 102.588 163.94 101.686 166.07C100.273 169.266 99.0482 172.039 97.4892 172.495C96.6583 172.732 95.4766 172.358 93.9772 171.376C91.2914 169.61 87.4452 166.011 83.6706 161.752C83.0738 161.073 82.4769 160.375 81.88 159.662C81.2283 158.893 80.5956 158.107 79.982 157.318C77.5444 154.215 75.348 150.995 73.7747 148.017C75.0373 147.68 76.2323 147.13 77.3081 146.393C77.7448 146.101 78.1604 145.779 78.5519 145.429C78.6641 145.332 78.7788 145.233 78.8862 145.126C79.1775 144.847 79.4592 144.551 79.7266 144.243C80.1848 143.721 80.597 143.16 80.9585 142.567C81.2315 142.128 81.4787 141.674 81.6986 141.206C82.3213 139.858 82.7189 138.419 82.8756 136.945C82.9276 136.473 82.9531 135.999 82.952 135.524C88.1781 136.057 94.2494 137.655 99.4254 139.504C100.395 139.851 101.329 140.205 102.228 140.565C103.116 140.92 103.971 141.275 104.766 141.63C106.397 142.329 107.97 143.154 109.469 144.099C111.033 145.138 111.885 146.121 112.067 147.115Z" fill="white"/>
<path d="M80.8295 163.021C81.4622 168.244 81.6651 173.004 81.4622 175.975C81.4431 176.259 81.4192 176.52 81.3953 176.768C81.2282 178.345 80.8892 179.505 80.3807 180.227C80.2363 180.452 80.0499 180.647 79.8316 180.802C79.1511 181.276 78.1054 181.347 76.821 181.193L76.0284 178.239L74.8346 173.821L68.1331 148.767C68.2882 148.566 68.4315 148.365 68.5747 148.164C68.9517 148.243 69.3326 148.302 69.7159 148.341C70.0335 148.372 70.3438 148.388 70.6542 148.396C73.0058 153.244 76.8568 158.49 80.8295 163.021Z" fill="white"/>
<path d="M82.367 213.458C83.5265 217.767 82.9497 222.354 80.7585 226.248C78.5674 230.143 74.9339 233.039 70.6272 234.324C66.3205 235.609 61.6785 235.182 57.6838 233.133C53.6892 231.084 50.6553 227.574 49.2244 223.346C49.0979 222.996 48.9857 222.636 48.8949 222.274L47.94 218.723L47.0614 215.449L45.956 211.332L44.9222 207.478L35.6542 172.803L34.9021 170.003L34.1668 167.259L32.0181 159.252C32.1971 159.158 32.3714 159.058 32.5505 158.952C32.7773 158.814 33.0041 158.684 33.2261 158.549C33.8516 158.182 34.4604 157.815 35.0644 157.453C35.6685 157.091 36.2773 156.731 36.867 156.376C36.8842 156.364 36.9026 156.354 36.9219 156.345C38.0153 155.69 39.0825 155.048 40.133 154.428C42.1814 153.213 44.1702 152.06 46.1709 150.952C46.9468 150.526 47.7299 150.105 48.5177 149.695C50.7643 148.512 53.0539 147.404 55.4867 146.381C56.7353 145.841 58.0198 145.325 59.3567 144.823L60.5505 144.385L61.4577 144.071C61.589 144.023 61.7251 143.976 61.8564 143.936C62.353 143.763 62.8615 143.597 63.3748 143.438C63.4154 143.491 63.4584 143.538 63.499 143.585C63.5396 143.633 63.6374 143.734 63.7019 143.805L64.3823 146.35L64.8598 148.176L65.3206 149.88L65.7814 151.611L69.6729 166.141L71.1555 171.672L72.3492 176.129L73.543 180.589L73.9799 182.199L74.4025 183.804L75.3574 187.322L75.7275 188.7L76.5034 191.591L77.3223 194.597L78.0934 197.476L82.367 213.458Z" fill="white"/>
<path d="M88.5385 98.482C89.2118 99.2183 89.4457 100.655 89.2237 102.743C89.164 103.316 89.0638 103.974 88.9324 104.708C88.3085 107.836 87.4928 110.923 86.4901 113.953L85.5351 114.769C83.5869 116.427 81.6818 118.178 79.9342 119.978C78.6158 121.316 77.3679 122.721 76.1954 124.187C74.7723 123.482 73.213 123.088 71.6232 123.032C70.0333 122.976 68.4498 123.259 66.9799 123.862C65.2037 120.528 63.1531 117.344 60.8489 114.343C60.3714 110.676 60.1136 107.201 60.0419 104.36C60.0109 102.897 60.03 101.607 60.1016 100.546C60.1207 100.262 60.1446 99.9948 60.1685 99.7462C60.3356 98.1766 60.6746 97.0166 61.176 96.2875C61.3255 96.0652 61.5139 95.8712 61.7322 95.7146C62.2097 95.3831 62.8496 95.2529 63.6255 95.2529C64.9911 95.2529 66.765 95.6554 68.706 96.1052C70.8156 96.6289 72.9556 97.0242 75.1139 97.2889C77.2817 97.4781 79.4593 97.5335 81.634 97.4546C84.7544 97.3836 87.4642 97.3291 88.5385 98.482Z" fill="white"/>
<path d="M68.5339 133.018C68.5333 132.974 68.5309 132.928 68.5222 132.884C68.5222 132.928 68.5286 132.974 68.5339 133.018Z" fill="white"/>
<path d="M68.4793 137.049C68.5449 137.321 68.5449 137.605 68.4793 137.877C68.4602 137.944 68.4435 138.008 68.4196 138.069C68.3957 138.131 68.3886 138.145 68.3718 138.188C68.1849 138.616 67.8373 138.956 67.4025 139.135C67.3353 139.163 67.2658 139.187 67.1948 139.206C67.0396 139.246 66.8773 139.288 66.7173 139.336C66.4022 139.419 66.0918 139.506 65.7862 139.596C65.7479 139.602 65.7103 139.611 65.674 139.625C65.1965 139.762 64.719 139.904 64.2416 140.046V139.987C64.2195 140.013 64.1996 140.041 64.1819 140.07C63.8357 140.169 63.4967 140.271 63.1624 140.382C63.055 140.413 62.9404 140.448 62.833 140.484C62.4987 140.586 62.1693 140.692 61.8469 140.804L61.7276 140.839C61.2501 141 60.7726 141.159 60.2951 141.313C60.128 141.372 59.9656 141.424 59.8057 141.483L59.5669 141.573C58.557 141.933 57.571 142.3 56.616 142.678H56.5922C55.9714 142.927 55.3626 143.171 54.7586 143.424C52.3043 144.461 50.0004 145.555 47.7491 146.739C47.5867 146.817 47.4315 146.899 47.2716 146.975C45.7842 147.756 44.3159 148.561 42.8405 149.402C42.0932 149.823 41.3531 150.256 40.601 150.694C39.3882 151.405 38.1658 152.131 36.91 152.884C36.3967 153.187 35.8787 153.5 35.351 153.815C35.0001 154.028 34.6348 154.234 34.2839 154.454C34.0618 154.584 33.8541 154.714 33.6321 154.837L32.5076 155.536C32.0898 155.772 31.66 156.033 31.2303 156.293C31.211 156.302 31.1926 156.312 31.1754 156.324L31.0274 156.412C30.6502 156.648 30.2682 156.845 29.8862 157.034C29.8648 157.04 29.8446 157.05 29.8265 157.063C29.3848 157.276 28.9431 157.472 28.5015 157.638C26.1546 158.528 23.8555 158.71 21.8429 158.154C19.9544 157.609 18.319 156.39 17.4356 154.766C17.3937 154.701 17.3555 154.634 17.321 154.565C15.4278 150.822 16.8746 145.119 23.8746 140.37L24.4118 142.378C24.5201 142.913 24.6596 143.441 24.8296 143.959L24.8654 144.097C20.7972 147.21 19.5008 150.564 20.4916 152.778C20.5133 152.832 20.538 152.885 20.5656 152.936C20.6014 153.003 20.6372 153.066 20.673 153.126C21.1461 153.901 21.9103 154.459 22.7978 154.676C24.1587 155.062 25.8132 154.861 27.5727 154.12C27.9885 153.947 28.3935 153.749 28.7856 153.528C28.8333 153.504 28.8811 153.476 28.9336 153.445C28.9861 153.414 29.0959 153.358 29.1723 153.31C29.4827 153.126 29.7883 152.948 30.0915 152.766L30.2706 152.657C30.6549 152.42 31.0298 152.214 31.3998 151.989C31.8773 151.71 32.3023 151.438 32.7559 151.184L33.2644 150.877L33.4435 150.77C34.3332 150.235 35.2086 149.71 36.0697 149.193C36.2201 149.106 36.3681 149.023 36.5113 148.933C38.0942 147.986 39.6413 147.086 41.1812 146.211C43.0267 145.162 44.8602 144.16 46.7344 143.209C47.2429 142.948 47.7562 142.693 48.2695 142.437C49.4513 141.857 50.657 141.296 51.8937 140.751C52.3712 140.538 52.863 140.33 53.3572 140.122C53.5076 140.063 53.6437 140.003 53.7941 139.937C53.9899 139.854 54.188 139.778 54.3838 139.7C55.3388 139.314 56.3128 138.936 57.3156 138.569C57.8313 138.379 58.3565 138.19 58.8817 138.005C59.013 137.958 59.1444 137.918 59.2757 137.875C59.7532 137.709 60.2306 137.544 60.7201 137.402C60.9588 137.319 61.1976 137.243 61.4363 137.165H61.5032C61.6392 137.125 61.73 137.077 61.8732 137.035C61.9687 136.999 62.069 136.971 62.1645 136.94C62.5417 136.822 62.9189 136.703 63.3009 136.597C63.4203 136.561 63.5396 136.521 63.6638 136.49L64.7262 136.187C64.8647 136.147 65.0079 136.104 65.1512 136.069C65.2419 136.04 65.3374 136.017 65.4329 135.993C65.6836 135.915 65.9414 135.851 66.1969 135.78C66.3159 135.747 66.4386 135.729 66.5622 135.726C66.5622 135.726 66.5622 135.726 66.5741 135.726C66.595 135.719 66.6177 135.719 66.6386 135.726C66.6764 135.718 66.7153 135.718 66.7532 135.726C67.0569 135.731 67.3535 135.817 67.6126 135.974C67.7952 136.08 67.9569 136.218 68.0901 136.381C68.1092 136.396 68.1254 136.413 68.1379 136.433C68.2931 136.613 68.4094 136.823 68.4793 137.049Z" fill="white"/>
<path d="M64.3942 125.326C64.1169 125.525 63.8499 125.739 63.5944 125.965C63.4464 126.095 63.296 126.232 63.1527 126.374C62.8734 126.64 62.6108 126.919 62.3577 127.208L59.9392 118.16C60.6554 119.156 61.3192 120.162 61.959 121.157C62.8614 122.565 63.6851 123.969 64.3942 125.326Z" fill="white"/>
<path d="M112.306 70.8268L109.188 59.1841C106.702 49.9474 101.595 41.612 94.4732 35.1677C87.3517 28.7234 78.5148 24.4409 69.0117 22.8286C69.3581 23.2865 69.6633 23.7737 69.9237 24.2845C70.2089 24.8349 70.4484 25.4073 70.64 25.9961C71.0743 27.3151 71.2919 28.6947 71.2846 30.0822C71.2846 30.255 71.2846 30.4255 71.2846 30.5983C71.2726 30.9131 71.2535 31.2209 71.2249 31.5452C71.059 33.051 70.7119 34.5316 70.1911 35.9556C70.0001 36.4883 69.7829 37.028 69.5513 37.5678C68.9244 38.9791 68.1859 40.339 67.3429 41.6349C66.9537 42.2386 66.5431 42.8375 66.1014 43.4341C65.2945 44.5278 64.3992 45.6192 63.4251 46.6963C62.3205 47.9147 61.1164 49.1165 59.8129 50.3018C56.366 53.3865 52.5944 56.0946 48.5632 58.3792C47.4491 59.0184 46.3087 59.6339 45.142 60.2258C40.2728 62.7143 35.1151 64.6033 29.7835 65.8506C26.2551 66.6835 22.6431 67.1187 19.0162 67.1479C18.8443 67.1479 18.67 67.1479 18.4981 67.1479C17.1822 67.1358 15.8683 67.0449 14.5636 66.8757C13.2647 66.7184 11.9809 66.4571 10.7245 66.0945C9.98026 72.3421 10.438 78.6731 12.0735 84.7516L13.0284 88.3026L13.4367 89.8249L14.4323 93.5487L14.9408 95.4426L14.9933 95.632L16.1464 99.9193L19.539 112.585L22.8814 125.096L25.7464 135.816L25.8061 136.052L27.7041 143.133L27.8903 143.843L28.2914 145.335L28.5827 146.414L29.1151 148.398L29.4541 149.676L30.261 149.203L31.9036 148.22C32.0874 148.109 32.2737 148.003 32.4527 147.889C33.6464 147.179 34.8187 146.482 35.9694 145.799C36.3944 145.545 36.817 145.294 37.2348 145.053C37.2373 145.051 37.2402 145.051 37.2431 145.051C37.2461 145.051 37.2489 145.051 37.2515 145.053V145.041L37.3064 145.006C38.7651 144.153 40.1976 143.332 41.6492 142.536C43.0578 141.755 44.4783 140.998 45.9251 140.269C45.944 140.262 45.9617 140.252 45.9776 140.24C45.9879 140.241 45.9983 140.241 46.0087 140.24L47.1594 139.672C47.6846 139.412 48.2162 139.157 48.7542 138.907L49.2484 138.671C49.9766 138.332 50.7239 138.001 51.4759 137.681C51.982 137.461 52.4953 137.243 53.023 137.03C54.6464 136.367 56.3368 135.728 58.1154 135.117C58.4616 134.992 58.8149 134.88 59.1659 134.755C59.4285 134.672 59.6983 134.584 59.9657 134.495C60.2164 134.412 60.467 134.329 60.7249 134.258C60.7225 134.234 60.7225 134.21 60.7249 134.187C60.7559 133.986 60.7846 133.784 60.8275 133.588C60.8275 133.524 60.8514 133.458 60.8681 133.394L60.8037 133.157L60.4456 131.824L60.3906 131.611L60.1519 130.721L55.8831 114.793L55.155 112.064L54.6727 109.99L54.3623 108.823L53.5219 105.684L52.7627 102.86L52.3736 101.415L51.7051 98.9557C51.2183 98.7504 50.6943 98.6457 50.1652 98.648C49.8011 98.6547 49.4381 98.688 49.0789 98.7474C48.6567 98.8199 48.2414 98.9276 47.8374 99.0694C47.817 99.0758 47.797 99.0837 47.7777 99.0931C47.4141 99.2351 47.0641 99.4094 46.732 99.6139C46.7082 99.6304 46.6843 99.6423 46.6604 99.6612C45.9228 100.142 45.2857 100.759 44.7839 101.479C44.7173 101.572 44.6559 101.669 44.6001 101.768C44.5219 101.886 44.4517 102.008 44.39 102.135C44.2732 102.371 44.1735 102.615 44.0915 102.864C44.0079 103.133 43.9535 103.41 43.9292 103.69C43.8934 104.427 44.1441 104.983 44.6454 105.348C44.7867 105.441 44.9391 105.516 45.099 105.573C45.3547 105.664 45.6226 105.717 45.8941 105.731C46.1975 105.749 46.5019 105.731 46.8013 105.679C47.4453 105.573 48.0658 105.357 48.6348 105.04C48.833 104.926 49.0168 104.803 49.2031 104.685C49.4418 104.531 49.6495 104.377 49.8835 104.223C50.2774 103.956 50.7024 103.688 51.2085 103.411C51.3756 103.321 51.5547 103.226 51.7457 103.132C51.7675 103.386 51.7555 103.641 51.7099 103.892C51.6049 104.421 51.3741 104.918 51.0366 105.341C50.8162 105.623 50.5612 105.878 50.2774 106.098C50.1819 106.176 50.0793 106.254 49.979 106.335C49.1472 106.947 48.201 107.39 47.1952 107.637C46.5941 107.782 45.9736 107.831 45.3569 107.784C45.2256 107.772 45.099 107.755 44.9677 107.732C44.4864 107.652 44.0222 107.492 43.5949 107.258C42.383 108.437 40.9616 109.384 39.4026 110.052C38.9592 110.246 38.5048 110.414 38.0417 110.556C37.1905 110.824 36.3174 111.018 35.4323 111.136C34.5897 111.251 33.7401 111.309 32.8896 111.309C32.5649 111.309 32.2498 111.309 31.9346 111.285C29.968 111.184 28.0208 110.848 26.1355 110.284C25.5433 110.111 24.9607 109.907 24.3903 109.673C24.2386 109.616 24.1001 109.53 23.9832 109.418C23.8663 109.307 23.7736 109.173 23.7105 109.025C23.6475 108.877 23.6155 108.718 23.6165 108.557C23.6175 108.397 23.6515 108.238 23.7164 108.091C23.7813 107.943 23.8758 107.811 23.994 107.701C24.1123 107.591 24.2519 107.506 24.4043 107.452C24.5567 107.397 24.7187 107.374 24.8805 107.383C25.0423 107.393 25.2004 107.435 25.3453 107.507C27.831 108.507 30.4911 109.012 33.1737 108.993C34.3835 108.978 35.5867 108.813 36.7549 108.501C38.739 107.96 40.5483 106.919 42.0073 105.48C41.7488 104.884 41.6406 104.234 41.6921 103.586C41.7562 102.755 42.0005 101.948 42.4084 101.219C41.918 101.35 41.412 101.413 40.9043 101.408C41.4627 101.316 42.0062 101.15 42.5206 100.916C42.5429 100.906 42.5644 100.894 42.585 100.88C42.7235 100.656 42.8739 100.442 43.0291 100.236C43.5306 99.5842 44.1305 99.0125 44.8078 98.5415C45.0757 98.348 45.3547 98.1702 45.6434 98.0088C45.6744 97.9922 45.7102 97.9733 45.7389 97.9615C45.8821 97.7247 46.0134 97.488 46.14 97.2513C46.2665 97.0145 46.3787 96.7778 46.467 96.5245C45.5121 98.1343 44.0486 99.2067 42.3415 99.3251C39.6413 99.5073 37.2061 97.2465 36.3586 94.0246L39.553 92.4502L36.0649 90.8381C36.3228 87.3391 38.4786 84.5575 41.2911 84.3563C43.4708 84.2071 45.4762 85.6465 46.6175 87.9073C46.478 87.5183 46.3186 87.1367 46.14 86.7639C45.7981 86.0227 45.3642 85.3269 44.8484 84.6924C43.8409 83.4425 42.5015 82.4529 41.0284 82.1451C40.2913 81.9948 39.5309 81.9948 38.7938 82.1451C38.0483 82.3084 37.3425 82.6157 36.7167 83.0495C36.0585 83.4971 35.476 84.0453 34.9906 84.6735C34.4696 85.3164 34.034 86.0229 33.6942 86.7757C32.9493 88.2908 32.5769 89.9953 32.3572 91.7779C31.9284 89.9825 31.9695 88.1082 32.4766 86.333C33.0018 84.5456 33.9926 82.782 35.6185 81.5604C36.4299 80.9306 37.3714 80.486 38.376 80.2584C39.3907 80.046 40.4397 80.0541 41.451 80.282C42.4433 80.5117 43.3792 80.9359 44.2037 81.5296C45.014 82.095 45.726 82.7875 46.3119 83.5798C47.2277 84.8172 47.9044 86.2123 48.3078 87.6942C48.8901 89.8725 48.9164 92.1603 48.3842 94.3512C48.1317 95.4084 47.7256 96.4236 47.1785 97.3649C47.7647 97.1813 48.3788 97.1012 48.993 97.1282C49.603 97.1472 50.1977 97.3226 50.7191 97.6371C51.0596 97.8426 51.3447 98.1269 51.5499 98.4657L49.0479 89.1336L48.642 87.6185L48.1645 85.7932L47.7897 84.3918L46.8681 80.9686L46.5172 79.6476L45.5312 75.9711C44.8575 73.4523 44.8358 70.8057 45.4682 68.2765C46.1006 65.7472 47.3665 63.4172 49.1488 61.5022C50.931 59.5872 53.1718 58.1492 55.6636 57.3215C58.1555 56.4938 60.8177 56.3031 63.4036 56.7671C64.4232 56.952 65.4214 57.2384 66.3831 57.6217C66.7532 57.7637 67.1185 57.9294 67.4766 58.107C67.8347 58.2845 68.1331 58.4313 68.4507 58.616C70.0346 59.5265 71.4454 60.7051 72.6192 62.0984C74.0727 63.8286 75.1264 65.8536 75.7061 68.031L78.5472 78.5965L78.8265 79.6334C80.0055 84.0347 82.8995 87.7913 86.8718 90.0769C90.8441 92.3624 95.5693 92.9896 100.008 91.8205C104.447 90.6515 108.235 87.7818 110.54 83.843C112.845 79.9041 113.478 75.2187 112.299 70.8173L112.306 70.8268ZM32.6556 96.3351C32.7264 98.2019 32.2937 100.054 31.4022 101.7C30.9789 102.513 30.3909 103.231 29.6748 103.809C28.9588 104.386 28.1302 104.811 27.2409 105.056C28.8391 104.322 30.0889 103.003 30.729 101.375C31.0537 100.593 31.2682 99.77 31.3664 98.9297V98.9108C30.8722 100.722 29.731 102.137 28.1076 102.699C25.5458 103.563 22.6164 101.988 20.9452 99.0931L23.6359 96.7494L19.8494 96.0794C19.1857 92.6278 20.5656 89.3845 23.2228 88.4826C25.2832 87.7913 27.5823 88.6672 29.2655 90.5374C29.0451 90.2032 28.806 89.8815 28.5492 89.5739C28.0299 88.9432 27.4323 88.38 26.7706 87.8978C25.467 86.9509 23.9224 86.3283 22.4039 86.404C21.6562 86.4484 20.9253 86.6425 20.2552 86.9746C19.5777 87.3198 18.9769 87.7963 18.4885 88.376C17.9602 88.9713 17.5358 89.6498 17.2327 90.3836C16.8918 91.1386 16.651 91.9344 16.5165 92.7509C16.187 94.4081 16.2778 96.1481 16.5165 97.9259C16.1028 97.1564 15.7823 96.3411 15.5615 95.497C15.3106 94.5631 15.1941 93.5988 15.2153 92.6325C15.2631 90.7671 15.7716 88.7998 17.025 87.2208C17.6401 86.4042 18.4302 85.7331 19.3385 85.2559C20.263 84.7881 21.2806 84.5294 22.318 84.4983C23.3388 84.4654 24.3558 84.6385 25.3071 85.0073C26.2359 85.3454 27.1028 85.8316 27.8736 86.4466C29.6717 87.8969 31.035 89.8078 31.8153 91.972C32.3403 93.3693 32.6244 94.8443 32.6556 96.3351Z" fill="white"/>
<path fill-rule="evenodd" clip-rule="evenodd" d="M47.1641 94.0789C47.0385 94.9139 46.8125 95.7309 46.4909 96.5125C46.1784 97.3007 45.7565 98.0417 45.2375 98.7142C44.2014 100.127 42.6533 101.087 40.9186 101.392H40.866C39.713 101.461 38.5633 101.211 37.5451 100.67C34.7613 99.2492 32.6723 95.8426 32.3787 91.7636C32.6007 89.981 32.9707 88.2765 33.718 86.7614C34.0569 86.0081 34.4926 85.3015 35.0144 84.6592C35.4989 84.031 36.0807 83.4829 36.7381 83.0352C37.3645 82.601 38.0712 82.2936 38.8176 82.1308C39.554 81.9805 40.3135 81.9805 41.0499 82.1308C42.5373 82.4386 43.8742 83.4281 44.8841 84.6781C45.3992 85.3126 45.8323 86.0085 46.1733 86.7495C46.348 87.1226 46.5034 87.5043 46.6389 87.893C46.7535 88.2883 46.8967 88.6789 46.9803 89.0767C47.3754 90.7155 47.4378 92.4159 47.1641 94.0789Z" fill="white"/>
<path d="M27.2432 105.061C31.3421 103.676 33.1808 98.2338 31.3501 92.9046C29.5195 87.5753 24.7127 84.3774 20.6138 85.7618C16.5149 87.1463 14.6762 92.5887 16.5068 97.918C18.3375 103.247 23.1443 106.445 27.2432 105.061Z" fill="white"/>
<path d="M116.393 125.105C115.417 123.154 114.548 121.152 113.788 119.109C113.09 117.018 112.507 114.89 112.041 112.736C111.071 108.622 110.231 105.063 107.543 103.712C106.824 103.358 106.03 103.179 105.227 103.191C104.09 103.191 102.808 103.499 101.357 104.116C98.7832 105.21 94.8009 107.639 90.5656 110.783C91.437 107.632 91.9981 104.933 92.1962 103.068C92.5185 100.007 92.0602 97.9164 90.7399 96.4889C90.1375 95.8414 89.3817 95.3532 88.541 95.0684C86.655 94.3819 84.2436 94.4293 81.584 94.4766C79.5329 94.5513 77.4791 94.5023 75.434 94.3298C73.3947 94.0786 71.3728 93.7046 69.3794 93.2101C65.6359 92.346 62.3937 91.6003 60.0039 93.2929C58.4162 94.4127 57.5257 96.3705 57.2034 99.4267C56.9933 101.422 56.9885 104.448 57.2273 108.013L48.4319 75.185C48.0065 73.5964 47.9007 71.9402 48.1208 70.3111C48.3408 68.6819 48.8823 67.1117 49.7143 65.6901C50.5463 64.2684 51.6526 63.0232 52.9699 62.0255C54.2873 61.0278 55.7899 60.2972 57.392 59.8753C58.9941 59.4534 60.6643 59.3486 62.3073 59.5668C63.9503 59.7849 65.5338 60.3219 66.9675 61.1469C68.4012 61.9719 69.657 63.0689 70.6632 64.3751C71.6693 65.6814 72.4062 67.1714 72.8316 68.76L75.9544 80.4003C76.631 82.9584 77.8126 85.3581 79.431 87.4602C81.0493 89.5623 83.0722 91.3252 85.3825 92.6466C86.4852 93.2804 87.6449 93.8114 88.8466 94.2328C92.3286 95.4475 96.0787 95.6976 99.6934 94.9561C103.308 94.2145 106.65 92.5094 109.36 90.0244C112.07 87.5393 114.045 84.3684 115.073 80.853C116.101 77.3376 116.142 73.6108 115.192 70.0739L112.077 58.4265C109.501 48.8456 104.262 40.1753 96.9562 33.4048C89.6508 26.6342 80.5733 22.0359 70.7593 20.1344C72.8596 19.5239 74.6431 18.1368 75.7416 16.2598C76.8401 14.3827 77.1697 12.1591 76.6622 10.048C76.1548 7.93691 74.8492 6.09969 73.0149 4.91576C71.1806 3.73183 68.9579 3.29162 66.8057 3.68604C65.6023 3.90467 64.4615 4.38137 63.4633 5.08278L63.3081 4.99282C55.0356 0.404883 40.508 -2.74607 26.8255 3.47298C14.9957 8.84215 5.89713 20.6316 4.171 32.8117C3.56698 37.0729 3.94897 41.0832 5.25729 44.6484C0.0383267 49.4258 -1.28193 54.1392 1.23921 59.0301C2.58096 61.6342 4.82039 63.6725 7.8429 65.048C6.93648 71.8925 7.39479 78.8468 9.1918 85.5162L23.0772 137.361C13.9213 143.135 12.1236 150.685 14.5851 155.734C14.6059 155.789 14.6298 155.843 14.6567 155.895C15.2851 157.122 16.1637 158.205 17.2368 159.077C18.3099 159.949 19.5541 160.59 20.8903 160.959L21.0097 160.98C22.0615 161.27 23.1484 161.415 24.2399 161.411C25.9641 161.398 27.6726 161.084 29.287 160.483L46.0373 223.022C47.1834 227.311 49.7269 231.104 53.2723 233.811C56.8176 236.518 61.1659 237.988 65.6406 237.991C68.7521 237.993 71.8225 237.286 74.6146 235.925C77.4066 234.563 79.8454 232.583 81.7426 230.137C83.6397 227.692 84.9443 224.846 85.5556 221.821C86.1669 218.796 86.0684 215.672 85.2679 212.691L77.628 184.209C77.7355 184.209 77.8477 184.209 77.9551 184.209C79.304 184.209 80.5168 183.937 81.5625 183.198C83.155 182.093 84.0383 180.156 84.3726 177.078C84.6113 174.758 84.5827 171.046 84.2126 166.705C87.3354 169.927 90.2791 172.498 92.3299 173.847C94.0417 174.972 95.5721 175.528 96.964 175.528C97.4259 175.529 97.8856 175.465 98.3296 175.338C101.226 174.491 102.708 171.141 104.422 167.256C105.281 165.223 106.248 163.237 107.318 161.305C108.443 159.426 109.669 157.608 110.99 155.86C113.442 152.51 115.553 149.617 115.008 146.589C114.674 144.759 113.402 143.142 111.126 141.639C110.618 141.301 110.028 140.957 109.372 140.597C110.917 140.208 112.433 139.711 113.908 139.111C116.426 138.038 117.966 136.67 118.637 134.93C119.731 132.051 118.179 128.832 116.393 125.105ZM60.1065 100.539C60.1232 100.255 60.1471 99.9878 60.171 99.7392C60.3381 98.1697 60.6795 97.0097 61.1809 96.2805C61.3296 96.0584 61.5172 95.8643 61.7348 95.7076C62.2123 95.3762 62.8521 95.246 63.628 95.246C64.996 95.246 66.7699 95.6484 68.7109 96.0982C70.8205 96.6222 72.9605 97.0175 75.1188 97.2819C77.2866 97.4712 79.4642 97.5265 81.6389 97.4476C84.7617 97.3885 87.4667 97.334 88.541 98.494C89.2167 99.2303 89.4507 100.667 89.2286 102.755C89.1689 103.328 89.0663 103.986 88.935 104.72C88.3121 107.848 87.4965 110.936 86.4926 113.965L85.5376 114.781C83.5919 116.439 81.6867 118.19 79.9367 119.99C78.6197 121.329 77.3718 122.734 76.1979 124.199C74.7753 123.494 73.2164 123.1 71.6269 123.044C70.0374 122.988 68.4543 123.271 66.9848 123.874C65.2075 120.536 63.1561 117.348 60.8514 114.343C60.3739 110.676 60.1185 107.201 60.0468 104.36C60.0158 102.89 60.0349 101.6 60.1065 100.539ZM79.9558 135.34C79.9582 135.385 79.9582 135.431 79.9558 135.477V135.505C79.9571 135.879 79.9372 136.253 79.8961 136.625C79.8064 137.488 79.61 138.338 79.3112 139.153C79.2057 139.446 79.0837 139.733 78.9459 140.013C78.8694 140.183 78.7841 140.35 78.6904 140.512C78.5949 140.695 78.4923 140.872 78.3801 141.045C78.2234 141.306 78.0495 141.557 77.8596 141.795C77.703 142.009 77.5357 142.214 77.3582 142.411C77.0073 142.806 76.6214 143.169 76.2051 143.495C75.1192 144.378 73.8327 144.986 72.4568 145.266C71.7456 145.411 71.0174 145.454 70.2938 145.396C70.2043 145.397 70.1149 145.391 70.0264 145.377C69.7876 145.356 69.5489 145.318 69.3316 145.278C69.1144 145.237 68.9568 145.2 68.7706 145.148C68.2973 145.026 67.8374 144.858 67.3978 144.646C67.2552 144.586 67.1172 144.517 66.9848 144.437L66.4595 142.484C66.9609 142.334 67.4702 142.192 67.9875 142.058C68.1494 142.016 68.3088 141.964 68.465 141.904C68.5351 141.88 68.603 141.85 68.6679 141.814C69.2481 141.567 69.7694 141.202 70.1983 140.742C70.2582 140.686 70.3125 140.625 70.3606 140.56C70.8791 139.967 71.2366 139.253 71.3992 138.486C71.4466 138.28 71.4762 138.07 71.4875 137.858V137.847C71.507 137.678 71.511 137.507 71.4994 137.338C71.5003 137.008 71.4618 136.68 71.3848 136.36C71.3331 136.148 71.2653 135.939 71.1819 135.737C71.0525 135.391 70.8784 135.062 70.6638 134.76C70.5354 134.573 70.3933 134.396 70.2389 134.229C70.18 134.163 70.1162 134.101 70.0479 134.045C69.7845 133.786 69.4893 133.562 69.1693 133.377C68.9734 133.26 68.7682 133.158 68.5557 133.074C68.5557 133.015 68.5557 132.951 68.5366 132.892C68.5442 132.952 68.5481 133.013 68.5486 133.074C68.3614 132.999 68.1701 132.934 67.9756 132.88C67.6766 132.799 67.3704 132.747 67.0612 132.726C66.5887 132.695 66.1141 132.732 65.6526 132.837C65.5857 132.837 65.5213 132.868 65.4544 132.885L65.3303 132.92C64.8814 133.038 64.4326 133.157 63.9981 133.289L63.7164 132.241L63.3773 130.979C63.881 130.034 64.5339 129.175 65.3112 128.434C65.4019 128.344 65.4902 128.268 65.581 128.183C65.6215 128.148 65.6645 128.107 65.7123 128.072C66.0866 127.754 66.4858 127.467 66.906 127.212C67.3302 126.956 67.7759 126.737 68.2382 126.557C69.188 126.19 70.1983 126.001 71.2177 126C71.5042 126 71.7835 126 72.0724 126.041C73.3711 126.181 74.6175 126.626 75.7085 127.338C76.1108 127.601 76.4916 127.896 76.8473 128.219C77.7843 129.086 78.534 130.133 79.0509 131.296C79.2182 131.657 79.3602 132.029 79.4759 132.409C79.5563 132.65 79.624 132.895 79.6788 133.143C79.8532 133.866 79.9461 134.606 79.9558 135.349V135.34ZM61.9616 121.135C62.864 122.556 63.6877 123.948 64.3992 125.304C64.1214 125.503 63.8544 125.717 63.5994 125.944C63.449 126.074 63.3009 126.211 63.1577 126.353C62.8787 126.617 62.6134 126.896 62.3627 127.186L59.9442 118.138C60.6413 119.156 61.3241 120.162 61.9616 121.157V121.135ZM67.3548 6.59316C67.692 6.53231 68.0339 6.50063 68.3767 6.49846C69.1396 6.50078 69.8939 6.65925 70.5923 6.96395C71.2907 7.26865 71.9181 7.71302 72.4353 8.26925C72.9903 8.85683 73.4085 9.55803 73.6603 10.3234C73.9122 11.0887 73.9916 11.8995 73.893 12.6986C73.7943 13.4976 73.52 14.2655 73.0894 14.948C72.6588 15.6305 72.0825 16.211 71.4009 16.6485C70.7194 17.086 69.9494 17.3699 69.1451 17.4801C68.3409 17.5903 67.5221 17.5241 66.7464 17.2863C65.9708 17.0484 65.2572 16.6447 64.6561 16.1036C64.055 15.5624 63.581 14.8971 63.2675 14.1545C63.7856 14.2137 64.2583 14.2658 64.7119 14.3013C66.5431 14.4552 67.8395 14.3841 68.7181 13.5035C69.2958 12.9211 69.5298 12.1233 69.4104 11.1361C69.2123 9.5855 67.8228 8.10353 66.2685 6.91512C66.6182 6.77028 66.9823 6.66237 67.3548 6.59316ZM64.0124 19.2751C63.3917 19.2396 62.7662 19.2112 62.143 19.1993C60.822 19.0714 59.4909 19.0849 58.1727 19.2396H58.1488C56.4299 19.3232 54.7101 19.4889 52.9896 19.7367C52.2716 19.537 51.5387 19.3945 50.7979 19.3106C50.7453 18.4729 50.4887 17.6603 50.05 16.9425C49.6113 16.2246 49.0037 15.623 48.2791 15.189C52.8153 13.7165 56.8119 13.6384 60.0492 13.8586C60.5128 15.9508 61.767 17.7874 63.554 18.991C63.7006 19.094 63.8528 19.1888 64.01 19.2751H64.0124ZM7.13144 33.2212C7.33881 31.7716 7.65807 30.3398 8.08642 28.9387C10.9609 19.4124 18.6939 10.4164 28.0694 6.1552C32.8179 4.0201 37.9752 2.92672 43.1891 2.94979C50.2583 2.94979 56.7068 4.86262 61.2931 7.27969C61.4841 7.37912 61.6703 7.48092 61.8541 7.58035C62.112 7.72239 62.3627 7.86443 62.5966 8.00647C62.6969 8.06565 62.7996 8.12484 62.8951 8.18639C63.2413 8.40419 63.5564 8.61251 63.8501 8.81847C65.5451 10.0022 66.2852 10.9633 66.4285 11.4013C65.7958 11.4486 64.5185 11.3113 63.4442 11.2C63.2651 11.1811 63.0789 11.1574 62.8951 11.1409C62.7112 11.1243 62.494 11.0982 62.2863 11.0746C61.9974 11.0509 61.7061 11.0225 61.4005 10.9917C60.923 10.9515 60.4288 10.916 59.9036 10.8804C55.4653 10.6248 49.4824 10.916 42.7593 14.2539L35.9503 17.6345L43.5472 17.045C44.1846 16.993 46.2402 17.0806 47.2191 18.1056C47.6727 18.5791 47.8709 19.2254 47.8279 20.0942C47.7157 20.2126 47.5891 20.3309 47.4889 20.4446C47.3265 20.6174 47.1522 20.7878 46.9803 20.9536L46.7965 21.1311C46.319 21.588 45.8177 22.026 45.3044 22.445C44.9988 22.7007 44.6884 22.9563 44.3709 23.2049C44.3219 23.2492 44.27 23.2903 44.2157 23.328C44.2137 23.3329 44.2104 23.3373 44.2063 23.3406C44.2021 23.3439 44.1971 23.3461 44.1918 23.347C44.0414 23.4653 43.8981 23.5719 43.743 23.6855L43.6475 23.7565C43.1533 24.1471 42.6209 24.4951 42.0956 24.8455C39.8343 26.3535 37.4469 27.6667 34.9595 28.7706C33.687 29.2867 32.4336 29.8596 31.1205 30.2762C30.7027 30.4111 30.2897 30.565 29.8647 30.7071C29.626 30.7899 29.3872 30.8681 29.1485 30.932L27.1526 31.5072C26.8374 31.5948 26.5318 31.6966 26.1976 31.7724C26.1794 31.7691 26.1608 31.7691 26.1427 31.7724L26.0544 31.789L25.1352 31.9949L23.0939 32.4684C21.7259 32.7548 20.3412 32.9419 18.9541 33.2212C20.3579 33.2212 21.7737 33.2046 23.1823 33.1383L23.5953 33.1028L24.6887 33.001L25.2928 32.949L26.348 32.8472C26.6584 32.8188 26.9759 32.7596 27.2791 32.7122C27.112 32.8543 26.952 32.9892 26.7849 33.1383C27.112 32.9726 27.4415 32.8069 27.7709 32.6341L29.5066 32.3548C29.7931 32.3027 30.0748 32.2435 30.3565 32.1772C30.7696 32.0872 31.1754 31.9807 31.5861 31.8931C32.2665 31.7511 32.9374 31.5735 33.5987 31.377C34.3149 31.1711 35.0073 30.9462 35.7187 30.7378C38.4455 29.8017 41.0719 28.5995 43.5591 27.1489C44.1799 26.7773 44.8006 26.3985 45.3927 25.9653C45.3927 25.9653 45.3927 25.9653 45.4046 25.9653C46.0086 25.5675 46.5984 25.1343 47.1666 24.6916C47.4602 24.4785 47.7348 24.2347 48.0141 23.998C48.1645 23.8749 48.3125 23.7447 48.4558 23.6145C48.5799 23.5008 48.6945 23.3777 48.8306 23.2712C48.9667 23.1647 49.1004 23.0345 49.2317 22.8972C49.3702 22.7646 49.5015 22.6344 49.6328 22.4994C49.7641 22.3645 49.831 22.2982 49.9193 22.1964C50.1938 22.2154 50.5448 22.2509 50.9578 22.3148C51.5713 22.4155 52.1751 22.5675 52.7627 22.7693C52.9005 22.8076 53.036 22.8535 53.1686 22.9066C53.3357 22.9658 53.5076 23.0368 53.6748 23.1078C55.0185 23.6701 56.1929 24.5671 57.084 25.7119C57.2225 25.8895 57.3538 26.0741 57.4803 26.2683C58.0197 27.1146 58.415 28.0432 58.6502 29.0168C58.3685 29.3293 57.9698 29.7672 57.4374 30.3141C57.1748 30.5816 56.8811 30.8704 56.5659 31.1782C51.7648 35.9129 40.2645 45.5149 23.1417 49.3619C23.1417 49.3619 23.1417 49.3619 23.1297 49.3619C20.8921 49.8643 18.6298 50.2515 16.3518 50.5219H16.316C15.9531 50.5621 15.5997 50.6047 15.2177 50.6402C14.6495 50.6994 14.0837 50.7515 13.5035 50.7941C13.3197 50.8107 13.1335 50.8225 12.9496 50.8344C12.6846 50.5976 12.4292 50.349 12.1785 50.1005C10.8343 48.7428 9.71583 47.1822 8.86473 45.477C8.63344 45.0225 8.42624 44.5563 8.24399 44.0803C8.0456 43.5936 7.8719 43.0974 7.72352 42.5936C6.86882 39.7385 6.66111 36.5781 7.13144 33.2212ZM9.73614 62.6498C9.25865 62.4415 8.78116 62.2284 8.34426 61.9917C6.32687 60.9264 4.82039 59.4752 3.90122 57.6879C2.94624 55.8271 2.74808 54.0871 3.31152 52.3163C3.31152 52.3163 3.31152 52.3163 3.31152 52.3045V52.2524C3.80811 50.6876 4.88723 49.118 6.53696 47.5035C7.67678 49.5831 9.1628 51.4568 10.9323 53.0455C11.1042 53.1922 11.2784 53.3461 11.4503 53.4953L11.9111 53.8859L12.2143 53.8669L12.5008 53.8504C12.9568 53.8196 13.4033 53.7912 13.8449 53.7557C16.1321 53.5789 18.3397 53.3027 20.4677 52.9271C21.714 52.7188 22.9268 52.4702 24.1205 52.2027H24.1325C26.7779 51.602 29.3862 50.8503 31.9442 49.9513C36.1189 48.4857 40.1484 46.6417 43.9817 44.4425C47.8304 42.2368 51.4687 39.6885 54.8518 36.8291C56.7187 35.2429 58.1942 33.8201 59.2876 32.7075C60.1232 31.8434 60.7201 31.1687 61.0735 30.7591C61.2048 30.61 61.3003 30.4987 61.3552 30.4277C61.3862 30.3922 61.4101 30.3614 61.422 30.3449L61.8518 29.8098L61.7252 29.147C61.5974 28.4684 61.4203 27.7998 61.1952 27.1466C60.9933 26.5585 60.7417 25.9883 60.4432 25.4421C59.7924 24.2272 58.916 23.1453 57.8599 22.2532C58.0462 22.2248 58.23 22.2059 58.4162 22.1893C58.994 22.1585 59.567 22.1467 60.1423 22.142C60.3333 22.142 60.5196 22.142 60.7106 22.142C60.9971 22.142 61.2836 22.142 61.57 22.142C62.7325 22.2286 63.8626 22.5621 64.8838 23.1197C65.8818 23.6869 66.6915 24.5301 67.214 25.5462C67.2327 25.5722 67.2487 25.5999 67.2617 25.6291C68.099 27.3084 68.4305 29.1914 68.2167 31.0527C68.172 31.5868 68.0923 32.1174 67.978 32.6412C67.7704 33.6107 67.4805 34.561 67.1113 35.482C67.1113 35.482 67.1113 35.482 67.1113 35.4939C66.8964 36.0305 66.6513 36.575 66.376 37.1273C66.0417 37.8044 65.6717 38.4909 65.2539 39.1704C64.5402 40.3412 63.754 41.4671 62.8998 42.5415C59.7365 46.566 55.3054 50.5692 49.967 54.0279C48.7112 54.8454 47.4069 55.629 46.054 56.3787C45.3139 56.7859 44.5619 57.1907 43.7979 57.5742C39.6101 59.7106 35.2009 61.3902 30.6478 62.5835C26.4316 63.6678 22.3347 64.2123 18.5506 64.1697C17.3098 64.1563 16.0709 64.0694 14.8405 63.9093C13.5995 63.7485 12.3738 63.4872 11.1758 63.128C10.6983 62.9742 10.2208 62.8085 9.76002 62.6262L9.73614 62.6498ZM22.8862 125.105L19.5438 112.594L16.1536 99.9286L14.9909 95.6413L14.936 95.452L14.4299 93.5581L13.4319 89.8342L13.026 88.3025L12.0711 84.7515C10.433 78.671 9.97368 72.3376 10.7174 66.0872C11.9758 66.4527 13.2621 66.7163 14.5636 66.8756C15.8683 67.0456 17.1822 67.1373 18.4981 67.1502C18.6724 67.1502 18.8443 67.1502 19.0185 67.1502C22.6447 67.1209 26.2559 66.6858 29.7836 65.8529C35.1158 64.6055 40.2744 62.7166 45.1444 60.228C46.3142 59.6362 47.4547 59.0207 48.5656 58.3815C52.5964 56.0962 56.3679 53.3882 59.8153 50.3041C61.1172 49.1204 62.3213 47.9186 63.4275 46.6986C64.3992 45.6214 65.2969 44.5301 66.1014 43.4364C66.5439 42.8398 66.9585 42.2401 67.3453 41.6372C68.1865 40.3402 68.9249 38.9804 69.5537 37.57C69.7924 37.0303 70.0025 36.4905 70.1935 35.9579C70.7086 34.5349 71.0492 33.0558 71.2082 31.5522C71.2392 31.2397 71.2559 30.932 71.2679 30.6053C71.2679 30.4325 71.2679 30.262 71.2679 30.0892C71.2764 28.7016 71.0587 27.3218 70.6232 26.0031C70.4307 25.4146 70.1912 24.8423 69.907 24.2915C69.6458 23.7806 69.3398 23.2935 68.9926 22.8356C78.5082 24.4203 87.3611 28.692 94.4907 35.1388C101.62 41.5857 106.724 49.9342 109.19 59.184L112.308 70.8267C112.919 73.0144 113.087 75.3006 112.801 77.553C112.515 79.8054 111.782 81.9792 110.644 83.9488C109.505 85.9183 107.984 87.6444 106.168 89.0272C104.353 90.4101 102.279 91.4222 100.066 92.005C97.8533 92.5878 95.546 92.7298 93.2777 92.4227C91.0094 92.1156 88.8249 91.3655 86.8508 90.2158C84.8767 89.0662 83.1522 87.5398 81.7768 85.7249C80.4015 83.9101 79.4028 81.8428 78.8385 79.6427L78.5472 78.5964L75.7109 67.9977C75.1321 65.82 74.0783 63.7948 72.6239 62.0651C71.9324 61.2386 71.1536 60.4878 70.3009 59.8256C69.7183 59.3657 69.1014 58.9502 68.4554 58.5827C68.1403 58.3981 67.8108 58.2276 67.4838 58.0737C67.1567 57.9199 66.7675 57.7305 66.3903 57.5884C63.7611 56.5478 60.8955 56.2377 58.1018 56.6916C55.3081 57.1454 52.6921 58.346 50.5353 60.1641C48.2846 62.0567 46.6208 64.5428 45.7364 67.3345C44.8521 70.1261 44.7834 73.1091 45.5383 75.9378L46.522 79.6143L46.8753 80.9353L47.7945 84.3585L48.1717 85.76L48.6492 87.5852L49.055 89.1003L51.569 98.4372C51.364 98.099 51.0799 97.8148 50.7406 97.6086C50.219 97.2944 49.6244 97.119 49.0145 97.0996C48.3995 97.0724 47.7845 97.1525 47.1976 97.3364C47.7454 96.3952 48.1524 95.38 48.4057 94.3227C48.9383 92.1318 48.9112 89.8437 48.3269 87.6657C47.9242 86.1895 47.2491 84.8 46.3357 83.5678C45.7493 82.7761 45.0373 82.0837 44.2276 81.5177C43.4031 80.924 42.4672 80.4998 41.4749 80.2701C40.4636 80.0421 39.4146 80.034 38.3999 80.2464C37.3948 80.4746 36.4526 80.9191 35.64 81.5485C34.0165 82.7629 33.0257 84.5337 32.4981 86.3211C31.9923 88.0965 31.9512 89.9704 32.3787 91.766C32.6007 89.9834 32.9708 88.2789 33.7181 86.7637C34.0569 86.0105 34.4927 85.3039 35.0145 84.6615C35.499 84.0334 36.0808 83.4852 36.7382 83.0375C37.3646 82.6033 38.0712 82.296 38.8177 82.1332C39.554 81.9828 40.3136 81.9828 41.0499 82.1332C42.5373 82.441 43.8743 83.4305 44.8842 84.6805C45.3993 85.315 45.8324 86.0109 46.1734 86.7519C46.348 87.125 46.5034 87.5066 46.6389 87.8953C45.5001 85.6393 43.4923 84.1999 41.3125 84.3443C38.5001 84.5455 36.3443 87.3272 36.0888 90.8261L39.5745 92.4383L36.3801 94.0126C37.2276 97.2346 39.6652 99.4954 42.363 99.3131C44.0724 99.1947 45.5407 98.1294 46.4909 96.5125C46.3954 96.7611 46.2808 97.0026 46.1614 97.2393C46.0421 97.476 45.906 97.7128 45.7627 97.9495C45.7298 97.9629 45.6978 97.9788 45.6672 97.9969C45.3781 98.1588 45.0983 98.3366 44.8293 98.5295C44.1525 99.0011 43.5527 99.5728 43.0506 100.225C42.8954 100.431 42.7474 100.644 42.6089 100.868C42.5883 100.882 42.5668 100.894 42.5445 100.904C42.0293 101.138 41.4849 101.304 40.9258 101.396C41.4335 101.402 41.9396 101.338 42.4299 101.207C42.0262 101.937 41.786 102.744 41.7256 103.574C41.6758 104.222 41.7847 104.872 42.0431 105.468C40.5845 106.908 38.7751 107.948 36.7907 108.489C35.6264 108.8 34.4273 108.966 33.2215 108.981C30.5321 108.997 27.8661 108.486 25.3763 107.478C25.2315 107.406 25.0733 107.364 24.9115 107.355C24.7498 107.345 24.5877 107.368 24.4353 107.423C24.2829 107.478 24.1433 107.563 24.0251 107.672C23.9068 107.782 23.8123 107.915 23.7474 108.062C23.6825 108.209 23.6485 108.368 23.6475 108.529C23.6465 108.69 23.6785 108.849 23.7415 108.997C23.8046 109.145 23.8974 109.279 24.0143 109.39C24.1311 109.501 24.2696 109.588 24.4213 109.644C24.9907 109.879 25.5725 110.083 26.1642 110.255C28.0482 110.823 29.9946 111.162 31.9609 111.266C32.2713 111.282 32.5888 111.29 32.9159 111.29C33.7672 111.29 34.6175 111.232 35.4609 111.117C36.3459 110.998 37.219 110.804 38.0704 110.537C38.5332 110.394 38.9876 110.226 39.4312 110.033C40.9884 109.366 42.4081 108.419 43.6188 107.241C44.0461 107.475 44.5103 107.635 44.9916 107.715C45.1229 107.739 45.2494 107.755 45.3808 107.767C45.9975 107.815 46.618 107.765 47.2191 107.62C48.2247 107.373 49.1708 106.93 50.0029 106.318C50.1031 106.235 50.2058 106.157 50.3013 106.081C50.5844 105.861 50.8386 105.607 51.0581 105.324C51.3963 104.901 51.6279 104.404 51.7338 103.875C51.7782 103.624 51.7902 103.369 51.7696 103.115C51.5786 103.21 51.3995 103.304 51.2324 103.394C50.7739 103.644 50.3285 103.917 49.8978 104.211C49.6591 104.365 49.4418 104.519 49.215 104.673C49.0312 104.796 48.8449 104.91 48.6492 105.028C48.0803 105.345 47.4597 105.562 46.8156 105.667C46.5163 105.719 46.2118 105.737 45.9084 105.719C45.6377 105.705 45.3706 105.652 45.1157 105.561C44.955 105.504 44.8019 105.429 44.6597 105.336C44.1536 104.981 43.9029 104.424 43.9435 103.679C43.9638 103.396 44.0159 103.116 44.0987 102.845C44.1796 102.595 44.2793 102.351 44.3971 102.116C44.4589 101.99 44.5283 101.867 44.6048 101.749C44.6615 101.65 44.7237 101.553 44.7911 101.46C45.292 100.74 45.9283 100.123 46.6652 99.6422C46.6891 99.6232 46.7129 99.6114 46.7368 99.5948C47.0694 99.3913 47.4193 99.217 47.7825 99.074L47.8422 99.0503C48.2461 98.9085 48.6614 98.8008 49.0837 98.7284C49.4436 98.6688 49.8075 98.6356 50.1724 98.6289C50.7014 98.6266 51.2254 98.7313 51.7123 98.9367L52.3688 101.401L52.758 102.845L53.5148 105.669L54.3576 108.809L54.6679 109.976L55.217 112.023L55.9333 114.753L60.2044 130.681L60.4432 131.571L60.4957 131.784L60.8538 133.117L60.9207 133.353C60.9029 133.417 60.8886 133.482 60.8777 133.547C60.8371 133.744 60.8061 133.945 60.7774 134.146C60.7738 134.17 60.7738 134.194 60.7774 134.217C60.522 134.293 60.2713 134.376 60.0206 134.454C59.7532 134.544 59.4834 134.632 59.2208 134.715C58.8675 134.833 58.5165 134.951 58.1703 135.077C56.3893 135.688 54.699 136.327 53.0755 136.99C52.5503 137.203 52.037 137.42 51.5284 137.641C50.7764 137.96 50.0315 138.292 49.3009 138.63L48.8044 138.867C48.2672 139.104 47.7372 139.371 47.2095 139.632L46.0564 140.2H46.0277C46.011 140.212 45.9925 140.222 45.9728 140.228C44.5284 140.957 43.1079 141.715 41.6969 142.496C40.2477 143.292 38.8129 144.113 37.3565 144.965L37.304 145.001C37.304 145.001 37.304 145.001 37.304 145.013C37.301 145.011 37.2978 145.01 37.2945 145.01C37.2912 145.01 37.2879 145.011 37.2849 145.013C36.8671 145.249 36.4421 145.505 36.0196 145.758C34.8664 146.44 33.6966 147.138 32.5005 147.849C32.3214 147.962 32.1376 148.069 31.9514 148.18L30.3112 149.163L29.5042 149.636L29.1628 148.358L28.6328 146.374L28.3391 145.294L27.9404 143.803L27.7542 143.093L25.8443 136.012L25.7846 135.775L22.8862 125.105ZM23.2252 151.591C23.0056 151.106 23.3685 149.354 25.7273 147.245L26.7897 151.22C25.3572 151.906 24.2232 152.001 23.6024 151.828C23.4576 151.8 23.3269 151.723 23.2324 151.61C23.2324 151.61 23.2252 151.599 23.2252 151.591ZM31.1802 156.312L31.0298 156.4C30.655 156.636 30.273 156.833 29.8886 157.022C29.8676 157.029 29.8476 157.039 29.8289 157.051C29.3872 157.264 28.9456 157.46 28.5039 157.626C26.157 158.516 23.8579 158.698 21.8453 158.142C19.9592 157.597 18.3238 156.378 17.4381 154.754C17.3975 154.688 17.3617 154.624 17.3258 154.553C15.4326 150.822 16.877 145.119 23.8746 140.37L24.4118 142.378C24.5226 142.913 24.6644 143.441 24.8368 143.959L24.8726 144.096C20.802 147.21 19.5056 150.564 20.4964 152.778C20.5202 152.83 20.5393 152.884 20.568 152.936C20.5966 152.988 20.6396 153.066 20.6754 153.126C21.1501 153.901 21.9148 154.458 22.8027 154.676C24.1635 155.062 25.818 154.861 27.5656 154.12C27.9818 153.948 28.3869 153.75 28.7784 153.528C28.8262 153.504 28.8739 153.476 28.9288 153.445C28.9838 153.414 29.0888 153.358 29.1676 153.31L30.0868 152.766L30.2658 152.657C30.6478 152.42 31.025 152.214 31.3951 151.989C31.8606 151.71 32.2951 151.438 32.7511 151.184L33.2597 150.877L33.4387 150.77C34.3269 150.235 35.2023 149.709 36.0649 149.193C36.2129 149.106 36.3634 149.023 36.5066 148.933C38.0895 147.986 39.6342 147.086 41.1765 146.21C43.022 145.162 44.8555 144.16 46.7297 143.209C47.2358 142.948 47.7515 142.693 48.2648 142.437C49.4585 141.857 50.6522 141.296 51.8889 140.751C52.3664 140.538 52.8559 140.33 53.3524 140.122C53.5005 140.062 53.6389 140.003 53.787 139.937L54.379 139.7C55.334 139.314 56.3081 138.936 57.3108 138.569C57.8241 138.379 58.3494 138.19 58.8746 138.005C59.0059 137.958 59.1372 137.918 59.2685 137.875C59.746 137.709 60.2235 137.544 60.7153 137.402C60.9541 137.319 61.1928 137.243 61.4316 137.165H61.496C61.6345 137.125 61.7228 137.077 61.8661 137.035C61.9616 136.999 62.0642 136.971 62.1597 136.94C62.537 136.822 62.9118 136.703 63.2938 136.597C63.4132 136.561 63.5325 136.521 63.6591 136.49L64.7215 136.187C64.8599 136.147 65.0032 136.104 65.1464 136.069C65.2348 136.04 65.3303 136.017 65.4258 135.993C65.6645 135.915 65.9319 135.851 66.1898 135.78C66.3079 135.747 66.4299 135.728 66.5527 135.725H66.5646C66.5863 135.718 66.6097 135.718 66.6314 135.725C66.6685 135.718 66.7066 135.718 66.7436 135.725C67.0481 135.731 67.3456 135.817 67.6055 135.974C67.7876 136.081 67.9492 136.219 68.083 136.381C68.1021 136.395 68.1183 136.413 68.1308 136.433C68.2784 136.627 68.3841 136.848 68.4411 137.084C68.5068 137.357 68.5068 137.641 68.4411 137.913C68.4255 137.978 68.4056 138.042 68.3814 138.105C68.3682 138.145 68.3523 138.185 68.3337 138.223C68.1475 138.651 67.8008 138.991 67.3668 139.17C67.2995 139.199 67.23 139.223 67.1591 139.241C67.0015 139.281 66.8415 139.324 66.6816 139.371C66.364 139.454 66.0537 139.542 65.7505 139.632C65.7113 139.637 65.6729 139.646 65.6359 139.66C65.1584 139.797 64.6809 139.939 64.2034 140.081L64.1915 140.022C64.1686 140.048 64.1486 140.075 64.1318 140.105C63.7856 140.204 63.4442 140.306 63.1099 140.418C63.0025 140.448 62.8903 140.484 62.7829 140.519C62.4486 140.621 62.1192 140.728 61.7968 140.839L61.6775 140.874C61.2 141.035 60.7225 141.194 60.2569 141.348C60.0898 141.407 59.9275 141.459 59.7675 141.518L59.5145 141.608C58.5069 141.968 57.5209 142.335 56.5659 142.714H56.5421C56.5421 142.714 56.5421 142.714 56.5301 142.714C55.9094 142.962 55.3006 143.206 54.6966 143.46C52.2423 144.497 49.9384 145.59 47.687 146.774C47.5247 146.852 47.3695 146.935 47.2095 147.011C45.7245 147.792 44.2539 148.597 42.7808 149.437C42.0336 149.859 41.2934 150.289 40.5414 150.73C39.3286 151.44 38.1038 152.167 36.8504 152.92C36.3371 153.223 35.8166 153.535 35.2914 153.85C34.9381 154.063 34.5752 154.269 34.2218 154.489C34.0022 154.619 33.7921 154.75 33.5724 154.873L32.51 155.536C32.0922 155.772 31.6625 156.033 31.2327 156.293C31.2147 156.298 31.1971 156.304 31.1802 156.312ZM78.0984 197.483L82.379 213.458C83.5386 217.766 82.9618 222.354 80.7706 226.248C78.5795 230.143 74.946 233.039 70.6393 234.324C66.3326 235.609 61.6906 235.182 57.6959 233.133C53.7012 231.084 50.6674 227.574 49.2365 223.346C49.1123 222.996 48.9977 222.636 48.9094 222.274L47.9544 218.723L47.0806 215.453L45.9776 211.337L44.9438 207.482L35.6591 172.803L34.9046 170.002L34.1717 167.259L32.023 159.252C32.202 159.158 32.3739 159.058 32.5554 158.952C32.7941 158.814 33.009 158.684 33.2286 158.549C33.8565 158.182 34.4653 157.815 35.0694 157.453L36.8719 156.376C36.8883 156.364 36.9059 156.354 36.9244 156.345C38.0179 155.69 39.089 155.051 40.1379 154.428C42.1863 153.213 44.1751 152.06 46.1758 150.952C46.9517 150.526 47.7348 150.105 48.5226 149.695C50.7668 148.512 53.0588 147.404 55.4916 146.381C56.7378 145.841 58.0223 145.325 59.3593 144.823C59.7556 144.681 60.1543 144.532 60.553 144.385L61.4602 144.07C61.5915 144.023 61.73 143.976 61.8613 143.935C62.3579 143.763 62.8632 143.598 63.3773 143.438C63.4203 143.49 63.4609 143.538 63.5039 143.585C63.5468 143.632 63.64 143.734 63.7068 143.805L64.3872 146.35L64.8767 148.175L65.3374 149.88L65.7958 151.61L69.7136 166.129L71.1938 171.66L72.3876 176.117L73.5813 180.577L74.0158 182.187L74.4408 183.792L75.3838 187.31L75.7539 188.688L76.5298 191.579L77.3272 194.597L78.0984 197.483ZM81.4647 175.975C81.4479 176.259 81.4241 176.52 81.4002 176.768C81.2331 178.345 80.8917 179.505 80.3855 180.227C80.2404 180.451 80.0541 180.646 79.8364 180.802C79.1536 181.276 78.1103 181.347 76.8258 181.193L76.0308 178.238L74.849 173.821L68.1379 148.767C68.2931 148.566 68.4363 148.365 68.5796 148.164C68.9566 148.243 69.3375 148.302 69.7208 148.341C70.0359 148.372 70.3463 148.388 70.6567 148.396C73.0107 153.244 76.864 158.49 80.832 163.021C81.4647 168.243 81.6676 173.004 81.4647 175.975ZM109.472 144.108C111.036 145.138 111.89 146.121 112.069 147.115C112.399 148.905 110.625 151.319 108.577 154.127C107.19 155.958 105.906 157.864 104.73 159.835C103.606 161.858 102.591 163.94 101.691 166.07C100.273 169.266 99.0506 172.038 97.494 172.495C96.6631 172.732 95.4814 172.358 93.982 171.375C91.2938 169.609 87.45 166.011 83.6754 161.752C83.0786 161.073 82.4817 160.374 81.8825 159.662C81.2331 158.892 80.6004 158.106 79.9725 157.318C77.5373 154.215 75.3385 150.995 73.7651 148.017C75.0285 147.679 76.2243 147.13 77.3009 146.393C77.7369 146.101 78.1517 145.779 78.5424 145.429C78.657 145.332 78.7692 145.233 78.8767 145.126C79.1703 144.847 79.4496 144.551 79.7194 144.243C80.177 143.72 80.5883 143.16 80.949 142.567C81.2238 142.129 81.471 141.674 81.6891 141.206C81.9009 140.751 82.0866 140.285 82.2453 139.809C82.555 138.878 82.7631 137.917 82.8661 136.942C82.92 136.471 82.9463 135.996 82.9449 135.522C88.1686 136.055 94.2423 137.652 99.4183 139.501C100.385 139.849 101.328 140.212 102.219 140.562C103.109 140.912 103.962 141.272 104.757 141.627C106.392 142.329 107.969 143.159 109.472 144.108ZM115.837 133.881C115.785 134.027 115.715 134.166 115.629 134.296C115.163 135.077 114.197 135.766 112.726 136.393C112.535 136.476 112.332 136.552 112.124 136.63C109.839 137.45 107.493 138.094 105.108 138.554C98.7999 135.86 89.9568 133.209 82.6178 132.556C82.5414 132.212 82.4507 131.876 82.3432 131.549C82.1522 130.926 81.9127 130.318 81.627 129.731C81.3713 129.2 81.0743 128.69 80.7389 128.204C80.1553 127.325 79.4542 126.529 78.6546 125.837C79.9282 124.291 81.283 122.813 82.7133 121.408C83.2863 120.84 83.8712 120.276 84.4752 119.72C85.2511 118.991 86.039 118.285 86.8507 117.589C87.5813 116.95 88.3198 116.328 89.0663 115.724C90.0953 114.883 91.1267 114.066 92.1485 113.307C95.2951 110.939 98.3344 108.955 100.772 107.682C101.405 107.35 101.99 107.066 102.534 106.837C103.608 106.38 104.504 106.155 105.208 106.155C105.549 106.145 105.889 106.214 106.199 106.356C107.645 107.085 108.331 110.016 109.13 113.413C109.622 115.667 110.237 117.894 110.971 120.082C111.763 122.23 112.674 124.333 113.7 126.381C115.192 129.495 116.489 132.182 115.837 133.881Z" fill="#161621"/>
<path d="M28.1099 102.689C29.7334 102.138 30.8746 100.722 31.3712 98.9015V98.9204C31.2721 99.7608 31.0568 100.584 30.7313 101.366C30.0921 102.994 28.8421 104.313 27.2433 105.047C28.1327 104.801 28.9614 104.376 29.6778 103.799C30.3942 103.221 30.9829 102.503 31.407 101.69C32.2974 100.044 32.73 98.1925 32.6604 96.3258C32.6307 94.8353 32.3482 93.3603 31.8248 91.9627C31.0445 89.7985 29.6813 87.8876 27.8831 86.4373C27.1087 85.8247 26.2386 85.3417 25.3071 85.0074C24.3565 84.6392 23.3404 84.4661 22.3204 84.4985C21.2861 84.5236 20.2711 84.7807 19.3515 85.2506C18.4318 85.7205 17.6315 86.3909 17.0107 87.2115C15.7573 88.7905 15.2511 90.7625 15.2034 92.6232C15.181 93.5895 15.2976 94.554 15.5496 95.4877C15.7692 96.3322 16.0898 97.1476 16.5045 97.9166C16.2658 96.1388 16.1775 94.394 16.5045 92.7416C16.638 91.9248 16.8788 91.129 17.2208 90.3742C17.5239 89.641 17.9474 88.9627 18.4742 88.3667C18.9635 87.787 19.565 87.3104 20.2433 86.9653C20.9132 86.633 21.6442 86.4389 22.392 86.3947C23.908 86.319 25.4551 86.9416 26.7562 87.8885C27.4181 88.3713 28.0165 88.9344 28.5373 89.5646C28.7981 89.8719 29.0412 90.1936 29.2655 90.5281C27.5823 88.6579 25.2832 87.782 23.2228 88.4733C20.5537 89.3752 19.1856 92.6185 19.847 96.0701L23.6358 96.7495L20.95 99.0838C22.6092 101.984 25.5458 103.553 28.1099 102.689Z" fill="#161621"/>
</g>
<defs>
<clipPath id="clip0_1932_1612">
<rect width="119" height="238" fill="white"/>
</clipPath>
</defs>
</svg>
