<svg width="318" height="269" viewBox="0 0 318 269" fill="none" xmlns="http://www.w3.org/2000/svg">
<g clip-path="url(#clip0_1932_1284)">
<path d="M256.672 222.888V225.434C252.86 224.412 248.844 224.412 245.032 225.434V222.888H256.672Z" fill="white"/>
<path d="M103.996 222.888V225.434C100.184 224.412 96.1676 224.412 92.3555 225.434V222.888H103.996Z" fill="white"/>
<path d="M295.905 119.976C296.477 120.128 297.176 120.891 297.679 121.62C297.008 122.599 296.178 123.461 295.223 124.171C295.101 122.941 295.028 121.748 295.004 120.591C295.096 120.386 295.241 120.209 295.425 120.078C295.522 120.004 295.64 119.962 295.762 119.955C295.81 119.956 295.858 119.963 295.905 119.976Z" fill="white"/>
<path d="M264.661 71.2207C265.735 71.2207 266.607 72.7858 266.607 74.7151C266.607 76.6443 265.735 78.2094 264.661 78.2094C263.587 78.2094 262.716 76.6467 262.716 74.7151C262.716 72.7835 263.585 71.2207 264.661 71.2207Z" fill="white"/>
<path d="M108.35 99.2631C108.483 99.4239 108.616 99.5823 108.747 99.736C105.665 100.976 102.808 102.711 100.29 104.871C97.9357 100.89 97.5556 96.9036 98.1377 94.206C98.5225 92.421 99.3658 91.1088 100.335 90.7802C100.662 90.6549 101.007 90.583 101.357 90.5674C102.371 90.5674 103.098 91.4753 104.92 94.3809C105.955 96.0813 107.101 97.7122 108.35 99.2631Z" fill="white"/>
<path d="M221.152 31.7968C221.39 32.2886 221.435 32.6763 221.293 32.9529C220.903 33.7 220.005 33.9152 218.442 34.2296C217.294 34.466 215.893 34.745 214.584 35.5016C214.167 33.7247 213.486 32.0195 212.565 30.4421C211.952 29.4113 210.978 28.4135 209.792 27.3685C209.08 26.7302 208.267 26.0729 207.417 25.3802L206.383 24.5314L205.621 23.8789C205.968 24.0468 206.334 24.2075 206.68 24.3659C208.138 25.0123 209.66 25.5013 211.222 25.8247C211.622 25.9051 212.018 25.9996 212.41 26.1037C216.698 27.2645 220.216 29.8534 221.152 31.7968Z" fill="white"/>
<path d="M265.797 21.5147C266.035 22.2358 266.229 22.9709 266.376 23.7158C257.539 18.9861 247.666 16.4957 237.632 16.4647C236.784 15.168 235.831 13.9431 234.781 12.8024C232.846 10.7064 230.66 8.8547 228.272 7.28899C228.353 7.18496 228.436 7.08094 228.526 6.97927C230.106 5.19426 233.439 4.23438 237.553 4.23438C239.694 4.2471 241.828 4.47523 243.922 4.91528C252.049 6.56553 262.649 11.9111 265.797 21.5147Z" fill="white"/>
<path d="M299.185 117.267C299.205 117.617 299.195 117.968 299.155 118.317C298.494 117.625 297.665 117.116 296.748 116.837C296.202 116.69 295.629 116.668 295.073 116.771C295.46 110.073 297.164 105.186 297.869 103.398C298.634 103.127 299.377 102.796 300.09 102.41C299.544 106.796 298.915 113.123 299.185 117.267Z" fill="white"/>
<path d="M293.075 104.188C291.558 108.981 290.772 113.974 290.745 119C289.975 117.462 288.788 116.169 287.319 115.267C285.85 114.365 284.157 113.889 282.431 113.893C281.872 113.893 281.315 113.948 280.768 114.056C280.58 114.014 280.383 113.981 280.176 113.955C279.466 113.876 278.749 113.876 278.038 113.955C278.665 105.999 281.214 101.689 282.789 99.7407C286.053 102.635 289.526 104.122 293.075 104.188Z" fill="white"/>
<path d="M289.892 129.54C291.255 129.534 292.61 129.331 293.914 128.937C293.245 129.716 292.531 130.457 291.776 131.154C288.555 134.138 283.278 137.42 275.741 137.271C276.527 134.944 277.328 131.147 277.584 125.066C279.981 127.412 283.63 129.112 288.868 129.502C289.229 129.528 289.567 129.54 289.892 129.54Z" fill="white"/>
<path d="M269.799 144.165C269.914 144.598 269.971 145.044 269.97 145.491C269.97 148.026 268.134 150.199 265.547 151.069C265.071 151.228 264.581 151.34 264.084 151.404C263.549 149.625 262.833 147.905 261.946 146.272C262.76 146.23 263.57 146.127 264.369 145.962C266.174 145.581 267.907 144.919 269.505 144L269.799 144.165Z" fill="white"/>
<path d="M279.796 161.445C279.915 163.1 279.884 163.809 279.839 164.119C278.984 164.051 278.156 163.797 277.411 163.374C272.61 160.708 269.51 157.736 267.54 154.83C270.845 153.497 273.313 150.742 274.011 147.42C278.057 151.567 279.463 156.889 279.796 161.445Z" fill="white"/>
<path d="M260.625 155.502C261.528 162.143 258.672 167.76 255.47 171.801C254.946 172.499 254.357 173.146 253.712 173.735C253.474 173.378 253.135 172.671 252.645 171.271C250.153 164.129 250.488 158.703 251.852 154.721C252.299 153.41 252.898 152.155 253.636 150.981C253.714 150.856 253.795 150.733 253.874 150.612L253.921 150.541C253.999 150.423 254.078 150.305 254.159 150.194L254.192 150.149C254.268 150.043 254.344 149.936 254.429 149.835L254.46 149.792C254.541 149.683 254.624 149.575 254.698 149.47L254.741 149.418C254.912 149.203 255.085 148.995 255.256 148.797L255.275 148.775C255.456 148.57 255.634 148.376 255.81 148.191L256.064 147.929L256.099 147.896L256.337 147.659L256.51 147.494C256.803 147.22 257.081 146.981 257.337 146.771C257.411 146.889 257.482 147.007 257.551 147.12L257.589 147.182C258.225 148.243 258.781 149.349 259.252 150.492C259.911 152.079 260.366 153.742 260.606 155.443L260.625 155.502Z" fill="white"/>
<path d="M268.773 194.677C272.724 194.914 274.712 197.793 274.66 203.205V203.238C274.324 203.295 273.986 203.332 273.646 203.349H272.636C272.547 202.898 272.419 202.455 272.254 202.025C272.035 201.466 271.751 200.934 271.405 200.441C271.062 199.945 270.629 199.517 270.127 199.179C270.109 199.167 270.088 199.159 270.066 199.155C270.043 199.151 270.021 199.152 269.999 199.158C269.958 199.169 269.923 199.197 269.901 199.234C269.88 199.271 269.874 199.315 269.885 199.356V199.38C270.152 200.384 270.301 201.415 270.329 202.453C270.329 202.756 270.329 203.052 270.329 203.347H267.804C267.719 202.972 267.604 202.605 267.462 202.248C267.268 201.73 267.01 201.239 266.695 200.784C266.383 200.307 265.965 199.907 265.474 199.616C265.438 199.596 265.395 199.591 265.355 199.602C265.315 199.614 265.281 199.64 265.26 199.677C265.239 199.713 265.233 199.756 265.243 199.796V199.836C265.367 200.301 265.446 200.776 265.481 201.255C265.524 201.728 265.533 202.184 265.533 202.645C265.533 202.881 265.533 203.118 265.533 203.34L260.421 203.316C259.658 203.316 258.622 203.281 258.385 203.243C257.884 203.132 257.556 202.966 256.922 202.496C250.911 198.065 239.649 184.275 232.691 175.402C232.674 175.309 232.66 175.217 232.646 175.127C235.615 172.494 238.347 169.85 240.789 167.325C242.849 165.198 244.782 163.093 246.581 161.046C246.536 164.422 247.12 168.292 248.652 172.687C249.441 174.95 250.46 177.416 252.574 178.038C252.908 178.14 253.256 178.192 253.605 178.194C255.646 178.194 257.292 176.362 258.81 174.446C260.789 171.952 263.06 168.363 264.243 163.98C268.422 176.664 267.331 188.471 266.935 191.497H266.913C266.262 191.828 265.619 192.167 264.984 192.521C263.705 193.203 262.492 194.002 261.362 194.907C262.051 194.77 262.75 194.679 263.452 194.635C264.146 194.583 264.844 194.566 265.54 194.559C266.236 194.552 266.932 194.559 267.626 194.583L268.301 194.609C268.455 194.649 268.614 194.672 268.773 194.677Z" fill="white"/>
<path d="M174.7 203.35C174.536 203.35 174.372 203.35 174.225 203.35H174.142H146.856H146.785C146.072 203.371 143.934 203.295 142.509 202.69C140.749 201.959 139.099 200.989 137.606 199.808C129.871 193.661 126.343 186.478 124.735 181.218C138.751 190.415 155.251 196.727 170.645 198.477C173.417 200.203 174.368 202.059 174.7 203.35Z" fill="white"/>
<path d="M98.1779 240.284C99.48 240.284 100.753 240.668 101.835 241.388C102.918 242.108 103.762 243.131 104.26 244.328C104.758 245.526 104.888 246.843 104.634 248.114C104.38 249.385 103.753 250.552 102.832 251.468C101.911 252.384 100.738 253.008 99.4607 253.261C98.1836 253.513 96.86 253.383 95.6572 252.887C94.4544 252.391 93.4265 251.551 92.7034 250.473C91.9804 249.395 91.5947 248.129 91.5952 246.833C91.5971 245.096 92.2913 243.431 93.5255 242.203C94.7596 240.975 96.4329 240.285 98.1779 240.284ZM100.554 246.833C100.554 246.365 100.414 245.908 100.153 245.519C99.8921 245.13 99.5211 244.827 99.087 244.648C98.653 244.469 98.1753 244.423 97.7145 244.514C97.2537 244.605 96.8304 244.83 96.4982 245.161C96.1659 245.492 95.9397 245.913 95.848 246.371C95.7563 246.83 95.8034 247.305 95.9832 247.737C96.163 248.169 96.4675 248.539 96.8581 248.798C97.2488 249.058 97.7081 249.197 98.1779 249.197C98.8072 249.194 99.4097 248.944 99.8533 248.499C100.297 248.055 100.545 247.454 100.544 246.828L100.554 246.833Z" fill="white"/>
<path d="M250.861 240.284C252.163 240.284 253.436 240.668 254.519 241.388C255.601 242.108 256.445 243.131 256.943 244.328C257.441 245.526 257.572 246.843 257.317 248.114C257.063 249.385 256.436 250.552 255.515 251.468C254.594 252.384 253.421 253.008 252.144 253.261C250.867 253.513 249.543 253.383 248.341 252.887C247.138 252.391 246.11 251.551 245.387 250.473C244.664 249.395 244.278 248.129 244.279 246.833C244.28 245.096 244.975 243.431 246.209 242.203C247.443 240.975 249.116 240.285 250.861 240.284ZM253.237 246.833C253.237 246.365 253.098 245.908 252.837 245.519C252.575 245.13 252.204 244.827 251.77 244.648C251.336 244.469 250.859 244.423 250.398 244.514C249.937 244.605 249.514 244.83 249.182 245.161C248.849 245.492 248.623 245.913 248.531 246.371C248.44 246.83 248.487 247.305 248.667 247.737C248.846 248.169 249.151 248.539 249.541 248.798C249.932 249.058 250.391 249.197 250.861 249.197C251.489 249.193 252.09 248.941 252.532 248.497C252.974 248.053 253.222 247.453 253.22 246.828L253.237 246.833Z" fill="white"/>
<path d="M260.912 231.947C264.688 234.484 267.352 238.355 268.366 242.774C269.381 247.194 268.669 251.832 266.374 255.749C264.08 259.665 260.376 262.567 256.012 263.867C251.648 265.166 246.951 264.766 242.872 262.746C238.794 260.727 235.639 257.24 234.048 252.992C232.457 248.745 232.548 244.053 234.303 239.87C236.058 235.686 239.345 232.323 243.499 230.462C247.652 228.601 252.362 228.382 256.672 229.848C258.173 230.356 259.599 231.062 260.912 231.947ZM261.252 246.842C261.252 244.795 260.642 242.794 259.5 241.093C258.357 239.391 256.733 238.065 254.833 237.281C252.933 236.498 250.843 236.293 248.826 236.692C246.809 237.092 244.956 238.077 243.502 239.525C242.048 240.972 241.057 242.816 240.656 244.823C240.255 246.83 240.461 248.911 241.248 250.802C242.035 252.693 243.368 254.309 245.077 255.446C246.787 256.583 248.798 257.19 250.854 257.19C253.613 257.187 256.259 256.094 258.208 254.151C260.158 252.208 261.253 249.574 261.252 246.828V246.842Z" fill="white"/>
<path d="M108.239 231.947C111.446 234.093 113.876 237.207 115.171 240.831C116.465 244.455 116.556 248.397 115.429 252.076C114.302 255.755 112.017 258.976 108.912 261.265C105.806 263.554 102.044 264.79 98.1793 264.79C94.3148 264.79 90.5525 263.554 87.4469 261.265C84.3413 258.976 82.0567 255.755 80.9299 252.076C79.803 248.397 79.8935 244.455 81.188 240.831C82.4825 237.207 84.9125 234.093 88.1199 231.947C91.0915 229.952 94.5945 228.886 98.1793 228.886C101.764 228.886 105.267 229.952 108.239 231.947ZM108.574 246.842C108.573 244.796 107.963 242.796 106.821 241.095C105.678 239.394 104.054 238.068 102.155 237.285C100.255 236.503 98.1649 236.298 96.1486 236.698C94.1322 237.097 92.2801 238.083 90.8265 239.53C89.3729 240.977 88.383 242.82 87.9821 244.827C87.5812 246.834 87.7872 248.914 88.5741 250.804C89.361 252.695 90.6934 254.31 92.4029 255.447C94.1124 256.584 96.1221 257.19 98.1781 257.19C100.935 257.185 103.578 256.09 105.525 254.147C107.472 252.205 108.565 249.572 108.564 246.828L108.574 246.842Z" fill="white"/>
<path d="M312.774 196.027C313.139 196.337 313.624 196.904 313.581 198.228C313.451 202.085 308.83 208.792 303.704 212.582C295.263 218.814 286.873 218.667 286.804 218.667H68.4666C68.3811 218.667 60.0737 218.861 51.5691 212.582C46.4354 208.799 41.8292 202.085 41.6914 198.228C41.6463 196.904 42.1309 196.337 42.4991 196.027C43.1998 195.389 44.0962 195.005 45.0434 194.937C45.1336 194.937 45.2263 194.937 45.3189 194.937C48.602 194.937 53.0918 198.588 57.059 202.03C63.1619 207.326 67.9582 207.579 68.5331 207.593H286.78C287.31 207.593 292.13 207.331 298.233 202.033C305.317 195.878 309.51 193.263 312.774 196.027Z" fill="white"/>
<path d="M249.134 150.468C248.825 151.064 248.533 151.693 248.267 152.359C243.139 158.741 237.555 164.746 231.557 170.328C231.477 170.056 231.391 169.784 231.298 169.514C231.206 169.245 231.118 168.973 231.016 168.703L230.669 167.883C230.548 167.618 230.431 167.351 230.308 167.089C230.184 166.826 230.023 166.564 229.871 166.306C229.578 165.776 229.234 165.276 228.844 164.812C228.642 164.575 228.464 164.339 228.241 164.121C228.01 163.904 227.767 163.699 227.514 163.507C227.396 163.418 227.254 163.367 227.107 163.36C226.96 163.353 226.814 163.39 226.688 163.467C226.562 163.543 226.462 163.655 226.401 163.789C226.34 163.923 226.32 164.071 226.345 164.216L226.364 164.311C226.763 166.386 226.987 168.387 227.314 170.458C227.493 171.503 227.652 172.562 227.806 173.626C227.904 174.297 228.001 174.973 228.098 175.647C228.141 175.95 228.186 176.25 228.231 176.553C228.231 176.609 228.248 176.671 228.258 176.728L228.531 178.595C228.754 180.097 228.968 181.605 229.134 183.121C229.336 184.875 229.474 186.667 229.571 188.407C228.904 188.693 228.25 188.996 227.616 189.324C226.256 190.023 224.951 190.823 223.713 191.719C225.176 191.491 226.654 191.375 228.134 191.372C228.861 191.372 229.586 191.398 230.296 191.45C230.652 191.476 231.009 191.514 231.351 191.554C231.676 191.589 231.998 191.643 232.317 191.715C232.517 191.77 232.723 191.798 232.93 191.797L233.101 191.835L233.496 191.92L233.862 192.043C234.099 192.131 234.356 192.188 234.574 192.294C235.485 192.66 236.315 193.201 237.016 193.885C238.404 195.226 239.242 197.195 239.589 199.365C239.678 199.914 239.739 200.466 239.772 201.02C239.818 201.479 239.814 201.941 239.758 202.399C239.75 202.458 239.735 202.517 239.715 202.574L239.608 202.664L239.515 202.734L239.439 202.76C239.233 202.821 239.022 202.87 238.81 202.907C238.572 202.95 238.297 202.987 238.031 203.013L237.836 203.032H237.558C237.437 202.448 237.252 201.878 237.004 201.335C236.725 200.69 236.357 200.086 235.912 199.54C235.465 198.981 234.891 198.535 234.237 198.24C234.188 198.221 234.134 198.221 234.085 198.24C234.061 198.25 234.038 198.264 234.02 198.283C234.001 198.301 233.986 198.323 233.976 198.347C233.966 198.372 233.96 198.398 233.96 198.424C233.96 198.45 233.966 198.476 233.976 198.5L233.992 198.54C234.212 199.093 234.372 199.668 234.467 200.254C234.559 200.814 234.616 201.378 234.638 201.945C234.662 202.314 234.655 202.69 234.657 203.061L231.776 203.087C231.652 202.479 231.458 201.888 231.196 201.325C230.911 200.678 230.532 200.075 230.073 199.536C229.614 198.979 229.02 198.548 228.348 198.283C228.324 198.273 228.299 198.267 228.273 198.267C228.247 198.267 228.222 198.273 228.198 198.283C228.15 198.304 228.112 198.344 228.094 198.393C228.075 198.442 228.077 198.497 228.098 198.545L228.12 198.59C228.36 199.128 228.533 199.693 228.635 200.273C228.735 200.827 228.798 201.387 228.823 201.95C228.851 202.333 228.844 202.723 228.851 203.108L216.558 203.226L214.679 203.243C214.158 203.269 213.635 203.259 213.116 203.214C212.883 203.189 212.651 203.151 212.422 203.101C212.313 203.075 212.203 203.047 212.099 203.016L211.731 202.9C211.26 202.748 210.807 202.544 210.381 202.292L209.55 201.819L208.773 201.358L207.222 200.446C206.702 200.148 206.224 199.782 205.723 199.455C205.222 199.129 204.72 198.796 204.243 198.434C202.872 197.425 201.556 196.344 200.302 195.195C199.15 194.14 198.049 193.032 196.997 191.871C192.74 187.117 189.309 181.69 186.844 175.813C185.894 173.583 185.039 171.321 184.307 168.994C183.575 166.668 182.951 164.322 182.426 161.944C182.157 160.762 181.95 159.556 181.777 158.35C181.604 157.145 181.501 155.932 181.316 154.731C180.915 152.329 180.489 149.953 179.178 147.562L179.154 147.52C179.076 147.375 178.952 147.26 178.803 147.191C178.71 147.148 178.609 147.123 178.507 147.118C178.405 147.113 178.302 147.129 178.206 147.163C178.109 147.198 178.021 147.251 177.945 147.32C177.869 147.389 177.808 147.472 177.765 147.565C176.532 150.165 176.577 152.766 176.814 155.315C176.97 156.586 177.193 157.849 177.482 159.097L178.287 162.85C178.838 165.346 179.498 167.818 180.266 170.266C181.038 172.711 181.948 175.113 182.953 177.482C183.974 179.849 185.117 182.162 186.378 184.411C187.058 185.513 187.68 186.643 188.421 187.721C188.785 188.258 189.134 188.804 189.507 189.332L190.662 190.897C191.241 191.672 191.843 192.431 192.467 193.173C190.097 193.748 187.692 194.169 185.267 194.434C180.87 194.88 176.439 194.874 172.044 194.415C168.869 194.096 165.716 193.595 162.599 192.913C149.063 189.96 135.17 183.702 123.499 175.29C122.109 174.291 120.751 173.26 119.425 172.198C119.161 171.987 118.9 171.775 118.639 171.562C120.554 170.664 122.405 169.638 124.179 168.488C128.506 165.684 132.374 162.233 135.646 158.256C138.85 154.305 141.585 149.955 142.846 144.914C142.896 144.756 142.888 144.586 142.824 144.432C142.761 144.279 142.645 144.153 142.498 144.076C142.35 143.998 142.181 143.975 142.018 144.009C141.855 144.044 141.709 144.134 141.606 144.264L141.575 144.302C140.755 145.215 139.941 146.153 139.171 147.089C138.401 148.026 137.615 148.955 136.845 149.879C135.313 151.735 133.819 153.598 132.225 155.369C129.051 158.915 125.671 162.251 121.803 164.928C119.871 166.239 117.814 167.358 115.662 168.271C115.477 168.351 115.289 168.432 115.099 168.507C113.597 169.118 112.047 169.605 110.464 169.961C109.989 170.073 109.507 170.172 109.018 170.259C104.48 171.139 99.7767 170.791 95.2607 169.663C94.8782 169.531 94.4958 169.396 94.1204 169.261C93.2914 168.963 92.4575 168.647 91.6498 168.316C90.8421 167.985 90.0225 167.625 89.2339 167.228C88.4312 166.844 87.6641 166.391 86.9414 165.873C87.4233 166.647 87.9709 167.378 88.5782 168.058C89.1792 168.753 89.8135 169.417 90.4644 170.065C91.0607 170.663 91.676 171.247 92.2984 171.822C92.1036 172.243 91.9254 172.664 91.7472 173.101C91.4186 173.915 91.137 174.747 90.9039 175.593C90.8041 175.945 90.7162 176.302 90.6426 176.683C90.0344 176.27 89.4128 175.89 88.7777 175.543C87.8145 175.023 86.815 174.571 85.7869 174.193C85.288 173.988 84.7606 173.846 84.2523 173.675C83.7439 173.505 83.2141 173.399 82.701 173.262C83.1761 173.526 83.6346 173.77 84.086 174.047C84.5373 174.323 84.9863 174.595 85.4068 174.912C86.2575 175.506 87.0655 176.159 87.8251 176.865C88.5639 177.558 89.2484 178.307 89.8729 179.104C90.0677 179.34 90.2506 179.6 90.424 179.853C90.4843 180.466 90.6315 181.067 90.8611 181.638L91.0037 181.998L91.0797 182.175C91.1296 182.312 91.1818 182.444 91.2293 182.6C91.3291 182.903 91.4123 183.236 91.4907 183.572C91.6422 184.263 91.7509 184.963 91.8161 185.667C91.959 187.065 91.9135 188.475 91.6807 189.861C91.4431 191.19 90.9823 192.414 90.2791 193.263C89.5768 194.112 88.5812 194.668 87.4878 194.824C87.2614 194.862 87.033 194.887 86.8036 194.899C86.9958 194.441 87.1437 193.966 87.2455 193.481C87.4006 192.709 87.4801 191.925 87.4831 191.138C87.4915 190.372 87.4486 189.607 87.3548 188.847C87.3505 188.819 87.3394 188.793 87.3224 188.771C87.3054 188.748 87.283 188.731 87.2574 188.719C87.2379 188.711 87.2169 188.706 87.1957 188.706C87.1744 188.705 87.1533 188.709 87.1336 188.717C87.1139 188.725 87.096 188.737 87.0809 188.752C87.0659 188.767 87.054 188.785 87.0459 188.804C86.433 190.204 85.9817 191.641 85.383 192.859C85.1036 193.43 84.7653 193.97 84.3734 194.471L84.2499 194.627C84.0788 194.583 83.9078 194.535 83.7368 194.476C83.015 194.251 82.3153 193.962 81.6463 193.611C81.9735 193.013 82.1998 192.366 82.3162 191.696C82.5661 190.21 82.4743 188.687 82.0477 187.241C82.0376 187.209 82.0171 187.18 81.9893 187.159C81.9615 187.139 81.9279 187.128 81.8933 187.128C81.8588 187.128 81.8251 187.139 81.7973 187.159C81.7695 187.18 81.749 187.209 81.7389 187.241C81.5227 187.939 81.3541 188.62 81.1426 189.275C80.947 189.905 80.7089 190.521 80.43 191.119C80.2178 191.562 79.9624 191.983 79.6674 192.377C77.4745 190.729 75.6556 188.639 74.3295 186.244C73.5938 184.968 72.9791 183.628 72.4931 182.239C72.2199 181.553 72.0418 180.82 71.8185 180.111C71.6522 179.383 71.4384 178.669 71.3196 177.929C70.1556 172.037 70.6069 165.814 71.8779 159.79L72.3957 157.53L73.0205 155.312L73.3127 154.277L83.7154 154.362L94.1561 154.274C97.6363 154.187 101.117 154.156 104.597 154.01C111.557 153.773 118.515 153.435 125.478 152.778C118.515 152.123 111.557 151.78 104.597 151.548C101.117 151.402 97.6363 151.371 94.1561 151.284L83.7154 151.198L74.3532 151.272L74.4696 150.936L75.3581 148.808L75.8023 147.742L76.3059 146.699C76.6433 146.007 76.9664 145.304 77.3156 144.619L78.4297 142.585C78.786 141.9 79.1994 141.245 79.6175 140.588C80.0356 139.93 80.4109 139.259 80.8504 138.621C81.727 137.344 82.5799 136.051 83.5396 134.838C84.4494 133.582 85.4662 132.407 86.4521 131.209C86.9557 130.618 87.4902 130.053 88.0081 129.473L88.7872 128.608L89.6044 127.778C89.9212 127.447 90.2379 127.121 90.5547 126.799C92.1392 125.215 93.8092 123.726 95.5291 122.288C95.8475 122.026 96.1658 121.764 96.4794 121.506L96.7502 121.288C98.6317 121.255 100.513 121.215 102.395 121.151C111.084 120.915 119.772 120.574 128.459 119.919C119.772 119.264 111.084 118.922 102.395 118.69C101.694 118.666 100.995 118.647 100.295 118.629C101.535 117.763 102.802 116.938 104.095 116.153C106.761 114.574 109.597 113.354 112.377 112.134L120.903 108.588H120.922C121.063 108.528 121.182 108.426 121.263 108.296C121.344 108.166 121.383 108.015 121.375 107.862C121.367 107.71 121.311 107.564 121.217 107.443C121.122 107.323 120.993 107.235 120.846 107.19C120.009 106.94 119.144 106.795 118.271 106.758C117.84 106.727 117.408 106.72 116.976 106.736C116.546 106.751 116.114 106.774 115.693 106.826C114.008 107.031 112.351 107.424 110.754 107.996C107.559 109.086 104.701 110.834 101.884 112.536C100.523 113.378 99.1947 114.264 97.881 115.167C97.9023 115.115 97.9237 115.066 97.9475 115.014C98.5043 113.757 99.1914 112.562 99.9976 111.448C100.834 110.3 101.789 109.243 102.848 108.294C105.294 106.088 108.382 104.318 112.113 102.987C113.117 102.627 114.167 102.302 115.263 102.01C116.082 101.793 116.927 101.592 117.798 101.41C122.157 100.499 127.151 100.048 132.702 100.048C134.853 100.048 137.085 100.116 139.399 100.251C141.72 103.197 143.456 106.784 145.371 110.739C148.619 117.446 152.31 125.071 159.969 132.554L132.669 133.244L161.468 133.97C167.376 139.363 175.484 144.645 187.089 149.416C197.182 153.567 208 155.694 218.922 155.674C227.366 155.65 235.766 154.461 243.882 152.139C245.706 151.603 247.467 151.045 249.134 150.468Z" fill="white"/>
<path d="M252.049 143.697C252.472 143.933 252.888 144.17 253.299 144.359C249.793 145.822 246.203 147.075 242.547 148.111C229.719 151.74 209.944 154.23 188.683 145.51C180.029 141.964 173.439 138.108 168.296 134.143L215.541 135.325C227.965 140.04 243.321 142.364 249.037 141.709C249.996 142.436 251.002 143.101 252.049 143.697Z" fill="white"/>
<path d="M206.977 131.355L166.132 132.398C161.988 128.92 158.378 124.858 155.415 120.34C152.79 116.364 150.902 112.484 149.17 108.883C147.783 106.015 146.431 103.223 144.825 100.656C143.843 99.0554 142.717 97.5471 141.461 96.1494C140.487 95.0738 139.415 94.0908 138.259 93.213C131.952 88.4419 126.702 85.9642 122.867 84.1531C117.788 81.7558 116.178 80.8692 116.109 78.2C116.097 77.8122 116.154 77.3607 116.962 76.8712C118.116 76.1738 120.076 75.8286 122.521 75.8286C128.367 75.8286 136.99 77.7957 144.055 81.5643C144.12 81.605 144.186 81.6421 144.255 81.6754H144.274L144.511 81.796C144.613 81.8524 144.72 81.8998 144.83 81.9378C146.535 82.7724 148.279 83.737 149.94 84.7395C150.861 85.2998 151.776 85.8743 152.664 86.4843C153.113 86.7846 153.548 87.1014 153.988 87.4135L155.308 88.3993C157.121 89.7697 159.089 90.922 161.174 91.8322C163.23 92.7329 165.427 93.2736 167.669 93.4305C165.535 92.9369 163.504 92.0794 161.665 90.896C159.856 89.7351 158.192 88.3645 156.708 86.8129L155.548 85.619C155.147 85.2218 154.748 84.8199 154.334 84.4369C153.515 83.659 152.671 82.9119 151.809 82.179L151.743 82.1246C156.541 82.2688 163.827 82.6755 172.458 83.7796C172.998 90.3079 174.856 96.6605 177.922 102.457C178.844 104.222 179.857 105.937 180.958 107.597C189.381 120.303 201.677 128.294 207.006 131.348L206.977 131.355Z" fill="white"/>
<path d="M306.937 78.8998C307.293 82.6826 306.657 88.858 301.274 96.2132C301.233 96.2676 301.198 96.3243 301.164 96.3787C299.723 97.8351 297.951 98.9256 295.997 99.5586C295.904 99.5702 295.811 99.5876 295.719 99.6106C291.831 100.62 288.118 99.1969 284.343 95.2604C284.265 95.1734 284.179 95.0942 284.086 95.024C283.897 94.7477 283.737 94.4521 283.611 94.1421C283.328 93.4373 283.217 92.6755 283.288 91.9197C283.401 91.0726 283.67 90.2536 284.081 89.5034C284.291 89.1015 284.557 88.735 284.818 88.3355L285.721 87.2456L284.457 87.9548C284.067 88.2409 283.644 88.5081 283.269 88.8367C282.461 89.517 281.786 90.3402 281.278 91.2648C280.756 92.2917 280.478 93.424 280.463 94.5747C280.458 94.9542 280.481 95.3335 280.532 95.7096C278.344 97.7665 273.137 104.197 273.406 118.683C273.643 131.516 271.726 136.209 271.087 137.41C270.957 137.506 270.839 137.615 270.733 137.737C270.709 137.765 270.648 137.833 270.55 137.938C270.139 138.369 269.697 138.769 269.227 139.136L268.989 139.325C268.89 139.403 268.783 139.479 268.673 139.562L268.559 139.642C268.445 139.723 268.322 139.801 268.208 139.879L268.089 139.954C267.923 140.061 267.749 140.168 267.569 140.273L267.317 140.415L267.008 140.581L266.866 140.654L266.718 140.727L266.481 140.836L266.281 140.928L266.127 140.997H266.103L265.972 141.051L265.915 141.075L265.621 141.193L265.493 141.243L265.307 141.309L265.117 141.373H265.098L264.944 141.422L264.661 141.51L264.488 141.56L264.25 141.623L264.051 141.671C263.991 141.687 263.932 141.699 263.87 141.713C263.744 141.742 263.616 141.768 263.488 141.791L263.312 141.824C263.174 141.848 263.034 141.869 262.894 141.888C262.832 141.888 262.772 141.907 262.711 141.912H262.685C262.566 141.926 262.447 141.938 262.328 141.947H262.288L262.141 141.959C261.967 141.973 261.791 141.98 261.613 141.985H261.523H260.981H260.76H260.568H260.485H260.311H260.278L260.041 141.966L259.784 141.938L259.577 141.912L259.402 141.888L259.164 141.85L258.858 141.796C258.511 141.73 258.159 141.649 257.8 141.56C257.404 141.452 257.001 141.322 256.589 141.169C255.599 140.802 254.645 140.346 253.738 139.808C252.861 139.288 252.021 138.709 251.222 138.077C251.149 137.993 251.07 137.914 250.985 137.841C249.771 136.391 245.219 130.206 249.291 123.13C249.429 122.89 249.519 122.625 249.554 122.35C249.59 122.075 249.57 121.796 249.497 121.528C249.424 121.261 249.299 121.01 249.129 120.791C248.958 120.572 248.746 120.388 248.505 120.251C248.263 120.113 247.997 120.024 247.72 119.989C247.444 119.953 247.164 119.973 246.895 120.045C246.626 120.118 246.375 120.243 246.155 120.412C245.934 120.582 245.75 120.793 245.611 121.033C241.955 127.386 243.435 133.549 245.694 137.618C239.549 137.42 227.555 135.304 217.499 131.561C217.169 131.308 216.772 131.156 216.356 131.124C213.933 130.196 211.58 129.097 209.315 127.835C205.005 125.388 195.237 119.184 187.474 109.441C186.088 107.693 184.805 105.867 183.632 103.97C180.126 98.3528 177.501 91.8015 176.743 84.3683C176.603 82.9686 176.527 81.5312 176.525 80.0748V80.0181C176.529 61.0426 186.246 43.8024 200.974 32.863L201.112 33.2106C201.209 33.447 201.288 33.7165 201.378 33.9671L201.63 34.7828L201.882 35.6481C202.231 36.9255 202.686 38.1718 203.243 39.3742C203.851 40.6414 204.694 41.9465 205.896 42.8922C207.045 43.8406 208.475 44.3872 209.966 44.4479C210.113 44.4516 210.259 44.4126 210.385 44.3357C210.511 44.2587 210.612 44.1471 210.676 44.0143C210.739 43.8815 210.763 43.7332 210.743 43.5873C210.724 43.4415 210.663 43.3043 210.567 43.1924L210.543 43.1641C208.866 41.1781 208.039 39.6886 207.291 37.6506C206.934 36.6364 206.623 35.5228 206.25 34.317L205.963 33.4044C205.854 33.0876 205.74 32.7732 205.618 32.4587C205.497 32.1443 205.364 31.8133 205.203 31.4799C205.04 31.1164 204.858 30.7621 204.656 30.4184L204.614 30.3522C204.224 29.7568 203.794 29.1888 203.326 28.6523C202.875 28.1345 202.468 27.6617 202.05 27.1888L202.01 27.1415L199.613 24.3753C198.039 22.5753 196.589 20.6717 195.273 18.6775C194.035 16.7199 193.021 14.6441 192.7 12.6534C192.379 10.6627 192.852 8.90604 194.149 7.43075C194.815 6.73157 195.605 6.16087 196.48 5.7474C197.461 5.29031 198.49 4.94376 199.549 4.71422C201.813 4.274 204.125 4.13093 206.426 4.28866C211.171 4.60896 215.823 5.75317 220.171 7.66954C221.145 8.09747 222.103 8.56086 223.036 9.06445C224.535 9.86439 225.975 10.7707 227.343 11.7762C228.902 12.9182 230.345 14.2089 231.652 15.63C231.956 15.961 232.251 16.3014 232.536 16.6466C233.571 17.9044 234.471 19.2665 235.221 20.7108C235.316 20.8936 235.408 21.078 235.498 21.264C236.262 22.8444 236.83 24.5117 237.187 26.2289C237.285 26.716 237.363 27.203 237.425 27.6829C237.703 29.8391 237.385 31.9386 236.268 33.5297C236.129 33.7441 235.984 33.9569 235.833 34.1681C235.42 34.7544 234.969 35.3171 234.47 35.9129C233.686 36.8315 232.971 37.8067 232.332 38.8304L232.31 38.8635C232.25 38.9664 232.213 39.0809 232.201 39.1992C232.178 39.4162 232.242 39.6334 232.38 39.8033C232.517 39.9731 232.717 40.0815 232.935 40.1047C234.406 40.2331 235.878 39.865 237.114 39.0597C237.454 38.8473 237.778 38.6102 238.083 38.3504C238.93 37.6356 239.638 36.7717 240.171 35.8018C240.369 35.4519 240.544 35.0894 240.694 34.7166C241.098 33.6872 241.384 32.6158 241.547 31.5225C241.663 30.8043 241.731 30.0793 241.751 29.3521L241.715 28.2858L241.696 27.7539L241.632 27.2361C241.356 24.9965 240.771 22.8055 239.893 20.7249C249.203 21.1272 258.271 23.7965 266.303 28.4986C267.557 29.2315 268.781 30.0102 269.975 30.8345C280.981 38.4462 289.066 49.5485 292.909 62.3263C292.762 62.3405 292.615 62.3571 292.467 62.3807L291.835 62.4635L291.213 62.5864C289.592 62.9208 288.018 63.4528 286.528 64.1705C285.807 64.531 285.106 64.9295 284.428 65.3644C284.096 65.5866 283.751 65.7829 283.435 66.0264L282.485 66.7357C282.169 66.9692 281.868 67.2227 281.585 67.4946L280.718 68.2772C280.164 68.8233 279.644 69.4002 279.114 69.9511C279.763 69.5302 280.39 69.0928 281.038 68.6956L282.041 68.1424C282.365 67.9504 282.702 67.779 283.048 67.6294L284.074 67.1565C284.414 67.0028 284.787 66.8964 285.122 66.7664C285.815 66.519 286.521 66.3083 287.236 66.1352C288.634 65.8239 290.066 65.6841 291.498 65.719L292.021 65.738L292.539 65.79C292.881 65.8136 293.216 65.8774 293.551 65.9295C293.885 65.9815 294.192 66.0571 294.501 66.1446C294.679 66.2667 294.875 66.3601 295.083 66.4212C296.05 66.6695 296.948 67.1336 297.708 67.7783C295.391 68.0887 293.125 68.6967 290.966 69.587C288.752 70.497 286.634 71.624 284.644 72.9513C282.678 74.2439 280.813 75.6823 279.064 77.2542C275.553 80.3443 272.481 83.8316 269.664 87.4773C266.875 91.1294 264.298 94.9373 261.946 98.8824C264.582 95.1466 267.431 91.5644 270.479 88.1534C273.534 84.7726 276.807 81.5903 280.411 78.8832C282.186 77.525 284.061 76.3016 286.02 75.2233C287.937 74.1474 289.957 73.2628 292.049 72.5825C294.085 71.9145 296.203 71.5294 298.344 71.4382C299.377 71.3957 300.41 71.4487 301.433 71.5966C301.926 71.6719 302.416 71.7729 302.898 71.8992C303.136 71.9583 303.374 72.0316 303.583 72.1049C303.687 72.1427 303.804 72.1805 303.896 72.2207C303.968 72.2473 304.037 72.2781 304.105 72.3129C304.211 72.3624 304.322 72.402 304.435 72.4312C302.809 72.5702 301.25 73.1418 299.922 74.0861C295.206 77.3252 294.494 82.108 296.32 83.4533C297.774 84.5078 302.473 80.0582 306.937 78.8998ZM269.101 76.9847C269.101 70.1497 265.949 64.5866 262.074 64.5866C258.199 64.5866 255.045 70.1497 255.045 76.9847C255.045 83.8198 258.199 89.3829 262.074 89.3829C265.949 89.3829 269.101 83.8198 269.101 76.9847ZM224.115 34.4092C224.549 33.5794 224.882 32.2128 224.02 30.4278C222.92 28.1487 220.119 25.879 216.753 24.3328C215.185 23.6095 213.538 23.0708 211.845 22.7275C211.427 22.6447 211.006 22.5431 210.59 22.4225C204.903 20.8053 199.701 16.2352 199.644 16.1832C199.391 15.9541 199.07 15.8124 198.729 15.7789C198.389 15.7455 198.047 15.8221 197.753 15.9975C197.46 16.1729 197.231 16.4377 197.101 16.7527C196.971 17.0676 196.946 17.416 197.031 17.746C197.855 21.0559 200.594 23.7914 203.461 26.2171C204.108 26.768 204.758 27.3023 205.395 27.8224C205.87 28.2196 206.357 28.6097 206.82 28.9927C208.165 30.1205 209.308 31.1702 209.83 32.0521C211.016 34.1109 211.723 36.4074 211.902 38.7737C211.912 39.1118 212.031 39.4378 212.241 39.7034C212.452 39.9691 212.743 40.1603 213.071 40.2489C213.399 40.3392 213.748 40.3217 214.066 40.1991C214.384 40.0765 214.654 39.8552 214.836 39.568C215.829 38.0005 217.34 37.6955 219.093 37.3409C220.929 36.9603 223.008 36.5371 224.115 34.4092Z" fill="white"/>
<path d="M280.366 117.333C280.447 117.901 280.067 119.239 279.44 120.757C278.747 119.689 278.298 118.484 278.124 117.225C278.669 117.145 279.222 117.133 279.77 117.187C279.898 117.201 280.025 117.224 280.15 117.255C280.224 117.274 280.297 117.3 280.366 117.333Z" fill="white"/>
<path d="M291.854 122.979C291.855 123.769 291.73 124.554 291.484 125.305L291.246 125.239C291.011 123.166 290.902 121.081 290.921 118.995C291.537 120.233 291.857 121.597 291.854 122.979Z" fill="black"/>
<path d="M291.246 125.244L291.484 125.31C291.163 126.246 290.711 127.132 290.142 127.941C290.001 127.941 289.904 127.977 289.757 127.967C279.48 127.206 276.662 121.227 276.667 116.172C277.888 115.116 279.36 114.388 280.943 114.056C281.667 114.193 282.339 114.527 282.884 115.021C284.675 116.676 283.497 120.34 282.136 123.199C283.799 124.267 286.127 125.05 289.379 125.291C290.001 125.34 290.627 125.324 291.246 125.244ZM279.606 120.752C280.233 119.234 280.611 117.896 280.532 117.328C280.463 117.296 280.39 117.27 280.316 117.25C280.191 117.218 280.064 117.196 279.936 117.182C279.388 117.127 278.835 117.14 278.29 117.22C278.467 118.481 278.92 119.689 279.618 120.756L279.606 120.752Z" fill="black"/>
<path d="M290.923 119C290.905 121.086 291.013 123.171 291.249 125.244C290.626 125.325 289.997 125.341 289.372 125.291C286.12 125.055 283.792 124.267 282.129 123.199C283.49 120.34 284.668 116.685 282.877 115.021C282.332 114.527 281.66 114.194 280.936 114.056C281.484 113.947 282.041 113.893 282.599 113.893C284.327 113.887 286.022 114.362 287.493 115.265C288.964 116.167 290.152 117.461 290.923 119Z" fill="#FF457D"/>
<path d="M262.264 64.5864C266.136 64.5864 269.289 70.1495 269.289 76.9846C269.289 83.8196 266.136 89.3827 262.264 89.3827C258.392 89.3827 255.235 83.8196 255.235 76.9846C255.235 70.1495 258.375 64.5864 262.264 64.5864ZM266.778 74.7102C266.778 72.7809 265.906 71.2158 264.832 71.2158C263.758 71.2158 262.884 72.7809 262.884 74.7102C262.884 76.6394 263.756 78.2045 264.832 78.2045C265.908 78.2045 266.778 76.6465 266.778 74.7102Z" fill="black"/>
<path d="M251.032 236.487C253.09 236.484 255.101 237.09 256.813 238.226C258.525 239.362 259.859 240.977 260.648 242.868C261.436 244.76 261.644 246.841 261.243 248.849C260.843 250.858 259.853 252.703 258.398 254.151C256.944 255.599 255.09 256.585 253.073 256.985C251.055 257.384 248.963 257.179 247.063 256.395C245.162 255.611 243.538 254.283 242.396 252.58C241.254 250.877 240.645 248.876 240.646 246.828C240.651 244.088 241.746 241.46 243.693 239.522C245.639 237.584 248.279 236.492 251.032 236.487ZM257.615 246.833C257.615 245.537 257.229 244.27 256.506 243.193C255.782 242.116 254.754 241.276 253.551 240.78C252.349 240.284 251.025 240.155 249.748 240.407C248.471 240.66 247.298 241.284 246.378 242.2C245.457 243.117 244.83 244.284 244.576 245.555C244.322 246.826 244.452 248.143 244.951 249.34C245.449 250.537 246.293 251.56 247.375 252.28C248.458 253 249.73 253.384 251.032 253.384C252.778 253.382 254.452 252.691 255.687 251.462C256.921 250.232 257.614 248.566 257.615 246.828V246.833Z" fill="black"/>
<path d="M251.032 244.478C251.502 244.478 251.961 244.617 252.352 244.876C252.743 245.136 253.047 245.505 253.227 245.938C253.407 246.37 253.454 246.845 253.362 247.304C253.271 247.762 253.044 248.183 252.712 248.514C252.38 248.845 251.957 249.07 251.496 249.161C251.035 249.252 250.557 249.206 250.123 249.027C249.689 248.848 249.318 248.545 249.057 248.156C248.796 247.767 248.657 247.31 248.657 246.842C248.657 246.215 248.907 245.614 249.353 245.17C249.798 244.727 250.402 244.478 251.032 244.478Z" fill="black"/>
<path d="M239.668 202.751C239.655 202.758 239.644 202.767 239.634 202.777L239.668 202.751ZM82.2212 187.235C82.6454 188.681 82.7372 190.203 82.4897 191.689C82.3711 192.359 82.1449 193.006 81.8198 193.604C82.4884 193.956 83.1882 194.245 83.9103 194.469C84.0789 194.529 84.2523 194.576 84.4234 194.621L84.5469 194.465C84.938 193.963 85.2763 193.423 85.5565 192.852C86.1623 191.628 86.6161 190.197 87.2195 188.798C87.2334 188.765 87.2576 188.738 87.2885 188.721C87.3193 188.703 87.3551 188.697 87.3902 188.701C87.4253 188.706 87.4579 188.722 87.4828 188.747C87.5078 188.773 87.5238 188.805 87.5283 188.84C87.6241 189.6 87.6677 190.365 87.6589 191.131C87.656 191.918 87.5765 192.703 87.4214 193.474C87.3174 193.959 87.1695 194.434 86.9795 194.893C87.2073 194.879 87.4341 194.853 87.6589 194.815C88.7516 194.659 89.7464 194.102 90.4479 193.254C91.1605 192.405 91.6119 191.181 91.8495 189.852C92.0818 188.466 92.1282 187.056 91.9872 185.658C91.922 184.954 91.8133 184.254 91.6618 183.563C91.581 183.227 91.4979 182.894 91.4005 182.591C91.353 182.435 91.3007 182.303 91.2484 182.166L91.1748 181.989L91.0299 181.629C90.801 181.058 90.6546 180.457 90.5951 179.844C90.4194 179.591 90.2388 179.341 90.044 179.095C89.4182 178.299 88.7337 177.55 87.9963 176.856C87.2357 176.151 86.4277 175.498 85.5779 174.903C85.1574 174.586 84.7013 174.328 84.2571 174.038C83.8129 173.747 83.3354 173.517 82.8721 173.253C83.3853 173.39 83.9079 173.51 84.4234 173.666C84.9389 173.822 85.4568 173.978 85.958 174.184C86.9859 174.563 87.9854 175.014 88.9489 175.534C89.5824 175.881 90.204 176.261 90.8137 176.674C90.8873 176.3 90.9752 175.936 91.075 175.584C91.3137 174.738 91.6008 173.907 91.935 173.094C92.1131 172.657 92.2913 172.236 92.4861 171.815C91.8621 171.24 91.25 170.654 90.6498 170.059C90.0013 169.411 89.367 168.746 88.766 168.051C88.158 167.372 87.6103 166.641 87.1292 165.867C87.8519 166.384 88.619 166.838 89.4216 167.221C90.2103 167.619 91.0204 167.973 91.8376 168.309C92.6548 168.645 93.4767 168.964 94.3082 169.255C94.6835 169.389 95.066 169.524 95.4485 169.657C99.9621 170.784 104.668 171.132 109.205 170.252C109.681 170.165 110.172 170.066 110.652 169.954C112.231 169.597 113.778 169.111 115.277 168.5C115.465 168.425 115.655 168.344 115.84 168.264C117.992 167.352 120.049 166.232 121.981 164.921C125.846 162.245 129.229 158.899 132.401 155.362C133.995 153.591 135.489 151.728 137.021 149.872C137.791 148.948 138.553 148.009 139.349 147.083C140.145 146.156 140.934 145.208 141.751 144.295L141.784 144.257C141.887 144.127 142.033 144.037 142.196 144.003C142.359 143.968 142.529 143.992 142.676 144.069C142.823 144.146 142.939 144.272 143.002 144.426C143.066 144.579 143.074 144.749 143.024 144.908C141.775 149.948 139.028 154.298 135.821 158.249C132.554 162.222 128.691 165.67 124.369 168.472C122.595 169.621 120.744 170.648 118.829 171.546C119.09 171.758 119.352 171.971 119.615 172.182C120.939 173.244 122.297 174.275 123.689 175.274C135.365 183.679 149.251 189.944 162.784 192.883C165.901 193.57 169.054 194.076 172.23 194.401C176.625 194.86 181.056 194.866 185.452 194.42C187.875 194.155 190.277 193.734 192.645 193.16C192.02 192.417 191.417 191.658 190.838 190.883L189.685 189.318C189.308 188.79 188.973 188.244 188.6 187.708C187.859 186.641 187.234 185.511 186.557 184.398C185.291 182.152 184.142 179.843 183.115 177.48C182.11 175.116 181.202 172.709 180.43 170.264C179.658 167.82 179.005 165.344 178.451 162.848L177.644 159.114C177.357 157.866 177.136 156.603 176.981 155.332C176.743 152.783 176.693 150.182 177.931 147.582C177.992 147.452 178.088 147.341 178.209 147.262C178.329 147.183 178.469 147.139 178.613 147.135C178.757 147.13 178.9 147.165 179.025 147.236C179.15 147.307 179.254 147.411 179.323 147.537L179.347 147.579C180.665 149.969 181.093 152.346 181.485 154.748C181.673 155.949 181.789 157.159 181.948 158.367C182.107 159.575 182.326 160.774 182.597 161.961C183.122 164.339 183.749 166.689 184.476 169.011C185.21 171.328 186.07 173.6 187.015 175.83C189.481 181.706 192.914 187.131 197.173 191.883C198.225 193.043 199.327 194.151 200.48 195.207C201.734 196.357 203.049 197.438 204.421 198.446C204.896 198.808 205.407 199.125 205.899 199.467C206.39 199.81 206.877 200.16 207.398 200.458L208.949 201.371L209.726 201.832L210.56 202.305C210.985 202.556 211.438 202.76 211.909 202.912L212.277 203.028C212.379 203.059 212.489 203.087 212.6 203.113C212.829 203.164 213.061 203.201 213.294 203.227C213.813 203.271 214.334 203.281 214.855 203.255L216.734 203.238L229.03 203.12C229.03 202.735 229.03 202.345 229.001 201.962C228.976 201.399 228.913 200.839 228.811 200.285C228.707 199.704 228.533 199.137 228.293 198.597L228.272 198.552C228.25 198.505 228.248 198.45 228.266 198.401C228.285 198.352 228.322 198.312 228.369 198.29C228.393 198.28 228.418 198.275 228.444 198.275C228.47 198.275 228.495 198.28 228.519 198.29C229.192 198.556 229.786 198.987 230.246 199.543C230.705 200.083 231.084 200.686 231.37 201.333C231.631 201.895 231.825 202.486 231.947 203.094L234.831 203.068C234.831 202.697 234.831 202.321 234.81 201.952C234.789 201.386 234.733 200.821 234.641 200.262C234.544 199.675 234.385 199.101 234.166 198.548L234.147 198.508C234.127 198.458 234.128 198.403 234.149 198.355C234.17 198.306 234.209 198.267 234.258 198.247C234.307 198.229 234.362 198.229 234.41 198.247C235.064 198.543 235.638 198.989 236.085 199.548C236.53 200.093 236.898 200.697 237.178 201.342C237.425 201.886 237.611 202.455 237.731 203.04H238.033L238.226 203.021C238.492 202.995 238.76 202.957 239.007 202.915C239.22 202.877 239.43 202.829 239.637 202.768L239.71 202.742L239.801 202.671L239.91 202.581C239.929 202.524 239.943 202.466 239.953 202.406C240.008 201.949 240.013 201.486 239.967 201.028C239.934 200.472 239.867 199.919 239.782 199.373C239.437 197.207 238.594 195.233 237.209 193.893C236.507 193.208 235.678 192.667 234.767 192.301C234.529 192.195 234.292 192.138 234.054 192.051L233.691 191.928L233.282 191.836L233.113 191.798C232.905 191.798 232.698 191.77 232.498 191.715C232.179 191.643 231.856 191.59 231.531 191.554C231.184 191.514 230.833 191.476 230.476 191.45C229.764 191.398 229.051 191.368 228.317 191.372C226.837 191.375 225.359 191.491 223.896 191.72C225.133 190.823 226.438 190.022 227.799 189.325C228.433 188.996 229.084 188.694 229.754 188.407C229.655 186.656 229.517 184.875 229.317 183.121C229.151 181.606 228.935 180.097 228.714 178.596C228.624 177.979 228.531 177.362 228.441 176.747C228.441 176.69 228.424 176.629 228.414 176.572C228.369 176.269 228.327 175.969 228.284 175.667C228.186 174.993 228.089 174.317 227.992 173.645C227.837 172.581 227.678 171.517 227.497 170.477C227.174 168.399 226.951 166.399 226.547 164.33L226.528 164.235C226.503 164.091 226.523 163.942 226.584 163.808C226.645 163.675 226.745 163.562 226.871 163.486C226.997 163.409 227.143 163.372 227.29 163.38C227.437 163.387 227.579 163.438 227.697 163.526C227.951 163.718 228.195 163.923 228.426 164.141C228.647 164.358 228.828 164.595 229.03 164.831C229.419 165.296 229.762 165.796 230.056 166.325C230.206 166.583 230.36 166.845 230.491 167.108C230.621 167.37 230.728 167.637 230.854 167.902L231.194 168.709C231.298 168.978 231.382 169.248 231.479 169.519C231.576 169.791 231.655 170.061 231.736 170.333C237.734 164.753 243.319 158.748 248.445 152.364C248.714 151.7 249.006 151.071 249.315 150.473C247.652 151.05 245.887 151.608 244.039 152.128C235.922 154.45 227.521 155.639 219.076 155.663C208.155 155.683 197.337 153.556 187.243 149.404C175.627 144.633 167.526 139.352 161.623 133.959L132.823 133.233L160.114 132.543C152.458 125.06 148.766 117.435 145.519 110.728C143.604 106.772 141.867 103.186 139.546 100.24C137.233 100.104 135 100.036 132.85 100.036C127.298 100.036 122.304 100.488 117.945 101.398C117.076 101.575 116.234 101.775 115.42 101.999C114.325 102.292 113.282 102.616 112.27 102.975C108.55 104.299 105.462 106.068 103.005 108.283C101.95 109.232 100.999 110.289 100.166 111.437C99.3594 112.551 98.6715 113.746 98.1139 115.002C98.0925 115.054 98.0711 115.104 98.0473 115.156C99.3634 114.253 100.689 113.366 102.05 112.524C104.868 110.817 107.728 109.075 110.921 107.985C112.519 107.412 114.176 107.02 115.862 106.815C116.282 106.763 116.715 106.739 117.142 106.725C117.575 106.708 118.008 106.715 118.439 106.746C119.312 106.783 120.176 106.929 121.012 107.179C121.16 107.222 121.291 107.31 121.386 107.43C121.482 107.551 121.538 107.698 121.546 107.851C121.554 108.004 121.515 108.156 121.433 108.286C121.351 108.416 121.23 108.517 121.088 108.576H121.069L112.546 112.122C109.764 113.335 106.927 114.555 104.264 116.142C102.977 116.93 101.71 117.755 100.463 118.617C101.164 118.636 101.863 118.655 102.563 118.679C111.251 118.915 119.938 119.253 128.628 119.908C119.967 120.577 111.27 120.908 102.582 121.142C100.698 121.206 98.8194 121.246 96.9356 121.279L96.6671 121.497C96.3464 121.754 96.0281 122.017 95.7169 122.279C93.997 123.712 92.327 125.206 90.7424 126.79C90.4257 127.106 90.1089 127.432 89.7922 127.769L88.975 128.599L88.1934 129.464C87.6756 130.044 87.1434 130.609 86.6398 131.2C85.6539 132.398 84.6372 133.564 83.7273 134.829C82.7771 136.049 81.9148 137.342 81.0358 138.612C80.5987 139.25 80.2162 139.924 79.8029 140.579C79.3895 141.234 78.9833 141.891 78.627 142.576L77.5128 144.61C77.1636 145.295 76.8405 145.997 76.5008 146.69L75.9996 147.733L75.5435 148.806L74.6574 150.934L74.541 151.27L83.9008 151.196L94.3414 151.282C97.8217 151.369 101.302 151.4 104.782 151.546C111.743 151.783 118.703 152.121 125.663 152.776C118.703 153.433 111.743 153.776 104.782 154.008C101.302 154.154 97.8217 154.185 94.3414 154.272L83.9008 154.36L73.5005 154.275L73.2059 155.31L72.5835 157.528L72.0656 159.788C70.7971 165.812 70.3433 172.035 71.505 177.927C71.6261 178.667 71.8399 179.381 72.0039 180.109C72.2272 180.818 72.4077 181.542 72.6809 182.237C73.165 183.626 73.779 184.967 74.5148 186.242C75.8425 188.636 77.6611 190.725 79.8528 192.375C80.1495 191.982 80.405 191.561 80.6153 191.117C80.8953 190.519 81.1334 189.903 81.328 189.273C81.5371 188.618 81.7081 187.937 81.9219 187.24C81.9279 187.219 81.9378 187.201 81.9511 187.184C81.9644 187.168 81.9808 187.155 81.9994 187.145C82.0179 187.135 82.0383 187.129 82.0592 187.127C82.0802 187.125 82.1013 187.127 82.1215 187.133C82.1446 187.142 82.1656 187.155 82.1829 187.173C82.2001 187.19 82.2132 187.212 82.2212 187.235ZM315.698 192.81C317.278 194.148 318.074 196.07 317.995 198.37C317.803 204.175 311.952 211.877 306.407 215.972C297.473 222.569 288.704 222.89 287.094 222.89H261.091V227.063C265.559 229.314 269.134 232.998 271.24 237.52C273.346 242.042 273.859 247.139 272.696 251.987C271.533 256.835 268.763 261.152 264.832 264.24C260.901 267.328 256.039 269.008 251.031 269.008C246.023 269.008 241.161 267.328 237.23 264.24C233.299 261.152 230.529 256.835 229.366 251.987C228.204 247.139 228.717 242.042 230.822 237.52C232.928 232.998 236.504 229.314 240.972 227.063V222.888H108.414V227.061C112.883 229.312 116.458 232.996 118.564 237.518C120.67 242.04 121.183 247.137 120.02 251.985C118.857 256.833 116.087 261.149 112.156 264.238C108.225 267.326 103.363 269.006 98.355 269.006C93.3469 269.006 88.4849 267.326 84.5541 264.238C80.6232 261.149 77.8528 256.833 76.6901 251.985C75.5274 247.137 76.0403 242.04 78.146 237.518C80.2517 232.996 83.8273 229.312 88.2956 227.061V222.888H68.6947C68.4951 222.888 67.982 222.888 67.2432 222.843L3.1809 220.779L54.3224 219.124C52.5372 218.212 50.8305 217.156 49.2197 215.965C47.8834 214.968 46.6269 213.869 45.4615 212.679C45.2926 212.698 45.122 212.698 44.9531 212.679L27.6114 210.57L42.1285 208.802C39.5724 205.364 37.7337 201.574 37.6268 198.366C37.5508 196.065 38.3395 194.143 39.9264 192.805C41.3232 191.582 43.0853 190.85 44.9412 190.722C45.1242 190.71 45.3071 190.703 45.4876 190.703C50.2388 190.703 55.0731 194.54 60.0262 198.836C64.7892 202.969 68.4642 203.328 68.7659 203.357H135.47L135.144 203.104C123.789 194.086 120.584 183.208 119.682 177.556C117.853 176.189 116.076 174.778 114.368 173.316C112.926 173.783 111.452 174.148 109.959 174.409C105.557 175.26 101.007 175.099 96.6553 174.253C96.4449 174.305 96.2277 174.324 96.0115 174.309C95.9616 174.425 95.9141 174.546 95.8689 174.655C95.6011 175.319 95.3711 175.998 95.18 176.688C94.9974 177.32 94.8789 177.969 94.8261 178.624C94.763 179.102 94.8126 179.588 94.971 180.043L94.9876 180.104C94.9891 180.118 94.9931 180.132 94.9995 180.144L95.0422 180.239L95.2038 180.613C95.2941 180.849 95.382 181.085 95.4413 181.322C95.591 181.78 95.7003 182.218 95.8024 182.66C95.9927 183.526 96.1291 184.402 96.211 185.284C96.3906 187.061 96.3282 188.853 96.0257 190.613C95.6955 192.405 95.0755 194.292 93.7452 195.931C93.0709 196.758 92.2455 197.451 91.3126 197.973C90.3949 198.468 89.4011 198.807 88.3716 198.978C87.3944 199.133 86.4017 199.165 85.4164 199.075C84.4768 198.975 83.5496 198.782 82.6488 198.498C80.912 197.955 79.2712 197.144 77.786 196.096C74.9101 194.058 72.53 191.404 70.8208 188.329C69.9663 186.838 69.2506 185.272 68.6828 183.651C68.3716 182.854 68.1602 182.029 67.9083 181.218C67.7183 180.393 67.4784 179.563 67.3406 178.742C66.6344 175.003 66.422 171.188 66.7087 167.394L0 165.339L67.141 163.278C67.3477 161.812 67.6162 160.356 67.9107 158.921L68.4619 156.514L69.1152 154.183C67.0816 154.145 65.0481 154.097 63.017 154.012C56.0566 153.776 49.0961 153.435 42.1357 152.776C49.0961 152.119 56.0566 151.773 63.017 151.542C65.3499 151.442 67.685 151.397 70.0179 151.353L70.6878 149.433L71.638 147.151L72.1131 146.009L72.2224 145.773L27.6138 143.792L74.2464 141.721L74.9139 140.501C75.2964 139.772 75.7335 139.082 76.1659 138.373C76.5982 137.664 77.0116 136.954 77.4748 136.285C77.7314 135.912 77.9856 135.536 78.2421 135.16L42.5229 133.233L81.1736 131.122H81.214C81.9267 130.218 82.6726 129.344 83.4043 128.455C83.9364 127.833 84.497 127.232 85.0434 126.622L85.8677 125.71L86.7301 124.835C87.8704 123.653 89.0582 122.497 90.2934 121.393H89.5594L76.527 121.48L63.4945 121.397C59.152 121.31 54.807 121.282 50.4621 121.135C41.7746 120.899 33.0847 120.558 24.3972 119.899C33.0847 119.239 41.7746 118.896 50.4621 118.664C54.807 118.518 59.152 118.489 63.4945 118.4L76.527 118.317L89.5594 118.404L92.3341 118.454C92.8653 116.692 93.5072 114.965 94.2559 113.283C95.0921 111.395 96.1692 109.621 97.4606 108.006C93.9233 102.673 93.3603 97.0622 94.168 93.3172C94.8807 89.9931 96.7004 87.6099 99.1567 86.7824C104.248 85.0565 106.521 88.6549 108.714 92.1351C109.65 93.6838 110.686 95.1701 111.816 96.5846C112.328 97.1993 112.819 97.7423 113.291 98.2136C113.634 98.1111 113.98 98.0142 114.332 97.9228C120.478 96.2843 127.502 95.698 134.888 95.8399C129.36 91.8064 124.692 89.6006 121.228 87.9669C115.983 85.4892 112.201 83.6994 112.049 78.3113C111.992 76.2189 113.018 74.4268 114.938 73.266C121.266 69.4359 136.304 72.5709 146.184 77.8172L146.236 77.8384C148.737 77.8124 158.941 77.8384 172.479 79.51C172.619 62.9153 179.606 47.1599 192.151 35.0951C194.213 33.1154 196.399 31.2683 198.696 29.5651L196.558 27.1063C194.857 25.154 193.291 23.0892 191.871 20.9261C190.472 18.6896 189.179 16.2284 188.69 13.2943C188.433 11.7701 188.505 10.2087 188.904 8.71478C189.331 7.20838 190.094 5.81695 191.134 4.64354C192.171 3.51934 193.415 2.60289 194.798 1.94356C196.081 1.34194 197.43 0.888213 198.817 0.591205C201.459 0.0677562 204.159 -0.10555 206.847 0.0757981C212.095 0.423804 217.241 1.68659 222.05 3.80659C222.972 4.21324 223.884 4.64826 224.78 5.11639C225.009 4.78686 225.257 4.47108 225.523 4.17068C228.932 0.319316 236.37 -0.988116 244.96 0.768524C254.636 2.74977 266.298 8.89446 270.004 20.1932C270.692 22.1755 271.046 24.2573 271.051 26.3545C284.105 34.8393 293.564 47.8089 297.625 62.79C299.035 63.3314 300.307 64.1776 301.35 65.2677C301.704 65.6342 301.979 65.977 302.221 66.2749C302.934 67.1402 303.309 67.6178 305.49 68.1663C307.436 68.6581 309.194 70.7079 310.313 73.7908C311.294 76.5026 313.795 86.2055 305.186 98.2727C304.83 100.658 303.347 111.099 303.711 116.662C303.811 118.182 303.495 120.125 302.761 122.249C301.513 126.138 298.879 130.682 294.902 134.365C289.972 139.005 283.431 141.57 276.646 141.524C275.584 141.523 274.523 141.467 273.467 141.356C281.737 146.877 283.785 155.596 284.191 161.138C284.45 164.699 284.329 166.522 282.091 167.836C281.452 168.182 280.732 168.352 280.005 168.328C278.501 168.328 276.8 167.777 275.508 167.058C272.872 165.623 270.423 163.872 268.215 161.843C272.577 174.385 271.954 186.128 271.446 190.817C276.316 192.105 279.121 196.59 279.067 203.238C279.067 203.279 279.067 203.319 279.067 203.359H286.849C287.148 203.338 290.849 202.976 295.617 198.839C301.293 193.923 309.063 187.19 315.698 192.81ZM313.757 198.229C313.802 196.905 313.318 196.337 312.95 196.027C309.685 193.264 305.493 195.879 298.413 202.021C292.31 207.319 287.486 207.572 286.961 207.582H68.7137C68.1388 207.567 63.3425 207.314 57.2396 202.018C53.27 198.576 48.7826 194.926 45.4995 194.926C45.4069 194.926 45.3142 194.926 45.2239 194.926C44.2765 194.993 43.3798 195.377 42.6797 196.016C42.3115 196.325 41.8269 196.893 41.8696 198.217C42.0003 202.073 46.6208 208.78 51.7497 212.57C60.2542 218.85 68.5616 218.66 68.6472 218.656H286.984C287.053 218.656 295.444 218.802 303.884 212.57C309.013 208.792 313.629 202.085 313.757 198.229ZM301.461 96.2252C306.842 88.87 307.481 82.6923 307.125 78.9118C302.658 80.0703 297.962 84.5198 296.522 83.4606C294.696 82.1154 295.406 77.3325 300.121 74.0935C301.45 73.149 303.009 72.5774 304.635 72.4385C304.521 72.409 304.41 72.3694 304.302 72.3203C304.235 72.2849 304.165 72.2541 304.093 72.2281C304.001 72.1879 303.884 72.1501 303.782 72.1122C303.561 72.0389 303.336 71.9656 303.096 71.9065C302.614 71.78 302.125 71.679 301.632 71.6039C300.61 71.4561 299.576 71.4031 298.544 71.4455C296.403 71.5367 294.284 71.9218 292.249 72.5898C290.154 73.2704 288.132 74.1558 286.212 75.233C284.252 76.3168 282.377 77.5465 280.604 78.9118C277 81.6189 273.714 84.8012 270.671 88.1821C267.623 91.593 264.774 95.1752 262.138 98.911C264.49 94.9665 267.066 91.1586 269.854 87.5059C272.672 83.8602 275.746 80.3729 279.254 77.2829C281.003 75.7115 282.869 74.2731 284.835 72.9799C286.826 71.6531 288.944 70.5262 291.158 69.6156C293.317 68.7253 295.582 68.1173 297.898 67.8069C297.141 67.1636 296.248 66.6996 295.285 66.4498C295.077 66.3892 294.881 66.2958 294.703 66.1732C294.401 66.0857 294.078 66.0219 293.752 65.9581C293.427 65.8942 293.085 65.8422 292.74 65.8186L292.223 65.7666L291.702 65.7477C290.27 65.7127 288.839 65.8525 287.441 66.1638C286.725 66.3366 286.019 66.5473 285.326 66.795C284.979 66.925 284.614 67.0314 284.279 67.1851L283.252 67.658C282.905 67.8076 282.568 67.979 282.243 68.171L281.243 68.7243C280.594 69.1214 279.965 69.5588 279.316 69.9797C279.846 69.4288 280.366 68.8519 280.92 68.3058L281.787 67.5232C282.071 67.2525 282.372 66.999 282.687 66.7643L283.637 66.055C283.951 65.8186 284.298 65.6153 284.63 65.393C285.308 64.9582 286.008 64.5596 286.728 64.1991C288.219 63.481 289.793 62.949 291.415 62.615L292.037 62.4921L292.669 62.4093C292.816 62.3857 292.964 62.3691 293.111 62.3549C289.267 49.5787 281.184 38.4771 270.182 30.8631C268.986 30.0388 267.762 29.2601 266.509 28.5272C258.473 23.8118 249.396 21.1327 240.076 20.7252C240.953 22.8059 241.537 24.9969 241.813 27.2363L241.877 27.7541L241.898 28.2861L241.932 29.3523C241.912 30.0794 241.845 30.8045 241.73 31.5227C241.566 32.6161 241.279 33.6876 240.874 34.7168C240.724 35.0891 240.55 35.4516 240.354 35.802C239.821 36.7719 239.113 37.6359 238.266 38.3507C237.96 38.6099 237.636 38.8469 237.297 39.06C236.06 39.8653 234.588 40.2334 233.116 40.105C232.898 40.0812 232.699 39.9725 232.561 39.8029C232.424 39.6332 232.359 39.4163 232.382 39.1995C232.395 39.0809 232.433 38.9665 232.493 38.8637L232.515 38.8306C233.154 37.807 233.869 36.8318 234.653 35.9131C235.145 35.3174 235.603 34.7499 236.004 34.1754C236.153 33.9642 236.298 33.7514 236.439 33.5371C237.556 31.9578 237.865 29.8465 237.594 27.6903C237.537 27.2174 237.458 26.7233 237.356 26.2363C236.998 24.5191 236.431 22.8518 235.667 21.2713C235.577 21.0846 235.487 20.9001 235.392 20.7181C234.637 19.2738 233.733 17.9117 232.695 16.6539C232.41 16.3088 232.116 15.9683 231.812 15.6373C230.505 14.2162 229.061 12.9255 227.502 11.7836C226.135 10.7787 224.697 9.87244 223.2 9.07178C222.264 8.56741 221.308 8.10244 220.333 7.67687C215.985 5.76022 211.334 4.61598 206.59 4.29599C204.289 4.13818 201.977 4.28126 199.713 4.72156C198.656 4.94893 197.629 5.29227 196.648 5.74528C195.777 6.15833 194.989 6.72642 194.323 7.42153C193.028 8.89683 192.548 10.644 192.876 12.6442C193.204 14.6443 194.208 16.7107 195.449 18.6683C196.763 20.6662 198.212 22.573 199.786 24.3756L202.181 27.137L202.221 27.1843C202.642 27.6572 203.058 28.1442 203.488 28.6478C203.955 29.1838 204.385 29.7518 204.773 30.3477L204.815 30.4139C205.018 30.7571 205.202 31.1115 205.364 31.4754C205.523 31.8088 205.64 32.1256 205.778 32.4542C205.915 32.7829 206.015 33.0879 206.124 33.3999L206.424 34.3173C206.794 35.5207 207.106 36.6366 207.462 37.6509C208.213 39.6889 209.039 41.1783 210.716 43.1643L210.74 43.1927C210.835 43.305 210.896 43.4423 210.914 43.588C210.933 43.7337 210.909 43.8816 210.845 44.0141C210.782 44.1467 210.681 44.2581 210.555 44.335C210.43 44.412 210.284 44.4513 210.137 44.4481C208.642 44.3844 207.211 43.8327 206.063 42.8782C204.858 41.9325 204.015 40.6275 203.407 39.3602C202.851 38.1574 202.396 36.9112 202.046 35.6342L201.808 34.7688L201.556 33.9532C201.466 33.7026 201.387 33.4307 201.29 33.1966C201.245 33.0902 201.197 32.9602 201.15 32.8491C186.421 43.7979 176.715 61.0381 176.715 80.0136V80.0703C176.715 81.5346 176.788 82.9657 176.933 84.3638C177.684 91.797 180.311 98.3412 183.808 103.966C184.988 105.865 186.278 107.694 187.671 109.444C195.434 119.187 205.205 125.391 209.512 127.838C211.777 129.099 214.13 130.198 216.553 131.126C216.969 131.158 217.366 131.31 217.696 131.564C227.752 135.306 239.744 137.422 245.892 137.621C243.632 133.552 242.152 127.388 245.808 121.036C245.947 120.795 246.131 120.584 246.352 120.415C246.572 120.245 246.824 120.121 247.092 120.048C247.361 119.975 247.641 119.956 247.918 119.991C248.194 120.026 248.46 120.115 248.702 120.253C248.944 120.391 249.156 120.575 249.326 120.794C249.496 121.013 249.621 121.264 249.694 121.531C249.767 121.798 249.787 122.077 249.751 122.352C249.716 122.627 249.627 122.892 249.488 123.133C245.416 130.209 249.963 136.394 251.182 137.843C251.267 137.916 251.346 137.995 251.42 138.08C252.219 138.712 253.061 139.29 253.938 139.81C254.845 140.348 255.799 140.804 256.788 141.172C257.202 141.33 257.606 141.46 258.002 141.562C258.361 141.664 258.715 141.744 259.057 141.799L259.366 141.853L259.603 141.891L259.779 141.914L259.984 141.94L260.24 141.969L260.478 141.988H260.509H260.682H260.767H260.958H261.181H261.722H261.813C261.991 141.988 262.167 141.976 262.338 141.962L262.487 141.95H262.528C262.647 141.94 262.765 141.929 262.884 141.914H262.91C262.972 141.914 263.031 141.9 263.093 141.891C263.233 141.872 263.374 141.851 263.509 141.827L263.685 141.794C263.816 141.77 263.944 141.744 264.07 141.716C264.129 141.702 264.191 141.69 264.25 141.673L264.45 141.626L264.687 141.562L264.861 141.513L265.143 141.425L265.298 141.375H265.317L265.507 141.312L265.69 141.245L265.818 141.196C265.92 141.158 266.018 141.118 266.115 141.077L266.17 141.054L266.303 140.999H266.324L266.481 140.931L266.68 140.839L266.918 140.73L267.063 140.657L267.208 140.583L267.517 140.418L267.754 140.276C267.935 140.17 268.108 140.063 268.277 139.957L268.393 139.881C268.517 139.801 268.631 139.723 268.745 139.645L268.861 139.564C268.97 139.486 269.075 139.411 269.177 139.328L269.415 139.139C269.886 138.772 270.329 138.372 270.74 137.94C270.838 137.836 270.899 137.768 270.923 137.739C271.027 137.617 271.145 137.508 271.275 137.413C271.916 136.212 273.836 131.519 273.596 118.686C273.325 104.2 278.532 97.7691 280.722 95.7122C280.515 94.1861 280.774 92.633 281.466 91.2556C281.975 90.332 282.65 89.5091 283.457 88.8275C283.837 88.4989 284.262 88.2317 284.644 87.9456L285.908 87.2364L285.003 88.3263C284.766 88.7258 284.478 89.0923 284.269 89.4942C283.856 90.2438 283.586 91.063 283.473 91.9105C283.368 93.0055 283.649 94.1028 284.267 95.0147C284.359 95.0856 284.445 95.1647 284.523 95.2512C288.289 99.1877 292.011 100.611 295.9 99.6014C295.991 99.5784 296.084 99.561 296.178 99.5494C298.128 98.9149 299.898 97.8245 301.338 96.3695C301.376 96.3245 301.411 96.2678 301.461 96.2252ZM299.323 118.312C299.362 117.964 299.372 117.613 299.354 117.262C299.083 113.123 299.713 106.796 300.259 102.405C299.546 102.792 298.803 103.122 298.038 103.394C297.325 105.172 295.629 110.068 295.24 116.766C295.797 116.663 296.37 116.685 296.917 116.832C297.834 117.111 298.662 117.621 299.323 118.312ZM297.848 121.622C297.344 120.894 296.644 120.13 296.071 119.979C296.025 119.966 295.978 119.958 295.931 119.958C295.809 119.964 295.691 120.007 295.594 120.081C295.409 120.21 295.264 120.388 295.173 120.594C295.2 121.751 295.273 122.944 295.392 124.173C296.35 123.464 297.183 122.601 297.857 121.62L297.848 121.622ZM294.083 128.951C292.778 129.346 291.422 129.549 290.058 129.554C289.735 129.554 289.398 129.554 289.046 129.516C283.82 129.126 280.162 127.426 277.762 125.081C277.508 131.162 276.708 134.959 275.919 137.285C283.459 137.434 288.747 134.153 291.957 131.169C292.713 130.467 293.428 129.722 294.097 128.937L294.083 128.951ZM291.484 125.306C291.733 124.553 291.862 123.767 291.864 122.974C291.866 121.594 291.548 120.232 290.933 118.995C290.959 113.97 291.744 108.976 293.263 104.183C289.7 104.117 286.238 102.63 282.963 99.7433C281.388 101.691 278.841 106.001 278.211 113.957C278.922 113.878 279.639 113.878 280.349 113.957C280.556 113.983 280.751 114.016 280.941 114.059C279.358 114.39 277.886 115.119 276.665 116.175C276.665 121.23 279.478 127.209 289.754 127.97C289.897 127.97 289.992 127.939 290.139 127.944C290.71 127.132 291.163 126.244 291.484 125.306ZM280.026 164.115C280.069 163.803 280.102 163.086 279.981 161.441C279.649 156.885 278.242 151.563 274.197 147.416C273.501 150.738 271.03 153.492 267.728 154.826C269.697 157.731 272.795 160.703 277.596 163.37C278.338 163.793 279.165 164.049 280.017 164.119L280.026 164.115ZM274.848 203.201C274.893 197.789 272.911 194.926 268.961 194.673C268.796 194.661 268.632 194.631 268.474 194.583L267.802 194.557C267.108 194.536 266.41 194.524 265.713 194.533C265.017 194.543 264.321 194.557 263.625 194.609C262.924 194.653 262.226 194.744 261.537 194.881C262.667 193.976 263.879 193.177 265.158 192.495C265.794 192.141 266.438 191.803 267.089 191.472H267.11C267.495 188.445 268.597 176.638 264.416 163.954C263.229 168.337 260.962 171.926 258.986 174.421C257.465 176.336 255.819 178.168 253.781 178.168C253.431 178.167 253.082 178.114 252.748 178.012C250.636 177.39 249.617 174.924 248.828 172.662C247.293 168.266 246.709 164.387 246.756 161.02C244.958 163.067 243.024 165.174 240.962 167.299C238.513 169.827 235.788 172.47 232.821 175.101L232.864 175.376C239.834 184.249 251.097 198.039 257.095 202.47C257.732 202.943 258.059 203.106 258.558 203.217C258.796 203.255 259.832 203.288 260.594 203.29L265.709 203.314C265.709 203.078 265.709 202.841 265.709 202.619C265.709 202.146 265.709 201.695 265.656 201.229C265.624 200.749 265.545 200.274 265.419 199.81V199.77C265.409 199.739 265.41 199.706 265.42 199.675C265.43 199.645 265.449 199.618 265.475 199.598C265.501 199.578 265.532 199.567 265.564 199.566C265.597 199.565 265.629 199.573 265.656 199.59C266.148 199.882 266.565 200.281 266.878 200.758C267.192 201.213 267.449 201.704 267.642 202.222C267.785 202.579 267.901 202.946 267.987 203.321H270.51C270.51 203.026 270.51 202.73 270.51 202.427C270.483 201.389 270.335 200.358 270.068 199.354V199.33C270.059 199.3 270.06 199.267 270.07 199.237C270.081 199.206 270.1 199.18 270.126 199.161C270.151 199.141 270.182 199.13 270.214 199.129C270.246 199.128 270.278 199.136 270.305 199.153C270.806 199.491 271.239 199.919 271.581 200.416C271.928 200.907 272.213 201.439 272.429 202C272.594 202.429 272.722 202.872 272.812 203.324H273.821C274.162 203.306 274.502 203.269 274.838 203.212L274.848 203.201ZM270.158 145.487C270.158 145.039 270.1 144.594 269.987 144.16L269.695 143.995C268.097 144.914 266.364 145.576 264.559 145.957C263.76 146.122 262.949 146.226 262.133 146.267C263.022 147.9 263.739 149.62 264.271 151.4C264.77 151.335 265.261 151.223 265.737 151.064C268.312 150.199 270.149 148.026 270.149 145.492L270.158 145.487ZM269.063 246.828C269.064 243.278 268.006 239.808 266.025 236.856C264.044 233.905 261.227 231.604 257.932 230.245C254.637 228.887 251.011 228.531 247.513 229.223C244.014 229.916 240.801 231.625 238.279 234.135C235.757 236.645 234.039 239.843 233.343 243.325C232.648 246.807 233.005 250.415 234.37 253.695C235.735 256.974 238.047 259.777 241.013 261.749C243.979 263.721 247.466 264.773 251.032 264.773C253.401 264.774 255.746 264.311 257.934 263.409C260.122 262.508 262.11 261.186 263.785 259.52C265.459 257.853 266.787 255.874 267.693 253.697C268.599 251.519 269.064 249.185 269.063 246.828ZM266.554 23.6994C266.406 22.9545 266.212 22.2194 265.972 21.4983C262.827 11.9065 252.227 6.56094 244.117 4.89887C242.022 4.45893 239.887 4.23081 237.746 4.21797C233.629 4.21797 230.294 5.17786 228.719 6.96287C228.628 7.06453 228.543 7.16856 228.464 7.27258C230.852 8.83891 233.038 10.6905 234.973 12.786C236.024 13.926 236.978 15.151 237.824 16.4482C247.854 16.4835 257.721 18.9754 266.554 23.7041V23.6994ZM255.648 171.796C258.85 167.756 261.703 162.138 260.803 155.497V155.447C260.563 153.747 260.108 152.083 259.447 150.497C258.975 149.354 258.419 148.248 257.784 147.187L257.746 147.125C257.677 147.009 257.603 146.889 257.532 146.775C257.275 146.986 256.997 147.225 256.705 147.499L256.532 147.664C256.451 147.74 256.373 147.82 256.294 147.901L256.261 147.934L256.007 148.196C255.831 148.381 255.651 148.575 255.472 148.78L255.453 148.801C255.282 149 255.109 149.208 254.938 149.423L254.895 149.475L254.658 149.797L254.627 149.839C254.551 149.941 254.475 150.047 254.389 150.154L254.356 150.199C254.275 150.312 254.197 150.435 254.118 150.546L254.068 150.617C253.988 150.738 253.909 150.854 253.831 150.986C253.093 152.16 252.494 153.415 252.047 154.726C250.683 158.705 250.351 164.131 252.843 171.276C253.318 172.676 253.684 173.383 253.909 173.74C254.548 173.148 255.13 172.499 255.648 171.801V171.796ZM256.85 225.429V222.888H245.21V225.434C249.022 224.412 253.038 224.412 256.85 225.434V225.429ZM253.474 144.359C253.063 144.158 252.648 143.936 252.227 143.697C251.18 143.098 250.174 142.43 249.215 141.699C243.514 142.364 228.146 140.044 215.719 135.316L168.474 134.134C173.615 138.099 180.207 141.936 188.861 145.501C210.122 154.23 229.887 151.74 242.723 148.102C246.379 147.069 249.969 145.82 253.474 144.359ZM244.074 203.361H251.605C248.768 200.747 245.428 197.132 242.038 193.242C242.302 193.672 242.54 194.116 242.751 194.573C243.337 195.884 243.746 197.267 243.967 198.685C244.082 199.371 244.161 200.062 244.205 200.756C244.278 201.544 244.256 202.338 244.138 203.12C244.108 203.191 244.091 203.276 244.072 203.361H244.074ZM236.37 188.391C237.49 188.844 238.532 189.468 239.459 190.24C237.451 187.876 235.477 185.462 233.636 183.178C233.738 184.629 233.845 186.069 233.935 187.526C234.085 187.589 234.228 187.668 234.361 187.762L234.786 187.857L235.313 188.029C235.672 188.143 236.028 188.237 236.37 188.391ZM166.31 132.398L207.151 131.356C201.822 128.301 189.526 120.31 181.102 107.604C180.002 105.945 178.988 104.229 178.066 102.465C175 96.6683 173.142 90.3154 172.603 83.7869C163.972 82.6899 156.686 82.2832 151.888 82.1319L151.952 82.1863C152.812 82.9192 153.66 83.6663 154.479 84.4442C154.89 84.8295 155.292 85.2315 155.693 85.6263L156.85 86.8202C158.336 88.3712 160.001 89.7418 161.81 90.9033C163.648 92.0867 165.679 92.9442 167.811 93.4378C165.571 93.2809 163.374 92.7402 161.319 91.8396C159.234 90.9293 157.266 89.777 155.453 88.4067L154.13 87.4208C153.691 87.1087 153.256 86.7919 152.809 86.4916C151.921 85.8816 151.004 85.3095 150.084 84.7468C148.422 83.7444 146.68 82.7797 144.972 81.9452C144.869 81.9058 144.769 81.8583 144.673 81.8033L144.45 81.6827H144.431C144.362 81.6494 144.295 81.6123 144.231 81.5716C137.164 77.803 128.552 75.8359 122.696 75.8359C120.25 75.8359 118.292 76.1811 117.138 76.8786C116.33 77.368 116.273 77.8243 116.282 78.2073C116.354 80.8765 117.964 81.7536 123.041 84.1605C126.875 85.9715 132.125 88.4492 138.432 93.2203C139.593 94.1006 140.669 95.0869 141.646 96.1661C142.902 97.5639 144.028 99.0722 145.01 100.672C146.614 103.24 147.965 106.032 149.355 108.9C151.087 112.494 152.968 116.373 155.601 120.341C158.561 124.857 162.169 128.919 166.31 132.398ZM179.185 203.373H204.103C203.906 203.238 203.706 203.101 203.504 202.969C202.97 202.595 202.414 202.26 201.896 201.853C199.77 200.274 197.761 198.546 195.883 196.682C192.618 197.606 189.28 198.257 185.906 198.628C183.689 198.863 181.46 198.979 179.23 198.976C178.637 198.976 178.039 198.968 177.439 198.952C178.279 200.149 178.851 201.51 179.119 202.945C179.15 203.089 179.169 203.227 179.185 203.361V203.373ZM174.401 203.359C174.551 203.359 174.712 203.359 174.876 203.359C174.555 202.068 173.584 200.212 170.838 198.484C155.446 196.739 138.933 190.427 124.927 181.225C126.538 186.485 130.065 193.668 137.8 199.815C139.293 200.996 140.943 201.966 142.704 202.697C144.112 203.302 146.267 203.378 146.98 203.357H147.048H174.337H174.418L174.401 203.359ZM116.387 246.828C116.387 243.975 115.703 241.162 114.392 238.624C113.081 236.086 111.181 233.896 108.849 232.235C106.517 230.575 103.821 229.491 100.985 229.075C98.1478 228.659 95.2523 228.923 92.5384 229.843C91.0365 230.352 89.6096 231.058 88.2956 231.943C85.7136 233.672 83.6251 236.036 82.2335 238.806C80.8418 241.576 80.1943 244.658 80.354 247.751C80.5137 250.844 81.4751 253.843 83.1447 256.456C84.8143 259.07 87.1352 261.209 89.8816 262.665C92.6281 264.121 95.7065 264.845 98.8174 264.766C101.928 264.688 104.966 263.809 107.634 262.215C110.303 260.622 112.511 258.368 114.045 255.673C115.579 252.979 116.385 249.935 116.387 246.838V246.828ZM108.925 99.7338C108.792 99.5825 108.661 99.4241 108.528 99.2609C107.281 97.7101 106.139 96.0783 105.11 94.3764C103.274 91.4707 102.547 90.5629 101.532 90.5629C101.183 90.5785 100.838 90.6504 100.511 90.7756C99.5416 91.1043 98.7006 92.4164 98.3158 94.2014C97.7314 96.8991 98.1139 100.885 100.466 104.867C102.985 102.707 105.843 100.974 108.925 99.7338ZM104.174 225.434V222.888H92.5336V225.434C96.3458 224.412 100.362 224.412 104.174 225.434Z" fill="black"/>
<path d="M224.198 30.4281C225.058 32.2131 224.725 33.5796 224.293 34.4095C223.186 36.5373 221.098 36.9605 219.259 37.3317C217.506 37.6863 215.993 37.9913 215.002 39.5588C214.858 39.785 214.66 39.9712 214.424 40.1002C214.188 40.2292 213.924 40.2967 213.655 40.2965C213.514 40.2964 213.373 40.2773 213.237 40.2397C212.909 40.1509 212.618 39.9596 212.407 39.6941C212.196 39.4285 212.077 39.1027 212.066 38.7644C211.889 36.4019 211.184 34.1086 210.001 32.0523C209.479 31.1705 208.339 30.1207 206.992 28.993C206.535 28.61 206.058 28.2199 205.566 27.8227C204.93 27.3025 204.279 26.7682 203.635 26.2173C200.784 23.7916 198.026 21.0538 197.204 17.7462C197.123 17.4183 197.15 17.0733 197.28 16.7616C197.41 16.4498 197.637 16.1876 197.928 16.0131C198.218 15.8386 198.557 15.7611 198.895 15.7917C199.232 15.8223 199.552 15.9596 199.805 16.1834C199.862 16.2355 205.067 20.8079 210.754 22.4227C211.171 22.5425 211.589 22.6442 212.009 22.7277C213.701 23.071 215.348 23.6098 216.914 24.333C220.297 25.8792 223.096 28.1489 224.198 30.4281ZM221.468 32.9531C221.613 32.6765 221.566 32.2887 221.331 31.797C220.38 29.8536 216.876 27.2647 212.584 26.1086C212.194 26.0046 211.8 25.91 211.396 25.8296C209.835 25.5058 208.313 25.0168 206.856 24.3709C206.497 24.2125 206.143 24.0517 205.797 23.8838C206.051 24.1013 206.31 24.3165 206.566 24.5293L207.6 25.378C208.445 26.0708 209.248 26.728 209.975 27.3664C211.163 28.4137 212.135 29.4114 212.748 30.4399C213.669 32.0173 214.35 33.7225 214.767 35.4994C216.076 34.7428 217.477 34.4591 218.625 34.2274C220.181 33.9153 221.081 33.7002 221.468 32.9531Z" fill="black"/>
<path d="M98.349 236.487C100.406 236.485 102.417 237.091 104.128 238.228C105.84 239.364 107.173 240.981 107.961 242.872C108.749 244.763 108.956 246.844 108.555 248.852C108.154 250.86 107.163 252.705 105.709 254.153C104.254 255.6 102.401 256.586 100.383 256.985C98.3653 257.384 96.274 257.179 94.3738 256.394C92.4735 255.61 90.8496 254.283 89.7077 252.58C88.5657 250.877 87.9568 248.875 87.9583 246.828C87.9627 244.087 89.0588 241.459 91.0065 239.521C92.9542 237.582 95.5946 236.491 98.349 236.487ZM104.929 246.833C104.929 245.537 104.543 244.27 103.82 243.193C103.096 242.115 102.068 241.276 100.865 240.78C99.6622 240.284 98.3386 240.155 97.0616 240.408C95.7846 240.66 94.6117 241.285 93.6911 242.201C92.7706 243.118 92.1439 244.285 91.8901 245.556C91.6364 246.827 91.7671 248.144 92.2657 249.342C92.7643 250.539 93.6084 251.562 94.6912 252.281C95.7741 253.001 97.047 253.385 98.349 253.384C99.2142 253.384 100.071 253.215 100.87 252.886C101.67 252.556 102.396 252.073 103.008 251.465C103.62 250.856 104.105 250.133 104.436 249.337C104.767 248.542 104.937 247.689 104.937 246.828L104.929 246.833Z" fill="black"/>
<path d="M98.349 244.478C98.8188 244.478 99.2781 244.617 99.6688 244.876C100.059 245.136 100.364 245.505 100.544 245.938C100.724 246.37 100.771 246.845 100.679 247.304C100.587 247.762 100.361 248.183 100.029 248.514C99.6965 248.845 99.2732 249.07 98.8124 249.161C98.3516 249.252 97.874 249.206 97.4399 249.027C97.0058 248.848 96.6348 248.545 96.3737 248.156C96.1127 247.767 95.9734 247.31 95.9734 246.842C95.9734 246.215 96.2237 245.614 96.6692 245.17C97.1147 244.727 97.7189 244.478 98.349 244.478Z" fill="black"/>
</g>
<defs>
<clipPath id="clip0_1932_1284">
<rect width="318" height="269" fill="white"/>
</clipPath>
</defs>
</svg>
