<svg width="220" height="301" viewBox="0 0 220 301" fill="none" xmlns="http://www.w3.org/2000/svg">
<g clip-path="url(#clip0_1932_1546)">
<path d="M46.5014 203.183C43.5592 203.657 41.1836 205.147 40.0101 207.554C38.194 211.856 33.6089 217.515 36.6909 222.463L33.6895 220.852C33.3252 220.574 32.9047 220.379 32.4573 220.281C32.0099 220.182 31.5464 220.182 31.0991 220.281C30.6517 220.38 30.2313 220.575 29.8672 220.853C29.503 221.131 29.2038 221.485 28.9905 221.891L26.7904 226.101C26.4907 226.674 26.3738 227.326 26.4557 227.968C26.5375 228.61 26.814 229.212 27.248 229.692L31.4988 234.369C25.7804 234.843 24.2275 240.094 22.1626 244.33C19.6945 242.84 5.76125 233.894 3.19603 220.138C0.132932 205.391 11.9728 189.989 27.7245 193.013C34.3462 194.007 40.2898 198.786 46.5014 203.183Z" fill="white"/>
<path d="M37.8218 228.911L35.3585 234.065C33.6539 232.187 31.2072 229.497 29.5097 227.628C29.4998 227.614 29.4945 227.597 29.4945 227.58C29.4945 227.562 29.4998 227.545 29.5097 227.531L30.7615 225.159L31.7264 223.328C31.7264 223.288 31.845 223.264 31.8592 223.305L37.8218 228.911Z" fill="white"/>
<path d="M40.1025 214.382C43.1561 220.905 51.6152 225.038 58.666 223.395C57.2435 227.116 55.2235 228.477 50.8873 228.219C45.4984 227.918 36.9422 222.527 39.0949 216.453L40.1025 214.382Z" fill="white"/>
<path d="M55.9893 236.235C55.8968 236.69 54.5668 239.75 54.434 240.125C54.2799 240.269 52.1082 239.909 51.8522 239.928L45.7165 239.306L45.6288 239.223L47.8953 234.48C49.2632 234.8 54.7659 235.886 55.9893 236.235Z" fill="white"/>
<path d="M216.565 179.888C214.874 180.3 213.237 180.911 211.69 181.71C209.986 180.903 208.165 180.287 206.283 180.417C208.011 181.143 209.384 182.606 210.436 184.133C204.035 184.549 201.406 188.298 194.59 186.081C194.477 185.247 194.613 184.399 194.981 183.643C196.776 180.666 194.104 176.57 190.713 176.859C191.285 174.706 195.493 170.66 198.459 169.711C199.704 169.17 200.83 168.684 201.657 167.204C202.131 168.758 201.446 171.155 200.891 172.659C201.884 172.018 202.787 171.249 203.58 170.373C209.018 171.459 215.401 176.385 216.565 179.888Z" fill="white"/>
<path d="M202.959 40.2743C205.206 54.0302 189.208 65.7062 176.406 61.3826C177.162 61.8351 177.96 62.2155 178.788 62.5186C182.79 82.2798 179.234 111.758 160.357 122.881C153.933 126.584 147.026 128.635 139.599 129.973C122.647 132.892 104.062 131 87.9906 124.496C68.4456 116.81 49.8205 97.8857 60.0648 75.5892C62.3763 70.7865 65.9634 66.9395 70.7809 64.0792C70.6489 64.7497 70.5516 65.4265 70.4893 66.1071C67.4736 68.0044 66.3569 72.7716 69.4153 75.1006C67.7557 72.9091 68.5808 70.267 70.4869 68.9768C72.981 79.7278 97.6114 78.3404 95.4184 65.7228C97.8959 66.2968 98.9059 68.4052 98.8111 71.0545C100.283 67.625 99.0055 65.2983 96.6394 63.9393C109.662 61.8047 105.594 39.5556 92.5094 47.2566C92.4502 46.9032 92.3861 46.5569 92.315 46.2249C96.8741 39.0576 105.447 30.887 114.565 28.6576C133.176 23.0223 158.824 31.3637 169.829 43.8366C169.247 44.409 168.681 44.9971 168.131 45.6011C177.574 40.2885 200.033 27.9864 202.959 40.2743ZM183.9 59.1057C194.239 58.5555 202.797 51.7415 201.747 41.7423C199.315 33.4674 180.929 42.6246 177.176 48.7057C175.552 51.196 174.94 55.0382 177.337 57.0518C179.21 58.5247 181.545 59.1057 183.9 59.1057ZM143.937 117.367C152.33 112.681 157.304 103.137 150.4 95.8888C141.794 88.5933 133.852 99.2685 123.157 99.6052C117.09 100.865 111.753 97.6059 107.597 102.077C103.61 107.216 107.346 115.425 112.834 118.567C121.777 123.901 134.84 122.518 143.937 117.367ZM130.082 78.5918C142.316 82.9344 150.025 61.4087 137.823 56.9901C125.589 52.6523 117.88 74.1733 130.082 78.5918ZM89.617 85.503C89.7616 85.8991 96.3739 86.2145 94.1761 83.0293C92.7678 80.9777 89.4819 85.1045 89.617 85.503ZM68.2465 80.4536C68.6353 80.2899 69.4319 75.0722 66.9568 75.4303C63.135 75.9853 67.8672 80.6196 68.2536 80.4536H68.2465Z" fill="white"/>
<path d="M198.414 40.9523C201.358 42.7288 198.464 48.5988 196.951 50.8187C194.305 54.3455 185.808 58.4082 180.301 56.1409C177.771 55.3558 177.551 52.9675 178.731 50.6219C181.889 44.9274 193.26 39.9894 198.414 40.9523Z" fill="white"/>
<path d="M193.84 193.35C199.945 204.734 196.211 214.562 182.546 216.185C181.791 213.657 180.839 211.191 179.701 208.811C191.318 210.592 194.044 202.535 189.746 192.634C188.798 189.925 187.802 187.053 187.982 184.394C188.264 178.583 193.416 179.176 192.278 182.203C190.408 185.903 192.314 189.759 193.84 193.35Z" fill="white"/>
<path d="M191.984 121.237C193.504 124.883 192.181 128.376 189.436 130.753C183.034 136.445 170.706 135.712 163.138 132.716C168.248 135.377 175.358 137.088 181.816 136.464C178.708 140.425 170.694 140.697 167.496 139.613C164.381 138.409 162.076 133.665 158.987 131.889C150.04 127.669 137.297 137.434 126.981 141.869C126.926 141.385 126.736 140.927 126.433 140.545C123.624 137.524 120.291 142.092 119.918 144.905C114.703 146.6 111.187 147.587 107.609 143.88C108.434 141.914 109.112 137.476 106.424 135.873C105.818 135.596 105.129 135.559 104.497 135.771C103.865 135.982 103.337 136.426 103.019 137.012C102.154 135.306 101.36 133.497 100.637 131.694C102.579 132.148 104.509 132.543 106.426 132.88C108.546 137.533 112.017 141.418 116.858 139.718C121.04 138.328 124.646 136.023 128.634 134.263C139.852 133.63 148.686 131.654 157.162 127.98C158.821 127.178 159.366 126.794 161.282 126.97C168.143 127.233 175.294 127.278 181.733 124.465C188.475 121.425 187.506 116.736 180.915 114.573C194.628 123.55 170.189 124.707 164.492 123.946C169.039 120.737 172.944 116.081 175.998 110.285C183.606 111.945 189.779 115.502 191.984 121.237Z" fill="white"/>
<path d="M175.379 256.599C177.069 259.4 177.809 262.884 177.612 266.546C175.742 252.422 158.525 252.375 146.972 248.521C146.376 246.873 145.445 245.368 144.238 244.1C153.541 248.815 169.862 248.12 175.379 256.599Z" fill="white"/>
<path d="M174.255 204.694C178.84 214.076 184.103 226.454 177.337 235.986C170.865 244.984 158.468 243.512 149.442 239.494C143.015 236.458 138.043 230.825 133.643 225.344C137.353 231.582 141.554 237.803 147.671 241.946C147.754 242.274 147.837 242.603 147.908 242.935C141.566 240.39 134.191 237.02 121.874 231.608C121.956 230.131 122.166 228.663 122.503 227.223C125.898 224.901 128.408 221.187 130.359 217.695C135.179 215.347 140.352 213.706 145.447 211.866C140.981 212.233 136.565 213.068 132.273 214.358C134.29 210.801 136.192 207.177 138.095 203.555C151.163 206.304 163.247 208.27 174.255 204.694Z" fill="white"/>
<path d="M176.19 180.18C176.982 186.263 177.51 192.581 175.867 198.506C165.412 199.528 152.09 199.832 141.422 197.159C146.429 187.416 151.173 177.537 155.113 167.306C144.748 183.111 136.403 200.074 126.924 216.384C124.651 220.352 121.782 224.844 117.142 226.07C120.952 212.743 102.09 197.865 89.6976 201.442C90.8546 196.008 96.3359 193.015 99.7025 189.005C101.283 187.321 102.839 185.613 104.371 183.882C115.675 170.816 126.478 157.1 134.99 142.023C132.986 144.563 130.362 147.739 127.811 150.799C125.955 149.674 124.873 148.064 125.009 146.148C133.859 142.562 151.291 130.926 157.415 134.51C168.003 147.066 173.293 164.201 176.19 180.18Z" fill="white"/>
<path d="M173.274 261.76C177.887 269.19 174.905 281.049 168.565 287.274C159.044 297.914 140.846 295.576 128.835 291.444C130.843 287.232 134.096 282.733 131.026 277.954C138.114 278.407 138.788 280.439 141.495 272.76C142.228 271.099 141.201 268.989 139.44 268.536L135.758 266.558C139.274 266.444 141.37 264.66 142.913 262.288C144.456 259.917 145.447 256.971 146.751 254.552C147.245 253.528 147.489 252.401 147.463 251.265C155.836 254.04 169.07 254.723 173.274 261.76Z" fill="white"/>
<path d="M175.678 200.785C174.288 203.136 169.9 203.593 167.38 203.97C158.096 204.919 148.371 203.551 139.167 201.468C139.55 200.736 139.931 200.004 140.31 199.272C151.393 202.009 164.385 202.009 175.678 200.785Z" fill="white"/>
<path d="M148.842 97.5821C152.61 101.403 151.792 106.595 148.558 110.546C147.046 112.348 145.247 113.886 143.233 115.1C139.511 110.769 132.602 111.288 130.843 117.135C130.491 116.021 130.331 114.856 130.369 113.688C128.486 113.744 126.647 114.276 125.024 115.233C123.401 116.19 122.046 117.541 121.085 119.162C118.599 118.748 116.21 117.88 114.036 116.603C109.724 114.118 106.417 107.724 109.349 103.573C110.392 102.193 112.007 101.97 113.704 101.994C114.762 104.451 117.166 106.528 123.176 106.213C133.423 105.665 140.625 101.944 139.641 96.6642C142.835 95.3788 145.881 94.7621 148.842 97.5821Z" fill="white"/>
<path d="M134.565 64.4872C136.462 59.4354 142.406 61.5652 140.661 66.6715C138.764 71.7257 132.82 69.5911 134.565 64.4872Z" fill="white"/>
<path d="M129.84 241.498C135.791 240.741 144.153 245.205 144.383 251.696C143.456 257.998 133.951 256.29 129.935 253.331C125.011 250.281 122.071 242.717 129.84 241.498ZM140.395 251.877C141.756 250.715 141.547 248.763 140.189 247.646C140.502 248.561 140.637 249.676 139.914 250.368C138.228 247.207 133.866 245.101 130.374 245.606C130.976 243.984 133.299 243.988 134.826 244.026C131.981 242.366 127.477 243.467 128.788 247.529C130.383 251.621 136.55 254.478 140.405 251.945L140.395 251.877Z" fill="white"/>
<path d="M122.78 249.647C125.881 256.236 134.238 260.32 141.329 258.693C139.907 262.414 137.887 263.771 133.551 263.515C128.133 263.249 119.589 257.697 121.761 251.749L122.78 249.647Z" fill="white"/>
<path d="M138.653 271.529C138.56 271.982 137.23 275.044 137.097 275.418C136.946 275.561 134.772 275.2 134.515 275.222L128.404 274.61L128.299 274.51L130.561 269.767C131.927 270.096 137.429 271.18 138.653 271.529Z" fill="white"/>
<path d="M127.472 69.5719C128.747 66.1495 132.038 67.3282 130.848 70.7814C129.572 74.2062 126.284 73.0251 127.472 69.5719Z" fill="white"/>
<path d="M131.026 238.336C130.487 238.346 129.949 238.388 129.416 238.462C128.22 238.615 127.06 238.972 125.985 239.518C120.879 237.262 115.85 235.028 110.667 232.706C111.487 231.886 112.381 231.145 113.339 230.493C119.098 233.069 125.487 235.901 131.026 238.336Z" fill="white"/>
<path d="M129.492 266.676L128.287 269.202L126.469 273.014L125.115 275.86L124.492 277.166L123.574 279.09C123.373 279.363 121.853 279.254 121.225 279.014C120.099 278.48 117.531 277.411 117.318 276.182C117.695 275.414 118.503 273.682 118.873 272.928L120.224 270.099L123.413 263.422L129.492 266.676Z" fill="white"/>
<path d="M122.074 3.06407C128.351 4.9235 131.754 18.5087 132.681 24.087C130.846 23.9289 129.06 23.8498 127.325 23.8498C126.732 17.7877 124.824 10.1769 120.675 7.26676C120.011 6.90867 119.269 6.71785 118.515 6.71082C117.761 6.7038 117.016 6.88078 116.346 7.22644C109.985 10.8386 109.036 20.0598 111.13 26.5417C110.765 26.6777 110.402 26.8184 110.042 26.9639C109.85 26.5157 109.667 26.0508 109.494 25.5646C106.004 15.416 112.14 1.71931 122.074 3.06407Z" fill="white"/>
<path d="M126.941 277.546C128.479 279.273 129.333 281.201 129.231 282.894C128.434 288.463 120.893 287.737 116.763 285.664C108.915 282.062 106.613 272.494 116.469 272.62C115.758 274.28 114.228 276.137 115.637 277.923C113.792 281.348 122.194 285.375 123.6 281.481C125.544 281.35 126.113 278.926 126.853 277.539L126.941 277.546Z" fill="white"/>
<path d="M126.571 152.297L125.677 153.372C122.488 151.297 120.798 147.48 122.145 144.041C122.403 143.126 124.625 140.01 125.068 142.248C125.037 142.633 124.651 142.801 124.418 143.06C121.775 145.837 123.309 150.383 126.571 152.297Z" fill="white"/>
<path d="M126.189 289.871C126.007 290.256 125.364 291.567 125.17 291.973C123.316 295.338 118.057 295.53 113.079 293.227C109.155 291.242 104.977 287.324 106.597 282.953C106.796 282.533 107.396 281.314 107.604 280.878C110.516 287.296 119.252 291.581 126.189 289.871Z" fill="white"/>
<path d="M117.332 9.30159C121.618 7.43268 124.207 17.2824 125.018 23.9019C121.059 24.0333 117.134 24.6709 113.337 25.7993C112.379 22.781 112.181 19.5727 112.761 16.4595C113.354 13.3904 115.362 10.2432 117.332 9.30159Z" fill="white"/>
<path d="M124.444 154.854C123.022 156.574 121.737 158.106 120.333 159.78C114.34 154.769 98.7945 159.543 106.168 146.717C110.132 150.469 114.921 149.769 119.918 148.14C120.4 150.81 122.024 153.182 124.444 154.854Z" fill="white"/>
<path d="M123.757 241.218C122.763 242.096 119.691 249.166 118.991 250.409C117.894 252.669 118.093 255.273 119.321 257.737L116.365 256.146C116 255.868 115.58 255.673 115.132 255.575C114.685 255.476 114.221 255.476 113.774 255.575C113.327 255.673 112.906 255.868 112.541 256.146C112.177 256.424 111.877 256.777 111.663 257.182L109.447 261.397C109.148 261.97 109.031 262.621 109.113 263.263C109.195 263.904 109.471 264.505 109.904 264.985L114.172 269.684C107.924 270.127 106.436 276.697 104.11 281.068L46.5819 255.306C48.5592 251.348 51.2477 247.242 48.3316 242.66C55.4203 243.106 56.1221 245.167 58.8319 237.469C58.9968 237.057 59.0737 236.616 59.0577 236.174C59.0417 235.731 58.9332 235.296 58.7391 234.898C58.545 234.5 58.2696 234.147 57.9308 233.862C57.5919 233.576 57.1971 233.365 56.7717 233.242L53.0922 231.267C59.4934 230.792 60.629 226.333 62.9334 221.633C64.1995 219.197 65.3849 216.846 64.5124 213.965C66.6035 215.013 68.9553 216.163 71.5087 217.39C70.8354 221.393 71.2716 225.847 74.0146 229.028C78.3438 232.958 84.01 235.073 89.2116 237.63C96.0466 241.218 104.1 241.458 109.02 234.656C114.089 236.935 118.828 239.036 123.757 241.218Z" fill="white"/>
<path d="M120.485 264.209L118.024 269.361L112.175 262.924C112.163 262.911 112.155 262.895 112.152 262.878C112.15 262.86 112.153 262.842 112.161 262.827L113.415 260.455L114.378 258.624C114.378 258.584 114.494 258.562 114.511 258.603L120.485 264.209Z" fill="white"/>
<path d="M119.105 161.251C118.807 161.611 118.505 161.962 118.207 162.325C116.31 160.902 114.105 160.606 111.782 160.302C102.095 159.564 97.5877 153.633 103.811 144.139C106.4 139.896 103.7 138.209 105.077 137.588C106.76 137.218 106.447 141.499 106.154 142.184C105.818 143.274 105.352 144.319 104.767 145.296C99.3421 153.756 103.631 158.284 111.962 158.919C114.534 159.242 117.021 159.617 119.105 161.251Z" fill="white"/>
<path d="M110.165 133.445C113.873 133.948 117.605 134.245 121.346 134.334C116.704 136.502 113.529 139.36 110.165 133.445Z" fill="white"/>
<path d="M111.535 162.202C113.688 162.501 115.362 162.66 116.976 163.8C112.334 169.355 107.676 174.902 102.844 180.289C100.454 175.386 96.9334 171.006 92.5118 168.276C93.5242 165.544 94.3333 162.741 94.9324 159.889C96.3335 153.671 96.7982 147.177 95.8807 140.863C95.1695 146.432 94.1666 151.866 92.5355 157.212C65.9752 162.382 44.3344 151.078 34.5168 132.264C50.9205 127.738 59.8514 120.286 63.3626 111.236C67.3005 115.678 72.5661 119.8 77.514 123.241C83.8014 125.782 89.8233 129.043 96.9547 130.767C98.3582 134.585 100.234 138.878 102.547 142.377C95.4563 153.308 99.6669 161.206 111.535 162.202Z" fill="white"/>
<path d="M114.527 221.488C114.585 222.004 114.603 222.524 114.582 223.043C110.826 213.917 102.035 207.672 92.7701 204.833C92.8745 204.58 92.9788 204.323 93.0807 204.07C102.277 203.076 114.193 213.725 114.527 221.488Z" fill="white"/>
<path d="M112.678 226.926C109.956 228.501 107.82 230.792 105.933 233.268C99.4582 241.477 89.0835 234.039 81.9071 230.624C78.9507 228.978 75.3849 227.47 74.695 223.791C73.7752 219.975 74.5054 214.188 77.3693 211.33C80.0294 208.868 83.6733 207.246 87.2201 206.522C103.218 209.155 112.308 222.192 112.678 226.926Z" fill="white"/>
<path d="M97.0092 52.1326C98.5455 48.0367 103.365 49.7609 101.952 53.9043C100.414 58.0003 95.5962 56.2737 97.0092 52.1326Z" fill="white"/>
<path d="M101.31 181.991C98.2966 185.312 95.2169 188.554 92.0281 191.701C89.3136 194.173 86.9902 197.353 86.5255 201.103C84.6881 190.762 73.026 184.349 62.8434 186.538C64.6381 179.783 67.9501 173.837 73.6164 170.847C86.4686 165.102 95.0391 172.282 101.31 181.991Z" fill="white"/>
<path d="M92.2818 65.5541C94.7427 75.0742 74.4438 75.2354 73.4954 68.0823C73.4741 60.8581 78.1256 53.5271 82.725 48.4824C88.9864 42.4203 89.0954 43.9477 89.7758 50.107C90.1196 54.2979 90.333 58.076 91.516 62.2028C91.7839 63.2914 92.0779 64.4607 92.2818 65.5541Z" fill="white"/>
<path d="M83.9626 204.224C80.4182 205.386 76.8217 207.156 74.4794 209.954C65.3161 205.5 60.9301 203.439 53.922 198.871C55.0268 195.447 56.767 193.212 58.6636 191.756C68.4361 184.854 83.5477 192.489 83.9626 204.224Z" fill="white"/>
<path d="M73.1137 212.013C72.6547 212.944 72.2978 213.922 72.0492 214.93C68.493 213.211 65.3351 211.652 62.7793 210.329C60.4963 207.068 56.7504 204.708 52.9333 203.641C52.2324 203.445 51.5197 203.295 50.7996 203.19C49.012 201.969 47.1794 200.648 45.5198 199.476C34.1778 189.69 17.6461 185.862 7.03906 197.593C8.20118 195.578 9.67787 193.762 11.4132 192.214C24.8866 180.848 38.3457 190.359 50.5317 199.566C58.161 204.77 63.8628 207.542 73.1137 212.013Z" fill="white"/>
<path d="M59.8916 211.581C64.5408 217.494 59.6972 221.78 53.213 220.473C48.4714 219.747 42.229 215.319 42.3808 210.41C42.6368 206.75 46.8616 205.759 50.1808 206.226C53.8863 206.717 57.5753 208.681 59.8916 211.581ZM57.7294 216.576C58.9836 215.416 59.0547 213.73 57.5232 212.345C57.8646 213.424 57.957 214.332 57.2505 215.068C55.6502 211.946 51.0674 209.762 47.708 210.308C47.9901 208.937 50.6288 208.59 52.1604 208.726C45.4628 205.68 43.7298 212.52 49.1945 215.881C51.5321 217.442 55.0267 218.417 57.5208 216.749L57.746 216.645L57.7294 216.576Z" fill="white"/>
<path d="M59.2705 107.757C59.7447 108.343 60.2189 108.964 60.693 109.538C59.7447 112.55 54.9367 123.768 33.1773 129.446C32.5451 128.602 31.9311 127.738 31.3352 126.854C37.3168 125.355 54.2065 119.606 59.2705 107.757Z" fill="white"/>
<path d="M56.8476 101.422C59.2871 115.028 33.4026 123.448 29.5642 124.131C26.9966 120.315 25.1355 116.067 22.9994 112.066C13.0989 103.469 18.144 93.1729 25.6073 101.239C25.9203 110.202 38.2864 112.521 42.5895 104.918C45.8256 107.119 50.3112 104.51 51.7693 101.372C49.8726 103.476 45.131 105.404 43.4335 102.529C42.8526 101.464 43.047 100.094 43.3766 98.9362C44.562 94.5153 50.6692 90.2225 54.6735 93.8844C55.0815 96.4777 55.8119 99.0097 56.8476 101.422Z" fill="white"/>
<path d="M55.8636 215.725C52.9072 215.547 49.773 214.128 47.8597 211.84C48.161 211.78 48.4677 211.751 48.7749 211.754C51.2476 211.726 54.7043 213.469 55.8636 215.725Z" fill="white"/>
<path d="M40.7497 228.119L46.8285 231.385C45.5174 234.134 43.763 237.808 42.4543 240.547L40.9086 243.787C40.79 243.91 40.2685 244.024 39.4742 243.91C38.0209 243.803 34.9697 242.238 34.6686 240.846C35.0384 240.077 35.854 238.386 36.2049 237.632C37.542 234.831 39.4055 230.93 40.7497 228.119Z" fill="white"/>
<path d="M48.7062 89.5464C46.9229 89.9735 45.286 90.8693 43.9646 92.1411C43.0882 92.973 42.3425 93.9325 41.7526 94.9872C41.2097 94.1455 40.5237 93.4054 39.7256 92.8004C39.332 89.7646 39.4743 86.8711 40.4368 84.95C41.0082 83.8045 41.8119 83.1262 42.8977 82.8819C46.371 82.3269 47.637 86.0932 48.7062 89.5464Z" fill="white"/>
<path d="M45.5624 243.993C49.818 252.126 39.5477 253.39 34.0972 250.373C26.9705 247.245 23.2957 237.388 33.7984 237.329C33.0872 238.989 31.5651 240.836 32.9734 242.62C31.0056 245.741 39.4291 250.209 40.9346 246.178C42.9213 246.014 43.4287 243.637 44.1897 242.236L44.294 242.248C44.7738 242.786 45.1987 243.371 45.5624 243.993Z" fill="white"/>
<path d="M43.5259 254.58C43.3742 254.893 42.6416 256.404 42.5041 256.682C37.4021 264.58 18.4237 254.31 24.9601 245.584C27.9378 252.076 36.5391 256.264 43.5259 254.58Z" fill="white"/>
<path d="M40.285 99.406C40.3703 100.063 40.285 100.756 40.4367 101.403C40.2921 104.69 36.4253 106.927 33.476 106.36C29.1753 105.61 27.1388 100.779 30.3228 97.6343C32.1744 95.7014 34.6709 94.4562 36.8852 94.8428C36.8852 94.895 36.8947 94.9472 36.9137 94.9993L37.1104 94.9045C38.5543 95.3432 39.9412 97.6343 40.285 99.406Z" fill="white"/>
<path d="M204.889 167.61C204.839 167.484 204.775 167.366 204.696 167.256C204.696 165.205 200.536 162.038 199.277 164.842C198.829 166.312 198.499 166.455 197.11 167.059C191.602 168.983 186.934 175.469 186.96 178.773C179.729 186.126 192.978 200.415 186.816 204.905C183.511 207.229 178.267 206.401 176.536 203.667C185.493 186.911 175.026 159.275 166.462 142.714C171.173 144.269 181.636 143.636 185.009 137.14C203.068 129.913 195.915 111.374 177.254 107.626C183.094 94.9946 184.646 76.8865 182.008 63.5479C216.548 66.2872 215.109 8.97932 171.977 41.9344C165.777 34.8429 149.855 25.515 135.739 24.5947C129.3 -19.4908 97.7299 4.53945 107.133 28.3895C100.731 31.347 94.4369 37.8147 90.8261 42.9993C84.7331 36.9941 73.5713 54.5852 71.8216 60.1729C60.0719 65.4595 53.2558 78.0225 54.133 90.0258C53.379 89.7047 52.5787 89.5062 51.7621 89.4376C48.8081 75.0911 34.9056 77.6264 36.3518 91.826C32.8312 91.5888 28.1607 94.2925 26.3636 97.8857C18.7461 90.965 10.875 99.6123 15.5455 107.716C16.7955 110.206 18.4937 112.444 20.5551 114.317C23.9098 121.432 26.0791 125.445 31.0697 132.342C38.2959 150.649 63.8913 166.319 92.1632 160.615L90.2547 167.294C74.8065 160.736 61.8168 172.844 59.2919 187.895C55.5839 189.683 52.7911 192.895 51.1837 197.27C43.9835 192.363 37.2267 186.36 29.1872 185.163C14.8556 182.473 2.26897 193.578 1.32775 207.763C-5.41485 226.609 15.4483 244.423 20.9652 246.695C15.9865 257.495 39.5264 269.897 45.3846 257.669L103.143 283.52C101.483 294.582 121.244 303.618 127.605 293.837C142.979 299.553 166.306 300.241 174.665 282.994C184.106 265.125 181.702 250.207 160.545 246.396C160.118 246.337 159.691 246.265 159.26 246.18C159.696 246.249 160.123 246.32 160.545 246.396C176.123 248.575 187.529 234.525 183.212 219.325C192.413 218.564 201.297 211.007 199.571 201.556C198.893 196.983 196.963 193.492 195.417 189.638C203.449 191.253 206.131 186.588 212.101 187.489C213.829 187.651 214.448 185.874 213.815 184.169C215.4 183.472 217.061 182.962 218.765 182.651C219.103 182.582 219.409 182.401 219.632 182.137C219.855 181.874 219.983 181.543 219.995 181.197C220.038 180.014 217.376 171.521 204.889 167.61ZM176.071 180.339C176.865 186.422 177.392 192.743 175.749 198.667C165.293 199.699 151.969 199.991 141.301 197.327C146.308 187.582 151.052 177.704 154.995 167.472C144.62 183.27 136.284 200.233 126.806 216.538C124.532 220.508 121.663 225.001 117.024 226.224C120.834 212.902 101.971 198.039 89.5791 201.596C90.736 196.163 96.2174 193.172 99.5839 189.159C101.164 187.475 102.721 185.768 104.252 184.038C115.556 170.975 126.365 157.259 134.871 142.185C132.868 144.722 130.243 147.901 127.692 150.96C125.836 149.838 124.755 148.228 124.89 146.309C133.74 142.723 151.173 131.09 157.297 134.673C167.885 147.225 173.174 164.36 176.071 180.339ZM175.564 200.944C174.175 203.295 169.786 203.752 167.266 204.129C157.982 205.078 148.257 203.712 139.053 201.627L140.196 199.433C151.275 202.17 164.267 202.168 175.564 200.944ZM118.754 273.075L120.106 270.248C120.845 268.697 122.574 265.083 123.294 263.569L129.376 266.835L128.169 269.361L126.35 273.175L124.997 276.007L124.373 277.316L123.456 279.237C123.254 279.51 121.734 279.401 121.106 279.164C119.98 278.63 117.412 277.558 117.199 276.317C117.576 275.561 118.389 273.83 118.754 273.075ZM112.057 263.078C112.045 263.066 112.037 263.05 112.035 263.033C112.032 263.016 112.035 262.999 112.043 262.984L113.297 260.612L114.259 258.781C114.259 258.741 114.375 258.722 114.392 258.76L120.367 264.376L117.906 269.527L112.057 263.078ZM130.442 269.938C131.808 270.258 137.318 271.339 138.534 271.688C138.444 272.141 137.112 275.205 136.979 275.577C136.829 275.72 134.653 275.359 134.397 275.381L128.285 274.769L128.181 274.671L130.442 269.938ZM133.432 263.674C128.015 263.411 119.47 257.856 121.642 251.908L122.661 249.806C125.762 256.395 134.12 260.479 141.211 258.852C139.793 262.573 137.771 263.932 133.432 263.674ZM129.817 253.475C124.892 250.435 121.953 242.874 129.722 241.655C135.672 240.896 144.034 245.362 144.264 251.853C143.337 258.148 133.828 256.44 129.817 253.48V253.475ZM129.3 238.617C128.103 238.769 126.942 239.126 125.867 239.672C120.76 237.416 115.732 235.182 110.549 232.86C111.369 232.042 112.264 231.301 113.221 230.648C118.98 233.223 125.369 236.055 130.91 238.491C130.371 238.503 129.833 238.546 129.3 238.621V238.617ZM112.559 227.081C109.838 228.655 107.702 230.946 105.814 233.425C99.3397 241.631 88.965 234.196 81.7886 230.778C78.8321 229.132 75.2664 227.626 74.5765 223.945C73.6567 220.131 74.3869 214.342 77.2508 211.484C79.9109 209.022 83.5548 207.4 87.1016 206.677C103.102 209.314 112.19 222.351 112.559 227.085V227.081ZM92.6611 204.988C92.7654 204.734 92.8698 204.48 92.9717 204.224C102.159 203.233 114.072 213.88 114.409 221.642C114.466 222.159 114.485 222.679 114.463 223.198C110.717 214.076 101.917 207.832 92.6611 204.993V204.988ZM118.56 230.342L116.787 229.552C117.447 229.474 118.1 229.339 118.738 229.149C118.671 229.547 118.612 229.946 118.56 230.346V230.342ZM104.959 137.747C106.642 137.38 106.329 141.658 106.035 142.344C105.7 143.433 105.234 144.478 104.648 145.455C99.2235 153.915 103.512 158.445 111.843 159.078C114.416 159.403 116.903 159.79 118.987 161.41C118.688 161.77 118.388 162.129 118.088 162.487C116.191 161.064 113.987 160.765 111.663 160.461C101.976 159.724 97.4691 153.792 103.693 144.3C106.281 140.055 103.581 138.369 104.959 137.747ZM126.452 152.452L125.559 153.526C122.37 151.458 120.675 147.64 122.026 144.201C122.284 143.283 124.506 140.169 124.949 142.405C124.918 142.792 124.532 142.96 124.3 143.216C121.656 145.996 123.19 150.545 126.452 152.459V152.452ZM124.319 155.006C122.896 156.726 121.611 158.258 120.208 159.932C114.214 154.921 98.6688 159.695 106.042 146.869C110.006 150.621 114.795 149.921 119.793 148.304C120.281 150.97 121.905 153.341 124.326 155.013L124.319 155.006ZM191.866 121.397C193.385 125.044 192.062 128.535 189.317 130.912C182.916 136.604 170.588 135.871 163.02 132.878C168.129 135.539 175.239 137.249 181.697 136.625C178.589 140.584 170.576 140.857 167.377 139.775C164.265 138.568 161.958 133.827 158.869 132.048C149.921 127.831 137.178 137.595 126.863 142.028C126.807 141.546 126.618 141.088 126.317 140.707C123.505 137.683 120.172 142.254 119.8 145.066C114.584 146.762 111.068 147.749 107.491 144.039C108.318 142.076 108.994 137.636 106.305 136.032C105.699 135.756 105.011 135.72 104.379 135.931C103.747 136.142 103.219 136.585 102.901 137.171C102.035 135.468 101.241 133.656 100.518 131.854C102.461 132.307 104.39 132.703 106.308 133.039C108.427 137.69 111.9 141.578 116.739 139.877C120.919 138.485 124.525 136.18 128.513 134.422C139.731 133.789 148.565 131.813 157.043 128.142C158.703 127.34 159.246 126.956 161.161 127.129C168.022 127.392 175.173 127.437 181.612 124.624C188.354 121.584 187.385 116.897 180.794 114.734C194.507 123.709 170.068 124.866 164.371 124.107C168.937 120.917 172.837 116.259 175.891 110.453C183.487 112.109 189.665 115.652 191.866 121.397ZM110.046 133.606C113.755 134.108 117.488 134.405 121.229 134.493C116.585 136.663 113.411 139.521 110.046 133.606ZM121.955 3.22552C128.233 5.08258 131.635 18.6678 132.562 24.2461C130.729 24.088 128.943 24.0089 127.206 24.0089C126.614 17.9492 124.705 10.3312 120.551 7.41873C119.887 7.06122 119.146 6.87074 118.392 6.86371C117.638 6.85669 116.893 7.03333 116.222 7.37841C109.861 10.9929 108.913 20.2142 111.007 26.6937C110.641 26.8297 110.279 26.9704 109.918 27.1159C109.727 26.67 109.545 26.2036 109.371 25.7166C105.886 15.5751 112.012 1.88075 121.955 3.22552ZM124.899 24.0635C120.941 24.1937 117.015 24.8314 113.218 25.9608C112.26 22.9426 112.063 19.7342 112.642 16.621C113.235 13.5378 115.25 10.4024 117.213 9.46078C121.5 7.58949 124.084 17.4416 124.899 24.0635ZM82.6041 48.644C88.8654 42.5819 88.9745 44.1069 89.6549 50.2686C89.9987 54.4571 90.2121 58.2352 91.3951 62.3526C91.6654 63.4507 91.9594 64.6199 92.1632 65.7133C94.6242 75.2357 74.33 75.397 73.3745 68.2439C73.3532 61.0173 78 53.6887 82.6041 48.644ZM59.9462 75.748C62.2578 70.9477 65.8448 67.0984 70.6623 64.2404C70.53 64.9109 70.4327 65.5877 70.3707 66.2683C67.355 68.1656 66.2384 72.9304 69.2967 75.2618C67.6371 73.0704 68.4622 70.4259 70.3683 69.1357C72.8624 79.8867 97.4929 78.504 95.307 65.8817C97.7845 66.4556 98.7944 68.5641 98.6996 71.2157C100.172 67.7862 98.894 65.4571 96.5279 64.1005C109.553 61.966 105.483 39.7168 92.398 47.4178C92.3387 47.0644 92.2747 46.7205 92.2036 46.3885C96.7626 39.2188 105.336 31.0506 114.454 28.8188C133.065 23.1836 158.712 31.5249 169.717 43.9978C169.136 44.5702 168.57 45.1584 168.02 45.7624C177.453 40.4521 199.922 28.1523 202.847 40.4378C205.095 54.1938 189.096 65.8722 176.294 61.5462C177.051 61.9995 177.849 62.3806 178.677 62.6846C182.681 82.4339 179.132 111.914 160.248 123.035C153.823 126.738 146.92 128.789 139.49 130.129C122.538 133.046 103.953 131.154 87.8816 124.651C68.327 116.969 49.6995 98.0446 59.9462 75.748ZM96.8907 52.2917C98.4269 48.1957 103.247 49.92 101.834 54.0634C100.286 58.1617 95.4777 56.4327 96.8907 52.2917ZM40.3182 85.1116C40.8896 83.9661 41.6933 83.2901 42.7791 83.0435C46.2524 82.4861 47.5208 86.2429 48.5876 89.708C46.8045 90.1342 45.1675 91.0291 43.846 92.3003C42.9693 93.1312 42.2242 94.0909 41.6364 95.1464C41.0927 94.3038 40.4059 93.563 39.607 92.9573C39.2158 89.9262 39.3557 87.0422 40.3182 85.1116ZM30.2043 97.7932C32.0559 95.8602 34.5524 94.6151 36.7667 95.0041C36.7667 95.0562 36.7833 95.1084 36.7952 95.1582L36.992 95.0633C38.4382 95.5092 39.8227 97.7932 40.1665 99.5696C40.2518 100.227 40.1665 100.919 40.3182 101.567C40.1736 104.854 36.3068 107.09 33.3575 106.524C29.0568 105.779 27.0274 100.938 30.2043 97.7932ZM29.4456 124.29C26.878 120.476 25.017 116.226 22.8809 112.225C12.9803 103.628 18.0278 93.332 25.4888 101.398C25.797 110.361 38.1703 112.68 42.4662 105.067C45.7023 107.268 50.1879 104.659 51.646 101.51C49.7493 103.616 45.0077 105.542 43.3102 102.667C42.7317 101.602 42.9237 100.231 43.2533 99.0739C44.4387 94.653 50.5459 90.3602 54.5502 94.0222C54.9592 96.6165 55.6912 99.1494 56.729 101.562C59.1686 115.185 33.284 123.609 29.4456 124.29ZM31.2072 127.015C37.2006 125.514 54.0879 119.772 59.1544 107.913C59.6285 108.497 60.1145 109.118 60.5768 109.692C59.6285 112.704 54.8229 123.922 33.0611 129.615C32.4163 128.764 31.7983 127.897 31.2072 127.015ZM34.3983 132.423C50.802 127.9 59.7328 120.446 63.244 111.395C67.182 115.837 72.4475 119.962 77.3954 123.403C83.6828 125.941 89.7047 129.202 96.8361 130.926C98.2397 134.747 100.117 139.04 102.429 142.548C95.3354 153.479 99.5436 161.377 111.412 162.373C113.565 162.672 115.238 162.828 116.853 163.969C112.213 169.526 107.552 175.071 102.72 180.46C100.331 175.557 96.8101 171.174 92.3909 168.444C93.4014 165.713 94.2097 162.911 94.8091 160.06C96.2102 153.839 96.6749 147.346 95.7574 141.034C95.0462 146.601 94.0433 152.037 92.4122 157.383C65.8567 162.544 44.204 151.242 34.3983 132.423ZM73.4954 171.001C86.3476 165.259 94.9181 172.438 101.189 182.148C98.1756 185.469 95.096 188.711 91.9072 191.858C89.1926 194.329 86.8692 197.51 86.4045 201.26C84.5672 190.919 72.9051 184.508 62.7224 186.695C64.5195 179.943 67.8316 173.999 73.4954 171.001ZM58.5427 191.917C68.3152 185.009 83.4363 192.643 83.8417 204.381C80.2973 205.541 76.7008 207.31 74.3584 210.108C65.1976 205.659 60.821 203.598 53.8176 199.033C54.9177 195.608 56.6484 193.371 58.5451 191.922L58.5427 191.917ZM11.3018 192.368C24.7751 181.005 38.2343 190.516 50.4203 199.72C58.0353 204.938 63.7395 207.704 72.9881 212.177C72.5301 213.107 72.1732 214.085 71.9236 215.091C68.3674 213.374 65.2094 211.816 62.6537 210.49C60.3706 207.229 56.6247 204.869 52.8077 203.804C52.1067 203.608 51.3941 203.457 50.6739 203.351C48.8769 202.13 47.0324 200.814 45.3941 199.637C34.0687 189.852 17.5441 186.024 6.92999 197.752C8.09265 195.737 9.56928 193.921 11.3042 192.373L11.3018 192.368ZM36.0839 237.789C37.4211 234.985 39.2845 231.084 40.6288 228.276L46.7052 231.544L42.331 240.708C41.9659 241.477 41.1575 243.166 40.7853 243.946C40.6667 244.072 40.1451 244.183 39.3509 244.069C37.8976 243.962 34.8464 242.409 34.5453 241.007C34.9199 240.236 35.7236 238.548 36.0863 237.794L36.0839 237.789ZM29.3982 227.787C29.3883 227.773 29.383 227.756 29.383 227.739C29.383 227.721 29.3883 227.704 29.3982 227.69L30.65 225.318L31.6149 223.487C31.6149 223.447 31.7335 223.423 31.7477 223.466L37.6961 229.073L35.2352 234.224L29.3982 227.787ZM47.7839 234.646C49.1519 234.966 54.6593 236.048 55.8779 236.397C55.7854 236.85 54.4554 239.909 54.3226 240.286C54.1685 240.429 51.9969 240.068 51.7408 240.089L45.6051 239.475L45.5174 239.392L47.7839 234.646ZM50.7759 228.383C45.387 228.081 36.8307 222.69 38.9858 216.616L39.991 214.541C43.047 221.066 51.5037 225.197 58.5545 223.554C57.1368 227.282 55.105 228.634 50.7688 228.383H50.7759ZM53.1064 220.634C48.3648 219.906 42.12 215.478 42.2718 210.569C42.5278 206.911 46.7526 205.92 50.0718 206.385C53.7773 206.876 57.4663 208.84 59.7921 211.743C64.4223 217.653 59.5787 221.946 53.1064 220.634ZM3.08216 220.297C0.0143194 205.552 11.8542 190.15 27.6059 193.172C34.2276 194.156 40.1712 198.945 46.3828 203.342C43.4406 203.816 41.065 205.306 39.8915 207.713C38.0754 212.018 33.4903 217.674 36.5723 222.624L33.5709 221.011C33.2066 220.733 32.7861 220.538 32.3387 220.44C31.8913 220.341 31.4278 220.341 30.9804 220.44C30.5331 220.539 30.1127 220.734 29.7485 221.012C29.3844 221.29 29.0852 221.645 28.8719 222.05L26.667 226.262C26.3662 226.835 26.2485 227.486 26.3299 228.128C26.4113 228.77 26.6879 229.371 27.1222 229.851L31.3731 234.528C25.6547 235.002 24.1018 240.255 22.0368 244.489C19.5688 242.992 5.63553 234.037 3.06793 220.297H3.08216ZM42.3998 256.841C37.2978 264.739 18.3194 254.469 24.8557 245.746C27.843 252.235 36.4443 256.419 43.4311 254.74C43.2557 255.053 42.5231 256.563 42.3856 256.841H42.3998ZM33.9929 250.532C26.8662 247.404 23.1914 237.549 33.6941 237.488C32.9829 239.136 31.4608 240.995 32.8691 242.781C30.9013 245.903 39.3248 250.371 40.8303 246.339C42.8171 246.175 43.3244 243.801 44.0854 242.399H44.1898C44.669 242.936 45.0939 243.518 45.4581 244.138C49.6995 252.287 39.4315 253.549 33.9786 250.532H33.9929ZM46.4776 255.465C48.4572 251.509 51.1434 247.401 48.2273 242.819C55.316 243.268 56.0178 245.326 58.7276 237.63C58.8924 237.218 58.9691 236.777 58.9528 236.334C58.9365 235.891 58.8276 235.456 58.633 235.058C58.4384 234.66 58.1625 234.307 57.8232 234.022C57.4838 233.737 57.0884 233.526 56.6626 233.404L52.9831 231.428C59.3843 230.954 60.52 226.492 62.8244 221.792C64.0928 219.356 65.2782 217.008 64.4057 214.124C66.4944 215.172 68.8463 216.322 71.402 217.551C70.7263 221.552 71.1649 226.006 73.9056 229.189C78.2347 233.119 83.901 235.232 89.1049 237.789C95.9376 241.38 103.991 241.619 108.911 234.815C113.98 237.087 118.719 239.195 123.657 241.38C122.664 242.255 119.591 249.325 118.892 250.568C117.794 252.828 117.993 255.432 119.221 257.896L116.255 256.302C115.891 256.025 115.47 255.829 115.023 255.731C114.575 255.632 114.112 255.632 113.664 255.731C113.216 255.83 112.796 256.025 112.432 256.303C112.067 256.581 111.768 256.936 111.554 257.341L109.34 261.553C109.04 262.126 108.923 262.778 109.004 263.419C109.086 264.061 109.362 264.662 109.795 265.142L114.062 269.84C107.815 270.286 106.327 276.853 104.001 281.225L46.4776 255.465ZM125.065 292.134C123.214 295.5 117.953 295.692 112.974 293.387C109.051 291.404 104.873 287.484 106.492 283.115C106.692 282.695 107.294 281.474 107.5 281.04C110.402 287.443 119.131 291.743 126.073 290.033C125.891 290.417 125.246 291.722 125.051 292.134H125.065ZM116.644 285.823C108.797 282.223 106.495 272.653 116.35 272.779C115.639 274.439 114.11 276.296 115.518 278.082C113.676 281.504 122.076 285.532 123.482 281.64C125.426 281.509 125.995 279.085 126.737 277.7H126.822C128.361 279.427 129.214 281.355 129.112 283.048C128.316 288.622 120.774 287.896 116.644 285.823ZM168.447 287.434C158.925 298.073 140.727 295.723 128.719 291.603C130.725 287.391 133.977 282.892 130.907 278.115C137.996 278.566 138.669 280.601 141.379 272.919C142.109 271.259 141.083 269.148 139.321 268.695L135.639 266.719C139.155 266.605 141.251 264.822 142.794 262.45C144.338 260.078 145.329 257.133 146.633 254.711C147.127 253.687 147.371 252.56 147.344 251.424C155.711 254.208 168.945 254.894 173.148 261.928C177.769 269.352 174.786 281.206 168.447 287.434ZM175.26 256.758C176.953 259.559 177.69 263.045 177.494 266.705C175.623 252.584 158.406 252.536 146.853 248.68C146.257 247.033 145.326 245.528 144.12 244.259C153.423 248.974 169.751 248.279 175.26 256.758ZM151.284 243.936C152.206 244.319 153.141 244.663 154.091 244.968C153.179 244.731 152.268 244.494 151.367 244.242C151.341 244.14 151.313 244.05 151.284 243.936ZM177.209 236.145C170.737 245.144 158.34 243.673 149.314 239.653C142.887 236.62 137.915 230.987 133.515 225.506C137.225 231.741 141.426 237.962 147.543 242.108C147.626 242.437 147.709 242.765 147.78 243.097C141.438 240.552 134.063 237.184 121.746 231.769C121.829 230.292 122.04 228.825 122.375 227.384C125.772 225.062 128.28 221.348 130.231 217.857C135.051 215.509 140.224 213.87 145.319 212.027C140.853 212.394 136.437 213.23 132.145 214.52C134.162 210.962 136.064 207.341 137.967 203.717C151.038 206.466 163.124 208.432 174.137 204.855C178.722 214.235 183.976 226.616 177.209 236.145ZM182.425 216.346C181.67 213.817 180.719 211.351 179.58 208.97C191.197 210.754 193.926 202.694 189.625 192.795C188.677 190.086 187.681 187.214 187.861 184.556C188.143 178.745 193.295 179.338 192.157 182.362C190.291 186.062 192.198 189.918 193.724 193.509C199.827 204.888 196.09 214.721 182.427 216.346H182.425ZM211.574 181.868C209.867 181.064 208.046 180.445 206.164 180.576C207.892 181.302 209.267 182.767 210.318 184.292C203.916 184.707 201.287 188.459 194.471 186.239C194.36 185.408 194.496 184.563 194.862 183.808C196.657 180.832 193.985 176.738 190.595 177.028C191.166 174.872 195.374 170.826 198.34 169.877C199.585 169.336 200.711 168.852 201.539 167.372C202.013 168.924 201.328 171.321 200.773 172.827C201.765 172.187 202.669 171.419 203.461 170.543C208.914 171.62 215.289 176.549 216.453 180.049C214.761 180.461 213.123 181.071 211.574 181.868Z" fill="black"/>
<path d="M201.629 41.9036C202.679 51.9005 194.12 58.7144 183.781 59.2647C181.427 59.2647 179.092 58.6836 177.219 57.2107C174.822 55.1971 175.433 51.355 177.057 48.8647C180.81 42.7836 199.196 33.6263 201.629 41.9036ZM196.832 50.9921C198.345 48.7698 201.24 42.8998 198.295 41.1257C193.141 40.1604 181.771 45.1007 178.617 50.7929C177.432 53.1385 177.655 55.5363 180.185 56.3119C185.692 58.5674 194.187 54.507 196.832 50.9921Z" fill="black"/>
<path d="M170.078 300.518L169.9 300.993C169.867 300.827 169.829 300.654 169.791 300.478L170.078 300.518Z" fill="black"/>
<path d="M159.265 246.196C159.701 246.265 160.127 246.336 160.55 246.412C160.123 246.353 159.696 246.282 159.265 246.196Z" fill="black"/>
<path d="M150.281 96.0543C157.185 103.288 152.207 112.839 143.819 117.526C134.722 122.677 121.659 124.06 112.716 118.728C107.227 115.583 103.491 107.375 107.479 102.235C111.637 97.7644 116.962 101.025 123.038 99.7661C133.733 99.4269 141.675 88.7518 150.281 96.0543ZM148.439 110.709C151.673 106.756 152.491 101.566 148.724 97.7454C145.765 94.9278 142.716 95.5421 139.518 96.8275C139.447 96.4543 139.342 96.0883 139.205 95.7342C132.654 99.1139 121.817 102.237 113.183 101.006C113.29 101.399 113.424 101.785 113.584 102.159C111.884 102.133 110.264 102.356 109.226 103.739C106.293 107.889 109.601 114.281 113.915 116.769C116.091 118.047 118.484 118.914 120.973 119.326C120.772 119.673 120.593 120.033 120.435 120.402C127.673 121.825 136.652 120.464 143.816 116.2C143.6 115.873 143.363 115.561 143.105 115.265C145.123 114.051 146.926 112.51 148.439 110.704V110.709Z" fill="black"/>
<path d="M143.114 115.266C143.372 115.561 143.61 115.873 143.826 116.2C136.661 120.469 127.683 121.833 120.445 120.403C120.602 120.033 120.782 119.674 120.983 119.326C127.806 120.517 136.559 119.283 143.114 115.266Z" fill="black"/>
<path d="M137.704 57.1582C149.907 61.5767 142.197 83.1025 129.964 78.7622C117.761 74.3318 125.471 52.8061 137.704 57.1582ZM140.549 66.8419C142.294 61.7356 136.351 59.6034 134.454 64.6552C132.702 69.752 138.648 71.8842 140.542 66.8324L140.549 66.8419ZM130.736 70.9521C131.922 67.4965 128.636 66.3178 127.36 69.7402C126.166 73.1863 129.447 74.365 130.729 70.9426L130.736 70.9521Z" fill="black"/>
<path d="M140.07 247.797C141.429 248.912 141.638 250.864 140.277 252.028L140.293 252.095C136.431 254.63 130.265 251.77 128.676 247.681C127.358 243.616 131.874 242.511 134.715 244.176C133.188 244.14 130.865 244.133 130.262 245.758C133.755 245.25 138.117 247.356 139.802 250.518C140.518 249.827 140.383 248.713 140.07 247.797Z" fill="black"/>
<path d="M139.518 96.8232C140.502 102.115 133.299 105.836 123.053 106.372C117.043 106.69 114.641 104.61 113.584 102.155C114.169 102.155 114.769 102.2 115.357 102.231C118.012 102.42 120.679 102.359 123.323 102.051C129.179 101.32 133.517 99.4274 137.007 97.9047C137.854 97.5324 138.693 97.1553 139.518 96.8232Z" fill="white"/>
<path d="M139.205 95.7295C139.342 96.0837 139.447 96.4496 139.518 96.8229C138.69 97.1549 137.858 97.5344 137.007 97.9044C133.52 99.427 129.184 101.32 123.323 102.05C120.679 102.359 118.012 102.419 115.357 102.23C114.769 102.2 114.171 102.162 113.584 102.154C113.424 101.78 113.29 101.395 113.183 101.002C121.817 102.233 132.654 99.1092 139.205 95.7295Z" fill="black"/>
<path d="M130.725 117.294C132.484 111.447 139.392 110.928 143.115 115.261C136.569 119.293 127.806 120.517 120.976 119.321C121.937 117.7 123.292 116.347 124.915 115.389C126.538 114.432 128.376 113.9 130.26 113.843C130.218 115.011 130.375 116.178 130.725 117.294Z" fill="#F28475"/>
<path d="M94.0646 83.1878C96.2647 86.373 89.6501 86.0576 89.5079 85.6615C89.3656 85.2654 92.6492 81.1363 94.0646 83.1878Z" fill="black"/>
<path d="M66.8572 75.5889C69.3228 75.2308 68.5357 80.4486 68.1469 80.6122C67.7581 80.7759 63.0165 76.1439 66.8572 75.5889Z" fill="black"/>
<path d="M57.4071 212.506C58.9363 213.898 58.8652 215.589 57.611 216.737L57.6276 216.806L57.4024 216.91C54.9083 218.571 51.4137 217.603 49.0761 216.042C43.6113 212.675 45.3444 205.844 52.0443 208.887C50.5104 208.752 47.8717 209.098 47.5896 210.469C50.949 209.923 55.5318 212.108 57.1321 215.229C57.8481 214.491 57.7462 213.583 57.4071 212.506ZM47.7413 212.001C49.6546 214.29 52.7888 215.708 55.7452 215.888C54.5859 213.633 51.1292 211.887 48.6564 211.916C48.3494 211.914 48.043 211.942 47.7413 211.999V212.001Z" fill="black"/>
</g>
<defs>
<clipPath id="clip0_1932_1546">
<rect width="220" height="301" fill="white"/>
</clipPath>
</defs>
</svg>
