<svg width="191" height="268" viewBox="0 0 191 268" fill="none" xmlns="http://www.w3.org/2000/svg">
<g clip-path="url(#clip0_1932_704)">
<path d="M184.79 22.9663C187.253 25.9907 188.568 29.7873 188.504 33.6865C188.439 37.5857 186.999 41.3369 184.438 44.2784C181.876 47.2199 178.357 49.1628 174.502 49.7642C170.647 50.3656 166.704 49.5869 163.367 47.5655C163.177 47.449 162.958 47.3876 162.735 47.3881C162.645 47.388 162.555 47.3975 162.467 47.4165L156.259 48.8079L157.959 43.0149C158.007 42.8519 158.021 42.6807 157.998 42.5124C157.976 42.344 157.918 42.1822 157.829 42.0375C155.651 38.4581 154.912 34.1859 155.762 30.0833C156.612 25.9808 158.988 22.3532 162.409 19.9329C165.831 17.5126 170.044 16.4797 174.197 17.0427C178.351 17.6057 182.137 19.7227 184.79 22.9663ZM177.883 33.9892C178.249 33.624 178.539 33.1901 178.738 32.7126C178.936 32.2351 179.038 31.7232 179.038 31.2063C179.038 30.6894 178.936 30.1775 178.738 29.7C178.539 29.2225 178.249 28.7886 177.883 28.4234C176.347 26.8852 173.858 27.162 172.314 28.6979L172.078 28.9345L171.841 28.6979C170.302 27.162 167.816 26.8852 166.27 28.4234C165.904 28.7888 165.614 29.2227 165.416 29.7002C165.218 30.1777 165.116 30.6894 165.116 31.2063C165.116 31.7231 165.218 32.2349 165.416 32.7124C165.614 33.1899 165.904 33.6238 166.27 33.9892L166.507 34.2259L171.341 39.0582C171.438 39.155 171.552 39.2318 171.678 39.2842C171.805 39.3366 171.94 39.3636 172.077 39.3636C172.213 39.3636 172.348 39.3366 172.475 39.2842C172.601 39.2318 172.715 39.155 172.812 39.0582L177.646 34.2259L177.883 33.9892Z" fill="white"/>
<path d="M186.594 72.1245L185.214 73.8331C184.497 72.8551 183.548 72.0711 182.453 71.5518L183.805 69.9308C184.657 69.8409 185.306 69.9639 185.739 70.3023C186.172 70.6407 186.468 71.2513 186.594 72.1245Z" fill="white"/>
<path d="M184.091 75.2011L169.336 93.3281C168.78 92.0925 168.013 90.9627 167.07 89.9891L181.316 72.9033C182.469 73.3435 183.444 74.1511 184.091 75.2011Z" fill="white"/>
<path d="M174.206 119.118C174.576 120.157 174.206 121.787 173.094 123.964C173.048 124.057 173.018 124.157 173.006 124.26C172.947 124.821 172.885 125.367 172.819 125.905C167.006 126.671 162.048 123.524 157.344 119.21C157.749 118.625 158.166 118.053 158.606 117.494C158.698 117.376 158.757 117.236 158.778 117.088C158.799 116.939 158.78 116.788 158.724 116.649C158.289 115.568 158.568 114.756 158.847 114.505C158.899 114.451 158.968 114.418 159.042 114.412C159.117 114.406 159.191 114.427 159.25 114.472C159.33 114.513 159.417 114.541 159.506 114.555C159.477 114.735 159.439 114.915 159.397 115.102C159.36 115.257 159.366 115.419 159.417 115.57C159.467 115.721 159.558 115.854 159.681 115.956C163.379 119.016 168.678 120.109 172.869 120.722C172.91 120.724 172.951 120.724 172.992 120.722C173.211 120.722 173.422 120.638 173.581 120.487C173.739 120.336 173.834 120.129 173.844 119.91C173.865 119.458 173.884 119.009 173.901 118.559C174.034 118.727 174.137 118.916 174.206 119.118Z" fill="white"/>
<path d="M169.852 233.902C171.91 235.189 172.8 236.768 172.592 238.801C169.464 238.848 166.342 239.052 163.235 239.411C162.851 238.157 163.18 236.197 164.232 233.457H164.255L168.065 233.41C168.696 233.398 169.317 233.569 169.852 233.902Z" fill="white"/>
<path d="M172.282 92.7646C172.937 95.7652 172.717 98.8534 171.616 102.155C171.577 102.273 171.564 102.399 171.578 102.524C172.143 107.308 172.366 112.127 172.246 116.943V116.976C172.229 117.615 172.21 118.256 172.184 118.902C168.541 118.322 164.258 117.316 161.165 114.969C161.324 114.109 161.332 113.228 161.187 112.366L161.407 112.382C161.662 112.409 161.92 112.382 162.164 112.305C162.408 112.228 162.634 112.101 162.828 111.933C161.954 111.46 161.263 111.37 160.484 110.868C159.864 110.475 159.265 110.05 158.689 109.595C158.014 106.828 156.321 103.915 153.13 105.196C151.311 104.45 152.142 102.23 153.71 101.445C154.389 101.109 155.007 101.137 155.796 101C155.218 100.29 154.197 100.302 153.383 100.543C153.253 98.7209 153.506 97.0881 155.67 96.6905C156.357 96.5533 157.091 96.4539 157.929 95.9593C157.348 95.4696 156.617 95.1917 155.857 95.1713C155.979 94.8081 156.138 94.4584 156.331 94.1277C156.991 92.9728 158.059 92.7338 159.378 92.7078C160.088 92.7338 160.822 92.7693 161.838 92.1895C161.666 91.8579 161.428 91.5653 161.138 91.3299C160.848 91.0946 160.512 90.9216 160.152 90.8217C161.128 88.8883 163.625 89.3498 165.252 90.5851C165.288 90.6266 165.326 90.6654 165.368 90.701C165.423 90.7471 165.485 90.7854 165.55 90.8146C166.971 91.9458 168.091 93.581 168.832 95.2706C169.092 95.8812 169.334 96.4846 170.016 97.0218C170.25 96.4141 170.26 95.7426 170.042 95.1287C170.078 95.1027 170.111 95.0734 170.141 95.0411L172.282 92.7646Z" fill="white"/>
<path d="M172.128 240.507C171.92 240.781 171.624 240.975 171.289 241.056C165.815 242.386 155.088 243.765 144.715 245.1L141.966 245.455C141.942 245.456 141.918 245.45 141.897 245.437C141.877 245.425 141.86 245.406 141.85 245.384C141.713 245.093 141.587 244.804 141.469 244.516C152.152 242.561 163.891 240.611 172.128 240.507Z" fill="white"/>
<path d="M171.739 132.758C171.159 135.598 170.465 137.964 169.644 139.886C162.844 139.024 157.441 134.679 152.933 128.12C153.389 126.754 153.924 125.416 154.536 124.113C158.975 130.171 164.511 133.541 171.739 132.758Z" fill="white"/>
<path d="M164.994 263.958C165.02 264.391 165.041 264.824 165.055 265.257C161.299 265.829 157.51 266.162 153.712 266.253C153.306 265.873 152.901 265.495 152.497 265.12H153.279C157.685 265.125 161.561 264.734 164.994 263.958Z" fill="white"/>
<path d="M162.183 250.64C163.589 254.369 164.493 258.268 164.871 262.235C160.829 263.182 156.146 263.556 150.617 263.369C145.681 258.851 141.059 254.975 136.911 252.665C137.195 251.78 137.501 250.913 137.83 250.062C147.357 249.873 155.341 250.06 162.183 250.64Z" fill="white"/>
<path d="M163.767 225.073C163.871 225.216 163.932 225.386 163.943 225.562C163.953 225.739 163.913 225.915 163.827 226.069C162.879 227.692 161.824 228.819 160.659 229.425L158.949 228.106C160.263 227.066 161.361 225.78 162.183 224.32C162.225 224.244 162.291 224.184 162.371 224.15C162.451 224.116 162.54 224.11 162.624 224.133C163.097 224.314 163.498 224.644 163.767 225.073Z" fill="white"/>
<path d="M159.946 233.568L161.949 234.886C161.381 236.839 161.239 238.391 161.525 239.619C154.979 240.403 147.71 241.647 140.894 242.901C139.79 239.068 140.245 235.092 142.264 230.868C147.113 232.12 151.444 231.89 155.407 230.158C156.049 231.167 156.996 231.944 158.111 232.376L159.612 230.778L161.27 232.061L159.946 233.568Z" fill="white"/>
<path d="M161.163 248.15C161.333 248.538 161.498 248.926 161.655 249.315C155.047 248.782 147.393 248.605 138.341 248.777C138.429 248.569 138.517 248.359 138.606 248.153C138.658 248.038 138.742 247.941 138.848 247.874C138.954 247.807 139.078 247.772 139.203 247.774H160.566C160.692 247.772 160.815 247.807 160.921 247.874C161.026 247.94 161.111 248.037 161.163 248.15Z" fill="white"/>
<path d="M158.357 194.565C163.329 200.213 162.756 206.371 160.841 212.867C155.362 215.193 148.802 216.355 140.292 216.504C140.153 214.769 140.055 213.037 139.994 211.362C143.721 202.748 147.907 195.27 156.274 193.14L158.357 194.565Z" fill="white"/>
<path d="M160.183 214.968C159.771 216.22 159.328 217.484 158.88 218.755C157.825 221.758 156.735 224.86 156.061 227.927C152.159 230.057 147.838 230.483 142.918 229.257C141.566 226.095 140.851 222.191 140.446 218.203C148.451 218.056 154.803 217.018 160.183 214.968Z" fill="white"/>
<path d="M162.262 146.975C159.248 147.707 155.457 147.326 150.757 146.429C150.533 142.677 150.692 138.912 151.231 135.193C153.222 140.264 157.432 143.83 162.262 146.975Z" fill="white"/>
<path d="M158.329 192.48L156.925 191.519C156.828 191.452 156.717 191.406 156.601 191.384C156.485 191.362 156.365 191.364 156.25 191.391C145.347 193.926 140.875 204.724 136.546 215.165L136.376 215.56C136.313 215.712 136.194 215.834 136.043 215.9C135.891 215.966 135.721 215.97 135.566 215.912L123.965 211.589C124.211 210.327 124.487 209.051 124.794 207.76C128.414 205.365 131.115 201.882 133.601 198.389C134.463 197.177 135.313 195.959 135.706 194.42C134.375 195.287 133.48 196.448 132.545 197.582C130.362 200.154 128.075 202.805 125.501 204.996C126.46 201.487 127.607 198.031 128.937 194.645C129.05 194.357 129.117 194.053 129.136 193.744C131.068 192.885 132.325 190.942 132.562 188.367C132.609 187.857 132.568 187.342 132.441 186.845L132.948 185.028C136.942 184.824 140.896 184.503 143.839 183.537V183.734C143.848 184.186 143.98 184.627 144.222 185.01C144.464 185.393 144.805 185.703 145.21 185.906C147.222 186.912 149.351 187.799 151.231 188.571C154.417 189.889 157.701 191.249 158.329 192.48Z" fill="white"/>
<path d="M157.001 109.874L128.163 144.767C127.452 144.597 126.614 144.781 125.613 145.33C125.177 144.75 124.609 144.281 123.955 143.965C123.832 143.904 123.706 143.849 123.577 143.802L146.228 116.263L146.389 116.119L146.368 116.095L154.145 106.63C155.803 106.253 156.584 108.336 157.001 109.874Z" fill="white"/>
<path d="M152.576 121.359C153.011 121.43 153.447 121.517 153.878 121.621C150.09 128.687 148.472 137.259 149.093 147.179C149.105 147.367 149.179 147.545 149.303 147.687C149.427 147.829 149.595 147.925 149.779 147.962C150.577 148.118 151.349 148.263 152.102 148.39C151.209 148.828 150.187 148.743 148.937 148.154C147.279 147.013 145.411 146.372 143.801 145.946C143.915 145.332 143.972 144.708 143.972 144.084C143.821 141.443 143.017 138.881 141.632 136.627C141.803 139.161 142.674 141.833 142.378 144.36C141.552 142.817 140.65 141.317 139.705 139.864C139.191 139.135 138.556 138.499 137.828 137.983C137.88 138.874 138.088 139.75 138.443 140.569C140.789 145.255 143.048 149.985 144.436 155.038C142.745 154.165 140.787 153.294 138.675 152.397C139.923 151.675 140.721 150.74 141.057 149.621C141.151 149.3 141.18 148.962 141.141 148.629C141.103 148.297 140.997 147.975 140.832 147.684C140.666 147.393 140.443 147.138 140.177 146.934C139.911 146.731 139.606 146.583 139.281 146.5C136.724 145.839 133.362 146.838 130.029 147.972C130.024 147.223 129.847 146.485 129.51 145.816L149.91 121.131C150.803 121.139 151.694 121.215 152.576 121.359Z" fill="white"/>
<path d="M151.259 266.294C145.639 266.298 140.024 265.946 134.449 265.239C134.501 264.626 134.563 264.015 134.631 263.412C139.691 264.257 144.796 264.805 149.919 265.054C150.361 265.461 150.808 265.874 151.259 266.294Z" fill="white"/>
<path d="M147.741 159.22C147.9 159.371 148.015 159.562 148.074 159.773C148.133 159.984 148.134 160.208 148.077 160.419C148.029 160.616 147.928 160.797 147.785 160.94C147.641 161.084 147.462 161.186 147.265 161.236C146.318 161.472 144.926 161.333 143.15 160.805C142.951 160.745 142.736 160.76 142.547 160.847C142.358 160.934 142.208 161.088 142.125 161.278C140.647 164.7 138.336 166.896 135.417 167.635C132.102 168.47 128.229 167.398 124.789 164.688L124.63 164.89C124.58 160.074 126.91 155.201 129.758 149.853C133.13 148.696 136.573 147.551 138.848 148.14C138.953 148.167 139.051 148.214 139.137 148.28C139.224 148.345 139.296 148.427 139.35 148.521C139.401 148.612 139.434 148.712 139.445 148.816C139.456 148.919 139.447 149.024 139.416 149.124C139.104 150.175 138.038 151.006 136.248 151.597C136.083 151.652 135.939 151.755 135.834 151.894C135.73 152.033 135.67 152.2 135.664 152.373C135.657 152.547 135.703 152.718 135.797 152.865C135.89 153.011 136.026 153.125 136.187 153.192C141.09 155.239 145.66 157.241 147.741 159.22Z" fill="white"/>
<path d="M145.217 173.804C146.874 176.336 147.367 178.3 146.685 179.639C145.309 182.335 139.272 182.981 133.426 183.295L134.622 179.012C134.849 178.207 134.809 177.35 134.508 176.57C134.43 176.366 134.361 176.156 134.288 175.933C133.94 174.892 133.506 173.595 131.998 171.371C131.537 170.689 131.051 170.013 130.549 169.348C131.399 169.528 132.264 169.62 133.132 169.622C134.044 169.624 134.952 169.513 135.836 169.293C139.078 168.472 141.672 166.177 143.38 162.639C144.1 162.83 144.835 162.959 145.577 163.024C145.705 166.433 145.539 169.846 145.08 173.226C145.054 173.429 145.103 173.634 145.217 173.804Z" fill="white"/>
<path d="M143.534 116.858L121.612 143.516C121.427 143.526 121.244 143.549 121.062 143.584C116.319 141.38 111.443 139.473 106.463 137.872C105.924 136.215 104.901 134.222 102.912 134.353C101.948 134.45 101.134 134.999 100.459 135.604C99.3981 135.137 98.2754 134.825 97.1254 134.677C95.7901 134.511 94.4831 134.355 93.1549 134.715C94.3387 135.361 95.5912 135.569 96.8247 135.985C97.9945 136.35 99.1292 136.819 100.215 137.386C100.378 137.47 100.563 137.5 100.744 137.472C100.925 137.443 101.092 137.358 101.221 137.228C102.879 135.507 103.722 135.888 104.361 137.209C104.082 137.124 103.802 137.036 103.52 136.953C103.386 136.912 103.244 136.906 103.106 136.933C102.969 136.961 102.84 137.022 102.732 137.112C100.907 138.622 96.5761 142.896 95.7167 149.936C94.8478 157.111 98.153 162.348 99.6138 164.269C99.7498 164.446 99.9494 164.563 100.17 164.596L102.23 164.894C101.572 165.493 100.746 165.713 99.6706 165.59C99.3428 165.414 98.991 165.287 98.6265 165.213C94.9732 164.48 91.3413 163.358 87.1861 161.685C87.0661 161.636 86.9364 161.615 86.8071 161.624C86.6778 161.633 86.5523 161.672 86.4403 161.737C85.1878 162.461 83.4902 163.63 83.2013 165.486C83.1851 165.591 83.1892 165.699 83.2132 165.803L83.4499 166.889C83.3931 166.931 83.3339 166.974 83.2795 167.019L82.0388 168.034C74.4221 155.565 69.2536 139.343 78.4637 132.426C79.8843 132.545 81.3159 132.604 82.7586 132.604C83.9882 132.604 85.2241 132.561 86.4663 132.476C89.9867 132.223 93.4772 131.654 96.8958 130.777C99.2634 132.038 102.166 132.67 105.133 132.67C109.004 132.67 112.986 131.617 116.043 129.558C119.687 127.109 121.477 123.578 121.143 119.56C124.29 117.157 127.294 114.573 130.14 111.819C136.457 112.643 140.676 114.224 143.534 116.858Z" fill="white"/>
<path d="M142.695 72.7186C144.038 75.4945 144.182 79.1293 140.965 81.5644C139.935 78.9045 138.343 76.2967 136.187 73.7409C136.098 71.7814 135.893 69.8288 135.573 67.8934C138.374 67.4438 141.287 69.8103 142.695 72.7186Z" fill="white"/>
<path d="M136.412 254.306C139.866 256.298 143.751 259.488 147.935 263.246C143.998 262.998 139.648 262.491 134.847 261.72C135.2 259.216 135.723 256.739 136.412 254.306Z" fill="white"/>
<path d="M133.954 75.066C138.467 80.2722 140.347 85.4784 139.693 90.9661C138.625 99.9918 130.696 109.673 115.491 120.566C92.6814 132.779 74.0741 133.212 55.1708 121.986C55.0197 121.894 54.8509 121.835 54.6754 121.813C54.5 121.791 54.3219 121.806 54.1528 121.858C53.9838 121.908 53.8271 121.993 53.6922 122.106C53.5574 122.22 53.4474 122.36 53.3691 122.518C51.6407 126.023 49.3441 127.992 46.6994 128.214C43.6688 128.467 40.2879 126.347 37.4088 122.39C35.8556 119.638 36.2013 116.831 38.3416 114.87C40.3044 113.066 43.9317 112.174 47.2535 114.477C47.4142 114.589 47.5985 114.662 47.7922 114.691C47.9858 114.72 48.1836 114.704 48.3701 114.645C48.5567 114.585 48.727 114.484 48.868 114.348C49.009 114.212 49.1168 114.046 49.1831 113.862C52.3723 105.049 51.314 96.1818 46.0128 87.5064C45.5624 86.772 45.4044 85.8953 45.5701 85.05C46.5171 80.2036 48.6835 75.7002 50.7789 71.3436C52.3486 68.0708 53.8331 64.9778 54.5908 62.0931C54.9075 60.8938 54.7373 59.618 54.1172 58.5435L51.0961 53.245C51.0757 53.2134 51.0631 53.1774 51.0594 53.1399C51.0557 53.1025 51.061 53.0647 51.0748 53.0297C51.0865 52.9917 51.1066 52.9568 51.1336 52.9277C51.1607 52.8986 51.194 52.876 51.2311 52.8616C55.1377 51.2051 58.8762 49.4516 62.4892 47.769C71.2803 43.6751 78.8662 40.142 83.4523 40.2934C83.6407 40.3002 83.8283 40.2651 84.0015 40.1906C84.1747 40.1161 84.3292 40.0041 84.4538 39.8628C90.8038 32.6782 96.2115 28.1015 100.982 25.8723C101.213 25.7688 101.473 25.7483 101.717 25.8143C101.961 25.8803 102.175 26.0287 102.322 26.2344L105.845 31.0525C106.464 31.8975 107.293 32.5657 108.251 32.9906C113.178 35.1843 119.208 39.38 126.685 45.8049C127.246 46.2871 127.657 46.9193 127.869 47.6271C130.63 56.7876 133.476 67.1147 133.634 74.259C133.643 74.5572 133.756 74.8428 133.954 75.066ZM129.692 78.5612C129.179 78.9058 128.703 79.3023 128.272 79.7445C126.671 69.493 121.896 62.1594 116.737 62.1594H116.725C113.912 62.176 111.388 64.4596 110.346 66.7053C107.808 72.1837 112.129 80.2414 120.406 85.4949C120.243 85.6251 120.082 85.7623 119.933 85.9114C123.354 86.522 129.134 81.9074 129.69 78.566L129.692 78.5612ZM115.655 50.2514C116.523 50.4437 117.41 50.5334 118.299 50.5189C117.864 49.6617 117.183 48.9533 116.344 48.4837C111.253 45.8948 106.691 48.8955 104.598 53.6591C103.852 55.344 103.045 56.9722 103.525 58.8961C105.005 57.6868 105.45 56.1179 106.397 54.6365C108.644 51.0016 111.336 48.9617 115.655 50.2514ZM112.094 99.864C113.637 98.3116 114.935 96.5936 115.6 94.4543C112.217 96.4468 109.724 100.053 105.737 100.697C104.72 100.848 103.683 100.754 102.711 100.422C102.467 99.5788 102.089 98.7798 101.591 98.056C101.058 97.3461 100.083 96.9438 99.4955 96.267C99.4296 96.1507 99.3501 96.0426 99.2587 95.9452C99.3292 96.0584 99.4083 96.166 99.4955 96.267C99.9358 97.0242 99.879 98.0347 100.092 98.8228C100.698 100.5 101.014 102.267 101.027 104.05C101.044 105.075 101.015 105.962 101.252 107.02C102.379 106.05 102.924 104.694 103.033 103.265C106.35 104.043 109.802 102.309 112.094 99.864ZM94.5163 88.3299L94.6134 88.0933C92.2457 84.5862 86.767 84.5673 83.2227 86.1433C78.4377 88.3015 75.2058 94.7785 78.0257 99.5871C79.1693 97.7531 79.8914 96.0587 80.8432 94.3028C82.5005 91.2265 85.1523 89.2812 88.6351 88.8269C90.6381 88.6376 92.3665 88.8435 94.5163 88.3299ZM89.3927 67.4153C89.5016 65.6049 88.9192 63.823 88.01 62.2541C86.9848 60.7017 85.1925 59.6273 83.2747 59.7456C84.7261 61.8944 86.4663 63.2645 87.9911 65.2807C88.4646 65.9528 88.9003 66.6698 89.3927 67.4153ZM81.035 77.565C83.5234 75.0826 85.3938 71.7743 85.3559 68.1986C84.2739 69.5616 83.5589 71.1211 82.7326 72.5079C81.1012 75.2861 78.9088 77.7141 75.9635 79.0795C74.4955 79.7492 72.9353 80.1586 71.2779 80.762C74.7725 81.5737 78.4732 79.929 81.035 77.565Z" fill="white"/>
<path d="M132.92 177.174C133.088 177.616 133.111 178.1 132.986 178.556L131.25 184.763C130.999 184.512 130.718 184.292 130.415 184.107L102.031 167.003C102.929 166.636 103.69 165.999 104.209 165.181L116.126 166.908C118.186 168.347 119.665 168.02 120.66 167.256C121.137 167.659 121.736 167.89 122.36 167.912H122.53C123.274 167.855 123.951 167.422 124.517 166.622C125.487 167.316 126.525 167.909 127.616 168.392C128.672 169.653 129.664 170.966 130.587 172.327C131.965 174.358 132.356 175.529 132.669 176.471C132.756 176.717 132.825 176.949 132.92 177.174Z" fill="white"/>
<path d="M129.534 185.568C129.98 185.84 130.34 186.233 130.575 186.7C130.81 187.167 130.909 187.69 130.862 188.211C130.694 190.031 129.929 191.38 128.717 192.049C128.476 191.653 128.142 191.321 127.744 191.084C114.182 182.415 100.404 174.225 86.8213 166.757C86.2967 166.444 85.6907 166.296 85.0811 166.331L84.9177 165.602C85.0929 164.868 85.7464 164.168 86.9444 163.422C90.6121 164.922 94.41 166.081 98.2902 166.884C98.5291 166.931 98.7582 167.018 98.9673 167.142L129.534 185.568Z" fill="white"/>
<path d="M131.328 50.2585C130.997 49.125 130.661 47.9985 130.327 46.891C129.972 45.7152 129.288 44.6657 128.355 43.8667C120.686 37.2714 114.45 32.9503 109.29 30.6572C108.741 30.4123 108.265 30.0281 107.91 29.5426L104.387 24.7269C103.889 24.0408 103.168 23.549 102.348 23.3358C101.527 23.1225 100.658 23.201 99.8885 23.5579C94.8952 25.8936 89.3383 30.5318 82.9149 37.7352C77.7274 37.8465 70.1296 41.3819 61.4002 45.4522C57.8037 47.1277 54.0865 48.8599 50.2154 50.5093C49.8493 50.667 49.5204 50.9 49.2503 51.1932C48.9801 51.4863 48.7747 51.8329 48.6474 52.2106C48.5201 52.5882 48.4738 52.9885 48.5114 53.3852C48.5491 53.7819 48.6698 54.1663 48.8659 54.5133L51.8893 59.8047C52.1734 60.2986 52.25 60.8849 52.1024 61.4352C51.4087 64.0833 49.9715 67.0697 48.4586 70.2289C46.3988 74.5193 44.0667 79.3823 43.0509 84.5459C42.7614 86.0188 43.0361 87.5467 43.8204 88.8268C48.4634 96.4373 49.5927 103.88 47.2559 111.526C45.9988 110.91 44.6236 110.572 43.224 110.536C41.8245 110.5 40.4337 110.767 39.1467 111.318C34.3877 103.835 28.3147 97.372 20.6128 91.5956C20.4322 91.4595 20.2192 91.3731 19.9948 91.3447C14.947 90.791 11.218 89.1842 8.25608 86.2876C8.25493 86.2803 8.25562 86.2727 8.2581 86.2657C8.26058 86.2587 8.26477 86.2524 8.27028 86.2474L10.9291 83.7484C11.1026 83.5856 11.2272 83.3777 11.2888 83.148C11.3505 82.9183 11.3468 82.6759 11.2781 82.4482C11.2095 82.2205 11.0786 82.0164 10.9003 81.859C10.7219 81.7016 10.5031 81.597 10.2686 81.5571L4.55072 80.5798C4.54548 80.579 4.54047 80.5771 4.53605 80.5742C4.53164 80.5713 4.52794 80.5674 4.52521 80.5629C4.52249 80.5583 4.52081 80.5532 4.52031 80.548C4.51981 80.5427 4.52049 80.5374 4.52231 80.5324C5.49777 78.8759 7.25693 76.5639 9.74769 73.6342C9.90618 73.4487 10.0081 73.2216 10.0414 72.98C10.0747 72.7383 10.038 72.4922 9.93554 72.2707C9.83312 72.0493 9.66931 71.8618 9.46354 71.7306C9.25777 71.5994 9.01867 71.53 8.77459 71.5305H2.52165L2.49561 71.4926L3.14907 69.642C5.14973 64.4004 9.39018 59.5775 16.1001 54.9014C16.3341 54.7383 16.5069 54.5016 16.5908 54.229C16.6747 53.9564 16.6649 53.6636 16.5631 53.3972C16.4613 53.1308 16.2732 52.9061 16.0288 52.7588C15.7845 52.6116 15.4978 52.5503 15.2146 52.5847L8.95927 53.3467V53.2733C10.9386 49.9918 13.8853 47.4029 17.3952 45.8616C17.6614 45.7413 17.8783 45.5334 18.0098 45.2727C18.1414 45.012 18.1796 44.7141 18.1181 44.4286C18.0567 44.1431 17.8993 43.8873 17.6721 43.7037C17.4449 43.5201 17.1617 43.4198 16.8696 43.4194H10.78C10.7725 43.4105 10.7683 43.3992 10.7683 43.3875C10.7683 43.3758 10.7725 43.3645 10.78 43.3556C15.3898 38.2795 20.7762 34.3844 26.7545 31.7789C27.0076 31.6685 27.2181 31.4791 27.3546 31.239C27.491 30.999 27.546 30.7213 27.5114 30.4474C27.4767 30.1736 27.3543 29.9183 27.1623 29.7197C26.9704 29.5212 26.7193 29.3902 26.4467 29.3462L22.0665 28.6339C22.0594 28.6248 22.0556 28.6135 22.0556 28.6019C22.0556 28.5904 22.0594 28.5791 22.0665 28.57C29.0511 24.1116 35.2211 21.7901 41.4812 21.2648C41.7784 21.238 42.0569 21.1081 42.2684 20.8977C42.4799 20.6872 42.6111 20.4094 42.6392 20.1124C42.6673 19.8155 42.5906 19.518 42.4223 19.2716C42.2541 19.0253 42.0049 18.8455 41.718 18.7635L35.9527 17.1069C35.9489 17.0931 35.9504 17.0784 35.957 17.0657C35.9636 17.0529 35.9748 17.0432 35.9883 17.0383C42.7029 13.9264 50.2959 12.6225 58.5566 13.1621C58.8336 13.1803 59.109 13.1078 59.3412 12.9557C59.5734 12.8036 59.7498 12.5801 59.8436 12.319C59.9375 12.0579 59.9438 11.7733 59.8615 11.5083C59.7792 11.2433 59.6129 11.0122 59.3877 10.8501L56.073 8.46231L56.1037 8.40552C63.0386 6.08403 69.6419 5.61075 76.2879 6.96435C76.5159 7.00878 76.7517 6.9903 76.9699 6.91088C77.1882 6.83147 77.3807 6.69412 77.5267 6.51359C77.6728 6.33307 77.7669 6.11619 77.7989 5.88624C77.8309 5.65629 77.7996 5.42198 77.7085 5.20845L76.5886 2.60536C76.5842 2.59682 76.5832 2.58694 76.5859 2.57771C76.5885 2.56849 76.5946 2.56061 76.6028 2.55566C81.8116 2.79231 87.4087 4.3163 93.2449 7.08977C93.4788 7.20096 93.741 7.23865 93.9968 7.19789C94.2525 7.15712 94.49 7.0398 94.6777 6.86141C94.8654 6.68302 94.9946 6.45195 95.0482 6.19867C95.1018 5.9454 95.0774 5.68183 94.978 5.44273L94.5495 4.39913C94.5495 4.38729 94.5708 4.36363 94.585 4.36363C98.9675 6.09587 103.376 9.68813 107.728 15.0458C107.894 15.2505 108.12 15.3986 108.374 15.4699C108.628 15.5413 108.898 15.5322 109.147 15.4441C109.396 15.3559 109.611 15.193 109.764 14.9776C109.916 14.7622 109.998 14.505 109.998 14.2412V10.2182C109.998 10.2123 109.999 10.2065 110.002 10.2012C110.004 10.1958 110.008 10.1911 110.013 10.1874C110.017 10.1838 110.023 10.1812 110.028 10.18C110.034 10.1788 110.04 10.1789 110.046 10.1804C114.838 13.4011 119.405 18.4463 123.619 25.1836C123.766 25.4189 123.986 25.6 124.244 25.6995C124.503 25.7989 124.788 25.8114 125.054 25.735L127.682 24.9825C127.693 24.9804 127.703 24.9824 127.712 24.9882C127.721 24.9939 127.727 25.0029 127.73 25.0132C129.865 31.6487 131.042 39.813 131.328 50.2585Z" fill="white"/>
<path d="M127.898 146.483C128.047 146.609 128.404 147.105 128.326 148.921C125.158 154.863 122.585 160.256 122.966 165.824C122.829 166.012 122.629 166.144 122.402 166.196C122.123 166.219 121.716 165.959 121.256 165.486C121.177 165.403 121.082 165.338 120.976 165.293C120.871 165.248 120.758 165.225 120.643 165.225H120.619C120.5 165.228 120.383 165.256 120.276 165.308C120.169 165.359 120.074 165.433 119.997 165.524C119.758 165.845 119.412 166.071 119.021 166.16C118.297 157.132 120.75 150.506 124.564 146.871C124.617 146.981 124.693 147.079 124.787 147.157C124.881 147.235 124.99 147.292 125.108 147.324C125.226 147.356 125.35 147.362 125.47 147.342C125.591 147.322 125.706 147.276 125.807 147.207C126.943 146.445 127.611 146.322 127.855 146.459L127.898 146.483Z" fill="white"/>
<path d="M126.624 192.896C126.785 192.993 126.906 193.144 126.966 193.322C127.026 193.501 127.02 193.694 126.95 193.869C123.624 202.369 121.536 210.791 120.75 218.896C120.737 219.004 120.708 219.109 120.664 219.209L120.629 219.168C119.859 218.29 116.341 215.81 116.187 215.552C115.675 214.648 115.056 213.808 114.343 213.051C114.284 212.993 114.214 212.947 114.137 212.915C114.06 212.884 113.978 212.868 113.895 212.869H112.513L106.463 209.319L107.017 199.354C107.026 199.222 106.993 199.091 106.924 198.979C106.854 198.866 106.752 198.778 106.631 198.726C106.509 198.674 106.374 198.661 106.245 198.689C106.116 198.717 105.999 198.784 105.909 198.881C103.873 201.077 101.077 202.385 98.1955 203.176V200.741C98.1951 200.633 98.1675 200.527 98.1151 200.432C98.0628 200.338 97.9874 200.258 97.896 200.2C97.8047 200.143 97.7002 200.109 97.5924 200.103C97.4846 200.096 97.3768 200.117 97.2792 200.163L94.5375 201.479C92.5652 198.512 89.582 196.398 86.4401 194.818L88.4976 189.316C88.5413 189.194 88.5473 189.062 88.5151 188.937C88.4828 188.812 88.4137 188.7 88.3167 188.615C88.2196 188.529 88.0992 188.475 87.9711 188.459C87.8429 188.443 87.7129 188.466 87.5979 188.525L81.6835 191.682C80.2635 189.93 78.6271 188.364 76.8133 187.023C75.0565 185.754 70.693 182.427 68.1714 181.161L68.0862 181.121V181.033C68.0865 180.967 68.1049 180.901 68.1396 180.845C68.1742 180.788 68.2237 180.742 68.2827 180.711C72.5302 178.48 78.447 173.74 84.6431 168.668C84.8005 168.542 84.9935 168.468 85.1952 168.456C85.3968 168.445 85.597 168.497 85.7677 168.604C89.0461 170.408 92.334 172.252 95.6313 174.137C94.8737 174.771 94.1468 175.436 93.427 176.116C92.4516 177.062 91.4145 177.921 90.7445 179.159C92.0751 178.686 93.079 177.812 94.1823 177.003C95.0939 176.307 95.9912 175.583 96.8483 174.835L97.3976 175.15C96.4987 176.341 95.671 177.584 94.9187 178.872C96.1499 177.901 97.3209 176.855 98.4251 175.742C104.197 179.074 109.97 182.517 115.742 186.071C115.269 186.615 114.838 187.188 114.411 187.77C113.784 188.595 113.249 189.486 112.818 190.428C114.338 189.408 115.702 188.174 116.869 186.765L117.504 187.157C116.289 188.842 115.205 190.638 114.523 192.6C116.152 191.256 117.466 189.595 118.631 187.846C121.298 189.514 123.963 191.197 126.624 192.896Z" fill="white"/>
<path d="M122.388 70.0068C123.465 71.8763 123.633 73.7932 122.764 74.2996C121.896 74.806 120.314 73.6938 119.234 71.8266C118.155 69.9595 117.987 68.0403 118.858 67.5363C119.729 67.0322 121.308 68.1397 122.388 70.0068Z" fill="white"/>
<path d="M121.138 80.1716C121.778 79.5321 121.362 78.0794 120.209 76.927C119.056 75.7746 117.602 75.3588 116.962 75.9983C116.323 76.6378 116.739 78.0905 117.892 79.2429C119.045 80.3953 120.498 80.8111 121.138 80.1716Z" fill="white"/>
<path d="M120.423 219.28L120.582 219.358C120.502 219.478 120.395 219.579 120.269 219.651L116.677 221.736C116.576 221.794 116.461 221.824 116.345 221.821C116.228 221.818 116.115 221.783 116.017 221.719L102.405 212.9C102.295 212.829 102.205 212.732 102.144 212.617C102.082 212.501 102.052 212.372 102.055 212.242L102.176 206.16C102.18 205.942 102.118 205.727 101.996 205.546C101.874 205.365 101.7 205.225 101.496 205.147C101.374 205.1 101.244 205.075 101.112 205.074C100.961 205.074 100.811 205.106 100.672 205.169C100.534 205.231 100.41 205.322 100.31 205.436L97.2485 208.922C97.1252 209.059 96.9565 209.148 96.7731 209.172C96.5897 209.196 96.4039 209.153 96.2493 209.052L91.1542 205.644C91.0677 205.587 90.9986 205.507 90.9543 205.413C90.9101 205.319 90.8924 205.215 90.9032 205.112L91.0879 203.249C91.1064 203.062 91.0748 202.873 90.9963 202.702C90.9178 202.53 90.7954 202.383 90.6413 202.274C90.4873 202.166 90.3072 202.1 90.1194 202.084C89.9317 202.068 89.743 202.102 89.5726 202.182L87.8442 202.998C87.7302 203.052 87.6037 203.073 87.4785 203.06C87.3533 203.046 87.2341 202.999 87.1339 202.923L76.4061 194.692C76.3386 194.64 76.2838 194.574 76.246 194.497C76.2082 194.421 76.1885 194.337 76.1883 194.252V191.793C76.1878 191.618 76.1443 191.446 76.0616 191.292C75.9789 191.138 75.8596 191.006 75.7142 190.909C75.5687 190.812 75.4016 190.752 75.2274 190.734C75.0533 190.717 74.8776 190.742 74.7157 190.809L73.1222 191.467C73.0423 191.499 72.9554 191.51 72.87 191.499C72.7846 191.487 72.7035 191.454 72.6345 191.403L68.3443 188.187C68.2654 188.127 68.2012 188.051 68.1569 187.962C68.1125 187.874 68.0892 187.777 68.0886 187.678V181.336L70.6575 183.229C72.5114 184.746 74.4457 186.168 76.2262 187.763C78.0039 189.289 79.6057 191.008 81.0017 192.889C81.0938 193.011 81.2262 193.096 81.3754 193.13C81.5247 193.163 81.6809 193.142 81.8162 193.071L86.7125 190.468L85.0362 194.919C84.9808 195.069 84.9831 195.234 85.0427 195.381C85.1022 195.529 85.2147 195.65 85.3582 195.719C87.0356 196.511 88.6231 197.481 90.0935 198.611C91.5431 199.723 92.7813 201.085 93.7491 202.634C93.8335 202.768 93.964 202.866 94.116 202.909C94.2679 202.953 94.4306 202.939 94.5731 202.871L96.9099 201.749V203.999C96.9101 204.096 96.9322 204.191 96.9744 204.278C97.0167 204.365 97.078 204.441 97.1539 204.5C97.2298 204.56 97.3182 204.602 97.4124 204.622C97.5067 204.643 97.6045 204.642 97.6984 204.619C99.393 204.224 101.037 203.637 102.599 202.871C103.689 202.328 104.712 201.66 105.647 200.88L105.173 209.636C105.166 209.754 105.192 209.87 105.248 209.974C105.303 210.077 105.386 210.164 105.488 210.223L112.023 214.057C112.12 214.115 112.231 214.145 112.345 214.144H113.58C114.139 214.873 114.768 215.545 115.458 216.151C115.666 216.362 119.23 218.66 120.423 219.28Z" fill="white"/>
<path d="M116.914 122.693C117.476 122.291 118.029 121.889 118.572 121.489C118.212 124.381 116.329 126.278 114.622 127.426C110.893 129.937 105.389 130.713 100.987 129.608C106.033 127.999 111.27 125.729 116.772 122.781C116.822 122.752 116.869 122.724 116.914 122.693Z" fill="white"/>
<path d="M113.713 142.278C115.607 143.026 117.451 143.807 119.244 144.623C115.067 149.559 112.293 155.653 113.228 164.766L106.861 163.843C106.21 154.501 109.125 147.775 113.713 142.278Z" fill="white"/>
<path d="M101.245 214.682L109.859 220.26C109.479 222.117 108.777 223.892 107.782 225.506C107.673 225.68 107.524 225.825 107.348 225.93C107.172 226.035 106.973 226.098 106.769 226.112C96.5879 226.85 76.6997 223.338 75.9681 215.602C75.9361 215.227 76.024 214.851 76.2191 214.528C77.4692 212.462 78.0374 209.94 78.6412 207.27C79.1455 205.041 79.6664 202.75 80.6111 200.616L85.8341 204.62C86.2452 204.937 86.7363 205.135 87.2528 205.19C87.7693 205.246 88.2912 205.157 88.7605 204.934H88.7842C88.7366 205.419 88.8216 205.908 89.0301 206.349C89.2385 206.789 89.5627 207.165 89.968 207.436L95.0631 210.832C95.6481 211.221 96.3544 211.385 97.051 211.293C97.7477 211.201 98.3874 210.86 98.8514 210.332L99.9902 209.038L99.9144 212.195C99.9042 212.689 100.021 213.177 100.254 213.612C100.487 214.048 100.828 214.416 101.245 214.682Z" fill="white"/>
<path d="M103.478 138.719C104.782 139.116 106.072 139.53 107.349 139.959C102.377 146.729 99.7725 154.231 101.408 163.053L100.767 162.961C99.3463 161.013 96.6543 156.377 97.4119 150.142C97.9728 145.722 100.13 141.66 103.478 138.719Z" fill="white"/>
<path d="M101.015 227.839C100.743 229.695 99.0314 232.837 96.8958 236.33C91.6396 236.183 85.3559 233.445 77.2207 227.757C77.9136 225.944 78.6571 224.178 79.451 222.46C84.9511 225.759 93.8037 227.477 101.015 227.839Z" fill="white"/>
<path d="M98.9912 262.515C98.9912 262.844 98.9793 263.185 98.9557 263.535C90.6973 266.611 80.784 265.795 69.4738 261.076C69.4596 260.733 69.4501 260.39 69.4478 260.042C75.2072 262.543 81.4203 263.832 87.6999 263.828C91.501 263.815 95.2885 263.374 98.9912 262.515Z" fill="white"/>
<path d="M93.4248 254.893C96.6614 255.721 98.4442 257.628 98.8822 260.792C92.1818 262.359 85.8176 262.569 79.657 261.417C79.4427 260.558 79.4224 259.662 79.5978 258.795C79.7884 258.03 80.1977 257.337 80.7759 256.801C81.354 256.265 82.0759 255.908 82.8533 255.775C86.0283 255.172 89.7644 254.597 93.4248 254.893Z" fill="white"/>
<path d="M95.8728 237.984C95.1862 239.082 94.4735 240.199 93.768 241.309C92.8209 242.778 91.8739 244.281 90.9528 245.77C91.5921 243.484 90.7374 242.154 90.0058 241.482C88.159 239.768 84.4466 239.879 82.0624 241.718C80.1801 243.174 79.6213 245.353 80.4737 247.691C77.6846 247.985 74.9689 247.322 72.2153 245.68C73.2356 240.144 74.7012 234.699 76.5978 229.398C84.4726 234.865 90.5243 237.565 95.8728 237.984Z" fill="white"/>
<path d="M92.1509 253.12C91.5424 253.103 90.9339 253.12 90.3278 253.12C88.6396 252.675 85.8932 252.684 82.891 252.805C82.8151 253.208 82.8453 253.624 82.9786 254.012L82.5335 254.095C81.4299 254.291 80.4073 254.804 79.5907 255.571C78.7741 256.338 78.199 257.327 77.9355 258.416C77.749 259.279 77.7225 260.168 77.8574 261.04C74.9819 260.367 72.1789 259.416 69.4878 258.201C69.6654 254.809 70.4088 251.234 71.7323 247.376C74.8813 249.163 78.0137 249.802 81.2597 249.322C81.3852 250.088 81.7332 251.182 81.899 251.149C84.8135 250.564 87.3588 250.439 89.4612 250.827C89.6317 250.325 89.4967 249.786 89.1724 249.229C89.567 249.263 89.949 249.385 90.2899 249.587C91.0694 250.674 91.6956 251.862 92.1509 253.12Z" fill="white"/>
<path d="M88.8529 242.731C89.8308 243.637 89.6413 245.306 88.3273 247.464C85.8934 247.142 83.9188 247.13 82.1998 247.421C81.2315 245.192 82.1336 243.836 83.1138 243.079C84.7948 241.773 87.6383 241.614 88.8529 242.731Z" fill="white"/>
<path d="M186.738 21.4331C189.002 24.2139 190.432 27.5789 190.862 31.1384C191.291 34.6978 190.704 38.3061 189.166 41.5455C187.629 44.7848 185.205 47.5227 182.175 49.4421C179.146 51.3615 175.634 52.3839 172.047 52.3909C171.387 52.3907 170.728 52.3575 170.072 52.2915C167.434 52.0258 164.881 51.2065 162.581 49.8872L154.827 51.6242C154.62 51.6706 154.405 51.6623 154.203 51.6001C154 51.538 153.818 51.424 153.673 51.2696C153.528 51.1152 153.426 50.9257 153.376 50.7197C153.327 50.5138 153.333 50.2986 153.392 50.0954L155.523 42.8257C153.156 38.6892 152.432 33.8138 153.496 29.1685C154.56 24.5232 157.334 20.448 161.266 17.753C165.198 15.0579 170.001 13.9402 174.72 14.622C179.439 15.3039 183.728 17.7353 186.736 21.4331H186.738ZM188.478 35.1016C188.748 32.4886 188.391 29.8491 187.437 27.4014C186.483 24.9537 184.96 22.7681 182.993 21.0255C181.026 19.2829 178.673 18.0333 176.127 17.3801C173.582 16.7269 170.917 16.6889 168.354 17.2691C165.791 17.8494 163.403 19.0313 161.387 20.7171C159.371 22.4028 157.786 24.544 156.763 26.9635C155.74 29.383 155.307 32.0112 155.502 34.6309C155.696 37.2505 156.512 39.7862 157.881 42.0282C157.97 42.1733 158.026 42.3351 158.049 42.5034C158.071 42.6717 158.057 42.8427 158.009 43.0056L156.309 48.7986L162.52 47.4072C162.607 47.3882 162.696 47.3787 162.785 47.3788C163.008 47.3779 163.227 47.4394 163.417 47.5563C165.805 49.0051 168.521 49.8264 171.312 49.9438C174.103 50.0613 176.878 49.471 179.38 48.2279C181.881 46.9848 184.027 45.1294 185.618 42.8343C187.209 40.5392 188.193 37.8791 188.478 35.1016Z" fill="black"/>
<path d="M188.393 72.3068C188.254 70.7639 187.733 69.6351 186.85 68.9465C185.966 68.2579 184.78 68.0425 183.298 68.2768C183.094 68.309 182.908 68.4141 182.775 68.5726L180.457 71.3532C180.457 71.3532 180.457 71.3532 180.457 71.365L165.856 88.8767C163.31 87.1161 159.548 87.1705 158.461 90.616C157.87 90.6448 157.286 90.7563 156.726 90.9473C154.865 91.5816 153.897 93.7113 153.935 95.5335C153.057 95.8801 152.347 96.5514 151.953 97.4077C151.361 98.6525 151.479 100.21 151.834 101.445H151.887C150.925 102.323 150.364 103.648 150.797 104.94C151.038 105.602 151.502 106.159 152.109 106.516L145.222 114.891C141.616 111.642 136.786 110.272 132.41 109.557C138.329 103.203 141.599 97.1522 142.295 91.2763C142.616 88.5845 142.38 85.8555 141.602 83.2588C146.119 80.2321 145.934 75.3809 144.294 71.985C142.586 68.4566 138.95 65.6358 135.351 66.2227C134.977 64.1615 134.508 62.0128 133.978 59.8333C134.257 44.3497 133.061 33.0357 130.22 24.2207C130.017 23.5774 129.57 23.0391 128.975 22.7208C128.38 22.4024 127.684 22.3292 127.036 22.5168L125.329 23.0043C121.067 16.3783 116.424 11.3377 111.528 8.04837C111.137 7.78952 110.683 7.64138 110.215 7.61971C109.747 7.59805 109.282 7.70367 108.869 7.92534C108.456 8.147 108.111 8.47642 107.87 8.87854C107.63 9.28066 107.503 9.74044 107.503 10.2089V10.7958C103.596 6.53621 99.6019 3.57342 95.5959 1.99027C95.1258 1.79908 94.6092 1.75326 94.1128 1.85873C93.6164 1.96421 93.1631 2.21612 92.8115 2.58188C92.4873 2.91 92.256 3.31833 92.1415 3.7651C86.8025 1.48622 81.6457 0.222535 76.785 8.8586e-05C76.3499 -0.0211039 75.9166 0.0695788 75.5265 0.263473C75.1365 0.457366 74.8027 0.747993 74.557 1.10759C74.3046 1.46865 74.1488 1.88826 74.1045 2.3265C74.0602 2.76473 74.1287 3.20702 74.3037 3.61129L74.4955 4.05854C68.1881 3.15929 61.9043 3.7864 55.3483 5.99193C54.9071 6.14341 54.5146 6.4106 54.212 6.76556C53.9094 7.12052 53.7077 7.55022 53.6281 8.00973C53.5485 8.46925 53.5938 8.9417 53.7594 9.37769C53.925 9.81369 54.2048 10.1972 54.5694 10.4882C47.4925 10.545 40.9152 11.9625 34.9724 14.717C34.4948 14.9417 34.0967 15.3061 33.831 15.762C33.5653 16.2179 33.4445 16.7437 33.4845 17.2698C33.5246 17.7959 33.7236 18.2974 34.0553 18.7079C34.387 19.1184 34.8356 19.4184 35.3418 19.5682L35.6354 19.6511C30.8551 20.8343 26.0133 23.0493 20.7547 26.4049C20.3208 26.6922 19.983 27.1029 19.7849 27.584C19.5868 28.065 19.5374 28.5944 19.6431 29.1038C19.7489 29.6131 20.0049 30.0792 20.3782 30.4417C20.7515 30.8043 21.2249 31.0467 21.7373 31.1378L22.1327 31.204C17.182 33.9097 12.7229 37.4297 8.94257 41.6164C8.60744 41.9893 8.38718 42.4511 8.30824 42.9461C8.2293 43.4411 8.29504 43.9484 8.49757 44.407C8.70011 44.8656 9.03081 45.256 9.44995 45.5313C9.86909 45.8066 10.3588 45.955 10.8604 45.9588H12.236C10.066 47.5826 8.23187 49.6119 6.83537 51.9341C6.58375 52.3503 6.45376 52.8285 6.46015 53.3147C6.46653 53.8009 6.60903 54.2756 6.8715 54.685C7.13397 55.0944 7.50592 55.4221 7.94519 55.631C8.38447 55.84 8.87351 55.9218 9.35691 55.8671L10.8817 55.6802C5.90963 59.786 2.59493 64.0835 0.812093 68.7477L0.146786 70.6456C0.00942036 71.0351 -0.0325274 71.4519 0.0244583 71.861C0.081444 72.2701 0.235703 72.6595 0.474307 72.9967C0.712911 73.334 1.02891 73.6091 1.39582 73.7991C1.76273 73.9891 2.16986 74.0884 2.58309 74.0888H6.11087C4.7507 75.7137 3.50621 77.4321 2.38657 79.2311C2.17297 79.5924 2.05045 80.0001 2.02955 80.4193C2.00864 80.8384 2.09 81.2563 2.26659 81.637C2.44319 82.0178 2.70974 82.3499 3.04328 82.6048C3.37682 82.8596 3.76735 83.0297 4.18125 83.1002L7.37046 83.6469L6.58203 84.3899C6.32653 84.6303 6.12225 84.9198 5.98148 85.2411C5.8407 85.5623 5.76633 85.9087 5.76283 86.2594C5.75754 86.6046 5.82286 86.9472 5.95477 87.2662C6.08668 87.5852 6.28241 87.874 6.52995 88.1147C9.85175 91.3638 13.9691 93.1907 19.4147 93.8462C26.7259 99.3743 32.5006 105.541 37.0299 112.659C36.9068 112.764 36.7931 112.865 36.6653 112.977C33.6607 115.733 33.1138 119.946 35.2778 123.711C35.2998 123.749 35.3243 123.787 35.3512 123.822C38.8246 128.628 42.9514 131.092 46.9669 130.751C49.2682 130.559 52.4598 129.35 55.0713 124.835C62.0606 128.82 69.0404 131.248 76.1931 132.171C67.8329 140.269 73.0725 156.585 80.7673 169.109C75.6177 173.283 70.8351 176.982 67.3405 178.811C66.937 179.021 66.599 179.338 66.3635 179.727C66.128 180.116 66.004 180.562 66.0051 181.017V187.662C66.0062 188.091 66.1068 188.515 66.299 188.899C66.4913 189.283 66.7699 189.618 67.1132 189.877L71.4128 193.102C71.7772 193.375 72.206 193.548 72.6574 193.606C73.1089 193.663 73.5675 193.603 73.9888 193.431L74.1119 193.379V194.257C74.1131 194.669 74.2085 195.074 74.3907 195.444C74.5729 195.813 74.8371 196.135 75.1631 196.387L79.2805 199.546C78.1606 201.936 77.59 204.449 77.0359 206.882C76.4653 209.414 75.9231 211.806 74.8175 213.636C74.4351 214.271 74.2643 215.011 74.3297 215.749C74.5381 217.992 75.9326 219.9 78.0777 221.492C74.6825 228.786 72.1397 236.983 70.5154 245.867C68.4248 251.627 67.5583 256.804 67.8637 261.691C67.873 261.849 67.9263 262 68.0175 262.129C68.1088 262.258 68.2343 262.359 68.3798 262.42C75.6272 265.496 82.3489 267.051 88.4835 267.051C92.4688 267.087 96.4245 266.364 100.139 264.921C100.285 264.864 100.412 264.767 100.506 264.641C100.6 264.516 100.657 264.367 100.672 264.211C101.231 258.274 99.0148 254.599 94.0427 253.274C93.4366 251.177 92.4895 249.693 91.6395 248.456C91.5909 248.388 91.5335 248.328 91.4691 248.276C92.6766 246.276 93.9859 244.217 95.2573 242.218C99.0455 236.257 102.382 231.029 102.77 227.896C103.153 227.896 103.532 227.91 103.902 227.91C104.981 227.91 106.004 227.875 106.939 227.806C107.411 227.772 107.868 227.627 108.273 227.384C108.678 227.141 109.021 226.807 109.274 226.407C110.265 224.812 110.992 223.066 111.426 221.239L114.909 223.497C115.336 223.775 115.832 223.93 116.343 223.943C116.853 223.956 117.356 223.827 117.797 223.57L121.401 221.499C121.826 221.252 122.187 220.907 122.452 220.492C122.718 220.078 122.881 219.606 122.928 219.116C123.114 217.195 123.376 215.255 123.714 213.297L135.041 217.512C135.611 217.728 136.242 217.714 136.802 217.471C137.361 217.228 137.803 216.777 138.033 216.213L138.197 215.815C138.313 215.534 138.434 215.252 138.545 214.973C138.869 219.987 139.539 225.184 141.19 229.356C141.166 229.389 141.145 229.424 141.126 229.46C138.126 235.348 137.872 240.779 140.354 246.068H139.265C138.807 246.066 138.359 246.199 137.975 246.448C137.591 246.698 137.289 247.054 137.105 247.474C136.485 248.893 135.927 250.362 135.431 251.88C131.766 250.148 128.511 249.807 125.786 251.565L125.729 251.603C124.462 252.571 123.861 253.733 123.946 255.018C124.109 257.564 127.048 260.487 132.922 263.944C132.854 264.6 132.796 265.259 132.749 265.92C132.733 266.137 132.8 266.352 132.938 266.521C133.076 266.69 133.274 266.799 133.49 266.826C139.229 267.588 145.011 267.983 150.8 268.01C151.664 268.01 152.519 268.01 153.366 267.979H153.454C153.495 267.978 153.536 267.974 153.577 267.967C157.781 267.877 161.974 267.496 166.126 266.829C166.327 266.794 166.509 266.688 166.639 266.531C166.769 266.374 166.839 266.176 166.836 265.972C166.82 265.078 166.78 264.187 166.715 263.3C166.773 263.203 166.811 263.096 166.827 262.984C166.843 262.872 166.836 262.759 166.807 262.65C166.776 262.527 166.717 262.412 166.635 262.316C166.16 257.191 164.858 252.177 162.78 247.469C162.595 247.052 162.293 246.699 161.91 246.451C161.528 246.203 161.081 246.071 160.626 246.073H150.563C159.087 244.96 167.167 243.827 171.737 242.717C172.281 242.587 172.781 242.315 173.186 241.928C173.591 241.542 173.887 241.056 174.043 240.519C175.016 237.123 173.929 234.411 170.813 232.461C169.998 231.96 169.059 231.699 168.103 231.706L164.291 231.753C163.939 231.754 163.597 231.639 163.318 231.427L162.183 230.542C163.367 229.749 164.445 228.535 165.377 226.923C165.625 226.488 165.744 225.991 165.72 225.491C165.695 224.99 165.529 224.507 165.24 224.098C164.766 223.373 164.07 222.821 163.256 222.524C162.798 222.372 162.301 222.383 161.851 222.555C161.4 222.728 161.023 223.051 160.784 223.471C160.121 224.649 159.254 225.701 158.222 226.575C158.866 224.162 159.726 221.715 160.564 219.332C163.592 210.711 166.72 201.801 160.024 193.814C160.243 193.288 160.27 192.702 160.1 192.158C159.468 190.12 156.155 188.748 151.965 187.011C150.021 186.209 148.013 185.376 146.046 184.396C145.918 184.331 145.811 184.232 145.735 184.11C145.66 183.988 145.619 183.848 145.617 183.705L145.596 182.867C146.813 182.254 147.743 181.462 148.271 180.427C149.237 178.534 148.783 176.151 146.881 173.151C147.327 169.778 147.485 166.374 147.355 162.975C147.495 162.951 147.63 162.923 147.757 162.892C148.251 162.77 148.701 162.516 149.061 162.157C149.421 161.798 149.675 161.347 149.798 160.855C149.932 160.348 149.928 159.815 149.786 159.311C149.643 158.807 149.368 158.35 148.989 157.989C148.252 157.315 147.448 156.719 146.59 156.209C146.35 154.605 145.984 153.023 145.494 151.476C145.099 150.225 144.637 148.996 144.111 147.794C145.524 148.181 146.866 148.792 148.086 149.602C148.123 149.628 148.162 149.651 148.202 149.671C149.061 150.114 150.009 150.357 150.975 150.381C152.289 150.381 153.466 149.836 154.458 148.757C155.878 148.954 157.309 149.059 158.743 149.072C161.892 149.072 164.513 148.438 166.708 146.824C171.001 143.662 173.411 137.013 174.758 124.603C176.046 122.026 176.415 120.045 175.885 118.554C175.548 117.651 174.889 116.904 174.033 116.458C174.126 111.799 173.903 107.139 173.366 102.51C174.696 98.4135 174.786 94.6059 173.603 90.8692L185.839 75.8352L188.206 72.9387C188.278 72.851 188.331 72.75 188.363 72.6415C188.395 72.5331 188.405 72.4193 188.393 72.3068ZM153.781 101.44C154.458 101.104 155.078 101.133 155.867 100.995C155.286 100.285 154.268 100.297 153.454 100.539C153.321 98.7164 153.577 97.0835 155.739 96.686C156.425 96.5487 157.159 96.4493 157.997 95.9547C157.417 95.4651 156.687 95.1872 155.928 95.1667C156.049 94.8032 156.208 94.4534 156.402 94.1231C157.06 92.9683 158.13 92.7293 159.446 92.7032C160.157 92.7293 160.893 92.7648 161.909 92.185C161.737 91.853 161.498 91.5602 161.208 91.3248C160.917 91.0894 160.581 90.9166 160.221 90.8172C161.198 88.8838 163.696 89.3453 165.323 90.5805C165.357 90.6226 165.395 90.6615 165.437 90.6965C165.492 90.7426 165.553 90.7808 165.619 90.8101C167.039 91.9412 168.159 93.5765 168.9 95.2661C169.163 95.8766 169.402 96.4801 170.084 97.0173C170.319 96.4094 170.327 95.7376 170.108 95.1241C170.144 95.0961 170.178 95.0661 170.21 95.0342L172.357 92.7435C173.013 95.7441 172.793 98.8323 171.689 102.134C171.651 102.253 171.638 102.378 171.652 102.503C172.218 107.287 172.441 112.105 172.319 116.921V116.955C172.303 117.594 172.284 118.235 172.258 118.881C168.602 118.322 164.314 117.307 161.236 114.96C161.395 114.1 161.402 113.219 161.258 112.357L161.478 112.373C161.733 112.399 161.99 112.373 162.235 112.295C162.479 112.218 162.705 112.091 162.898 111.924C162.025 111.45 161.331 111.36 160.552 110.859C159.933 110.465 159.334 110.04 158.757 109.585C158.085 106.819 156.39 103.906 153.201 105.186C151.38 104.446 152.213 102.231 153.781 101.44ZM157.041 116.81C156.239 117.86 155.496 118.953 154.815 120.085C154.188 119.917 153.551 119.78 152.921 119.676C152.398 119.591 151.868 119.527 151.337 119.487L158.158 111.223C158.566 111.485 158.997 111.709 159.446 111.893C159.439 111.991 159.447 112.089 159.472 112.184C159.526 112.373 159.568 112.565 159.596 112.759C159.276 112.677 158.94 112.678 158.621 112.761C158.301 112.844 158.008 113.006 157.768 113.232C156.904 114.03 156.636 115.419 157.041 116.81ZM146.292 116.264L146.453 116.119L146.429 116.096L154.209 106.63C155.867 106.237 156.646 108.329 157.05 109.867L128.224 144.767C127.514 144.597 126.676 144.782 125.677 145.331C125.24 144.751 124.672 144.283 124.019 143.965C123.895 143.904 123.768 143.85 123.638 143.802L146.292 116.264ZM130.476 184.11L102.093 167.003C102.99 166.636 103.752 165.999 104.271 165.18L116.187 166.908C118.247 168.347 119.727 168.02 120.721 167.256C121.199 167.659 121.799 167.89 122.424 167.911H122.594C123.338 167.854 124.015 167.421 124.578 166.622C125.551 167.318 126.591 167.913 127.685 168.399C128.743 169.665 129.742 170.988 130.656 172.334C132.032 174.365 132.422 175.536 132.737 176.478C132.82 176.714 132.896 176.951 132.974 177.188C133.142 177.63 133.165 178.114 133.04 178.57L131.305 184.777C131.056 184.522 130.778 184.298 130.476 184.11ZM130.926 188.213C130.758 190.033 129.979 191.382 128.778 192.051C128.539 191.654 128.205 191.322 127.805 191.086C114.243 182.415 100.466 174.225 86.8924 166.756C86.368 166.444 85.7618 166.296 85.1522 166.33L84.9888 165.602C85.1664 164.868 85.8175 164.168 87.0179 163.422C90.6854 164.922 94.4834 166.081 98.3637 166.884C98.6001 166.931 98.8268 167.019 99.0337 167.142L129.607 185.567C130.052 185.841 130.412 186.233 130.646 186.7C130.88 187.167 130.978 187.691 130.931 188.211L130.926 188.213ZM101.472 163.048L100.831 162.956C99.4101 161.008 96.7181 156.372 97.4734 150.137C98.205 144.114 101.735 140.307 103.539 138.714C104.846 139.112 106.137 139.525 107.41 139.954C102.445 146.72 99.834 154.231 101.472 163.048ZM113.289 164.762L106.923 163.839C106.274 154.496 109.186 147.77 113.775 142.273C115.669 143.021 117.513 143.803 119.308 144.618C115.129 149.559 112.356 155.653 113.289 164.766V164.762ZM123.027 165.829C122.892 166.018 122.691 166.15 122.464 166.2C122.184 166.224 121.777 165.964 121.32 165.49C121.241 165.408 121.145 165.343 121.04 165.298C120.935 165.254 120.821 165.23 120.707 165.23H120.681C120.562 165.233 120.445 165.262 120.338 165.313C120.231 165.364 120.135 165.438 120.058 165.528C119.82 165.849 119.475 166.075 119.085 166.165C118.361 157.123 120.821 150.494 124.626 146.857C124.679 146.967 124.755 147.065 124.849 147.143C124.943 147.221 125.053 147.278 125.171 147.31C125.289 147.342 125.413 147.348 125.534 147.328C125.655 147.307 125.77 147.262 125.871 147.193C127.007 146.431 127.673 146.308 127.917 146.445L127.95 146.471C128.099 146.597 128.454 147.094 128.376 148.909C125.222 154.872 122.644 160.265 123.027 165.834V165.829ZM142.769 72.7186C144.114 75.4945 144.258 79.1293 141.04 81.5644C140.011 78.9045 138.418 76.2967 136.26 73.7409C136.173 71.7813 135.968 69.8286 135.647 67.8934C138.438 67.4438 141.348 69.8102 142.769 72.7186ZM20.6837 91.5957C20.5006 91.4578 20.284 91.3712 20.0563 91.3449C15.0108 90.7912 11.2794 89.1843 8.31988 86.2878C8.31873 86.2804 8.31943 86.2729 8.32191 86.2659C8.32439 86.2589 8.32857 86.2526 8.33409 86.2476L10.9906 83.7486C11.164 83.5858 11.2886 83.3779 11.3503 83.1482C11.4119 82.9184 11.4082 82.6761 11.3396 82.4484C11.2709 82.2207 11.1401 82.0166 10.9617 81.8592C10.7834 81.7018 10.5646 81.5972 10.33 81.5573L4.61452 80.5799C4.60908 80.5795 4.60379 80.5779 4.59909 80.5751C4.59439 80.5723 4.59039 80.5685 4.58742 80.5639C4.58444 80.5593 4.58256 80.5541 4.58192 80.5487C4.58128 80.5433 4.58191 80.5378 4.58375 80.5326C5.56158 78.8761 7.32074 76.5641 9.8115 73.6344C9.9691 73.4484 10.0702 73.2213 10.1029 72.9797C10.1355 72.7382 10.0984 72.4924 9.99588 72.2712C9.89334 72.0501 9.72967 71.8628 9.52416 71.7316C9.31865 71.6004 9.07989 71.5307 8.83603 71.5306H2.58309L2.55941 71.4928L3.21288 69.6422C5.2088 64.4006 9.45162 59.5777 16.171 54.9016C16.4069 54.7397 16.5814 54.5032 16.6667 54.2302C16.7519 53.9571 16.7429 53.6634 16.641 53.3961C16.5391 53.1289 16.3503 52.9036 16.1049 52.7564C15.8595 52.6093 15.5717 52.5489 15.2879 52.5849L9.03018 53.3469V53.2735C11.0076 49.994 13.9507 47.4053 17.4566 45.8618C17.7226 45.7415 17.9394 45.5339 18.071 45.2734C18.2026 45.0129 18.241 44.7153 18.1798 44.4299C18.1187 44.1446 17.9617 43.8888 17.7349 43.705C17.5082 43.5212 17.2253 43.4205 16.9334 43.4196H10.8414C10.835 43.4102 10.8316 43.3991 10.8316 43.3877C10.8316 43.3763 10.835 43.3652 10.8414 43.3557C15.4607 38.2797 20.8352 34.3845 26.8206 31.7791C27.0747 31.6696 27.2864 31.4806 27.4239 31.2406C27.5614 31.0005 27.6173 30.7224 27.5831 30.4479C27.549 30.1734 27.4266 29.9175 27.2345 29.7184C27.0424 29.5193 26.7908 29.388 26.5176 29.344L22.1303 28.6341C22.1232 28.6249 22.1194 28.6137 22.1194 28.6021C22.1194 28.5906 22.1232 28.5793 22.1303 28.5702C29.1149 24.1118 35.285 21.7903 41.545 21.265C41.8435 21.2396 42.1236 21.1102 42.3364 20.8995C42.5492 20.6888 42.6812 20.41 42.7094 20.1119C42.7376 19.8139 42.6602 19.5153 42.4906 19.2685C42.3211 19.0216 42.0702 18.8421 41.7818 18.7613L36.0165 17.1048C36.0131 17.0923 36.0135 17.079 36.0177 17.0668C36.0219 17.0545 36.0298 17.0438 36.0402 17.0361C42.7549 13.9243 50.3455 12.6203 58.6086 13.1599C58.8854 13.1775 59.1604 13.1046 59.3922 12.9523C59.6239 12.8 59.7998 12.5765 59.8934 12.3156C59.9869 12.0546 59.993 11.7703 59.9107 11.5055C59.8285 11.2408 59.6623 11.01 59.4373 10.8479L56.1226 8.46013L56.1533 8.40334C63.0905 6.08185 69.6939 5.60857 76.3375 6.96217C76.5655 7.0066 76.8013 6.98812 77.0195 6.9087C77.2378 6.82929 77.4303 6.69194 77.5763 6.51141C77.7224 6.33089 77.8165 6.11401 77.8485 5.88406C77.8805 5.65411 77.8493 5.4198 77.7581 5.20627L76.6382 2.60318C76.634 2.59436 76.6334 2.58426 76.6365 2.575C76.6396 2.56575 76.6461 2.55804 76.6548 2.55348C81.8636 2.79013 87.4583 4.31412 93.2945 7.08759C93.5286 7.20369 93.7926 7.24532 94.0511 7.20689C94.3095 7.16845 94.55 7.0518 94.7401 6.87262C94.9302 6.69345 95.0608 6.46036 95.1143 6.20474C95.1678 5.94913 95.1417 5.68325 95.0395 5.44291L94.6109 4.39931C94.6109 4.38748 94.6323 4.36381 94.6488 4.36381C99.0195 6.09132 103.438 9.68359 107.78 15.0412C107.946 15.2468 108.172 15.3959 108.427 15.4678C108.681 15.5396 108.952 15.5308 109.201 15.4426C109.45 15.3543 109.666 15.1909 109.819 14.975C109.971 14.759 110.053 14.501 110.053 14.2366V10.2137C110.053 10.2083 110.054 10.2029 110.056 10.198C110.058 10.1931 110.061 10.1887 110.065 10.1851C110.069 10.1815 110.074 10.1788 110.079 10.1772C110.085 10.1756 110.09 10.1751 110.095 10.1758C114.887 13.3965 119.455 18.4418 123.669 25.1791C123.816 25.4141 124.035 25.5949 124.294 25.6944C124.553 25.7938 124.837 25.8065 125.104 25.7305L127.732 24.9779C127.743 24.9757 127.754 24.9777 127.763 24.9834C127.772 24.9892 127.779 24.9982 127.782 25.0087C129.927 31.6537 131.096 39.8179 131.388 50.2634C131.056 49.1299 130.72 48.0034 130.386 46.8959C130.031 45.7202 129.347 44.6706 128.414 43.8716C120.745 37.2763 114.509 32.9552 109.352 30.6621C108.801 30.418 108.325 30.0336 107.969 29.5475L104.448 24.7318C103.95 24.0461 103.229 23.5546 102.409 23.3414C101.588 23.1281 100.719 23.2064 99.95 23.5628C94.9566 25.8985 89.3998 30.5367 82.9763 37.7402C77.7888 37.8514 70.1911 41.3869 61.464 45.4571C57.8675 47.1326 54.1479 48.8648 50.2792 50.5142C49.9129 50.6717 49.5838 50.9046 49.3134 51.1976C49.043 51.4906 48.8373 51.8372 48.7098 52.2149C48.5823 52.5926 48.5357 52.9929 48.5732 53.3897C48.6107 53.7866 48.7313 54.1711 48.9273 54.5183L51.9531 59.8096C52.2349 60.3043 52.3114 60.8897 52.1662 61.4401C51.4701 64.0882 50.0354 67.0746 48.5224 70.2338C46.4626 74.5242 44.1305 79.3873 43.1147 84.5508C42.8243 86.0235 43.0981 87.5514 43.8819 88.8317C48.5366 96.4375 49.6636 103.887 47.3291 111.526C46.0716 110.91 44.696 110.573 43.2961 110.537C41.8962 110.501 40.5051 110.767 39.2176 111.318C34.461 103.835 28.388 97.3722 20.6837 91.5957ZM55.2323 121.976C55.0351 121.857 54.8092 121.794 54.5789 121.794C54.3405 121.795 54.1071 121.862 53.9044 121.987C53.7017 122.112 53.5377 122.291 53.4306 122.504C51.7022 126.009 49.4056 127.977 46.7609 128.2C43.7303 128.453 40.3493 126.333 37.4727 122.376C35.9195 119.624 36.2652 116.817 38.4031 114.856C40.3683 113.052 43.9955 112.16 47.3149 114.463C47.4759 114.574 47.6604 114.648 47.8542 114.677C48.048 114.706 48.2459 114.69 48.4326 114.631C48.6193 114.571 48.7899 114.47 48.9311 114.334C49.0723 114.198 49.1803 114.032 49.2469 113.847C52.4338 105.035 51.3778 96.1677 46.0743 87.4923C45.625 86.7575 45.467 85.8813 45.6315 85.036C46.5786 80.1895 48.7474 75.6861 50.8404 71.3295C52.4125 68.0567 53.8946 64.9638 54.6523 62.0791C54.968 60.8797 54.7978 59.6042 54.1787 58.5294L51.1576 53.2451C51.1372 53.2135 51.1246 53.1775 51.1209 53.14C51.1172 53.1026 51.1225 53.0648 51.1363 53.0298C51.1484 52.992 51.1687 52.9574 51.1957 52.9283C51.2227 52.8993 51.2558 52.8766 51.2926 52.8618C55.2015 51.2052 58.9377 49.4517 62.5531 47.7692C71.3441 43.6752 78.9277 40.1421 83.5162 40.2936C83.7046 40.3002 83.8921 40.265 84.0653 40.1905C84.2384 40.116 84.3929 40.0041 84.5177 39.8629C90.8677 32.6783 96.273 28.1016 101.044 25.8724C101.275 25.7688 101.535 25.7482 101.78 25.8142C102.024 25.8802 102.239 26.0287 102.386 26.2345L105.907 31.0526C106.526 31.8977 107.357 32.5659 108.315 32.9907C113.242 35.1844 119.27 39.3801 126.749 45.805C127.311 46.2864 127.721 46.9189 127.933 47.6272C130.694 56.7948 133.547 67.1149 133.705 74.2592C133.712 74.5564 133.823 74.8419 134.018 75.0661C138.528 80.2723 140.411 85.4785 139.755 90.9663C138.687 99.9919 130.772 109.673 115.555 120.566C92.7429 132.779 74.1356 133.212 55.2323 121.976ZM118.638 121.489C118.278 124.38 116.393 126.278 114.689 127.426C110.96 129.937 105.455 130.713 101.053 129.608C106.099 127.999 111.336 125.729 116.836 122.781C116.886 122.752 116.931 122.724 116.976 122.693C117.539 122.291 118.091 121.889 118.638 121.489ZM78.537 132.426C79.9576 132.545 81.3885 132.604 82.8296 132.604C84.0592 132.604 85.2951 132.561 86.5373 132.476C90.0584 132.223 93.5498 131.654 96.9691 130.777C99.3368 132.038 102.237 132.67 105.206 132.67C109.075 132.67 113.06 131.617 116.116 129.558C119.758 127.109 121.548 123.578 121.216 119.56C124.364 117.158 127.368 114.573 130.213 111.819C136.53 112.652 140.747 114.236 143.607 116.869L121.673 143.516C121.489 143.526 121.307 143.549 121.126 143.584C116.382 141.38 111.505 139.473 106.525 137.872C105.985 136.215 104.962 134.223 102.973 134.353C102.007 134.45 101.195 134.999 100.518 135.605C99.4573 135.137 98.3346 134.825 97.1846 134.677C95.8516 134.511 94.5423 134.355 93.214 134.715C94.3979 135.361 95.6503 135.569 96.8862 135.986C98.0558 136.351 99.1905 136.82 100.277 137.386C100.44 137.47 100.625 137.5 100.806 137.471C100.987 137.443 101.154 137.357 101.283 137.228C102.94 135.508 103.781 135.889 104.422 137.209C104.143 137.124 103.861 137.036 103.58 136.953C103.445 136.913 103.303 136.906 103.165 136.933C103.028 136.961 102.899 137.022 102.791 137.112C100.968 138.622 96.6353 142.896 95.7782 149.936C94.9116 157.111 98.2169 162.338 99.6777 164.269C99.8137 164.446 100.013 164.563 100.234 164.596L102.294 164.894C101.638 165.493 100.812 165.713 99.7369 165.59C99.4082 165.414 99.0556 165.287 98.6904 165.214C95.0395 164.48 91.4052 163.358 87.2523 161.685C87.1323 161.636 87.0027 161.615 86.8733 161.624C86.744 161.633 86.6185 161.672 86.5065 161.737C85.254 162.461 83.5541 163.63 83.2676 165.486C83.2475 165.59 83.2475 165.698 83.2676 165.803L83.5043 166.889C83.4451 166.932 83.3883 166.974 83.3339 167.019L82.0909 168.034C74.4955 155.566 69.3316 139.344 78.537 132.426ZM99.0171 263.527C90.7612 266.604 80.8478 265.787 69.5353 261.069C69.521 260.726 69.5139 260.382 69.5092 260.035C75.2686 262.536 81.4817 263.825 87.7614 263.821C91.5622 263.81 95.3497 263.371 99.0526 262.515C99.0526 262.844 99.0408 263.184 99.0171 263.535V263.527ZM98.9461 260.785C92.2457 262.351 85.8815 262.562 79.7185 261.41C79.5053 260.551 79.4851 259.655 79.6593 258.788C79.8504 258.023 80.26 257.33 80.838 256.794C81.416 256.258 82.1376 255.901 82.9148 255.768C86.0898 255.164 89.8259 254.585 93.4863 254.885C96.7253 255.721 98.5057 257.628 98.9461 260.782V260.785ZM92.2149 253.113C91.604 253.096 90.9956 253.113 90.3918 253.113C88.7037 252.668 85.9572 252.677 82.955 252.798C82.8775 253.201 82.9069 253.617 83.0403 254.005L82.5975 254.088C81.4926 254.284 80.4688 254.797 79.6517 255.566C78.8346 256.335 78.2596 257.325 77.9972 258.416C77.8107 259.279 77.7842 260.168 77.9191 261.04C75.0444 260.367 72.2421 259.416 69.5518 258.201C69.7294 254.809 70.4705 251.234 71.7963 247.376C74.9453 249.163 78.0753 249.802 81.3214 249.322C81.4469 250.088 81.7949 251.182 81.9606 251.149C84.8752 250.564 87.4204 250.439 89.5252 250.827C89.6957 250.325 89.5608 249.786 89.2364 249.229C89.6303 249.263 90.0115 249.385 90.3516 249.587C91.1309 250.674 91.7578 251.863 92.2149 253.12V253.113ZM83.1776 243.065C84.8563 241.766 87.6998 241.595 88.9168 242.724C89.8946 243.63 89.7052 245.299 88.3911 247.457C85.9572 247.135 83.9802 247.123 82.2613 247.414C81.293 245.185 82.1974 243.829 83.1776 243.072V243.065ZM93.832 241.302C92.8968 242.771 91.9379 244.274 91.0192 245.763C91.6585 243.477 90.8014 242.147 90.0722 241.475C88.223 239.761 84.513 239.873 82.1287 241.711C80.2465 243.167 79.6877 245.346 80.5401 247.684C77.7486 247.978 75.0329 247.315 72.2817 245.673C73.3012 240.137 74.766 234.692 76.6619 229.392C84.5319 234.851 90.5836 237.551 95.9297 237.97C95.2478 239.082 94.5375 240.194 93.8296 241.309L93.832 241.302ZM96.9596 236.332C91.7035 236.186 85.4198 233.448 77.2845 227.759C77.9806 225.946 78.7241 224.181 79.5149 222.463C85.0149 225.761 93.8699 227.479 101.079 227.842C100.805 229.694 99.0929 232.837 96.9573 236.33L96.9596 236.332ZM107.851 225.508C107.741 225.681 107.592 225.826 107.416 225.931C107.24 226.036 107.042 226.099 106.837 226.114C96.6566 226.852 76.7684 223.341 76.0368 215.605C76.0036 215.229 76.0916 214.852 76.2878 214.53C77.5355 212.464 78.1061 209.942 78.7099 207.272C79.2142 205.043 79.7327 202.752 80.6774 200.618L85.9004 204.624C86.3118 204.939 86.8022 205.135 87.3176 205.19C87.8331 205.244 88.3536 205.156 88.8221 204.934H88.8457C88.7979 205.419 88.8828 205.908 89.0913 206.349C89.2998 206.789 89.6241 207.165 90.0296 207.436L95.1224 210.831C95.7071 211.221 96.4136 211.385 97.1104 211.293C97.8071 211.202 98.4469 210.86 98.9106 210.332L100.052 209.038L99.9879 212.206C99.9762 212.699 100.092 213.187 100.323 213.623C100.554 214.058 100.894 214.427 101.309 214.694L109.918 220.271C109.536 222.124 108.834 223.895 107.841 225.506L107.851 225.508ZM120.807 218.896C120.796 219.005 120.767 219.11 120.721 219.209C120.709 219.197 120.7 219.183 120.688 219.168L120.487 219.27L120.643 219.348C120.564 219.469 120.458 219.57 120.333 219.642L116.741 221.736C116.64 221.794 116.525 221.824 116.409 221.821C116.292 221.818 116.179 221.783 116.081 221.72L102.467 212.9C102.357 212.829 102.267 212.732 102.205 212.617C102.144 212.502 102.113 212.372 102.116 212.242L102.239 206.16C102.244 205.942 102.181 205.728 102.059 205.547C101.938 205.366 101.763 205.226 101.56 205.147C101.437 205.1 101.306 205.075 101.174 205.074C101.023 205.074 100.873 205.106 100.735 205.169C100.597 205.231 100.474 205.322 100.374 205.436L97.3101 208.917C97.1874 209.055 97.0191 209.144 96.836 209.168C96.6529 209.192 96.4673 209.149 96.3133 209.047L91.2181 205.644C91.132 205.587 91.0632 205.506 91.019 205.413C90.9748 205.319 90.9568 205.215 90.9671 205.112L91.1542 203.249C91.1721 203.062 91.1401 202.873 91.0613 202.702C90.9825 202.531 90.8598 202.383 90.7057 202.275C90.5515 202.167 90.3714 202.101 90.1836 202.085C89.9958 202.068 89.8071 202.102 89.6365 202.182L87.9105 202.999C87.7949 203.054 87.6662 203.076 87.5387 203.063C87.4113 203.049 87.29 203.001 87.1884 202.923L76.4606 194.692C76.393 194.641 76.3382 194.574 76.3005 194.498C76.2627 194.421 76.243 194.337 76.2428 194.252V191.793C76.2421 191.619 76.1986 191.447 76.116 191.293C76.0335 191.139 75.9144 191.008 75.7693 190.911C75.6241 190.814 75.4574 190.754 75.2836 190.736C75.1098 190.718 74.9343 190.743 74.7725 190.809L73.179 191.467C73.0991 191.499 73.0122 191.51 72.9268 191.499C72.8414 191.488 72.7603 191.455 72.6913 191.403L68.4012 188.187C68.3218 188.128 68.2574 188.051 68.213 187.963C68.1686 187.875 68.1454 187.777 68.1454 187.678V181.336L68.2283 181.168L68.1454 181.128V181.033C68.1452 180.967 68.1632 180.902 68.1975 180.845C68.2317 180.788 68.2809 180.742 68.3396 180.711C72.5895 178.48 78.5039 173.74 84.7024 168.669C84.8594 168.542 85.052 168.468 85.2532 168.457C85.4545 168.445 85.6543 168.497 85.8246 168.605C89.1062 170.408 92.3948 172.252 95.6906 174.137C94.9329 174.772 94.2037 175.437 93.4839 176.116C92.5085 177.062 91.4714 177.921 90.8038 179.159C92.1344 178.686 93.1383 177.812 94.2392 177.003C95.1508 176.307 96.0505 175.583 96.9076 174.835L97.4545 175.15C96.5556 176.341 95.7279 177.584 94.9756 178.873C96.2114 177.902 97.3864 176.857 98.4939 175.742C104.266 179.077 110.039 182.52 115.813 186.071C115.34 186.616 114.906 187.188 114.483 187.77C113.854 188.595 113.319 189.486 112.887 190.428C114.407 189.409 115.772 188.175 116.938 186.765L117.572 187.158C116.358 188.842 115.276 190.639 114.591 192.6C116.22 191.256 117.537 189.595 118.699 187.846C121.373 189.507 124.04 191.188 126.7 192.887C126.861 192.984 126.982 193.135 127.042 193.313C127.101 193.491 127.095 193.685 127.024 193.859C123.688 202.369 121.6 210.791 120.807 218.896ZM136.473 254.296C139.93 256.289 143.813 259.479 147.997 263.236C144.059 262.988 139.71 262.482 134.911 261.71C135.262 259.209 135.784 256.735 136.473 254.305V254.296ZM133.137 262.082C127.128 258.447 125.729 256.18 125.646 254.899C125.601 254.204 125.959 253.572 126.737 252.968C128.954 251.549 131.731 251.915 134.937 253.475C134.119 256.297 133.517 259.177 133.137 262.091V262.082ZM134.51 265.229C134.565 264.616 134.624 264.005 134.693 263.402C139.752 264.247 144.857 264.795 149.981 265.044C150.426 265.451 150.871 265.866 151.321 266.284C145.701 266.292 140.086 265.942 134.51 265.238V265.229ZM165.117 265.248C161.362 265.82 157.574 266.153 153.776 266.244L152.561 265.111H153.343C157.756 265.111 161.629 264.72 165.058 263.944C165.084 264.391 165.103 264.824 165.117 265.257V265.248ZM164.925 262.233C160.886 263.18 156.2 263.554 150.672 263.367C145.735 258.849 141.116 254.973 136.968 252.663C137.252 251.778 137.558 250.91 137.884 250.06C147.421 249.868 155.405 250.06 162.238 250.635C163.646 254.368 164.549 258.271 164.925 262.243V262.233ZM160.63 247.767C160.755 247.765 160.878 247.8 160.983 247.867C161.089 247.934 161.173 248.03 161.225 248.143C161.395 248.531 161.559 248.919 161.717 249.308C155.111 248.775 147.457 248.598 138.403 248.77C138.49 248.562 138.578 248.351 138.668 248.146C138.72 248.032 138.804 247.935 138.91 247.868C139.016 247.801 139.139 247.766 139.265 247.767H160.63ZM164.293 233.45H164.317L168.129 233.403C168.759 233.39 169.379 233.561 169.914 233.895C171.971 235.182 172.864 236.761 172.655 238.793C169.527 238.841 166.404 239.044 163.296 239.404C162.915 238.157 163.242 236.197 164.293 233.457V233.45ZM172.177 240.5C171.97 240.774 171.673 240.968 171.339 241.049C165.865 242.379 155.14 243.758 144.765 245.093L142.018 245.448C141.994 245.45 141.97 245.444 141.949 245.431C141.928 245.418 141.912 245.399 141.902 245.377C141.765 245.086 141.637 244.797 141.521 244.508C152.216 242.561 163.952 240.611 172.177 240.507V240.5ZM162.233 224.313C162.275 224.237 162.341 224.176 162.422 224.142C162.502 224.108 162.592 224.103 162.676 224.126C163.15 224.309 163.551 224.641 163.819 225.073C163.921 225.217 163.981 225.386 163.991 225.562C164.002 225.738 163.963 225.914 163.879 226.069C162.932 227.692 161.873 228.819 160.711 229.425L159.001 228.107C160.319 227.068 161.421 225.781 162.245 224.32L162.233 224.313ZM159.664 230.762L161.322 232.044L160.01 233.568L162.011 234.886C161.442 236.839 161.3 238.391 161.587 239.619C155.043 240.403 147.774 241.647 140.955 242.902C139.854 239.068 140.306 235.092 142.328 230.868C147.177 232.12 151.508 231.891 155.469 230.158C156.112 231.166 157.06 231.943 158.175 232.376L159.664 230.762ZM158.93 218.75C157.877 221.753 156.799 224.855 156.113 227.922C152.209 230.052 147.89 230.478 142.97 229.252C141.616 226.09 140.901 222.186 140.496 218.198C148.506 218.049 154.853 217.015 160.235 214.961C159.835 216.22 159.39 217.476 158.942 218.757L158.93 218.75ZM160.891 212.86C155.414 215.186 148.854 216.348 140.342 216.497C140.202 214.762 140.105 213.03 140.046 211.354C143.773 202.741 147.956 195.263 156.326 193.133L158.407 194.553C163.386 200.213 162.82 206.371 160.903 212.867L160.891 212.86ZM151.292 188.57C154.472 189.888 157.756 191.249 158.395 192.48L156.989 191.519C156.892 191.451 156.781 191.405 156.665 191.383C156.549 191.361 156.429 191.364 156.314 191.391C145.423 193.926 140.939 204.724 136.613 215.164L136.45 215.56C136.386 215.712 136.266 215.834 136.115 215.9C135.963 215.966 135.792 215.97 135.637 215.912L124.036 211.589C124.282 210.327 124.558 209.05 124.865 207.76C128.487 205.365 131.186 201.882 133.675 198.389C134.534 197.177 135.386 195.958 135.777 194.42C134.449 195.286 133.552 196.448 132.616 197.582C130.433 200.154 128.146 202.805 125.573 204.996C126.533 201.487 127.68 198.032 129.008 194.645C129.122 194.357 129.189 194.053 129.207 193.743C131.139 192.884 132.398 190.942 132.635 188.367C132.681 187.856 132.64 187.342 132.512 186.845L133.021 185.028C137.013 184.824 140.967 184.502 143.912 183.537V183.733C143.921 184.186 144.054 184.627 144.295 185.01C144.537 185.393 144.879 185.703 145.283 185.906C147.291 186.911 149.419 187.794 151.292 188.57ZM146.746 179.639C145.371 182.335 139.333 182.981 133.488 183.296L134.686 179.012C134.911 178.207 134.87 177.351 134.57 176.57C134.494 176.367 134.423 176.156 134.349 175.934C134.001 174.892 133.57 173.595 132.062 171.371C131.589 170.689 131.115 170.013 130.613 169.348C131.463 169.528 132.328 169.62 133.196 169.622C134.109 169.625 135.018 169.514 135.903 169.293C139.144 168.472 141.741 166.177 143.448 162.639C144.168 162.83 144.903 162.959 145.645 163.025C145.771 166.433 145.601 169.845 145.136 173.224C145.111 173.426 145.158 173.631 145.269 173.801C146.936 176.336 147.428 178.3 146.746 179.639ZM147.807 159.219C147.967 159.37 148.083 159.561 148.142 159.772C148.201 159.984 148.202 160.207 148.143 160.419C148.095 160.616 147.994 160.796 147.852 160.939C147.709 161.083 147.53 161.186 147.334 161.236C146.387 161.472 144.992 161.333 143.216 160.805C143.017 160.745 142.803 160.76 142.614 160.847C142.425 160.935 142.275 161.088 142.191 161.278C140.716 164.7 138.403 166.896 135.484 167.634C132.169 168.47 128.298 167.398 124.858 164.688L124.699 164.889C124.649 160.074 126.977 155.201 129.825 149.853C133.196 148.696 136.639 147.55 138.917 148.14C139.021 148.166 139.119 148.214 139.205 148.279C139.291 148.345 139.363 148.427 139.416 148.521C139.468 148.611 139.501 148.712 139.513 148.815C139.524 148.919 139.515 149.024 139.485 149.124C139.172 150.175 138.105 151.005 136.315 151.597C136.15 151.651 136.005 151.755 135.901 151.894C135.796 152.032 135.737 152.2 135.73 152.373C135.723 152.547 135.77 152.718 135.863 152.864C135.957 153.011 136.093 153.125 136.253 153.192C141.152 155.239 145.724 157.241 147.807 159.219ZM148.991 148.159C147.334 147.018 145.466 146.377 143.856 145.951C143.967 145.336 144.024 144.713 144.024 144.088C143.875 141.448 143.072 138.885 141.687 136.632C141.857 139.166 142.729 141.838 142.43 144.365C141.606 142.822 140.704 141.322 139.757 139.869C139.243 139.14 138.609 138.504 137.882 137.988C137.938 138.877 138.15 139.75 138.507 140.567C140.856 145.253 143.112 149.983 144.5 155.035C142.809 154.162 140.853 153.291 138.739 152.394C139.987 151.673 140.785 150.738 141.121 149.619C141.217 149.299 141.247 148.963 141.21 148.632C141.173 148.3 141.068 147.98 140.903 147.69C140.737 147.398 140.513 147.143 140.245 146.939C139.977 146.736 139.671 146.589 139.345 146.507C136.79 145.847 133.426 146.845 130.092 147.979C130.089 147.23 129.912 146.492 129.576 145.823L149.973 121.138C150.868 121.15 151.76 121.229 152.642 121.375C153.077 121.446 153.511 121.534 153.942 121.638C150.142 128.687 148.534 137.254 149.161 147.193C149.174 147.381 149.248 147.559 149.372 147.701C149.496 147.842 149.664 147.939 149.848 147.976C150.646 148.133 151.42 148.277 152.171 148.405C151.273 148.85 150.248 148.755 149 148.159H148.991ZM150.809 146.429C150.591 142.677 150.754 138.912 151.297 135.193C153.276 140.264 157.486 143.83 162.316 146.975C159.309 147.707 155.521 147.326 150.819 146.429H150.809ZM169.696 139.881C162.898 139.019 157.493 134.675 152.987 128.115C153.449 126.749 153.99 125.411 154.607 124.108C159.046 130.171 164.582 133.541 171.813 132.753C171.223 135.597 170.529 137.95 169.705 139.881H169.696ZM173.586 120.537C173.678 120.462 173.753 120.368 173.806 120.261C173.86 120.155 173.89 120.039 173.896 119.92C173.92 119.468 173.936 119.018 173.955 118.568C174.085 118.734 174.188 118.919 174.258 119.118C174.63 120.156 174.258 121.787 173.148 123.964C173.1 124.056 173.071 124.157 173.06 124.26C172.999 124.821 172.937 125.367 172.873 125.904C167.058 126.671 162.101 123.524 157.398 119.21C157.801 118.625 158.221 118.053 158.658 117.494C158.75 117.376 158.81 117.236 158.831 117.088C158.851 116.939 158.833 116.788 158.776 116.649C158.341 115.568 158.622 114.756 158.9 114.505C158.951 114.452 159.021 114.419 159.096 114.413C159.17 114.406 159.244 114.428 159.304 114.472C159.384 114.513 159.469 114.541 159.558 114.555C159.529 114.735 159.494 114.915 159.449 115.102C159.413 115.257 159.422 115.42 159.474 115.571C159.526 115.722 159.62 115.856 159.745 115.956C163.443 119.016 168.742 120.109 172.933 120.722C172.974 120.724 173.015 120.724 173.056 120.722C173.251 120.725 173.442 120.659 173.595 120.537H173.586ZM169.391 93.3232C168.833 92.0875 168.066 90.9578 167.122 89.9842L181.371 72.8985C182.523 73.3393 183.498 74.1467 184.146 75.1963L169.391 93.3232ZM185.254 73.8166C184.538 72.8394 183.59 72.0554 182.495 71.5354L183.847 69.9144C184.697 69.8244 185.346 69.9475 185.779 70.2859C186.213 70.6243 186.509 71.2467 186.636 72.1199L185.254 73.8166Z" fill="black"/>
<path d="M177.947 28.4236C178.685 29.162 179.1 30.163 179.1 31.2066C179.1 32.2502 178.685 33.2512 177.947 33.9895L177.71 34.2262L172.873 39.0585C172.777 39.1552 172.663 39.232 172.537 39.2844C172.411 39.3367 172.276 39.3637 172.139 39.3637C172.003 39.3637 171.868 39.3367 171.742 39.2844C171.616 39.232 171.501 39.1552 171.405 39.0585L166.571 34.2262L166.334 33.9895C165.968 33.6241 165.678 33.1902 165.48 32.7127C165.282 32.2352 165.18 31.7234 165.18 31.2066C165.18 30.6897 165.282 30.178 165.48 29.7005C165.678 29.223 165.968 28.7891 166.334 28.4236C167.87 26.8855 170.359 27.1623 171.903 28.6982L172.139 28.9348L172.376 28.6982C173.915 27.1623 176.408 26.8855 177.947 28.4236Z" fill="black"/>
<path d="M128.345 79.7492C128.772 79.3071 129.245 78.9106 129.754 78.5659C129.197 81.9121 123.416 86.5267 119.978 85.9019C120.134 85.7528 120.295 85.6156 120.451 85.4854C112.176 80.2319 107.853 72.1742 110.391 66.6958C111.433 64.4501 113.959 62.1665 116.784 62.1499H116.815C121.969 62.157 126.745 69.4906 128.345 79.7492ZM122.826 74.3063C123.697 73.8023 123.536 71.8831 122.45 70.0136C121.363 68.1441 119.803 67.0342 118.919 67.5359C118.036 68.0376 118.209 69.9592 119.296 71.8263C120.383 73.6934 121.955 74.8009 122.826 74.3063ZM121.2 80.1775C121.839 79.5385 121.436 78.0855 120.271 76.9331C119.107 75.7806 117.667 75.3665 117.025 76.0054C116.384 76.6444 116.8 78.0997 117.953 79.2498C119.107 80.3999 120.558 80.8117 121.2 80.1704V80.1775Z" fill="black"/>
<path d="M120.688 219.178L120.487 219.28C119.303 218.669 115.73 216.362 115.515 216.163C114.824 215.558 114.196 214.886 113.637 214.157H112.401C112.287 214.157 112.175 214.127 112.077 214.069L105.542 210.235C105.441 210.176 105.358 210.09 105.302 209.986C105.247 209.883 105.221 209.766 105.228 209.649L105.701 200.893C104.767 201.672 103.745 202.34 102.656 202.883C101.094 203.65 99.4499 204.236 97.7552 204.632C97.6612 204.654 97.5634 204.655 97.469 204.634C97.3746 204.614 97.2861 204.572 97.21 204.513C97.134 204.453 97.0724 204.377 97.0299 204.29C96.9874 204.203 96.965 204.108 96.9644 204.012V201.761L94.6299 202.883C94.4875 202.951 94.3248 202.965 94.1729 202.921C94.0209 202.878 93.8903 202.78 93.806 202.646C92.8373 201.097 91.5983 199.735 90.148 198.623C88.6783 197.492 87.0907 196.522 85.4127 195.731C85.2699 195.661 85.1581 195.541 85.0987 195.393C85.0393 195.245 85.0364 195.081 85.0907 194.932L86.767 190.48L81.8707 193.083C81.7354 193.155 81.5792 193.175 81.43 193.142C81.2807 193.109 81.1483 193.023 81.0563 192.901C79.6608 191.02 78.0589 189.301 76.2807 187.775C74.5097 186.18 72.5683 184.758 70.712 183.241L68.1455 181.348L68.2284 181.18C70.7499 182.446 75.1135 185.773 76.8726 187.042C78.6847 188.378 80.321 189.937 81.7429 191.682L87.662 188.526C87.7769 188.467 87.9069 188.444 88.0351 188.46C88.1633 188.476 88.2837 188.53 88.3807 188.615C88.4777 188.7 88.5469 188.813 88.5791 188.938C88.6114 189.063 88.6053 189.195 88.5617 189.316C88.5617 189.316 87.0488 193.339 86.4924 194.811C89.6319 196.392 92.6175 198.505 94.5897 201.472L97.3291 200.157C97.4268 200.111 97.5347 200.09 97.6426 200.096C97.7505 200.103 97.855 200.136 97.9466 200.194C98.0381 200.252 98.1136 200.331 98.1663 200.426C98.2189 200.52 98.2469 200.626 98.2477 200.734V203.174C101.127 202.384 103.93 201.075 105.961 198.879C106.077 198.755 106.236 198.681 106.405 198.675C106.574 198.668 106.739 198.729 106.864 198.843C106.932 198.908 106.986 198.986 107.021 199.073C107.056 199.16 107.072 199.254 107.067 199.347L106.52 209.324L112.57 212.874H113.955C114.122 212.874 114.283 212.939 114.402 213.056C115.117 213.814 115.738 214.655 116.251 215.562C116.398 215.82 119.916 218.3 120.688 219.178Z" fill="black"/>
<path d="M118.363 50.5188C117.473 50.5332 116.585 50.4434 115.716 50.2514C111.4 48.9617 108.706 51.0015 106.461 54.6293C105.514 56.1178 105.067 57.6868 103.589 58.8889C103.116 56.965 103.914 55.3392 104.659 53.652C106.752 48.8883 111.315 45.8877 116.405 48.4765C117.247 48.9472 117.929 49.6583 118.363 50.5188Z" fill="black"/>
<path d="M115.664 94.4639C115.008 96.5937 113.699 98.3212 112.157 99.8736C109.866 102.309 106.411 104.043 103.094 103.274C102.988 104.694 102.441 106.059 101.316 107.03C101.079 105.972 101.105 105.084 101.091 104.06C101.073 102.276 100.752 100.509 100.144 98.8323C99.9309 98.0443 99.9854 97.0338 99.5474 96.2766C100.135 96.9534 101.11 97.3438 101.64 98.0656C102.14 98.7887 102.519 99.5879 102.763 100.432C103.734 100.763 104.771 100.857 105.786 100.707C109.785 100.063 112.278 96.4564 115.664 94.4639Z" fill="black"/>
<path d="M99.3274 95.9546C99.4173 96.0533 99.4967 96.1612 99.5642 96.2764C99.4755 96.1766 99.3963 96.0689 99.3274 95.9546Z" fill="black"/>
<path d="M94.6749 88.098L94.5802 88.3346C92.428 88.8481 90.6996 88.6423 88.6989 88.8363C85.2161 89.2907 82.5644 91.2264 80.9047 94.3123C79.9576 96.0682 79.2308 97.7625 78.0895 99.5965C75.2697 94.7879 78.4991 88.311 83.2865 86.1528C86.8309 84.572 92.2978 84.5909 94.6749 88.098Z" fill="black"/>
<path d="M88.0763 62.254C88.9926 63.823 89.5656 65.6049 89.4567 67.4152C88.9642 66.6698 88.5309 65.9528 88.0645 65.2854C86.5421 63.2692 84.8019 61.899 83.3481 59.7503C85.2541 59.6344 87.0488 60.7016 88.0763 62.254Z" fill="black"/>
<path d="M85.4174 68.1987C85.4553 71.7744 83.5872 75.0827 81.0965 77.5651C78.5347 79.9316 74.8364 81.5739 71.3418 80.7622C72.9991 80.1587 74.557 79.7494 76.0274 79.0797C78.9703 77.7047 81.1651 75.2933 82.7941 72.508C83.6228 71.1213 84.3378 69.5736 85.4174 68.1987Z" fill="black"/>
</g>
<defs>
<clipPath id="clip0_1932_704">
<rect width="191" height="268" fill="white"/>
</clipPath>
</defs>
</svg>
