<svg width="228" height="335" viewBox="0 0 228 335" fill="none" xmlns="http://www.w3.org/2000/svg">
<g clip-path="url(#clip0_1932_1394)">
<path d="M101.575 81.3004C98.874 80.4779 96.8324 78.8021 94.2739 77.6573C94.2668 77.6149 94.2621 77.5722 94.2597 77.5293C94.219 77.0144 94.2048 76.4978 94.217 75.9815C94.2939 74.0605 94.543 72.1503 94.9616 70.2739C96.095 71.0584 97.2355 71.8217 98.4045 72.5707C98.8551 72.867 99.3151 73.1538 99.7775 73.4335C100.851 74.075 101.951 74.6723 103.078 75.2254C104.885 76.1213 106.749 76.913 108.634 77.6431C111.157 78.6172 113.722 79.48 116.255 80.3238C120.248 81.6109 124.317 82.7463 128.26 84.1163C128.237 84.3723 128.215 84.6282 128.196 84.8842C128.113 86.0386 128.078 87.1953 128.099 88.3543C128.502 87.3327 128.896 86.304 129.285 85.273L129.548 84.5761C129.913 83.6011 130.277 82.6285 130.641 81.6583V81.6299C133.52 73.9691 136.555 66.4246 142.227 60.3756C158.502 43.3097 182.3 42.3236 204.44 41.3708C209.35 41.0271 214.1 40.1003 218.769 39.4746C220.682 39.2375 222.613 38.9152 224.483 39.1664L224.652 39.2044C224.875 40.7521 224.339 42.6247 223.881 44.2341C223.2 46.427 222.327 48.5558 221.273 50.5959C218.259 56.915 212.876 61.4991 206.977 65.0735C192.61 73.7866 175.623 76.0028 160.316 82.9051C155.934 84.9767 151.462 87.4086 148.169 91.0541L148.05 91.182C147.22 92.1264 146.497 93.1598 145.895 94.2634C145.29 95.3661 144.847 96.5499 144.579 97.7785C145.459 96.9371 146.305 96.1359 147.154 95.3727C151.499 99.3777 155.027 104.185 157.545 109.53C162.439 119.58 164.203 131.012 164.132 142.148C164.051 144.404 164.115 146.687 163.999 148.941C163.911 150.537 163.717 152.125 163.418 153.696C163.214 154.757 162.96 155.81 162.652 156.846C162.179 158.455 161.562 160.018 160.81 161.518C157.986 167.277 153.276 171.378 147.792 174.298C147.487 174.456 147.178 174.614 146.867 174.772L146.393 175.009H146.379L145.938 175.22C145.8 175.286 145.66 175.353 145.52 175.414L145.323 175.504L144.97 175.663C144.825 175.73 144.681 175.794 144.534 175.855L144.06 176.052L143.822 176.154L143.18 176.415L142.677 176.611L142.404 176.716L142.222 176.784L142.051 176.848C141.552 177.035 141.048 177.213 140.541 177.384L140.007 177.562L139.495 177.728L139.405 177.756L138.931 177.903L138.177 178.128L137.864 178.221L137.736 178.256L137.423 178.346C137.043 178.451 136.666 178.555 136.287 178.652L135.91 178.752L135.198 178.925L134.904 178.998L133.989 179.209C133.835 179.247 133.678 179.28 133.515 179.314L133.095 179.406L132.827 179.463L132.514 179.529L132.014 179.631C130.705 179.911 129.389 180.164 128.066 180.401C126.207 180.736 124.334 181.03 122.448 181.307C119.65 181.717 116.829 182.087 113.983 182.471C115.921 182.741 117.898 182.931 119.897 183.03C116.475 185.486 113.348 188.207 109.755 190.447C109.129 190.797 108.404 191.224 107.74 191.295L107.714 191.283C107.509 191.166 107.323 191.017 107.164 190.843C105.611 189.126 104.442 186.917 103.09 184.917C102.616 184.182 102.104 183.438 101.572 182.701C104.19 182.734 106.808 182.629 109.414 182.385C106.569 181.947 103.486 181.494 100.268 180.98C98.6274 180.717 96.9486 180.437 95.2603 180.134C91.7865 179.515 88.2321 178.794 84.7132 177.922C82.029 177.256 79.3709 176.5 76.784 175.625L76.0726 175.388C75.6442 175.24 75.219 175.088 74.7969 174.933C72.2535 174.009 69.7735 172.92 67.3727 171.672C67.3253 171.648 67.2778 171.624 67.2328 171.598C64.7069 170.285 62.3232 168.716 60.1192 166.915C59.8821 166.716 59.645 166.516 59.4078 166.313C57.8496 164.955 56.4374 163.438 55.1942 161.788C53.1494 158.727 51.8777 155.217 51.488 151.558C51.9079 151.62 52.3334 151.635 52.7566 151.603C56.3893 151.335 59.0853 147.727 58.7747 143.544C58.5376 140.308 56.5671 137.68 54.0039 136.781C54.027 136.674 54.0381 136.564 54.0371 136.454C54.4046 119.253 59.9485 99.0585 73.9551 88.2168C74.8229 88.6777 75.7433 89.0319 76.6962 89.2716C78.0656 89.6181 79.4931 89.669 80.8838 89.4209C81.1659 89.3688 81.4457 89.3048 81.7279 89.2266C81.3343 89.1223 80.9462 89.0053 80.5636 88.8758C78.9945 88.3417 77.5088 87.5884 76.1508 86.6382C75.8015 86.3933 75.4616 86.1365 75.1312 85.8679C74.4375 85.3048 73.7861 84.6917 73.1821 84.0333C72.7719 83.5877 72.3878 83.1231 72.0226 82.6372C72.6549 82.6372 73.2967 82.6301 73.948 82.6159C74.4507 82.6017 74.9534 82.5756 75.4537 82.5424C76.1777 82.495 76.8994 82.4286 77.6186 82.3433C78.4201 82.2509 79.2192 82.1347 80.0088 81.9949C80.4048 81.9261 80.796 81.8503 81.1944 81.7697C81.8465 81.6346 82.4819 81.4971 83.1079 81.3644C85.3582 80.8903 87.4946 80.44 89.7923 80.3049C90.5037 80.2717 91.9264 80.2622 92.6212 80.2859C92.7196 80.2978 92.8191 80.2978 92.9176 80.2859H92.9887C95.7962 80.3973 98.7815 81.4639 101.575 81.3004ZM220.95 45.6728C220.975 45.405 220.934 45.1351 220.829 44.887C220.725 44.639 220.562 44.4204 220.353 44.2507C219.544 43.5941 218.942 43.7766 216.044 44.6702C211.1 46.1896 197.969 50.2214 171.407 54.2911C160.025 56.0333 151.092 60.103 144.821 66.3795C140.092 71.0672 136.985 77.1431 135.955 83.7204C135.955 83.7726 135.938 83.8224 135.931 83.8745C135.824 84.5761 135.74 85.2824 135.68 85.9935C135.68 86.067 135.637 86.5197 135.63 87.1787C135.63 87.3659 135.63 87.5698 135.63 87.7878C135.677 90.087 136.156 93.813 138.712 94.1876C138.881 94.2129 139.052 94.2256 139.222 94.2255C140.645 94.2255 141.895 93.3485 143.168 92.1159C143.723 91.5826 144.28 90.9829 144.861 90.3596C145.199 89.9914 145.544 89.624 145.895 89.2574C146.549 88.5603 147.243 87.9011 147.972 87.283C159.316 77.8019 170.667 74.6873 181.643 71.6795C188.939 69.6789 195.83 67.7898 202.51 64.1752C206.353 62.0941 210.859 58.6216 214.451 55.0923C218.043 51.563 220.742 47.9838 220.95 45.6728ZM144.086 161.416C149.466 161.017 153.57 157.308 153.265 153.12C152.959 148.931 148.342 145.876 142.962 146.274C137.581 146.672 133.477 150.384 133.783 154.57C134.089 158.756 138.715 161.826 144.086 161.416ZM117.374 149.14C122.752 148.976 126.956 143.809 126.766 137.601C126.577 131.394 122.062 126.494 116.684 126.658C111.306 126.821 107.1 131.991 107.292 138.199C107.484 144.407 111.994 149.306 117.374 149.14ZM122.695 161.674C123.297 159.408 122.818 157.17 121.315 155.198L121.253 155.127C118.242 151.788 115.204 152.721 111.683 153.802C109.326 154.528 106.654 155.348 103.104 155.386C101.489 155.389 99.8779 155.241 98.2907 154.945C96.1969 154.599 94.3877 154.298 92.6117 155.952C91.5067 156.978 90.9234 158.649 91.0064 160.539C91.125 163.2 92.5453 165.841 94.8003 167.602C97.6789 169.84 101.802 170.999 106.118 170.999C109.292 171.005 112.436 170.38 115.366 169.159C119.136 167.559 121.879 164.762 122.693 161.674H122.695ZM96.8775 142.593C96.9486 139.199 84.654 138.943 84.5852 142.337C84.5425 144.425 86.8331 146.319 88.5996 147.467C88.8116 147.603 89.0364 147.719 89.2707 147.813C89.6848 149.838 90.2816 151.821 91.0538 153.738C90.929 151.843 90.9615 149.94 91.151 148.05C91.6814 147.987 92.1927 147.815 92.652 147.542C94.4636 146.483 96.8324 144.681 96.8751 142.593H96.8775ZM72.0273 144.982C76.7816 144.836 80.502 140.268 80.3265 134.79C80.1511 129.313 76.1651 124.968 71.4085 125.112C66.6518 125.257 62.9338 129.827 63.1093 135.317C63.2847 140.806 67.2707 145.127 72.0273 144.982Z" fill="white"/>
<path d="M216.727 47.728C214.119 51.5418 207.406 57.9866 201.044 61.4329C194.682 64.8793 187.962 66.721 180.844 68.6694C169.545 71.7673 157.86 74.9696 145.987 84.8892C145.04 85.6983 144.142 86.5634 143.298 87.4799C143.055 87.739 142.818 87.9911 142.587 88.236C141.947 88.9234 141.179 89.7506 140.508 90.3384C140.052 90.7366 139.642 91.0258 139.346 91.0922C139.101 90.5581 138.947 89.9869 138.89 89.4021C138.869 89.2599 138.85 89.113 138.833 88.9636C138.735 88.0686 138.72 87.1663 138.791 86.2686C138.814 85.9913 138.843 85.695 138.881 85.3893C138.895 85.2779 138.907 85.1641 138.924 85.0503C139.946 77.2284 145.347 61.4424 171.883 57.375C198.244 53.3313 211.532 49.3185 216.727 47.728Z" fill="white"/>
<path d="M207.954 212.746C208.001 213.009 208.044 213.279 208.079 213.554C207.39 211.906 206.473 210.362 205.355 208.968C207.053 212.21 207.812 216.19 207.148 219.764C207.04 220.277 206.864 220.773 206.626 221.239C206.488 221.414 206.338 221.579 206.178 221.734C205.729 222.136 205.232 222.482 204.698 222.763C205.244 219.153 203.401 214.863 200.769 212.791C202.811 215.308 203.458 219.205 202.429 222.208C202.228 222.751 201.915 223.246 201.509 223.659C198.272 223.948 194.481 222.763 190.801 221.177C190.898 218.29 191.526 210.807 195.379 207.475C197.841 205.344 200.91 204.04 204.153 203.746C206.031 206.45 207.326 209.515 207.954 212.746Z" fill="white"/>
<path d="M200.572 199.375C201.056 199.872 201.525 200.38 201.978 200.902C198.777 201.526 195.796 202.98 193.333 205.116C189.065 208.809 188 215.908 187.739 219.774C186.791 219.317 185.859 218.85 184.963 218.397C185.142 216.291 185.468 214.2 185.94 212.139C187.561 205.398 193.489 199.534 200.572 199.375Z" fill="white"/>
<path d="M174.793 157.936C181.524 159.775 183.478 164.457 179.381 170.193C179.144 170.539 178.869 170.878 178.591 171.205C175.134 174.829 170.792 177.033 166.112 178.493C165.479 178.692 164.834 178.878 164.174 179.05C161.936 179.648 159.638 180.098 157.338 180.473C156.608 180.593 155.875 180.71 155.145 180.812C153.307 181.079 151.481 181.314 149.691 181.549C152.392 181.468 155.176 181.385 157.964 181.184C158.984 181.108 160.004 181.02 161.023 180.909C163.257 180.678 165.474 180.31 167.662 179.809C168.475 179.616 169.28 179.401 170.079 179.164C171.348 178.782 172.593 178.326 173.809 177.799C173.248 178.504 172.541 179.079 171.736 179.484L171.499 179.612L171.319 179.702L171.264 179.728L171.065 179.825L170.845 179.927L170.418 180.112L170.287 180.164L170.05 180.257L169.813 180.345C169.652 180.406 169.488 180.463 169.322 180.522L169.066 180.615L168.81 180.698C168.573 180.774 168.336 180.847 168.099 180.918L167.892 180.977C167.397 181.117 166.885 181.25 166.361 181.373L166.074 181.44C165.882 181.482 165.687 181.527 165.493 181.568C164.687 181.741 163.857 181.897 163.02 182.042C158.114 182.864 152.94 183.172 150.452 183.431C146.753 183.706 143.908 184.002 141.506 184.417C140.394 184.606 139.372 184.824 138.423 185.076C133.531 186.346 130.048 188.503 122.645 192.762C121.841 193.196 120.985 193.673 120.077 194.163C120.197 193.868 120.258 193.553 120.258 193.234C120.26 192.732 120.113 192.241 119.836 191.823C119.559 191.404 119.164 191.077 118.701 190.883C118.238 190.69 117.727 190.637 117.235 190.733C116.742 190.83 116.289 191.07 115.932 191.423C115.187 192.174 114.607 193.073 114.23 194.061C113.853 195.049 113.686 196.105 113.741 197.162C112.137 197.788 110.444 198.158 108.724 198.259C108.081 198.285 107.438 198.244 106.803 198.138C106.659 198.098 106.514 198.053 106.372 198.005C104.804 197.489 103.441 196.55 102.175 195.446C102.694 193.604 102.829 191.513 101.658 189.169C101.413 188.68 101.017 188.284 100.529 188.038C100.04 187.792 99.4856 187.711 98.9472 187.806C98.4088 187.901 97.9155 188.168 97.5409 188.566C97.1662 188.964 96.9302 189.472 96.868 190.015C94.3569 187.249 91.8363 184.398 89.0715 181.75C91.9715 182.165 94.8407 182.442 97.6078 182.592C98.6538 183.889 99.6321 185.239 100.539 186.638C101.442 188.008 102.3 189.423 103.28 190.861C104.143 192.047 104.94 193.343 106.431 194.106C108.074 194.924 109.988 193.957 111.394 193.142C113.618 191.812 115.634 190.203 117.656 188.667C120.312 186.683 122.83 184.616 125.633 183.08C129.485 182.958 133.316 182.471 137.076 181.627C138.102 181.395 139.119 181.134 140.126 180.845C141.074 180.57 142.023 180.266 142.971 179.937C143.335 179.809 143.695 179.678 144.052 179.543C145.667 178.931 147.246 178.23 148.783 177.443C149.414 177.372 150.061 177.285 150.723 177.185C151.247 177.104 151.78 177.017 152.318 176.922C156.096 176.251 160.117 175.199 163.288 173.954C166.37 172.748 169.384 171.24 171.717 168.799C174.112 166.168 174.679 162.06 171.12 160.2C174.143 162.354 173.296 165.777 170.868 167.969C168.542 169.946 165.528 171.065 162.602 171.928C160.129 172.604 157.615 173.122 155.076 173.478C156.145 172.657 157.168 171.78 158.142 170.849C162.218 166.926 164.817 162.063 166.261 156.812C169.147 156.869 172.049 157.149 174.793 157.936Z" fill="white"/>
<path d="M169.512 239.852C171.297 240.563 172.239 243.567 171.803 247.139C171.143 252.512 167.392 259.206 158.977 260.381C158.896 260.393 158.817 260.411 158.74 260.436H158.709C158.156 259.095 157.529 257.786 156.831 256.515C157.884 254.856 158.123 252.69 158.344 250.803C158.545 248.27 158.581 245.727 158.453 243.19C160.902 241.035 165.251 238.143 169.512 239.852Z" fill="white"/>
<path d="M81.7753 246.345V246.364C81.5714 246.987 81.3509 247.603 81.1209 248.212C80.1843 250.542 78.9062 252.716 77.7633 254.942C77.3769 252.261 76.463 249.683 75.0743 247.357C72.6249 243.377 68.895 240.891 63.9819 239.964L63.9013 239.95C62.7061 239.727 61.4911 239.629 60.2757 239.656C58.1442 239.697 56.0446 240.181 54.1106 241.078C54.2987 240.301 54.5082 239.526 54.739 238.755C56.5387 232.422 59.6995 225.576 65.2244 221.99C67.5216 220.525 70.1694 219.7 72.8928 219.603C74.0953 219.553 75.2997 219.639 76.4828 219.859C76.829 219.923 77.1729 219.997 77.5119 220.096C82.7286 221.564 86.0957 225.749 88.4455 230.613C88.9198 231.583 89.3466 232.581 89.7378 233.59C90.2334 234.854 90.6744 236.136 91.0728 237.402C91.2151 237.852 91.3502 238.302 91.483 238.748C91.6585 239.338 91.8245 239.933 91.9857 240.5C92.064 240.784 92.1422 241.066 92.2228 241.346C92.2228 241.107 92.2228 240.87 92.2228 240.635L92.4149 240.737C95.8105 242.543 100.034 244.79 109.561 247.373C120.502 250.334 128.237 251.419 134.459 252.289C140.59 253.15 145.629 253.856 151.403 256.027C152.302 256.48 153.182 256.961 154.033 257.476C154.417 258.383 154.792 259.293 155.15 260.213C155.441 260.957 155.719 261.704 155.987 262.463C156.074 262.714 156.162 262.967 156.245 263.219C156.361 263.562 156.482 263.911 156.575 264.262C156.886 265.304 157.143 266.362 157.343 267.431C158.479 273.527 157.644 279.943 152.475 284.023C147.495 288.109 140.382 287.647 134.511 285.867C133.281 285.5 132.074 285.062 130.895 284.556L130.831 284.527L130.783 284.508L130.703 284.473L130.631 284.442C127.895 283.285 125.393 281.311 123.167 279.282C120.787 277.076 118.584 274.688 116.577 272.138C118.949 276.314 121.652 280.311 125.031 283.752C121.237 282.122 114.536 279.197 106.633 275.693C106.878 273.89 107.388 272.133 108.145 270.479C108.292 270.168 108.449 269.863 108.62 269.566C108.992 268.936 109.454 268.363 109.993 267.867C110.636 267.279 111.329 266.748 112.065 266.281C116.622 263.418 121.808 261.844 127.02 260.232C125.159 260.198 123.298 260.31 121.455 260.566C116.324 261.344 110.804 262.737 107.01 266.558C104.164 265.31 101.31 264.068 98.4472 262.832C92.4505 260.353 86.5912 257.551 80.3977 255.577C81.0379 252.529 81.735 249.438 81.7919 246.333L81.7753 246.345Z" fill="white"/>
<path d="M151.126 296.9C152.311 298.879 152.956 301.254 153.042 303.788C152.679 302.48 152.142 301.227 151.446 300.062C148.339 294.923 141.785 293.399 134.847 291.788L133.225 291.408C132.002 291.119 130.774 290.816 129.567 290.484C128.689 290.247 127.822 289.984 126.975 289.702C126.563 288.564 125.963 287.504 125.199 286.566C126.45 287.087 127.728 287.544 129.026 287.934C130.212 288.296 131.426 288.619 132.64 288.922L133.384 289.104C135.643 289.941 137.992 290.506 140.384 290.787C145.079 292.018 149.148 293.62 151.126 296.9Z" fill="white"/>
<path d="M149.307 301.354C151.424 304.86 151.778 309.636 150.407 314.294C149.993 315.7 149.437 317.062 148.747 318.356C147.499 320.718 145.809 322.818 143.768 324.543C140.1 327.624 135.357 329.442 130.015 329.693C123.684 329.992 116.881 328.458 111.453 326.752L113.739 322.049C114.723 320.025 114.545 317.697 113.445 315.502L117.908 315.948C118.005 315.948 118.1 315.962 118.197 315.962C118.785 315.96 119.359 315.784 119.847 315.457C120.335 315.13 120.715 314.666 120.94 314.123L122.287 310.831C122.451 310.43 122.525 309.998 122.504 309.565C122.482 309.132 122.365 308.71 122.161 308.328C122.035 308.091 121.875 307.873 121.687 307.68L121.645 307.635C121.293 307.277 120.856 307.015 120.374 306.875L117.86 305.528C120.577 305.092 122.619 303.72 123.624 301.65L126.795 295.13C127.199 294.297 127.418 293.386 127.437 292.461C128.296 292.722 129.166 292.963 130.046 293.189C131.267 293.504 132.495 293.795 133.712 294.077L134.288 294.213C140.692 295.708 146.746 297.116 149.307 301.354Z" fill="white"/>
<path d="M144.787 250.132C146.88 250.896 148.853 251.953 150.647 253.273C148.521 252.55 146.353 251.959 144.154 251.502C143.192 251.298 142.229 251.116 141.252 250.948C139.18 250.59 137.05 250.291 134.774 249.973L134.679 249.959C128.547 249.101 120.914 248.023 110.17 245.114C103.896 243.415 99.9932 241.869 97.1051 240.504C95.725 239.852 94.5774 239.241 93.5127 238.674C93.0385 238.423 92.5808 238.179 92.1208 237.942C92.0449 236.887 91.9216 235.825 91.7485 234.771C92.3982 235.159 93.1286 235.598 93.9609 236.069C97.5841 238.124 103.118 240.836 112.157 243.107C117.092 244.346 122.064 245.195 126.873 246.015C132.31 246.942 137.415 247.812 141.812 249.125C142.844 249.435 143.836 249.77 144.787 250.132Z" fill="white"/>
<path d="M130.231 6.09414C132.173 11.2898 131.599 21.6099 123.591 33.6035C122.356 35.4547 120.573 37.7468 118.505 40.4015C112.243 48.4438 103.951 59.0958 100.588 70.2669C98.6464 69.0509 96.7779 67.7141 94.8975 66.3986C94.7815 66.3103 94.6528 66.24 94.5158 66.19C96.2539 59.3376 100.012 51.1838 108.179 43.3264C124.583 27.5404 126.2 20.183 126.636 12.2142C126.664 11.7188 126.688 11.2139 126.71 10.7043C126.723 10.3895 126.641 10.078 126.474 9.81087C126.306 9.54371 126.062 9.33342 125.773 9.20769C125.484 9.08196 125.164 9.04669 124.854 9.10653C124.545 9.16636 124.261 9.31849 124.04 9.54289C124.004 9.57607 120.656 12.9466 115.999 16.8647C112.833 19.5265 109.106 21.9655 105.155 24.5491C95.3931 30.9441 84.3315 38.1829 78.9607 51.1388C76.2173 57.7921 76.4117 68.9751 78.9607 78.3827C78.1759 78.5178 77.391 78.6197 76.6061 78.724C75.6773 75.0168 75.1213 71.2261 74.9463 67.4083C73.4477 39.3277 97.513 24.414 107.79 18.0569C108.812 17.4217 109.687 16.8718 110.398 16.3977C114.519 13.6544 118.435 10.6165 122.117 7.30772C125.628 4.22637 126.921 3.19293 128.483 3.61958C128.806 3.70491 129.574 4.33303 130.231 6.09414Z" fill="white"/>
<path d="M124.307 292.191C124.335 292.736 124.224 293.28 123.985 293.771C123.746 294.262 123.386 294.685 122.939 294.999C122.172 295.523 121.288 295.849 120.364 295.947C119.542 296.057 118.709 296.057 117.886 295.947C116.828 295.813 115.792 295.542 114.804 295.142C114.493 295.018 114.182 294.881 113.874 294.731C113.454 294.528 113.045 294.303 112.648 294.058C111.73 293.5 110.891 292.82 110.154 292.039C109.679 291.533 109.263 290.977 108.911 290.38C108.421 289.593 108.132 288.697 108.069 287.772C108.046 287.227 108.156 286.685 108.39 286.191C108.631 285.703 108.99 285.281 109.433 284.964L109.464 284.942C110.388 284.274 111.702 283.93 113.194 283.93H113.371C115.153 283.987 116.901 284.426 118.498 285.217C119.794 285.84 120.976 286.676 121.995 287.689C123.138 288.844 123.914 290.124 124.189 291.337C124.256 291.617 124.296 291.903 124.307 292.191ZM121.225 292.781C121.464 292.562 121.653 292.296 121.781 291.998C121.908 291.7 121.97 291.379 121.962 291.055C121.949 290.667 121.848 290.287 121.666 289.943C121.484 289.6 121.226 289.303 120.912 289.074C121.073 289.567 121.112 290.091 121.026 290.602C120.98 290.838 120.872 291.058 120.713 291.238C120.473 290.798 120.178 290.39 119.835 290.024C118.262 288.394 116.162 287.373 113.907 287.142C113.482 287.106 113.053 287.115 112.629 287.168C112.708 286.981 112.834 286.818 112.994 286.694C113.722 286.097 115.212 285.909 116.29 285.947C115.489 285.481 114.581 285.229 113.654 285.215C113.266 285.194 112.879 285.251 112.514 285.383C112.15 285.515 111.815 285.719 111.531 285.983C110.583 286.853 110.562 288.059 111.024 289.209C111.562 290.469 112.472 291.536 113.632 292.266C115.42 293.437 117.801 294.198 119.885 293.511C120.187 293.412 120.479 293.283 120.755 293.127C120.851 293.072 120.943 293.011 121.03 292.944L121.249 292.845L121.225 292.781Z" fill="white"/>
<path d="M121.479 298.932L120.817 300.295C120.25 301.456 118.965 302.231 117.194 302.478C116.629 302.554 116.058 302.578 115.489 302.549C115.252 302.549 115.015 302.515 114.766 302.487C114.197 302.418 113.633 302.308 113.08 302.158C112.606 302.025 112.14 301.867 111.683 301.684C111.356 301.553 111.034 301.411 110.709 301.254C110.299 301.054 109.904 300.837 109.523 300.605C109.027 300.302 108.551 299.967 108.1 299.6C107.718 299.29 107.357 298.955 107.019 298.597C106.785 298.348 106.563 298.087 106.355 297.815C106.133 297.525 105.929 297.222 105.743 296.907C104.842 295.364 104.657 293.873 105.222 292.712L105.886 291.349C105.988 291.553 106.097 291.757 106.215 291.958C106.722 292.817 107.329 293.613 108.024 294.329C108.262 294.566 108.499 294.803 108.736 295.014C109.525 295.724 110.384 296.352 111.299 296.891C111.693 297.128 112.098 297.339 112.513 297.543C112.828 297.694 113.144 297.837 113.462 297.967C114.437 298.37 115.45 298.677 116.485 298.882C116.722 298.927 116.959 298.967 117.18 299.003C117.834 299.099 118.494 299.148 119.155 299.15C119.703 299.15 120.25 299.113 120.793 299.038C121.026 299.017 121.256 298.977 121.479 298.932Z" fill="white"/>
<path d="M118.01 19.2633C120.106 17.4998 121.929 15.8596 123.324 14.5654C122.612 21.1406 119.871 27.7513 106.014 41.0864C91.9455 54.6254 90.1861 68.9466 89.9205 76.8988C88.8119 76.8699 87.7027 76.9183 86.6008 77.0434C85.0192 77.207 83.504 77.5056 82.0363 77.7948C79.6247 69.0106 79.3568 58.3918 81.8632 52.3333C86.8569 40.2663 97.0388 33.6082 106.872 27.1729C110.896 24.5348 114.702 22.0436 118.01 19.2633Z" fill="white"/>
<path d="M119.477 156.659C120.521 158.04 120.841 159.527 120.426 161.074C119.812 163.388 117.595 165.621 114.616 166.929C113.329 165.27 111.337 164.488 109.4 165.151C108.482 165.5 106.981 166.628 106.768 167.661C106.624 166.918 106.608 166.156 106.723 165.407C105.581 165.313 104.433 165.489 103.372 165.922C102.312 166.355 101.368 167.032 100.619 167.898C99.0354 167.466 97.5477 166.738 96.2348 165.753C94.5062 164.409 93.4226 162.421 93.3348 160.434C93.2827 159.249 93.6051 158.216 94.1956 157.666C94.41 157.445 94.6689 157.273 94.955 157.159C95.2411 157.046 95.548 156.995 95.8554 157.009C96.2375 157.017 96.6186 157.051 96.996 157.111C97.6148 158.586 99.0897 159.851 102.628 160.065C105.803 160.257 108.582 159.929 110.592 159.159C111.097 160.057 111.965 160.984 112.406 160.757C113.177 160.359 113.829 157.438 113.891 155.59C116.485 154.869 117.848 154.876 119.477 156.659Z" fill="white"/>
<path d="M119.299 309.832L118.074 312.828L115.596 312.582L110.917 312.115L112.679 308.427L117.512 309.453L119.299 309.832Z" fill="white"/>
<path d="M119.209 291.755C119.24 291.807 119.271 291.854 119.3 291.904C118.382 292.041 117.056 291.871 115.615 291.171C114.173 290.472 113.222 289.534 112.769 288.73C112.862 288.716 112.954 288.704 113.054 288.697C114.234 288.654 115.405 288.917 116.454 289.46C117.799 290.121 118.721 290.984 119.209 291.755Z" fill="white"/>
<path d="M122.631 140.204C122.676 141.706 121.92 142.946 120.955 142.977C119.99 143.008 119.16 141.813 119.112 140.313C119.065 138.812 119.824 137.568 120.789 137.54C121.754 137.511 122.591 138.703 122.631 140.204Z" fill="white"/>
<path d="M116.246 137.642C116.314 139.863 114.948 141.705 113.194 141.757C111.439 141.809 109.964 140.057 109.898 137.836C109.831 135.615 111.195 133.776 112.95 133.721C114.704 133.667 116.189 135.423 116.246 137.642Z" fill="white"/>
<path d="M145.902 203.052C145.918 203.159 145.926 203.268 145.926 203.376C145.926 203.599 145.894 203.82 145.831 204.033C145.706 204.454 145.466 204.832 145.139 205.125C144.812 205.418 144.409 205.615 143.977 205.692C143.841 205.718 143.703 205.731 143.564 205.73C142.938 205.73 142.338 205.483 141.894 205.043C141.45 204.602 141.198 204.004 141.193 203.379C141.192 202.984 141.291 202.594 141.482 202.248C141.685 201.876 141.984 201.565 142.349 201.348C142.714 201.132 143.13 201.018 143.555 201.018C143.985 201.017 144.408 201.135 144.776 201.359C145.077 201.54 145.335 201.786 145.53 202.079C145.724 202.371 145.852 202.704 145.902 203.052Z" fill="white"/>
<path d="M139.023 202.139C138.918 202.526 138.863 202.924 138.859 203.324C137.181 203.41 135.54 203.758 133.849 204.114C131.76 204.554 129.602 205.012 127.184 205.012C125.441 205.015 123.708 204.764 122.038 204.265C119.292 203.455 117.199 201.712 116.245 199.501C116.099 199.161 115.979 198.81 115.887 198.451C115.714 197.769 115.65 197.063 115.7 196.36C115.786 195.02 116.355 193.757 117.303 192.805C117.413 192.697 117.561 192.637 117.715 192.637C117.831 192.637 117.945 192.671 118.041 192.736C118.137 192.8 118.212 192.892 118.256 192.999C118.3 193.106 118.312 193.224 118.289 193.337C118.266 193.451 118.21 193.555 118.128 193.637C117.545 194.222 117.143 194.963 116.971 195.77C116.8 196.561 116.818 197.381 117.023 198.164C117.098 198.462 117.196 198.753 117.315 199.036C118.126 200.947 119.923 202.419 122.37 203.142C126.714 204.424 130.062 203.718 133.614 202.966C135.367 202.585 137.155 202.208 139.023 202.139Z" fill="white"/>
<path d="M117.118 209.79C117.654 209.958 118.113 210.31 118.413 210.785C118.713 211.259 118.836 211.824 118.758 212.38C118.68 212.936 118.408 213.447 117.989 213.82C117.57 214.194 117.032 214.407 116.471 214.422C116.126 214.431 115.784 214.365 115.469 214.228C115.153 214.091 114.87 213.888 114.641 213.631C114.411 213.374 114.241 213.071 114.141 212.742C114.041 212.412 114.014 212.065 114.061 211.724C114.109 211.384 114.23 211.057 114.417 210.768C114.603 210.479 114.85 210.234 115.141 210.05C115.432 209.866 115.76 209.747 116.101 209.702C116.442 209.658 116.789 209.688 117.118 209.79Z" fill="white"/>
<path d="M112.527 209.499C112.306 209.834 112.13 210.198 112.006 210.58C110.656 210.241 109.248 210.217 107.79 210.191H107.256C106.481 210.177 105.67 210.148 104.837 210.063C103.362 209.934 101.919 209.557 100.569 208.947C98.6083 208.039 97.3871 206.543 96.9461 204.604C96.8713 204.279 96.8191 203.949 96.7896 203.616C96.7316 202.898 96.7555 202.176 96.8607 201.464C96.9058 201.127 96.9698 200.784 97.0504 200.433C97.2083 199.752 97.4127 199.083 97.6622 198.43C97.8566 197.913 98.0748 197.401 98.2645 196.951C98.3546 196.74 98.4447 196.529 98.5301 196.323C99.0351 195.107 99.4406 193.952 99.4145 192.767C99.3953 191.999 99.2015 191.245 98.8478 190.563C98.8029 190.474 98.7815 190.374 98.7859 190.274C98.7902 190.174 98.8201 190.077 98.8726 189.992C98.9252 189.907 98.9987 189.837 99.086 189.788C99.1734 189.74 99.2718 189.714 99.3718 189.714C99.4356 189.714 99.4989 189.725 99.5592 189.745C99.7054 189.794 99.8264 189.899 99.8959 190.037C100.508 191.218 100.722 192.566 100.508 193.879C100.33 195.024 99.8911 196.112 99.4382 197.183C99.4027 197.264 99.3695 197.344 99.3363 197.42C99.1371 197.894 98.9355 198.368 98.7577 198.842C98.5824 199.302 98.432 199.772 98.3072 200.248C98.2123 200.601 98.1364 200.959 98.0701 201.284C97.942 202 97.9069 202.73 97.9657 203.455C97.9925 203.786 98.0472 204.114 98.1293 204.436C98.3194 205.198 98.684 205.904 99.1943 206.501C99.7045 207.097 100.347 207.567 101.07 207.873C102.372 208.459 103.768 208.81 105.193 208.911C106.002 208.982 106.803 209.001 107.593 209.015H107.811C109.433 209.058 111.003 209.075 112.527 209.499Z" fill="white"/>
<path d="M111.422 305.625L110.381 307.804L109.027 310.648L108.446 311.864L107.654 313.523L107.1 314.687L106.431 316.085C106.248 316.18 105.696 316.232 104.904 316.047L104.847 316.019L102.673 314.964L102.262 314.765C101.7 314.305 101.421 313.888 101.378 313.696L102.025 312.343L102.597 311.158L103.474 309.323L103.97 308.287L105.463 305.163L106.495 303.001L111.422 305.625Z" fill="white"/>
<path d="M111.228 319.105C111.257 319.65 111.146 320.193 110.907 320.684C110.668 321.175 110.309 321.597 109.862 321.911C109.094 322.434 108.209 322.759 107.285 322.859C105.286 323.134 102.983 322.705 100.799 321.646C97.373 319.986 95.0705 317.092 94.9947 314.682C94.9669 314.137 95.0778 313.594 95.3171 313.103C95.5564 312.613 95.9162 312.191 96.3628 311.878C97.1297 311.354 98.0144 311.028 98.938 310.93C99.3348 310.875 99.7349 310.848 100.135 310.847L99.2178 312.767C99.1537 312.906 99.1052 313.053 99.0731 313.203C98.9736 313.737 99.0511 314.288 99.2936 314.774L99.1158 315.144C98.9791 315.441 98.9088 315.765 98.9095 316.092C98.9095 317.372 99.9955 318.699 101.838 319.576C102.642 319.972 103.522 320.189 104.418 320.212C104.827 320.217 105.234 320.151 105.62 320.015C105.911 319.916 106.179 319.76 106.409 319.556C106.638 319.353 106.826 319.106 106.96 318.83L107.221 318.285C107.592 318.152 107.925 317.929 108.19 317.638C108.326 317.488 108.438 317.319 108.522 317.135L109.449 315.194C110.545 316.46 111.19 317.853 111.228 319.105Z" fill="white"/>
<path d="M112.07 280.851C110.856 280.952 109.673 281.284 108.584 281.83C107.859 281.514 107.122 281.189 106.374 280.854C105.231 280.348 104.063 279.83 102.87 279.301C94.6676 275.66 85.3962 271.496 76.848 267.566L76.5445 267.426L76.4165 267.369L73.9979 266.253L73.5639 266.051L73.4406 265.994C66.3104 262.692 59.8869 259.635 55.2986 257.298L54.9666 257.127L54.7675 257.025L54.3549 256.814C53.046 254.918 51.0352 253.211 48.5193 251.986C47.0187 251.247 45.4124 250.746 43.758 250.5C42.1717 249.421 40.711 248.367 39.3286 247.383C34.0527 243.605 29.8841 240.618 24.2241 239.689C17.8811 238.646 11.8796 240.303 7.32456 244.354L7.11353 244.543C7.92328 243.4 8.86037 242.352 9.90679 241.419C13.9165 237.864 19.2185 236.401 24.8453 237.326C29.9647 238.167 33.7515 240.881 38.9919 244.633C41.3062 246.293 43.8268 248.096 46.7931 249.969C47.7084 250.544 48.6679 251.126 49.6717 251.716L49.7334 251.751C50.2883 252.074 50.8597 252.401 51.4454 252.726C51.8548 252.953 52.2967 253.19 52.7709 253.437L53.2451 253.674C54.0869 254.117 55.0141 254.596 56.0194 255.096C60.7405 257.48 67.1807 260.547 74.2776 263.816L74.3346 263.842L74.5456 263.942L77.18 265.155L77.244 265.186L77.4645 265.286C85.8941 269.161 94.9901 273.247 103.073 276.838L106.393 278.308L112.07 280.851Z" fill="white"/>
<path d="M108.402 325.844L107.738 327.206C107.599 327.492 107.418 327.754 107.202 327.986C105.464 329.854 101.39 330.003 97.6316 328.178C94.2669 326.545 91.9905 323.732 91.834 321.352C91.7869 320.762 91.8948 320.171 92.147 319.636L92.5003 318.925L92.8015 318.304C92.9764 318.653 93.1704 318.992 93.3824 319.321C94.6818 321.34 96.7661 323.179 99.4361 324.476C101.501 325.502 103.77 326.051 106.075 326.083C106.624 326.083 107.173 326.046 107.716 325.972C107.949 325.929 108.179 325.889 108.402 325.844Z" fill="white"/>
<path d="M106.265 283.537L106.384 283.589C106.07 283.973 105.801 284.392 105.585 284.838L102.417 291.361C101.554 293.134 101.568 295.189 102.431 297.254L100.484 296.211C100.142 295.953 99.7473 295.772 99.3282 295.681C98.909 295.591 98.4751 295.593 98.0567 295.686C97.6382 295.78 97.2452 295.964 96.9048 296.225C96.5645 296.486 96.2849 296.817 96.0856 297.197L94.172 300.828C93.8911 301.366 93.7819 301.977 93.8591 302.579C93.9363 303.18 94.1961 303.744 94.6036 304.194L97.9944 307.922C95.4146 308.396 93.4891 309.752 92.5075 311.75L89.6478 317.638L40.4265 295.613L42.3709 291.612C43.3194 289.65 43.2079 287.346 42.0555 285.063L46.5395 285.511C46.6359 285.521 46.7331 285.526 46.8311 285.526C47.4185 285.524 47.9924 285.349 48.4803 285.022C48.9682 284.696 49.3481 284.231 49.5722 283.689L50.9191 280.394C51.0758 280.01 51.1501 279.598 51.1373 279.184C51.1244 278.77 51.0247 278.364 50.8445 277.991C50.6643 277.618 50.4077 277.287 50.0913 277.019C49.7749 276.752 49.4058 276.554 49.0079 276.438L46.5134 275.099C49.2331 274.663 51.2747 273.293 52.2801 271.223L55.4504 264.7C55.8797 263.814 56.0995 262.841 56.093 261.856C56.0918 261.37 56.0425 260.886 55.946 260.41C60.3849 262.626 66.1255 265.347 72.4068 268.256L72.644 268.362L72.7625 268.419L75.4894 269.678L75.6198 269.737L75.7289 269.787C84.6683 273.897 94.3926 278.261 102.867 282.02L104.29 282.65L106.265 283.537Z" fill="white"/>
<path d="M106.374 201.219C106.316 203.162 106.084 205.095 105.679 206.996C104.37 206.942 103.082 206.639 101.885 206.105C100.524 205.474 99.9884 204.372 99.9054 203.135C99.8366 202.07 100.102 200.904 100.47 199.854C100.508 199.74 100.548 199.629 100.591 199.52C100.714 199.188 100.854 198.852 100.996 198.51C101.421 198.844 101.857 199.162 102.305 199.458C103.296 200.125 104.378 200.644 105.518 200.999C105.8 201.087 106.085 201.16 106.374 201.219Z" fill="white"/>
<path d="M103.666 303.459L101.769 307.431L100.226 305.734L97.622 302.873L96.9912 302.179L97.5887 301.046L98.7483 298.841L100.705 300.678L103.666 303.459Z" fill="white"/>
<path d="M198.275 194.493C198.7 195.058 199.052 195.674 199.323 196.327C198.716 196.384 198.112 196.476 197.516 196.602C196.561 196.801 195.626 197.083 194.72 197.444C190.215 199.236 186.506 202.895 184.337 207.368C182.952 210.212 182.392 213.389 182.03 216.491C182.013 216.626 181.999 216.764 181.982 216.899C181.925 217.397 181.875 217.89 181.826 218.378C181.005 218.54 180.162 218.563 179.333 218.447C178.267 218.291 177.216 218.046 176.192 217.712C173.78 216.956 171.449 216.003 169.078 215.064C165.846 213.789 162.576 212.531 159.24 211.495C156.682 210.651 154.057 210.026 151.394 209.627C150.25 209.464 149.098 209.362 147.944 209.321L147.503 209.309C146.189 209.283 144.876 209.353 143.573 209.52C145.29 210.068 146.967 210.615 148.624 211.179C151.208 218.266 153.087 225.59 154.234 233.045C154.675 235.977 155.05 238.94 155.252 241.908C155.337 243.195 155.392 244.482 155.403 245.769C155.418 247.355 155.368 248.938 155.237 250.509C155.149 251.437 155.006 252.358 154.808 253.268C154.763 253.449 154.711 253.626 154.654 253.802C153.624 252.635 152.448 251.607 151.154 250.742C149.53 249.664 147.792 248.769 145.971 248.073C145.001 247.691 143.991 247.343 142.943 247.02C138.317 245.598 132.984 244.683 127.279 243.702C122.513 242.889 117.583 242.043 112.738 240.832C108.929 239.898 105.194 238.68 101.568 237.186C101.286 236.39 100.714 234.411 100.714 231.431C100.738 228.729 101.151 226.044 101.94 223.46C102.711 220.853 103.716 218.665 104.691 216.546C105.343 215.124 106.004 213.685 106.588 212.113C106.986 212.125 107.377 212.132 107.759 212.137C109.281 212.163 110.604 212.187 111.79 212.538C111.883 213.442 112.237 214.301 112.808 215.009C113.379 215.717 114.143 216.244 115.008 216.526C115.873 216.809 116.801 216.835 117.681 216.601C118.56 216.367 119.352 215.883 119.962 215.207C120.572 214.532 120.972 213.695 121.116 212.797C121.259 211.898 121.138 210.978 120.769 210.147C120.399 209.316 119.797 208.609 119.034 208.114C118.271 207.618 117.381 207.354 116.471 207.354C115.649 207.352 114.842 207.567 114.13 207.977C112.056 207.164 109.971 207.103 108.053 207.069C108.425 205.194 108.644 203.292 108.71 201.381C110.664 201.279 112.591 200.88 114.424 200.196C115.591 202.969 118.145 205.138 121.486 206.121C123.333 206.671 125.25 206.949 127.177 206.946C129.799 206.946 132.156 206.448 134.25 205.998C136.066 205.616 137.66 205.287 139.229 205.232C139.563 206.004 140.098 206.672 140.777 207.167C141.457 207.662 142.257 207.965 143.094 208.046C143.931 208.127 144.774 207.983 145.536 207.627C146.298 207.272 146.951 206.719 147.427 206.026C147.903 205.333 148.184 204.525 148.241 203.686C148.298 202.847 148.13 202.009 147.753 201.257C147.376 200.506 146.804 199.869 146.097 199.414C145.391 198.958 144.575 198.7 143.735 198.667H143.559C142.912 198.667 142.272 198.8 141.68 199.058C141.087 199.317 140.554 199.695 140.114 200.17C137.664 200.098 135.409 200.575 133.202 201.039C129.761 201.767 126.8 202.395 122.92 201.253C121.023 200.689 119.646 199.594 119.079 198.171C123.003 196.244 126.695 193.952 130.484 191.852C132.581 190.698 134.686 189.579 136.818 188.771C137.713 188.449 138.626 188.179 139.552 187.96C140.574 187.723 141.617 187.522 142.67 187.363C145.338 186.96 148.074 186.773 150.72 186.517C155.548 186.095 160.442 185.737 165.343 184.749C166.882 184.439 168.402 184.043 169.896 183.563C170.619 183.326 171.338 183.063 172.054 182.765C178.131 184.061 183.976 185.787 189.397 188.043C192.228 189.401 196.157 191.627 198.275 194.493ZM147.031 243.427C145.69 242.08 144.429 240.655 143.256 239.161C139.787 234.757 138.556 229.255 138.788 223.673C134.71 231.085 139.054 240.929 147.031 243.427Z" fill="white"/>
<path d="M104.145 211.94C103.647 213.187 103.104 214.372 102.552 215.574C101.544 217.769 100.501 220.037 99.6851 222.801C97.9067 228.819 98.2434 233.322 98.7887 235.951C96.2326 234.728 94.3475 233.597 92.8868 232.723C92.2205 232.322 91.6301 231.969 91.0871 231.67C89.6644 226.328 86.819 221.419 82.0552 218.48C80.6771 217.656 79.1832 217.044 77.6235 216.664C78.7427 213.711 79.9615 210.779 80.6325 207.695C80.8341 206.816 81.0143 205.924 81.1637 205.024C81.1992 204.806 81.2348 204.585 81.2656 204.365C81.2846 204.237 81.3036 204.106 81.3202 203.976C81.332 203.891 81.3415 203.805 81.3533 203.72C81.3747 203.549 81.396 203.376 81.415 203.206C81.4269 203.12 81.4363 203.033 81.4458 202.947C81.4624 202.789 81.479 202.627 81.4932 202.473C81.4932 202.419 81.5051 202.364 81.5098 202.307C81.5217 202.179 81.5312 202.049 81.543 201.921C81.5699 201.57 81.5913 201.219 81.6071 200.869C81.7848 197.877 81.4151 194.877 80.5163 192.018C80.2081 194.941 79.7765 197.837 79.1908 200.693C79.1197 201.044 79.0462 201.404 78.9679 201.743C72.3523 201.222 65.4331 200.174 58.0255 199.055L54.2316 198.482C49.4252 197.771 46.0557 197.318 43.3478 196.958C42.6957 196.87 42.0887 196.792 41.522 196.721C37.6285 196.197 35.594 195.863 32.3218 194.922C31.1853 194.605 30.0901 194.156 29.059 193.582C28.1959 193.107 27.4093 192.505 26.7257 191.795C26.5367 191.595 26.3593 191.383 26.1946 191.162C26.6133 190.78 27.0092 190.373 27.3802 189.944C28.3551 188.819 29.205 187.591 29.915 186.282C30.6701 184.899 31.3116 183.457 31.8333 181.97C33.4125 177.529 33.4931 171.646 32.4972 167.4C32.3258 166.661 32.1015 165.934 31.8262 165.227C31.6871 164.879 31.5287 164.54 31.3519 164.21C32.0665 164.066 32.7896 163.967 33.5168 163.916C35.4675 163.795 37.4248 163.835 39.3689 164.035C43.0822 164.376 47.431 165.774 52.4532 167.393C53.7384 167.806 55.0615 168.235 56.4439 168.666C56.7601 168.958 57.0905 169.247 57.4351 169.531C64.1076 175.132 73.5853 178.735 83.2337 180.733C88.0828 184.763 92.2751 189.634 96.5978 194.362L97.0222 194.803C96.8705 195.213 96.6831 195.668 96.4626 196.19C96.2634 196.664 96.0382 197.188 95.8271 197.745C95.4646 198.694 95.1923 199.676 95.0138 200.677C94.9553 201.024 94.9103 201.368 94.8787 201.708C94.8105 202.417 94.8105 203.131 94.8787 203.841C94.911 204.177 94.9608 204.511 95.028 204.841C95.5616 207.448 97.1621 209.534 99.7443 210.729C101.139 211.36 102.624 211.769 104.145 211.94Z" fill="white"/>
<path d="M72.4068 249.002C74.5883 252.557 75.1977 257.2 74.8657 261.377C67.8541 258.127 61.5159 255.115 56.9039 252.778C55.8938 252.263 54.9619 251.784 54.1296 251.341C53.6554 251.09 53.2151 250.853 52.8089 250.63L52.6524 250.545C51.824 250.085 51.0273 249.627 50.2622 249.17C50.9376 247.631 51.9836 246.284 53.3068 245.247C54.7306 244.12 56.4055 243.354 58.1891 243.012C59.4388 242.772 60.7168 242.715 61.983 242.841C62.4454 242.886 62.9197 242.953 63.4057 243.045C67.4083 243.797 70.4387 245.797 72.4068 249.002Z" fill="white"/>
<path d="M76.6772 137.08C76.7175 138.407 76.0536 139.505 75.1952 139.531C74.3368 139.557 73.6065 138.502 73.5662 137.175C73.5259 135.848 74.1898 134.748 75.0482 134.722C75.9066 134.696 76.6345 135.753 76.6772 137.08Z" fill="white"/>
<path d="M71.0314 134.814C71.0907 136.777 69.8837 138.405 68.333 138.452C66.7822 138.5 65.4757 136.95 65.4164 134.987C65.3571 133.024 66.5641 131.396 68.1148 131.349C69.6656 131.301 70.9721 132.851 71.0314 134.814Z" fill="white"/>
<path d="M52.9605 261.756C52.9837 262.301 52.8738 262.844 52.6404 263.337C52.3978 263.827 52.0377 264.25 51.5923 264.567C50.825 265.09 49.9405 265.416 49.0172 265.516C48.0594 265.639 47.0886 265.62 46.1362 265.461C45.3496 265.332 44.5771 265.129 43.829 264.854C43.3951 264.695 42.9612 264.511 42.532 264.304C41.9953 264.041 41.4751 263.746 40.9741 263.42C40.3016 262.979 39.6741 262.472 39.1009 261.908C38.5088 261.326 37.994 260.67 37.5691 259.957C37.081 259.169 36.7929 258.274 36.7297 257.35C36.699 256.804 36.8081 256.26 37.0467 255.768C37.2853 255.276 37.6454 254.853 38.0931 254.539C39.0202 253.856 40.3457 253.505 41.8514 253.505C42.6148 253.505 43.3761 253.585 44.1231 253.742L44.4503 253.816C45.0726 253.964 45.6829 254.159 46.2761 254.399C46.5701 254.515 46.8642 254.636 47.1558 254.788C47.9065 255.151 48.621 255.584 49.2899 256.082C49.448 256.192 49.5974 256.309 49.738 256.43C50.339 256.917 50.8881 257.464 51.3765 258.063C52.3511 259.282 52.9226 260.576 52.9605 261.756ZM49.878 262.346C50.1174 262.128 50.3072 261.862 50.4344 261.564C50.5616 261.266 50.6234 260.945 50.6154 260.621C50.6027 260.233 50.5015 259.852 50.3195 259.509C50.1375 259.165 49.8794 258.868 49.565 258.639C49.7268 259.131 49.7666 259.655 49.6811 260.166C49.6345 260.402 49.5256 260.621 49.3658 260.801C49.1267 260.361 48.8319 259.953 48.4884 259.587C46.9155 257.956 44.8152 256.935 42.5604 256.705C42.1346 256.67 41.7062 256.68 41.2824 256.734C41.3602 256.547 41.4852 256.384 41.6452 256.26C42.3731 255.662 43.8646 255.477 44.9411 255.513C44.1403 255.047 43.233 254.796 42.3067 254.783C41.7816 254.776 41.2621 254.891 40.7892 255.12C40.5709 255.238 40.3679 255.383 40.1845 255.551C39.236 256.418 39.2147 257.625 39.6771 258.774C39.84 259.173 40.0459 259.553 40.2912 259.907C40.8132 260.681 41.4918 261.337 42.283 261.832C43.6583 262.733 45.3798 263.389 47.0515 263.333C47.5561 263.32 48.0561 263.233 48.5359 263.077C48.8391 262.979 49.1315 262.85 49.4085 262.693C49.5025 262.639 49.5928 262.578 49.6788 262.512L49.8993 262.41L49.878 262.346Z" fill="white"/>
<path d="M50.134 268.495L49.47 269.858C48.9057 271.022 47.6181 271.797 45.8492 272.043C45.2842 272.118 44.7135 272.141 44.1443 272.112C43.7662 272.094 43.3894 272.055 43.0156 271.996C42.5842 271.928 42.1567 271.837 41.7352 271.723C41.3914 271.631 41.0475 271.522 40.7061 271.396C39.7008 271.035 38.7412 270.558 37.8464 269.974C37.4696 269.727 37.1063 269.461 36.758 269.175C36.4782 268.938 36.215 268.701 35.9708 268.464C35.6294 268.129 35.3124 267.771 35.0223 267.39C33.6802 265.651 33.1775 263.754 33.8889 262.29L34.5505 260.927C34.6524 261.131 34.7639 261.334 34.8824 261.538C35.3888 262.397 35.9953 263.193 36.6893 263.909C37.0094 264.238 37.3461 264.558 37.7041 264.857C38.3089 265.373 38.9518 265.843 39.6272 266.262C40.1282 266.575 40.6459 266.861 41.178 267.118C41.6095 267.329 42.0482 267.518 42.4892 267.687C43.2262 267.973 43.984 268.203 44.7561 268.374C45.1189 268.457 45.4817 268.523 45.8421 268.578C46.4961 268.675 47.1562 268.724 47.8173 268.725C48.3661 268.726 48.9143 268.69 49.4582 268.616C49.6811 268.58 49.9087 268.552 50.134 268.495Z" fill="white"/>
<path d="M47.9526 279.396L46.729 282.392L44.2488 282.145L39.5728 281.678L41.3346 277.99L46.1671 279.017L47.9526 279.396Z" fill="white"/>
<path d="M47.8647 261.32L47.9525 261.467C47.0348 261.602 45.7093 261.434 44.27 260.734C42.8307 260.035 41.8775 259.099 41.4246 258.293C41.518 258.278 41.6122 258.267 41.7067 258.262C42.888 258.217 44.0607 258.48 45.1094 259.026C46.4515 259.68 47.3763 260.547 47.8647 261.32Z" fill="white"/>
<path d="M40.0731 275.188L39.0321 277.367L37.6758 280.211L37.0949 281.425L36.3076 283.084L35.748 284.252L35.0794 285.651C34.9252 285.734 34.496 285.784 33.8819 285.679C33.7799 285.663 33.6709 285.641 33.557 285.615C32.6165 285.383 31.7336 284.96 30.963 284.373V284.359L30.9037 284.331C30.3393 283.873 30.0595 283.454 30.0168 283.264L30.6642 281.911L31.2356 280.725L32.1106 278.891L32.6086 277.853L34.1024 274.729L35.1339 272.569L40.0731 275.188Z" fill="white"/>
<path d="M39.881 288.666C39.9117 289.212 39.8025 289.756 39.564 290.248C39.3254 290.74 38.9652 291.163 38.5176 291.477C37.2893 292.38 35.3615 292.705 33.2393 292.399C31.9214 292.201 30.6418 291.801 29.4454 291.214C28.4951 290.755 27.6034 290.184 26.7896 289.512C24.8761 287.924 23.7071 285.957 23.6407 284.252C23.6176 283.708 23.7283 283.166 23.9632 282.674C24.2045 282.184 24.5639 281.762 25.0089 281.446C25.7759 280.923 26.6605 280.597 27.584 280.498C27.977 280.445 28.373 280.418 28.7696 280.415L27.8519 282.335C27.7879 282.475 27.7393 282.621 27.7073 282.771C27.5928 283.469 27.7553 284.184 28.1602 284.764L28.1057 284.876C27.998 285.113 27.9422 285.37 27.942 285.63C27.942 286.76 28.9617 288 30.6405 288.782C31.3956 289.154 32.2224 289.358 33.0638 289.379C33.4244 289.384 33.783 289.327 34.1238 289.209C34.3671 289.127 34.5917 288.997 34.7843 288.828C34.9769 288.658 35.1336 288.451 35.2453 288.22L35.3568 287.983C35.518 287.951 35.6765 287.907 35.831 287.851C36.211 287.718 36.5523 287.493 36.8245 287.196C36.9591 287.045 37.0709 286.875 37.1565 286.692L38.086 284.748C38.436 285.154 38.7487 285.591 39.0203 286.054C39.5166 286.841 39.8121 287.738 39.881 288.666Z" fill="white"/>
<path d="M37.8725 249.414L39.5324 250.599C37.1469 251.1 35.2239 252.396 34.247 254.406L31.0625 260.924C30.178 262.745 30.2349 264.814 31.0625 266.807L29.1418 265.779C28.7996 265.519 28.4051 265.338 27.9856 265.247C27.5661 265.155 27.1318 265.156 26.7127 265.25C26.2937 265.343 25.9 265.526 25.5591 265.787C25.2182 266.048 24.9381 266.38 24.7385 266.76L22.8249 270.391C22.5415 270.93 22.431 271.543 22.5082 272.147C22.5854 272.751 22.8466 273.316 23.2565 273.766L26.6473 277.493C24.0698 277.967 22.142 279.322 21.1603 281.321L18.9243 285.926C16.4867 284.423 6.43284 277.708 3.38823 267.511C2.89933 265.888 2.61184 264.211 2.53223 262.517C2.40539 259.973 2.71659 257.426 3.45225 254.987C4.4525 251.61 6.36697 248.575 8.98425 246.217C12.9655 242.678 18.2319 241.239 23.8185 242.152C28.9047 242.988 32.6654 245.683 37.8725 249.414Z" fill="white"/>
<path d="M37.0474 295.426L36.4831 296.585L36.393 296.77C35.141 299.349 30.5101 299.795 26.287 297.742C22.2275 295.772 19.7496 292.084 20.672 289.512C20.7085 289.405 20.7521 289.301 20.8024 289.199L21.4545 287.855C22.0117 288.945 22.7312 289.944 23.5885 290.818C24.892 292.142 26.4166 293.228 28.0938 294.028C30.053 295.002 32.1957 295.553 34.3822 295.644H34.7592C35.5274 295.649 36.294 295.576 37.0474 295.426Z" fill="white"/>
<path d="M32.3193 273.022L30.4199 276.995L28.8787 275.298L26.2775 272.437L25.6467 271.742L26.2419 270.609L27.4038 268.405L29.3576 270.242L32.3193 273.022Z" fill="white"/>
<path d="M28.2599 165.051C29.5214 166.407 31.231 174.343 28.8954 180.913C27.1146 185.926 24.8098 188.261 23.8495 189.057L21.3052 188.436C24.1079 184.618 29.142 175.796 25.8104 165.042C26.159 165.042 26.5218 165.042 26.868 165.042C27.328 165.037 27.7928 165.042 28.2599 165.051Z" fill="white"/>
<path d="M22.5713 165.208C26.4197 176.253 20.008 185.187 17.9688 187.647L17.7554 187.598C10.6015 185.938 7.46441 183.886 6.16262 181.492C5.9255 175.533 11.4741 173.013 16.833 172.84C12.3064 172.172 7.94576 173.16 5.36353 176.173C5.71683 173.613 7.02336 171.432 9.14321 169.697C11.633 167.851 14.9906 167.033 18.1395 167.173C17.005 166.914 15.8461 166.775 14.6823 166.761C17.2399 165.928 19.8887 165.406 22.5713 165.208Z" fill="white"/>
<path d="M218.342 36.2178C226.916 35.0588 229.724 35.9808 226.997 45.2248C225.472 50.0104 223.243 54.4689 220.09 58.413C213.649 65.9221 204.47 70.5322 195.467 74.1611C186.456 77.7047 177.209 80.357 168.31 83.545C161.801 85.8726 155.548 88.6008 150.187 92.891C163.702 105.752 168.585 126.362 167.66 144.53C167.742 147.616 167.504 150.702 166.949 153.738C174.508 153.975 181.688 155.793 184.081 161.548C186.098 167.396 181.97 173.044 177.579 176.493C177.366 177.948 176.727 179.308 175.741 180.399C183.405 182.198 190.343 184.694 195.714 188.079C198.137 189.738 200.522 191.805 201.924 194.531C202.326 195.324 202.611 196.171 202.77 197.046C202.901 197.183 203.034 197.325 203.164 197.47C204.347 198.68 205.435 199.981 206.417 201.359C210.811 207.285 214.434 218.222 208.499 224.308C202.675 229.506 194.587 226.916 187.362 223.533C186.799 223.312 186.254 223.049 185.731 222.746C184.818 222.298 183.922 221.846 183.051 221.402C179.708 222.706 175.748 221.5 172.58 220.435C167.582 218.66 163.012 216.482 158.142 214.612C156.21 213.877 154.301 213.189 152.385 212.512C154.597 219.053 156.24 225.773 157.296 232.597C157.635 234.868 157.938 237.15 158.156 239.443C161.291 237.167 165.858 235.069 170.66 236.999C173.854 238.281 175.513 242.427 174.885 247.561C174.069 254.233 169.358 261.507 160.639 263.302C160.544 263.799 160.385 264.282 160.165 264.738C161.623 269.953 161.872 275.331 160.224 279.607C158.09 285.452 153.11 289.37 147.334 290.603C149.81 291.788 151.875 293.364 153.262 295.654C156.47 300.965 156.274 308.652 152.759 315.239C152.743 315.265 152.729 315.294 152.714 315.32C152.263 316.796 151.669 318.224 150.943 319.586C146.881 327.197 139.286 331.81 130.11 332.241C129.526 332.266 128.941 332.28 128.353 332.281C122.01 332.281 115.494 330.75 110.294 329.091C108.914 331.421 106.158 332.663 102.931 332.663C100.616 332.629 98.3374 332.074 96.2657 331.039C91.0941 328.527 88.1182 323.976 88.7869 320.041L39.3332 297.915L39.2005 298.187C37.9224 300.818 35.0224 302.217 31.5865 302.217C29.2701 302.183 26.991 301.628 24.9187 300.593C19.1354 297.784 16.0979 292.421 17.8336 288.227C15.1352 286.628 0.711199 277.386 0.0259229 262.666C-0.107195 259.929 0.213284 257.188 0.974401 254.555C1.48658 248.651 4.04273 243.325 8.23975 239.594C12.8209 235.522 18.858 233.858 25.2365 234.903C30.9274 235.852 35.1244 238.843 40.4335 242.647C42.5676 244.176 44.8866 245.835 47.566 247.551C48.26 246.084 49.2255 244.762 50.4115 243.655C51.1098 239.303 52.3576 235.057 54.1248 231.019C56.1261 226.411 59.0142 221.993 63.3274 219.144C66.5432 217.052 70.3364 216.026 74.1685 216.212C74.4744 215.463 74.7897 214.723 75.098 213.991C76.3676 211.028 77.4154 207.976 78.2327 204.858C71.6764 204.315 64.8521 203.282 57.563 202.18L53.7691 201.608C48.9864 200.897 45.6311 200.449 42.9375 200.091C37.7777 199.406 35.4208 199.093 31.4561 197.958C26.1589 196.434 23.9228 193.58 23.1071 192.158C22.3057 191.971 20.845 191.618 18.1466 190.956L18.0565 190.93L17.0559 190.693C5.75236 188.062 1.7403 184.094 2.25485 176.05V175.955C3.25075 168.024 10.8836 162.987 22.9388 162.103C23.105 162.028 23.2832 161.983 23.4652 161.97C25.1091 161.849 26.7594 161.841 28.4044 161.947C29.6588 161.316 32.8101 160.332 39.6747 160.965C43.452 161.314 47.6135 162.591 52.3725 164.12C51.5997 163.028 50.92 161.872 50.3403 160.667C47.5708 154.611 47.1487 147.611 48.939 141.23C49.4173 139.445 50.1025 137.721 50.9806 136.094C51.047 118.234 56.7236 97.6126 70.7848 85.9603C69.4303 84.7042 68.2799 83.2448 67.375 81.6346C66.6637 80.4945 67.6619 78.9633 68.9803 79.0984C70.3295 79.1316 71.6621 79.1197 72.9876 79.0605C72.0903 75.312 71.5449 71.488 71.3586 67.6381C70.6781 54.6656 75.0174 42.7858 84.2603 32.3211C91.777 23.8166 100.622 18.3365 105.907 15.0631C106.905 14.4469 107.768 13.9112 108.425 13.4774C112.413 10.8185 116.204 7.87655 119.769 4.67424C123.48 1.42222 125.932 -0.727612 129.422 0.237088C131.141 0.711143 132.611 2.37033 133.56 4.89941C135.794 10.882 135.298 22.52 126.546 35.6324C125.237 37.5902 123.416 39.9297 121.308 42.6389C115.093 50.6196 106.77 61.3143 103.775 72.1559C104.328 72.4379 104.887 72.7058 105.459 72.957C112.719 76.4176 120.677 78.2617 128.301 80.8903L128.668 81.0088C129.531 76.2223 131.143 71.6013 133.444 67.3158C139.08 56.1755 149.829 48.2849 161.27 44.0729C175.077 38.9057 189.809 38.6047 204.212 37.986C208.86 37.7063 213.531 36.8412 218.342 36.2178ZM223.886 44.2767C224.343 42.6673 224.879 40.7948 224.659 39.247C224.614 39.247 224.559 39.2233 224.49 39.2115C222.617 38.9578 220.697 39.2921 218.776 39.5172C214.105 40.1548 209.358 41.0816 204.447 41.4253C182.305 42.3734 158.507 43.3594 142.234 60.4301C136.562 66.4791 133.527 74.0236 130.646 81.6844C130.646 81.6844 130.646 81.7033 130.646 81.7128C130.28 82.6846 129.916 83.6572 129.553 84.6306L129.292 85.3275C128.903 86.3562 128.509 87.3849 128.106 88.4088C128.086 87.2505 128.118 86.0947 128.203 84.9411C128.222 84.6828 128.244 84.4268 128.267 84.1708C124.319 82.7913 120.253 81.6559 116.262 80.3783C113.73 79.5345 111.162 78.6717 108.639 77.6976C106.742 76.9675 104.887 76.1759 103.08 75.2799C101.957 74.7253 100.857 74.1279 99.7822 73.488C99.3079 73.2106 98.8598 72.9215 98.4069 72.6252C97.2402 71.8762 96.0973 71.113 94.9662 70.3284C94.5456 72.2045 94.2964 74.1149 94.2217 76.036C94.2217 76.5622 94.2217 77.0837 94.262 77.5838L94.2762 77.7118C96.8348 78.8566 98.8787 80.5324 101.577 81.3549C98.7862 81.5161 95.7938 80.4495 93.0551 80.3333H92.9863C92.8871 80.3452 92.7868 80.3452 92.6875 80.3333C91.9762 80.3096 90.5677 80.3191 89.8611 80.3523C87.561 80.4897 85.4246 80.9306 83.1767 81.4118C82.5483 81.5469 81.9128 81.682 81.2631 81.8171C80.8719 81.8977 80.4782 81.9735 80.0775 82.0423C79.2871 82.1829 78.4904 82.2998 77.6873 82.3931C76.976 82.4784 76.248 82.5424 75.5224 82.5898C75.0197 82.623 74.5171 82.6491 74.0167 82.6633C73.3749 82.6838 72.7323 82.6909 72.0889 82.6846C72.4541 83.1697 72.8406 83.6351 73.2485 84.0807C73.8521 84.7403 74.5044 85.3535 75.2 85.9153C75.5303 86.1855 75.8702 86.4423 76.2196 86.6856C77.5736 87.6353 79.0553 88.3886 80.6205 88.9232C81.0023 89.0535 81.3912 89.1602 81.7848 89.2763C81.5034 89.3522 81.2212 89.4162 80.9383 89.4683C79.5484 89.7164 78.1217 89.6655 76.7531 89.319C75.7996 89.0812 74.8789 88.7269 74.012 88.2642C60.0219 99.1059 54.4686 119.301 54.0939 136.502C54.0942 136.612 54.0823 136.721 54.0584 136.829C53.5649 136.656 53.0506 136.55 52.5289 136.514C51.1631 138.884 49.2093 144.416 49.7381 151.031C50.3049 151.317 50.9143 151.509 51.5425 151.6C51.9336 155.259 53.2052 158.769 55.2487 161.83C56.4925 163.481 57.9047 164.997 59.4623 166.355C59.6994 166.559 59.9366 166.758 60.1737 166.957C62.3777 168.759 64.7614 170.328 67.2873 171.641L67.4272 171.714C69.8285 172.963 72.3094 174.053 74.8538 174.976C75.2758 175.134 75.7003 175.286 76.1271 175.431L76.8385 175.668C79.4231 176.543 82.0835 177.299 84.7677 177.965C88.2842 178.839 91.8386 179.558 95.3124 180.176C97.0055 180.48 98.6795 180.759 100.32 181.022C103.533 181.537 106.616 181.99 109.466 182.428C106.858 182.673 104.239 182.78 101.62 182.748C102.151 183.485 102.656 184.229 103.137 184.964C104.491 186.962 105.66 189.169 107.213 190.89C107.372 191.064 107.557 191.213 107.761 191.331H107.79C108.451 191.26 109.177 190.833 109.803 190.482C113.398 188.245 116.523 185.521 119.947 183.066C117.946 182.966 115.968 182.776 114.033 182.506C116.878 182.122 119.7 181.753 122.496 181.342C124.381 181.065 126.254 180.771 128.113 180.437C129.436 180.2 130.752 179.946 132.061 179.667L132.562 179.565L132.875 179.498L133.145 179.441L133.567 179.351L134.041 179.247L134.956 179.034L135.248 178.963L135.948 178.787L136.327 178.688C136.704 178.591 137.083 178.489 137.46 178.382L137.773 178.294L137.902 178.256L138.217 178.164L138.971 177.927L139.445 177.78L139.538 177.751L140.047 177.586C140.228 177.529 140.405 177.469 140.583 177.408C141.089 177.237 141.593 177.059 142.094 176.872L142.262 176.808L142.445 176.739L142.717 176.635L143.22 176.438C143.434 176.353 143.647 176.268 143.86 176.178L144.097 176.078L144.572 175.879L145.008 175.687L145.361 175.528L145.556 175.44L145.975 175.246L146.414 175.035H146.428L146.903 174.798C147.219 174.64 147.527 174.482 147.827 174.324C153.312 171.404 158.023 167.303 160.845 161.544C161.589 160.049 162.197 158.491 162.664 156.888C162.972 155.853 163.223 154.8 163.427 153.738C163.726 152.168 163.92 150.579 164.011 148.984C164.127 146.729 164.061 144.447 164.141 142.19C164.212 131.05 162.448 119.623 157.554 109.573C155.037 104.227 151.509 99.4196 147.163 95.4153C146.315 96.1786 145.468 96.9797 144.588 97.8212C144.858 96.5928 145.302 95.4091 145.907 94.3061C146.508 93.2019 147.231 92.1683 148.062 91.2247C148.1 91.1797 148.138 91.137 148.178 91.0943C151.474 87.4441 155.946 85.0193 160.326 82.9454C175.632 76.0431 192.622 73.8269 206.986 65.1138C212.888 61.5584 218.268 56.9553 221.285 50.6385C222.337 48.5994 223.208 46.4713 223.886 44.2791V44.2767ZM208.072 213.597C208.037 213.322 207.996 213.052 207.949 212.791C207.325 209.558 206.033 206.49 204.155 203.784C200.908 204.077 197.835 205.381 195.37 207.513C191.519 210.848 190.888 218.328 190.791 221.215C194.473 222.801 198.263 223.986 201.502 223.697C201.907 223.283 202.22 222.789 202.422 222.246C203.451 219.245 202.804 215.346 200.762 212.832C203.394 214.901 205.236 219.191 204.691 222.801C205.224 222.519 205.721 222.174 206.171 221.772C206.329 221.616 206.479 221.452 206.619 221.279C206.858 220.813 207.034 220.318 207.14 219.805C207.807 216.23 207.046 212.251 205.348 209.008C206.467 210.402 207.384 211.947 208.072 213.597ZM201.969 200.945C201.518 200.42 201.05 199.911 200.565 199.418C193.489 199.577 187.561 205.441 185.93 212.17C185.459 214.235 185.133 216.33 184.953 218.44C185.849 218.892 186.779 219.359 187.732 219.817C187.991 215.951 189.06 208.852 193.326 205.161C195.788 203.024 198.768 201.57 201.969 200.945ZM199.313 196.37C199.043 195.716 198.691 195.1 198.265 194.535C196.148 191.67 192.218 189.444 189.394 188.105C183.974 185.848 178.126 184.123 172.051 182.826C171.34 183.125 170.615 183.388 169.894 183.625C168.4 184.106 166.88 184.502 165.341 184.81C160.442 185.799 155.546 186.156 150.718 186.578C148.074 186.834 145.338 187.022 142.67 187.425C141.617 187.586 140.571 187.778 139.549 188.022C138.625 188.239 137.713 188.508 136.818 188.828C134.684 189.641 132.581 190.76 130.487 191.909C126.693 194.009 123.003 196.301 119.081 198.228C119.646 199.634 121.016 200.736 122.92 201.298C126.79 202.44 129.761 201.812 133.204 201.084C135.412 200.61 137.667 200.136 140.114 200.215C140.554 199.741 141.087 199.363 141.68 199.104C142.273 198.846 142.912 198.712 143.559 198.712H143.735C144.576 198.743 145.393 198.999 146.101 199.453C146.81 199.907 147.383 200.542 147.762 201.293C148.141 202.045 148.312 202.883 148.256 203.723C148.2 204.562 147.92 205.371 147.445 206.066C146.97 206.76 146.318 207.314 145.555 207.671C144.793 208.027 143.949 208.173 143.112 208.092C142.274 208.012 141.473 207.708 140.793 207.213C140.113 206.718 139.578 206.05 139.244 205.277C137.662 205.325 136.071 205.661 134.264 206.045C132.173 206.486 129.813 206.994 127.191 206.994C125.264 206.996 123.347 206.718 121.5 206.169C118.159 205.183 115.605 203.011 114.436 200.243C112.604 200.932 110.676 201.335 108.722 201.44C108.657 203.351 108.438 205.253 108.065 207.129C109.983 207.162 112.067 207.226 114.144 208.036C115.024 207.533 116.043 207.328 117.05 207.451C118.056 207.574 118.995 208.018 119.728 208.719C120.461 209.419 120.948 210.337 121.116 211.336C121.284 212.335 121.125 213.362 120.662 214.263C120.199 215.165 119.457 215.893 118.546 216.338C117.636 216.783 116.606 216.923 115.61 216.736C114.613 216.548 113.704 216.044 113.018 215.298C112.332 214.552 111.905 213.605 111.802 212.597C110.616 212.246 109.295 212.225 107.771 212.196C107.389 212.196 106.998 212.184 106.602 212.173C106.009 213.744 105.347 215.183 104.693 216.607C103.718 218.724 102.713 220.917 101.945 223.519C101.155 226.104 100.742 228.79 100.719 231.493C100.719 234.47 101.29 236.449 101.57 237.245C105.197 238.739 108.931 239.958 112.741 240.891C117.587 242.109 122.515 242.948 127.281 243.761C132.972 244.733 138.319 245.643 142.945 247.08C143.993 247.402 145.006 247.75 145.975 248.132C147.788 248.822 149.519 249.708 151.138 250.775C152.431 251.64 153.607 252.669 154.637 253.835C154.694 253.662 154.744 253.482 154.789 253.302C154.988 252.39 155.132 251.467 155.218 250.538C155.349 248.962 155.399 247.378 155.384 245.797C155.373 244.511 155.323 243.224 155.233 241.936C155.031 238.969 154.656 236.01 154.215 233.074C153.069 225.619 151.19 218.295 148.607 211.208C146.948 210.653 145.271 210.106 143.554 209.549C144.858 209.379 146.172 209.309 147.486 209.338C147.633 209.338 147.778 209.338 147.925 209.338C149.08 209.376 150.233 209.477 151.377 209.641C154.041 210.041 156.665 210.666 159.223 211.509C162.56 212.545 165.827 213.803 169.059 215.079C171.43 216.027 173.773 216.975 176.173 217.726C177.198 218.06 178.25 218.306 179.317 218.461C180.145 218.577 180.986 218.554 181.807 218.392C181.857 217.904 181.909 217.411 181.963 216.913C181.98 216.778 181.996 216.641 182.01 216.505C182.373 213.403 182.933 210.219 184.32 207.382C186.49 202.917 190.189 199.25 194.704 197.458C195.608 197.097 196.543 196.815 197.497 196.616C198.097 196.499 198.703 196.417 199.313 196.37ZM179.374 170.235C183.471 164.502 181.508 159.806 174.785 157.979C172.04 157.204 169.14 156.912 166.249 156.855C164.798 162.105 162.19 166.969 158.123 170.897C157.148 171.827 156.124 172.704 155.055 173.525C157.597 173.17 160.114 172.652 162.59 171.975C165.514 171.112 168.518 169.994 170.856 168.017C173.282 165.827 174.129 162.402 171.108 160.247C174.665 162.108 174.098 166.215 171.703 168.846C169.37 171.288 166.356 172.795 163.273 174.002C160.103 175.246 156.081 176.299 152.307 176.969C151.768 177.064 151.235 177.152 150.711 177.232C150.049 177.332 149.399 177.42 148.771 177.493C147.23 178.28 145.647 178.98 144.029 179.591C143.668 179.727 143.308 179.858 142.947 179.984C142.01 180.313 141.062 180.616 140.102 180.892C139.097 181.181 138.081 181.443 137.055 181.677C133.294 182.519 129.462 183.005 125.609 183.127C122.806 184.663 120.288 186.732 117.633 188.716C115.61 190.25 113.601 191.859 111.373 193.189C109.969 194.004 108.053 194.972 106.41 194.154C104.918 193.391 104.121 192.092 103.256 190.909C102.279 189.47 101.421 188.065 100.515 186.685C99.6071 185.283 98.6272 183.928 97.5793 182.627C94.8145 182.478 91.9477 182.2 89.043 181.786C91.8078 184.433 94.3284 187.285 96.8395 190.051C96.9021 189.508 97.1384 189 97.5132 188.602C97.888 188.204 98.3813 187.938 98.9196 187.844C99.458 187.749 100.013 187.83 100.501 188.076C100.989 188.322 101.385 188.718 101.629 189.207C102.801 191.549 102.666 193.642 102.146 195.481C103.415 196.588 104.778 197.524 106.346 198.041C106.488 198.088 106.63 198.133 106.777 198.174C107.411 198.281 108.055 198.322 108.698 198.295C110.417 198.193 112.11 197.823 113.715 197.197C113.658 196.141 113.824 195.084 114.201 194.095C114.578 193.107 115.159 192.209 115.906 191.459C116.32 191.047 116.863 190.791 117.444 190.733C118.025 190.676 118.608 190.82 119.095 191.142C119.582 191.464 119.943 191.943 120.117 192.5C120.291 193.057 120.268 193.657 120.051 194.199C120.952 193.711 121.813 193.232 122.617 192.8C130.022 188.534 133.505 186.382 138.395 185.111C139.36 184.86 140.377 184.637 141.492 184.452C143.894 184.037 146.737 183.741 150.436 183.466C152.916 183.208 158.087 182.902 163.003 182.077C163.838 181.937 164.663 181.781 165.474 181.603C165.668 181.563 165.863 181.518 166.055 181.475L166.342 181.409C166.868 181.286 167.378 181.155 167.873 181.013L168.082 180.954C168.319 180.883 168.556 180.809 168.793 180.736L169.05 180.65L169.301 180.565C169.467 180.508 169.633 180.449 169.794 180.387L170.031 180.3L170.268 180.209L170.399 180.155L170.826 179.97C170.901 179.937 170.975 179.904 171.046 179.868L171.248 179.771L171.3 179.745L171.48 179.655L171.717 179.529C172.522 179.122 173.23 178.547 173.792 177.842C172.572 178.372 171.322 178.828 170.048 179.209C169.257 179.448 168.453 179.663 167.634 179.854C165.448 180.355 163.234 180.722 161.004 180.954C159.987 181.065 158.965 181.155 157.945 181.229C155.157 181.43 152.373 181.513 149.674 181.594C151.462 181.357 153.291 181.12 155.128 180.857C155.859 180.751 156.589 180.638 157.319 180.52C159.619 180.143 161.917 179.693 164.158 179.098C164.81 178.927 165.457 178.74 166.097 178.541C170.778 177.081 175.108 174.876 178.577 171.255C178.862 170.92 179.125 170.581 179.374 170.235ZM171.786 247.184C172.222 243.609 171.281 240.611 169.495 239.895C165.227 238.186 160.886 241.08 158.429 243.235C158.559 245.773 158.522 248.317 158.32 250.851C158.099 252.747 157.86 254.88 156.807 256.561C157.506 257.831 158.133 259.14 158.685 260.481H158.718C158.795 260.456 158.875 260.438 158.955 260.427C167.383 259.249 171.136 252.555 171.793 247.184H171.786ZM152.468 284.079C157.637 279.991 158.472 273.574 157.336 267.488C157.135 266.419 156.879 265.361 156.568 264.319C156.463 263.968 156.354 263.619 156.24 263.278C156.155 263.024 156.067 262.771 155.98 262.52C155.714 261.763 155.435 261.013 155.142 260.27C154.784 259.353 154.41 258.44 154.028 257.532C153.174 257.017 152.297 256.535 151.396 256.084C145.622 253.913 140.583 253.207 134.454 252.346C128.239 251.476 120.504 250.391 109.556 247.43C100.029 244.849 95.8033 242.602 92.4101 240.794L92.2157 240.692C92.2157 240.929 92.2157 241.166 92.2157 241.403C92.1398 241.123 92.0639 240.841 91.9785 240.557C91.8197 239.981 91.6513 239.395 91.4758 238.805C91.3454 238.359 91.2079 237.909 91.0656 237.459C90.6673 236.193 90.2286 234.911 89.733 233.647C89.3394 232.637 88.9102 231.642 88.4407 230.67C86.0743 225.804 82.7048 221.62 77.5 220.151C77.1586 220.062 76.8147 219.983 76.4685 219.914C75.2854 219.693 74.0811 219.608 72.8786 219.658C70.1533 219.757 67.5043 220.584 65.2077 222.054C59.6805 225.64 56.522 232.483 54.7199 238.819C54.4891 239.59 54.2797 240.365 54.0916 241.142C56.0248 240.242 58.1244 239.753 60.2567 239.708C61.4721 239.681 62.6871 239.779 63.8822 240.002L63.9652 240.016C68.876 240.943 72.6082 243.429 75.0577 247.409C76.4467 249.735 77.3599 252.313 77.7442 254.994C78.8895 252.756 80.1652 250.592 81.1042 248.262C81.3414 247.653 81.5524 247.037 81.7587 246.413C81.7587 246.413 81.7587 246.414 81.7587 246.395C81.7041 249.502 81.007 252.595 80.3644 255.639C86.5627 257.613 92.4196 260.415 98.4163 262.896C101.273 264.129 104.127 265.37 106.979 266.62C110.773 262.802 116.29 261.405 121.422 260.628C123.265 260.371 125.126 260.259 126.987 260.294C121.77 261.906 116.589 263.479 112.032 266.343C111.296 266.81 110.603 267.341 109.959 267.928C109.422 268.426 108.96 268.998 108.586 269.628C108.42 269.924 108.262 270.23 108.112 270.54C107.355 272.195 106.845 273.952 106.599 275.755C114.505 279.258 121.208 282.186 125 283.814C121.621 280.365 118.913 276.367 116.547 272.2C118.553 274.75 120.757 277.139 123.138 279.344C125.363 281.375 127.864 283.347 130.601 284.506C130.624 284.506 130.648 284.523 130.672 284.535L130.755 284.57L130.8 284.589L130.864 284.618C132.044 285.124 133.252 285.562 134.482 285.928C140.358 287.704 147.488 288.166 152.468 284.079ZM153.042 303.831C152.954 301.297 152.33 298.922 151.123 296.957C149.139 293.674 145.079 292.079 140.375 290.837C137.982 290.556 135.632 289.991 133.373 289.154L132.628 288.972C131.416 288.671 130.205 288.348 129.017 287.986C127.718 287.595 126.44 287.139 125.187 286.618C125.955 287.556 126.559 288.617 126.973 289.756C127.822 290.038 128.687 290.297 129.564 290.538C130.771 290.87 132 291.174 133.223 291.463L134.845 291.842C141.783 293.454 148.337 294.978 151.443 300.117C152.137 301.278 152.672 302.528 153.034 303.831H153.042ZM150.405 314.336C151.775 309.678 151.424 304.902 149.305 301.397C146.744 297.159 140.69 295.751 134.278 294.262L133.704 294.127C132.488 293.845 131.257 293.553 130.036 293.238C129.164 293.001 128.293 292.764 127.428 292.511C127.41 293.436 127.191 294.347 126.785 295.179L123.617 301.702C122.612 303.769 120.568 305.142 117.853 305.578L120.35 306.917C120.832 307.058 121.269 307.32 121.621 307.678L121.666 307.723C122.057 308.136 122.32 308.652 122.425 309.211C122.53 309.77 122.471 310.347 122.256 310.873L120.91 314.168C120.685 314.71 120.304 315.174 119.817 315.5C119.329 315.827 118.756 316.003 118.168 316.005C118.071 316.005 117.974 316.005 117.879 315.99L113.414 315.545C114.514 317.74 114.692 320.067 113.708 322.092L111.422 326.797C116.85 328.501 123.655 330.034 129.986 329.738C135.329 329.484 140.071 327.674 143.739 324.587C145.784 322.862 147.479 320.761 148.733 318.399C149.425 317.105 149.983 315.744 150.398 314.336H150.405ZM150.642 253.316C148.849 251.997 146.876 250.939 144.785 250.175C143.837 249.81 142.842 249.474 141.802 249.168C137.411 247.855 132.317 246.985 126.864 246.058C122.052 245.238 117.08 244.399 112.148 243.152C103.107 240.879 97.5746 238.174 93.9514 236.112C93.1191 235.638 92.3864 235.202 91.7367 234.813C91.9098 235.868 92.0331 236.93 92.1113 237.985C92.569 238.222 93.029 238.459 93.5032 238.717C94.5655 239.284 95.7132 239.902 97.0932 240.547C99.9837 241.912 103.887 243.458 110.161 245.157C120.905 248.068 128.535 249.144 134.67 250.002L134.764 250.016C137.038 250.334 139.168 250.633 141.243 250.991C142.217 251.161 143.182 251.341 144.142 251.545C146.342 252.002 148.51 252.594 150.637 253.316H150.642ZM145.916 203.419C145.917 203.31 145.909 203.202 145.892 203.094C145.786 202.523 145.473 202.01 145.013 201.654C144.553 201.299 143.978 201.124 143.398 201.164C142.818 201.204 142.272 201.456 141.866 201.872C141.459 202.288 141.22 202.838 141.193 203.419C141.202 203.983 141.413 204.524 141.786 204.947C142.159 205.37 142.67 205.645 143.229 205.725C143.787 205.805 144.355 205.683 144.832 205.381C145.308 205.08 145.661 204.619 145.828 204.08C145.888 203.865 145.918 203.643 145.916 203.419ZM138.85 203.355C138.854 202.955 138.91 202.556 139.016 202.17C137.145 202.239 135.36 202.616 133.605 202.985C130.048 203.737 126.705 204.443 122.363 203.161C119.914 202.45 118.119 200.966 117.308 199.055C117.188 198.773 117.09 198.481 117.016 198.183C116.81 197.401 116.792 196.581 116.961 195.789C117.134 194.982 117.536 194.241 118.119 193.656C118.201 193.574 118.257 193.47 118.28 193.356C118.302 193.243 118.291 193.125 118.247 193.018C118.203 192.911 118.128 192.819 118.031 192.755C117.935 192.69 117.822 192.656 117.706 192.656C117.552 192.656 117.404 192.716 117.293 192.824C116.347 193.776 115.778 195.04 115.693 196.379C115.642 197.083 115.705 197.789 115.88 198.472C115.97 198.831 116.089 199.181 116.236 199.52C117.184 201.732 119.283 203.474 122.031 204.284C123.701 204.783 125.434 205.034 127.177 205.031C129.595 205.031 131.753 204.576 133.84 204.133C135.533 203.789 137.171 203.44 138.85 203.355ZM123.582 33.6579C131.589 21.6667 132.163 11.3442 130.221 6.14855C129.564 4.38743 128.798 3.75931 128.481 3.67398C126.918 3.23548 125.626 4.26655 122.116 7.3479C118.433 10.6595 114.515 13.7005 110.393 16.4474C109.682 16.9214 108.807 17.4619 107.785 18.1066C97.5082 24.4707 73.4405 39.3798 74.9154 67.458C75.0953 71.2738 75.6561 75.0622 76.5895 78.7666C77.3799 78.6749 78.1647 78.5611 78.9441 78.4252C76.4069 69.02 76.2101 57.8347 78.9631 51.1813C84.3243 38.2254 95.3883 30.989 105.151 24.6011C109.099 22.0175 112.828 19.5785 115.992 16.9191C120.649 12.9986 123.999 9.62811 124.032 9.59492C124.254 9.3718 124.538 9.22079 124.847 9.16167C125.156 9.10255 125.476 9.13806 125.764 9.26356C126.053 9.38907 126.297 9.59871 126.464 9.86506C126.632 10.1314 126.715 10.4421 126.702 10.7564C126.681 11.266 126.66 11.7708 126.631 12.2662C126.207 20.2351 124.578 27.5924 108.171 43.3784C100.005 51.2359 96.2491 59.3896 94.5086 66.2444C94.646 66.294 94.7755 66.3635 94.8927 66.4506C96.7707 67.7661 98.6416 69.103 100.584 70.3189C103.944 59.1383 112.238 48.4863 118.498 40.4535C120.563 37.7893 122.354 35.4973 123.582 33.6579ZM123.978 293.826C124.212 293.334 124.322 292.792 124.298 292.247C124.29 291.964 124.252 291.682 124.187 291.406C123.909 290.19 123.136 288.91 121.991 287.756C120.971 286.742 119.789 285.907 118.493 285.284C116.897 284.492 115.148 284.053 113.367 283.997H113.189C111.7 283.997 110.386 284.34 109.461 285.009L109.431 285.03C108.984 285.345 108.625 285.768 108.387 286.259C108.148 286.75 108.038 287.294 108.067 287.839C108.129 288.764 108.418 289.659 108.909 290.446C109.26 291.043 109.676 291.599 110.149 292.105C110.888 292.886 111.726 293.565 112.644 294.125C113.041 294.37 113.45 294.594 113.869 294.798C114.178 294.946 114.488 295.084 114.801 295.21C115.79 295.61 116.826 295.88 117.884 296.014C118.705 296.123 119.538 296.123 120.359 296.014C121.284 295.915 122.169 295.589 122.937 295.066C123.382 294.741 123.74 294.311 123.978 293.814V293.826ZM120.808 300.349L121.471 298.986C121.246 299.031 121.019 299.071 120.784 299.105C120.241 299.178 119.693 299.215 119.145 299.214C118.485 299.212 117.826 299.163 117.173 299.067C116.935 299.031 116.71 298.993 116.478 298.946C115.442 298.741 114.428 298.435 113.452 298.031C113.134 297.901 112.819 297.758 112.504 297.607C112.086 297.406 111.682 297.189 111.29 296.955C110.374 296.418 109.515 295.789 108.726 295.078C108.489 294.857 108.252 294.627 108.015 294.393C107.319 293.678 106.712 292.882 106.206 292.022C106.087 291.818 105.969 291.615 105.874 291.411L105.212 292.774C104.645 293.937 104.833 295.426 105.734 296.969C105.918 297.285 106.122 297.589 106.346 297.879C106.554 298.15 106.775 298.411 107.01 298.659C107.347 299.016 107.708 299.351 108.088 299.662C108.54 300.028 109.015 300.364 109.511 300.667C109.891 300.899 110.286 301.115 110.697 301.316C111.019 301.473 111.344 301.615 111.671 301.745C112.128 301.929 112.594 302.087 113.068 302.219C113.621 302.371 114.184 302.481 114.754 302.549C114.991 302.579 115.228 302.598 115.465 302.61C116.035 302.639 116.605 302.616 117.17 302.539C118.956 302.276 120.243 301.499 120.808 300.337V300.349ZM123.314 14.608C121.92 15.9022 120.099 17.5424 118 19.3059C114.695 22.0886 110.886 24.5774 106.855 27.2155C97.0173 33.6579 86.8402 40.3089 81.8464 52.3831C79.3401 58.4415 79.608 69.0603 82.0195 77.8445C83.4873 77.5554 85.0025 77.2567 86.5841 77.0931C87.686 76.9692 88.7952 76.9209 89.9037 76.9486C90.1693 68.9963 91.9287 54.668 105.999 41.1361C119.864 27.7939 122.591 21.1832 123.314 14.608ZM118.066 312.876L119.29 309.88L117.504 309.501L112.672 308.474L110.91 312.165L115.586 312.639L118.066 312.876ZM118.823 212.109C118.807 211.542 118.589 211 118.208 210.581C117.827 210.161 117.308 209.892 116.745 209.822C116.183 209.752 115.614 209.886 115.141 210.199C114.669 210.513 114.325 210.985 114.171 211.53C114.124 211.719 114.1 211.914 114.099 212.109C114.152 212.698 114.424 213.247 114.861 213.646C115.298 214.046 115.869 214.267 116.461 214.267C117.053 214.267 117.624 214.046 118.061 213.646C118.498 213.247 118.77 212.698 118.823 212.109ZM111.996 210.627C112.123 210.246 112.299 209.882 112.52 209.546C110.993 209.122 109.438 209.096 107.804 209.072H107.586C106.794 209.058 105.995 209.039 105.186 208.968C103.761 208.867 102.365 208.516 101.063 207.93C100.341 207.621 99.7015 207.148 99.1941 206.55C98.6867 205.951 98.3255 205.243 98.1389 204.481C98.0591 204.159 98.0044 203.831 97.9753 203.5C97.9175 202.775 97.9526 202.047 98.0796 201.331C98.1389 200.992 98.2124 200.648 98.3167 200.293C98.4397 199.81 98.5877 199.333 98.7602 198.866C98.9356 198.392 99.1396 197.918 99.3364 197.444C99.3696 197.365 99.4051 197.285 99.4383 197.207C99.8912 196.135 100.332 195.047 100.508 193.905C100.724 192.592 100.51 191.244 99.8983 190.063C99.8282 189.924 99.7065 189.819 99.5593 189.769C99.4998 189.748 99.4372 189.738 99.3743 189.738C99.283 189.738 99.1931 189.759 99.1111 189.8C98.9724 189.87 98.8672 189.992 98.8183 190.139C98.7694 190.287 98.7809 190.448 98.8503 190.587C99.2029 191.269 99.3967 192.023 99.417 192.791C99.4431 193.988 99.0352 195.128 98.5325 196.346L98.267 196.974C98.0749 197.427 97.8591 197.937 97.6623 198.453C97.4136 199.106 97.2099 199.776 97.0529 200.456C96.9723 200.807 96.9083 201.153 96.8608 201.49C96.7564 202.201 96.7333 202.923 96.7921 203.64C96.8219 203.972 96.8734 204.302 96.9462 204.628C97.3872 206.567 98.606 208.063 100.569 208.97C101.919 209.581 103.362 209.959 104.838 210.087C105.667 210.172 106.478 210.201 107.254 210.215H107.79C109.238 210.26 110.649 210.283 111.996 210.622V210.627ZM110.374 307.851L111.415 305.673L106.483 303.027L105.449 305.187L103.955 308.311L103.46 309.347L102.583 311.184L102.013 312.369L101.366 313.722C101.409 313.914 101.686 314.334 102.251 314.791L102.663 314.99L104.835 316.045L104.894 316.073C105.684 316.261 106.239 316.206 106.419 316.111L107.088 314.713L107.645 313.549L108.435 311.89L109.016 310.674L110.374 307.851ZM110.898 320.731C111.133 320.239 111.244 319.697 111.221 319.152C111.18 317.896 110.536 316.51 109.442 315.232L108.513 317.173C108.428 317.357 108.317 317.527 108.183 317.678C107.917 317.968 107.584 318.189 107.213 318.323L106.953 318.868C106.819 319.144 106.632 319.391 106.402 319.595C106.172 319.798 105.904 319.954 105.613 320.053C105.227 320.189 104.82 320.256 104.411 320.25C103.515 320.227 102.635 320.01 101.831 319.615C99.9861 318.749 98.9024 317.41 98.9024 316.13C98.9005 315.803 98.971 315.479 99.1087 315.182L99.2866 314.812C99.0432 314.327 98.9649 313.775 99.0637 313.241C99.0968 313.091 99.1453 312.945 99.2083 312.805L100.126 310.885C99.7294 310.886 99.3333 310.914 98.9404 310.968C98.0162 311.067 97.1308 311.392 96.3629 311.916C95.9161 312.23 95.5565 312.652 95.3176 313.143C95.0787 313.634 94.9684 314.177 94.9971 314.722C95.073 317.131 97.3683 320.02 100.802 321.684C102.983 322.743 105.288 323.172 107.287 322.897C108.211 322.799 109.095 322.473 109.862 321.949C110.303 321.633 110.659 321.213 110.898 320.726V320.731ZM108.577 281.88C109.665 281.331 110.848 280.998 112.063 280.899C110.263 280.107 108.354 279.265 106.372 278.384L103.052 276.914C94.9639 273.323 85.868 269.237 77.4431 265.361L77.225 265.262L77.1609 265.231L74.5242 264.018L74.3131 263.918L74.2586 263.894C67.1664 260.614 60.7262 257.556 56.0004 255.172C54.9926 254.664 54.0655 254.186 53.2261 253.75L52.7518 253.512C52.2776 253.26 51.8358 253.023 51.4263 252.801C50.8399 252.476 50.2692 252.151 49.7143 251.827L49.6551 251.792C48.6481 251.204 47.6885 250.622 46.7764 250.045C43.8077 248.172 41.2871 246.366 38.9728 244.709C33.7325 240.955 29.9457 238.243 24.8263 237.402C19.2042 236.477 13.9022 237.933 9.88773 241.495C8.84863 242.417 7.91787 243.454 7.11343 244.586L7.32446 244.396C11.8772 240.348 17.8787 238.689 24.2216 239.732C29.884 240.663 34.0502 243.647 39.3261 247.426C40.7109 248.419 42.1716 249.464 43.7555 250.543C45.4105 250.79 47.0173 251.291 48.5193 252.029C51.0446 253.254 53.0459 254.965 54.3548 256.857L54.765 257.07L54.9665 257.17L55.2961 257.34C59.8868 259.678 66.308 262.735 73.4405 266.037C73.4805 266.058 73.5217 266.077 73.5638 266.094L73.9978 266.295L76.4164 267.412L76.5421 267.469L76.8456 267.608C85.3961 271.541 94.6675 275.703 102.867 279.344C104.053 279.875 105.238 280.391 106.372 280.896L108.582 281.875L108.577 281.88ZM107.73 327.254L108.392 325.891C108.169 325.936 107.941 325.976 107.709 326.007C107.165 326.082 106.617 326.119 106.068 326.119C103.763 326.087 101.493 325.538 99.4288 324.512C96.7589 323.215 94.6722 321.376 93.3752 319.356C93.161 319.029 92.9662 318.689 92.7919 318.339L92.4907 318.96L92.1398 319.672C91.8857 320.206 91.7769 320.798 91.8244 321.388C91.9809 323.758 94.2596 326.581 97.622 328.214C101.38 330.039 105.447 329.89 107.192 328.022C107.409 327.793 107.591 327.532 107.73 327.249V327.254ZM106.374 283.641L106.256 283.589L104.276 282.712C103.801 282.505 103.327 282.295 102.853 282.081C94.3735 278.313 84.6515 273.949 75.7121 269.839L75.6031 269.789L75.4726 269.73L72.7481 268.471L72.6296 268.414L72.3925 268.31C66.1088 265.399 60.3681 262.678 55.9292 260.464C56.0271 260.939 56.0763 261.423 56.0763 261.908C56.0828 262.893 55.8629 263.866 55.4337 264.752L52.2634 271.275C51.258 273.345 49.2164 274.715 46.499 275.151L48.9911 276.49C49.3897 276.605 49.7596 276.803 50.0766 277.07C50.3936 277.338 50.6507 277.669 50.831 278.042C51.0114 278.416 51.1109 278.823 51.1232 279.238C51.1355 279.652 51.0602 280.065 50.9023 280.448L49.5578 283.722C49.3331 284.264 48.9526 284.728 48.4644 285.055C47.9761 285.382 47.402 285.557 46.8144 285.559C46.7171 285.559 46.6223 285.559 46.5227 285.544L42.0411 285.096C43.1936 287.381 43.3097 289.685 42.3565 291.645L40.4098 295.646L89.6311 317.68L92.4931 311.793C93.4629 309.795 95.3978 308.448 97.9777 307.965L94.5869 304.236C94.1791 303.787 93.9193 303.223 93.8426 302.621C93.7658 302.019 93.8758 301.408 94.1577 300.871L96.0712 297.239C96.2706 296.86 96.55 296.529 96.8902 296.268C97.2304 296.008 97.6231 295.824 98.0413 295.73C98.4594 295.637 98.893 295.635 99.3119 295.725C99.7308 295.815 100.125 295.996 100.467 296.253L102.414 297.299C101.551 295.232 101.537 293.177 102.4 291.404L105.568 284.881C105.787 284.434 106.057 284.015 106.374 283.632V283.641ZM105.663 207.048C106.067 205.147 106.3 203.214 106.357 201.272C106.068 201.212 105.784 201.139 105.504 201.056C104.365 200.699 103.285 200.178 102.296 199.511C101.847 199.214 101.414 198.897 100.989 198.562C100.844 198.904 100.707 199.24 100.581 199.572C100.539 199.681 100.501 199.793 100.46 199.906C100.093 200.956 99.8272 202.123 99.8983 203.187C99.9813 204.424 100.517 205.526 101.878 206.159C103.075 206.689 104.362 206.987 105.67 207.039L105.663 207.048ZM103.462 274.364C103.814 272.592 104.396 270.874 105.193 269.253C97.0363 265.653 88.8652 262.086 80.5328 258.952C80.1961 258.834 79.857 258.715 79.5226 258.611C78.9986 260.019 78.4864 261.441 77.979 262.863C86.328 266.701 95.3765 270.766 103.469 274.364H103.462ZM101.753 307.474L103.65 303.501L100.688 300.721L98.7341 298.884L97.5722 301.089L96.9747 302.222L97.6078 302.916L100.216 305.777L101.753 307.474ZM102.535 215.617C103.088 214.417 103.633 213.23 104.131 211.983C102.612 211.805 101.131 211.389 99.7418 210.75C97.1644 209.565 95.5567 207.482 95.0232 204.863C94.9559 204.532 94.9061 204.198 94.8738 203.862C94.8068 203.153 94.8068 202.439 94.8738 201.729C94.9046 201.39 94.9497 201.047 95.0113 200.7C95.1895 199.699 95.4618 198.716 95.8246 197.766C96.0333 197.211 96.2586 196.68 96.4577 196.211C96.6783 195.69 96.868 195.235 97.0197 194.825L96.5953 194.384C92.2726 189.643 88.0803 184.794 83.2312 180.757C73.5947 178.766 64.117 175.163 57.4421 169.562C57.1054 169.278 56.7734 168.991 56.4533 168.697C55.0756 168.266 53.7454 167.837 52.4602 167.424C47.4333 165.805 43.0892 164.407 39.3759 164.066C37.4326 163.865 35.4759 163.826 33.5262 163.949C32.7988 163.999 32.0756 164.098 31.3613 164.243C31.538 164.573 31.6963 164.913 31.8355 165.26C32.1104 165.967 32.3339 166.692 32.5042 167.431C33.512 171.679 33.4195 177.562 31.8426 182.001C31.3202 183.488 30.6779 184.93 29.922 186.313C29.2119 187.621 28.3628 188.849 27.3895 189.975C27.0185 190.405 26.6227 190.812 26.2039 191.196C26.3693 191.415 26.5466 191.626 26.7351 191.826C27.4191 192.535 28.2056 193.137 29.0683 193.613C30.0996 194.186 31.1948 194.636 32.3311 194.953C35.5986 195.901 37.6378 196.228 41.5337 196.752C42.1004 196.83 42.7051 196.91 43.3595 196.989C46.0674 197.349 49.4345 197.795 54.2433 198.513L58.0372 199.086C65.4472 200.207 72.3664 201.255 78.982 201.777C79.0579 201.426 79.1338 201.065 79.2049 200.724C79.7906 197.88 80.2198 194.972 80.528 192.049C81.4289 194.908 81.7986 197.908 81.6188 200.9C81.6046 201.25 81.5808 201.611 81.5548 201.952C81.5548 202.08 81.5334 202.21 81.5216 202.338L81.5073 202.504L81.4575 202.978L81.4291 203.234C81.4101 203.405 81.3888 203.578 81.3651 203.749C81.3651 203.836 81.3437 203.919 81.3319 204.005C81.3129 204.135 81.2963 204.265 81.275 204.393C81.2441 204.614 81.2086 204.834 81.173 205.052C81.0244 205.953 80.8474 206.844 80.6419 207.726C79.9708 210.807 78.7449 213.739 77.6328 216.693C79.1861 217.079 80.6728 217.696 82.0432 218.523C86.8117 221.462 89.6548 226.373 91.0751 231.713C91.6181 232.012 92.2085 232.365 92.8749 232.766C94.3355 233.64 96.223 234.771 98.7768 235.994C98.229 233.365 97.8947 228.862 99.6707 222.844C100.494 220.08 101.534 217.811 102.542 215.617H102.535ZM74.8561 261.42C75.1905 257.243 74.5787 252.59 72.3972 249.044C70.4315 245.847 67.3987 243.83 63.3867 243.086C62.8982 242.994 62.424 242.927 61.9639 242.884C60.7018 242.756 59.4277 242.813 58.1819 243.052C56.3975 243.394 54.7219 244.161 53.2972 245.288C51.9739 246.323 50.9286 247.671 50.255 249.21C51.0209 249.666 51.8152 250.125 52.6451 250.585L52.7993 250.671C53.2095 250.908 53.6505 251.145 54.12 251.382C54.9547 251.825 55.8842 252.306 56.8967 252.818C61.5063 255.157 67.8445 258.17 74.8561 261.42ZM52.6404 263.38C52.8756 262.887 52.9855 262.344 52.9605 261.799C52.9249 260.614 52.3535 259.324 51.3765 258.113C50.8887 257.513 50.3396 256.966 49.7381 256.48C49.5934 256.359 49.444 256.243 49.2923 256.132C48.623 255.634 47.9085 255.201 47.1582 254.837C46.8665 254.695 46.5725 254.565 46.2785 254.449C45.6853 254.209 45.075 254.014 44.4527 253.866L44.1254 253.792C43.3791 253.636 42.6187 253.556 41.8562 253.555C40.3481 253.555 39.0226 253.906 38.0955 254.591C37.6486 254.905 37.2891 255.328 37.051 255.819C36.8129 256.311 36.7039 256.855 36.7344 257.4C36.7946 258.325 37.083 259.22 37.5738 260.007C37.9965 260.721 38.5106 261.377 39.1032 261.958C39.6773 262.522 40.3056 263.029 40.9789 263.47C41.4787 263.798 41.999 264.093 42.5367 264.354C42.9659 264.56 43.3998 264.745 43.8338 264.904C44.5807 265.18 45.3526 265.383 46.1386 265.511C47.0918 265.67 48.0634 265.689 49.022 265.565C49.9451 265.465 50.8294 265.139 51.5971 264.617C52.0407 264.296 52.3989 263.871 52.6404 263.38ZM49.4701 269.901L50.134 268.538C49.9111 268.583 49.6811 268.623 49.4488 268.656C48.9049 268.73 48.3567 268.766 47.8079 268.765C47.1476 268.764 46.4883 268.715 45.8351 268.618C45.4746 268.564 45.1095 268.497 44.7467 268.414C43.9747 268.243 43.2169 268.013 42.4798 267.727C42.0388 267.558 41.6017 267.368 41.1685 267.158C40.6373 266.902 40.1204 266.617 39.6202 266.305C38.9441 265.884 38.3005 265.414 37.6947 264.897C37.3391 264.593 37 264.273 36.6822 263.949C35.9876 263.233 35.3803 262.437 34.873 261.578C34.7545 261.375 34.6359 261.171 34.5434 260.967L33.8795 262.332C33.1681 263.795 33.6708 265.691 35.0153 267.431C35.306 267.81 35.6229 268.169 35.9638 268.504C36.2009 268.741 36.4736 268.979 36.751 269.216C37.1001 269.501 37.4642 269.768 37.8418 270.014C38.3273 270.334 38.8335 270.622 39.357 270.875C39.7941 271.088 40.2421 271.277 40.6991 271.444C41.0405 271.567 41.3867 271.681 41.7281 271.768C42.1497 271.882 42.5771 271.973 43.0086 272.041C43.3825 272.1 43.7593 272.139 44.1373 272.159C44.7066 272.187 45.2772 272.164 45.8422 272.088C47.6111 271.839 48.8963 271.064 49.4606 269.901H49.4701ZM46.7124 282.435L47.9383 279.439L46.1504 279.059L41.325 278.033L39.5633 281.721L44.2393 282.195L46.7124 282.435ZM39.0202 277.41L40.0612 275.231L35.1386 272.581L34.1048 274.741L32.6109 277.867L32.1153 278.903L31.238 280.737L30.6689 281.923L30.0216 283.276C30.0642 283.466 30.3417 283.885 30.906 284.343L30.9653 284.371V284.385C31.7337 284.976 32.6174 285.399 33.5594 285.627C33.6708 285.653 33.7799 285.675 33.8819 285.691C34.4984 285.796 34.9276 285.746 35.0817 285.665L35.7504 284.264L36.3076 283.096L37.0972 281.437L37.6758 280.225L39.0202 277.41ZM39.5466 290.292C39.7802 289.799 39.89 289.256 39.8668 288.711C39.8042 287.786 39.5151 286.891 39.025 286.104C38.7534 285.641 38.4408 285.204 38.0907 284.798L37.1612 286.741C37.0779 286.926 36.9667 287.096 36.8316 287.246C36.558 287.542 36.2161 287.767 35.8357 287.9C35.6813 287.957 35.5228 288.001 35.3615 288.033L35.25 288.27C35.1387 288.501 34.9821 288.708 34.7894 288.878C34.5968 289.048 34.372 289.177 34.1285 289.259C33.7878 289.377 33.4291 289.434 33.0685 289.429C32.2271 289.407 31.4004 289.203 30.6452 288.832C28.9664 288.045 27.9491 286.81 27.9491 285.679C27.9481 285.419 28.0039 285.162 28.1127 284.926L28.1649 284.814C27.7595 284.234 27.5977 283.519 27.7144 282.821C27.7453 282.67 27.7939 282.524 27.859 282.385L28.7743 280.467C28.3778 280.468 27.9817 280.495 27.5887 280.548C26.666 280.647 25.7821 280.972 25.016 281.496C24.5697 281.811 24.2094 282.234 23.9679 282.724C23.733 283.216 23.6223 283.758 23.6454 284.302C23.6999 286.018 24.8808 287.976 26.7944 289.562C27.6086 290.234 28.5011 290.806 29.4525 291.264C30.6487 291.851 31.9284 292.251 33.2464 292.449C35.3662 292.755 37.2964 292.432 38.5247 291.527C38.963 291.205 39.3162 290.781 39.5538 290.292H39.5466ZM39.5111 250.637L37.8512 249.452C32.6346 245.721 28.881 243.026 23.7948 242.192C18.2106 241.275 12.9442 242.718 8.96296 246.257C6.34425 248.614 4.42883 251.649 3.42859 255.027C2.69426 257.466 2.38309 260.013 2.50857 262.557C2.58895 264.251 2.87723 265.928 3.36694 267.552C6.40918 277.744 16.4631 284.463 18.9006 285.966L21.1533 281.351C22.1255 279.356 24.0604 278.009 26.6379 277.523L23.2376 273.802C22.8305 273.352 22.5713 272.788 22.495 272.186C22.4187 271.584 22.5289 270.974 22.8107 270.436L24.7219 266.803C24.9216 266.423 25.2016 266.091 25.5426 265.83C25.8835 265.569 26.2771 265.386 26.6962 265.292C27.1152 265.199 27.5496 265.198 27.969 265.289C28.3885 265.381 28.7831 265.562 29.1252 265.821L31.0459 266.852C30.2231 264.857 30.1662 262.787 31.0459 260.967L34.2138 254.444C35.2074 252.434 37.1304 251.137 39.5182 250.637H39.5111ZM36.4688 296.621L37.0308 295.459C36.2773 295.615 35.5098 295.695 34.7402 295.696H34.3632C32.1768 295.607 30.0339 295.057 28.0748 294.082C26.3975 293.282 24.8729 292.195 23.5695 290.87C22.711 289.997 21.9913 288.998 21.4355 287.908L20.781 289.251C20.7317 289.353 20.6881 289.458 20.6506 289.564C19.7282 292.136 22.2061 295.824 26.2656 297.794C30.4911 299.847 35.1196 299.401 36.374 296.824L36.4688 296.621ZM30.4057 277.028L32.3026 273.058L29.341 270.275L27.3848 268.438L26.2253 270.642L25.6277 271.778L26.2585 272.472L28.8668 275.331L30.4057 277.028ZM28.8786 180.947C31.2143 174.376 29.507 166.441 28.2455 165.085C27.7713 165.085 27.3113 165.071 26.8489 165.071C26.4932 165.071 26.1375 165.071 25.789 165.071C29.1276 175.822 24.0912 184.644 21.2837 188.465C22.131 188.666 22.9783 188.87 23.8256 189.079C24.8002 188.297 27.105 185.969 28.8858 180.956L28.8786 180.947ZM17.9617 187.695C19.9985 185.234 26.4102 176.301 22.5618 165.255C19.881 165.456 17.234 165.977 14.6775 166.808C15.8421 166.823 17.0018 166.961 18.1371 167.22C14.9882 167.081 11.6282 167.898 9.13843 169.745C7.00435 171.48 5.71205 173.66 5.36111 176.22C7.94098 173.21 12.3016 172.219 16.8282 172.89C11.4669 173.061 5.92072 175.58 6.15784 181.539C7.45962 183.933 10.5967 185.981 17.7506 187.645L17.9617 187.695Z" fill="black"/>
<path d="M220.343 44.291C220.552 44.4608 220.716 44.6793 220.821 44.9273C220.925 45.1753 220.967 45.4452 220.943 45.7132C220.732 48.0219 218.048 51.6057 214.456 55.1327C210.863 58.6596 206.358 62.1345 202.512 64.2156C195.837 67.8302 188.944 69.7193 181.645 71.7198C170.667 74.7277 159.318 77.8375 147.974 87.3233C147.246 87.9415 146.553 88.6007 145.9 89.2978C145.546 89.6652 145.203 90.0349 144.863 90.3999C144.283 91.0233 143.725 91.623 143.173 92.1563C141.897 93.3889 140.65 94.2659 139.227 94.2659C139.056 94.266 138.886 94.2533 138.717 94.2279C136.147 93.8558 135.67 90.1297 135.635 87.8282C135.635 87.6125 135.635 87.4063 135.635 87.219C135.635 86.5625 135.677 86.1098 135.682 86.0339C135.744 85.3212 135.828 84.6141 135.936 83.9125C135.936 83.8604 135.95 83.8106 135.96 83.7584C136.988 77.1812 140.094 71.105 144.823 66.4175C151.095 60.1339 160.039 56.0618 171.409 54.3291C197.966 50.2594 211.103 46.2276 216.047 44.7082C218.933 43.8217 219.535 43.6345 220.343 44.291ZM201.023 61.4755C207.387 58.0315 214.098 51.5844 216.708 47.7706C211.525 49.3611 198.234 53.3787 171.871 57.4176C145.338 61.485 139.936 77.271 138.914 85.0929C138.9 85.209 138.886 85.3299 138.871 85.4319C138.836 85.74 138.807 86.0339 138.781 86.3112C138.712 87.209 138.727 88.1113 138.826 89.0062C138.843 89.1556 138.862 89.3025 138.881 89.4447C138.937 90.0299 139.092 90.6013 139.339 91.1347C139.635 91.0707 140.05 90.7816 140.498 90.381C141.169 89.7932 141.94 88.9588 142.578 88.2786L143.289 87.5224C144.135 86.6077 145.032 85.7427 145.978 84.9317C157.834 75.0121 169.529 71.8099 180.835 68.712C187.941 66.7636 194.675 64.9195 201.023 61.4755Z" fill="black"/>
<path d="M153.255 153.179C153.566 157.36 149.461 161.07 144.076 161.475C138.691 161.88 134.084 158.808 133.776 154.625C133.467 150.441 137.569 146.732 142.954 146.329C148.339 145.926 152.942 149 153.255 153.179Z" fill="#FFABAB"/>
<path d="M146.805 334.585L146.651 335C146.625 334.858 146.592 334.706 146.559 334.557L146.805 334.585Z" fill="black"/>
<path d="M143.246 239.201C144.421 240.695 145.682 242.12 147.023 243.467C139.047 240.981 134.693 231.142 138.781 223.723C138.549 229.295 139.779 234.797 143.246 239.201Z" fill="black"/>
<path d="M126.757 137.644C126.947 143.852 122.743 149.022 117.362 149.183C111.982 149.344 107.472 144.442 107.28 138.242C107.088 132.041 111.294 126.864 116.672 126.701C122.05 126.537 126.565 131.437 126.757 137.644ZM120.948 143.02C121.917 142.992 122.667 141.75 122.622 140.247C122.577 138.744 121.751 137.552 120.779 137.583C119.807 137.613 119.058 138.853 119.105 140.356C119.153 141.859 119.983 143.051 120.948 143.02ZM113.187 141.802C114.939 141.747 116.305 139.906 116.238 137.687C116.172 135.468 114.695 133.712 112.94 133.767C111.185 133.821 109.82 135.663 109.888 137.881C109.957 140.1 111.432 141.854 113.187 141.802Z" fill="black"/>
<path d="M121.303 155.253C122.809 157.225 123.285 159.463 122.686 161.729C121.867 164.81 119.129 167.614 115.356 169.214C112.426 170.434 109.283 171.06 106.108 171.053C101.793 171.053 97.6694 169.894 94.7931 167.657C92.531 165.898 91.1083 163.255 90.9992 160.593C90.9162 158.697 91.5019 157.038 92.6045 156.007C94.3829 154.348 96.1898 154.653 98.2954 154.999C99.8819 155.296 101.493 155.444 103.107 155.443C106.663 155.402 109.329 154.582 111.686 153.857C115.207 152.776 118.247 151.842 121.256 155.182L121.303 155.253ZM120.421 161.129C120.831 159.581 120.511 158.095 119.473 156.713C117.848 154.931 116.478 154.926 113.888 155.644C113.414 155.772 112.916 155.926 112.361 156.097C109.978 156.829 107.01 157.739 103.114 157.782C101.364 157.79 99.617 157.631 97.897 157.308C97.5627 157.251 97.2616 157.204 96.9912 157.166C96.6148 157.104 96.2344 157.069 95.8531 157.062C95.5457 157.048 95.2389 157.099 94.9528 157.212C94.6667 157.325 94.4078 157.498 94.1932 157.718C93.6028 158.27 93.2827 159.304 93.3348 160.487C93.4226 162.475 94.5062 164.462 96.2348 165.805C97.5481 166.786 99.0348 167.51 100.617 167.939C104.809 169.155 110.059 168.899 114.438 167.043L114.612 166.969C117.59 165.663 119.809 163.43 120.421 161.117V161.129Z" fill="black"/>
<path d="M121.958 291.1C121.965 291.424 121.903 291.745 121.776 292.043C121.649 292.34 121.459 292.607 121.22 292.826L121.237 292.892L121.019 292.994C120.932 293.06 120.841 293.12 120.746 293.174C120.469 293.331 120.178 293.46 119.876 293.558C117.789 294.245 115.411 293.485 113.62 292.314C112.46 291.583 111.55 290.517 111.012 289.256C110.538 288.106 110.562 286.9 111.517 286.032C111.702 285.865 111.906 285.721 112.124 285.601C112.597 285.373 113.117 285.258 113.642 285.264C114.568 285.276 115.476 285.528 116.276 285.994C115.197 285.959 113.708 286.144 112.98 286.741C112.821 286.866 112.696 287.029 112.617 287.215C113.041 287.162 113.468 287.153 113.893 287.189C116.148 287.419 118.248 288.44 119.821 290.071C120.165 290.437 120.461 290.844 120.701 291.285C120.858 291.104 120.966 290.885 121.014 290.65C121.099 290.138 121.059 289.614 120.898 289.121C121.213 289.348 121.473 289.645 121.656 289.988C121.84 290.331 121.943 290.711 121.958 291.1ZM119.29 291.946L119.202 291.799C118.714 291.027 117.779 290.159 116.437 289.502C115.388 288.959 114.216 288.697 113.035 288.742C112.94 288.747 112.846 288.757 112.753 288.772C113.215 289.576 114.175 290.515 115.598 291.214C117.021 291.913 118.375 292.084 119.29 291.946Z" fill="black"/>
<path d="M114.614 166.971L114.441 167.045C110.061 168.901 104.811 169.157 100.619 167.941C101.368 167.074 102.311 166.396 103.372 165.962C104.432 165.528 105.58 165.351 106.723 165.445C106.61 166.194 106.626 166.956 106.77 167.699C106.981 166.666 108.482 165.537 109.4 165.189C111.335 164.53 113.326 165.303 114.614 166.971Z" fill="#FFABAB"/>
<path d="M113.886 155.632C113.817 157.488 113.175 160.401 112.404 160.799C111.961 161.036 111.093 160.1 110.588 159.201C108.577 159.972 105.798 160.299 102.623 160.107C99.0873 159.894 97.6101 158.628 96.9912 157.156C97.2615 157.194 97.5627 157.241 97.897 157.298C99.6169 157.621 101.364 157.78 103.114 157.772C107.002 157.73 109.971 156.824 112.361 156.087C112.914 155.914 113.419 155.76 113.886 155.632Z" fill="white"/>
<path d="M84.5733 142.38C84.6445 138.986 96.9368 139.242 96.868 142.636C96.8229 144.724 94.4565 146.521 92.6425 147.594C92.1822 147.866 91.6702 148.039 91.1392 148.102C90.9511 149.988 90.9194 151.887 91.0443 153.778C90.2711 151.861 89.6742 149.878 89.2612 147.853C89.0269 147.76 88.8022 147.645 88.5901 147.509C86.8212 146.364 84.5307 144.468 84.5733 142.38ZM91.1913 141.875C91.2056 141.294 86.9896 141.207 86.9777 141.787C86.9777 142.145 87.7626 142.479 88.372 142.681C88.8229 142.822 89.3048 142.833 89.7615 142.712C90.378 142.534 91.1842 142.233 91.1913 141.875Z" fill="black"/>
<path d="M80.3241 134.821C80.4925 140.311 76.7673 144.881 72.0249 145.025C67.2826 145.17 63.2776 140.839 63.1092 135.35C62.9409 129.86 66.666 125.29 71.4084 125.143C76.1508 124.996 80.1463 129.329 80.3241 134.821ZM75.1857 139.576C76.0441 139.55 76.7081 138.45 76.6677 137.123C76.6274 135.795 75.8971 134.752 75.0387 134.767C74.1804 134.781 73.5164 135.89 73.5591 137.217C73.6018 138.545 74.3274 139.609 75.1857 139.576ZM68.3235 138.497C69.8766 138.45 71.0836 136.819 71.0219 134.857C70.9603 132.894 69.6561 131.344 68.1077 131.391C66.5593 131.439 65.3477 133.067 65.4069 135.03C65.4662 136.992 66.7751 138.545 68.3235 138.497Z" fill="black"/>
<path d="M58.8363 143.591C59.1469 147.77 56.4651 151.377 52.8182 151.65C52.395 151.683 51.9694 151.668 51.5496 151.605C51.1833 148.419 51.3872 145.193 52.1519 142.079C52.5369 140.418 53.1221 138.809 53.8947 137.289C53.9742 137.146 54.0317 136.993 54.0655 136.833C56.6287 137.727 58.5968 140.356 58.8363 143.591Z" fill="#FFABAB"/>
<path d="M54.0633 136.829C54.0296 136.988 53.972 137.142 53.8925 137.284C53.1199 138.804 52.5347 140.413 52.1497 142.074C51.385 145.189 51.1811 148.415 51.5474 151.6C50.9192 151.509 50.3098 151.317 49.743 151.032C49.2071 144.416 51.1657 138.896 52.5339 136.514C53.0555 136.55 53.5698 136.656 54.0633 136.829Z" fill="black"/>
<path d="M50.6131 260.664C50.6198 260.987 50.5575 261.308 50.4303 261.606C50.3032 261.903 50.1141 262.17 49.8756 262.389L49.8898 262.455L49.6717 262.557C49.5849 262.623 49.4938 262.684 49.399 262.738C49.1232 262.896 48.8315 263.024 48.5288 263.121C48.0483 263.279 47.5475 263.366 47.042 263.38C45.3822 263.434 43.6488 262.778 42.2759 261.879C41.4844 261.383 40.8052 260.726 40.2818 259.952C40.0362 259.599 39.831 259.219 39.67 258.819C39.1957 257.67 39.2171 256.466 40.175 255.596C40.3598 255.429 40.5635 255.284 40.7821 255.165C41.2542 254.936 41.7729 254.821 42.2973 254.828C43.2245 254.842 44.1326 255.094 44.934 255.56C43.8551 255.522 42.366 255.707 41.6381 256.305C41.4778 256.429 41.3521 256.592 41.2729 256.779C41.6968 256.724 42.1252 256.716 42.551 256.753C44.8059 256.98 46.9067 258.001 48.479 259.632C48.8224 259.998 49.118 260.406 49.3587 260.846C49.5178 260.666 49.6258 260.447 49.6717 260.211C49.757 259.7 49.718 259.177 49.5579 258.684C49.8725 258.913 50.131 259.209 50.3138 259.552C50.4966 259.895 50.599 260.275 50.6131 260.664ZM47.9455 261.512C47.917 261.462 47.8886 261.413 47.8554 261.363C47.3669 260.59 46.4445 259.723 45.0905 259.068C44.0422 258.524 42.8706 258.261 41.6902 258.305C41.593 258.305 41.4982 258.322 41.4081 258.336C41.8681 259.142 42.8308 260.078 44.2535 260.777C45.6762 261.477 47.0278 261.645 47.9455 261.512Z" fill="black"/>
</g>
<defs>
<clipPath id="clip0_1932_1394">
<rect width="228" height="335" fill="white"/>
</clipPath>
</defs>
</svg>
