<svg width="200" height="264" viewBox="0 0 200 264" fill="none" xmlns="http://www.w3.org/2000/svg">
<g clip-path="url(#clip0_1932_1163)">
<path d="M191.34 53.9798C191.397 54.11 196.465 65.9563 196.444 77.2512L192.962 74.489C191.46 73.2701 189.33 75.1305 190.323 76.7873C190.347 76.8276 192.612 80.7968 191.784 86.3307C190.529 88.2005 182.944 98.8753 168.532 106.79C167.959 106.373 167.339 106.023 166.686 105.746C166.267 103.82 165.773 98.3333 171.31 91.6823C172.154 79.4406 169.043 66.7919 166.461 55.7858L169.277 50.0247C169.458 49.654 169.505 49.2318 169.41 48.8303C169.315 48.4287 169.083 48.0728 168.755 47.8235C154.676 37.1345 140.469 29.6906 125.322 25.0609C124.913 24.9356 124.472 24.9624 124.081 25.1364C123.69 25.3103 123.375 25.6197 123.194 26.0077L120.851 31.0587C109.503 35.996 99.6512 40.2588 91.932 46.4601L88.2581 54.9384C88.4425 45.537 91.0313 37.357 91.8966 34.8789L96.2798 33.4232C97.7882 32.9782 97.9064 30.7131 96.4548 30.1096C95.4412 29.5416 94.6272 28.6746 94.1237 27.6267C96.4193 27.5935 99.7434 26.8053 103.049 23.4301C103.294 23.1801 103.461 22.8628 103.527 22.5183C103.593 22.1738 103.556 21.8174 103.42 21.494C102.947 20.2396 101.495 20.3839 100.412 20.4029C103.056 17.2809 108.422 12.3554 116.766 11.0465C117.017 11.0063 117.257 10.9126 117.47 10.7718C117.682 10.6309 117.862 10.4462 117.997 10.2299C118.969 8.52573 116.697 7.04405 118.912 4.2085C133.372 13.1578 163.563 8.59911 175.686 26.1403C175.925 26.4874 176.28 26.7381 176.687 26.8474C177.094 26.9567 177.526 26.9174 177.906 26.7367C179.878 25.3663 178.379 24.713 178.538 21.6763C186.103 30.5782 196.366 40.9263 191.373 52.491C191.26 52.7221 191.199 52.9748 191.194 53.2318C191.188 53.4888 191.238 53.7439 191.34 53.9798Z" fill="white"/>
<path d="M175.625 149.714C176.393 149.771 178.592 149.24 177.453 150.739C175.041 152.514 169.436 153.579 166.421 154.852C162.083 155.934 164.672 162.372 163.91 165.74C162.395 165.605 161.392 164.183 160.336 161.039C163.473 157.842 166.232 152.689 165.435 148.083C167.941 148.84 171.674 149.714 175.625 149.714Z" fill="white"/>
<path d="M174.601 155.34L176.197 156.114C175.022 156.464 173.766 156.42 172.618 155.991C173.325 155.766 173.987 155.551 174.601 155.34Z" fill="white"/>
<path d="M170.026 157.312L171.736 159.411C170.515 159.233 169.387 158.657 168.525 157.773L168.175 157.413C168.518 157.293 168.901 157.177 169.296 157.037L170.024 157.312H170.026Z" fill="white"/>
<path d="M167.71 214.605L167.967 215.263L165.367 217.37L154.697 225.997C154.697 225.997 55.0529 225.377 54.9111 225.384C49.4369 222.684 43.6694 220.626 37.7233 219.251C26.6777 216.858 17.1878 216.863 7.8208 221.502C8.07141 220.399 8.4946 218.525 8.74048 217.433C22.8595 210.167 39.182 214.335 52.1568 220.816C53.7951 221.592 53.4618 221.751 54.521 221.907L153.463 223.261C154.049 223.318 154.619 222.787 155.09 222.522C158.196 220.577 164.546 216.527 167.695 214.555L167.71 214.605Z" fill="white"/>
<path d="M142.325 67.7104C148.865 63.3292 158.18 68.8181 157.513 76.6738L155.704 77.0407C154.799 71.1495 147.94 67.3861 142.429 69.869L142.325 67.7104Z" fill="white"/>
<path d="M156.863 144.732C157.572 149.243 155.539 156.891 148.95 157.901C148.379 158.034 147.838 158.275 147.358 158.611C145.318 158.82 136.055 153.754 134.081 153.025L132.563 148.611C134.329 146.026 139.625 137.558 139.613 128.966C145.3 133.771 151.05 139.026 156.863 144.732Z" fill="white"/>
<path d="M161.295 145.693C162.339 146.705 162.958 148.078 163.026 149.532C162.345 148.653 161.55 147.869 160.662 147.2C160.707 146.41 160.702 145.723 160.681 145.186C160.898 145.34 161.103 145.509 161.295 145.693Z" fill="white"/>
<path d="M162.537 152.429C162.197 153.538 161.748 154.611 161.196 155.631C160.91 154.402 160.437 153.225 159.794 152.14C160.081 151.224 160.299 150.288 160.447 149.34C161.352 150.192 162.199 151.205 162.537 152.429Z" fill="white"/>
<path d="M158.919 154.353C159.422 155.489 159.664 156.723 159.629 157.965C158.895 158.901 158.025 159.722 157.047 160.398C156.87 160.512 156.688 160.618 156.503 160.713C156.716 159.696 156.805 158.657 156.768 157.619C157.295 157.013 157.769 156.363 158.187 155.676C158.454 155.248 158.698 154.807 158.919 154.353Z" fill="white"/>
<path d="M154.936 159.383C154.878 160.091 154.691 160.783 154.383 161.423C153.454 161.586 152.502 161.572 151.579 161.38C152.78 160.865 153.909 160.193 154.936 159.383Z" fill="white"/>
<path d="M151.545 219.976C146.708 219.976 136.795 220.004 132.062 219.957C132.456 218.942 133.14 218.067 134.029 217.441C136.358 215.767 139.528 215.28 142.304 215.102C146.205 215.19 149.95 213.992 151.545 219.976Z" fill="white"/>
<path d="M150.564 228.986L147.526 231.445C145.901 231.565 144.351 232.179 143.083 233.205C141.816 234.231 140.892 235.619 140.434 237.185L138.358 238.863L138.084 238.461L142.034 232.333C142.157 232.137 142.225 231.913 142.232 231.682C142.239 231.451 142.185 231.223 142.075 231.02C141.965 230.817 141.802 230.647 141.605 230.528C141.408 230.408 141.182 230.343 140.952 230.34H132.22C131.395 229.23 122.764 245.252 122.324 245.453C122.215 245.638 122.153 245.847 122.144 246.062C122.135 246.276 122.18 246.49 122.273 246.683C122.367 246.877 122.507 247.044 122.681 247.17C122.855 247.296 123.057 247.377 123.27 247.405H68.8858C70.9335 247.304 72.8639 246.418 74.278 244.932C75.6922 243.445 76.482 241.472 76.4843 239.42C75.8176 226.941 57.2728 230.319 61.0201 242.222L58.4833 238.461L62.4339 232.333C62.5564 232.137 62.6247 231.912 62.6317 231.681C62.6387 231.45 62.5842 231.222 62.4737 231.019C62.3632 230.816 62.2008 230.646 62.0031 230.527C61.8053 230.407 61.5795 230.343 61.3487 230.34H52.6295C51.802 229.232 43.1727 245.252 42.7306 245.453C42.6213 245.638 42.5595 245.847 42.5507 246.062C42.5418 246.276 42.5862 246.49 42.6798 246.683C42.7735 246.877 42.9135 247.044 43.0873 247.17C43.2612 247.296 43.4635 247.377 43.6762 247.405C24.1668 247.983 6.59604 230.484 7.65757 225.043C26.0984 213.786 53.5752 228.058 53.8187 228.222C54.4145 228.723 149.867 228.811 150.564 228.986Z" fill="white"/>
<path d="M142.706 239.876C142.346 232.473 153.2 231.942 153.496 239.42C153.345 246.286 143.42 246.672 142.706 239.876ZM149.813 242.594C150.829 242.061 151.806 240.525 151.276 239.628C150.803 240.101 150.394 241.521 148.891 241.82C146.999 242.371 145.127 240.38 145.6 238.556C145.791 237.609 146.309 237.098 146.176 236.96C145.654 236.925 145.113 237.602 144.8 238.309C143.585 241.256 147.037 244.224 149.813 242.594ZM148.091 240.451C149.422 240.47 149.439 238.373 148.091 238.388C146.744 238.402 146.744 240.447 148.091 240.451Z" fill="white"/>
<path d="M144.188 246.395L144.103 246.523C142.16 249.453 139.396 253.623 137.443 256.554C136.606 257.77 134.72 256.554 135.538 255.285C137.583 252.208 140.167 248.312 142.19 245.266C142.242 245.19 142.323 245.072 142.373 244.994C142.474 245.103 142.583 245.204 142.692 245.306C143.146 245.727 143.648 246.092 144.188 246.395Z" fill="white"/>
<path d="M142.223 197.468C133.578 197.4 124.594 201.471 119.409 205.246C114.725 197.163 106.912 191.861 98.2303 188.036C103.747 185.628 108.311 181.458 111.21 176.178C106.895 181.729 100.287 185.686 93.2158 186.008C92.8872 185.885 92.5562 185.771 92.2276 185.646C93.457 181.572 94.2939 177.021 92.9652 172.782C90.8989 166.77 85.0309 162.367 78.9573 161.314C78.2953 160.919 69.8669 161.122 71.8221 162.28C74.0973 162.182 76.3733 162.452 78.5625 163.08C82.7566 164.299 86.466 167.34 88.8137 170.853C91.4734 174.973 90.6672 180.121 89.225 184.619C88.3049 187.414 87.2048 190.148 85.9317 192.801C85.3123 194.148 84.6692 195.558 83.6148 196.588C82.9055 195.369 68.9189 185.251 52.9038 185.267C52.7714 181.326 55.1356 177.489 57.0198 174.041C57.9348 172.405 59.0814 170.379 60.2115 168.888C60.8924 167.974 61.63 167.087 62.4008 166.185C62.4257 166.156 62.4418 166.12 62.4473 166.082C62.4527 166.044 62.4473 166.005 62.4315 165.97C62.4085 165.922 62.3678 165.886 62.3182 165.869C62.2685 165.851 62.2141 165.855 62.1667 165.877C59.2398 167.267 56.9655 169.745 55.242 172.453C50.4497 168.531 50.341 155.913 51.9321 151.34C60.3037 144.111 103.611 159.65 113.501 165.6C113.536 166.685 113.382 168.256 114.662 168.703C128.542 174.341 135.367 182.387 138.649 188.141C140.331 191.039 141.537 194.188 142.223 197.468Z" fill="white"/>
<path d="M141.692 254.823C142.469 258.137 139.824 261.451 136.415 261.413C129.887 261.436 129.126 251.709 135.502 250.669L133.388 253.853C131.719 256.22 133.601 259.718 136.49 259.647C139.067 259.851 140.453 256.525 141.692 254.823Z" fill="white"/>
<path d="M140.739 165.939C138.687 165.889 136.214 166.221 133.343 167.274C128.615 169.006 123.123 166.64 118.666 162.471C119.241 160.126 118.953 157.697 118.65 156.187C119.36 155.701 119.899 155.004 120.191 154.194C122.466 160.602 133.247 162.055 140.739 165.939Z" fill="white"/>
<path d="M138.573 232.925L136.505 236.132C135.821 234.75 133.779 235.853 134.613 237.162L135.244 238.109C136.003 239.231 137.185 240.982 137.93 242.087L132.613 238.111C134.4 240.284 137.013 243.467 138.819 245.666L137.992 246.913C136.727 245.661 134.935 243.881 133.675 242.636C133.157 242.121 131.809 240.79 131.273 240.255C130.27 239.271 128.764 240.79 129.759 241.787L131.651 243.657L130.899 244.824H125.721L132.946 232.918L138.573 232.925Z" fill="white"/>
<path d="M131.923 155.944C135.386 157.523 139.209 160.126 141.023 162.041C135.951 159.624 126.525 157.444 124.546 154.41C122.851 152.476 122.634 150.453 122.943 147.645C123.823 141.446 127.856 133.044 127.816 126.592C130.503 126.832 133.204 126.853 135.895 126.656C137.372 138.076 128.308 146.417 128.911 148.905L130.96 154.862C130.975 154.907 130.991 154.952 131.008 154.995C131.181 155.416 131.508 155.756 131.923 155.944Z" fill="white"/>
<path d="M144.718 206.868C144.975 207.237 144.923 207.814 144.588 208.494C142.51 208.266 140.422 208.147 138.332 208.136C139.5 206.868 143.68 205.334 144.718 206.868Z" fill="white"/>
<path d="M142.181 211.308C142.181 211.386 142.197 211.462 142.205 211.545C141.117 211.602 140.033 211.719 138.958 211.893L138.412 211.168C139.672 211.172 140.928 211.218 142.181 211.308Z" fill="white"/>
<path d="M139.658 201.159C140.021 201.937 140.337 202.737 140.604 203.554C137.379 204.475 135.386 206.659 134.433 207.975C130.447 208.194 126.492 208.807 122.626 209.807C122.414 209.097 122.189 208.423 121.969 207.819C125.116 205.684 131.7 201.897 139.658 201.159Z" fill="white"/>
<path d="M134.254 211.554L135.223 212.839C134.703 213.028 134.194 213.245 133.698 213.488C132.665 213.987 131.715 214.643 130.882 215.434C129.629 216.644 128.764 218.2 128.398 219.905L120.414 219.796C120.333 217.841 120.714 215.573 121.931 213.715C125.345 212.721 128.447 211.99 134.254 211.554Z" fill="white"/>
<path d="M129.012 53.9654L125.788 56.7655C123.605 51.1962 115.236 49.1346 110.307 52.7725L109.95 52.2234C114.288 45.5606 126.13 46.5547 129.012 53.9654Z" fill="white"/>
<path d="M124.277 126.156C124.407 132.755 119.527 142.078 119.276 148.954L119.161 148.921C116.825 147.073 114.137 145.529 111.207 144.921C112.943 145.967 117.456 151.089 116.773 153.111C113.38 150.507 109.427 148.808 105.401 147.515C99.4336 145.858 99.6275 145.766 105.013 148.431C108.692 150.438 112.29 152.855 114.978 156.065C115.477 158.001 115.716 160.403 114.978 162.346C105.805 157.979 89.9839 150.796 73.1106 147.354C65.9683 146.01 57.6085 145.047 50.9107 147.88C50.6102 147.463 50.3713 147.006 50.2014 146.521C52.5822 144.497 55.5705 143.184 58.6582 142.585C59.588 142.395 60.5295 142.268 61.4763 142.204C61.5253 142.204 61.5727 142.187 61.6106 142.156C61.6485 142.125 61.6746 142.082 61.6844 142.034C61.7931 141.525 59.0388 141.47 58.5873 141.376C56.5572 141.219 54.5155 141.341 52.5183 141.738C52.9864 140.025 53.6679 138.378 54.5468 136.836C69.4059 139.461 91.3741 133.891 96.5895 121.737C101.743 132.199 115.714 134.829 123.416 126.019C123.707 126.076 123.993 126.121 124.277 126.156Z" fill="white"/>
<path d="M119.908 125.313C120.227 125.389 120.548 125.463 120.87 125.531C113.283 132.743 101.483 128.807 97.677 119.072C98.0475 117.92 98.3196 116.739 98.4903 115.541C98.6558 115.659 98.8213 115.777 98.9891 115.893C100.921 122.364 106.555 127.056 113.174 127.056C115.53 127.054 117.847 126.455 119.908 125.313Z" fill="white"/>
<path d="M120.132 94.3498C118.834 95.9309 116.789 97.7653 113.884 98.5771C110.484 99.6896 107.136 98.3925 106.969 95.2138C106.969 94.1132 108.058 91.6397 109.222 89.4243C110.607 90.9486 112.29 92.1722 114.167 93.0194C116.044 93.8666 118.074 94.3194 120.132 94.3498Z" fill="white"/>
<path d="M108.718 67.5279C110.118 63.0663 114.763 63.5775 113.34 68.522C111.94 72.9836 107.297 72.4723 108.718 67.5279Z" fill="white"/>
<path d="M162.854 56.0814C165.759 66.5928 167.537 77.9847 168.135 89.9471C162.059 98.1224 162.404 103.249 163.568 107.756C163.666 108.008 163.821 108.235 164.02 108.418C164.219 108.601 164.457 108.737 164.717 108.814C171.038 110.653 169.655 120.305 163.045 120.246C162.095 120.248 161.16 120.018 160.32 119.574C159.48 119.131 158.761 118.488 158.227 117.701C158.966 117.023 159.669 116.306 160.333 115.555C161.846 113.794 159.234 111.462 157.669 113.188C156.805 114.17 155.864 115.082 154.855 115.914C140.025 127.867 117.116 123.858 102.101 113.718C88.0832 104.66 76.1771 85.8973 84.1208 69.6011C85.2236 67.4097 86.6405 65.3914 88.3267 63.6105C88.5214 63.2701 88.6905 62.9156 88.8327 62.5501C90.0337 59.7359 93.7266 51.2837 94.9796 48.3676C102.633 43.3024 112.002 38.5047 122.835 34.0999C123.927 33.8632 125.227 29.7353 125.759 28.9282C139.533 33.3259 152.541 40.1639 165.435 49.7807C165.147 50.7109 162.376 55.1086 162.854 56.0814ZM159.976 77.9421C161.158 71.0521 155.721 64.1147 148.749 63.6413C146.408 63.3028 140.216 64.4863 139.715 67.1135L139.952 72.084C139.965 72.3166 140.041 72.5413 140.171 72.7346C140.301 72.928 140.48 73.083 140.69 73.1835C140.9 73.284 141.133 73.3264 141.365 73.3062C141.597 73.286 141.819 73.204 142.008 73.0687C146.401 69.6556 153.326 73.0497 153.279 78.6285C153.284 78.8171 153.331 79.0023 153.415 79.171C153.5 79.3398 153.62 79.4882 153.767 79.606C153.914 79.7237 154.085 79.808 154.268 79.853C154.451 79.8979 154.642 79.9025 154.827 79.8664L158.955 79.0285C159.216 78.975 159.455 78.8419 159.638 78.6474C159.821 78.4529 159.939 78.2066 159.976 77.9421ZM145.987 83.7884C146.583 83.8191 146.81 82.9316 146.252 82.683C143.519 81.3931 140.507 81.0428 137.505 81.4073C136.175 81.5809 134.87 81.9147 133.62 82.4014C132.367 82.9221 131.186 83.6006 130.105 84.4203C129.426 84.9529 128.402 85.5778 128.568 86.6121C128.868 88.4535 130.445 88.0559 131.826 88.0322C133.313 88.06 134.789 88.2942 136.211 88.7281C137.678 89.1663 139.074 89.8145 140.356 90.6524C140.973 90.9057 141.642 91.9684 142.356 91.5992C143.347 90.9909 140.748 88.6713 140.205 88.1672C138.768 86.9238 137.089 85.9915 135.275 85.4286C137.4 84.5865 139.64 84.071 141.919 83.8996C143.272 83.7889 144.63 83.7517 145.987 83.7884ZM131.386 55.324C131.579 55.1561 131.718 54.9347 131.785 54.6879C131.852 54.441 131.845 54.1797 131.764 53.937C128.691 43.5226 112.487 42.0811 107.299 51.57C106.531 52.5807 108.543 54.5381 108.919 55.3784C109.023 55.536 109.16 55.6691 109.32 55.7683C109.48 55.8676 109.66 55.9307 109.848 55.9532C110.035 55.9758 110.225 55.9572 110.404 55.8988C110.583 55.8404 110.748 55.7436 110.886 55.6151C114.48 51.944 121.998 53.4068 123.572 58.1903C122.338 60.756 126.461 62.0389 126.901 59.2223L131.386 55.324ZM114.841 102.014C122.686 99.7224 128.426 90.4702 123.239 90.5719C114.806 91.6725 111.671 87.5352 109.728 83.7268C108.467 81.199 104.871 83.1233 106.94 86.1861C105.758 88.2595 103.413 92.6879 103.413 95.2205C103.436 100.612 109.191 103.907 114.841 102.014ZM111.43 76.5338C120.853 66.4058 112.17 54.2849 101.897 66.1715C94.19 75.3504 100.937 86.9648 111.43 76.5338Z" fill="white"/>
<path d="M113.687 123.481C110.292 123.659 107.12 122.123 104.952 119.588C107.758 121.111 110.679 122.413 113.687 123.481Z" fill="white"/>
<path d="M101.793 72.6642C102.502 72.6287 102.989 73.4571 102.874 74.5175C102.758 75.5778 102.082 76.4631 101.365 76.4986C99.5329 76.4654 100.275 72.6239 101.793 72.6642Z" fill="white"/>
<path d="M96.0955 113.723C96.1948 128.686 73.3991 137.013 57.4454 134.462C47.9153 133.228 38.7446 134.843 33.8814 144.448C33.4511 138.677 37.8509 130.968 40.5461 129.37C44.83 130.66 49.5679 131.638 53.7171 131.46C57.0861 131.022 60.5733 130.175 63.311 128.054C63.3424 128.032 63.3636 127.998 63.37 127.96C63.3765 127.922 63.3676 127.883 63.3453 127.852C63.3231 127.821 63.2893 127.799 63.2514 127.793C63.2134 127.786 63.1745 127.795 63.1432 127.818C60.7341 128.963 57.9656 129.16 55.3413 129.065L57.3532 125.706C71.5763 131.06 81.5509 117.896 84.5653 107.481C85.1523 105.722 85.3641 103.86 85.187 102.014C88.2205 106.439 91.8972 110.385 96.0955 113.723ZM93.2939 119.72C93.4003 119.143 95.5848 114.75 95.1238 114.222C95.4832 113.706 87.0051 110.793 86.7474 110.572C86.4818 110.468 86.1856 110.473 85.9237 110.586C85.6617 110.7 85.4555 110.913 85.3502 111.178L83.5084 115.855C83.4058 116.121 83.4118 116.416 83.525 116.678C83.6383 116.939 83.8498 117.145 84.1137 117.252L91.899 120.329C92.1647 120.432 92.4603 120.426 92.7215 120.312C92.9828 120.198 93.1885 119.986 93.2939 119.72Z" fill="white"/>
<path d="M87.2018 113.318L86.1399 115.991L91.9225 118.294L92.9845 115.622L87.2018 113.318Z" fill="white"/>
<path d="M84.7591 58.8983C84.8159 59.9161 84.901 60.941 85.0239 61.9753C83.187 64.0443 81.6726 66.3792 80.5319 68.9009C77.6949 67.0523 76.787 63.2534 78.6406 60.7445C80.0236 58.8392 82.5675 58.2261 84.7591 58.8983Z" fill="white"/>
<path d="M77.794 94.1485C78.7681 95.2586 81.6761 98.9391 81.6761 103.334C80.8935 109.557 77.0233 118.04 69.6919 122.033C66.174 123.716 62.1265 123.725 57.6605 122.059C52.2366 120.059 46.5881 118.732 40.8415 118.109C42.4708 115.884 43.4157 113.232 43.5603 110.478C44.8681 108.848 46.2734 107.298 47.7686 105.839C51.2275 102.681 48.0476 96.6764 43.4918 97.8811C41.7604 98.2617 40.0797 98.8448 38.4844 99.6184C37.5178 98.8196 36.4647 98.1321 35.3447 97.5687C40.0235 95.1379 46.9624 92.6218 56.2159 92.0562C57.5352 93.5236 58.9892 95.571 59.7268 98.0231C59.7969 98.2593 59.9334 98.4703 60.1199 98.631C60.3064 98.7917 60.5351 98.8954 60.7789 98.9297C61.3392 98.8255 72.5337 101.114 72.5857 100.16C73.4699 99.1143 72.8741 96.9627 71.3847 92.8633C73.4912 93.1994 75.6355 93.6301 77.794 94.1485Z" fill="white"/>
<path d="M80.1039 218.873L54.8873 218.636C53.2134 218.025 51.9959 217.322 50.1423 216.485C50.9367 214.908 51.854 213.358 53.1543 212.144C57.8827 208.295 62.5473 209.067 69.5288 210.25C74.6804 211.029 79.6524 214.783 80.1039 218.873Z" fill="white"/>
<path d="M70.1909 97.6822L61.9422 96.4869C61.3396 94.8598 60.5042 93.3291 59.4622 91.9424C62.4242 91.9174 65.3847 92.0826 68.3256 92.4371C69.1992 94.0852 69.8276 95.8522 70.1909 97.6822Z" fill="white"/>
<path d="M68.498 234.009C75.4015 234.028 75.645 244.466 68.7746 244.823C65.7745 245.036 63.0343 242.433 63.1005 239.42C63.1018 237.986 63.6706 236.612 64.6824 235.597C65.6941 234.583 67.0663 234.012 68.498 234.009ZM71.3634 241.531C71.7677 240.873 72.0183 240.033 71.6826 239.637C71.5053 239.614 71.38 240.321 70.7062 241.024C69.4603 242.444 66.7887 242.054 66.1504 240.182C65.5357 238.721 66.4719 237.637 66.5854 236.97C66.0605 236.934 65.5215 237.611 65.207 238.319C64.5734 239.77 65.2567 241.869 66.862 242.648C68.4271 243.517 70.5383 242.878 71.3634 241.531ZM68.5004 240.452C69.848 240.452 69.848 238.392 68.5004 238.388C67.1528 238.383 67.1433 240.447 68.5004 240.452Z" fill="white"/>
<path d="M62.8005 245.015C63.3379 245.565 63.9518 246.035 64.6233 246.409L62.7792 249.188L60.8216 252.135L57.9633 256.438C57.8021 256.666 57.5656 256.829 57.2956 256.899C57.0257 256.97 56.7396 256.942 56.488 256.821C56.3445 256.747 56.2181 256.644 56.1173 256.518C56.0164 256.392 55.9432 256.246 55.9026 256.089C55.862 255.933 55.8548 255.77 55.8816 255.61C55.9083 255.451 55.9683 255.299 56.0577 255.164L58.8499 250.961L62.8005 245.015Z" fill="white"/>
<path d="M62.2093 254.712C62.9871 258.026 60.3416 261.34 56.9348 261.299C51.1968 261.385 49.5112 253.214 54.6911 250.968H55.7503L53.9038 253.732C52.2347 256.099 54.1143 259.6 57.0033 259.529C59.5779 259.74 60.9728 256.412 62.2093 254.712Z" fill="white"/>
<path d="M58.9798 232.925L56.9112 236.132L56.7953 235.957C56.0033 234.795 54.2301 235.99 55.0127 237.162L58.3226 242.078L56.852 240.982L53.022 238.111C54.7715 240.241 57.4786 243.536 59.247 245.685L58.4219 246.93L51.6815 240.248C50.6791 239.263 49.1707 240.783 50.1661 241.779L52.0574 243.649L51.3056 244.816H46.1304L53.3554 232.911L58.9798 232.925Z" fill="white"/>
<path d="M55.8306 247.406H52.1614C52.3497 247.383 52.5307 247.32 52.6914 247.219C52.8521 247.118 52.9884 246.983 53.0905 246.823C53.2962 246.506 53.7241 245.843 53.9298 245.521L55.8306 247.406Z" fill="white"/>
<path d="M79.4656 197.727L74.6615 204.174L74.5267 204.115C77.1416 192.901 60.4101 190.413 55.9063 198.435C54.4885 198.222 53.0558 198.124 51.6223 198.143C52.0362 195.841 52.6202 193.572 53.3695 191.355C53.7359 190.278 54.0787 189.419 54.3151 188.815C65.2165 189.144 75.8649 195.298 79.4656 197.727Z" fill="white"/>
<path d="M75.3023 208.167L75.3165 208.354C75.0233 208.222 74.7183 208.089 74.4157 207.971C73.9051 207.765 73.3991 207.587 72.8506 207.415C72.8506 207.386 72.704 206.278 72.6946 206.205C73.5457 206.404 74.8058 207.102 75.2597 207.561L75.3023 208.167Z" fill="white"/>
<path d="M63.5049 197.308C67.3515 196.688 72.5386 198.988 71.0397 203.362C70.936 203.374 70.8343 203.398 70.737 203.436C67.1694 201.289 62.6585 200.595 59.2848 200.401C59.2722 200.265 59.2436 200.131 59.1997 200.001C60.1194 198.877 61.5379 197.658 63.5049 197.308Z" fill="white"/>
<path d="M70.0018 205.514L70.1578 206.723C65.8762 205.852 62.4765 205.568 59.2825 205.89V202.577C62.8879 202.811 66.8219 203.483 70.0018 205.514Z" fill="white"/>
<path d="M55.7336 203.286V206.617L55.4428 206.714C51.4237 207.98 48.5866 211.379 46.8584 215.085C46.2532 214.849 45.6196 214.612 44.967 214.375C45.6361 208.221 47.1752 203.805 47.849 202.105C48.9058 201.847 52.1991 201.549 54.5066 201.869C54.6461 202.529 55.1662 202.877 55.7336 203.286Z" fill="white"/>
<path d="M50.5941 136.739C49.8542 138.266 49.2888 139.873 48.9084 141.527C46.5134 140.58 43.6173 139.79 40.8394 139.944C43.9412 137.562 47.0974 136.831 50.5941 136.739Z" fill="white"/>
<path d="M45.6811 102.442C45.6977 102.93 45.3099 103.285 44.9719 103.595C43.6405 104.916 42.3779 106.305 41.1891 107.756C39.851 109.375 38.91 110.646 38.8367 110.743C35.9784 115.623 29.8953 114.142 29.6802 114.021C29.2488 113.896 28.7862 113.937 28.3842 114.138C27.9822 114.338 27.6701 114.683 27.5098 115.103C24.5829 121.73 18.5377 117.401 15.4973 114.127C15.1931 113.79 14.7712 113.582 14.3186 113.547C13.866 113.512 13.4172 113.652 13.0645 113.938L9.90359 116.49C9.46622 116.859 8.74513 116.291 9.11868 115.758C9.59152 115.048 11.0762 112.849 11.568 112.097C12.5302 110.771 11.1117 108.878 9.5797 109.401C7.65287 109.926 5.34777 111.24 4.44464 112.021C4.37277 112.077 4.28732 112.112 4.19713 112.124C4.10694 112.136 4.01527 112.123 3.93161 112.087C3.52497 111.877 3.45877 111.583 3.69519 111.223C8.78769 105.962 10.7216 105.957 15.6723 105.294C15.7811 105.282 15.8823 105.232 15.9586 105.154C16.035 105.075 16.0818 104.973 16.091 104.864C16.1002 104.754 16.0712 104.645 16.0091 104.555C15.947 104.465 15.8555 104.399 15.7503 104.369L11.0219 102.837C10.4426 102.44 5.77569 101.756 5.187 101.351C4.64087 100.972 4.83947 99.9142 5.55346 99.8171C8.52053 99.2349 12.1732 99.0692 14.476 99.029C15.8448 99.0053 16.748 99.029 16.7716 99.029C18.0459 99.1023 18.9869 97.6561 18.4266 96.5177C17.5494 94.5768 15.911 92.7827 14.5682 91.5046C14.2443 91.2111 13.8116 90.8655 13.8991 90.411C15.1876 86.9388 26.9519 96.6478 28.3704 98.565C29.0797 99.2893 29.6896 99.9568 30.3256 100.672C33.3991 103.886 33.3376 105.261 35.054 105.715C35.3 105.745 35.5495 105.723 35.7865 105.65C36.0234 105.578 36.2426 105.456 36.43 105.294C37.8013 104.062 39.3682 103.067 41.0662 102.35C42.1294 101.929 43.2233 101.592 44.3382 101.339C44.5015 101.303 44.6708 101.305 44.8333 101.344C44.9959 101.383 45.1474 101.459 45.2767 101.565C45.4059 101.671 45.5094 101.805 45.5795 101.957C45.6495 102.109 45.6843 102.275 45.6811 102.442Z" fill="white"/>
<path d="M40.4278 114.495C39.888 115.719 39.1711 116.857 38.3 117.872C37.002 117.768 35.7632 117.699 34.6189 117.659C36.8409 117.246 38.8747 116.138 40.4278 114.495Z" fill="white"/>
<path d="M36.4797 100.781C36.1818 100.976 35.8815 101.187 35.5789 101.413C35.1061 100.807 34.4914 100.049 33.7632 99.1948C34.7211 99.6278 35.6315 100.159 36.4797 100.781Z" fill="white"/>
<path d="M194.905 53.2958C196.201 56.5005 201.007 69.3576 199.811 80.9886C199.714 82.3472 197.976 83.0809 196.936 82.2004L195.3 80.901C195.522 82.8111 195.813 85.5898 194.985 87.9402C194.662 88.4632 187.103 100.428 171.019 109.479C177.166 119.683 162.546 129.465 155.456 119.955C151.437 122.854 146.671 124.835 141.474 125.891C147.21 130.716 153.006 135.991 158.863 141.714C160.624 141.913 162.293 142.968 163.426 144.178C163.629 144.254 170.225 147.063 177.053 146.656C181.966 146.772 181.916 152.715 177.348 154.282C179.11 154.815 179.505 157.047 177.743 157.833C176.48 158.385 175.095 158.597 173.724 158.448C174.013 158.725 174.207 159.086 174.278 159.481C174.349 159.875 174.293 160.282 174.119 160.642C172.776 162.983 168.159 160.699 166.866 159.153C166.901 162.05 167.575 166.95 165.946 167.987C162.891 170.041 159.674 167.878 157.792 162.952C156.116 163.836 154.225 164.231 152.335 164.091C150.446 163.952 148.634 163.283 147.106 162.162C146.63 162.138 146.156 162.083 145.687 161.996C148.666 166.353 149.311 169.615 148.03 170.936C145.429 172.796 144.332 167.078 134.554 170.609C132.09 171.491 129.425 171.642 126.877 171.045C134.767 176.212 139.289 182.032 141.84 186.567C145.914 194.572 147.968 201.836 143.495 201.048C143.793 201.805 144.053 202.577 144.283 203.348C147.167 204.07 149.099 206.425 147.006 210.316L147.874 211.689C150.141 212.091 153.926 214.087 154.967 219.027C155.595 218.896 168.343 209.895 168.875 210.884C169.948 211.095 170.372 213.533 170.811 214.312C171.029 214.474 171.207 214.684 171.331 214.926C171.456 215.167 171.524 215.434 171.53 215.706C171.536 215.977 171.48 216.247 171.367 216.494C171.253 216.741 171.085 216.958 170.875 217.131L151.962 232.43C159.709 236.572 155.442 248.951 146.689 247.292L146.611 247.41L143.434 252.196C146.358 257.283 142.325 264.147 136.415 263.998C126.137 263.842 125.825 248.634 136.039 248.016L134.535 246.525L129.53 250.573C129.213 250.828 128.819 250.968 128.412 250.968H64.694L63.9517 252.076C66.8786 257.164 62.8452 264.036 56.9324 263.877C50.4355 264.085 46.5298 255.886 50.6412 250.961C27.1292 253.427 6.30289 237.287 4.34296 226.991C3.30508 225.008 5.72839 218.158 5.95062 216.103C14.5256 209.083 28.952 209.514 41.5083 213.216C42.4965 205.081 44.8371 200.037 44.9458 199.805C45.7071 198.621 46.0523 198.882 47.9602 198.458C48.5207 194.909 49.4656 191.432 50.7783 188.089C49.0406 183.762 51.3623 179.331 53.3435 175.589C47.1611 170.974 46.3998 156.689 48.4661 150.568C47.284 149.094 45.8324 146.578 47.1611 144.651C41.4161 142.336 35.7727 143.056 34.8672 150.405C34.7988 150.862 34.5554 151.275 34.1887 151.555C33.8219 151.836 33.3605 151.963 32.902 151.909C32.4435 151.855 32.0239 151.625 31.732 151.267C31.44 150.909 31.2985 150.451 31.3375 149.991C29.9875 135.023 37.6499 127.92 39.5956 126.859C39.7564 126.75 39.9397 126.68 40.1318 126.652C40.3239 126.625 40.5197 126.641 40.7044 126.701C44.9269 128.045 48.868 128.781 52.4404 128.895L54.8802 124.824C48.1304 121.983 31.9734 120.45 26.3443 121.401C22.2518 123.801 16.4146 120.149 14.0669 117.704L12.159 119.247C9.36926 121.614 4.89382 119.058 5.5227 115.439C3.30981 116.279 0.680808 114.89 0.134677 112.596C-0.775542 109.221 3.13249 106.752 5.24136 105.107C3.06629 104.84 1.24112 102.894 1.29077 100.672C1.44918 94.7852 9.76409 95.9379 13.4712 95.4882C12.0574 93.9663 10.0052 92.4893 10.3528 90.1082C12.873 79.7317 27.2498 92.184 30.8575 96.0255C42.1513 88.1958 63.7625 86.4537 79.6949 90.8609C77.7114 84.5957 77.4608 78.2051 79.2481 72.2925C70.0277 67.4049 74.3589 53.2673 84.6858 55.2342C84.8253 43.2648 88.6647 33.3262 88.8609 32.8244C89.1801 31.6835 91.2252 31.4634 92.1212 31.0681C91.2393 30.0433 88.7711 25.8609 90.653 24.1402C92.5278 23.0798 92.5751 24.8053 96.0718 23.7757C92.464 22.2703 101.528 10.869 114.427 7.87482C114.191 5.19312 114.952 1.62619 118.839 0.120837C119.12 0.0121775 119.425 -0.0231082 119.723 0.0182959C120.022 0.0597001 120.305 0.176434 120.546 0.357527C126.693 8.81212 161.028 4.59429 175.05 20.2253C175.322 18.8052 175.389 14.9897 177.613 14.9661C177.976 14.963 178.331 15.0714 178.63 15.2767C178.93 15.482 179.159 15.7742 179.287 16.114C183.921 24.5923 201.414 37.8706 194.905 53.2958ZM196.442 77.2512C196.463 65.9563 191.394 54.11 191.337 53.9798C191.236 53.7457 191.185 53.4923 191.19 53.237C191.195 52.9817 191.255 52.7305 191.366 52.5005C196.359 40.9358 186.084 30.5877 178.531 21.6857C178.382 24.7225 179.871 25.3757 177.899 26.7462C177.518 26.9266 177.086 26.9656 176.679 26.8564C176.272 26.7471 175.917 26.4967 175.677 26.1497C163.556 8.60856 133.358 13.1672 118.905 4.21795C116.69 7.05824 118.962 8.53519 117.988 10.2394C117.853 10.4555 117.674 10.6403 117.462 10.7812C117.25 10.922 117.01 11.0157 116.759 11.0559C108.413 12.3743 103.046 17.2904 100.405 20.4123C101.488 20.3934 102.94 20.249 103.413 21.5035C103.546 21.826 103.582 22.1809 103.516 22.5238C103.45 22.8668 103.285 23.1827 103.041 23.4325C99.7316 26.8077 96.4217 27.5959 94.1142 27.629C94.6209 28.6812 95.4401 29.5509 96.4595 30.119C97.9111 30.7202 97.7929 32.9853 96.2846 33.4327L91.9013 34.8883C91.036 37.3665 88.4448 45.5394 88.2628 54.9479L91.9344 46.4696C99.6535 40.2683 109.493 36.0055 120.856 31.0681L123.199 26.0172C123.38 25.6292 123.695 25.3198 124.086 25.1458C124.477 24.9719 124.917 24.9451 125.326 25.0704C140.476 29.7001 154.683 37.1416 168.762 47.8329C169.09 48.0826 169.321 48.4385 169.417 48.8399C169.512 49.2413 169.465 49.6634 169.284 50.0342L166.468 55.7952C169.05 66.8013 172.159 79.4501 171.317 91.6917C165.78 98.3427 166.275 103.829 166.693 105.756C167.346 106.032 167.964 106.382 168.537 106.8C182.959 98.8918 190.524 88.21 191.789 86.3401C192.616 80.8063 190.354 76.837 190.33 76.7968C189.335 75.1399 191.467 73.2795 192.966 74.4985L196.442 77.2512ZM177.448 150.739C178.59 149.238 176.391 149.771 175.62 149.714C171.67 149.714 167.937 148.841 165.433 148.079C166.227 152.685 163.471 157.837 160.331 161.035C161.39 164.178 162.39 165.601 163.908 165.736C164.669 162.372 162.08 155.934 166.419 154.848C169.433 153.591 175.039 152.514 177.448 150.739ZM176.195 156.114L174.599 155.34C173.984 155.551 173.32 155.766 172.613 155.991C173.762 156.42 175.019 156.463 176.195 156.114ZM171.733 159.411L170.022 157.312L169.291 157.037C168.896 157.165 168.516 157.293 168.173 157.414L168.523 157.773C169.384 158.658 170.512 159.234 171.733 159.411ZM167.965 215.27L167.705 214.612L167.686 214.565C164.549 216.529 158.189 220.579 155.092 222.525C154.619 222.783 154.052 223.32 153.468 223.263L54.5232 221.909C53.4735 221.753 53.814 221.595 52.159 220.818C39.1843 214.338 22.8594 210.167 8.74275 217.436C8.50633 218.527 8.07131 220.402 7.82307 221.505C17.1901 216.866 26.68 216.861 37.7232 219.254C43.67 220.628 49.4383 222.686 54.9133 225.386C55.0552 225.386 154.706 226.011 154.699 225.999L165.369 217.372L167.965 215.27ZM168.133 89.9426C167.532 77.9802 165.769 66.5883 162.851 56.0769C162.378 55.1041 165.144 50.7064 165.433 49.7762C152.538 40.1594 139.531 33.3214 125.757 28.9237C125.225 29.7308 123.922 33.8516 122.83 34.0954C111.997 38.505 102.63 43.3145 94.9772 48.3679C93.7289 51.2839 90.036 59.729 88.8302 62.5504C88.688 62.9159 88.5189 63.2703 88.3243 63.6107C86.6381 65.3917 85.2211 67.4099 84.1184 69.6014C76.1746 85.8975 88.0784 104.66 102.098 113.718C117.113 123.858 140.022 127.868 154.853 115.915C155.859 115.085 156.797 114.176 157.659 113.197C159.227 111.462 161.837 113.794 160.326 115.564C159.661 116.316 158.958 117.032 158.22 117.711C158.756 118.495 159.476 119.135 160.317 119.576C161.158 120.016 162.094 120.244 163.043 120.239C169.662 120.298 171.036 110.646 164.714 108.807C164.455 108.73 164.216 108.594 164.017 108.411C163.818 108.228 163.663 108.001 163.565 107.749C162.4 103.249 162.054 98.1226 168.133 89.9426ZM163.021 149.532C162.956 148.078 162.337 146.705 161.293 145.693C161.102 145.509 160.898 145.34 160.683 145.186C160.707 145.723 160.712 146.41 160.667 147.2C161.552 147.869 162.344 148.653 163.021 149.532ZM161.194 155.629C161.746 154.61 162.195 153.538 162.534 152.429C162.196 151.208 161.352 150.195 160.442 149.352C160.296 150.3 160.077 151.236 159.789 152.152C160.432 153.232 160.906 154.405 161.194 155.629ZM159.638 157.965C159.669 156.722 159.422 155.489 158.917 154.353C158.702 154.798 158.463 155.241 158.208 155.676C157.791 156.364 157.317 157.014 156.789 157.62C156.823 158.658 156.729 159.697 156.51 160.713C156.698 160.617 156.88 160.512 157.056 160.398C158.034 159.722 158.905 158.901 159.638 157.965ZM148.945 157.901C155.534 156.891 157.56 149.243 156.858 144.732C151.047 139.032 145.294 133.778 139.599 128.97C139.599 137.56 134.313 146.029 132.549 148.616L134.067 153.03C136.039 153.759 145.304 158.824 147.344 158.616C147.827 158.277 148.37 158.034 148.945 157.901ZM154.931 159.383C153.907 160.196 152.781 160.871 151.581 161.39C152.504 161.578 153.455 161.589 154.383 161.423C154.69 160.783 154.876 160.091 154.933 159.383H154.931ZM132.062 219.957C136.79 220.004 146.708 219.957 151.543 219.976C149.947 213.992 146.202 215.19 142.292 215.102C139.528 215.28 136.358 215.767 134.017 217.441C133.133 218.069 132.453 218.944 132.062 219.957ZM147.526 231.446L150.569 228.986C149.86 228.811 54.4192 228.724 53.8329 228.222C53.5965 228.059 26.1078 213.784 7.6694 225.043C6.61024 230.487 24.181 247.983 43.6904 247.406C43.4777 247.377 43.2754 247.296 43.1015 247.17C42.9277 247.044 42.7877 246.877 42.694 246.684C42.6004 246.49 42.556 246.277 42.5648 246.062C42.5737 245.847 42.6355 245.638 42.7448 245.453C43.1798 245.245 51.8138 229.233 52.6437 230.34H61.3629C61.5938 230.343 61.8198 230.407 62.0176 230.526C62.2155 230.646 62.3779 230.816 62.4883 231.019C62.5986 231.222 62.6528 231.451 62.6454 231.682C62.6379 231.913 62.5689 232.138 62.4457 232.333L58.4951 238.461L61.0343 242.222C57.287 230.319 75.8318 226.941 76.4985 239.42C76.4956 241.472 75.7056 243.445 74.2916 244.931C72.8776 246.417 70.9475 247.303 68.9 247.406H123.277C123.064 247.378 122.861 247.297 122.687 247.171C122.513 247.045 122.372 246.878 122.279 246.684C122.185 246.491 122.141 246.277 122.15 246.062C122.159 245.847 122.221 245.638 122.331 245.453C122.764 245.245 131.402 229.23 132.228 230.34H140.947C141.178 230.343 141.403 230.408 141.601 230.527C141.799 230.646 141.961 230.816 142.072 231.019C142.182 231.222 142.237 231.451 142.23 231.682C142.223 231.912 142.155 232.137 142.032 232.333L138.07 238.461L138.344 238.864L140.42 237.185C140.878 235.617 141.805 234.227 143.075 233.201C144.345 232.175 145.898 231.563 147.526 231.446ZM153.501 239.42C153.203 231.943 142.351 232.473 142.71 239.877C143.417 246.672 153.34 246.286 153.494 239.42H153.501ZM144.585 208.501C144.919 207.824 144.973 207.244 144.715 206.875C143.677 205.334 139.498 206.861 138.332 208.143C140.421 208.154 142.508 208.273 144.585 208.501ZM144.112 246.521L144.198 246.393C143.658 246.09 143.155 245.724 142.701 245.304C142.592 245.202 142.484 245.1 142.382 244.991L142.2 245.264L135.547 255.283C134.727 256.549 136.616 257.768 137.452 256.551C139.393 253.609 142.157 249.451 144.101 246.521H144.112ZM119.406 205.246C124.594 201.471 133.578 197.4 142.221 197.469C141.536 194.188 140.33 191.038 138.651 188.138C135.37 182.384 128.544 174.339 114.664 168.701C113.385 168.254 113.536 166.682 113.503 165.598C103.614 159.648 60.3084 144.109 51.9321 151.338C50.3386 155.911 50.4473 168.529 55.2419 172.451C56.9631 169.743 59.2398 167.265 62.1667 165.875C62.2078 165.853 62.2555 165.846 62.3013 165.855C62.3471 165.865 62.3879 165.891 62.4165 165.928C62.445 165.965 62.4593 166.011 62.4569 166.058C62.4544 166.105 62.4354 166.149 62.4031 166.183C61.63 167.085 60.8948 167.972 60.2139 168.886C59.0838 170.377 57.9371 172.403 57.0222 174.039C55.1308 177.487 52.7666 181.324 52.9061 185.265C68.9212 185.248 82.9079 195.367 83.6171 196.586C84.6692 195.547 85.3146 194.136 85.9341 192.799C87.2055 190.146 88.304 187.414 89.2227 184.619C90.6625 180.122 91.471 174.986 88.8113 170.862C86.4636 167.34 82.7471 164.297 78.5601 163.08C76.37 162.453 74.0932 162.183 71.8174 162.282C69.8622 161.125 78.293 160.921 78.9526 161.317C85.0262 162.368 90.8965 166.772 92.9628 172.784C94.2915 177.023 93.4546 181.575 92.2252 185.648C92.5538 185.767 92.8848 185.885 93.2135 186.011C100.285 185.689 106.893 181.731 111.207 176.181C108.309 181.461 103.745 185.631 98.2279 188.039C106.909 191.862 114.723 197.163 119.406 205.246ZM142.202 211.538C142.202 211.462 142.186 211.386 142.179 211.301C140.929 211.211 139.672 211.162 138.41 211.154L138.956 211.878C140.031 211.707 141.115 211.593 142.202 211.538ZM136.415 261.413C139.824 261.456 142.467 258.14 141.689 254.824C140.453 256.525 139.065 259.851 136.488 259.647C133.599 259.718 131.717 256.227 133.386 253.853L135.5 250.67C129.123 251.714 129.885 261.437 136.415 261.413ZM133.341 167.274C136.211 166.221 138.682 165.889 140.736 165.939C133.244 162.055 122.47 160.602 120.187 154.195C119.895 155.004 119.357 155.701 118.648 156.188C118.95 157.698 119.236 160.126 118.664 162.472C123.121 166.63 128.613 168.997 133.341 167.274ZM140.602 203.554C140.336 202.737 140.02 201.937 139.656 201.159C131.698 201.897 125.114 205.684 121.967 207.814C122.187 208.418 122.409 209.086 122.624 209.803C126.49 208.803 130.445 208.189 134.431 207.971C135.381 206.659 137.377 204.475 140.602 203.554ZM136.502 236.132L138.568 232.925H132.944L125.719 244.831H130.892L131.644 243.664L129.752 241.794C128.757 240.797 130.263 239.278 131.265 240.262C131.802 240.797 133.157 242.128 133.667 242.644L137.982 246.921C138.025 246.859 138.805 245.685 138.812 245.673C137.006 243.474 134.393 240.291 132.606 238.118C134.221 239.32 136.303 240.875 137.911 242.078C137.166 240.972 135.987 239.221 135.228 238.099L134.597 237.152C133.776 235.853 135.819 234.75 136.502 236.132ZM141.013 162.048C139.2 160.133 135.377 157.53 131.913 155.951C131.499 155.763 131.172 155.425 130.998 155.004C130.982 154.961 130.965 154.917 130.951 154.872L128.899 148.914C128.296 146.419 137.363 138.078 135.885 126.665C133.194 126.863 130.492 126.841 127.804 126.601C127.847 133.053 123.811 141.456 122.934 147.655C122.624 150.462 122.842 152.486 124.537 154.419C126.516 157.444 135.942 159.624 141.013 162.041V162.048ZM135.232 212.839L134.263 211.554C128.454 211.99 125.355 212.721 121.941 213.715C120.723 215.573 120.343 217.841 120.421 219.796L128.405 219.905C128.772 218.2 129.638 216.644 130.892 215.434C131.721 214.646 132.667 213.992 133.696 213.495C134.196 213.249 134.709 213.03 135.232 212.839ZM119.274 148.961C119.525 142.085 124.404 132.762 124.274 126.163C123.991 126.121 123.705 126.076 123.419 126.026C115.716 134.836 101.746 132.206 96.5895 121.744C91.3765 133.898 69.4012 139.468 54.5469 136.843C53.6685 138.385 52.9878 140.032 52.5207 141.745C54.5171 141.348 56.5581 141.226 58.5873 141.383C59.0412 141.477 61.7955 141.532 61.6868 142.041C61.6766 142.088 61.6504 142.131 61.6126 142.162C61.5748 142.193 61.5276 142.21 61.4787 142.211C60.5319 142.275 59.5904 142.402 58.6606 142.592C55.5729 143.191 52.5846 144.504 50.2038 146.528C50.3727 147.013 50.6117 147.471 50.9131 147.887C57.6085 145.047 65.9707 146.017 73.113 147.361C89.9839 150.803 105.808 157.986 114.981 162.353C115.709 160.41 115.472 158.008 114.981 156.072C112.293 152.862 108.697 150.445 105.018 148.438C99.6299 145.773 99.436 145.868 105.406 147.522C109.425 148.815 113.385 150.509 116.777 153.118C117.461 151.096 112.947 145.974 111.212 144.928C114.141 145.536 116.827 147.08 119.165 148.928L119.274 148.961ZM120.868 125.529C120.546 125.46 120.225 125.387 119.905 125.311C117.843 126.453 115.524 127.053 113.167 127.053C106.548 127.053 100.918 122.362 98.9821 115.891C98.8143 115.775 98.6464 115.654 98.4833 115.538C98.3126 116.736 98.0405 117.918 97.67 119.07C101.476 128.807 113.281 132.743 120.868 125.531V125.529ZM119.326 211.211C119.168 210.67 119.011 210.162 118.853 209.687C118.517 209.691 118.187 209.601 117.9 209.426C117.613 209.251 117.382 208.998 117.231 208.697C112.546 199.204 103.046 193.549 92.6839 189.606C92.0668 189.606 91.6389 189.151 91.0691 189.007C90.3078 191.024 89.4544 193.019 88.53 194.965C87.2107 198.087 84.5463 200.882 81.078 201.504L77.5601 206.224C77.9572 206.619 77.9076 209.325 78.0069 209.857C82.4445 212.934 83.4918 217.064 83.7188 219.28L116.848 219.734C116.792 217.55 117.142 214.205 119.326 211.225V211.211ZM104.949 119.588C107.115 122.123 110.29 123.659 113.685 123.482C110.676 122.414 107.755 121.112 104.949 119.588ZM57.4501 134.462C73.4014 137.013 96.1971 128.686 96.1002 113.723C91.8987 110.386 88.2188 106.439 85.1822 102.014C85.3605 103.861 85.1478 105.725 84.5581 107.484C81.5414 117.898 71.555 131.065 57.3437 125.709L55.3342 129.068C57.9631 129.162 60.7316 128.966 63.136 127.82C63.1674 127.798 63.2063 127.789 63.2442 127.795C63.2821 127.802 63.3159 127.823 63.3382 127.854C63.3604 127.886 63.3693 127.925 63.3629 127.963C63.3565 128.001 63.3352 128.035 63.3039 128.057C60.578 130.187 57.0789 131.025 53.7099 131.463C49.5608 131.64 44.8229 130.663 40.539 129.373C37.8438 130.971 33.4463 138.68 33.8719 144.45C38.7398 134.843 47.9105 133.229 57.4501 134.462ZM85.0215 61.9705C84.8985 60.9409 84.8134 59.916 84.7567 58.8935C82.5651 58.2118 80.0283 58.8343 78.6405 60.7349C76.7775 63.2439 77.6759 67.0427 80.52 68.8913C81.6641 66.3707 83.1817 64.0375 85.0215 61.9705ZM81.6714 103.335C81.6714 98.9392 78.7634 95.2586 77.7894 94.1486C75.6332 93.6302 73.4865 93.2018 71.3824 92.8633C72.8718 96.9628 73.4652 99.1143 72.5834 100.16C72.5314 101.107 61.3369 98.8256 60.7742 98.9297C60.5308 98.8946 60.3025 98.7907 60.1161 98.6301C59.9297 98.4695 59.793 98.2589 59.7221 98.0232C58.9868 95.5711 57.5329 93.5261 56.2136 92.0562C46.9601 92.6219 40.0212 95.1332 35.3401 97.5687C36.4611 98.1315 37.5151 98.8191 38.4821 99.6185C40.0812 98.844 41.7659 98.2609 43.5013 97.8812C48.0571 96.6764 51.237 102.681 47.7781 105.839C46.2823 107.298 44.8769 108.847 43.5699 110.478C43.4218 113.234 42.4727 115.886 40.8392 118.109C46.5847 118.73 52.2324 120.054 57.6558 122.052C62.1218 123.709 66.1669 123.709 69.6896 122.026C77.021 118.04 80.8889 109.557 81.6714 103.335ZM54.8826 218.627L80.0992 218.863C79.65 214.773 74.6781 211.019 69.5241 210.219C62.5426 209.057 57.878 208.276 53.152 212.113C51.8517 213.327 50.9344 214.877 50.1376 216.454C51.9935 217.313 53.2111 218.016 54.8826 218.627ZM74.6592 204.174L79.4632 197.727C75.8625 195.298 65.2118 189.144 54.3246 188.825C54.0717 189.428 53.7336 190.288 53.3671 191.364C52.6178 193.581 52.0339 195.85 51.62 198.153C53.0535 198.134 54.4861 198.231 55.9039 198.444C60.3959 190.413 77.1369 192.901 74.5244 204.124L74.6592 204.174ZM75.3117 208.354L75.2999 208.167L75.2573 207.561C74.5092 206.93 73.6344 206.468 72.6921 206.205C72.6921 206.278 72.8435 207.388 72.8482 207.414C73.3967 207.587 73.9003 207.765 74.4133 207.971C74.7088 208.089 75.0209 208.222 75.3117 208.354ZM71.0372 203.362C72.5361 198.988 67.349 196.688 63.5025 197.308C61.5355 197.658 60.1169 198.877 59.1973 200.001C59.2404 200.131 59.2682 200.265 59.28 200.401C62.6561 200.591 67.167 201.289 70.7346 203.436C70.8319 203.398 70.9336 203.374 71.0372 203.362ZM61.9421 96.4871L70.1979 97.6823C69.8298 95.852 69.1974 94.0852 68.3207 92.4373C65.3814 92.083 62.4225 91.9178 59.4621 91.9426C60.5033 93.3297 61.3387 94.8604 61.9421 96.4871ZM70.1648 206.723L70.0064 205.514C66.8289 203.483 62.902 202.811 59.2989 202.574V205.888C62.4741 205.568 65.8738 205.852 70.1554 206.723H70.1648ZM68.7818 244.831C75.6521 244.473 75.4015 234.035 68.5051 234.016C67.0723 234.018 65.6988 234.589 64.6856 235.603C63.6725 236.617 63.1024 237.992 63.1006 239.427C63.032 242.433 65.7721 245.036 68.7723 244.823L68.7818 244.831ZM67.0677 247.413H68.1174C67.7893 247.398 67.4624 247.362 67.1386 247.306L67.0677 247.413ZM64.6302 246.416C63.9587 246.042 63.3448 245.572 62.8074 245.022L58.8568 250.975L56.0647 255.179C55.9752 255.313 55.915 255.465 55.8881 255.624C55.8612 255.783 55.8682 255.947 55.9086 256.103C55.949 256.259 56.0219 256.405 56.1225 256.532C56.2231 256.658 56.3493 256.761 56.4926 256.836C56.7444 256.957 57.031 256.985 57.3015 256.915C57.572 256.844 57.8089 256.681 57.9702 256.452L60.8262 252.149C61.4102 251.273 62.2069 250.076 62.7861 249.202C63.1951 248.554 64.2117 247.025 64.6208 246.409L64.6302 246.416ZM56.9324 261.307C60.3392 261.349 62.9847 258.033 62.2069 254.719C60.9681 256.419 59.5826 259.747 57.0056 259.543C54.1166 259.614 52.237 256.121 53.9038 253.747L55.7455 250.975H54.6887C49.5088 253.214 51.1944 261.385 56.9324 261.307ZM56.9087 236.139L58.9774 232.932H53.3506L46.1256 244.838H51.3032L52.055 243.671L50.1636 241.801C49.1683 240.804 50.6743 239.285 51.6767 240.27C53.5823 242.163 56.4926 245.044 58.4171 246.951L59.2445 245.706C57.4761 243.55 54.7691 240.262 53.0172 238.132L56.8543 240.994L58.3249 242.09C57.391 240.705 55.9441 238.558 55.015 237.174C54.2324 235.99 56.0079 234.807 56.7976 235.969L56.9087 236.139ZM52.1567 247.413H55.8283L53.9369 245.519C53.7312 245.841 53.3009 246.504 53.0976 246.821C52.994 246.982 52.8558 247.119 52.6931 247.22C52.5303 247.321 52.347 247.384 52.1567 247.406V247.413ZM55.7313 206.624V203.287C55.1639 202.877 54.6438 202.529 54.4949 201.852C52.1898 201.54 48.8941 201.838 47.8396 202.089C47.1658 203.788 45.6267 208.196 44.9577 214.359C45.6149 214.596 46.2485 214.832 46.849 215.069C48.5867 211.362 51.419 207.968 55.4311 206.697L55.7313 206.624ZM48.9106 141.534C49.2884 139.877 49.8531 138.268 50.5939 136.739C47.0925 136.831 43.9387 137.562 40.8416 139.943C43.6195 139.79 46.5157 140.578 48.9106 141.527V141.534ZM44.9647 103.595C45.3052 103.285 45.6953 102.93 45.674 102.442C45.6777 102.274 45.6432 102.108 45.5732 101.956C45.5031 101.803 45.3994 101.669 45.2697 101.563C45.1401 101.456 44.988 101.381 44.825 101.342C44.662 101.304 44.4923 101.303 44.3288 101.339C43.2138 101.592 42.1199 101.93 41.0567 102.35C39.3581 103.066 37.7911 104.061 36.4205 105.294C36.2331 105.457 36.014 105.578 35.777 105.651C35.54 105.723 35.2906 105.745 35.0445 105.716C33.3187 105.261 33.3896 103.886 30.3161 100.672C29.6802 99.9617 29.0631 99.2895 28.3609 98.5652C26.9424 96.648 15.1899 86.939 13.9014 90.4112C13.814 90.8657 14.2466 91.2112 14.5705 91.5047C15.9134 92.771 17.5494 94.5817 18.4218 96.5155C18.9727 97.6539 18.0317 99.1001 16.7669 99.0267C16.7456 99.0267 15.8401 99.0054 14.4736 99.0267C12.159 99.067 8.51815 99.2327 5.55107 99.8149C4.84181 99.912 4.63849 100.97 5.18462 101.349C5.77331 101.753 10.4402 102.437 11.0195 102.835L15.7479 104.366C15.8531 104.397 15.9446 104.463 16.0067 104.553C16.0689 104.643 16.0978 104.752 16.0886 104.861C16.0794 104.971 16.0326 105.073 15.9562 105.152C15.8799 105.23 15.7787 105.28 15.6699 105.292C10.7216 105.955 8.78767 105.959 3.69517 111.221C3.45875 111.581 3.5344 111.874 3.93159 112.085C4.01525 112.121 4.10692 112.133 4.19711 112.122C4.2873 112.11 4.37275 112.074 4.44462 112.019C5.34775 111.238 7.65049 109.924 9.57968 109.399C11.1117 108.878 12.516 110.771 11.5656 112.097C11.0715 112.849 9.57968 115.044 9.11393 115.758C8.74275 116.291 9.46383 116.859 9.90121 116.49L13.0598 113.938C13.413 113.652 13.8622 113.513 14.315 113.548C14.7678 113.583 15.19 113.791 15.4949 114.128C18.5329 117.399 24.5877 121.728 27.5075 115.103C27.6672 114.683 27.9788 114.339 28.3805 114.138C28.7822 113.938 29.2444 113.896 29.6754 114.021C29.8929 114.142 35.976 115.623 38.8344 110.743C38.9053 110.646 39.8462 109.375 41.1986 107.756C42.382 106.305 43.639 104.916 44.9647 103.595ZM38.3 117.872C39.171 116.86 39.888 115.725 40.4278 114.504C38.8717 116.146 36.8353 117.25 34.6119 117.659C35.7633 117.69 37.0045 117.758 38.3 117.872ZM35.5741 101.422C35.8783 101.196 36.1786 100.986 36.4749 100.79C35.6267 100.169 34.7163 99.6372 33.7584 99.2043C34.4889 100.049 35.1013 100.807 35.5741 101.413V101.422Z" fill="black"/>
<path d="M148.744 63.6415C155.714 64.1149 161.161 71.0523 159.972 77.9424C159.933 78.2049 159.814 78.4491 159.632 78.6418C159.449 78.8345 159.212 78.9663 158.953 79.0193L154.822 79.8572C154.637 79.8929 154.447 79.8881 154.264 79.8429C154.081 79.7978 153.911 79.7134 153.764 79.5957C153.617 79.478 153.497 79.3297 153.413 79.1611C153.329 78.9926 153.282 78.8077 153.276 78.6193C153.323 73.0405 146.396 69.6464 142.006 73.0595C141.816 73.1948 141.594 73.2768 141.362 73.297C141.131 73.3172 140.897 73.2748 140.688 73.1743C140.478 73.0738 140.298 72.9188 140.168 72.7254C140.039 72.5321 139.963 72.3074 139.949 72.0748L139.713 67.1043C140.214 64.4865 146.403 63.3031 148.744 63.6415ZM157.513 76.6737C158.179 68.818 148.864 63.3291 142.325 67.7102L142.429 69.8689C147.94 67.386 154.799 71.1494 155.704 77.0406L157.513 76.6737Z" fill="black"/>
<path d="M151.274 239.628C151.803 240.525 150.827 242.061 149.808 242.594C147.035 244.224 143.583 241.256 144.798 238.309C145.11 237.599 145.652 236.925 146.174 236.96C146.299 237.098 145.789 237.599 145.597 238.556C145.124 240.381 147.004 242.371 148.888 241.82C150.392 241.512 150.808 240.108 151.274 239.628Z" fill="black"/>
<path d="M148.089 238.388C149.437 238.374 149.42 240.471 148.089 240.452C146.758 240.433 146.741 238.393 148.089 238.388Z" fill="black"/>
<path d="M146.25 82.6785C146.808 82.927 146.578 83.8146 145.985 83.7839C144.628 83.7496 143.269 83.7891 141.916 83.9022C139.637 84.0736 137.398 84.5891 135.273 85.4312C137.085 85.9947 138.762 86.927 140.197 88.1697C140.739 88.6739 143.339 90.9935 142.349 91.6018C141.64 91.9781 140.966 90.9154 140.349 90.655C139.07 89.8168 137.678 89.1679 136.214 88.7283C134.793 88.3007 133.319 88.0721 131.835 88.049C130.452 88.0609 128.875 88.4585 128.575 86.6289C128.412 85.5945 129.436 84.972 130.112 84.4371C131.194 83.6173 132.376 82.9389 133.63 82.4182C134.88 81.9312 136.184 81.5974 137.514 81.4241C140.502 81.0383 143.507 81.3886 146.25 82.6785Z" fill="black"/>
<path d="M131.762 53.9373C131.842 54.18 131.85 54.4413 131.782 54.6881C131.715 54.9349 131.576 55.1562 131.384 55.3243L126.892 59.2178C126.452 62.0345 122.329 60.7516 123.563 58.1859C121.993 53.4024 114.477 51.9396 110.881 55.6225C110.743 55.751 110.579 55.8478 110.399 55.9062C110.22 55.9646 110.03 55.9832 109.843 55.9607C109.656 55.9381 109.476 55.875 109.315 55.7758C109.155 55.6765 109.018 55.5434 108.914 55.3858C108.536 54.5456 106.526 52.5881 107.295 51.5775C112.482 42.0814 128.698 43.5229 131.762 53.9373ZM125.776 56.7634L129.01 53.9657C126.128 46.5573 114.286 45.5632 109.945 52.2236L110.304 52.7728C115.234 49.1325 123.601 51.194 125.776 56.7634Z" fill="black"/>
<path d="M123.237 90.565C128.424 90.4633 122.683 99.7155 114.839 102.007C109.189 103.9 103.434 100.613 103.41 95.2136C103.41 92.681 105.753 88.2526 106.938 86.1792C104.869 83.1164 108.465 81.1921 109.725 83.7199C111.669 87.5283 114.804 91.6656 123.237 90.565ZM113.881 98.577C116.787 97.7652 118.832 95.9308 120.128 94.3497C118.071 94.3184 116.042 93.8652 114.167 93.018C112.292 92.1708 110.611 90.9477 109.226 89.4242C108.063 91.6396 106.973 94.113 106.973 95.2136C107.134 98.3924 110.479 99.6895 113.881 98.577Z" fill="black"/>
<path d="M101.897 66.1717C112.17 54.2899 120.853 66.4084 111.43 76.5341C100.933 86.965 94.1875 75.3506 101.897 66.1717ZM113.34 68.5221C114.758 63.5776 110.115 63.0664 108.716 67.528C107.295 72.4725 111.938 72.9837 113.338 68.5221H113.34ZM102.874 74.5104C102.989 73.45 102.505 72.6168 101.793 72.6571C100.275 72.6239 99.533 76.4654 101.365 76.4915C102.077 76.4512 102.753 75.5684 102.871 74.5104H102.874Z" fill="black"/>
<path d="M95.1213 114.222C95.5941 114.748 93.3978 119.143 93.2914 119.721C93.186 119.986 92.9803 120.198 92.719 120.312C92.4578 120.426 92.1622 120.432 91.8965 120.329L84.1112 117.252C83.8468 117.146 83.635 116.94 83.5217 116.678C83.4083 116.417 83.4027 116.121 83.5059 115.855L85.3477 111.178C85.3996 111.047 85.4769 110.926 85.5752 110.825C85.6736 110.723 85.791 110.642 85.9208 110.585C86.0505 110.529 86.1901 110.499 86.3316 110.497C86.473 110.495 86.6134 110.52 86.7449 110.572C87.0026 110.793 95.4806 113.706 95.1213 114.222ZM91.6837 117.929L92.7382 115.268L86.9553 112.982L85.9009 115.657L91.6837 117.929Z" fill="black"/>
<path d="M71.6804 239.628C72.0161 240.033 71.7655 240.873 71.3612 241.522C70.5361 242.868 68.4249 243.507 66.8692 242.629C65.2568 241.846 64.5736 239.751 65.2143 238.3C65.5264 237.59 66.0678 236.916 66.5903 236.951C66.4791 237.619 65.5405 238.703 66.1576 240.163C66.7959 242.035 69.4675 242.433 70.7134 241.006C71.3778 240.312 71.5031 239.604 71.6804 239.628Z" fill="black"/>
<path d="M68.498 238.388C69.8456 238.388 69.8456 240.447 68.498 240.452C67.1504 240.456 67.1433 238.395 68.498 238.388Z" fill="black"/>
</g>
<defs>
<clipPath id="clip0_1932_1163">
<rect width="200" height="264" fill="white"/>
</clipPath>
</defs>
</svg>
