<svg width="259" height="288" viewBox="0 0 259 288" fill="none" xmlns="http://www.w3.org/2000/svg">
<g clip-path="url(#clip0_1932_1229)">
<path d="M12.1541 171.445C12.5427 172.211 12.6967 172.894 12.5972 173.46C12.5635 173.644 12.502 173.823 12.4148 173.989C7.40146 174.159 6.41349 172.979 6.26897 172.739C6.20814 172.634 6.1717 172.517 6.16235 172.396C6.52374 172.497 6.89084 172.576 7.26168 172.633C7.66199 172.698 8.06681 172.731 8.47236 172.732C9.81428 172.76 11.1212 172.303 12.1541 171.445Z" fill="white"/>
<path d="M10.2066 164.282C10.7966 165.382 11.8106 167.786 10.3156 169.122C9.21391 170.106 7.59809 169.788 6.54378 169.412C6.42446 169.144 6.24626 168.908 6.02255 168.719C5.11513 167.952 4.02765 166.773 3.98975 165.527V165.465C4.00356 164.959 4.15689 164.467 4.43279 164.043C4.7171 164.145 5.00615 164.235 5.29993 164.311C6.19793 164.554 7.12498 164.674 8.05535 164.666C8.78794 164.65 9.5136 164.521 10.2066 164.282Z" fill="white"/>
<path d="M9.3962 162.362L9.47913 162.405C9.03489 162.464 8.58475 162.464 8.14051 162.405C7.45015 162.301 6.77682 162.105 6.13851 161.822C5.89577 161.718 5.65853 161.602 5.42773 161.473C5.39672 161.369 5.35792 161.268 5.31164 161.17C4.51558 159.511 3.74084 157.228 4.57244 155.818C4.84702 155.389 5.23158 155.042 5.68598 154.813C5.73355 155.693 5.86928 156.567 6.09112 157.42C6.21669 157.875 6.35411 158.323 6.52232 158.762C6.59577 158.982 6.70001 159.196 6.79004 159.409L6.92983 159.731L7.11937 160.101C7.64976 161.055 8.43913 161.839 9.3962 162.362Z" fill="white"/>
<path d="M89.8554 100.835C89.9123 101.24 88.73 101.745 87.2137 101.963C85.6974 102.181 84.418 102.03 84.3588 101.624C84.2996 101.219 85.4866 100.714 87.0029 100.499C88.5192 100.283 89.7938 100.432 89.8554 100.835Z" fill="white"/>
<path d="M171.296 258.746H171.18C171.035 258.748 170.89 258.74 170.746 258.725C170.661 258.725 170.575 258.704 170.49 258.69H170.433H170.379C170.172 258.649 169.97 258.592 169.772 258.519C169.438 258.396 169.116 258.268 168.803 258.13L168.642 258.057C168.559 258.021 168.481 257.983 168.405 257.945L168.168 257.829C175.956 251.579 180.275 243.307 182.642 236.696C182.995 235.705 183.305 234.752 183.578 233.852C184.42 231.14 185.023 228.359 185.381 225.542C185.405 225.304 185.371 225.065 185.284 224.844C185.196 224.622 185.056 224.425 184.876 224.269C180.519 220.498 180.848 217.317 181.426 215.783C183.727 216.613 185.968 217.476 188.11 218.353C188.831 218.654 189.449 219.159 189.888 219.806C190.328 220.453 190.569 221.214 190.584 221.996C190.576 222.241 190.545 222.486 190.491 222.726L190.477 222.79C189.851 225.485 189.12 228.134 188.283 230.735C188.07 231.403 187.847 232.067 187.62 232.726C187.217 233.889 186.793 235.04 186.347 236.179C186.245 236.442 186.141 236.701 186.037 236.961C185.636 237.957 185.219 238.941 184.786 239.912C184.052 241.56 183.308 243.106 182.554 244.549C182.258 245.12 181.962 245.672 181.668 246.208L181.493 246.528C181.315 246.845 181.14 247.156 180.964 247.476C180.834 247.713 180.704 247.931 180.571 248.156L180.441 248.377C180.384 248.476 180.325 248.573 180.268 248.67C179.962 249.182 179.661 249.675 179.363 250.154L179.235 250.358L179.064 250.626L178.896 250.889L178.726 251.152L178.391 251.664L178.06 252.162C177.951 252.323 177.842 252.487 177.73 252.636L177.569 252.873C177.299 253.265 177.034 253.642 176.773 254.004L176.631 254.198L176.463 254.435C176.257 254.715 176.055 254.985 175.856 255.246C175.745 255.393 175.636 255.537 175.527 255.677L175.352 255.914C175.25 256.044 175.148 256.175 175.048 256.298C174.75 256.674 174.463 257.028 174.188 257.36C174.096 257.469 173.999 257.576 173.897 257.675L173.793 257.772C173.748 257.815 173.698 257.855 173.651 257.896C173.594 257.941 173.539 257.986 173.48 258.026C173.16 258.255 172.807 258.435 172.433 258.559L172.333 258.59L172.179 258.633L172.023 258.671L171.812 258.711L171.668 258.732H171.582H171.537H171.459H171.334L171.296 258.746Z" fill="white"/>
<path d="M167.569 235.056C167.912 235.336 168.138 235.733 168.205 236.171C168.272 236.609 168.175 237.056 167.931 237.426L166.526 239.542L163.003 244.847C162.74 245.241 162.332 245.514 161.868 245.608C161.404 245.702 160.922 245.608 160.527 245.347C160.332 245.218 160.163 245.051 160.032 244.856C159.901 244.661 159.81 244.442 159.764 244.212C159.764 244.169 159.748 244.127 159.743 244.082C159.688 243.657 159.789 243.226 160.027 242.87L164.951 235.449C165.08 235.253 165.247 235.085 165.442 234.954C165.636 234.823 165.855 234.732 166.085 234.685C166.315 234.639 166.552 234.638 166.782 234.683C167.012 234.729 167.231 234.819 167.427 234.949C167.479 234.984 167.524 235.02 167.569 235.056Z" fill="white"/>
<path d="M162.293 231.538C162.687 231.8 162.961 232.209 163.055 232.673C163.149 233.138 163.054 233.62 162.792 234.015L157.872 241.436C157.608 241.83 157.2 242.103 156.737 242.196C156.273 242.29 155.791 242.197 155.396 241.936C155.001 241.675 154.727 241.267 154.633 240.803L154.619 240.721C154.553 240.281 154.651 239.833 154.896 239.462L155.45 238.625L159.812 232.048C160.032 231.713 160.36 231.462 160.741 231.337C160.923 231.277 161.113 231.247 161.305 231.247C161.558 231.245 161.809 231.3 162.039 231.405C162.127 231.443 162.212 231.487 162.293 231.538Z" fill="white"/>
<path d="M169.481 213.389L156.905 228.858L154.668 227.419C154.456 227.281 154.276 227.099 154.139 226.885C154.002 226.672 153.912 226.432 153.875 226.182C153.835 225.933 153.849 225.679 153.916 225.437C153.982 225.195 154.1 224.969 154.261 224.776L165.055 211.59C166.384 212.316 167.788 212.896 169.241 213.321L169.481 213.389Z" fill="white"/>
<path d="M153.368 237.291L152.834 238.097C152.605 238.44 152.427 238.816 152.306 239.211L146.532 235.418L145.885 234.994L146.203 234.596C146.473 234.253 146.86 234.02 147.289 233.941C147.719 233.863 148.162 233.944 148.537 234.169L151.349 235.98L153.368 237.291Z" fill="white"/>
<path d="M182.324 225.942C181.946 228.3 181.405 230.63 180.704 232.913C176.854 232.072 173.21 232.392 169.831 233.861C169.337 233.207 168.663 232.711 167.893 232.432C167.122 232.153 166.287 232.103 165.489 232.29C165.39 231.72 165.177 231.176 164.861 230.691C164.545 230.207 164.134 229.791 163.652 229.471L163.446 229.343L172.764 215.783C174.082 215.265 175.355 214.638 176.569 213.911C177.28 214.148 178.005 214.385 178.721 214.622C177.892 216.878 177.318 221.254 182.324 225.942Z" fill="white"/>
<path d="M170.684 236.734C173.49 235.43 176.532 235.099 179.763 235.743C177.437 242.178 173.184 250.263 165.548 256.082C165.065 255.664 164.619 255.204 164.216 254.708C164.136 254.61 164.06 254.513 163.979 254.414C163.294 253.499 162.756 252.484 162.383 251.403C162.019 250.339 161.799 249.231 161.729 248.109C162.391 248.074 163.036 247.885 163.612 247.555C164.189 247.226 164.679 246.766 165.046 246.213L169.969 238.794C170.383 238.181 170.63 237.471 170.684 236.734Z" fill="white"/>
<path d="M198.208 226.027C200.873 227.511 202.506 230.088 202.062 232.074L199.151 237.525C198.063 239.493 194.578 239.735 191.541 238.059C190.78 237.637 190.083 237.111 189.468 236.497C190.889 232.743 192.076 228.904 193.022 225.003C193.387 224.936 193.758 224.902 194.13 224.904C195.562 224.933 196.963 225.32 198.208 226.027ZM199.253 231.37C199.923 230.159 199.096 228.417 197.405 227.478C195.713 226.539 193.796 226.767 193.126 227.969C192.455 229.17 193.282 230.922 194.974 231.861C196.665 232.799 198.587 232.579 199.253 231.37Z" fill="white"/>
<path d="M191.275 247.717C194.242 249.377 196.047 252.249 195.54 254.475L192.356 260.448C191.136 262.655 187.25 262.944 183.876 261.081C181.787 259.919 180.228 258.135 179.706 256.307C179.621 256.009 179.565 255.704 179.541 255.395C181.484 252.639 183.25 249.762 184.829 246.781C185.454 246.581 186.108 246.482 186.764 246.49C188.347 246.517 189.897 246.939 191.275 247.717ZM192.356 253.66C193.085 252.342 192.183 250.441 190.337 249.419C188.491 248.398 186.407 248.635 185.674 249.953C184.942 251.27 185.845 253.171 187.691 254.195C189.536 255.219 191.621 254.978 192.356 253.66Z" fill="white"/>
<path d="M73.5174 270.799C74.9231 270.799 76.2973 271.216 77.4662 271.998C78.6351 272.779 79.5461 273.89 80.084 275.189C80.622 276.488 80.7628 277.918 80.4885 279.297C80.2143 280.677 79.5373 281.944 78.5433 282.938C77.5493 283.933 76.2828 284.61 74.904 284.884C73.5253 285.159 72.0961 285.018 70.7974 284.48C69.4986 283.941 68.3885 283.03 67.6075 281.861C66.8265 280.691 66.4097 279.316 66.4097 277.91C66.414 276.026 67.1643 274.219 68.4963 272.887C69.8283 271.554 71.6336 270.804 73.5174 270.799ZM77.3366 277.91C77.3371 277.154 77.1133 276.414 76.6935 275.785C76.2738 275.156 75.677 274.666 74.9786 274.376C74.2802 274.086 73.5116 274.01 72.77 274.158C72.0285 274.305 71.3473 274.669 70.8127 275.204C70.2781 275.739 69.9141 276.421 69.7667 277.162C69.6194 277.904 69.6952 278.673 69.9848 279.372C70.2743 280.071 70.7645 280.668 71.3933 281.088C72.0221 281.508 72.7613 281.731 73.5174 281.731C74.5286 281.731 75.4986 281.33 76.2146 280.615C76.9306 279.901 77.3341 278.931 77.3366 277.92V277.91Z" fill="white"/>
<path d="M97.1646 270.799C98.5704 270.799 99.9446 271.216 101.113 271.998C102.282 272.779 103.193 273.89 103.731 275.189C104.269 276.488 104.41 277.918 104.136 279.297C103.861 280.677 103.185 281.944 102.19 282.938C101.196 283.933 99.93 284.61 98.5512 284.884C97.1725 285.159 95.7434 285.018 94.4446 284.48C93.1458 283.941 92.0358 283.03 91.2548 281.861C90.4738 280.691 90.0569 279.316 90.0569 277.91C90.0613 276.026 90.8115 274.219 92.1435 272.887C93.4755 271.554 95.2809 270.804 97.1646 270.799ZM100.986 277.91C100.986 277.154 100.762 276.416 100.343 275.788C99.9231 275.159 99.3268 274.67 98.6291 274.38C97.9313 274.091 97.1635 274.015 96.4227 274.162C95.682 274.31 95.0014 274.673 94.4672 275.207C93.933 275.742 93.5691 276.422 93.4214 277.163C93.2738 277.904 93.3491 278.672 93.6378 279.371C93.9265 280.069 94.4156 280.666 95.0434 281.086C95.6712 281.506 96.4093 281.73 97.1646 281.731C98.1761 281.731 99.1463 281.33 99.8627 280.615C100.579 279.901 100.983 278.931 100.986 277.92V277.91Z" fill="white"/>
<path d="M107.089 258.234C107.089 259.085 107.089 259.893 107.089 260.654C107.089 260.849 107.089 261.041 107.089 261.23V261.33L107.075 261.842C107.075 261.873 107.075 261.903 107.075 261.934C107.075 262.098 107.075 262.259 107.056 262.408C107.056 262.439 107.056 262.47 107.056 262.501C107.056 262.676 107.04 262.849 107.033 263.017L107.018 263.254C107.004 263.534 106.988 263.807 106.966 264.067C106.895 265.079 106.445 266.026 105.706 266.72C104.968 267.414 103.995 267.804 102.981 267.812H62.562C62.107 267.814 61.6666 267.652 61.3212 267.356C60.9758 267.059 60.7485 266.648 60.6809 266.198C60.6667 266.094 60.6548 265.992 60.643 265.89L60.6074 265.589H99.2117C99.6045 265.589 99.9811 265.433 100.259 265.155C100.536 264.877 100.693 264.501 100.693 264.108C100.693 259.325 103.863 256.781 107.03 255.139C107.03 255.326 107.042 255.513 107.047 255.696C107.052 255.878 107.059 256.07 107.061 256.255C107.061 256.39 107.061 256.525 107.073 256.658C107.073 256.698 107.073 256.736 107.073 256.776C107.073 256.869 107.073 256.961 107.073 257.054C107.073 257.312 107.073 257.566 107.087 257.817V257.829C107.089 257.983 107.089 258.12 107.089 258.234Z" fill="white"/>
<path d="M76.6186 262.652H60.4746C60.4746 262.581 60.4746 262.51 60.4746 262.439C60.4746 262.411 60.4746 262.385 60.4746 262.356V262.202V262.074V261.958C60.4746 261.896 60.4746 261.835 60.4865 261.773C60.4983 261.712 60.4865 261.617 60.5054 261.536C60.5054 261.496 60.5054 261.458 60.5054 261.42L60.5267 261.207C60.5256 261.202 60.5256 261.197 60.5267 261.192C60.5267 261.107 60.5433 261.019 60.5552 260.934L60.5907 260.671C60.6025 260.583 60.6144 260.498 60.6286 260.413C60.6428 260.327 60.6547 260.244 60.6713 260.159C60.6831 260.09 60.6949 260.024 60.7092 259.958C60.7234 259.891 60.7471 259.758 60.7684 259.659C60.7897 259.559 60.8039 259.495 60.8229 259.422C60.8584 259.275 60.8963 259.128 60.9342 258.986C60.9579 258.893 60.9864 258.801 61.0124 258.708L61.0835 258.471C61.1072 258.396 61.1333 258.32 61.1593 258.234C61.2091 258.087 61.2612 257.943 61.3181 257.801C61.3465 257.722 61.3773 257.647 61.4081 257.564L61.5005 257.35C61.555 257.225 61.6142 257.099 61.6734 256.976L61.7161 256.893C61.7421 256.838 61.7706 256.786 61.799 256.732L61.8938 256.554L61.9909 256.383L62.0549 256.276C62.0738 256.241 62.0952 256.208 62.1165 256.175C62.1378 256.141 62.1852 256.061 62.2231 256.006C62.261 255.952 62.2871 255.907 62.3202 255.857L62.4269 255.703L62.4553 255.663L62.5406 255.544C62.5552 255.522 62.5711 255.501 62.588 255.48L62.6685 255.373C62.687 255.348 62.7067 255.323 62.7278 255.3L62.7965 255.215C62.8249 255.177 62.8557 255.139 62.8865 255.103C62.9173 255.068 62.9102 255.072 62.9244 255.058L62.9978 254.973L63.0902 254.866C63.1282 254.821 63.1708 254.778 63.2111 254.736C63.2513 254.693 63.2916 254.648 63.3343 254.605L63.3603 254.577L63.467 254.473C63.5072 254.432 63.5475 254.392 63.5878 254.357C63.6281 254.321 63.6589 254.286 63.6944 254.252C63.7939 254.162 63.8958 254.072 64 253.984C64.0545 253.937 64.1138 253.89 64.1706 253.845C64.419 253.644 64.6776 253.457 64.9454 253.283C64.9927 253.25 65.0425 253.219 65.0899 253.19C65.2297 253.1 65.3718 253.017 65.5187 252.934C65.5732 252.904 65.6324 252.87 65.6893 252.842C65.7462 252.814 65.867 252.747 65.957 252.702L66.0802 252.641C66.2129 252.574 66.3503 252.513 66.4901 252.451L66.6204 252.394L66.6962 252.361L66.8621 252.294L66.9071 252.276L67.1061 252.2L67.3122 252.124L67.4781 252.065L67.6155 252.02C67.9974 252.434 68.4612 252.765 68.9775 252.991C69.4938 253.217 70.0514 253.333 70.6149 253.333H72.1857C74.2375 254.854 76.2893 257.673 76.6186 262.652Z" fill="white"/>
<path d="M80.4687 249.247C80.468 249.677 80.2969 250.09 79.9926 250.394C79.6884 250.698 79.276 250.87 78.8457 250.87H70.66C70.3663 250.869 70.0786 250.787 69.8284 250.633C69.5873 250.489 69.3876 250.285 69.2489 250.041C69.1102 249.796 69.0372 249.52 69.0371 249.239C69.037 249.1 69.0553 248.961 69.0916 248.827C69.178 248.496 69.3668 248.201 69.6311 247.984C69.8954 247.767 70.2215 247.639 70.5629 247.618H78.8552C79.2848 247.621 79.6959 247.794 79.9983 248.099C80.3008 248.404 80.4699 248.817 80.4687 249.247Z" fill="white"/>
<path d="M80.4685 243.532C80.4679 243.962 80.2967 244.375 79.9924 244.679C79.6882 244.984 79.2758 245.155 78.8456 245.155H70.6598C70.4952 245.156 70.3314 245.131 70.1742 245.082C69.9338 245.007 69.7146 244.876 69.5345 244.7L69.3994 242.51C69.506 242.379 69.6323 242.264 69.7737 242.171C70.0374 242 70.3452 241.908 70.6598 241.908H75.8556L76.038 241.925C76.1692 241.937 76.3016 241.932 76.4313 241.908H78.8456C79.276 241.908 79.6888 242.079 79.9931 242.384C80.2975 242.688 80.4685 243.101 80.4685 243.532Z" fill="white"/>
<path d="M106.559 246.838L106.58 247.104C102.441 247.449 98.2748 247.234 94.1937 246.464C90.2678 245.723 86.4562 244.47 82.8569 242.735C82.6718 241.807 82.1711 240.972 81.4398 240.371C80.7086 239.77 79.7919 239.442 78.8458 239.441H77.6612V237.215C77.6598 237.023 77.7074 236.834 77.7994 236.665C77.8913 236.497 78.0247 236.355 78.1868 236.252C78.3489 236.149 78.5345 236.09 78.7261 236.079C78.9176 236.067 79.1088 236.105 79.2817 236.189C80.7033 236.883 82.537 237.701 84.6528 238.509C84.9868 238.637 85.328 238.765 85.6763 238.891L86.0269 239.016C86.2638 239.102 86.5008 239.185 86.7377 239.268C86.9746 239.351 87.2234 239.434 87.4698 239.505C87.965 239.668 88.4696 239.829 88.9837 239.979L89.5666 240.154L90.1565 240.322C90.455 240.408 90.7559 240.488 91.0568 240.559L91.3624 240.64C92.3101 240.887 93.2847 241.111 94.2861 241.313C97.8384 242.068 101.47 242.379 105.099 242.24C105.173 242.233 105.248 242.233 105.322 242.24C105.378 242.249 105.433 242.261 105.488 242.278L105.554 242.302C105.693 242.355 105.819 242.436 105.926 242.539C106.033 242.642 106.118 242.765 106.177 242.901C106.194 242.946 106.21 242.989 106.222 243.034C106.234 243.079 106.236 243.091 106.241 243.122C106.246 243.152 106.253 243.19 106.258 243.228C106.282 243.506 106.308 243.795 106.334 244.101L106.355 244.338C106.395 244.812 106.438 245.305 106.478 245.821C106.492 245.983 106.504 246.148 106.518 246.314C106.518 246.402 106.533 246.487 106.537 246.575L106.559 246.838Z" fill="white"/>
<path d="M106.803 250.413C106.836 250.946 106.864 251.451 106.89 251.937C104.661 252.965 98.5979 255.855 97.8137 262.653H79.5848C79.3479 258.526 78.0898 255.494 76.4456 253.337H78.8456C79.6416 253.338 80.4204 253.106 81.0864 252.67C81.7524 252.234 82.2766 251.612 82.5946 250.882C82.9127 250.152 83.0107 249.345 82.8767 248.56C82.7427 247.775 82.3825 247.047 81.8403 246.464L81.7692 246.388C81.9527 246.2 82.1177 245.996 82.262 245.776C82.7548 246.005 83.2713 246.235 83.8115 246.464C89.7659 248.964 96.1608 250.246 102.618 250.232C103.964 250.232 105.355 250.178 106.781 250.059C106.791 250.178 106.798 250.299 106.803 250.413Z" fill="white"/>
<path d="M39.6775 55.0231C35.928 60.2243 32.782 65.8352 30.3 71.7476C30.2763 71.7974 30.2526 71.8472 30.2313 71.897C29.7701 72.992 29.3318 74.0934 28.9164 75.2011C15.6368 62.506 16.0728 46.1015 17.6839 36.9926C17.7166 36.7714 17.8203 36.5668 17.9792 36.4095C18.1381 36.2522 18.3437 36.1508 18.5652 36.1204C18.6303 36.1104 18.696 36.1057 18.7619 36.1061C18.9676 36.1023 19.1704 36.1563 19.3471 36.2618C19.5238 36.3674 19.6674 36.5204 19.7617 36.7035C25.879 47.8033 33.8799 52.788 39.6775 55.0231Z" fill="white"/>
<path d="M50.5642 43.0936C47.2712 45.9466 44.2566 49.1061 41.5611 52.5296C36.2398 50.6334 28.3099 46.0944 22.3466 35.2742C21.9414 34.5261 21.3122 33.9238 20.5473 33.5518C19.7824 33.1798 18.9203 33.0568 18.082 33.2002C17.2553 33.3297 16.4903 33.7158 15.8951 34.3041C15.2998 34.8923 14.9045 35.6529 14.765 36.4783C13.0071 46.4191 12.5688 64.5136 27.8385 78.2421C27.1917 80.1763 26.6159 82.1246 26.1113 84.0706C7.52939 63.62 7.98191 43.8023 12.0831 30.2066C12.4704 28.8903 13.2058 27.7031 14.2116 26.7702C15.2175 25.8374 16.4564 25.1936 17.7977 24.9067C18.3777 24.7761 18.9705 24.7101 19.5651 24.71C20.6784 24.7109 21.7788 24.9485 22.7933 25.407C23.8079 25.8655 24.7136 26.5344 25.4503 27.3694C32.7215 35.4946 42.5704 40.3133 50.5642 43.0936Z" fill="white"/>
<path d="M131.101 6.65082C140.495 17.6417 149.025 36.0609 139.453 63.0676C138.23 61.3405 136.934 59.6418 135.563 57.9715C144.746 38.8365 136.878 22.0148 131.163 13.4772C130.703 12.7794 130.035 12.244 129.254 11.9463C128.473 11.6486 127.618 11.6037 126.811 11.818C125.982 12.0221 125.239 12.4817 124.687 13.1316C124.134 13.7816 123.799 14.5891 123.731 15.4397C122.646 27.5944 117.447 34.8616 113.38 38.7701C109.693 36.586 105.805 34.7605 101.77 33.3185C107.8 27.5707 114.465 19.436 117.725 9.44535C118.154 8.09647 118.938 6.88837 119.996 5.94848C121.054 5.0086 122.346 4.37177 123.735 4.10517C125.079 3.82795 126.472 3.91808 127.768 4.36606C129.064 4.81405 130.216 5.60332 131.101 6.65082Z" fill="white"/>
<path d="M128.704 15.1244C133.935 22.9463 141.102 38.1538 133.442 55.4899C132.127 54.0013 130.744 52.5342 129.308 51.112L128.988 50.8015C128.77 50.5882 128.552 50.3749 128.33 50.1686C128.216 50.0572 128.093 49.9458 127.979 49.8321C124.278 46.3092 120.26 43.1354 115.976 40.3511C120.352 35.9448 125.572 28.1845 126.685 15.7004C126.702 15.4617 126.794 15.2346 126.949 15.0522C127.104 14.8697 127.313 14.7414 127.545 14.686C127.76 14.6231 127.989 14.632 128.198 14.7111C128.407 14.7902 128.585 14.9353 128.704 15.1244Z" fill="white"/>
<path d="M113.195 85.2082C113.837 85.4784 114.143 86.4431 113.877 87.3651C113.612 88.2872 112.877 88.8134 112.238 88.5503C111.598 88.2872 111.29 87.3154 111.555 86.3957C111.821 85.476 112.555 84.9404 113.195 85.2082Z" fill="white"/>
<path d="M106.615 74.8999C107.878 75.1013 108.805 76.7581 108.684 78.6069C108.563 80.4557 107.442 81.7902 106.18 81.5887C104.917 81.3872 103.99 79.7304 104.109 77.884C104.227 76.0376 105.338 74.7102 106.615 74.8999Z" fill="white"/>
<path d="M59.4535 98.221C60.0458 99.0079 60.105 100.048 59.5885 100.541C59.072 101.034 58.167 100.795 57.5841 100.008C57.0013 99.2212 56.9326 98.183 57.4491 97.6877C57.9656 97.1923 58.8635 97.434 59.4535 98.221Z" fill="white"/>
<path d="M63.5121 87.3298C64.3034 89.0624 64.0215 90.9942 62.8795 91.6484C61.7375 92.3026 60.1738 91.4303 59.3849 89.7C58.5959 87.9697 58.8755 86.0356 60.0175 85.3814C61.1594 84.7272 62.7231 85.5995 63.5121 87.3298Z" fill="white"/>
<path d="M148.039 92.2291C150.389 105.64 146.381 116.643 136.131 124.924C133.346 127.143 130.348 129.08 127.183 130.71C126.88 130.867 126.576 131.025 126.268 131.184L126.133 131.251C124.792 131.924 123.394 132.572 121.937 133.194L121.835 133.237C121.598 133.336 121.362 133.436 121.125 133.533C118.991 134.42 116.735 135.252 114.358 136.031C113.118 136.439 111.847 136.834 110.544 137.216C105.368 138.693 100.115 139.887 94.8095 140.793C90.7582 141.503 86.8765 142.042 83.1647 142.41C81.6642 142.558 80.1929 142.679 78.7509 142.772C77.2235 142.872 75.7293 142.939 74.2683 142.974H73.8465H73.2163C71.2925 142.999 69.4256 142.971 67.6155 142.889C67.4022 142.889 67.1937 142.87 66.9829 142.858C66.6346 142.839 66.2887 142.82 65.9475 142.796C60.1855 142.417 55.049 141.45 50.5475 139.9C38.0901 135.595 30.5867 126.626 28.2435 113.201C27.1063 106.733 27.1987 99.4773 28.4354 92.0371C28.6913 90.5091 28.9946 88.9731 29.3452 87.4293C29.838 85.2582 30.428 83.0823 31.1079 80.9159C31.7397 78.8806 32.4615 76.8572 33.2734 74.8456C33.4456 74.4127 33.6225 73.9797 33.8041 73.5468C33.8302 73.4994 33.8515 73.4519 33.8728 73.4022C36.4158 67.303 39.7024 61.5415 43.6578 56.2486C44.3275 55.3574 45.0153 54.4883 45.7214 53.6414C48.4987 50.2768 51.6193 47.2113 55.0325 44.4946C56.4003 43.4327 57.7997 42.4372 59.2307 41.508C64.571 38.0498 70.3093 35.7104 76.2442 34.6699C81.8948 33.6767 87.7682 33.8474 93.6628 35.1012C95.2423 35.441 96.8218 35.8566 98.4013 36.348C102.479 37.633 106.411 39.341 110.134 41.444C111.058 41.9623 111.979 42.5083 112.899 43.0819C117.34 45.8714 121.489 49.1001 125.285 52.7193L125.33 52.762C125.415 52.8379 125.489 52.9113 125.567 52.999C125.584 53.018 125.605 53.037 125.624 53.0559C125.832 53.2455 126.034 53.4423 126.237 53.6437L126.555 53.9495L126.6 53.9945C128.021 55.4025 129.4 56.8744 130.713 58.37L130.741 58.4032C130.772 58.4412 130.804 58.4776 130.838 58.5122C131.669 59.4603 132.478 60.4306 133.265 61.4229C134.854 63.4187 136.345 65.476 137.723 67.5856C138.614 68.9382 139.457 70.3074 140.251 71.6932C144.161 78.4816 146.873 85.5663 148.039 92.2291ZM120.622 95.5C128.998 91.1862 132.151 80.6267 127.668 71.9136C123.186 63.2006 112.759 59.631 104.384 63.9449C96.0084 68.2587 92.8573 78.8182 97.3399 87.5312C101.822 96.2443 112.247 99.8115 120.622 95.5ZM102.948 113.184C103.572 112.208 103.879 111.062 103.827 109.904C103.763 108.84 103.471 107.802 102.972 106.861C102.511 105.961 101.929 105.13 101.242 104.388C101.123 104.276 100.967 104.212 100.803 104.207C100.64 104.202 100.48 104.257 100.354 104.362C100.229 104.466 100.145 104.613 100.12 104.775C100.095 104.936 100.13 105.102 100.219 105.239L100.247 105.282C101.225 106.647 101.967 108.399 101.846 109.899C101.796 110.618 101.521 111.304 101.06 111.857C100.579 112.423 99.9783 112.875 99.3016 113.18C97.9322 113.746 96.3045 113.805 94.6887 113.469C93.8682 113.305 93.0623 113.074 92.2792 112.779C91.8835 112.627 91.4926 112.469 91.1088 112.293C90.9169 112.206 90.7274 112.116 90.5426 112.021L90.3412 111.916L89.5404 107.887C89.5274 107.828 89.5108 107.769 89.4906 107.712C92.8597 106.206 96.4467 102.054 94.7432 99.9893C92.8004 97.6356 80.7647 98.8705 79.2579 102.549C78.2533 105.002 83.1363 107.944 86.6025 108.238C86.6036 108.317 86.6123 108.397 86.6286 108.475L87.4317 112.504L87.3749 112.585C87.3251 112.663 87.2659 112.744 87.2067 112.822C87.0906 112.981 86.9697 113.144 86.8347 113.296C86.5765 113.614 86.3021 113.919 86.0126 114.208C85.4437 114.789 84.8119 115.304 84.129 115.744C82.8142 116.624 81.2612 117.079 79.6796 117.048C78.0875 117.005 76.8484 116.401 76.1779 115.002C75.5074 113.604 75.4031 111.739 75.6353 110.07V110.008C75.6774 109.788 75.6304 109.561 75.5047 109.375C75.3789 109.19 75.1848 109.062 74.9648 109.02C74.7449 108.978 74.5173 109.025 74.332 109.151C74.1467 109.276 74.019 109.471 73.9769 109.691C73.7247 110.683 73.5919 111.701 73.5812 112.725C73.557 113.796 73.7263 114.863 74.0811 115.875C74.4803 116.994 75.2098 117.966 76.1731 118.662C77.1342 119.314 78.2376 119.725 79.3906 119.861C79.9818 119.948 80.58 119.978 81.177 119.952C81.5643 119.935 81.9504 119.895 82.3331 119.833C82.7177 119.774 83.0989 119.695 83.4751 119.596C84.2687 119.383 85.0381 119.088 85.7709 118.717C86.7279 118.231 87.6282 117.642 88.4553 116.958C88.8679 116.622 89.2633 116.265 89.6399 115.889L89.7133 115.815H89.737C90.2227 115.974 90.7131 116.107 91.2083 116.233C92.2062 116.48 93.2229 116.644 94.248 116.723C95.4927 116.836 96.7474 116.756 97.9677 116.486C98.3484 116.399 98.7235 116.288 99.0907 116.154C99.4584 116.02 99.8169 115.861 100.164 115.68C100.285 115.619 100.401 115.552 100.527 115.484C101.497 114.911 102.325 114.125 102.948 113.184ZM72.6975 92.1438C72.6975 82.3428 65.0591 74.3977 55.639 74.3977C46.2189 74.3977 38.5805 82.3428 38.5805 92.1438C38.5805 101.945 46.2165 109.89 55.639 109.89C65.0614 109.89 72.6975 101.945 72.6975 92.1438Z" fill="white"/>
<path d="M113.567 140.416C113.545 141.838 112.302 143.557 110.06 145.221C107.156 147.373 103.012 149.124 98.3942 150.151C88.6259 152.324 81.0443 150.371 80.3525 147.261C80.3048 147.049 80.2881 146.831 80.3027 146.614C85.0839 146.259 90.1461 145.613 95.4895 144.678C101.598 143.635 107.636 142.212 113.567 140.416Z" fill="white"/>
<path d="M26.6681 152.17C28.1987 156.859 32.0108 171.606 21.598 177.454C19.422 176.775 17.2862 175.973 15.201 175.053C15.3377 174.737 15.4401 174.408 15.5067 174.071C15.8336 172.412 15.2982 170.594 13.9193 168.667C14.4097 166.643 13.6824 164.439 12.8365 162.877C13.3453 162.749 13.8221 162.518 14.2369 162.197C14.6516 161.876 14.9952 161.472 15.2461 161.011C15.6964 160.146 15.9229 159.182 15.9047 158.207C15.9001 157.33 15.7976 156.455 15.5991 155.6C15.5691 155.445 15.4805 155.307 15.3517 155.216C15.223 155.124 15.0639 155.086 14.9077 155.109C14.7514 155.132 14.61 155.214 14.5128 155.339C14.4157 155.463 14.3703 155.621 14.386 155.778V155.79C14.4576 156.559 14.4433 157.334 14.3434 158.101C14.2669 158.782 14.0227 159.433 13.6326 159.997C13.4807 160.212 13.2801 160.389 13.0471 160.513C12.8141 160.636 12.5553 160.703 12.2916 160.708C11.735 160.702 11.1959 160.512 10.7587 160.167C10.2954 159.822 9.94236 159.349 9.74232 158.807L9.67835 158.615L9.60728 158.354C9.56226 158.181 9.50303 158.013 9.47223 157.835C9.39168 157.487 9.33718 157.124 9.2898 156.783C9.2085 156.081 9.20294 155.372 9.27321 154.668C9.30725 154.324 9.35865 153.981 9.42721 153.642C9.46512 153.476 9.50303 153.313 9.54804 153.154L9.60491 152.971C9.6286 152.917 9.64992 152.86 9.66888 152.803C11.0099 148.653 15.355 149.286 24.9149 151.718C25.493 151.869 26.0758 152.019 26.6681 152.17Z" fill="white"/>
<path d="M45.3851 180.533C38.6377 180.878 31.877 180.197 25.3342 178.511C33.9132 171.699 31.6861 158.989 29.9969 152.959C33.7095 153.791 37.7135 154.462 41.6061 154.301C41.3763 159.459 41.265 172.287 45.3851 180.533Z" fill="white"/>
<path d="M62.8557 148.402L63.9764 176.608C59.0323 178.485 53.8678 179.72 48.6095 180.282C44.1269 172.728 44.3639 158.824 44.6008 154.019C49.28 153.315 55.2671 151.471 62.8557 148.402Z" fill="white"/>
<path d="M154.725 135.083C151.212 143.616 152.538 153.317 153.431 157.655C150.367 157.847 147.317 158.219 144.296 158.769C137.247 145.467 132.191 138.167 129.415 134.592C135.402 134.41 144.658 134.355 154.725 135.083Z" fill="white"/>
<path d="M173.764 137.489C165.721 144.178 167.213 153.244 168.716 157.873C164.633 157.504 160.531 157.386 156.433 157.52C155.614 153.642 154.064 143.564 157.855 135.344C163.191 135.787 168.501 136.503 173.764 137.489Z" fill="white"/>
<path d="M193.637 147.75C194.187 148.956 194.459 150.269 194.434 151.594C193.892 150.755 193.29 149.955 192.633 149.203C191.886 148.345 191.063 147.556 190.174 146.847C189.866 146.612 189.478 146.508 189.094 146.556C188.709 146.604 188.359 146.8 188.118 147.104C187.877 147.407 187.764 147.792 187.804 148.178C187.844 148.563 188.033 148.917 188.33 149.165C191.159 151.417 192.695 154.311 193.37 155.873C193.201 156.301 193.195 156.776 193.351 157.21C193.351 157.21 193.737 158.418 193.23 159.343C192.981 159.761 192.61 160.092 192.166 160.291C191.547 159.213 190.848 158.183 190.077 157.21C189.081 155.952 187.947 154.811 186.696 153.808C186.545 153.678 186.369 153.58 186.179 153.52C185.989 153.46 185.789 153.438 185.591 153.457C185.392 153.476 185.2 153.535 185.025 153.63C184.849 153.725 184.695 153.854 184.571 154.011C184.447 154.167 184.356 154.346 184.303 154.538C184.25 154.73 184.237 154.931 184.263 155.129C184.29 155.326 184.356 155.516 184.457 155.688C184.559 155.859 184.694 156.008 184.855 156.126C187.342 158.108 188.98 160.661 189.769 162.088C189.715 162.298 189.696 162.516 189.712 162.732C189.747 163.206 189.712 164.335 188.515 164.436C187.489 164.512 184.251 161.936 181.232 158.098C180.928 157.712 180.491 157.452 180.007 157.371C179.522 157.29 179.024 157.393 178.611 157.659C178.198 157.926 177.899 158.337 177.773 158.812C177.647 159.288 177.703 159.793 177.929 160.229C177.946 160.265 179.647 163.74 177.929 164.666C177.865 164.7 177.794 164.717 177.721 164.717C177.648 164.717 177.577 164.7 177.512 164.666C176.055 164.204 173.959 161.149 172.99 159.231C172.784 158.817 172.439 158.488 172.016 158.302C170.594 154.934 167.514 144.792 177.676 138.295C186.186 140.265 191.707 143.531 193.637 147.75Z" fill="white"/>
<path d="M221.623 167.624C222.334 172.078 223.307 183.891 215.648 192.986L215.148 192.749C211.042 190.884 208.04 189.969 205.434 189.782C205.121 189.76 204.744 189.739 204.349 189.732C208.163 178.855 204.188 170.654 202.089 167.373C206.855 166.615 212.151 166.525 217.837 167.108C218.898 167.217 219.969 167.357 221.012 167.518L221.623 167.624Z" fill="white"/>
<path d="M195.028 192.124C194.879 192.209 194.732 192.297 194.583 192.387C191.486 194.283 188.939 196.983 186.236 200.071C185.599 195.743 183.436 192.334 180.969 189.758C178.888 187.63 176.491 185.838 173.861 184.444C177.292 180.241 180.604 177.075 184.267 174.489C184.324 174.449 184.378 174.403 184.431 174.358L184.973 173.986C192.294 178.523 194.455 188.348 195.028 192.124Z" fill="white"/>
<path d="M176.69 209.703L176.596 209.772C176.25 210.022 175.901 210.259 175.551 210.483C174.873 210.27 174.197 210.063 173.523 209.862C171.274 209.189 169 208.568 166.744 208.011C164.231 206.589 161.328 204.178 158.76 200.049C160.806 199.005 162.697 197.682 164.38 196.117C164.425 196.082 164.47 196.046 164.513 196.006C164.676 195.856 164.837 195.702 164.986 195.548C172.897 199.599 175.797 206.79 176.69 209.703Z" fill="white"/>
<path d="M162.529 210.005L151.97 222.899C151.547 223.416 151.237 224.017 151.061 224.661C150.885 225.306 150.847 225.981 150.949 226.641C151.052 227.302 151.292 227.934 151.654 228.495C152.016 229.057 152.493 229.536 153.052 229.901L156.407 232.062L156.452 232.091L156.675 232.235L154.929 234.776L150.115 231.676C149.123 231.062 147.941 230.833 146.793 231.033C145.644 231.233 144.609 231.848 143.884 232.762L142.557 234.421C142.496 234.494 142.444 234.573 142.4 234.658C128.607 231.65 122.672 225.295 120.712 222.612C124.511 221.615 128.148 220.084 131.516 218.064C133.572 216.833 135.473 215.361 137.179 213.679C138.016 212.83 138.787 211.919 139.486 210.953C140.21 209.982 140.807 208.924 141.263 207.803C141.303 207.698 141.303 207.583 141.263 207.479C141.223 207.374 141.146 207.288 141.046 207.237C140.947 207.186 140.833 207.173 140.724 207.201C140.616 207.228 140.522 207.295 140.46 207.388L140.434 207.431C139.815 208.35 139.112 209.208 138.332 209.995C137.557 210.796 136.731 211.547 135.859 212.242C134.112 213.627 132.236 214.841 130.258 215.869C126.327 217.863 122.157 219.348 117.85 220.287C117.752 220.302 117.654 220.324 117.559 220.353C113.206 221.323 108.749 221.746 104.291 221.612L102.611 221.522C102.05 221.491 101.493 221.408 100.932 221.365C100.37 221.323 99.8134 221.233 99.2543 221.154L98.4179 221.031L97.5863 220.872C95.3488 220.482 93.1541 219.876 91.033 219.064H91.0141C90.9593 219.043 90.8991 219.041 90.8432 219.059C90.7873 219.077 90.739 219.113 90.7061 219.161C90.6869 219.189 90.6734 219.22 90.6664 219.254C90.6595 219.287 90.6592 219.321 90.6656 219.354C90.672 219.388 90.6849 219.419 90.7037 219.448C90.7224 219.476 90.7466 219.5 90.7748 219.519C92.7389 220.865 94.928 221.764 97.1717 222.513C99.4331 223.223 101.757 223.717 104.111 223.989C107.051 224.315 110.017 224.334 112.96 224.044C108.3 228.872 106.374 234.577 105.646 239.292C105.414 239.265 105.181 239.258 104.948 239.27C95.0797 239.744 85.4345 235.874 80.5634 233.518C79.9396 233.216 79.2494 233.078 78.5575 233.116C77.8657 233.155 77.195 233.368 76.6085 233.737C76.0219 234.106 75.5387 234.618 75.2044 235.226C74.8701 235.833 74.6955 236.515 74.6971 237.208V238.82L73.3206 238.692C71.6408 224.669 70.5131 207.03 70.1648 201.173C73.1305 201.554 76.1187 201.733 79.1087 201.709H79.7555C85.7852 201.709 94.3642 201.097 105.857 199.002L105.964 198.983L106.175 198.945L107.447 198.708L107.876 198.627L108.35 198.537L108.987 198.417L109.627 198.293C131.751 193.96 143.822 185.046 148.665 180.623C148.684 180.765 148.703 180.907 148.719 181.052C149.181 185.037 150.014 188.971 151.207 192.801C151.804 194.692 152.522 196.541 153.358 198.338C153.417 198.459 153.474 198.575 153.531 198.701C153.73 199.118 153.936 199.526 154.145 199.922L154.171 199.969L154.358 200.322C154.505 200.592 154.652 200.856 154.799 201.114L155.014 201.481C157.343 205.444 159.997 208.149 162.529 210.005Z" fill="white"/>
<path d="M142.344 161.414C144.843 166.833 146.62 171.964 147.634 176.679C145.303 179.191 133.708 190.457 108.985 195.389C107.944 195.595 106.927 195.791 105.935 195.977L105.836 195.994L105.194 196.11L103.649 196.38C102.217 196.627 100.832 196.85 99.4959 197.049L98.5648 197.186C96.5715 197.475 94.6872 197.719 92.9118 197.916L92.6275 197.947L91.431 198.075L91.0638 198.113L90.5118 198.167L90.0592 198.21L89.6115 198.25L88.1567 198.376L87.8701 198.397C87.3046 198.443 86.7518 198.483 86.2116 198.516L85.5269 198.561C84.9599 198.594 84.407 198.623 83.8684 198.649C83.4301 198.668 83.0037 198.686 82.5843 198.701L81.9375 198.72H81.6248H81.3642H81.1557H81.004H80.5112H80.3643H79.239H79.1774C74.2304 198.696 71.2309 198.246 69.8899 197.99C68.0988 192.455 67.0587 178.94 67.009 178.279L65.7722 147.193C66.0826 147.062 66.3859 146.93 66.6844 146.799C68.3413 146.889 70.0432 146.934 71.7901 146.934C73.5907 146.934 75.4395 146.886 77.3365 146.79C77.3426 147.165 77.3886 147.538 77.4739 147.904C78.3434 151.812 83.4443 154.05 90.4051 154.05C93.3094 154.027 96.2026 153.69 99.0339 153.043C104.047 151.926 108.587 149.994 111.828 147.591C115.287 145.026 116.922 142.156 116.457 139.478C119.837 138.347 123.148 137.023 126.375 135.51C128.858 138.612 134.369 146.211 142.344 161.414Z" fill="white"/>
<path d="M257.275 187.013C259.644 192.287 259.571 197.316 257.076 201.18C253.345 206.947 247.756 209.161 240.463 207.765C234.374 206.598 227.866 203.185 221.571 199.883C218.799 198.43 216.181 197.058 213.676 195.916C210.014 194.256 207.303 193.403 205.147 193.251C204.733 193.223 204.2 193.192 203.681 193.204C201.082 193.217 198.538 193.956 196.336 195.337C193.479 197.087 191.124 199.67 188.335 202.865C188.305 202.91 188.271 202.953 188.236 202.993L187.859 203.429C185.352 206.326 182.767 209.312 179.567 211.818C180.064 211.988 180.562 212.159 181.057 212.334L181.149 212.363C183.9 213.335 186.598 214.361 189.164 215.411C190.462 215.935 191.57 216.84 192.341 218.008C193.113 219.176 193.511 220.551 193.483 221.951C195.618 221.86 197.735 222.375 199.589 223.437C203.531 225.634 205.735 229.644 204.832 232.972C204.832 233.001 204.818 233.027 204.808 233.055V233.088C204.783 233.17 204.75 233.25 204.709 233.325L201.709 238.955C200.544 241.062 198.236 242.171 195.583 242.171C193.646 242.142 191.748 241.623 190.065 240.664C189.428 240.312 188.823 239.905 188.257 239.448C187.662 240.87 187.051 242.223 186.435 243.513C188.62 243.493 190.771 244.053 192.668 245.136C196.914 247.507 199.29 251.809 198.321 255.381C198.321 255.411 198.305 255.442 198.295 255.471L198.281 255.509C198.255 255.584 198.224 255.658 198.186 255.729L194.914 261.868C193.668 264.12 191.197 265.302 188.354 265.302C186.265 265.271 184.217 264.712 182.4 263.679C180.045 262.37 178.235 260.481 177.276 258.367C176.977 258.742 176.692 259.092 176.42 259.419C175.772 260.197 174.959 260.822 174.042 261.25C173.124 261.677 172.123 261.897 171.111 261.894C170.289 261.895 169.473 261.75 168.701 261.467C167.19 260.932 165.767 260.177 164.477 259.225C164.298 259.093 164.152 258.921 164.05 258.723L163.847 258.559C163.778 258.502 163.712 258.448 163.648 258.391L163.43 258.204C163.235 258.03 163.046 257.853 162.866 257.675C162.745 257.556 162.629 257.438 162.518 257.315C162.345 257.135 162.184 256.95 162.027 256.765C161.923 256.642 161.823 256.528 161.726 256.395L161.582 256.205C161.489 256.082 161.397 255.957 161.309 255.831C161.132 255.58 160.966 255.324 160.812 255.068C160.736 254.942 160.662 254.816 160.591 254.688C160.52 254.563 160.452 254.437 160.385 254.309C160.319 254.181 160.255 254.056 160.196 253.93C160.136 253.804 160.073 253.674 160.016 253.546C159.959 253.418 159.9 253.278 159.845 253.143C159.762 252.944 159.686 252.745 159.608 252.546C159.569 252.435 159.531 252.324 159.494 252.212C159.445 252.062 159.397 251.915 159.355 251.768L159.326 251.673C159.269 251.472 159.215 251.275 159.167 251.079C159.141 250.974 159.118 250.87 159.094 250.766C159.07 250.661 159.049 250.562 159.028 250.46L158.992 250.28C158.992 250.223 158.973 250.168 158.961 250.111C158.831 249.385 158.752 248.65 158.724 247.912C158.723 247.893 158.723 247.874 158.724 247.855V247.777C158.724 247.54 158.713 247.303 158.724 247.118C158.587 246.999 158.458 246.873 158.336 246.739L154.822 244.437C154.531 244.325 154.253 244.182 153.993 244.01C153.738 243.841 153.502 243.645 153.289 243.425L147.366 239.543C128.448 237.101 120.39 228.959 117.573 225.105C110.904 230.69 109.402 238.431 109.193 243.356C109.321 244.778 109.463 246.532 109.594 248.334C109.594 248.353 109.594 248.372 109.594 248.391C109.7 250.05 109.781 251.415 109.845 252.709V252.726L109.859 253.07C109.859 253.107 109.859 253.143 109.859 253.179C109.859 253.326 109.871 253.472 109.878 253.617C109.885 253.762 109.89 253.928 109.897 254.091C109.897 254.21 109.897 254.328 109.897 254.449V254.608C109.897 254.861 109.913 255.108 109.921 255.354C109.935 255.8 109.947 256.236 109.956 256.66C109.956 256.793 109.956 256.924 109.956 257.054V257.08V257.445C109.956 257.511 109.956 257.578 109.956 257.642C109.956 257.706 109.956 257.772 109.956 257.836C109.956 258.095 109.956 258.35 109.956 258.602C109.956 258.723 109.956 258.839 109.956 258.964C109.956 259.14 109.956 259.313 109.956 259.486C109.956 260.017 109.951 260.53 109.94 261.026V261.05C109.94 261.365 109.925 261.674 109.916 261.972V261.994C109.916 262.077 109.916 262.159 109.916 262.231V262.323C109.916 262.359 109.916 262.394 109.916 262.43C109.916 262.465 109.916 262.539 109.916 262.591V262.733C109.916 262.769 109.916 262.802 109.916 262.837C109.916 262.873 109.916 262.97 109.916 263.034C109.916 263.098 109.916 263.164 109.916 263.228C109.916 263.404 109.897 263.577 109.887 263.748C109.889 263.755 109.889 263.762 109.887 263.769C109.887 263.826 109.887 263.883 109.876 263.937C109.864 263.992 109.876 264.051 109.876 264.108V264.153C109.876 264.2 109.876 264.248 109.876 264.293C109.876 264.406 109.857 264.53 109.842 264.636L109.812 264.873C109.812 264.937 109.79 265.001 109.778 265.065C109.767 265.129 109.759 265.17 109.748 265.224C109.749 265.234 109.749 265.245 109.748 265.255V265.274C109.71 265.447 109.667 265.62 109.617 265.788V265.8L109.601 265.85C109.596 265.867 109.591 265.884 109.584 265.9L109.57 265.952C109.551 266.002 109.537 266.051 109.518 266.101C109.144 267.175 108.515 268.141 107.684 268.917L107.613 268.981L107.542 269.045L107.397 269.171L107.376 269.187L107.26 269.282L107.156 269.363L107.059 269.434L106.959 269.507L106.774 269.633H106.76L106.66 269.697L106.516 269.785L106.48 269.804L106.334 269.889L106.194 269.965H106.172H106.146L105.995 270.043L105.855 270.107C105.824 270.124 105.789 270.138 105.755 270.152L105.663 270.192L105.625 270.209L105.514 270.254L105.41 270.294L105.256 270.351L105.102 270.403L104.969 270.444L104.867 270.474H104.834C104.725 270.505 104.616 270.534 104.504 270.557L104.441 270.572L104.377 270.586H104.358L104.196 270.617C105.63 272.01 106.617 273.798 107.032 275.753C107.447 277.709 107.271 279.744 106.526 281.6C105.782 283.455 104.503 285.047 102.851 286.173C101.2 287.299 99.2515 287.909 97.2531 287.924C95.2547 287.939 93.297 287.359 91.629 286.258C89.961 285.157 88.658 283.584 87.8857 281.74C87.1135 279.896 86.9069 277.864 87.2923 275.902C87.6776 273.94 88.6375 272.138 90.0498 270.723H80.6013C82.0105 272.133 82.9701 273.93 83.3587 275.886C83.7474 277.842 83.5476 279.869 82.7847 281.711C82.0217 283.553 80.7299 285.128 79.0725 286.236C77.4152 287.344 75.4667 287.935 73.4734 287.935C71.4802 287.935 69.5317 287.344 67.8743 286.236C66.2169 285.128 64.9251 283.553 64.1622 281.711C63.3993 279.869 63.1995 277.842 63.5881 275.886C63.9768 273.93 64.9364 272.133 66.3456 270.723H62.5169C61.3458 270.721 60.2146 270.297 59.3304 269.529C58.4463 268.761 57.8684 267.7 57.7026 266.54C57.5936 265.691 57.5226 264.907 57.487 264.127C57.4881 264.122 57.4881 264.117 57.487 264.113V264.058C57.4859 264.04 57.4859 264.022 57.487 264.004C57.487 263.854 57.487 263.705 57.4752 263.556C57.4752 263.354 57.4752 263.153 57.4752 262.956C57.4752 262.901 57.4752 262.849 57.4752 262.795C57.4752 262.683 57.4752 262.574 57.4752 262.465C57.4752 262.401 57.4752 262.337 57.4752 262.276C57.4752 262.214 57.4752 262.138 57.4752 262.069C57.4752 262.001 57.4752 261.873 57.4918 261.776C57.5083 261.678 57.4918 261.624 57.5083 261.538C57.5083 261.515 57.5083 261.489 57.5083 261.465C57.5083 261.365 57.5226 261.266 57.532 261.169C57.5415 261.072 57.551 260.958 57.5628 260.856C57.5747 260.754 57.5842 260.666 57.596 260.574C57.5948 260.553 57.5948 260.533 57.596 260.512C57.596 260.432 57.6173 260.353 57.6268 260.275C57.6268 260.247 57.6268 260.218 57.6268 260.192C57.6268 260.119 57.6481 260.05 57.66 259.979C57.66 259.946 57.66 259.912 57.6742 259.882C57.6884 259.799 57.7026 259.718 57.7145 259.645C57.7263 259.571 57.75 259.446 57.769 259.348C57.7879 259.251 57.8092 259.152 57.8282 259.054C57.8685 258.86 57.9135 258.668 57.9609 258.481C57.9846 258.384 58.0083 258.291 58.0343 258.199C58.1338 257.824 58.2468 257.459 58.3731 257.104L58.4679 256.841C58.501 256.753 58.5342 256.665 58.5698 256.58C58.6053 256.495 58.6385 256.407 58.674 256.322L58.7664 256.108C58.7664 256.082 58.7877 256.058 58.7996 256.032C58.8304 255.964 58.8635 255.893 58.8967 255.824C58.9299 255.75 58.9654 255.677 59.0033 255.606C59.0085 255.591 59.0157 255.576 59.0247 255.563C59.0602 255.487 59.0981 255.414 59.136 255.34L59.2639 255.103C59.3066 255.023 59.3516 254.944 59.3966 254.866L59.5317 254.629L59.6738 254.392C59.7686 254.243 59.8657 254.096 59.9676 253.951C60.0182 253.879 60.0703 253.805 60.124 253.731C60.1761 253.66 60.2282 253.589 60.2827 253.52C60.3372 253.451 60.3538 253.427 60.3917 253.382C60.4675 253.283 60.5465 253.186 60.6286 253.091C60.676 253.034 60.7234 252.977 60.7732 252.923L60.7921 252.901C60.8347 252.851 60.8798 252.802 60.9248 252.754C60.9698 252.707 61.0219 252.645 61.0717 252.593L61.1878 252.472L61.2849 252.375C61.3133 252.344 61.3394 252.316 61.3678 252.29L61.4887 252.174L61.5455 252.117L61.709 251.965C61.7137 251.964 61.7185 251.964 61.7232 251.965L61.8796 251.823C61.908 251.797 61.9341 251.773 61.9625 251.752L62.0952 251.638L62.1686 251.576L62.3084 251.463L62.5027 251.311C62.5596 251.266 62.614 251.223 62.6733 251.183C62.7799 251.102 62.8865 251.024 62.9979 250.946C63.1092 250.868 63.2751 250.756 63.4172 250.666C63.5144 250.602 63.6115 250.543 63.711 250.484L63.9195 250.36L63.9716 250.33L64.1896 250.209L64.4526 250.071C64.5331 250.029 64.616 249.986 64.7013 249.946L64.7345 249.929L64.988 249.806C65.0733 249.768 65.1562 249.727 65.2415 249.692L65.2865 249.671L65.5235 249.566H65.5472L65.8149 249.457H65.8315L66.0684 249.367L66.13 249.344L66.3669 249.261L66.4356 249.237L66.4854 249.218V249.199C66.4852 248.77 66.5532 248.343 66.6868 247.936L65.9949 236.077C65.9376 235.14 66.0894 234.202 66.4394 233.331C66.7893 232.46 67.3287 231.677 68.0183 231.04L68.4376 230.652C67.0564 216.587 66.2082 202.012 66.0684 199.713C64.4455 195.316 63.4054 185.745 62.9884 181.125C45.9962 186.849 30.5891 184.408 20.4677 181.241C17.5759 180.362 14.7567 179.258 12.0356 177.942C7.17395 178.032 4.15318 176.994 2.82404 174.733C2.48163 174.134 2.2647 173.472 2.18649 172.787C2.10828 172.102 2.17043 171.409 2.36914 170.748C0.824403 169.12 0.0259708 167.378 -9.07684e-05 165.55C-0.00938977 164.182 0.40437 162.844 1.18453 161.72C-0.0924908 158.541 -0.109076 155.877 1.13951 153.792C2.47813 151.552 4.83315 150.71 6.32577 150.407C9.40577 143.716 17.7526 145.839 25.8412 147.897C26.5519 148.079 27.2959 148.266 28.0351 148.449C32.7167 149.603 38.1209 150.788 42.9612 150.238C46.8444 149.798 51.9027 148.38 58.3423 145.918C55.2434 145.418 52.1921 144.659 49.2208 143.647C35.3039 138.84 26.9263 128.83 24.3154 113.9C22.9673 106.223 23.2374 97.5312 25.0024 88.7138C3.29315 66.2486 3.71961 44.1246 8.25195 29.0688C8.83745 27.0786 9.949 25.2833 11.4694 23.8725C12.9897 22.4616 14.8625 21.4874 16.8902 21.0526C18.9529 20.5789 21.1052 20.6708 23.1201 21.3187C25.1349 21.9665 26.9377 23.1463 28.3383 24.7336C35.7611 33.0295 46.3445 37.6538 54.2435 40.1402C60.7897 35.3286 67.9851 32.1098 75.5098 30.792C82.5985 29.5499 89.9811 29.9766 97.3304 31.9534C103.393 26.4734 110.643 18.2723 113.929 8.22004C114.573 6.20132 115.749 4.3937 117.333 2.98784C118.918 1.58198 120.852 0.629993 122.932 0.232283C124.963 -0.187138 127.069 -0.0507242 129.029 0.627146C130.989 1.30502 132.73 2.49924 134.068 4.08394C144.478 16.267 153.943 36.8835 142.123 67.1327C147.099 75.0896 150.477 83.4685 151.894 91.5581C154.5 106.491 150.029 118.752 138.576 128.006C137.498 128.881 136.355 129.726 135.148 130.542C146.532 130.463 163.579 131.054 178.432 134.448C188.425 136.73 194.749 140.679 197.224 146.19C199.307 150.819 197.971 155.09 197.267 156.776C197.58 158.268 197.379 159.822 196.699 161.187C196.225 162.094 195.291 163.244 193.517 164.031C193.373 164.823 193.07 165.577 192.626 166.247C195.226 165.31 197.903 164.602 200.627 164.131C205.92 163.182 211.819 163.045 218.159 163.694C219.28 163.811 220.405 163.955 221.507 164.126C241.721 167.231 253.411 178.39 257.275 187.013ZM215.6 192.988C223.26 183.891 222.296 172.078 221.578 167.627L220.964 167.529C219.917 167.368 218.851 167.228 217.789 167.119C212.103 166.536 206.808 166.626 202.039 167.385C204.14 170.665 208.116 178.866 204.301 189.744C204.697 189.744 205.074 189.772 205.387 189.793C207.993 189.981 210.997 190.895 215.1 192.761L215.6 192.988ZM202.015 232.074C202.46 230.088 200.83 227.511 198.163 226.027C196.915 225.322 195.511 224.939 194.078 224.913C193.706 224.912 193.335 224.945 192.969 225.013C192.023 228.914 190.837 232.752 189.415 236.506C190.03 237.121 190.728 237.647 191.489 238.068C194.526 239.744 198.011 239.502 199.099 237.535L202.015 232.074ZM195.493 254.475C196.002 252.249 194.194 249.37 191.228 247.718C189.852 246.941 188.305 246.519 186.726 246.49C186.069 246.482 185.415 246.581 184.788 246.781C183.212 249.762 181.446 252.639 179.503 255.395C179.526 255.704 179.582 256.01 179.668 256.307C180.19 258.135 181.746 259.92 183.838 261.081C187.212 262.944 191.095 262.655 192.318 260.448L195.493 254.475ZM194.545 192.386C194.692 192.296 194.841 192.209 194.99 192.123C194.415 188.347 192.256 178.523 184.947 173.991L184.405 174.363C184.352 174.408 184.298 174.453 184.241 174.493C180.578 177.075 177.266 180.241 173.835 184.448C176.459 185.843 178.852 187.636 180.929 189.762C183.395 192.339 185.558 195.747 186.196 200.075C188.897 196.982 191.434 194.283 194.54 192.386H194.545ZM194.393 151.594C194.422 150.269 194.15 148.955 193.597 147.75C191.669 143.531 186.146 140.264 177.626 138.307C167.46 144.813 170.556 154.946 171.964 158.314C172.388 158.499 172.734 158.828 172.94 159.243C173.902 161.161 176.006 164.221 177.463 164.678C177.527 164.711 177.599 164.729 177.671 164.729C177.744 164.729 177.815 164.711 177.88 164.678C179.607 163.751 177.908 160.277 177.88 160.241C177.651 159.804 177.593 159.298 177.718 158.821C177.844 158.344 178.143 157.932 178.557 157.664C178.971 157.397 179.47 157.294 179.955 157.376C180.441 157.458 180.879 157.719 181.182 158.108C184.208 161.945 187.44 164.522 188.465 164.446C189.65 164.344 189.697 163.22 189.65 162.742C189.634 162.525 189.653 162.307 189.707 162.097C188.918 160.675 187.281 158.117 184.791 156.136C184.493 155.888 184.304 155.534 184.264 155.148C184.225 154.763 184.338 154.377 184.579 154.074C184.82 153.771 185.17 153.575 185.554 153.527C185.938 153.479 186.326 153.583 186.634 153.818C187.887 154.826 189.022 155.972 190.017 157.235C190.788 158.21 191.487 159.24 192.107 160.317C192.55 160.117 192.922 159.786 193.171 159.369C193.678 158.432 193.294 157.235 193.289 157.235C193.134 156.802 193.141 156.327 193.311 155.899C192.635 154.337 191.1 151.443 188.271 149.191C187.973 148.943 187.785 148.589 187.745 148.203C187.705 147.818 187.818 147.433 188.059 147.13C188.3 146.826 188.65 146.63 189.034 146.582C189.419 146.534 189.806 146.638 190.114 146.873C191.003 147.582 191.827 148.371 192.574 149.229C193.236 149.972 193.842 150.762 194.389 151.594H194.393ZM190.439 222.702C190.495 222.462 190.527 222.218 190.534 221.972C190.519 221.19 190.278 220.429 189.839 219.782C189.399 219.135 188.781 218.63 188.06 218.329C185.928 217.452 183.675 216.589 181.374 215.759C180.808 217.293 180.469 220.474 184.826 224.245C185.006 224.401 185.146 224.598 185.234 224.82C185.321 225.041 185.354 225.281 185.329 225.518C185.295 225.861 184.923 229.192 183.528 233.828C183.255 234.733 182.945 235.686 182.58 236.672C180.211 243.283 175.894 251.555 168.107 257.805L168.344 257.921L168.58 258.033L168.744 258.106C169.054 258.244 169.379 258.372 169.713 258.495C169.91 258.568 170.112 258.625 170.317 258.666H170.374H170.431C170.516 258.68 170.601 258.694 170.687 258.701C170.831 258.717 170.975 258.724 171.12 258.723H171.272H171.4H171.478H171.523H171.608L171.753 258.701L171.964 258.661L172.118 258.623L172.274 258.58L172.376 258.55C172.75 258.425 173.102 258.245 173.423 258.016C173.48 257.976 173.537 257.931 173.594 257.886L173.738 257.763L173.843 257.665C173.946 257.566 174.044 257.46 174.136 257.35C174.409 257.018 174.698 256.665 174.996 256.288C175.096 256.165 175.195 256.035 175.297 255.904L175.473 255.667C175.584 255.528 175.693 255.383 175.804 255.236C176.001 254.975 176.205 254.705 176.408 254.425L176.579 254.188L176.719 253.994C176.979 253.631 177.246 253.254 177.517 252.863L177.678 252.626L178.008 252.152L178.339 251.654C178.451 251.484 178.562 251.316 178.673 251.143L178.842 250.879L179.012 250.616L179.183 250.348C179.223 250.28 179.268 250.213 179.311 250.145C179.609 249.671 179.91 249.173 180.216 248.661L180.389 248.367L180.519 248.147C180.652 247.91 180.782 247.694 180.912 247.466C181.088 247.158 181.263 246.848 181.438 246.518C181.498 246.414 181.557 246.307 181.614 246.198C181.91 245.66 182.206 245.108 182.502 244.539C183.253 243.096 184.002 241.55 184.736 239.903C185.171 238.931 185.587 237.947 185.985 236.952C186.091 236.691 186.196 236.433 186.298 236.17C186.743 235.032 187.167 233.881 187.57 232.716C187.807 232.057 188.02 231.394 188.231 230.725C189.066 228.123 189.794 225.467 190.413 222.759L190.427 222.695L190.439 222.702ZM182.265 171.642C184.023 170.405 185.867 169.296 187.783 168.324C185.978 168.03 184.025 166.679 182.298 165.114C182.094 165.763 181.764 166.365 181.326 166.885C180.888 167.406 180.351 167.834 179.747 168.146C179.218 168.43 178.637 168.603 178.039 168.654C177.442 168.705 176.84 168.633 176.271 168.442C173.364 167.52 170.98 163.846 169.919 161.959C166.886 161.62 157.26 160.774 147.203 162.282C149.435 167.371 151.027 172.213 151.941 176.712C152.204 177.944 152.415 179.25 152.59 180.571C153.021 184.313 153.8 188.007 154.917 191.604C155.499 193.46 156.211 195.272 157.049 197.027C158.897 196.091 160.601 194.894 162.108 193.472C162.148 193.434 162.191 193.398 162.236 193.365C163.791 191.886 165.198 190.257 166.434 188.502C168.059 186.202 169.485 184.306 170.912 182.536C170.951 182.486 170.994 182.439 171.04 182.396C174.615 177.994 178.233 174.522 182.083 171.782C182.139 171.732 182.198 171.685 182.26 171.642H182.265ZM180.664 232.913C181.366 230.63 181.909 228.301 182.286 225.942C177.28 221.254 177.854 216.885 178.683 214.638C177.972 214.401 177.261 214.164 176.532 213.927C175.316 214.655 174.043 215.281 172.724 215.8L163.408 229.36L163.615 229.488C164.096 229.808 164.507 230.223 164.823 230.708C165.139 231.192 165.352 231.736 165.451 232.306C166.015 232.173 166.601 232.158 167.171 232.261C167.742 232.363 168.285 232.582 168.768 232.903C169.166 233.167 169.516 233.496 169.803 233.878C173.165 232.391 176.809 232.072 180.659 232.913H180.664ZM179.716 235.743C176.484 235.098 173.44 235.43 170.637 236.734C170.585 237.472 170.34 238.183 169.926 238.796L165.003 246.215C164.637 246.769 164.146 247.229 163.57 247.558C162.994 247.887 162.349 248.077 161.686 248.111C161.755 249.234 161.975 250.342 162.34 251.406C162.712 252.486 163.251 253.502 163.937 254.416C164.01 254.515 164.086 254.613 164.174 254.71C164.576 255.207 165.022 255.667 165.505 256.085C173.141 250.263 177.394 242.178 179.721 235.743H179.716ZM176.553 209.767L176.648 209.699C175.759 206.786 172.857 199.594 164.956 195.546C164.794 195.7 164.633 195.854 164.482 196.003C164.439 196.044 164.394 196.079 164.349 196.115C162.663 197.681 160.768 199.005 158.717 200.049C161.283 204.178 164.188 206.596 166.699 208.011C168.957 208.568 171.232 209.196 173.48 209.862C174.153 210.064 174.83 210.27 175.508 210.483C175.859 210.257 176.207 210.019 176.553 209.767ZM156.862 228.853L169.436 213.384L169.199 213.316C167.745 212.891 166.342 212.31 165.012 211.585L154.221 224.771C154.06 224.964 153.942 225.19 153.875 225.432C153.809 225.675 153.795 225.928 153.834 226.177C153.872 226.427 153.962 226.667 154.099 226.88C154.235 227.094 154.416 227.276 154.628 227.414L156.862 228.853ZM167.889 237.426C168.132 237.056 168.23 236.609 168.163 236.171C168.096 235.733 167.869 235.336 167.526 235.056C167.482 235.019 167.435 234.985 167.386 234.954C167.095 234.759 166.753 234.655 166.403 234.655C166.108 234.655 165.818 234.728 165.558 234.867C165.298 235.006 165.076 235.208 164.913 235.454L159.99 242.875C159.751 243.231 159.65 243.661 159.705 244.086C159.71 244.13 159.717 244.174 159.727 244.217C159.772 244.447 159.863 244.666 159.994 244.861C160.125 245.056 160.293 245.223 160.49 245.352C160.82 245.571 161.215 245.674 161.61 245.644C161.762 245.635 161.911 245.606 162.056 245.558C162.432 245.431 162.755 245.18 162.972 244.847L166.491 239.543L167.889 237.426ZM168.673 157.859C167.171 153.242 165.676 144.175 173.722 137.475C168.456 136.485 163.144 135.765 157.805 135.318C154.014 143.538 155.571 153.616 156.384 157.494C160.484 157.364 164.588 157.486 168.673 157.859ZM162.75 234.013C163.011 233.618 163.105 233.135 163.011 232.671C162.918 232.207 162.644 231.798 162.25 231.536C162.174 231.484 162.095 231.438 162.013 231.398C161.783 231.293 161.532 231.239 161.278 231.24C161.087 231.24 160.897 231.27 160.715 231.33C160.333 231.454 160.006 231.705 159.786 232.041L155.417 238.628L154.863 239.464C154.615 239.834 154.516 240.283 154.585 240.723L154.6 240.806C154.646 241.036 154.737 241.254 154.868 241.449C154.999 241.643 155.167 241.81 155.362 241.939C155.757 242.2 156.239 242.293 156.702 242.2C157.166 242.106 157.573 241.832 157.836 241.439L162.75 234.013ZM151.932 222.896L162.492 210.004C159.954 208.16 157.301 205.456 154.964 201.495C154.891 201.374 154.82 201.258 154.749 201.128C154.602 200.869 154.453 200.606 154.308 200.336L154.119 199.983L154.095 199.936C153.886 199.54 153.68 199.132 153.481 198.715L153.308 198.352C152.472 196.551 151.753 194.698 151.157 192.803C149.966 188.973 149.134 185.039 148.672 181.054C148.655 180.91 148.636 180.767 148.617 180.625C143.775 185.048 131.703 193.963 109.579 198.295L108.937 198.419C108.726 198.461 108.513 198.502 108.302 198.54L107.829 198.63L107.4 198.71L106.125 198.947L105.917 198.985L105.81 199.004C94.3215 201.095 85.7425 201.709 79.7128 201.709H79.066C76.0786 201.734 73.0928 201.558 70.1293 201.18C70.4799 207.037 71.6077 224.676 73.2851 238.699L74.664 238.827V237.215C74.6623 236.522 74.8369 235.84 75.1712 235.232C75.5056 234.625 75.9887 234.113 76.5753 233.744C77.1618 233.375 77.8325 233.161 78.5244 233.123C79.2162 233.084 79.9064 233.223 80.5302 233.524C85.4013 235.88 95.0465 239.758 104.914 239.277C105.151 239.264 105.389 239.272 105.625 239.298C106.352 234.584 108.276 228.869 112.939 224.051C109.995 224.341 107.03 224.322 104.09 223.996C101.73 223.716 99.4029 223.213 97.1385 222.493C94.8972 221.744 92.7081 220.834 90.7416 219.5C90.7136 219.481 90.6897 219.456 90.6711 219.428C90.6526 219.4 90.6399 219.368 90.6338 219.335C90.6276 219.301 90.6281 219.267 90.6352 219.234C90.6423 219.201 90.6559 219.17 90.6753 219.142C90.7079 219.093 90.7562 219.057 90.8122 219.039C90.8682 219.021 90.9285 219.023 90.9833 219.045H91.0022C93.1225 219.857 95.3164 220.463 97.5531 220.853L98.3848 221.012L99.2235 221.135C99.7826 221.213 100.337 221.306 100.901 221.346C101.465 221.386 102.017 221.472 102.578 221.503L104.26 221.593C108.718 221.727 113.175 221.304 117.528 220.334C117.624 220.305 117.723 220.283 117.822 220.268C122.123 219.331 126.287 217.85 130.213 215.859C132.192 214.832 134.067 213.618 135.814 212.232C136.687 211.538 137.514 210.787 138.29 209.985C139.068 209.198 139.771 208.339 140.389 207.421L140.417 207.378C140.48 207.285 140.574 207.219 140.682 207.191C140.79 207.163 140.905 207.176 141.004 207.227C141.103 207.278 141.18 207.364 141.22 207.469C141.26 207.573 141.26 207.689 141.221 207.793C140.763 208.914 140.166 209.972 139.444 210.943C138.741 211.913 137.964 212.827 137.122 213.678C135.42 215.359 133.524 216.832 131.473 218.063C128.106 220.084 124.47 221.616 120.672 222.614C122.631 225.297 128.566 231.652 142.36 234.66C142.404 234.576 142.455 234.497 142.514 234.423L143.843 232.764C144.568 231.85 145.603 231.235 146.751 231.035C147.899 230.835 149.081 231.064 150.072 231.678L154.889 234.778L156.635 232.237L156.412 232.093L156.367 232.064L153.012 229.903C152.452 229.538 151.976 229.059 151.613 228.498C151.251 227.936 151.01 227.305 150.908 226.644C150.805 225.984 150.843 225.309 151.019 224.664C151.195 224.019 151.504 223.418 151.927 222.901L151.932 222.896ZM152.797 238.094L153.33 237.288L151.311 235.987L148.492 234.181C148.117 233.956 147.674 233.875 147.244 233.954C146.815 234.032 146.429 234.265 146.158 234.608L145.843 235.006L146.49 235.43L152.264 239.223C152.383 238.823 152.561 238.444 152.792 238.097L152.797 238.094ZM153.391 157.653C152.5 153.315 151.174 143.621 154.687 135.081C144.62 134.353 135.361 134.408 129.377 134.583C132.153 138.164 137.207 145.465 144.258 158.76C147.277 158.213 150.325 157.844 153.387 157.655L153.391 157.653ZM136.096 124.922C146.348 116.638 150.356 105.637 148.006 92.2266C146.838 85.5567 144.128 78.4791 140.214 71.6693C139.424 70.2867 138.582 68.9175 137.688 67.5617C136.309 65.4617 134.819 63.4043 133.229 61.399C132.439 60.413 131.631 59.4428 130.803 58.4884C130.769 58.4537 130.736 58.4174 130.706 58.3793C130.695 58.3694 130.686 58.3583 130.677 58.3461C129.365 56.8505 127.981 55.3786 126.564 53.9707L126.517 53.9256L126.202 53.6199C125.998 53.4184 125.794 53.2217 125.588 53.032L125.529 52.9752C125.456 52.8993 125.38 52.8258 125.292 52.7381L125.247 52.6955C121.45 49.0762 117.3 45.8475 112.858 43.058C111.944 42.486 111.022 41.94 110.094 41.4202C106.372 39.3171 102.44 37.6092 98.3634 36.3241C96.7839 35.8311 95.2045 35.4155 93.625 35.0774C87.7303 33.8235 81.857 33.6552 76.2063 34.646C70.269 35.6865 64.5331 38.026 59.1929 41.4842C57.7713 42.4054 56.3766 43.4064 55.0088 44.4873C51.5962 47.2046 48.4756 50.2701 45.6977 53.6341C44.9964 54.4795 44.3093 55.3486 43.6365 56.2414C39.6811 61.5342 36.3945 67.2957 33.8515 73.3949C33.8302 73.4447 33.8089 73.4921 33.7828 73.5395C33.6028 73.9709 33.4259 74.4038 33.2521 74.8384C32.4497 76.8468 31.7279 78.8702 31.0866 80.9086C30.4043 83.075 29.8167 85.2509 29.3216 87.422C28.9709 88.9627 28.6684 90.4986 28.4141 92.0298C27.1774 99.47 27.085 106.725 28.2222 113.194C30.5654 126.607 38.0688 135.588 50.5262 139.892C55.0135 141.442 60.1429 142.408 65.9144 142.789C66.2579 142.812 66.6038 142.831 66.9521 142.85C67.163 142.862 67.3738 142.874 67.5871 142.881C69.394 142.967 71.261 142.995 73.1879 142.967H73.8182H74.2399C75.6993 142.93 77.1935 142.863 78.7225 142.765C80.1661 142.673 81.6374 142.553 83.1364 142.402C86.8355 142.037 90.7132 141.501 94.7693 140.793C100.075 139.884 105.328 138.687 110.503 137.207C111.806 136.829 113.077 136.434 114.315 136.022C116.685 135.243 118.941 134.41 121.084 133.523C121.321 133.426 121.558 133.327 121.795 133.227L121.897 133.185C123.353 132.56 124.752 131.912 126.093 131.241L126.226 131.175C126.534 131.02 126.839 130.862 127.14 130.701C130.305 129.074 133.302 127.139 136.086 124.924L136.096 124.922ZM147.603 176.681C146.589 171.967 144.81 166.835 142.313 161.417C134.336 146.211 128.815 138.612 126.325 135.519C123.099 137.032 119.787 138.357 116.408 139.487C116.881 142.165 115.237 145.036 111.778 147.6C108.546 149.994 104.007 151.926 98.9842 153.052C96.1474 153.7 93.2486 154.038 90.3388 154.059C83.378 154.059 78.2747 151.822 77.4075 147.913C77.3258 147.551 77.2837 147.18 77.282 146.809C75.3866 146.905 73.5378 146.953 71.7356 146.953C69.9871 146.953 68.2852 146.908 66.6299 146.818C66.3314 146.949 66.0281 147.081 65.7177 147.212L66.9521 178.331C67.0019 178.992 68.0443 192.507 69.8331 198.042C71.1765 198.305 74.1759 198.753 79.1229 198.772H79.1821H80.3099H80.4567H80.9496H81.1012H81.3097H81.5703H81.8807L82.5298 198.753C82.9492 198.739 83.3756 198.72 83.814 198.701C84.3494 198.674 84.9022 198.645 85.4724 198.613L86.1571 198.568C86.6973 198.535 87.2501 198.495 87.8156 198.449L88.1023 198.428C88.5761 198.388 89.0618 198.348 89.5546 198.302L90.0048 198.262L90.4573 198.22L91.0093 198.165L91.3765 198.127L92.573 197.999L92.8739 197.916C94.6508 197.717 96.5352 197.474 98.5269 197.186L99.458 197.049C100.794 196.848 102.179 196.625 103.611 196.38L105.156 196.11L105.798 195.994L105.898 195.977C106.891 195.792 107.907 195.596 108.947 195.389C133.665 190.457 145.26 179.191 147.603 176.681ZM139.41 63.0677C148.992 36.061 140.453 17.6418 131.059 6.65567C130.173 5.60797 129.021 4.81859 127.724 4.37061C126.427 3.92263 125.034 3.83261 123.691 4.11002C122.301 4.377 121.01 5.01401 119.953 5.95387C118.895 6.89373 118.111 8.10162 117.682 9.4502C114.434 19.4361 107.746 27.5708 101.725 33.3092C105.76 34.7511 109.648 36.5766 113.335 38.7607C117.403 34.8522 122.601 27.585 123.686 15.4303C123.755 14.5797 124.089 13.7723 124.642 13.1223C125.194 12.4723 125.938 12.0127 126.766 11.8086C127.574 11.5943 128.428 11.6392 129.209 11.9369C129.99 12.2346 130.658 12.7701 131.118 13.4678C136.833 22.0007 144.699 38.8295 135.518 57.9622C136.889 59.6356 138.186 61.3374 139.41 63.0677ZM133.4 55.4829C141.057 38.1469 133.892 22.9346 128.661 15.1175C128.543 14.9275 128.365 14.7814 128.156 14.7014C127.947 14.6214 127.718 14.6119 127.503 14.6742C127.27 14.7297 127.061 14.858 126.906 15.0404C126.752 15.2229 126.659 15.45 126.643 15.6887C125.527 28.1847 120.31 35.9449 115.934 40.3512C120.217 43.135 124.234 46.3088 127.934 49.8322C128.059 49.946 128.171 50.0574 128.287 50.1688C128.507 50.375 128.725 50.5883 128.946 50.8016L129.265 51.1121C130.701 52.5343 132.085 54.0015 133.4 55.49V55.4829ZM110.015 145.214C112.259 143.554 113.503 141.834 113.522 140.409C107.592 142.207 101.555 143.632 95.4469 144.676C90.1066 145.613 85.0452 146.258 80.2625 146.612C80.2482 146.829 80.2642 147.047 80.3099 147.259C81.0017 150.369 88.5832 152.322 98.354 150.148C102.969 149.124 107.111 147.373 110.015 145.221V145.214ZM107.051 260.645C107.051 259.884 107.063 259.076 107.051 258.225C107.051 258.099 107.051 257.974 107.051 257.846V257.834C107.051 257.583 107.051 257.329 107.04 257.071V256.793C107.04 256.753 107.04 256.715 107.04 256.675C107.04 256.542 107.04 256.407 107.04 256.272C107.04 256.087 107.04 255.902 107.025 255.712C107.011 255.523 107.013 255.343 107.006 255.155C103.841 256.798 100.669 259.341 100.669 264.124C100.669 264.319 100.631 264.511 100.557 264.691C100.483 264.871 100.374 265.034 100.237 265.172C100.099 265.309 99.9361 265.419 99.7566 265.493C99.5771 265.567 99.3846 265.606 99.1903 265.606H60.5647C60.5765 265.705 60.586 265.805 60.6002 265.907C60.6144 266.009 60.6239 266.111 60.6381 266.215C60.7057 266.665 60.9327 267.075 61.2776 267.371C61.6224 267.668 62.0623 267.83 62.5169 267.829H102.924C103.938 267.822 104.912 267.432 105.651 266.738C106.39 266.043 106.84 265.096 106.912 264.084C106.931 263.823 106.947 263.551 106.964 263.271C106.964 263.191 106.964 263.11 106.964 263.034C106.964 262.866 106.98 262.693 106.987 262.517C106.987 262.487 106.987 262.456 106.987 262.425C106.987 262.269 106.999 262.107 107.004 261.951C107.004 261.92 107.004 261.889 107.004 261.858C107.004 261.689 107.009 261.519 107.018 261.346C107.018 261.313 107.018 261.28 107.018 261.247C107.044 261.041 107.049 260.849 107.051 260.654V260.645ZM106.848 251.927C106.822 251.441 106.793 250.936 106.76 250.403C106.76 250.287 106.748 250.166 106.739 250.05C105.317 250.168 103.922 250.223 102.574 250.223C96.1166 250.236 89.7224 248.955 83.7689 246.454C83.2288 246.227 82.7123 245.998 82.2195 245.767C82.0752 245.986 81.9101 246.191 81.7267 246.378L81.7977 246.454C82.3401 247.037 82.7003 247.766 82.8343 248.551C82.9682 249.337 82.8699 250.144 82.5516 250.874C82.2333 251.604 81.7087 252.225 81.0423 252.661C80.376 253.097 79.5968 253.329 78.8007 253.328H76.403C78.0472 255.485 79.3006 258.516 79.5422 262.643H97.7711C98.5601 255.855 104.618 252.965 106.852 251.937L106.848 251.927ZM106.537 247.094L106.516 246.829L106.495 246.566C106.495 246.478 106.48 246.393 106.476 246.305C106.461 246.139 106.447 245.973 106.435 245.812C106.393 245.295 106.352 244.797 106.312 244.328L106.291 244.091C106.265 243.785 106.239 243.496 106.213 243.219C106.211 243.183 106.206 243.147 106.198 243.112C106.198 243.081 106.187 243.053 106.18 243.024C106.167 242.979 106.151 242.935 106.132 242.892C106.074 242.755 105.989 242.632 105.882 242.529C105.776 242.426 105.65 242.345 105.511 242.292L105.445 242.268C105.391 242.252 105.335 242.239 105.279 242.23C105.206 242.223 105.132 242.223 105.059 242.23C101.431 242.379 97.7992 242.077 94.2457 241.332C93.2459 241.13 92.2705 240.905 91.3197 240.659L91.0141 240.578C90.7108 240.498 90.4099 240.417 90.1138 240.341L89.5238 240.173L88.9386 239.998C88.4245 239.844 87.9198 239.682 87.427 239.524C87.1901 239.443 86.9342 239.36 86.6949 239.287C86.4557 239.213 86.2211 239.121 85.9842 239.035L85.6335 238.91C85.2852 238.784 84.9441 238.656 84.61 238.528C82.4943 237.72 80.6676 236.902 79.2366 236.208C79.0653 236.124 78.8755 236.085 78.6852 236.096C78.4948 236.106 78.3103 236.165 78.1491 236.267C77.9853 236.369 77.8505 236.512 77.7576 236.681C77.6646 236.85 77.6167 237.041 77.6184 237.234V239.46H78.803C79.7495 239.46 80.6664 239.789 81.3981 240.39C82.1297 240.99 82.6309 241.826 82.8165 242.754C86.4159 244.488 90.2274 245.742 94.1533 246.483C98.2345 247.246 102.4 247.455 106.537 247.104V247.094ZM104.239 277.907C104.239 276.501 103.822 275.126 103.041 273.957C102.26 272.788 101.15 271.876 99.8514 271.338C98.5527 270.8 97.1235 270.659 95.7448 270.933C94.366 271.208 93.0995 271.885 92.1055 272.879C91.1115 273.874 90.4345 275.141 90.1603 276.52C89.886 277.9 90.0268 279.329 90.5648 280.629C91.1027 281.928 92.0137 283.038 93.1826 283.82C94.3514 284.601 95.7257 285.018 97.1314 285.018C99.0143 285.016 100.82 284.268 102.153 282.937C103.486 281.607 104.239 279.803 104.246 277.919L104.239 277.907ZM79.9758 244.653C80.1959 244.422 80.3432 244.132 80.3994 243.818C80.4556 243.504 80.4182 243.181 80.2919 242.888C80.1656 242.595 79.9559 242.346 79.689 242.172C79.4221 241.998 79.1099 241.906 78.7912 241.908H76.3864C76.2575 241.931 76.1259 241.937 75.9955 241.925L75.813 241.908H70.6173C70.3026 241.908 69.9947 241.999 69.7312 242.171C69.5897 242.264 69.4635 242.378 69.3569 242.51L69.4919 244.7C69.6712 244.877 69.8896 245.008 70.1293 245.084C70.2865 245.133 70.4503 245.158 70.6149 245.158H78.8007C79.0205 245.157 79.2379 245.112 79.4399 245.026C79.6418 244.939 79.8241 244.812 79.9758 244.653ZM79.9308 250.412C80.163 250.187 80.3227 249.898 80.3895 249.582C80.4563 249.265 80.4271 248.936 80.3057 248.637C80.1843 248.337 79.9761 248.08 79.708 247.9C79.4399 247.719 79.1239 247.623 78.8007 247.623H70.5083C70.1668 247.643 69.8404 247.771 69.5758 247.988C69.3112 248.205 69.1218 248.501 69.0347 248.832C68.9991 248.966 68.9816 249.105 68.9825 249.244C68.9826 249.525 69.0556 249.801 69.1943 250.045C69.333 250.29 69.5327 250.494 69.7739 250.638C70.024 250.792 70.3117 250.874 70.6055 250.875H78.8007C79.2232 250.874 79.6288 250.708 79.9308 250.412ZM80.5894 277.907C80.5894 276.501 80.1726 275.126 79.3916 273.957C78.6106 272.788 77.5005 271.876 76.2017 271.338C74.903 270.8 73.4738 270.659 72.0951 270.933C70.7163 271.208 69.4498 271.885 68.4558 272.879C67.4618 273.874 66.7848 275.141 66.5106 276.52C66.2363 277.9 66.3771 279.329 66.9151 280.629C67.453 281.928 68.364 283.038 69.5329 283.82C70.7017 284.601 72.076 285.018 73.4817 285.018C75.3632 285.013 77.1664 284.264 78.4979 282.934C79.8295 281.604 80.5813 279.802 80.5894 277.919V277.907ZM60.4296 262.641H76.5759C76.2371 257.663 74.2067 254.842 72.1858 253.326H70.6173C70.0534 253.326 69.4956 253.209 68.979 252.983C68.4623 252.757 67.9981 252.427 67.6155 252.012L67.4805 252.057L67.3146 252.117L67.1085 252.193L66.9071 252.268L66.8621 252.287L66.6986 252.354L66.6228 252.387L66.4901 252.444C66.3527 252.505 66.2153 252.567 66.0826 252.633L65.9594 252.695C65.8694 252.74 65.7793 252.785 65.6917 252.835C65.604 252.885 65.5756 252.897 65.5187 252.927C65.3742 253.01 65.232 253.093 65.0923 253.183C65.0425 253.212 64.9951 253.243 64.9477 253.276C64.68 253.45 64.4214 253.637 64.173 253.838C64.1138 253.883 64.0569 253.93 64 253.977L63.6968 254.245C63.6612 254.278 63.6257 254.312 63.5902 254.349C63.5546 254.387 63.5096 254.425 63.467 254.466L63.3627 254.57L63.3367 254.598L63.2111 254.729C63.1708 254.771 63.1305 254.814 63.0926 254.859C63.0547 254.904 63.0287 254.93 63.0002 254.966C62.9718 255.001 62.9481 255.023 62.9268 255.051L62.8865 255.096C62.8557 255.132 62.8273 255.17 62.7965 255.208L62.7278 255.293L62.6709 255.366L62.5903 255.473C62.5734 255.493 62.5576 255.515 62.543 255.537L62.4577 255.655L62.4292 255.696L62.3226 255.85C62.2871 255.9 62.2563 255.949 62.2231 255.999C62.1899 256.049 62.152 256.111 62.1189 256.167C62.0857 256.224 62.0762 256.234 62.0573 256.269L61.9933 256.376C61.9601 256.431 61.9293 256.487 61.8962 256.547C61.863 256.606 61.8322 256.665 61.8014 256.724C61.7706 256.784 61.7445 256.831 61.7185 256.886L61.6758 256.969C61.6142 257.092 61.5574 257.206 61.5029 257.343C61.4697 257.414 61.4389 257.485 61.4105 257.556C61.382 257.628 61.3512 257.707 61.3181 257.793C61.2628 257.936 61.2107 258.08 61.1617 258.227C61.1356 258.301 61.1096 258.377 61.0859 258.464L61.0148 258.701C60.9864 258.793 60.9603 258.885 60.9366 258.979C60.8964 259.121 60.8608 259.268 60.8253 259.415C60.8063 259.495 60.7874 259.576 60.7708 259.652C60.7542 259.728 60.7305 259.851 60.7115 259.95C60.6926 260.05 60.6855 260.083 60.6736 260.152C60.6571 260.237 60.6428 260.32 60.631 260.405C60.6191 260.491 60.6026 260.576 60.5931 260.664C60.5836 260.752 60.567 260.839 60.5575 260.927C60.5481 261.015 60.5362 261.1 60.5267 261.185V261.2L60.5054 261.413C60.5054 261.451 60.5054 261.489 60.5054 261.529C60.5054 261.607 60.4912 261.683 60.4865 261.766C60.4817 261.849 60.4865 261.889 60.4746 261.951C60.4723 261.99 60.4723 262.028 60.4746 262.067C60.4723 262.11 60.4723 262.152 60.4746 262.195C60.4746 262.247 60.4746 262.297 60.4746 262.349C60.4746 262.401 60.4746 262.404 60.4746 262.432V262.645L60.4296 262.641ZM63.9337 176.586L62.8131 148.38C55.2315 151.45 49.2255 153.294 44.5581 153.988C44.3212 158.793 44.0843 172.697 48.5669 180.251C53.8241 179.695 58.9885 178.468 63.9337 176.598V176.586ZM41.5255 52.5295C44.2204 49.1055 47.235 45.9459 50.5286 43.0936C42.5348 40.3133 32.6859 35.4945 25.4147 27.3693C24.6775 26.5342 23.7715 25.8653 22.7565 25.4068C21.7415 24.9484 20.6408 24.7108 19.5271 24.7099C18.9333 24.7102 18.3414 24.7762 17.7621 24.9066C16.4207 25.1938 15.1816 25.8377 14.1755 26.7705C13.1693 27.7032 12.4333 28.8903 12.0451 30.2065C7.93922 43.8023 7.48432 63.62 26.0615 84.0705C26.5661 82.1245 27.1419 80.1762 27.7863 78.2421C12.5284 64.5135 12.9667 46.419 14.7247 36.4782C14.8642 35.6529 15.2595 34.8923 15.8547 34.304C16.45 33.7157 17.215 33.3296 18.0416 33.2001C18.88 33.056 19.7424 33.1787 20.5075 33.5507C21.2725 33.9228 21.9016 34.5255 22.3063 35.2741C28.2744 46.0943 36.2018 50.631 41.5255 52.5295ZM25.2915 178.511C31.8342 180.197 38.5949 180.878 45.3423 180.533C41.2246 172.287 41.3336 159.459 41.5729 154.303C37.6707 154.465 33.6667 153.794 29.9636 152.962C31.6434 158.989 33.88 171.699 25.2915 178.511ZM30.2669 71.7476C32.749 65.8357 35.8942 60.2249 39.6419 55.0231C33.8468 52.7879 25.8435 47.8033 19.7262 36.7034C19.6317 36.5185 19.4866 36.3642 19.308 36.2585C19.1293 36.1527 18.9243 36.0999 18.7169 36.1061C18.651 36.1056 18.5853 36.1103 18.5202 36.1203C18.2988 36.1507 18.0931 36.2522 17.9342 36.4094C17.7753 36.5667 17.6716 36.7713 17.6389 36.9925C16.0278 46.1014 15.5871 62.5059 28.8714 75.201C29.2868 74.0949 29.7243 72.9935 30.184 71.8969C30.2077 71.8447 30.2321 71.795 30.2574 71.7476H30.2669ZM21.5599 177.449C31.9846 171.609 28.1606 156.854 26.6277 152.166C26.0378 152.019 25.4431 151.869 24.8769 151.722C15.3052 149.29 10.9718 148.658 9.62848 152.808C9.60953 152.865 9.59057 152.922 9.56688 152.976L9.51002 153.159C9.465 153.317 9.42709 153.481 9.38919 153.647C9.32062 153.986 9.26922 154.329 9.23519 154.673C9.16492 155.377 9.17048 156.085 9.25177 156.788C9.29916 157.138 9.35365 157.499 9.4342 157.84C9.465 158.018 9.52423 158.186 9.56925 158.359L9.64033 158.62L9.70429 158.812C9.90338 159.346 10.2512 159.811 10.7065 160.153C11.1413 160.5 11.6786 160.694 12.2346 160.703C12.4987 160.699 12.758 160.632 12.9914 160.509C13.2249 160.385 13.4258 160.208 13.578 159.992C13.9691 159.429 14.2134 158.777 14.2888 158.096C14.3895 157.33 14.4046 156.555 14.3338 155.785V155.773C14.318 155.616 14.3634 155.459 14.4606 155.334C14.5578 155.21 14.6992 155.127 14.8554 155.104C15.0117 155.081 15.1707 155.12 15.2995 155.211C15.4283 155.303 15.5169 155.44 15.5468 155.595C15.7442 156.45 15.8467 157.325 15.8525 158.203C15.8709 159.178 15.6436 160.142 15.1914 161.007C14.9426 161.467 14.601 161.87 14.1883 162.191C13.7756 162.512 13.3007 162.744 12.7938 162.872C13.6514 164.434 14.3669 166.638 13.8765 168.662C15.2554 170.589 15.7909 172.403 15.4639 174.067C15.3974 174.404 15.2949 174.733 15.1583 175.048C17.245 175.969 19.3823 176.771 21.5599 177.449ZM12.5569 173.46C12.6564 172.893 12.5047 172.211 12.1162 171.445C11.0835 172.305 9.77562 172.765 8.43202 172.739C8.02647 172.738 7.62167 172.705 7.22134 172.64C6.85133 172.583 6.48503 172.503 6.12438 172.403C6.13373 172.524 6.17017 172.641 6.231 172.746C6.37552 172.983 7.36112 174.169 12.3744 173.996C12.4644 173.828 12.5261 173.647 12.5569 173.46ZM10.2776 169.122C11.7726 167.785 10.7515 165.382 10.1687 164.282C9.47338 164.521 8.74527 164.651 8.01029 164.666C7.08184 164.67 6.15718 164.548 5.26198 164.301C4.96819 164.225 4.67915 164.135 4.39484 164.033C4.11792 164.457 3.9645 164.949 3.95179 165.456V165.517C3.98733 166.764 5.07718 167.942 5.9846 168.71C6.20697 168.9 6.38492 169.136 6.50583 169.402C7.5554 169.788 9.17122 170.106 10.2729 169.122H10.2776ZM9.44131 162.407L9.35839 162.365C8.39782 161.842 7.60567 161.057 7.07444 160.101L6.87069 159.731L6.72854 159.409C6.6385 159.196 6.53663 158.982 6.46318 158.762C6.29497 158.323 6.15755 157.875 6.03198 157.42C5.80937 156.567 5.67285 155.694 5.62447 154.813C5.16859 155.046 4.78388 155.397 4.51093 155.83C3.6817 157.24 4.45644 159.518 5.25013 161.182C5.29817 161.28 5.3378 161.381 5.36859 161.485C5.59915 161.614 5.83641 161.73 6.07937 161.834C6.71755 162.117 7.39092 162.313 8.08137 162.417C8.53149 162.475 8.98731 162.471 9.43657 162.407H9.44131Z" fill="black"/>
<path d="M197.357 227.478C199.049 228.426 199.878 230.159 199.205 231.37C198.532 232.581 196.62 232.792 194.929 231.861C193.237 230.929 192.41 229.18 193.081 227.969C193.751 226.758 195.673 226.54 197.357 227.478Z" fill="black"/>
<path d="M190.294 249.42C192.14 250.441 193.043 252.342 192.311 253.66C191.579 254.978 189.491 255.22 187.646 254.196C185.8 253.172 184.9 251.273 185.632 249.953C186.364 248.633 188.451 248.403 190.294 249.42Z" fill="black"/>
<path d="M105.774 72.7835C109.283 71.5391 113.562 74.6797 115.334 79.7757C117.107 84.8718 115.699 90.0294 112.193 91.2738C108.686 92.5182 104.403 89.3776 102.63 84.2792C100.858 79.1808 102.266 74.0255 105.774 72.7835ZM113.83 87.3653C114.095 86.4432 113.792 85.4691 113.15 85.2083C112.508 84.9476 111.776 85.4667 111.51 86.3935C111.245 87.3202 111.551 88.2778 112.193 88.548C112.835 88.8182 113.569 88.2849 113.832 87.3653H113.83ZM108.618 78.6167C108.736 76.7679 107.81 75.1111 106.547 74.9096C105.284 74.7081 104.163 76.0473 104.043 77.8937C103.922 79.7402 104.85 81.3993 106.113 81.5984C107.376 81.7975 108.511 80.4631 108.629 78.6167H108.618Z" fill="black"/>
<path d="M102.63 84.2792C104.403 89.3847 108.681 92.5158 112.193 91.2738C115.704 90.0318 117.106 84.8741 115.334 79.7757C113.562 74.6773 109.283 71.5391 105.774 72.7835C102.265 74.0279 100.858 79.1666 102.63 84.2792ZM127.623 71.9136C132.108 80.6266 128.953 91.1861 120.58 95.5C112.207 99.8138 101.78 96.2466 97.2972 87.5312C92.8146 78.8158 95.968 68.2634 104.341 63.9448C112.714 59.6262 123.141 63.1982 127.623 71.9136Z" fill="#474747"/>
<path d="M103.784 109.904C103.835 111.062 103.528 112.207 102.905 113.184C102.288 114.13 101.464 114.924 100.496 115.505C100.375 115.573 100.259 115.64 100.133 115.701C99.786 115.882 99.4275 116.041 99.0599 116.175C98.6926 116.309 98.3176 116.42 97.9369 116.507C96.7165 116.777 95.4619 116.857 94.2172 116.744C93.1921 116.666 92.1753 116.502 91.1775 116.254C90.6823 116.128 90.1919 115.995 89.7062 115.836H89.6825L89.609 115.91C89.2323 116.287 88.8367 116.642 88.4244 116.979C87.5973 117.663 86.6971 118.252 85.7401 118.738C85.0073 119.109 84.2379 119.404 83.4443 119.617C83.068 119.716 82.6869 119.795 82.3023 119.854C81.9188 119.916 81.5319 119.956 81.1438 119.973C80.5476 119.999 79.9502 119.969 79.3597 119.883C78.2061 119.746 77.102 119.335 76.1399 118.683C75.178 117.986 74.4495 117.015 74.0503 115.896C73.6955 114.884 73.5262 113.817 73.5504 112.746C73.5599 111.722 73.6927 110.703 73.946 109.712C73.9881 109.492 74.1159 109.297 74.3012 109.172C74.3929 109.109 74.496 109.066 74.6046 109.043C74.7132 109.021 74.8251 109.02 74.934 109.041C75.0429 109.062 75.1466 109.104 75.2393 109.165C75.3319 109.226 75.4116 109.304 75.4739 109.396C75.5361 109.488 75.5797 109.591 75.6021 109.7C75.6245 109.808 75.6253 109.92 75.6045 110.029V110.091C75.3676 111.75 75.4718 113.646 76.147 115.023C76.8223 116.401 78.0543 117.026 79.6488 117.069C81.2303 117.1 82.7832 116.645 84.0982 115.765C84.7848 115.325 85.4205 114.81 85.9936 114.229C86.2831 113.94 86.5575 113.635 86.8157 113.317C86.946 113.16 87.0716 112.997 87.1877 112.843C87.2445 112.762 87.3038 112.682 87.3559 112.606L87.4104 112.525L86.6072 108.496C86.593 108.418 86.5851 108.338 86.5835 108.259C83.1126 107.96 78.2272 105.019 79.2389 102.57C80.7457 98.8915 92.7814 97.6566 94.7266 100.01C96.4301 102.075 92.8312 106.227 89.474 107.733C89.4929 107.789 89.5095 107.849 89.5237 107.908L90.3245 111.937L90.5259 112.042C90.7107 112.137 90.9003 112.227 91.0922 112.314C91.476 112.49 91.8669 112.648 92.2626 112.8C93.0456 113.095 93.8515 113.326 94.6721 113.49C96.2879 113.827 97.9156 113.767 99.2826 113.201C99.9604 112.896 100.562 112.445 101.043 111.878C101.504 111.324 101.778 110.639 101.827 109.92C101.95 108.42 101.209 106.668 100.23 105.303L100.202 105.26C100.106 105.122 100.065 104.952 100.089 104.785C100.112 104.617 100.198 104.465 100.328 104.358C100.459 104.251 100.625 104.198 100.794 104.208C100.962 104.219 101.121 104.292 101.237 104.414C101.924 105.155 102.506 105.987 102.967 106.886C103.449 107.823 103.727 108.852 103.784 109.904ZM87.1687 101.963C88.6874 101.745 89.8697 101.24 89.8104 100.835C89.7512 100.43 88.4765 100.281 86.9673 100.499C85.4581 100.717 84.2664 101.21 84.3233 101.624C84.3801 102.039 85.6524 102.181 87.1687 101.963Z" fill="black"/>
<path d="M97.1219 274.099C97.8773 274.099 98.6157 274.323 99.2438 274.743C99.8718 275.162 100.361 275.759 100.65 276.457C100.939 277.155 101.015 277.924 100.868 278.665C100.72 279.406 100.357 280.087 99.8225 280.621C99.2884 281.156 98.6079 281.519 97.867 281.667C97.1262 281.814 96.3583 281.739 95.6604 281.449C94.9625 281.16 94.366 280.671 93.9464 280.042C93.5267 279.414 93.3027 278.675 93.3027 277.919C93.3027 276.906 93.7051 275.934 94.4214 275.218C95.1376 274.501 96.109 274.099 97.1219 274.099Z" fill="black"/>
<path d="M73.4724 274.099C74.2278 274.098 74.9665 274.322 75.5948 274.741C76.2232 275.161 76.7131 275.758 77.0025 276.456C77.292 277.154 77.3679 277.922 77.2208 278.663C77.0737 279.405 76.7102 280.086 76.1761 280.62C75.6421 281.155 74.9616 281.519 74.2207 281.667C73.4798 281.814 72.7117 281.739 72.0137 281.45C71.3157 281.161 70.7191 280.671 70.2993 280.042C69.8796 279.414 69.6555 278.675 69.6555 277.919C69.6555 276.907 70.0576 275.935 70.7733 275.219C71.489 274.502 72.4598 274.099 73.4724 274.099Z" fill="black"/>
<path d="M67.1748 92.9426C67.3407 98.4961 64.372 103.071 60.541 103.161C56.7099 103.251 53.483 98.8232 53.3172 93.2674C53.1513 87.7115 56.12 83.1393 59.951 83.0492C63.7821 82.9591 67.0113 87.3891 67.1748 92.9426ZM62.8368 91.6485C63.9787 90.9943 64.2583 89.0625 63.4693 87.3299C62.6804 85.5972 61.1143 84.7226 59.9747 85.3815C58.8351 86.0405 58.5532 87.9698 59.3398 89.7001C60.1264 91.4304 61.6972 92.3027 62.8368 91.6485ZM59.5459 100.542C60.0624 100.049 60.0032 99.0081 59.4108 98.2212C58.8185 97.4343 57.923 97.1949 57.4065 97.6879C56.89 98.1809 56.9492 99.2214 57.5391 100.008C58.1291 100.795 59.0294 101.035 59.5459 100.542Z" fill="black"/>
<path d="M53.3219 93.267C53.4878 98.8229 56.7218 103.251 60.5457 103.16C64.3697 103.07 67.3407 98.4958 67.1796 92.9423C67.0185 87.3888 63.775 82.9588 59.9416 83.0489C56.1082 83.139 53.1561 87.7135 53.3219 93.267ZM55.5988 74.3975C65.0165 74.3975 72.6573 82.3425 72.6573 92.1435C72.6573 101.945 65.0212 109.89 55.5988 109.89C46.1763 109.89 38.5403 101.945 38.5403 92.1435C38.5403 82.3425 46.1787 74.3975 55.5988 74.3975Z" fill="#474747"/>
</g>
<defs>
<clipPath id="clip0_1932_1229">
<rect width="259" height="288" fill="white"/>
</clipPath>
</defs>
</svg>
