<svg width="211" height="189" viewBox="0 0 211 189" fill="none" xmlns="http://www.w3.org/2000/svg">
<g clip-path="url(#clip0_1932_1128)">
<path d="M81.259 112.034C82.2107 113.156 82.2107 114.762 81.259 115.62C80.3073 116.478 78.7727 116.263 77.8258 115.148C76.8788 114.032 76.8741 112.419 77.8258 111.561C78.7775 110.703 80.3121 110.909 81.259 112.034Z" fill="white"/>
<path d="M86.7906 102.446C88.8939 102.774 90.3167 104.808 89.967 107.008C89.6172 109.208 87.6305 110.708 85.5296 110.377C83.4288 110.046 82.0036 108.014 82.3533 105.815C82.7031 103.615 84.6874 102.115 86.7906 102.446Z" fill="white"/>
<path d="M135.159 111.551C136.11 112.409 136.11 114.016 135.159 115.138C134.207 116.26 132.677 116.478 131.728 115.611C130.778 114.743 130.776 113.146 131.728 112.024C132.679 110.902 134.212 110.694 135.159 111.551Z" fill="white"/>
<path d="M130.633 105.815C130.981 108.005 129.56 110.049 127.457 110.377C125.354 110.706 123.367 109.196 123.02 107.008C122.672 104.82 124.093 102.774 126.194 102.446C128.294 102.117 130.283 103.625 130.633 105.815Z" fill="white"/>
<path d="M112.094 114.436C111.981 115.518 111.658 116.567 111.142 117.526C111.102 117.597 111.061 117.668 111.019 117.737C110.55 118.511 109.887 119.151 109.094 119.595C108.302 120.039 107.408 120.271 106.498 120.269C105.588 120.272 104.694 120.039 103.901 119.595C103.109 119.151 102.446 118.511 101.977 117.737C101.935 117.668 101.892 117.597 101.851 117.526C101.336 116.567 101.013 115.518 100.9 114.436C102.327 114.909 104.426 115.485 106.503 115.485C108.58 115.485 110.671 114.92 112.094 114.436Z" fill="white"/>
<path d="M179.418 70.9417C178.906 70.9359 178.396 70.9995 177.902 71.1307L176.791 71.426C174.947 61.3185 169.834 48.1253 160.274 37.0231C156.112 32.1675 151.251 27.948 145.849 24.5009C146.365 23.776 146.803 22.9991 147.155 22.1831C152.82 25.7987 157.918 30.2244 162.282 35.3172C172.258 46.8967 177.524 60.4089 179.418 70.9417Z" fill="white"/>
<path d="M144.271 14.2186C144.851 15.1701 145.141 16.2681 145.106 17.3799C145.088 18.4678 144.872 19.5436 144.469 20.5553L144.433 20.6428C144.121 21.442 143.703 22.1968 143.191 22.8873C142.477 23.8324 141.723 24.4112 141.14 24.5577C140.664 24.6758 139.772 24.4041 138.64 23.9647C138.014 23.7284 137.314 23.4213 136.579 23.1094C131.292 20.8625 122.444 17.1011 106.512 16.8672H106.467C90.5261 17.1035 81.6872 20.8625 76.4004 23.1094C75.4297 23.5229 74.5208 23.9103 73.7547 24.1844C72.8982 24.4892 72.2225 24.6569 71.8513 24.5577C71.2541 24.4089 70.4737 23.804 69.7528 22.8282C69.2652 22.1524 68.8655 21.4181 68.5632 20.6428L68.5013 20.4821C68.1051 19.4618 67.898 18.3788 67.8898 17.2854C67.8704 16.2035 68.1609 15.1383 68.7273 14.2139C72.1939 8.86009 87.6234 3.07861 106.508 3.07861C125.392 3.07861 140.805 8.86481 144.271 14.2186Z" fill="white"/>
<path d="M65.7936 22.1099C66.1412 22.9276 66.5742 23.7068 67.0855 24.4347C61.6418 27.894 56.7451 32.1364 52.5554 37.0231C43.0003 48.1277 37.8873 61.3067 36.0409 71.4118L34.9869 71.1307C34.4736 70.9936 33.9433 70.93 33.4119 70.9417C35.3153 60.4089 40.5758 46.8967 50.5425 35.3172C54.9377 30.1872 60.0777 25.7359 65.7936 22.1099Z" fill="white"/>
<path d="M21.9059 105.543C21.9178 105.742 21.9344 105.943 21.9559 106.139C21.6924 106.041 21.439 105.918 21.1993 105.772C20.9728 105.633 20.7586 105.475 20.5592 105.3C20.3432 105.108 20.1463 104.896 19.9716 104.667C19.6372 104.234 19.3886 103.743 19.2387 103.218C19.1471 102.903 19.0913 102.579 19.0722 102.252L18.2989 89.3093C18.2501 88.4562 18.4508 87.6073 18.8767 86.8649C19.3027 86.1225 19.9357 85.5183 20.6996 85.125C20.6996 85.3258 20.6996 85.5267 20.7186 85.7275L21.7132 102.373L21.9011 105.534L21.9059 105.543Z" fill="white"/>
<path d="M29.9453 109.137L30.0643 111.107C29.7312 111.315 29.3909 111.545 29.0483 111.797C27.9799 111.194 27.0644 110.356 26.3717 109.347C25.7465 108.436 25.3209 107.405 25.1225 106.321C25.0633 106 25.0236 105.675 25.0036 105.35L24.9703 104.809L24.7871 101.716L23.8211 85.5362C23.8008 85.2081 23.8008 84.879 23.8211 84.5509C23.8923 83.4544 24.1938 82.3848 24.7062 81.4109C25.4616 79.9706 26.6409 78.7929 28.0871 78.0347L28.2774 81.2007L28.4606 84.2721L29.5028 101.524L29.6883 104.634L29.774 106.051L29.9453 109.137Z" fill="white"/>
<path d="M192.187 85.125C192.952 85.5179 193.585 86.122 194.012 86.8645C194.438 87.6069 194.639 88.456 194.59 89.3093L193.819 102.25C193.766 103.104 193.465 103.924 192.953 104.612C192.441 105.301 191.74 105.827 190.933 106.129C190.957 105.933 190.974 105.735 190.986 105.536V105.338L192.156 85.7275C192.18 85.529 192.187 85.3258 192.187 85.125Z" fill="white"/>
<path d="M189.066 84.5604C189.087 84.8885 189.087 85.2176 189.066 85.5457L187.876 105.359C187.876 105.421 187.876 105.48 187.876 105.539C187.855 105.804 187.819 106.068 187.769 106.33C187.607 107.216 187.292 108.068 186.839 108.849C186.739 109.019 186.634 109.184 186.522 109.347C185.6 110.693 184.286 111.727 182.756 112.31L182.884 110.184L182.946 109.135L183.087 106.772L183.129 106.063L184.428 84.2935L184.614 81.222L184.802 78.0513C185.658 78.4974 186.426 79.0947 187.067 79.8138C187.507 80.3056 187.884 80.8492 188.19 81.4323C188.699 82.4029 188.997 83.4685 189.066 84.5604Z" fill="white"/>
<path d="M180.881 74.5754C181.183 74.8169 181.422 75.1269 181.577 75.4794C181.733 75.8318 181.801 76.2162 181.776 76.6003L181.742 77.1602L181.504 81.0279L181.321 84.0994L181.155 86.885L180.022 105.871L179.879 108.234L179.837 108.943L179.656 111.965L179.606 112.818L179.572 113.39C179.549 113.773 179.435 114.146 179.239 114.478C179.042 114.809 178.769 115.089 178.443 115.296C178.116 115.502 177.744 115.628 177.359 115.664C176.973 115.7 176.584 115.644 176.225 115.502L175.749 115.317L174.735 114.916C174.58 114.854 174.421 114.8 174.26 114.755C173.743 114.6 173.207 114.52 172.668 114.519C172.566 114.519 172.458 114.519 172.356 114.519C171.979 114.538 171.605 114.597 171.24 114.694L169.701 115.102C169.27 115.216 169.154 115.102 169.097 115.06C168.83 114.824 168.621 114.212 168.542 113.361C168.499 112.749 168.526 112.134 168.623 111.528C168.918 109.614 169.189 107.797 169.432 106.058C170.693 97.0799 171.259 90.1289 170.9 82.5542C170.802 80.4774 170.634 78.3534 170.391 76.1277C170.148 73.9021 170.664 73.4721 170.669 73.4697C170.731 73.4225 170.967 73.3658 171.435 73.4697C171.687 73.5277 171.933 73.6068 172.171 73.706L173.653 74.2919C173.817 74.3581 173.984 74.4148 174.152 74.4644C174.98 74.7017 175.851 74.7469 176.698 74.5967C176.848 74.5707 176.996 74.5376 177.143 74.4975L177.243 74.4715L178.683 74.0887C179.071 73.9838 179.48 73.9773 179.872 74.0698C180.244 74.1577 180.589 74.3309 180.881 74.5754Z" fill="white"/>
<path d="M204.478 151.49C204.5 152.119 204.497 152.749 204.478 153.38C204.358 153.279 204.214 153.211 204.06 153.182C203.108 153 202.004 154.486 201.621 156.49C201.238 158.493 201.714 160.27 202.68 160.461C202.915 160.497 203.155 160.451 203.36 160.331C202.078 164.78 199.767 168.853 196.72 171.97C196.772 171.653 196.704 171.327 196.527 171.058C195.88 170.113 193.826 170.349 191.937 171.606C190.048 172.863 189.042 174.659 189.689 175.623C189.953 176.012 190.45 176.201 191.074 176.204C187.237 178.384 183.087 179.968 178.768 180.901C178.916 180.744 179.027 180.557 179.093 180.353C179.16 180.148 179.18 179.932 179.154 179.719C178.932 178.562 176.898 177.971 174.612 178.401C172.325 178.831 170.648 180.121 170.869 181.279C170.925 181.545 171.067 181.787 171.273 181.966C169.663 182.075 168.078 182.11 166.527 182.084C166.158 182.084 165.789 182.068 165.423 182.056C166.608 181.162 167.722 180.178 168.754 179.112C171.114 176.62 173.036 173.279 174.071 170.694C174.15 170.5 174.226 170.304 174.309 170.108C174.855 168.662 175.292 167.177 175.616 165.666C176.011 163.825 176.227 161.949 176.26 160.067C176.26 159.663 176.26 159.256 176.26 158.85C178.463 158.47 180.582 157.71 182.52 156.603C184.588 155.384 186.177 153.78 187.169 151.859C187.31 151.59 187.437 151.314 187.55 151.032C188.346 149.096 188.46 146.951 187.874 144.943C187.614 144.062 187.236 143.219 186.748 142.439C186.164 141.499 185.433 140.658 184.583 139.946C182.68 138.344 180.453 137.505 178.675 136.839C176.534 136.031 175.632 135.606 175.68 135.067C175.708 134.942 176.115 134.342 177.6 133.683C179.149 133.041 180.784 132.626 182.454 132.452C182.875 133.205 184.29 133.794 185.996 133.85C187.702 133.907 189.187 133.409 189.646 132.669C191.55 133.015 193.385 133.661 195.083 134.583C195.944 135.064 196.762 135.617 197.529 136.237C196.898 136.905 197.262 138.599 198.404 140.168C199.615 141.822 201.243 142.708 202.037 142.136C202.086 142.1 202.132 142.059 202.173 142.013C203.562 144.754 204.378 147.97 204.478 151.49Z" fill="white"/>
<path d="M206.57 117.848C208.426 122.318 208.171 128.225 206.77 130.939C206.406 131.648 206.08 131.884 205.961 131.908C205.08 132.114 204.662 131.644 203.463 129.113C203.444 129.071 203.424 129.028 203.403 128.985C203.67 128.246 203.586 127.239 203.103 126.283C202.437 124.952 201.224 124.17 200.248 124.364C199.226 123.537 197.973 123.042 196.658 122.946C195.659 122.852 194.652 122.896 193.665 123.076C193.629 122.939 193.573 122.808 193.498 122.687C192.861 121.692 190.998 121.742 189.337 122.786C187.676 123.83 186.848 125.493 187.486 126.488C187.59 126.649 187.727 126.786 187.888 126.89C187.376 127.612 186.937 128.382 186.577 129.189C182.118 128.988 178.031 129.94 175.616 131.209C173.265 132.44 172.673 133.831 172.587 134.779C172.32 137.746 175.111 138.795 177.583 139.719C179.929 140.598 182.58 141.595 184.11 144.052C184.399 144.515 184.633 145.01 184.807 145.527C184.847 146.276 184.847 147.027 184.807 147.776C184.71 147.704 184.607 147.643 184.497 147.594C183.246 147.046 181.507 148.237 180.61 150.252C179.944 151.755 179.932 153.293 180.488 154.205C179.075 154.94 177.56 155.464 175.992 155.759C175.707 153.765 175.177 151.813 174.412 149.947C173.079 146.721 171.022 143.84 168.397 141.524C168.066 141.245 167.745 140.943 167.405 140.688L166.387 139.906C166.199 139.752 166.001 139.613 165.799 139.478C166.308 137.794 166.751 136.017 167.193 134.216C167.876 131.445 168.583 128.581 169.572 125.855C170.585 123.014 171.977 120.32 173.71 117.845L175.071 118.384C175.728 118.647 176.43 118.782 177.138 118.783C178.172 118.778 179.184 118.487 180.062 117.945C180.939 117.403 181.649 116.63 182.111 115.712C183.823 115.361 185.428 114.616 186.796 113.536C188.164 112.455 189.257 111.071 189.986 109.493C191.075 109.406 192.13 109.084 193.079 108.548C198.706 109.156 204.222 112.192 206.57 117.848Z" fill="white"/>
<path d="M44.2542 111.554C44.3396 112.095 44.3715 112.644 44.3493 113.191C44.3018 114.136 44.0686 114.831 43.7807 115.081C43.7236 115.133 43.607 115.237 43.1787 115.124L41.637 114.72C40.6457 114.458 39.6011 114.473 38.6177 114.762C38.4583 114.81 38.3013 114.864 38.1418 114.925L36.6596 115.511C36.3005 115.654 35.9124 115.71 35.5272 115.675C35.1421 115.64 34.7707 115.515 34.4438 115.309C34.1168 115.104 33.8436 114.825 33.6464 114.494C33.4492 114.164 33.3338 113.792 33.3096 113.409L33.2786 112.877V112.837L33.0716 109.574L33.036 108.953L32.8528 105.881L32.8123 105.203L32.6196 101.964L31.7321 86.9465L31.5632 84.1113L31.3776 81.0398L31.1397 77.1721L31.1064 76.6122C31.0813 76.2282 31.1495 75.8439 31.3052 75.4915C31.4609 75.1392 31.6995 74.8291 32.001 74.5874C32.2716 74.3668 32.5862 74.2057 32.9241 74.1148C33.1245 74.0622 33.3308 74.0352 33.538 74.0345C33.7542 74.0349 33.9693 74.0635 34.178 74.1195L35.5604 74.4858L35.7198 74.5283C35.8649 74.5685 36.0148 74.6015 36.1623 74.6275C36.9886 74.7737 37.8374 74.7341 38.6463 74.5117C38.8369 74.4594 39.0244 74.3963 39.2078 74.3227L40.69 73.7368C40.9587 73.6265 41.2376 73.5426 41.5228 73.4863C41.9273 73.4107 42.1342 73.4604 42.1914 73.5052C42.1914 73.5052 42.7148 73.9258 42.4697 76.1633C42.2247 78.4007 42.0605 80.5129 41.9606 82.5897C41.6013 90.1621 42.1699 97.1084 43.4286 106.089C43.6784 107.821 43.9496 109.628 44.2542 111.554Z" fill="white"/>
<path d="M42.1819 144C40.6891 145.788 39.4799 147.792 38.5964 149.943C37.2939 153.154 36.6633 156.596 36.743 160.057C36.743 160.081 36.743 160.104 36.743 160.128C35.7947 160.374 34.8336 160.569 33.8641 160.712C32.9837 160.836 32.1462 160.922 31.3516 160.969C31.6157 159.807 30.0739 158.354 27.8398 157.683C25.5533 157 23.412 157.397 23.0551 158.569C23.0356 158.635 23.0221 158.703 23.0146 158.772C21.2849 156.912 21.4396 154.238 21.875 152.319C22.6673 148.832 25.1084 146.413 27.0665 144.485C28.8176 142.755 30.3308 141.26 30.0049 139.393C29.9559 139.11 29.8662 138.836 29.7384 138.578C31.6542 140.319 33.8915 141.675 36.3266 142.571C38.2215 143.253 40.1844 143.733 42.1819 144Z" fill="white"/>
<path d="M28.1085 136.929C27.7229 136.716 27.3163 136.542 26.8951 136.411C22.8504 135.133 14.1875 136.305 7.35899 142.84C7.02352 141.85 6.73087 140.837 6.48342 139.807C6.63988 139.88 6.81343 139.909 6.98545 139.892C8.00853 139.781 8.65093 137.921 8.41301 135.736C8.17508 133.55 7.13772 131.873 6.11226 131.986C5.88219 132.015 5.66888 132.12 5.50793 132.286C5.49365 131.601 5.50793 130.911 5.51982 130.219C5.60687 127.136 6.13069 124.081 7.07586 121.144C7.11447 121.174 7.1559 121.201 7.19958 121.224C8.11084 121.697 9.68829 120.515 10.7256 118.552C11.763 116.589 11.8629 114.63 10.9636 114.153C10.8568 114.098 10.7405 114.064 10.621 114.053C12.255 111.731 14.2993 109.722 16.6548 108.123C17.1996 108.596 18.3845 108.74 19.774 108.513C20.7309 109.059 21.7977 109.388 22.8979 109.477C23.7322 111.274 25.035 112.818 26.6715 113.947C26.562 114.065 26.4526 114.188 26.3431 114.316C23.1716 117.971 22.1532 123.121 23.5451 128.44C24.3768 131.585 25.9398 134.492 28.1085 136.929Z" fill="white"/>
<path d="M44.7611 179.542C45.2607 180.041 45.7699 180.499 46.2695 180.922C43.5714 181.421 41.5776 182.739 41.7727 183.93C41.8584 184.45 42.3437 184.863 43.0932 185.132C37.555 186.106 31.8935 186.173 26.3337 185.328C26.3883 185.235 26.4291 185.134 26.455 185.028C26.7429 183.814 24.8705 182.337 22.2747 181.721C19.6789 181.104 17.3401 181.607 17.0403 182.822V182.864C13.0314 181.147 9.62921 178.282 7.26868 174.635C7.60992 174.708 7.96602 174.669 8.28225 174.522C9.43619 173.962 9.61701 171.977 8.6891 170.087C7.76119 168.197 6.07191 167.117 4.91797 167.677C4.6523 167.808 4.43078 168.014 4.28033 168.268C4.09633 167.677 3.93296 167.075 3.7902 166.463C3.22995 164.105 3.01281 161.68 3.14542 159.261C3.28499 159.373 3.44733 159.454 3.62127 159.497C4.75856 159.764 6.07667 158.316 6.56442 156.275C7.05217 154.233 6.52159 152.353 5.37479 152.086C5.16083 152.037 4.9379 152.045 4.72763 152.107C5.20725 150.928 5.79418 149.794 6.48114 148.721C7.08916 147.776 7.77601 146.884 8.53445 146.054L8.5511 146.08C9.26488 147.008 11.1968 146.737 12.8909 145.472C14.5849 144.208 15.3867 142.434 14.6848 141.506C14.659 141.472 14.6312 141.439 14.6016 141.409C18.9033 139.157 23.2145 138.677 25.5961 139.256C26.5359 139.493 26.8643 139.802 26.919 139.899C26.8214 140.353 25.6889 141.47 24.8586 142.292C22.7315 144.393 19.8193 147.273 18.8271 151.634C18.2632 154.118 18.3727 156.4 19.1174 158.302C19.4834 159.246 20.0259 160.114 20.7163 160.858C23.3335 163.658 27.7969 164.65 34.0068 163.807L34.3018 163.767C35.1885 163.639 36.0776 163.468 36.969 163.254C37.0071 163.566 37.0523 163.875 37.1022 164.185C37.2696 165.219 37.4912 166.245 37.766 167.256C38.0278 168.218 38.3347 169.168 38.6844 170.092C39.7527 172.898 41.9559 176.757 44.7611 179.542Z" fill="white"/>
<path d="M173.767 159.176C173.767 159.454 173.767 159.736 173.767 160.017C173.711 162.767 173.241 165.494 172.373 168.107C171.84 169.72 171.165 171.284 170.355 172.78C170.008 173.421 169.636 174.051 169.239 174.67L169.22 174.698C168.216 176.237 166.972 177.606 165.535 178.755L161.728 181.827H161.697C160.037 182.847 158.258 183.661 156.398 184.251C145.197 187.833 128.694 185.056 107.11 175.875C106.916 175.793 106.708 175.751 106.498 175.751C106.288 175.751 106.08 175.793 105.887 175.875C84.5613 184.943 68.1991 187.774 57.0046 184.359C55.5415 183.916 54.123 183.338 52.7672 182.635H52.7363L52.0106 182.11C51.8393 181.598 51.2611 181.205 50.426 180.967L48.8985 179.863C47.1119 178.576 45.5295 177.03 44.2042 175.277C44.0305 175.041 43.8783 174.831 43.7593 174.646C42.2961 172.382 41.1611 169.924 40.3879 167.346C40.0879 166.348 39.844 165.334 39.6575 164.31C39.5528 163.729 39.4663 163.145 39.3981 162.559C39.3014 161.708 39.2443 160.856 39.2268 160C39.2268 159.79 39.2268 159.58 39.2268 159.369C39.2333 156.455 39.7985 153.568 40.8923 150.864C41.9066 148.394 43.3997 146.146 45.2868 144.248C45.5961 143.934 45.9197 143.629 46.2385 143.336C47.1726 142.523 48.1554 141.768 49.1816 141.073C50.7566 139.997 52.4586 139.117 54.2495 138.453C55.6979 137.914 57.2129 137.573 58.7534 137.437C59.4948 137.373 60.2397 137.361 60.9828 137.399L61.2445 137.415H61.3516L61.5776 137.432L61.875 137.46L62.0891 137.484H62.1153L62.2604 137.503L62.4555 137.529H62.4912L62.7625 137.569L63.0004 137.607L63.086 137.623L63.3525 137.671C64.4133 137.877 65.4544 138.172 66.4646 138.554L66.7501 138.665L66.9024 138.724L67.0546 138.786L67.1855 138.84L67.4234 138.944L67.471 138.965L67.8065 139.114L67.8945 139.154C68.7434 139.545 69.5695 139.983 70.369 140.466C70.8829 140.773 71.3897 141.099 71.8845 141.439C72.3255 141.741 72.7593 142.057 73.186 142.384C73.7951 142.846 74.3907 143.326 74.9728 143.825C76.4197 145.071 77.7969 146.395 79.0985 147.79C79.6505 148.381 80.1945 148.981 80.7306 149.59L81.1304 150.049L81.3302 150.285L81.3921 150.351L81.5539 150.528L81.7918 150.783C82.0107 151.02 82.2367 151.256 82.4794 151.492C83.0129 152.013 83.5874 152.491 84.1972 152.922C84.3209 153.011 84.447 153.099 84.5731 153.186C85.3344 153.687 86.1432 154.112 86.9881 154.455C88.6645 155.1 90.4396 155.456 92.2367 155.506C93.1099 155.547 93.9641 155.537 94.7921 155.523C95.5735 155.496 96.3558 155.51 97.1356 155.566C97.8494 155.625 98.4323 155.802 98.7416 156.078C98.9183 156.232 99.0581 156.424 99.1509 156.638L99.227 156.834C99.2412 156.862 99.2531 156.892 99.2627 156.922C99.2602 156.935 99.2602 156.949 99.2627 156.962C99.2814 157.065 99.2878 157.169 99.2817 157.274C99.2253 157.889 99.0204 158.481 98.6845 159.001C98.3177 159.594 97.8611 160.127 97.3307 160.581C96.1853 161.541 94.8634 162.271 93.4383 162.732C93.1789 162.821 92.9172 162.904 92.6531 162.982C91.7776 162.877 90.8924 162.877 90.0169 162.982C88.8793 163.1 87.7695 163.405 86.7335 163.887C85.8738 163.922 85.0128 163.911 84.1544 163.851C82.6126 163.733 81.0929 163.415 79.6338 162.906C79.5053 162.864 79.3792 162.814 79.2507 162.767C79.5624 161.883 78.3419 160.348 76.4075 159.237C74.673 158.242 72.9267 157.914 72.1391 158.365L71.5681 157.933C71.1612 157.638 70.7449 157.34 70.3047 157.056C69.9978 156.856 69.679 156.664 69.3411 156.482C68.4804 156.004 67.5398 155.684 66.5645 155.537C66.3103 155.497 66.0534 155.476 65.796 155.473C65.5388 155.465 65.2813 155.474 65.0251 155.499C64.4631 155.542 63.913 155.683 63.4001 155.915C62.8123 156.181 62.3053 156.596 61.9297 157.118C61.5653 157.639 61.3454 158.246 61.2921 158.878C61.2418 159.467 61.3015 160.059 61.4681 160.626C61.604 161.088 61.7899 161.533 62.0225 161.954C62.2676 162.383 62.5519 162.789 62.8719 163.166C62.9242 163.223 62.9766 163.282 63.0313 163.336C63.3053 163.637 63.6064 163.912 63.9307 164.159C64.2928 164.439 64.6807 164.685 65.0894 164.893C66.3532 165.547 67.7859 165.807 69.2007 165.64C69.3448 165.622 69.478 165.554 69.5782 165.45C69.6783 165.345 69.7392 165.21 69.7506 165.066C69.7621 164.922 69.7233 164.779 69.641 164.66C69.5586 164.541 69.4376 164.454 69.2983 164.414H69.2793L68.9057 164.298C67.6646 163.92 66.5203 163.28 65.551 162.422C65.5248 162.398 65.4962 162.375 65.4724 162.349C65.2885 162.183 65.1168 162.005 64.9585 161.815L64.7777 161.602C64.5744 161.342 64.3937 161.066 64.2376 160.775C64.0963 160.501 63.9869 160.212 63.9116 159.913C63.8974 159.861 63.8879 159.807 63.8783 159.755C63.8418 159.551 63.8354 159.343 63.8593 159.138C63.8769 158.948 63.9451 158.766 64.0568 158.611C64.1693 158.467 64.3177 158.355 64.4874 158.285C64.7331 158.184 64.9949 158.126 65.2607 158.115C65.4188 158.1 65.5777 158.094 65.7365 158.098C65.8959 158.097 66.0551 158.11 66.2124 158.136C66.5729 158.188 66.9264 158.28 67.2664 158.41C67.5503 158.519 67.8269 158.646 68.0944 158.791C68.7626 159.164 69.4041 159.582 70.0144 160.043L70.4903 160.383L70.6378 160.492C71.5229 161.146 72.4342 161.836 73.3954 162.486C73.6333 162.649 73.8712 162.807 74.1092 162.958C75.5828 163.91 77.165 164.684 78.8225 165.264C80.492 165.835 82.2276 166.194 83.9878 166.332C85.7189 166.448 87.4572 166.402 89.1794 166.193C90.9158 166.007 92.6264 165.632 94.2805 165.075C96.0087 164.509 97.6101 163.616 98.9962 162.446C99.7167 161.822 100.338 161.093 100.838 160.284C101.393 159.409 101.72 158.411 101.789 157.38C101.804 157.074 101.781 156.767 101.72 156.466L101.651 156.208C101.631 156.14 101.606 156.073 101.578 156.007L101.428 155.629C101.324 155.415 101.206 155.207 101.076 155.008C100.886 154.712 100.652 154.448 100.381 154.224C99.9374 153.848 99.4195 153.569 98.8606 153.404C98.3815 153.257 97.8876 153.164 97.3878 153.125C96.5171 153.06 95.6434 153.043 94.7707 153.073C93.9427 153.085 93.1456 153.094 92.3629 153.056C90.846 153.018 89.3469 152.722 87.9303 152.182C87.4083 151.973 86.9019 151.727 86.4147 151.447C86.2624 151.358 86.1125 151.263 85.965 151.166C85.3411 150.748 84.7573 150.273 84.221 149.749C84.1092 149.647 84.0021 149.541 83.8974 149.432C83.738 149.267 83.5858 149.097 83.4216 148.926L83.2289 148.714L83.0219 148.477L82.6103 148.005C82.3985 147.769 82.182 147.532 81.9655 147.28C81.6205 146.899 81.2755 146.521 80.9234 146.146C79.2194 144.311 77.3841 142.6 75.432 141.028C74.7452 140.48 74.0362 139.955 73.305 139.452L72.8053 139.1C70.1168 137.328 67.0951 135.908 63.8379 135.282C63.6 135.235 63.3501 135.195 63.1051 135.157C56.2982 128.862 50.9562 121.168 47.4519 112.612C47.4406 112.101 47.3953 111.591 47.3163 111.086C45.1274 96.8672 44.3065 88.0615 45.5675 76.4843C45.7674 74.6462 45.6032 73.2333 45.0655 72.2103C52.4579 45.4175 77.1855 25.6655 106.493 25.6655C135.758 25.6655 160.46 45.3584 167.89 72.0945C167.305 73.1246 167.122 74.5753 167.329 76.4796C168.587 88.0567 167.769 96.8624 165.58 111.081C165.488 111.661 165.441 112.247 165.439 112.834C161.932 121.301 156.624 128.915 149.877 135.154C149.639 135.19 149.401 135.232 149.163 135.277C145.689 135.943 142.501 137.505 139.686 139.438C138.209 140.459 136.801 141.577 135.473 142.783C134.626 143.544 133.807 144.336 133.01 145.146C132.693 145.469 132.376 145.797 132.058 146.129C131.706 146.504 131.357 146.883 131.009 147.268C130.793 147.504 130.579 147.74 130.367 147.977L129.955 148.449L129.748 148.685L129.553 148.898C129.296 149.179 129.044 149.465 128.763 149.718C128.225 150.238 127.641 150.709 127.017 151.124C126.399 151.532 125.741 151.878 125.054 152.156C123.639 152.694 122.143 152.987 120.628 153.023C120.01 153.049 119.379 153.047 118.725 153.04H118.218C117.346 153.011 116.472 153.026 115.601 153.087L115.427 153.104C114.983 153.149 114.544 153.237 114.116 153.366C113.551 153.534 113.027 153.816 112.577 154.195C112.29 154.431 112.043 154.712 111.847 155.027C111.722 155.217 111.611 155.415 111.514 155.62L111.359 156C111.33 156.067 111.306 156.136 111.285 156.206L111.216 156.466C111.152 156.772 111.127 157.084 111.142 157.397C111.208 158.438 111.535 159.447 112.094 160.331C112.594 161.149 113.217 161.885 113.943 162.514C115.336 163.692 116.948 164.587 118.687 165.151C120.347 165.712 122.064 166.089 123.807 166.276C125.109 166.431 126.42 166.499 127.731 166.479C128.156 166.479 128.585 166.45 129.013 166.42C130.125 166.341 131.228 166.169 132.311 165.907C132.948 165.756 133.576 165.571 134.195 165.359C135.852 164.762 137.431 163.969 138.896 162.996C139.134 162.838 139.372 162.677 139.61 162.524C140.562 161.867 141.457 161.17 142.327 160.508L142.948 160.036C144.231 159.091 145.508 158.261 146.769 158.094C147.355 157.996 147.956 158.045 148.518 158.235C148.711 158.307 148.879 158.432 149.003 158.595C149.126 158.758 149.201 158.953 149.218 159.157C149.256 159.429 149.244 159.706 149.182 159.974C149.108 160.285 149.002 160.587 148.863 160.874C148.713 161.18 148.535 161.472 148.333 161.746C148.302 161.786 148.271 161.827 148.237 161.864C148.05 162.1 147.845 162.323 147.626 162.531C146.653 163.434 145.453 164.061 144.152 164.348C144 164.385 143.845 164.416 143.691 164.444C143.54 164.473 143.406 164.555 143.312 164.676C143.219 164.797 143.173 164.947 143.184 165.099C143.195 165.25 143.262 165.393 143.371 165.499C143.481 165.605 143.626 165.668 143.779 165.675C145.069 165.716 146.35 165.448 147.514 164.896C148.009 164.662 148.477 164.377 148.911 164.045C149.66 163.48 150.295 162.779 150.783 161.98L150.817 161.926C151.369 161.021 151.633 159.972 151.576 158.916C151.53 158.3 151.32 157.707 150.966 157.198C150.603 156.687 150.111 156.279 149.539 156.017C149.036 155.786 148.495 155.646 147.942 155.603C147.689 155.578 147.435 155.569 147.181 155.577C146.926 155.577 146.672 155.596 146.42 155.634C145.452 155.779 144.518 156.095 143.662 156.567C142.887 156.995 142.143 157.475 141.435 158.004C141.245 158.141 141.059 158.28 140.874 158.417C140.1 157.945 138.333 158.264 136.574 159.27C134.683 160.355 133.481 161.85 133.719 162.741C133.588 162.791 133.46 162.835 133.329 162.88C132.006 163.321 130.637 163.614 129.249 163.752L128.813 163.79C127.895 163.855 126.974 163.865 126.056 163.818C125.072 163.393 124.029 163.119 122.963 163.006C122.155 162.907 121.339 162.897 120.529 162.975C120.203 162.883 119.879 162.783 119.56 162.675C118.146 162.218 116.833 161.496 115.691 160.548C115.166 160.099 114.712 159.572 114.347 158.987C114.016 158.477 113.813 157.896 113.755 157.293C113.749 157.194 113.753 157.095 113.769 156.997C113.771 156.985 113.771 156.972 113.769 156.96C113.769 156.96 113.793 156.903 113.802 156.877L113.876 156.685C113.964 156.477 114.098 156.291 114.269 156.142C114.561 155.875 115.123 155.698 115.844 155.636C116.129 155.61 116.431 155.596 116.743 155.589C117.205 155.589 117.695 155.589 118.171 155.589C118.98 155.589 119.817 155.608 120.671 155.568H120.728C122.53 155.513 124.308 155.153 125.987 154.502C126.832 154.158 127.641 153.73 128.402 153.226C129.15 152.724 129.851 152.155 130.495 151.525C130.826 151.223 131.121 150.892 131.418 150.564L131.604 150.356L131.64 150.318L131.837 150.082L132.237 149.609C132.773 149 133.316 148.399 133.867 147.806C134.397 147.237 134.942 146.677 135.494 146.129C136.295 145.341 137.121 144.581 137.971 143.847L138.016 143.809C138.993 142.969 140.014 142.181 141.073 141.446C142.325 140.58 143.649 139.821 145.03 139.178L145.149 139.121C145.594 138.92 146.044 138.731 146.501 138.561C147.51 138.179 148.55 137.884 149.61 137.678C150.387 137.528 151.173 137.433 151.963 137.392C152.711 137.354 153.461 137.366 154.207 137.43C155.748 137.567 157.264 137.908 158.713 138.446C159.952 138.897 161.146 139.46 162.282 140.125C163.206 140.663 164.098 141.255 164.952 141.897C165.561 142.353 166.141 142.843 166.727 143.329C169.066 145.398 170.898 147.971 172.085 150.85C172.774 152.527 173.254 154.282 173.512 156.076C173.664 157.103 173.749 158.138 173.767 159.176ZM170.307 160.83C170.307 158.62 168.911 156.832 167.186 156.832C165.461 156.832 164.064 158.62 164.064 160.83C164.064 163.039 165.461 164.83 167.186 164.83C168.911 164.83 170.307 163.024 170.307 160.822V160.83ZM166.667 149.76C167.364 148.194 166.279 146.2 164.245 145.309C162.211 144.418 159.996 144.964 159.301 146.531C158.606 148.097 159.689 150.089 161.723 150.982C163.757 151.875 165.972 151.32 166.667 149.753V149.76ZM163.962 178.703C165.432 177.049 165.575 174.786 164.281 173.652C162.986 172.518 160.748 172.943 159.284 174.597C157.821 176.251 157.671 178.517 158.963 179.648C160.255 180.78 162.503 180.359 163.962 178.703ZM149.548 152.629C151.583 151.462 152.829 149.822 152.332 148.967C151.835 148.111 149.782 148.362 147.745 149.529C145.708 150.696 144.464 152.336 144.961 153.193C145.458 154.051 147.514 153.784 149.548 152.629ZM133.952 118.909C135.984 118.123 137.736 116.757 138.986 114.983C140.237 113.21 140.929 111.107 140.976 108.943C141.024 106.778 140.424 104.648 139.252 102.822C138.08 100.996 136.39 99.5559 134.394 98.6839C132.398 97.8119 130.187 97.5471 128.04 97.923C125.892 98.2988 123.905 99.2985 122.33 100.796C120.755 102.293 119.662 104.22 119.19 106.334C118.718 108.448 118.887 110.653 119.677 112.671C120.201 114.012 120.987 115.237 121.988 116.276C122.99 117.315 124.188 118.148 125.513 118.727C126.839 119.306 128.267 119.62 129.715 119.651C131.163 119.683 132.603 119.43 133.952 118.909ZM113.172 118.653C114.088 117.021 114.538 115.017 114.514 112.697C114.512 112.504 114.462 112.314 114.368 112.146C114.273 111.977 114.138 111.834 113.973 111.731C113.809 111.627 113.621 111.566 113.427 111.554C113.233 111.541 113.039 111.577 112.863 111.658C112.829 111.674 109.532 113.172 106.489 113.172C103.445 113.172 100.153 111.674 100.119 111.658C99.9425 111.577 99.7483 111.541 99.5541 111.554C99.36 111.567 99.1722 111.628 99.0078 111.731C98.8434 111.834 98.7077 111.977 98.613 112.146C98.5183 112.314 98.4677 112.504 98.4657 112.697C98.4419 115.017 98.8939 117.021 99.8076 118.651C100.46 119.844 101.426 120.839 102.602 121.532C103.778 122.224 105.121 122.587 106.489 122.583C107.856 122.587 109.199 122.224 110.375 121.533C111.552 120.841 112.518 119.846 113.172 118.653ZM93.305 112.671C94.0948 110.653 94.2642 108.448 93.7919 106.334C93.3196 104.22 92.2268 102.293 90.6516 100.796C89.0763 99.2985 87.0895 98.2988 84.9422 97.923C82.7949 97.5471 80.5836 97.8119 78.5878 98.6839C76.5921 99.5559 74.9015 100.996 73.7298 102.822C72.5582 104.648 71.958 106.778 72.0053 108.943C72.0526 111.107 72.7451 113.21 73.9954 114.983C75.2457 116.757 76.9975 118.123 79.0295 118.909C80.3792 119.43 81.8192 119.683 83.2672 119.651C84.7153 119.62 86.1429 119.306 87.4686 118.727C88.7943 118.148 89.9921 117.315 90.9935 116.276C91.995 115.237 92.7804 114.012 93.305 112.671ZM68.0468 153.182C68.5441 152.324 67.2973 150.684 65.2631 149.517C63.2288 148.35 61.1731 148.099 60.6758 148.955C60.1786 149.81 61.4253 151.45 63.4596 152.617C65.4939 153.784 67.5424 154.046 68.0468 153.182ZM54.052 179.644C55.3368 178.521 55.1988 176.255 53.7236 174.602C52.2485 172.948 50.0144 172.52 48.7272 173.657C47.44 174.793 47.5756 177.052 49.046 178.708C50.5164 180.364 52.7505 180.785 54.0448 179.653L54.052 179.644ZM51.2778 150.975C53.312 150.082 54.397 148.09 53.6999 146.524C53.0027 144.957 50.79 144.409 48.7557 145.302C46.7215 146.195 45.6365 148.187 46.3337 149.753C47.0308 151.32 49.2506 151.866 51.2778 150.975ZM48.9366 160.822C48.9366 158.613 47.5399 156.825 45.815 156.825C44.09 156.825 42.6934 158.613 42.6934 160.822C42.6934 163.032 44.09 164.822 45.815 164.822C47.5399 164.822 48.9366 163.024 48.9366 160.822Z" fill="white"/>
<path d="M209.439 116.671C211.723 122.174 211.278 128.957 209.53 132.348C208.609 134.129 207.467 134.725 206.674 134.911C203.167 135.729 201.716 132.662 200.655 130.422C199.418 127.802 198.514 126.198 196.372 126.011C194.231 125.824 192.565 126.377 191.226 127.698C190.687 128.247 190.229 128.869 189.865 129.546C192.22 129.95 194.491 130.741 196.584 131.887C203.296 135.611 207.305 142.72 207.583 151.391C207.921 161.926 202.694 172.499 194.574 177.704C186.848 182.666 177.64 185.172 167.481 185.172C165.817 185.172 164.13 185.106 162.42 184.972C157.857 187.534 152.282 188.816 145.696 188.818C135.164 188.818 122.098 185.535 106.498 178.968C90.9234 185.533 77.8573 188.816 67.2997 188.818C61.6387 188.818 56.7215 187.873 52.5483 185.983C46.5719 187.951 40.3199 188.969 34.0234 189C28.4096 189.013 22.8313 188.115 17.5089 186.342C9.18153 183.556 2.9217 176.386 0.761327 167.164C-1.10401 159.202 0.485332 151.301 5.00831 145.439C3.11147 140.557 2.22773 135.345 2.41015 130.115C2.79322 118.817 7.88245 109.574 16.424 104.612C16.1626 103.915 16.0078 103.182 15.9648 102.439L15.1939 89.5006C15.0893 87.6981 15.6413 85.9184 16.7492 84.4868C17.8571 83.0552 19.4468 82.0673 21.2277 81.7037C21.7676 80.054 22.69 78.5532 23.9207 77.3221C25.1513 76.091 26.6559 75.164 28.3132 74.6157C28.6525 73.6667 29.2495 72.8294 30.0381 72.1963L30.1 72.1491C31.825 60.8484 37.3234 45.9234 48.1824 33.3232C52.9733 27.731 58.6095 22.9112 64.8895 19.0361C64.5136 16.6427 64.9205 14.3722 66.0935 12.56C68.2348 9.25224 73.4121 6.13351 80.6569 3.7921C88.2087 1.34436 97.3831 0 106.489 0C115.594 0 124.766 1.34436 132.318 3.78028C139.563 6.1217 144.735 9.23571 146.879 12.5505C148.069 14.3816 148.471 16.6829 148.069 19.1093C154.296 22.97 159.887 27.761 164.645 33.3138C175.485 45.9021 180.983 60.7941 182.727 72.0853L182.858 72.1869C183.645 72.8198 184.241 73.6562 184.581 74.6039C186.24 75.1507 187.746 76.0771 188.978 77.3084C190.21 78.5396 191.133 80.0412 191.673 81.6919C193.454 82.056 195.042 83.0442 196.149 84.4758C197.256 85.9074 197.808 87.6868 197.702 89.4888L196.931 102.427C196.859 103.649 196.486 104.835 195.844 105.881C201.607 107.173 206.965 110.717 209.439 116.671ZM206.758 130.94C208.159 128.225 208.423 122.318 206.558 117.848C204.212 112.192 198.694 109.153 193.07 108.532C192.121 109.067 191.065 109.39 189.977 109.477C189.247 111.054 188.154 112.438 186.786 113.519C185.418 114.599 183.813 115.345 182.101 115.696C181.486 116.938 180.42 117.903 179.119 118.399C177.817 118.895 176.375 118.885 175.08 118.37L173.719 117.831C171.986 120.306 170.595 123 169.582 125.841C168.583 128.567 167.873 131.431 167.203 134.202C166.758 136.003 166.32 137.78 165.808 139.464C166.011 139.599 166.21 139.738 166.398 139.892L167.414 140.674C167.755 140.929 168.076 141.231 168.409 141.51C171.026 143.832 173.075 146.716 174.4 149.943C175.166 151.808 175.697 153.76 175.98 155.755C177.548 155.46 179.063 154.936 180.476 154.2C179.922 153.288 179.932 151.75 180.6 150.247C181.495 148.232 183.236 147.041 184.485 147.589C184.595 147.638 184.699 147.699 184.795 147.771C184.836 147.022 184.836 146.271 184.795 145.522C184.621 145.006 184.388 144.511 184.1 144.048C182.575 141.591 179.917 140.593 177.571 139.715C175.109 138.788 172.316 137.742 172.575 134.774C172.661 133.829 173.255 132.435 175.604 131.204C178.019 129.935 182.109 128.983 186.565 129.184C186.925 128.377 187.364 127.607 187.876 126.885C187.715 126.781 187.578 126.644 187.474 126.484C186.836 125.489 187.664 123.833 189.325 122.781C190.986 121.73 192.849 121.687 193.486 122.682C193.563 122.802 193.62 122.934 193.655 123.072C194.641 122.892 195.648 122.848 196.646 122.942C197.961 123.037 199.214 123.532 200.236 124.36C201.224 124.166 202.437 124.948 203.106 126.278C203.581 127.223 203.672 128.241 203.405 128.981C203.424 129.023 203.443 129.066 203.465 129.109C204.654 131.639 205.08 132.109 205.961 131.904C206.08 131.88 206.403 131.641 206.758 130.94ZM204.462 153.385C204.486 152.757 204.488 152.126 204.462 151.495C204.348 147.974 203.546 144.759 202.142 142.006C202.099 142.051 202.053 142.092 202.004 142.129C201.209 142.701 199.582 141.82 198.371 140.161C197.231 138.595 196.867 136.898 197.495 136.23C196.73 135.609 195.911 135.056 195.049 134.576C193.356 133.655 191.526 133.01 189.627 132.664C189.17 133.399 187.702 133.9 185.977 133.846C184.252 133.791 182.856 133.201 182.435 132.447C180.765 132.622 179.13 133.036 177.581 133.678C176.096 134.337 175.677 134.937 175.661 135.062C175.613 135.601 176.505 136.026 178.659 136.834C180.434 137.501 182.67 138.339 184.566 139.941C185.415 140.655 186.146 141.496 186.732 142.434C187.218 143.215 187.596 144.057 187.855 144.938C188.441 146.946 188.327 149.091 187.533 151.027C187.419 151.306 187.295 151.582 187.15 151.854C186.158 153.775 184.569 155.379 182.504 156.598C180.565 157.705 178.445 158.466 176.241 158.845C176.241 159.252 176.241 159.658 176.241 160.062C176.206 161.945 175.989 163.82 175.594 165.661C175.271 167.172 174.834 168.657 174.288 170.103C174.214 170.299 174.138 170.496 174.05 170.689C173.015 173.274 171.095 176.615 168.732 179.107C167.701 180.173 166.587 181.157 165.401 182.051C165.768 182.051 166.137 182.075 166.508 182.08C168.057 182.106 169.641 182.08 171.252 181.962C171.046 181.782 170.904 181.541 170.848 181.274C170.626 180.116 172.301 178.826 174.59 178.396C176.879 177.966 178.913 178.557 179.132 179.715C179.159 179.928 179.138 180.144 179.072 180.348C179.005 180.552 178.894 180.739 178.747 180.896C183.066 179.964 187.216 178.38 191.052 176.199C190.429 176.199 189.932 176.008 189.668 175.618C189.023 174.661 190.029 172.865 191.918 171.601C193.807 170.337 195.889 170.113 196.527 171.058C196.699 171.329 196.762 171.654 196.705 171.97C199.756 168.853 202.063 164.78 203.346 160.331C203.141 160.452 202.901 160.498 202.665 160.461C201.699 160.282 201.238 158.503 201.609 156.49C201.98 154.477 203.082 152.988 204.045 153.182C204.202 153.209 204.349 153.277 204.471 153.378L204.462 153.385ZM194.588 89.3092C194.638 88.4547 194.438 87.6041 194.011 86.8603C193.585 86.1165 192.95 85.5112 192.185 85.1178C192.185 85.3186 192.185 85.5195 192.166 85.7203L190.995 105.331V105.529C190.983 105.727 190.967 105.926 190.943 106.122C191.749 105.82 192.45 105.293 192.962 104.605C193.474 103.917 193.775 103.096 193.829 102.242L194.588 89.3092ZM189.068 85.5289C189.088 85.2008 189.088 84.8718 189.068 84.5437C188.977 83.1851 188.537 81.8723 187.79 80.7306C187.043 79.589 186.013 78.6567 184.8 78.0227L184.612 81.1934L184.428 84.2649L183.127 106.035L183.086 106.743L182.944 109.106L182.882 110.155L182.753 112.282C184.283 111.698 185.598 110.664 186.52 109.319C186.632 109.156 186.736 108.99 186.836 108.82C187.287 108.046 187.602 107.2 187.766 106.32C187.815 106.059 187.85 105.794 187.871 105.529L187.885 105.349L189.068 85.5289ZM181.775 76.6004C181.801 76.2163 181.733 75.8319 181.577 75.4795C181.422 75.127 181.183 74.817 180.881 74.5755C180.594 74.3418 180.257 74.1762 179.896 74.0912C179.504 73.9987 179.095 74.0052 178.706 74.1101L177.255 74.4929L177.155 74.5188C177.007 74.5582 176.86 74.5913 176.712 74.6181C175.864 74.7684 174.992 74.7231 174.164 74.4858C173.995 74.4361 173.829 74.3794 173.665 74.3133L172.182 73.7273C171.944 73.6281 171.698 73.5491 171.447 73.4911C170.971 73.3871 170.733 73.4438 170.681 73.4911C170.681 73.4911 170.16 73.9116 170.405 76.1491C170.65 78.3865 170.814 80.4988 170.912 82.5756C171.271 90.1503 170.705 97.0966 169.446 106.079C169.208 107.818 168.93 109.635 168.637 111.549C168.539 112.155 168.511 112.77 168.554 113.383C168.621 114.233 168.842 114.845 169.108 115.081C169.165 115.133 169.284 115.237 169.713 115.124L171.252 114.715C171.617 114.618 171.991 114.56 172.368 114.54C172.473 114.54 172.577 114.54 172.682 114.54C173.221 114.542 173.757 114.622 174.274 114.777C174.431 114.821 174.588 114.876 174.75 114.937L175.763 115.339L176.239 115.523C176.598 115.664 176.986 115.718 177.371 115.681C177.755 115.644 178.125 115.517 178.451 115.311C178.777 115.105 179.048 114.825 179.244 114.494C179.44 114.163 179.554 113.791 179.577 113.409L179.61 112.837L179.663 111.984L179.844 108.962L179.884 108.253L180.027 105.89L181.159 86.904L181.326 84.1184L181.509 81.0469L181.747 77.1792L181.775 76.6004ZM177.902 71.1308C178.396 70.9996 178.906 70.936 179.418 70.9417C177.514 60.4089 172.254 46.8968 162.287 35.3173C157.922 30.2244 152.825 25.7988 147.16 22.1832C146.807 22.9998 146.367 23.7767 145.849 24.501C151.251 27.9474 156.112 32.167 160.274 37.0232C169.834 48.1277 174.947 61.3186 176.791 71.4261L177.902 71.1308ZM173.765 160.017C173.765 159.736 173.765 159.455 173.765 159.176C173.751 158.148 173.671 157.122 173.527 156.104C173.268 154.311 172.789 152.556 172.099 150.878C170.913 147.999 169.081 145.426 166.741 143.358C166.168 142.862 165.577 142.382 164.966 141.926C164.113 141.283 163.221 140.691 162.296 140.154C161.16 139.488 159.966 138.926 158.728 138.474C157.278 137.937 155.762 137.595 154.221 137.458C153.475 137.395 152.726 137.382 151.978 137.42C151.188 137.461 150.401 137.557 149.625 137.706C148.565 137.913 147.524 138.208 146.515 138.59C146.06 138.76 145.608 138.949 145.163 139.15L145.044 139.207C143.663 139.85 142.339 140.608 141.088 141.475C140.029 142.209 139.009 142.998 138.033 143.837L137.988 143.875C137.137 144.603 136.312 145.364 135.511 146.158C134.957 146.706 134.414 147.265 133.881 147.835C133.348 148.405 132.805 149.006 132.251 149.638L131.854 150.11L131.654 150.347L131.618 150.384L131.433 150.592C131.135 150.921 130.84 151.252 130.51 151.554C129.866 152.183 129.166 152.752 128.418 153.255C127.657 153.758 126.848 154.185 126.003 154.531C124.324 155.181 122.545 155.542 120.743 155.596H120.686C119.834 155.637 118.994 155.627 118.187 155.618C117.695 155.618 117.209 155.604 116.748 155.618C116.436 155.618 116.134 155.639 115.849 155.665C115.135 155.726 114.569 155.901 114.273 156.171C114.104 156.321 113.971 156.507 113.881 156.714L113.807 156.905C113.807 156.931 113.774 156.979 113.774 156.988C113.777 157 113.777 157.014 113.774 157.026C113.758 157.124 113.753 157.223 113.76 157.321C113.817 157.925 114.021 158.506 114.352 159.015C114.717 159.601 115.171 160.128 115.696 160.577C116.838 161.525 118.152 162.247 119.567 162.703C119.884 162.812 120.207 162.911 120.533 163.003C121.343 162.926 122.16 162.936 122.967 163.034C124.034 163.148 125.077 163.422 126.06 163.847C126.98 163.893 127.902 163.884 128.82 163.819L129.256 163.781C130.644 163.643 132.012 163.35 133.334 162.909C133.465 162.864 133.595 162.819 133.724 162.77C133.486 161.879 134.695 160.383 136.579 159.299C138.335 158.292 140.103 157.966 140.876 158.446L141.438 158.032C142.146 157.504 142.89 157.024 143.665 156.596C144.521 156.124 145.456 155.807 146.424 155.663C146.676 155.625 146.929 155.606 147.183 155.606C147.438 155.598 147.693 155.607 147.947 155.632C148.499 155.675 149.039 155.815 149.541 156.045C150.113 156.308 150.606 156.715 150.969 157.227C151.323 157.735 151.534 158.328 151.58 158.944C151.637 160.001 151.372 161.049 150.821 161.954L150.786 162.009C150.299 162.808 149.664 163.508 148.916 164.074C148.481 164.406 148.012 164.691 147.517 164.924C146.349 165.48 145.063 165.748 143.769 165.706C143.616 165.699 143.472 165.636 143.362 165.529C143.253 165.423 143.187 165.28 143.177 165.129C143.166 164.977 143.212 164.827 143.305 164.706C143.399 164.586 143.533 164.504 143.684 164.475C143.838 164.447 143.99 164.416 144.143 164.379C145.444 164.092 146.645 163.465 147.619 162.562C147.838 162.345 148.042 162.113 148.228 161.867C148.261 161.829 148.292 161.789 148.323 161.749C148.526 161.474 148.703 161.183 148.854 160.877C148.996 160.59 149.105 160.288 149.18 159.977C149.241 159.709 149.253 159.432 149.215 159.159C149.199 158.956 149.124 158.761 149 158.598C148.876 158.435 148.708 158.31 148.516 158.238C147.954 158.048 147.353 157.999 146.767 158.096C145.506 158.264 144.228 159.086 142.96 160.038C142.753 160.192 142.546 160.35 142.339 160.511C141.466 161.172 140.569 161.869 139.62 162.526C139.382 162.689 139.144 162.85 138.906 162.999C137.44 163.971 135.862 164.765 134.205 165.361C133.586 165.574 132.958 165.758 132.323 165.91C131.24 166.171 130.137 166.343 129.025 166.422C128.594 166.453 128.168 166.472 127.74 166.481C126.429 166.502 125.118 166.434 123.817 166.278C122.07 166.092 120.35 165.714 118.687 165.151C116.948 164.584 115.338 163.684 113.948 162.503C113.222 161.874 112.598 161.137 112.099 160.319C111.54 159.435 111.213 158.427 111.147 157.385C111.133 157.073 111.158 156.76 111.221 156.454L111.29 156.194C111.314 156.104 111.34 156.06 111.364 155.989L111.518 155.608C111.617 155.404 111.729 155.206 111.851 155.015C112.048 154.701 112.295 154.42 112.582 154.184C113.032 153.805 113.556 153.523 114.121 153.354C114.549 153.226 114.988 153.138 115.432 153.092L115.606 153.076C116.477 153.015 117.35 152.999 118.223 153.028H118.73C119.377 153.028 120.008 153.028 120.633 153.012C122.144 152.979 123.639 152.689 125.052 152.156C125.739 151.88 126.396 151.537 127.014 151.131C127.638 150.716 128.223 150.246 128.761 149.725C129.042 149.472 129.294 149.187 129.551 148.905L129.746 148.693L129.953 148.456L130.364 147.984L131.007 147.275C131.354 146.892 131.705 146.513 132.058 146.136C132.376 145.806 132.693 145.478 133.01 145.153C133.807 144.345 134.626 143.554 135.473 142.791C136.801 141.584 138.209 140.467 139.686 139.445C142.501 137.513 145.689 135.951 149.163 135.285C149.401 135.24 149.639 135.197 149.877 135.162C156.624 128.923 161.932 121.309 165.437 112.841C165.439 112.254 165.485 111.668 165.577 111.088C167.766 96.8698 168.585 88.0664 167.326 76.487C167.119 74.5826 167.302 73.132 167.888 72.1018C160.455 45.3634 135.744 25.6705 106.489 25.6705C77.1927 25.6705 52.4532 45.4177 45.0608 72.2152C45.5985 73.2383 45.7746 74.6512 45.5628 76.4893C44.3018 88.0664 45.1227 96.8721 47.3116 111.091C47.3902 111.596 47.4363 112.106 47.4496 112.617C50.9522 121.173 56.2934 128.867 63.1003 135.162C63.3383 135.199 63.5905 135.24 63.8332 135.287C67.0999 135.913 70.112 137.333 72.8006 139.105L73.3098 139.448C74.041 139.948 74.7508 140.474 75.4392 141.023C77.39 142.596 79.2244 144.307 80.9282 146.141C81.2803 146.516 81.6276 146.894 81.9703 147.275C82.1868 147.511 82.4033 147.748 82.6174 148L83.0266 148.473L83.2337 148.709L83.4287 148.922C83.5834 149.092 83.7357 149.262 83.9046 149.428C84.0093 149.536 84.1164 149.643 84.2282 149.744C84.765 150.268 85.3487 150.743 85.9722 151.162C86.1197 151.259 86.2696 151.353 86.4219 151.443C86.9086 151.728 87.4151 151.98 87.9375 152.194C89.3533 152.734 90.8516 153.03 92.3676 153.068C93.1504 153.106 93.9475 153.097 94.7754 153.085C95.6481 153.055 96.5218 153.072 97.3926 153.137C97.8916 153.176 98.3847 153.269 98.863 153.416C99.4219 153.581 99.9398 153.86 100.383 154.236C100.655 154.46 100.89 154.725 101.08 155.02C101.21 155.22 101.327 155.427 101.43 155.641L101.583 156.019C101.606 156.088 101.63 156.133 101.656 156.22L101.723 156.478C101.783 156.779 101.806 157.086 101.792 157.392C101.722 158.423 101.395 159.421 100.84 160.296C100.341 161.105 99.7197 161.834 98.9986 162.458C97.6125 163.629 96.0111 164.522 94.2829 165.087C92.6289 165.644 90.9182 166.019 89.1818 166.205C87.4584 166.41 85.7194 166.452 83.9879 166.332C82.2289 166.205 80.4933 165.856 78.8225 165.295C77.1641 164.715 75.5811 163.941 74.1068 162.989C73.8641 162.832 73.6262 162.674 73.393 162.517C72.4413 161.867 71.5206 161.177 70.6355 160.523L70.488 160.414L70.0121 160.074C69.4018 159.613 68.7603 159.195 68.092 158.822C67.825 158.676 67.5483 158.549 67.264 158.441C66.9241 158.311 66.5705 158.219 66.21 158.167C66.0528 158.141 65.8936 158.128 65.7342 158.129C65.5754 158.125 65.4165 158.13 65.2583 158.146C64.9933 158.157 64.7322 158.214 64.4875 158.316C64.3167 158.385 64.1674 158.497 64.0544 158.642C63.9445 158.798 63.8773 158.979 63.8593 159.169C63.8341 159.374 63.8406 159.582 63.8784 159.785C63.8784 159.837 63.8974 159.892 63.9093 159.944C63.9857 160.242 64.095 160.531 64.2353 160.806C64.3913 161.097 64.572 161.373 64.7753 161.633L64.9562 161.846C65.1144 162.036 65.2862 162.214 65.4701 162.38L65.5486 162.453C66.5179 163.311 67.6622 163.951 68.9034 164.329L69.2769 164.445H69.2959C69.4353 164.485 69.5563 164.572 69.6386 164.691C69.721 164.81 69.7597 164.953 69.7483 165.097C69.7368 165.241 69.6759 165.376 69.5758 165.481C69.4757 165.585 69.3424 165.652 69.1984 165.671C67.7835 165.838 66.3509 165.578 65.087 164.924C64.6787 164.716 64.2908 164.47 63.9283 164.19C63.6045 163.943 63.3036 163.667 63.029 163.367L62.8719 163.197C62.5504 162.821 62.2652 162.415 62.0202 161.985C61.7928 161.565 61.6117 161.121 61.4801 160.662C61.3134 160.095 61.2537 159.502 61.304 158.914C61.3573 158.282 61.5773 157.674 61.9416 157.153C62.3172 156.632 62.8242 156.217 63.412 155.951C63.925 155.719 64.4751 155.578 65.0371 155.535C65.2932 155.51 65.5507 155.501 65.8079 155.509C66.0661 155.511 66.3238 155.533 66.5788 155.573C67.5539 155.72 68.4944 156.04 69.3554 156.518C69.6909 156.7 70.0097 156.891 70.3071 157.092C70.7497 157.376 71.166 157.673 71.5705 157.969L72.1415 158.401C72.9291 157.95 74.6754 158.278 76.4099 159.273C78.3443 160.383 79.5672 161.919 79.2532 162.803C79.3816 162.85 79.5077 162.9 79.6362 162.942C81.0954 163.451 82.615 163.768 84.1568 163.887C85.0152 163.946 85.8762 163.958 86.7359 163.923C87.771 163.441 88.88 163.135 90.0169 163.018C90.8933 162.913 91.7792 162.913 92.6555 163.018C92.9196 162.94 93.179 162.857 93.4383 162.767C94.8639 162.308 96.186 161.578 97.3308 160.617C97.8611 160.162 98.3178 159.629 98.6846 159.037C99.0204 158.517 99.2253 157.924 99.2818 157.309C99.2878 157.205 99.2814 157.1 99.2627 156.998C99.2614 156.984 99.2614 156.971 99.2627 156.957C99.2531 156.927 99.2412 156.898 99.227 156.87L99.1509 156.674C99.0582 156.459 98.9184 156.268 98.7417 156.114C98.4324 155.835 97.859 155.66 97.1357 155.601C96.3558 155.546 95.5735 155.532 94.7921 155.559C93.9665 155.573 93.11 155.582 92.2392 155.542C90.4412 155.492 88.6652 155.136 86.9881 154.491C86.1438 154.148 85.3357 153.723 84.5756 153.222C84.4471 153.135 84.3234 153.047 84.1973 152.957C83.5882 152.527 83.0145 152.049 82.4818 151.528C82.2439 151.303 82.006 151.055 81.7918 150.819L81.5539 150.564L81.3945 150.387L81.3326 150.321L81.1304 150.084L80.7307 149.626C80.1961 149.016 79.6521 148.416 79.0985 147.826C77.797 146.431 76.4197 145.107 74.9729 143.861C74.3891 143.36 73.7935 142.88 73.186 142.42C72.7578 142.095 72.3239 141.78 71.8846 141.475C71.3897 141.135 70.8829 140.808 70.369 140.501C69.5696 140.019 68.7435 139.581 67.8946 139.19L67.8065 139.15C67.6971 139.098 67.5853 139.051 67.4734 139.001L67.4235 138.98L67.1855 138.876L67.0547 138.821L66.9024 138.76L66.7501 138.701L66.4646 138.59C65.4551 138.208 64.4148 137.913 63.3549 137.706L63.0884 137.659L63.0028 137.642L62.7649 137.605L62.4936 137.565H62.4603L62.2676 137.539L62.1201 137.52H62.0987L61.8845 137.496L61.5871 137.468L61.3492 137.451H61.2421L60.9804 137.435C60.2381 137.396 59.494 137.409 58.7534 137.472C57.2121 137.608 55.6963 137.95 54.2471 138.488C52.4562 139.153 50.7542 140.033 49.1793 141.109C48.1531 141.803 47.1702 142.559 46.2361 143.372C45.9054 143.665 45.5818 143.97 45.2844 144.284C43.3981 146.182 41.9058 148.43 40.8923 150.899C39.7986 153.604 39.2333 156.491 39.2268 159.405C39.2268 159.615 39.2268 159.826 39.2268 160.036C39.2427 160.891 39.2998 161.744 39.3981 162.595C39.4664 163.181 39.5528 163.764 39.6575 164.345C40.3313 168.024 41.7249 171.536 43.7593 174.682C43.8783 174.866 44.0306 175.079 44.2066 175.313C45.5305 177.066 47.1121 178.612 48.8985 179.899L50.426 181.002C51.2611 181.239 51.8417 181.633 52.0106 182.146L52.7387 182.67H52.7672C54.1235 183.371 55.542 183.946 57.0047 184.388C68.2015 187.802 84.5613 184.972 105.887 175.904C106.08 175.822 106.288 175.78 106.498 175.78C106.708 175.78 106.916 175.822 107.11 175.904C128.694 185.057 145.194 187.833 156.398 184.232C158.257 183.642 160.035 182.828 161.695 181.808H161.725L165.532 178.737C166.97 177.587 168.214 176.218 169.218 174.68L169.237 174.651C169.632 174.037 170.004 173.407 170.353 172.761C171.163 171.266 171.839 169.702 172.373 168.088C173.239 165.482 173.708 162.761 173.765 160.017ZM173.341 70.8638L173.579 70.9606C171.706 61.5241 166.824 49.38 157.912 39.0267C153.804 34.2349 148.983 30.0956 143.615 26.7526C143.097 27.12 142.516 27.3921 141.901 27.5559C141.573 27.6378 141.236 27.6783 140.897 27.6764C139.408 27.6764 137.704 26.9534 135.356 25.954C130.281 23.7969 121.794 20.1867 106.489 19.9599C91.1851 20.1962 82.6959 23.7969 77.621 25.954C74.7302 27.185 72.8196 27.9977 71.0756 27.5559C70.4332 27.3837 69.8283 27.0954 69.2912 26.7053C63.8902 30.0554 59.0408 34.2112 54.9133 39.0267C45.9935 49.387 41.1136 61.5477 39.2316 70.989L39.5457 70.8638C40.4268 70.4768 41.3895 70.3081 42.3508 70.3723C50.4522 42.7952 76.1363 22.5872 106.489 22.5872C136.841 22.5872 162.52 42.7905 170.619 70.3653C171.553 70.3191 172.485 70.4897 173.341 70.8638ZM169.772 118.243C169.282 118.298 168.786 118.25 168.316 118.102C167.846 117.954 167.413 117.709 167.046 117.383C166.988 117.333 166.934 117.279 166.879 117.224C163.745 123.782 159.553 129.786 154.469 135.001C156.218 135.157 157.939 135.545 159.584 136.156C159.789 136.232 160.001 136.296 160.203 136.378L160.802 136.638C161.202 136.813 161.609 136.974 161.992 137.182C162.375 137.39 162.706 137.548 163.065 137.737C163.439 136.43 163.8 135.006 164.178 133.472C164.892 130.623 165.606 127.674 166.672 124.79C167.493 122.515 168.531 120.322 169.77 118.243H169.772ZM145.104 17.3799C145.14 16.268 144.85 15.1696 144.269 14.2186C140.802 8.86477 125.37 3.08329 106.489 3.08329C87.6067 3.08329 72.1748 8.86477 68.7083 14.2186C68.1429 15.1435 67.8525 16.2083 67.8708 17.2901C67.8786 18.3838 68.0866 19.4669 68.4846 20.4868C68.5036 20.5411 68.5251 20.5931 68.5441 20.6474C68.8465 21.4227 69.2462 22.157 69.7337 22.8329C70.4475 23.8087 71.2327 24.4135 71.8298 24.5624C72.2129 24.6593 72.8886 24.4939 73.7333 24.1891C74.4994 23.915 75.3987 23.5275 76.3814 23.1141C81.6681 20.8672 90.5142 17.1058 106.446 16.8719H106.493C122.434 17.1081 131.271 20.8672 136.558 23.1141C137.293 23.4259 137.985 23.7236 138.62 23.9694C139.751 24.4088 140.652 24.6782 141.119 24.5624C141.702 24.4159 142.463 23.8323 143.17 22.892C143.682 22.2016 144.101 21.4468 144.414 20.6474C144.426 20.6167 144.435 20.5884 144.447 20.56C144.857 19.548 145.08 18.4706 145.104 17.3799ZM67.0951 24.4348C66.5838 23.7069 66.1508 22.9276 65.8032 22.1099C60.0895 25.737 54.9511 30.1882 50.5569 35.3173C40.5878 46.8944 35.3153 60.4089 33.4262 70.9417C33.9576 70.9299 34.488 70.9935 35.0013 71.1308L36.0553 71.4119C37.9016 61.3068 43.0146 48.1206 52.5697 37.0232C56.7585 32.1373 61.6535 27.8951 67.0951 24.4348ZM53.4096 136.156C55.0512 135.547 56.7676 135.158 58.5131 135.001C53.4108 129.77 49.2072 123.743 46.0696 117.16C45.9958 117.238 45.9197 117.314 45.8317 117.383C44.9133 118.202 43.6903 118.458 42.3556 118.108L40.8138 117.699C40.3059 117.564 39.7676 117.596 39.2792 117.789L37.8064 118.37C37.149 118.632 36.4473 118.768 35.7388 118.769C34.7049 118.763 33.693 118.473 32.8149 117.931C31.9369 117.389 31.227 116.616 30.7638 115.698C30.3615 115.618 29.9642 115.515 29.5742 115.388C29.2768 115.677 28.977 115.989 28.682 116.334C26.1837 119.214 25.401 123.346 26.5406 127.674C27.9682 133.168 32.1343 137.765 37.3829 139.674C39.8298 140.555 42.3967 141.063 44.9965 141.182C45.1916 141.009 45.3891 140.839 45.5937 140.688L46.6097 139.906C46.9428 139.637 47.3092 139.41 47.6613 139.162C48.0135 138.914 48.3632 138.668 48.7391 138.453L49.8526 137.789C50.2333 137.581 50.6235 137.39 51.0089 137.189C51.3944 136.988 51.7965 136.82 52.1986 136.645L52.7981 136.386C52.9932 136.296 53.2026 136.23 53.4096 136.156ZM46.2718 180.922C45.7698 180.499 45.2606 180.041 44.761 179.542C41.9559 176.757 39.7527 172.898 38.6963 170.091C38.3441 169.161 38.0372 168.201 37.7755 167.256C37.5015 166.245 37.2807 165.219 37.1141 164.185C37.0617 163.875 37.0189 163.566 36.9784 163.254C36.087 163.467 35.198 163.637 34.3113 163.767L34.0163 163.807C27.8064 164.65 23.3358 163.658 20.7257 160.858C20.0342 160.113 19.4909 159.245 19.1245 158.299C18.3798 156.409 18.2703 154.115 18.8342 151.632C19.8263 147.27 22.7386 144.39 24.8656 142.29C25.6984 141.468 26.8285 140.35 26.9284 139.896C26.8713 139.8 26.543 139.483 25.6032 139.254C23.2239 138.675 18.9127 139.155 14.6086 141.406C14.6382 141.437 14.666 141.469 14.6919 141.503C15.4057 142.432 14.5896 144.206 12.8979 145.47C11.2063 146.734 9.26243 147.006 8.56054 146.077C8.55288 146.07 8.54646 146.061 8.54151 146.051C7.78307 146.882 7.09622 147.774 6.48821 148.719C5.80125 149.792 5.21431 150.925 4.73469 152.104C4.94578 152.042 5.16947 152.035 5.38423 152.083C6.52152 152.35 7.04971 154.224 6.57386 156.272C6.09801 158.321 4.75849 159.76 3.6212 159.493C3.44726 159.449 3.28492 159.368 3.14535 159.256C3.01392 161.675 3.23104 164.1 3.79013 166.458C3.93288 167.069 4.09626 167.671 4.28025 168.263C4.43071 168.009 4.65222 167.804 4.9179 167.672C6.07184 167.112 7.75873 168.192 8.68902 170.082C9.61932 171.972 9.43611 173.957 8.28217 174.517C7.96599 174.664 7.60984 174.704 7.2686 174.63C9.62789 178.281 13.0301 181.15 17.0402 182.871C17.0391 182.857 17.0391 182.843 17.0402 182.829C17.3281 181.614 19.6574 181.12 22.2746 181.728C24.8918 182.335 26.7429 183.816 26.4526 185.035C26.4288 185.141 26.3878 185.243 26.3312 185.335C31.891 186.18 37.5526 186.113 43.0908 185.139C42.3437 184.87 41.8559 184.457 41.7703 183.937C41.5775 182.739 43.569 181.421 46.2695 180.922H46.2718ZM44.3399 113.191C44.3632 112.644 44.3313 112.095 44.2447 111.554C43.9497 109.638 43.6808 107.821 43.4358 106.079C42.1771 97.1013 41.6109 90.1527 41.9701 82.5803C42.0677 80.5035 42.2342 78.3795 42.4769 76.1538C42.7196 73.9282 42.2033 73.4982 42.1985 73.4958C42.1414 73.4509 41.9344 73.4013 41.53 73.4769C41.2448 73.5332 40.9659 73.6171 40.6972 73.7273L39.2173 74.3133C39.033 74.3865 38.8447 74.4496 38.6534 74.5023C37.8446 74.7248 36.9958 74.7643 36.1695 74.6181C36.022 74.5913 35.8745 74.5582 35.7269 74.5188L35.5675 74.4763L34.1876 74.1101C33.9781 74.054 33.7621 74.0254 33.5452 74.025C33.3379 74.0257 33.1316 74.0527 32.9313 74.1054C32.5934 74.1963 32.2788 74.3573 32.0082 74.5779C31.7071 74.8199 31.469 75.1301 31.3137 75.4824C31.1584 75.8347 31.0906 76.2189 31.1159 76.6027L31.1469 77.1627L31.3848 81.0304L31.568 84.1019L31.7369 86.9371L32.6339 101.95L32.8266 105.189L32.8671 105.867L33.0503 108.938L33.0883 109.56L33.2811 112.813V112.853L33.3096 113.409C33.3322 113.792 33.4462 114.165 33.6424 114.497C33.8385 114.828 34.1112 115.109 34.4379 115.315C34.7646 115.521 35.1359 115.647 35.5214 115.683C35.9068 115.719 36.2953 115.663 36.6549 115.521L38.1371 114.935C38.2918 114.873 38.4488 114.819 38.613 114.772C39.5964 114.483 40.641 114.468 41.6323 114.729L43.174 115.138C43.6023 115.251 43.7213 115.138 43.7784 115.095C44.0567 114.826 44.2923 114.143 44.3375 113.191H44.3399ZM38.594 149.943C39.4774 147.792 40.6874 145.788 42.1819 144C40.1799 143.729 38.213 143.246 36.3146 142.559C33.8795 141.663 31.6422 140.307 29.7264 138.566C29.8538 138.824 29.9443 139.099 29.9953 139.381C30.3189 141.248 28.8057 142.744 27.0545 144.473C25.0964 146.41 22.6553 148.82 21.863 152.308C21.4276 154.226 21.2729 156.901 23.0027 158.76C23.011 158.691 23.0253 158.623 23.0455 158.557C23.4 157.376 25.5413 156.988 27.8278 157.671C30.0619 158.342 31.6061 159.797 31.3396 160.957C32.1327 160.91 32.9702 160.824 33.8521 160.7C34.8217 160.557 35.7827 160.363 36.731 160.116C36.731 160.093 36.731 160.069 36.731 160.045C36.6574 156.587 37.2912 153.15 38.594 149.943ZM30.0619 111.107L29.943 109.137L29.7598 106.065L29.6765 104.648L29.4885 101.538L28.4607 84.3027L28.2775 81.2312L28.0871 78.0652C26.6409 78.8234 25.4616 80.0011 24.7062 81.4415C24.1939 82.4154 23.8924 83.485 23.8211 84.5815C23.8009 84.9096 23.8009 85.2386 23.8211 85.5667L24.7871 101.746L24.9727 104.839L25.0036 105.38C25.0236 105.706 25.0633 106.03 25.1226 106.351C25.3233 107.432 25.7487 108.46 26.3717 109.368C27.0648 110.377 27.9812 111.215 29.0507 111.818C29.3886 111.544 29.7407 111.315 30.0619 111.107ZM26.8856 136.412C27.3068 136.542 27.7135 136.716 28.099 136.929C25.9292 134.493 24.3646 131.585 23.5309 128.44C22.1366 123.121 23.1573 117.971 26.3289 114.316C26.4367 114.188 26.5462 114.065 26.6572 113.947C25.0197 112.819 23.7166 111.275 22.8837 109.477C21.7827 109.389 20.7151 109.059 19.7573 108.513C18.3679 108.749 17.183 108.591 16.6381 108.123C14.2809 109.721 12.235 111.731 10.5996 114.054C10.7191 114.064 10.8355 114.098 10.9422 114.153C11.8534 114.625 11.7511 116.598 10.7043 118.552C9.65738 120.506 8.08707 121.702 7.18057 121.224C7.13624 121.202 7.0947 121.176 7.05685 121.144C6.11189 124.082 5.58729 127.136 5.49844 130.219C5.47464 130.912 5.47464 131.601 5.49844 132.286C5.65819 132.12 5.87087 132.014 6.10039 131.986C7.12347 131.873 8.14893 133.553 8.38924 135.736C8.62954 137.919 7.99666 139.781 6.97358 139.892C6.80156 139.909 6.62801 139.88 6.47155 139.807C6.70948 140.837 7.01164 141.85 7.34712 142.84C14.1875 136.305 22.8551 135.145 26.8856 136.412ZM21.9558 106.139C21.932 105.942 21.9153 105.742 21.9034 105.543L21.7131 102.382L20.7209 85.7368C20.7209 85.536 20.7019 85.3352 20.7019 85.1343C19.9387 85.5263 19.3057 86.1288 18.8789 86.8694C18.4522 87.61 18.25 88.4572 18.2965 89.3092L19.0697 102.25C19.0888 102.577 19.1447 102.901 19.2363 103.216C19.3858 103.741 19.6345 104.233 19.9691 104.667C20.3067 105.105 20.7229 105.479 21.1968 105.768C21.4372 105.915 21.6913 106.039 21.9558 106.139Z" fill="black"/>
<path d="M167.184 156.825C168.909 156.825 170.305 158.614 170.305 160.823C170.305 163.032 168.909 164.823 167.184 164.823C165.459 164.823 164.062 163.032 164.062 160.823C164.062 158.614 165.459 156.825 167.184 156.825Z" fill="black"/>
<path d="M164.243 145.305C166.277 146.195 167.362 148.189 166.667 149.756C165.972 151.322 163.755 151.868 161.721 150.977C159.686 150.087 158.602 148.093 159.299 146.526C159.996 144.96 162.208 144.409 164.243 145.305Z" fill="black"/>
<path d="M164.278 173.657C165.573 174.791 165.43 177.052 163.96 178.708C162.489 180.364 160.248 180.789 158.963 179.653C157.678 178.517 157.805 176.255 159.275 174.602C160.745 172.948 162.979 172.52 164.278 173.657Z" fill="black"/>
<path d="M152.33 148.955C152.827 149.81 151.58 151.45 149.546 152.617C147.512 153.784 145.456 154.035 144.959 153.182C144.462 152.329 145.708 150.684 147.745 149.517C149.782 148.35 151.833 148.1 152.33 148.955Z" fill="black"/>
<path d="M140.231 104.737C141.021 106.755 141.19 108.961 140.718 111.075C140.246 113.188 139.153 115.116 137.578 116.613C136.003 118.11 134.016 119.11 131.868 119.485C129.721 119.861 127.51 119.597 125.514 118.725C123.518 117.852 121.828 116.412 120.656 114.586C119.484 112.76 118.884 110.63 118.932 108.466C118.979 106.301 119.671 104.199 120.922 102.425C122.172 100.651 123.924 99.2851 125.956 98.4999C127.305 97.9782 128.745 97.7258 130.193 97.757C131.641 97.7881 133.069 98.1023 134.395 98.6816C135.721 99.2608 136.918 100.094 137.92 101.133C138.921 102.172 139.707 103.397 140.231 104.737ZM135.161 115.133C136.113 114.011 136.113 112.404 135.161 111.547C134.209 110.689 132.677 110.904 131.73 112.019C130.783 113.134 130.778 114.748 131.73 115.606C132.682 116.463 134.214 116.262 135.161 115.138V115.133ZM127.455 110.372C129.558 110.044 130.978 108.01 130.631 105.81C130.284 103.61 128.295 102.11 126.194 102.441C124.093 102.772 122.668 104.803 123.017 107.003C123.367 109.203 125.351 110.708 127.455 110.377V110.372Z" fill="black"/>
<path d="M114.514 112.7C114.538 115.02 114.086 117.023 113.17 118.656C112.516 119.848 111.551 120.843 110.374 121.535C109.198 122.227 107.856 122.59 106.489 122.585C105.122 122.59 103.779 122.227 102.603 121.535C101.427 120.842 100.462 119.847 99.81 118.654C98.894 117.023 98.4419 115.02 98.4657 112.7C98.4674 112.505 98.5184 112.314 98.6139 112.144C98.7094 111.975 98.8464 111.831 99.0122 111.728C99.1781 111.624 99.3675 111.564 99.563 111.552C99.7586 111.54 99.954 111.577 100.131 111.66C100.162 111.677 103.462 113.175 106.498 113.175C109.534 113.175 112.839 111.677 112.872 111.66C113.049 111.579 113.243 111.544 113.437 111.556C113.631 111.569 113.819 111.63 113.984 111.733C114.148 111.837 114.284 111.979 114.378 112.148C114.473 112.317 114.524 112.507 114.526 112.7H114.514ZM111.135 117.529C111.65 116.569 111.973 115.52 112.087 114.439C110.659 114.911 108.556 115.488 106.479 115.488C104.402 115.488 102.308 114.921 100.881 114.436C100.994 115.518 101.317 116.567 101.832 117.527C101.87 117.598 101.913 117.668 101.956 117.737C102.425 118.511 103.088 119.152 103.88 119.596C104.672 120.039 105.567 120.272 106.477 120.27C107.386 120.271 108.281 120.039 109.073 119.595C109.865 119.151 110.528 118.511 110.997 117.737C111.054 117.661 111.095 117.598 111.135 117.527V117.529Z" fill="black"/>
<path d="M87.0216 98.5001C89.0535 99.2853 90.8054 100.651 92.0556 102.425C93.3059 104.199 93.9984 106.301 94.0457 108.466C94.093 110.631 93.4929 112.761 92.3212 114.587C91.1495 116.413 89.459 117.853 87.4632 118.725C85.4675 119.597 83.2561 119.862 81.1088 119.486C78.9616 119.11 76.9747 118.11 75.3995 116.613C73.8243 115.116 72.7314 113.189 72.2591 111.075C71.7868 108.961 71.9562 106.756 72.746 104.738C73.2703 103.397 74.0557 102.172 75.057 101.132C76.0584 100.093 77.2562 99.2602 78.582 98.6809C79.9078 98.1016 81.3356 97.7875 82.7837 97.7565C84.2318 97.7254 85.6718 97.9781 87.0216 98.5001ZM89.9647 107.006C90.3145 104.815 88.8917 102.772 86.7884 102.443C84.6851 102.115 82.6984 103.625 82.3511 105.813C82.0037 108 83.4241 110.046 85.5274 110.375C87.6306 110.703 89.6173 109.201 89.9647 107.008V107.006ZM81.2542 115.618C82.2059 114.76 82.2059 113.153 81.2542 112.031C80.3025 110.909 78.7703 110.691 77.8233 111.559C76.8764 112.426 76.8716 114.023 77.8233 115.145C78.775 116.267 80.3049 116.48 81.2542 115.62V115.618Z" fill="black"/>
<path d="M65.2537 149.517C67.288 150.684 68.5371 152.324 68.0375 153.182C67.5378 154.039 65.4869 153.784 63.4526 152.617C61.4184 151.45 60.1693 149.81 60.6665 148.955C61.1638 148.1 63.2171 148.35 65.2537 149.517Z" fill="black"/>
<path d="M53.7238 174.602C55.1942 176.256 55.3369 178.522 54.0426 179.653C52.7483 180.785 50.5094 180.362 49.0462 178.708C47.5829 177.055 47.433 174.791 48.7273 173.657C50.0217 172.523 52.251 172.948 53.7238 174.602Z" fill="black"/>
<path d="M53.6975 146.524C54.3947 148.09 53.3097 150.082 51.2755 150.975C49.2412 151.868 47.0285 151.32 46.3313 149.753C45.6342 148.187 46.7192 146.193 48.7534 145.302C50.7877 144.411 53.0028 144.957 53.6975 146.524Z" fill="black"/>
<path d="M45.8128 156.825C47.5377 156.825 48.9367 158.614 48.9367 160.823C48.9367 163.032 47.5377 164.823 45.8128 164.823C44.0878 164.823 42.6912 163.032 42.6912 160.823C42.6912 158.614 44.0902 156.825 45.8128 156.825Z" fill="black"/>
</g>
<defs>
<clipPath id="clip0_1932_1128">
<rect width="211" height="189" fill="white"/>
</clipPath>
</defs>
</svg>
