<svg width="227" height="227" viewBox="0 0 227 227" fill="none" xmlns="http://www.w3.org/2000/svg">
<g clip-path="url(#clip0_1932_1358)">
<path d="M178.085 95.5522C184.983 102.511 188.738 110.059 189.777 118.996C185.025 119.955 180.388 121.418 175.941 123.36C176.255 122.74 176.537 122.106 176.786 121.458C179.649 114.323 178.749 106.294 176.278 99.1932C177.121 98.1177 177.736 96.8783 178.085 95.5522Z" fill="white"/>
<path d="M222.955 50.938C223.249 51.5777 223.402 52.5789 222.978 54.1723C222.38 53.1306 222.373 52.0819 222.955 50.938Z" fill="white"/>
<path d="M220.95 55.1733L212.704 54.7976C212.508 54.7883 212.315 54.7345 212.141 54.6403C211.968 54.546 211.817 54.4137 211.701 54.253C211.018 53.3017 210.966 52.1126 211.538 50.5478C211.622 50.3297 211.769 50.1424 211.961 50.0108C212.152 49.8791 212.379 49.8093 212.61 49.8106H212.653L220.844 50.1292C220.478 50.8936 220.285 51.73 220.276 52.5787C220.28 53.4872 220.512 54.3799 220.95 55.1733Z" fill="white"/>
<path d="M212.598 57.0757L215.64 57.216C215.177 58.6898 214.421 60.0527 213.418 61.2208C212.499 62.2937 211.342 63.1315 210.04 63.6656C206.358 62.1935 203.816 57.958 203.816 53.2017C203.816 48.4454 206.358 44.198 210.045 42.7378C212.127 43.5654 213.901 45.2943 215.025 47.6439L212.737 47.5536C212.021 47.5213 211.313 47.72 210.715 48.1211C210.118 48.5221 209.663 49.1046 209.416 49.7843C208.586 52.0673 208.737 54.0245 209.866 55.606C210.181 56.0436 210.591 56.4031 211.065 56.6577C211.538 56.9122 212.063 57.0552 212.598 57.0757Z" fill="white"/>
<path d="M201.559 53.1851C201.559 57.637 203.476 61.7298 206.485 64.1674C201.851 63.7037 198.197 58.9545 198.197 53.1851C198.197 47.4157 201.851 42.6713 206.482 42.2075C203.474 44.6404 201.559 48.7332 201.559 53.1851Z" fill="white"/>
<path d="M223.73 48.3218C223.666 48.2671 223.603 48.2148 223.535 48.1624C223.349 48.0163 223.122 47.9331 222.887 47.9246L217.522 47.7177C215.715 43.0066 211.656 39.8912 207.229 39.8912C201.003 39.8912 195.938 45.8556 195.938 53.1875C195.938 60.5194 201.003 66.4862 207.229 66.4862C212.16 66.4862 216.464 62.762 217.965 57.316L223.337 57.5538H223.447C222.006 68.9143 216.453 80.1843 205.816 86.6767C203.397 87.0307 200.957 87.2206 198.513 87.2451C184.832 79.3639 183.173 64.8072 183.435 56.6953C183.906 41.7676 191.386 26.7852 200.685 21.7554L202.614 21.8124H202.732C211.597 21.4296 218.834 27.8221 222.095 38.909C222.983 41.976 223.531 45.1328 223.73 48.3218Z" fill="white"/>
<path d="M196.698 21.6414C188.033 28.2551 181.621 42.26 181.171 56.6265C180.761 69.6802 185.456 80.5056 194.203 87.1121C188.295 86.6665 182.509 85.1816 177.107 82.7244C166.875 76.7623 164.96 54.3434 170.147 38.9663C170.146 38.9608 170.146 38.9551 170.147 38.9496C172.838 31.2848 183.34 22.2312 185.67 21.2847C185.776 21.3109 185.884 21.3253 185.993 21.3275L196.698 21.6414Z" fill="white"/>
<path d="M21.408 3.25586H30.5606C27.1846 6.46162 24.0018 11.3535 21.4528 17.3726C17.8317 25.9221 15.9447 35.7058 16.2745 44.2339C16.6774 54.5789 20.223 62.6884 26.4284 67.7777L17.019 66.6932C7.93226 63.1664 2.9307 53.4136 3.29822 39.8866C3.50789 31.9602 5.61171 23.4131 9.07252 16.438C12.5333 9.46285 16.9012 4.78502 21.408 3.25586Z" fill="white"/>
<path d="M57.484 26.9232C55.2765 27.4178 53.2976 28.7092 51.7568 30.6307C50.5553 25.7745 47.0827 22.1716 42.8044 21.9124C40.0409 21.7459 37.3858 22.9612 35.3032 25.337C33.3031 27.6343 32.0898 30.7592 31.8895 34.1361C31.4678 41.2159 35.6778 47.2517 41.2754 47.5918C41.4403 47.5918 41.6052 47.606 41.7678 47.606C44.4629 47.606 46.9649 46.2647 48.8355 44.0626C48.9816 43.8913 49.1229 43.7154 49.2596 43.5346C49.6056 44.5304 50.1401 45.4487 50.8333 46.2386C51.1694 46.6144 51.5454 46.9518 51.9547 47.2445C51.3092 49.6061 50.2891 51.8796 49.2195 54.2696C47.7353 57.5753 46.2016 60.9903 45.4736 65.0308C42.6701 67.3566 39.035 68.491 34.4268 68.491H33.9721C22.6214 63.8465 19.8368 52.6786 19.4975 44.0959C19.1842 36.0387 20.9794 26.7638 24.419 18.6496C27.5924 11.1584 31.8683 5.45317 35.9205 3.27002C46.0037 3.69095 55.4815 7.02513 57.484 26.9232Z" fill="white"/>
<path d="M41.3766 45.3182C37.03 45.0423 33.7788 40.0862 34.1251 34.274C34.2948 31.4012 35.3031 28.7638 36.9805 26.8446C38.3681 25.2537 40.0644 24.3309 41.8313 24.1978C39.2398 26.4427 37.5035 30.1003 37.2632 34.1385C36.9876 38.6474 38.6131 42.8425 41.3766 45.3182Z" fill="white"/>
<path d="M49.3937 30.5544H44.9787C44.7839 30.5543 44.5924 30.6051 44.4228 30.7018C44.2531 30.7985 44.1111 30.9377 44.0105 31.1061C42.5687 33.5199 42.5734 36.0003 44.0293 38.281C44.1283 38.4362 44.2633 38.5647 44.4226 38.6555C44.5818 38.7462 44.7606 38.7964 44.9434 38.8018L48.6398 38.916C48.6139 39.3726 48.6115 39.8244 48.6398 40.2691C47.655 42.3001 46.185 43.872 44.4769 44.6925C41.2682 43.1253 39.2492 38.9231 39.5296 34.2738C39.784 29.9931 41.9561 26.2713 44.9882 24.8135C47.0072 25.8123 48.5998 27.9122 49.3937 30.5544Z" fill="white"/>
<path d="M49.9239 33.6678L49.7967 33.9603C49.4345 34.8275 49.1514 35.7262 48.9509 36.6453L45.6409 36.543C45.0284 35.3278 45.0307 34.1268 45.6409 32.8354H49.8485C49.8791 33.1089 49.9027 33.3848 49.9168 33.6654L49.9239 33.6678Z" fill="white"/>
<path d="M70.0268 33.1894C69.3076 33.403 68.6499 33.788 68.1091 34.3119C67.1267 35.2632 66.5848 36.6378 66.4741 38.4571C61.7882 37.3869 58.3509 38.0219 56.8926 40.2906C56.4215 41.0207 55.6817 42.7734 57.0222 45.3466C55.6369 45.4465 54.2211 45.1754 53.2222 44.0576C51.5942 42.2288 51.3987 38.526 52.7722 35.2251C53.4106 33.696 55.3142 30.1335 59.2532 29.9575C64.1653 30.0098 67.7203 31.0729 70.0268 33.1894Z" fill="white"/>
<path d="M151.755 43.0449C151.429 43.8715 151.193 44.731 151.048 45.6086C151.004 45.8747 150.974 46.143 150.959 46.4124L69.6804 39.1067C69.6922 37.9295 69.916 37.0805 70.3542 36.6595C70.7924 36.2386 71.6971 36.0698 72.9787 36.2457H73.0588L151.755 43.0449Z" fill="white"/>
<path d="M128.067 83.3496C128.286 84.4055 128.01 85.3568 127.449 85.4757C126.889 85.5946 126.252 84.8383 126.036 83.7848C125.819 82.7313 126.09 81.78 126.653 81.6587C127.216 81.5374 127.845 82.2961 128.067 83.3496Z" fill="white"/>
<path d="M132.083 75.6396C133.261 75.8156 134.027 77.3495 133.777 79.0689C133.527 80.7883 132.364 82.0368 131.186 81.8608C130.008 81.6849 129.242 80.1509 129.492 78.4315C129.742 76.7121 130.898 75.4636 132.083 75.6396Z" fill="white"/>
<path d="M151.131 101.911C150.763 102.677 150.434 103.458 150.144 104.254C143.783 92.9692 135.278 88.572 124.839 91.1737C124.189 91.3358 123.511 91.3525 122.854 91.2227C122.197 91.0929 121.576 90.8197 121.034 90.4222L115.578 86.4459C115.476 86.3705 115.362 86.3134 115.241 86.2771C100.649 81.8727 85.6487 83.4732 70.6534 91.0048C69.5841 91.5479 68.3869 91.7819 67.1941 91.6812C66.0013 91.5805 64.8593 91.1489 63.8943 90.4341C61.9391 88.9573 59.6425 88.0093 57.2224 87.6802C57.6724 87.3948 58.1365 87.0928 58.4286 86.893C65.5037 82.1306 71.4338 75.8308 75.7845 68.4551C82.0276 59.1946 93.7223 53.5536 107.083 53.3657H107.789C123.831 53.3657 138.569 61.0258 148.419 74.479C146.603 83.4732 148.25 93.2522 151.131 101.911ZM135.817 81.3257C136.475 76.8072 134.046 72.693 130.399 72.1508C126.752 71.6086 123.246 74.8381 122.589 79.3638C121.932 83.8894 124.361 87.9965 128.008 88.5387C131.655 89.0809 135.148 85.8514 135.808 81.3329L135.817 81.3257Z" fill="white"/>
<path d="M115.993 119.895C114.393 122.354 112.65 124.839 110.81 127.227L107.276 125.852C106.921 125.714 106.537 125.671 106.161 125.726C105.785 125.782 105.43 125.934 105.129 126.168C104.828 126.402 104.592 126.71 104.443 127.063C104.294 127.416 104.238 127.802 104.279 128.183L104.91 134.109C103.968 135.087 103.007 136.012 102.041 136.877L97.9253 134.062C97.6016 133.84 97.2255 133.709 96.8352 133.682C96.445 133.654 96.0546 133.732 95.7037 133.906C95.3528 134.081 95.0539 134.346 94.8375 134.675C94.6211 135.004 94.4948 135.385 94.4715 135.779L94.1181 142.238C93.8001 142.376 93.4844 142.502 93.1758 142.618C93.2465 134.471 96.0264 127.788 101.099 123.667C105.198 120.335 110.539 118.998 115.993 119.895Z" fill="white"/>
<path d="M125.084 100.905C123.178 103.997 121.64 107.326 121.296 110.915C120.106 113.162 118.704 115.609 117.128 118.118C110.85 116.848 104.628 118.282 99.8758 122.145C94.2216 126.742 91.1708 134.18 91.2297 143.189C89.3839 143.63 87.4532 143.548 85.6509 142.951L83.9594 136.706C83.8557 136.324 83.6534 135.977 83.3733 135.7C83.0931 135.423 82.7451 135.226 82.3649 135.129C81.9846 135.033 81.5857 135.04 81.209 135.149C80.8322 135.259 80.4911 135.468 80.2206 135.755L78.9861 137.063C78.3934 136.109 77.8592 135.119 77.3864 134.1L79.7777 129.417C79.9425 129.093 80.0265 128.733 80.0224 128.369C80.0183 128.005 79.9263 127.648 79.7543 127.328C79.5823 127.007 79.3355 126.735 79.0354 126.533C78.7352 126.331 78.3908 126.206 78.0319 126.168L74.4792 125.805C74.4274 125.61 74.3779 125.412 74.3261 125.212C73.6476 122.178 73.3837 118.882 74.4392 115.978L81.5705 113.022C85.9239 113.003 90.2691 112.637 94.5656 111.928C105.308 110.185 115.578 106.173 125.084 100.905Z" fill="white"/>
<path d="M78.0533 128.252C78.0746 128.292 78.0857 128.338 78.0857 128.384C78.0857 128.43 78.0746 128.475 78.0533 128.516L76.3901 131.774C75.9189 130.563 75.4697 129.245 75.0425 127.821L77.8319 128.107C77.8781 128.109 77.9228 128.124 77.9617 128.15C78.0005 128.175 78.0321 128.21 78.0533 128.252Z" fill="white"/>
<path d="M82.0913 137.22L83.3281 141.786C82.101 140.936 81.0175 139.892 80.1194 138.694L81.6224 137.103C81.6553 137.066 81.6979 137.038 81.7455 137.025C81.793 137.011 81.8435 137.011 81.891 137.025C81.939 137.035 81.9831 137.059 82.0184 137.094C82.0537 137.128 82.079 137.172 82.0913 137.22Z" fill="white"/>
<path d="M106.581 127.674L109.549 128.829C108.607 129.997 107.643 131.134 106.663 132.226L106.208 127.964C106.204 127.916 106.211 127.868 106.23 127.824C106.249 127.78 106.279 127.741 106.316 127.712C106.354 127.683 106.399 127.664 106.446 127.658C106.493 127.651 106.541 127.656 106.585 127.674H106.581Z" fill="white"/>
<path d="M96.8392 135.669L100.507 138.171C99.1335 139.316 97.666 140.342 96.1206 141.237L96.4151 135.888C96.4175 135.838 96.4329 135.79 96.4599 135.748C96.4868 135.707 96.5243 135.673 96.5684 135.651C96.6126 135.628 96.6618 135.618 96.711 135.622C96.7602 135.625 96.8077 135.641 96.8486 135.669H96.8392Z" fill="white"/>
<path d="M195.69 178.973C198.126 175.908 200.609 174.693 203.42 175.247C203.314 190.764 193.749 199.178 173.429 201.685C173.18 201.715 172.941 201.804 172.731 201.944C172.522 202.085 172.348 202.273 172.223 202.493C166.35 212.912 155.082 220.077 140.494 222.674C120.12 226.299 97.5742 220.591 83.0572 208.139C82.8548 207.963 82.6117 207.842 82.3504 207.787C75.5183 206.286 72.2319 202.634 72.0081 196.296C71.9963 195.964 71.8847 195.645 71.6881 195.379C71.4915 195.113 71.2193 194.915 70.9079 194.809C64.898 192.771 62.3725 187.437 63.1852 178.483C63.2117 178.192 63.16 177.899 63.0356 177.635C62.9113 177.371 62.7188 177.146 62.4785 176.983C57.6772 173.722 55.8113 168.138 56.789 159.931C58.5589 159.593 60.3567 159.425 62.1581 159.43C63.0227 159.43 63.8896 159.468 64.7495 159.537C65.3338 159.596 66.1819 159.715 66.7733 159.774C67.3693 159.884 68.2104 160.027 68.7946 160.143C75.3699 161.546 81.4646 164.452 87.5947 167.261C85.3925 165.362 83.0441 163.642 80.5717 162.119C73.3109 157.644 64.3467 154.573 55.8513 156.749C52.8075 153.311 51.4811 148.959 51.7968 143.479C51.7968 143.429 51.7968 143.379 51.7968 143.329C51.9765 140.593 52.5372 137.896 53.4625 135.317C54.4499 132.56 55.6553 129.887 57.067 127.324C53.7852 131.415 50.8168 135.855 49.1983 140.932C46.0343 138.68 44.4582 134.973 44.4582 129.729C44.4582 126.585 45.0236 122.892 46.1521 118.628C46.2614 118.215 46.2055 117.776 45.9966 117.405C40.5498 107.695 41.4497 98.6605 48.9179 88.111C49.0647 87.9031 49.161 87.6632 49.199 87.4108C49.2371 87.1584 49.2159 86.9005 49.137 86.6579C46.8871 79.7209 46.6775 72.8837 48.5127 66.3318C48.5294 66.2708 48.5428 66.2089 48.5528 66.1463C48.5519 66.1424 48.5519 66.1383 48.5528 66.1344C49.1653 62.2699 50.6731 58.8882 52.1502 55.6158C53.1774 53.3281 54.2328 50.9737 54.9514 48.4814C55.4664 48.5718 55.9883 48.6164 56.511 48.6145C57.0107 48.6135 57.5098 48.5778 58.0046 48.5075C58.0282 48.6621 58.0588 48.8167 58.0965 48.9665C58.8033 51.7513 61.6303 53.133 64.0546 54.0463C62.29 52.5599 59.4935 50.0557 60.8529 47.6728L65.3432 45.6894L60.655 44.9997C59.5336 43.5728 59.3004 42.5146 59.5949 42.058C60.1202 41.2423 62.6999 40.593 67.6638 42.1436C67.772 42.1764 67.8834 42.1979 67.996 42.2078L74.3216 42.7762C74.4535 48.6312 72.8727 52.5718 69.5132 54.8001C69.2877 54.949 69.1029 55.1527 68.9757 55.3925C68.8486 55.6322 68.783 55.9004 68.7852 56.1723C68.8253 61.6635 69.9631 65.5066 72.2743 67.8538C70.7087 70.1152 69.0085 72.2786 67.1832 74.3319C63.9742 77.9167 60.3336 81.082 56.3461 83.7542C55.8537 84.0919 54.8454 84.753 54.3341 85.0598C51.3916 86.696 49.8579 89.6092 50.3291 92.991C51.5071 107.231 58.0517 123.669 66.8204 134.801C64.627 128.435 61.8966 122.454 59.5383 116.337C56.6476 108.756 54.459 100.844 53.9619 92.727C53.9478 92.4345 53.8865 91.9208 53.8959 91.6426C53.9126 91.0038 54.1006 90.3816 54.4402 89.8423C57.349 89.6289 60.2353 90.493 62.5586 92.2728C63.8578 93.2363 65.3957 93.8185 67.0022 93.9549C68.6087 94.0913 70.2213 93.7766 71.6617 93.0457C86.2683 85.6972 100.251 84.1823 114.409 88.413L119.713 92.2728C120.52 92.8633 121.446 93.2689 122.425 93.4611C123.404 93.6533 124.413 93.6276 125.381 93.3858C135.403 90.8839 143.208 95.4357 149.211 107.3C148.925 108.46 148.708 109.636 148.561 110.822C148.216 113.757 148.19 116.72 148.483 119.66C144.007 122.863 141.387 128.295 140.612 133.646C139.738 139.196 140.19 144.785 141.066 150.262C141.126 150.674 141.343 151.046 141.671 151.299C141.999 151.552 142.412 151.665 142.822 151.615C148.372 150.664 151.286 145.156 152.672 140.2C152.691 140.133 152.685 140.062 152.654 139.999C152.624 139.937 152.572 139.888 152.507 139.863C152.443 139.838 152.372 139.837 152.308 139.862C152.244 139.887 152.191 139.936 152.16 139.998C150.386 143.465 147.863 147.37 144.018 148.214C143.352 143.56 143.076 138.79 143.797 134.183C144.457 129.845 146.287 125.672 149.611 122.906L151.286 126.428L151.706 121.018C151.785 120.789 151.813 120.545 151.788 120.304C151.425 117.299 151.416 114.261 151.76 111.253C152.111 108.298 152.975 105.429 154.311 102.777C154.41 102.583 154.469 102.371 154.485 102.154C154.501 101.937 154.474 101.719 154.406 101.512C151.437 92.5106 149.505 82.6317 152.003 73.3236C152.815 70.3046 154.106 67.4383 155.826 64.836C156.009 64.5589 156.104 64.2319 156.097 63.8989C156.09 63.566 155.983 63.2431 155.788 62.9739C154.987 61.8809 154.242 60.7474 153.555 59.5779C152.361 57.4018 150.417 53.8061 152.429 51.8179C152.816 51.4704 153.257 51.19 153.734 50.9879C154.033 50.8892 154.308 50.727 154.54 50.5123C155.178 50.5337 155.814 50.5623 156.446 50.6074C157.758 50.7573 159.129 50.7668 160.215 51.3685C159.414 52.2959 158.215 52.881 157.056 53.5088C156.877 53.6705 156.585 53.8727 156.498 54.12C156.419 54.3253 156.425 54.5536 156.513 54.7547C156.602 54.9558 156.765 55.1133 156.969 55.1925L161.261 56.8739L159.073 54.6289C159.765 54.243 160.423 53.7957 161.037 53.2924C161.517 52.9212 161.892 52.4291 162.123 51.8655C162.46 51.0189 161.959 50.0533 161.181 49.6467C159.732 48.8714 158.074 48.8 156.585 48.6502C155.854 48.5979 155.126 48.5646 154.403 48.5432C154.394 48.5374 154.386 48.5301 154.38 48.5218C153.48 47.8083 152.931 46.7215 152.66 45.5586C152.48 44.7475 152.388 43.9189 152.387 43.0877C152.681 43.0966 152.971 43.0242 153.228 42.8783C153.484 42.7324 153.696 42.5187 153.84 42.2601C154.992 40.1911 157.567 37.7416 166.541 39.618C164.105 47.9457 163.463 56.703 164.656 65.3021C166.018 74.7101 169.603 81.6971 174.772 85.1145L175.06 92.0635C175.06 92.1158 175.06 92.1705 175.074 92.2228C175.122 92.5559 175.147 92.8921 175.147 93.2288C175.15 93.8862 175.045 94.5397 174.836 95.1622C174.494 96.1172 173.952 96.9862 173.246 97.7092C173.121 97.8428 173.019 97.9963 172.944 98.1635L168.894 103.766L173.526 101.15C174.803 105.12 175.569 109.279 175.293 113.424C174.985 118.131 173.233 122.624 170.28 126.28L164.915 130.561L170.536 129.182C172.591 134.652 172.777 139.272 171.085 142.949C169.125 147.215 164.489 150.521 157.339 152.776C157.265 152.799 157.194 152.828 157.124 152.861L151.286 154.105L154.757 155.108C147.625 162.659 144.023 171.929 144.023 182.731C144.023 183.711 144.053 184.702 144.113 185.706C144.113 185.706 144.113 185.73 144.113 185.742C144.584 194.065 149.234 201.223 157.977 201.892C154.834 200.241 151.833 198.289 150 195.261C149.323 194.141 148.793 192.937 148.422 191.68C150.419 193.535 152.639 194.752 154.898 195.185C157.878 195.754 160.788 194.966 163.351 192.907C163.647 192.667 163.85 192.329 163.924 191.953C163.998 191.577 163.939 191.186 163.756 190.85C156.031 176.697 161.714 165.08 170.85 159.708C171.222 159.72 171.476 159.81 171.604 159.979C171.787 160.217 172.593 161.736 170.489 167.813C170.403 168.062 170.378 168.328 170.417 168.589C170.456 168.85 170.556 169.098 170.711 169.311C173.578 173.263 174.716 177.095 174.28 181.37C174.25 181.653 174.294 181.938 174.408 182.198C174.522 182.458 174.701 182.683 174.927 182.851C175.154 183.02 175.42 183.125 175.699 183.158C175.979 183.19 176.262 183.148 176.52 183.035C182.895 180.265 188.707 179.13 194.305 179.577C194.567 179.599 194.831 179.555 195.072 179.45C195.314 179.345 195.526 179.181 195.69 178.973ZM131.904 96.7128C132.974 95.2859 131.252 93.419 129.76 94.3537C122.434 98.972 114.683 102.915 106.522 105.614C98.3707 108.347 89.8393 109.748 81.2502 109.764C81.0395 109.765 80.8308 109.806 80.6354 109.885L73.5041 112.846L61.7246 102.573L71.372 114.996C69.5038 120.387 71.0045 126.221 72.8044 131.405C78.8802 148.944 91.145 151.28 104.505 139.077C112.751 131.467 118.905 121.914 124.295 112.185C124.417 111.96 124.485 111.709 124.495 111.453C124.58 110.148 124.864 108.864 125.338 107.648C126.849 103.688 129.355 100.159 131.904 96.7128ZM106.487 147.389C113.74 140.428 119.329 131.829 123.63 122.761C117.253 132.326 110.256 141.641 100.913 148.35C94.9192 152.652 86.4615 155.889 80.5717 149.648C76.2652 145.092 74.1566 138.559 71.4709 132.856C71.2471 141.417 74.4276 151.363 82.6544 155.325C91.2817 159.116 100.38 153.218 106.487 147.389ZM110.619 168.676C109.542 169.042 108.633 169.413 107.712 169.703C104.856 170.735 101.933 170.728 98.9006 170.845C102.507 173.059 108.565 172.98 110.614 168.676H110.619ZM101.044 208.184C104.68 207.74 107.877 204.008 107.389 200.26C106.263 201.687 105.629 203.171 104.635 204.607C103.643 205.993 102.43 207.202 101.044 208.184ZM108.034 192.336C106.972 193.304 106.133 194.274 105.24 195.14C102.376 198.217 99.2352 198.919 95.1312 198.85C100.472 201.735 107.462 198.672 108.034 192.336ZM105.346 180.288C104.538 181.216 103.653 182.073 102.701 182.85C99.8335 185.228 96.0335 185.425 92.4431 185.608C97.2114 187.373 104.425 186.265 105.346 180.288ZM85.0244 201.889C79.8155 191.608 77.4172 184.184 78.3572 172.474C74.5901 182.405 77.1227 194.714 85.0244 201.889Z" fill="white"/>
<path d="M160.17 51.3611C159.087 50.7594 157.716 50.7499 156.401 50.6001C155.77 50.5549 155.133 50.5264 154.495 50.505C154.263 50.7202 153.987 50.8824 153.687 50.9806C153.21 51.183 152.769 51.4634 152.382 51.8106C150.372 53.7987 152.316 57.3945 153.51 59.5705C154.195 60.7411 154.941 61.8747 155.744 62.9665C155.938 63.2358 156.045 63.5586 156.052 63.8916C156.059 64.2245 155.964 64.5515 155.781 64.8286C154.059 67.4324 152.767 70.3014 151.955 73.3234C149.458 82.6315 151.39 92.508 154.354 101.512C154.422 101.718 154.448 101.937 154.432 102.154C154.415 102.371 154.356 102.583 154.257 102.777C152.926 105.428 152.068 108.294 151.72 111.245C151.375 114.253 151.384 117.291 151.746 120.297C151.773 120.538 151.745 120.782 151.666 121.01L151.249 126.425L149.571 122.903C146.245 125.669 144.416 129.847 143.752 134.18C143.024 138.792 143.307 143.562 143.974 148.212C147.818 147.363 150.334 143.455 152.118 139.995C152.15 139.936 152.203 139.89 152.266 139.867C152.329 139.844 152.398 139.845 152.461 139.87C152.523 139.895 152.574 139.942 152.605 140.002C152.635 140.062 152.643 140.132 152.627 140.197C151.244 145.16 148.327 150.661 142.779 151.612C142.369 151.663 141.957 151.549 141.629 151.296C141.301 151.044 141.084 150.671 141.024 150.259C140.145 144.789 139.695 139.194 140.569 133.643C141.344 128.292 143.962 122.86 148.44 119.657C148.147 116.718 148.172 113.756 148.516 110.822C148.665 109.635 148.883 108.459 149.168 107.298C143.163 95.4331 135.36 90.8885 125.338 93.3832C124.372 93.6234 123.365 93.6485 122.388 93.4567C121.411 93.265 120.487 92.8609 119.68 92.2726L114.379 88.4057C100.208 84.1868 86.2258 85.6969 71.6193 93.0455C70.1789 93.7764 68.5663 94.0911 66.9597 93.9547C65.3532 93.8183 63.8153 93.2361 62.5161 92.2726C60.1976 90.5021 57.321 89.6418 54.4212 89.8516C54.0808 90.3904 53.8926 91.0129 53.877 91.6519C53.877 91.9301 53.9289 92.4438 53.943 92.7363C54.4401 100.853 56.6287 108.765 59.5171 116.347C61.873 122.463 64.6058 128.444 66.7991 134.811C58.0234 123.667 51.4858 107.241 50.3079 93.0003C49.8367 89.6185 51.3609 86.7053 54.3129 85.0691C54.8241 84.7623 55.8301 84.1012 56.3225 83.7635C60.3104 81.0918 63.9511 77.9264 67.1596 74.3412C68.9848 72.2884 70.6842 70.125 72.2483 67.8631C69.9443 65.5159 68.7993 61.6799 68.7616 56.1816C68.7594 55.9099 68.8246 55.642 68.9514 55.4023C69.0781 55.1626 69.2624 54.9588 69.4872 54.8094C72.8491 52.5811 74.4346 48.6405 74.2979 42.7854L67.9724 42.2171C67.859 42.2072 67.7469 42.1857 67.6378 42.1529C62.6763 40.6023 60.099 41.2515 59.5712 42.0672C59.2768 42.5239 59.5076 43.5916 60.629 45.009L65.3196 45.6987L60.8293 47.6821C59.4699 50.0602 62.2664 52.5692 64.0286 54.0555C61.6067 53.1423 58.782 51.7606 58.0729 48.9758C58.0251 48.8244 57.9858 48.6703 57.9551 48.5144C57.4602 48.5846 56.9612 48.6203 56.4615 48.6215C55.9379 48.6232 55.4153 48.5787 54.8995 48.4883C54.1927 50.9687 53.1255 53.3231 52.0983 55.6227C50.6306 58.8951 49.1134 62.2816 48.5009 66.1413V66.1532C48.4901 66.2158 48.476 66.2777 48.4585 66.3387C46.6256 72.8906 46.8353 79.7278 49.0851 86.6649C49.164 86.9076 49.1851 87.1656 49.1466 87.4181C49.1081 87.6706 49.0112 87.9103 48.8637 88.1179C41.3955 98.6674 40.4956 107.702 45.9447 117.412C46.1524 117.783 46.2082 118.222 46.1002 118.634C44.9717 122.898 44.4063 126.592 44.4063 129.736C44.4063 134.968 45.9801 138.687 49.1464 140.939C50.7649 135.862 53.7333 131.427 57.0151 127.331C55.6072 129.892 54.4042 132.563 53.4176 135.317C52.4927 137.897 51.9327 140.596 51.7544 143.334C51.7579 143.384 51.7579 143.434 51.7544 143.484C51.4387 148.954 52.7674 153.315 55.8112 156.754C64.316 154.58 73.2684 157.643 80.5316 162.119C83.0062 163.643 85.3569 165.363 87.5616 167.263C81.4363 164.454 75.3369 161.555 68.7616 160.145C68.175 160.029 67.3363 159.886 66.7402 159.777C66.1489 159.715 65.2984 159.596 64.7142 159.539C63.8519 159.47 62.9849 159.432 62.1227 159.432C60.3213 159.427 58.5235 159.595 56.7536 159.934C55.7735 168.141 57.6394 173.727 62.4431 176.985C62.6833 177.148 62.8756 177.374 62.9999 177.638C63.1242 177.902 63.176 178.194 63.1498 178.486C62.3371 187.435 64.8649 192.774 70.8748 194.812C71.1861 194.917 71.4581 195.116 71.6546 195.382C71.8512 195.647 71.9629 195.967 71.975 196.298C72.1965 202.636 75.483 206.286 82.3174 207.789C82.5785 207.845 82.8215 207.966 83.0242 208.141C97.5412 220.593 120.087 226.301 140.461 222.676C155.046 220.08 166.315 212.914 172.19 202.495C172.315 202.275 172.489 202.087 172.698 201.946C172.908 201.806 173.147 201.717 173.396 201.687C193.716 199.18 203.279 190.766 203.387 175.249C200.576 174.704 198.093 175.91 195.655 178.975C195.491 179.183 195.279 179.347 195.037 179.452C194.795 179.558 194.532 179.601 194.27 179.58C188.679 179.132 182.862 180.262 176.487 183.035C176.229 183.147 175.946 183.189 175.666 183.157C175.387 183.125 175.12 183.019 174.894 182.851C174.667 182.683 174.488 182.458 174.374 182.198C174.26 181.938 174.215 181.653 174.244 181.37C174.678 177.09 173.538 173.263 170.678 169.311C170.523 169.098 170.423 168.85 170.384 168.589C170.345 168.328 170.37 168.062 170.456 167.812C172.56 161.736 171.752 160.221 171.571 159.979C171.44 159.809 171.188 159.719 170.814 159.708C161.678 165.08 155.996 176.704 163.714 190.845C163.897 191.181 163.957 191.572 163.883 191.948C163.809 192.325 163.606 192.662 163.308 192.902C160.759 194.961 157.838 195.756 154.855 195.18C152.599 194.747 150.379 193.53 148.381 191.675C148.754 192.934 149.288 194.139 149.969 195.259C151.802 198.286 154.801 200.239 157.946 201.889C149.194 201.221 144.539 194.058 144.073 185.734C144.071 185.722 144.071 185.71 144.073 185.699C144.014 184.695 143.985 183.703 143.983 182.723C143.983 171.922 147.585 162.652 154.716 155.101L151.249 154.105L157.086 152.88C157.156 152.846 157.228 152.818 157.301 152.794C164.46 150.54 169.08 147.234 171.048 142.968C172.739 139.291 172.553 134.666 170.499 129.201L164.877 130.58L170.239 126.299C173.191 122.641 174.943 118.146 175.25 113.438C175.526 109.293 174.76 105.134 173.481 101.164L168.852 103.78L172.923 98.1585C172.998 97.9913 173.1 97.8379 173.224 97.7043C173.928 96.9805 174.468 96.1116 174.808 95.1573C175.017 94.5347 175.122 93.8813 175.119 93.2238C175.117 92.8872 175.093 92.5511 175.045 92.2178C175.045 92.1655 175.045 92.1108 175.031 92.0585L174.744 85.1095C169.561 81.6921 165.989 74.7051 164.628 65.2971C163.436 56.698 164.078 47.941 166.512 39.613C157.536 37.7366 154.969 40.1861 153.809 42.2551C153.666 42.515 153.454 42.73 153.197 42.8764C152.94 43.0228 152.648 43.095 152.353 43.0851C152.354 43.9164 152.446 44.7451 152.627 45.556C152.898 46.7189 153.447 47.8105 154.344 48.5192L154.368 48.5406C155.091 48.562 155.819 48.5953 156.549 48.6476C158.041 48.7974 159.699 48.8688 161.146 49.6441C161.914 50.0507 162.418 51.0163 162.088 51.8629C161.858 52.4268 161.484 52.9192 161.004 53.2898C160.389 53.7926 159.732 54.2398 159.04 54.6263L161.228 56.8713L156.936 55.1899C156.835 55.151 156.743 55.0923 156.664 55.0172C156.586 54.9421 156.523 54.8522 156.479 54.7525C156.436 54.6528 156.412 54.5454 156.409 54.4364C156.407 54.3274 156.425 54.219 156.465 54.1174C156.538 53.8796 156.844 53.6679 157.023 53.5062C158.17 52.8736 159.367 52.2886 160.17 51.3682V51.3611ZM35.878 3.27235C31.8235 5.4555 27.5499 11.1607 24.3742 18.6519C20.9345 26.7686 19.1417 36.0434 19.455 44.0982C19.7896 52.6833 22.5766 63.8512 33.925 68.491H34.382C38.9901 68.491 42.6276 67.3471 45.4241 65.0212C46.1521 60.9784 47.6834 57.5657 49.1676 54.2601C50.2395 51.8819 51.2596 49.5965 51.9028 47.235C51.494 46.9416 51.118 46.6043 50.7814 46.229C50.0898 45.438 49.5555 44.52 49.2077 43.5251C49.071 43.7058 48.9273 43.8818 48.7812 44.053C46.8965 46.2552 44.3969 47.5965 41.7135 47.5965C41.5565 47.5965 41.3916 47.5917 41.2188 47.5822C35.6236 47.2421 31.4112 41.2064 31.8329 34.1266C32.0355 30.7496 33.2465 27.6247 35.249 25.3274C37.3198 22.9492 39.9867 21.7364 42.7478 21.9028C47.0355 22.1621 50.5222 25.765 51.712 30.6212C53.2504 28.6996 55.2317 27.4083 57.4392 26.9136C55.4461 7.01557 45.9683 3.68139 35.8851 3.26283L35.878 3.27235ZM41.3342 45.3182C38.5684 42.8425 36.9499 38.6475 37.2209 34.1408C37.4564 30.098 39.1998 26.4451 41.7889 24.2001C40.022 24.3333 38.3258 25.256 36.9358 26.847C35.2655 28.7662 34.2524 31.4036 34.0804 34.2764C33.7341 40.0958 36.9876 45.0447 41.3319 45.3206L41.3342 45.3182ZM26.3861 67.7633C20.1783 62.6811 16.6327 54.5716 16.2322 44.2195C15.9 35.6985 17.7871 25.9077 21.4151 17.3653C23.9642 11.3462 27.147 6.45432 30.5207 3.24856H21.3657C16.8565 4.78485 12.4863 9.45318 9.01607 16.4378C5.54584 23.4225 3.4538 31.9601 3.24412 39.8865C2.88838 53.4134 7.88995 63.1663 16.9766 66.6788L26.3861 67.7633ZM225.141 37.9839C230.1 54.8498 225.48 78.6861 207.145 89.6447C206.966 89.7524 206.768 89.8235 206.563 89.854C196.668 91.3522 187.075 90.282 178.042 86.6744L178.231 91.2381C187.438 99.6805 192.166 108.896 193.094 120.185C193.127 120.589 193.009 120.991 192.763 121.312C192.518 121.633 192.163 121.85 191.768 121.921C185.419 123.059 179.272 125.135 173.524 128.083C175.879 134.383 176.035 139.845 173.969 144.335C171.644 149.396 166.475 153.246 158.611 155.788C150.365 163.617 146.657 173.22 147.267 185.123C149.517 188.928 152.483 191.416 155.447 191.979C157.083 192.298 158.778 191.991 160.201 191.116C152.427 175.503 159.471 162.385 169.568 156.671C169.775 156.554 170.005 156.485 170.242 156.469C172.362 156.319 173.54 157.215 174.122 158C175.519 159.846 175.408 163.061 173.762 168.086C176.179 171.639 177.427 175.266 177.531 179.085C183.199 176.916 188.505 175.993 193.669 176.276C197.992 171.282 202.452 171.42 205.484 172.45C205.798 172.556 206.072 172.758 206.269 173.027C206.465 173.297 206.574 173.621 206.581 173.955C207.008 191.791 196.534 201.899 174.565 204.814C168.105 215.704 156.222 223.174 141.003 225.88C136.742 226.631 132.425 227.006 128.1 227C110.805 227 93.3972 221.173 81.2172 210.878C73.5912 209.085 69.4189 204.591 68.7969 197.511C62.2004 194.802 59.199 188.624 59.8445 179.123C54.5131 175.044 52.407 168.328 53.5849 159.146C50.0511 155.272 48.3454 150.307 48.475 144.361C41.3649 140.318 39.4613 131.595 42.8208 118.439C37.2232 108.025 38.1656 97.9801 45.7822 86.8813C43.9964 81.012 43.5559 75.195 44.4652 69.5326C40.9314 71.3519 36.6036 72.0582 31.5078 71.6325H31.4583L16.4042 69.8965C16.2747 69.8799 16.1475 69.8488 16.0249 69.8037C5.45867 65.8298 -0.376888 54.895 0.0189026 39.8009C0.235645 31.4131 2.46903 22.3666 6.12538 14.9824C10.0503 7.07978 15.1979 1.78838 20.6283 0.0737229C20.7808 0.0253137 20.9396 0.000458428 21.0995 0L35.5741 0C40.5969 0.171227 46.3924 0.882297 51.2785 4.86096C56.5604 9.16067 59.6325 16.3284 60.655 26.74C67.1266 27.0611 71.5415 29.1396 74.1024 33.0683L151.567 39.7533C155.454 34.3192 163.525 35.5868 167.606 36.5119C171.198 28.4261 181.8 18.7161 185.195 18.0217C185.597 17.9281 186.018 17.9479 186.41 18.0788L202.607 18.5496C213.015 18.143 221.438 25.3964 225.141 37.9839ZM223.492 48.1625C223.558 48.2148 223.624 48.2671 223.688 48.3218C223.483 45.1333 222.93 41.9773 222.039 38.9114C218.787 27.8245 211.56 21.432 202.682 21.8148H202.567L200.638 21.7578C191.339 26.7876 183.859 41.77 183.385 56.6977C183.129 64.8096 184.799 79.3663 198.463 87.2475C200.907 87.2232 203.347 87.0333 205.766 86.6791C216.406 80.1868 221.956 68.9167 223.4 57.5562H223.287L217.92 57.3136C216.42 62.7596 212.115 66.4838 207.182 66.4838C200.958 66.4838 195.893 60.517 195.893 53.1851C195.893 45.8533 200.958 39.8889 207.182 39.8889C211.611 39.8889 215.663 43.0042 217.478 47.7154L222.84 47.9223C223.077 47.9309 223.305 48.015 223.492 48.1625ZM222.934 54.1721C223.358 52.5787 223.207 51.5775 222.91 50.9378C222.331 52.0817 222.338 53.1304 222.934 54.1721ZM212.657 54.7928L220.903 55.1685C220.462 54.3776 220.228 53.4863 220.222 52.5787C220.231 51.728 220.427 50.8899 220.795 50.1245L212.603 49.8058H212.558C212.327 49.8048 212.1 49.8748 211.909 50.0064C211.718 50.138 211.57 50.3251 211.486 50.543C210.916 52.115 210.968 53.2922 211.651 54.2482C211.768 54.4096 211.918 54.5424 212.093 54.6367C212.267 54.731 212.46 54.7843 212.657 54.7928ZM215.595 57.209L212.556 57.0687C212.018 57.047 211.493 56.9016 211.019 56.6436C210.545 56.3856 210.136 56.0218 209.823 55.5799C208.695 53.9985 208.544 52.0412 209.371 49.7582C209.619 49.0784 210.074 48.4958 210.672 48.0948C211.27 47.6937 211.978 47.495 212.695 47.5275L214.98 47.6179C213.857 45.2682 212.083 43.5393 210 42.7117C206.315 44.1814 203.773 48.4193 203.773 53.1756C203.773 57.9319 206.313 62.177 209.998 63.6395C211.296 63.1103 212.453 62.2792 213.374 61.2138C214.378 60.0462 215.134 58.6832 215.595 57.209ZM206.443 64.1675C203.432 61.7299 201.514 57.6371 201.514 53.1851C201.514 48.7332 203.432 44.6404 206.44 42.2076C201.806 42.6832 198.152 47.4157 198.152 53.1851C198.152 58.9546 201.808 63.7037 206.443 64.1675ZM196.656 21.6412L185.956 21.3249C185.851 21.3228 185.747 21.3092 185.645 21.2845C183.303 22.2358 172.812 31.2847 170.122 38.9495V38.9661C164.939 54.3409 166.849 76.7598 177.081 82.7243C182.482 85.1811 188.268 86.666 194.175 87.1119C185.409 80.5054 180.716 69.68 181.131 56.6287C181.583 42.2623 188.001 28.2573 196.656 21.6412ZM189.734 118.996C188.707 110.059 184.938 102.511 178.042 95.552C177.693 96.8768 177.078 98.1152 176.235 99.1906C178.704 106.292 179.607 114.318 176.742 121.455C176.487 122.104 176.205 122.739 175.898 123.357C180.345 121.416 184.983 119.954 189.734 118.996ZM151.72 43.0447L73.0328 36.255H72.9527C71.6688 36.079 70.7853 36.217 70.3259 36.6688C69.8665 37.1207 69.6663 37.9388 69.6545 39.116L150.933 46.4217C150.952 46.1505 150.98 45.8818 151.022 45.6178C151.163 44.7374 151.397 43.8747 151.72 43.0447ZM152.495 63.9725C151.878 63.0854 151.284 62.1746 150.733 61.2186C148.485 57.4967 147.015 52.631 150.026 49.5917L77.509 43.0756C77.5703 49.4586 75.7186 54.134 71.9868 56.9997C72.1022 60.7382 72.8279 63.4612 74.1448 65.1306C81.1819 55.882 93.3053 50.3028 106.993 50.1126C115.22 50.0168 123.357 51.8492 130.764 55.4658C138.016 59.018 144.391 64.1602 149.423 70.5172C150.183 68.2202 151.212 66.0231 152.488 63.9725H152.495ZM150.101 104.254C150.392 103.461 150.72 102.68 151.086 101.911C148.207 93.2523 146.558 83.4757 148.377 74.4744C138.527 61.0212 123.786 53.3611 107.745 53.3611H107.038C93.6799 53.549 81.9829 59.19 75.7421 68.4505C71.3914 75.8262 65.4613 82.126 58.3862 86.8884C58.0917 87.0882 57.6276 87.3902 57.18 87.6756C59.5981 88.0073 61.8921 88.9569 63.8448 90.4342C64.8098 91.1493 65.9518 91.581 67.1446 91.6818C68.3375 91.7825 69.5347 91.5483 70.6039 91.005C85.6039 83.4734 100.597 81.8729 115.203 86.2843C115.325 86.3202 115.439 86.3774 115.54 86.4532L120.997 90.4295C121.539 90.8269 122.16 91.1 122.818 91.2298C123.475 91.3596 124.153 91.3429 124.804 91.181C135.228 88.5721 143.733 92.9694 150.101 104.254ZM68.0666 34.3121C68.6062 33.7877 69.2633 33.4026 69.9819 33.1896C67.6779 31.073 64.1205 30.01 59.2108 29.9577C55.2741 30.1336 53.3682 33.6961 52.7321 35.2253C51.3586 38.5143 51.5541 42.229 53.1844 44.0578C54.1833 45.1755 55.5968 45.4466 56.9845 45.3467C55.6416 42.7736 56.3837 41.0209 56.8525 40.2908C58.3132 38.022 61.7481 37.387 66.4363 38.4572C66.54 36.6379 67.0818 35.2728 68.0666 34.3121ZM49.8814 33.6676C49.8673 33.387 49.8437 33.1111 49.8131 32.8376H45.6055C44.9882 34.129 44.9859 35.3299 45.6055 36.5452L48.9179 36.6474C49.1183 35.7283 49.4014 34.8296 49.7636 33.9625C49.7982 33.8626 49.8375 33.7643 49.8814 33.6676ZM44.9341 30.5546H49.349C48.5574 27.9124 46.9625 25.8125 44.9341 24.8137C41.8997 26.2715 39.7275 30.0005 39.4754 34.274C39.1951 38.9233 41.2141 43.1255 44.4228 44.6927C46.1332 43.8723 47.6033 42.3003 48.5881 40.2694C48.5692 39.8246 48.5716 39.3728 48.5881 38.9162L44.8917 38.802C44.7108 38.7959 44.534 38.7461 44.3762 38.6567C44.2183 38.5673 44.0841 38.441 43.9846 38.2884C42.531 36.0077 42.5263 33.532 43.9681 31.1134C44.0672 30.9436 44.2083 30.8028 44.3777 30.7048C44.5471 30.6068 44.7388 30.555 44.9341 30.5546Z" fill="black"/>
<path d="M130.338 72.1507C133.992 72.6929 136.423 76.8 135.756 81.3257C135.089 85.8513 131.6 89.0784 127.946 88.5386C124.292 87.9988 121.861 83.8893 122.528 79.3637C123.195 74.838 126.681 71.6085 130.338 72.1507ZM133.732 79.0688C133.985 77.3494 133.226 75.8155 132.041 75.6395C130.856 75.4635 129.685 76.7144 129.449 78.4314C129.214 80.1485 129.958 81.6848 131.143 81.8607C132.328 82.0367 133.485 80.7858 133.732 79.0688ZM127.404 85.4755C127.968 85.3566 128.243 84.4054 128.022 83.3495C127.8 82.2936 127.167 81.5373 126.608 81.6586C126.05 81.7799 125.77 82.7311 125.989 83.7847C126.208 84.8382 126.844 85.5968 127.404 85.4755Z" fill="black"/>
<path d="M129.718 94.3535C131.207 93.4189 132.931 95.2762 131.862 96.7126C129.31 100.159 126.806 103.676 125.284 107.652C124.811 108.869 124.527 110.153 124.441 111.457C124.433 111.714 124.365 111.965 124.243 112.19C118.853 121.919 112.699 131.481 104.453 139.082C91.0907 151.284 78.8259 148.949 72.7524 131.41C70.9525 126.233 69.4541 120.399 71.32 115.001L61.6726 102.577L73.4521 112.851L80.5952 109.89C80.7898 109.811 80.9977 109.769 81.2077 109.769C89.7994 109.752 98.3332 108.349 106.486 105.614C114.64 102.908 122.389 98.9719 129.718 94.3535ZM121.253 110.915C121.597 107.329 123.138 104.002 125.042 100.905C115.535 106.173 105.252 110.18 94.5232 111.923C90.2267 112.632 85.8816 112.998 81.5281 113.017L74.3968 115.973C73.3508 118.877 73.6052 122.173 74.2814 125.208C74.3332 125.408 74.385 125.605 74.4369 125.8L77.9801 126.161C78.3392 126.198 78.684 126.323 78.9845 126.525C79.285 126.726 79.532 126.999 79.7041 127.32C79.8762 127.64 79.9681 127.998 79.9719 128.362C79.9757 128.726 79.8912 129.086 79.7258 129.41L77.3346 134.093C77.809 135.112 78.344 136.101 78.9366 137.056L80.1711 135.748C80.4414 135.461 80.7823 135.252 81.1589 135.142C81.5355 135.032 81.9343 135.025 82.3145 135.122C82.6947 135.219 83.0425 135.416 83.3224 135.693C83.6023 135.97 83.8043 136.317 83.9076 136.699L85.5991 142.944C87.4022 143.541 89.3337 143.623 91.1802 143.182C91.1213 134.173 94.1651 126.735 99.8263 122.138C104.576 118.275 110.8 116.841 117.079 118.111C118.657 115.609 120.061 113.162 121.253 110.915ZM110.762 127.232C112.607 124.853 114.348 122.359 115.945 119.9C110.491 118.998 105.153 120.335 101.044 123.664C95.9721 127.786 93.1945 134.468 93.1238 142.616C93.4395 142.499 93.7576 142.378 94.0662 142.235L94.4219 135.776C94.4443 135.382 94.5699 135 94.7859 134.67C95.0018 134.341 95.3004 134.074 95.6513 133.899C96.0023 133.724 96.3929 133.645 96.7836 133.672C97.1743 133.698 97.5511 133.829 97.8757 134.05L102.01 136.868C102.974 136.005 103.933 135.077 104.88 134.1L104.237 128.183C104.196 127.802 104.254 127.417 104.404 127.064C104.554 126.712 104.791 126.405 105.092 126.172C105.393 125.939 105.749 125.788 106.125 125.734C106.501 125.679 106.884 125.723 107.238 125.862L110.762 127.232ZM109.5 128.834L106.538 127.679C106.494 127.66 106.445 127.654 106.398 127.661C106.35 127.668 106.305 127.687 106.267 127.717C106.229 127.745 106.199 127.784 106.181 127.828C106.162 127.873 106.155 127.921 106.161 127.969L106.614 132.226C107.594 131.134 108.557 129.997 109.5 128.83V128.834ZM100.465 138.171L96.7967 135.66C96.7558 135.632 96.7083 135.615 96.6591 135.612C96.6099 135.609 96.5607 135.619 96.5165 135.641C96.4724 135.663 96.4349 135.697 96.408 135.739C96.381 135.781 96.3656 135.829 96.3632 135.879L96.0687 141.227C97.6166 140.335 99.0872 139.313 100.465 138.171ZM83.2856 141.772L82.0487 137.22C82.0363 137.172 82.0111 137.128 81.9758 137.093C81.9405 137.058 81.8965 137.034 81.8485 137.022C81.8006 137.009 81.7499 137.009 81.702 137.023C81.6542 137.037 81.6111 137.064 81.5776 137.101L80.0769 138.692C80.9746 139.889 82.0582 140.933 83.2856 141.781V141.772ZM78.0131 128.516C78.0348 128.475 78.0461 128.43 78.0461 128.384C78.0461 128.338 78.0348 128.292 78.0131 128.252C77.9923 128.211 77.9614 128.176 77.9235 128.151C77.8855 128.125 77.8418 128.11 77.7964 128.107L75.0046 127.821C75.4318 129.248 75.881 130.566 76.3522 131.774L78.0131 128.516Z" fill="black"/>
<path d="M123.583 122.761C119.281 131.829 113.688 140.428 106.439 147.389C100.338 153.218 91.2367 159.116 82.6142 155.325C74.3874 151.363 71.2069 141.406 71.4331 132.856C74.1188 138.564 76.225 145.092 80.5339 149.648C86.4236 155.888 94.8766 152.652 100.863 148.35C110.206 141.641 117.206 132.326 123.583 122.761Z" fill="black"/>
<path d="M107.665 169.703C108.588 169.413 109.497 169.042 110.574 168.676C108.524 172.98 102.467 173.059 98.8535 170.845C101.886 170.728 104.809 170.735 107.665 169.703Z" fill="black"/>
<path d="M107.346 200.26C107.834 204.008 104.637 207.739 101.002 208.184C102.386 207.204 103.599 205.998 104.592 204.617C105.587 203.171 106.22 201.689 107.346 200.26Z" fill="black"/>
<path d="M105.198 195.14C106.091 194.274 106.927 193.304 107.992 192.336C107.419 198.671 100.429 201.734 95.0886 198.85C99.1832 198.919 102.333 198.217 105.198 195.14Z" fill="black"/>
<path d="M102.656 182.849C103.611 182.073 104.498 181.217 105.309 180.288C104.385 186.264 97.1736 187.373 92.4053 185.608C95.9886 185.425 99.7886 185.228 102.656 182.849Z" fill="black"/>
<path d="M78.3146 172.474C77.3723 184.184 79.7729 191.608 84.9818 201.889C77.0778 194.714 74.5452 182.405 78.3146 172.474Z" fill="black"/>
</g>
<defs>
<clipPath id="clip0_1932_1358">
<rect width="227" height="227" fill="white"/>
</clipPath>
</defs>
</svg>
