<svg width="204" height="287" viewBox="0 0 204 287" fill="none" xmlns="http://www.w3.org/2000/svg">
<g clip-path="url(#clip0_1932_1511)">
<path d="M129.95 88.9549C130.246 91.3879 129.27 93.5103 127.772 93.6977C126.274 93.885 124.818 92.0567 124.522 89.6236C124.226 87.1906 125.201 85.0682 126.702 84.8809C128.203 84.6936 129.659 86.5195 129.95 88.9549Z" fill="white"/>
<path d="M95.3556 95.2912C95.6515 97.7243 94.6763 99.8466 93.1756 100.034C91.6749 100.221 90.2239 98.3906 89.928 95.9576C89.6322 93.5246 90.6098 91.4022 92.1081 91.2148C93.6064 91.0275 95.0598 92.8582 95.3556 95.2912Z" fill="white"/>
<path d="M124.555 37.3513C148.114 60.7994 150.529 107.084 135.905 132.918C131.507 140.686 125.881 146.297 119.177 149.591L119.024 149.631L119.076 149.83C112.879 145.626 105.532 142.764 97.1973 141.31C95.8647 141.07 94.4916 141.368 93.3769 142.137C89.1399 145.061 83.7644 148.303 78.7652 148.457C78.7534 148.417 78.7439 148.377 78.7297 148.334C78.2019 146.695 76.5331 146.138 75.9863 145.963L75.8585 145.925C74.3751 145.553 72.8307 145.494 71.3233 145.751C62.3499 140.987 54.2807 133.717 47.9607 124.684C30.1914 99.3081 26.3923 58.8549 50.8911 37.1118C52.6569 37.9507 54.3422 38.95 55.9258 40.0974C57.2628 41.0848 58.5423 42.1481 59.758 43.2821C60.5391 44.0836 61.635 45.1508 62.3617 46.0116C63.4896 47.267 64.5379 48.592 65.5004 49.9789C66.4969 51.3614 67.226 52.8601 69.3634 53.6616C69.6135 52.2332 69.3004 50.7632 68.4899 49.5615L67.7798 48.4256C66.8271 46.9058 65.7829 45.4455 64.653 44.0528C60.1556 38.3615 53.8712 33.9674 46.8222 32.1272C43.3255 31.2025 39.706 30.8313 36.0948 31.0269C35.8578 31.0263 35.6254 31.0928 35.4244 31.2186C35.2234 31.3445 35.062 31.5246 34.9586 31.7383C34.5214 32.6469 33.7892 33.38 32.8819 33.8174C31.9746 34.2548 30.9459 34.3707 29.9643 34.146C28.9827 33.9213 28.1063 33.3695 27.4786 32.5808C26.8509 31.792 26.509 30.8132 26.509 29.8044C26.509 28.7957 26.8509 27.8168 27.4786 27.0281C28.1063 26.2394 28.9827 25.6875 29.9643 25.4628C30.9459 25.2382 31.9746 25.354 32.8819 25.7914C33.7892 26.2288 34.5214 26.9619 34.9586 27.8706C35.0859 28.1331 35.3 28.3433 35.5645 28.4656C35.829 28.588 36.1276 28.6148 36.4096 28.5417C49.665 25.7221 61.3155 34.8685 70.3315 43.5524C71.915 45.0938 73.4749 46.6708 74.9945 48.2952C76.5662 50.0216 78.1474 51.8167 80.5831 52.3265C80.4505 49.6658 78.9451 47.994 77.3426 46.1776C75.8609 44.4591 74.3255 42.7825 72.7364 41.1479C68.9847 37.3537 64.7879 33.5595 60.1556 30.6142C65.4104 27.7307 71.3659 25.6201 77.8823 24.3301C87.4522 22.5634 96.3617 22.8741 104.393 25.2478C106.512 28.2126 108.25 31.433 109.565 34.8329C110.635 37.2565 110.886 39.9148 113.286 41.5771C114.233 39.6112 113.996 37.8374 113.449 36.187C112.983 34.4941 112.415 32.8311 111.747 31.2071C107.723 20.9888 99.7087 13.4574 89.2606 10.1398C89.0212 10.0451 88.7584 10.0266 88.5081 10.0868C88.2577 10.1471 88.032 10.2832 87.8617 10.4766C87.1212 11.3161 86.1103 11.869 85.0049 12.0388C83.8996 12.2087 82.7697 11.9848 81.8121 11.4062C80.8545 10.8275 80.1298 9.93075 79.7641 8.87199C79.3984 7.81323 79.4149 6.65951 79.8107 5.61168C80.2066 4.56386 80.9567 3.68828 81.9304 3.13737C82.9042 2.58647 84.04 2.39513 85.14 2.59666C86.2401 2.79819 87.2348 3.37983 87.9509 4.24032C88.6671 5.10082 89.0593 6.18567 89.0594 7.30603C89.059 7.56035 89.1357 7.8088 89.2794 8.01844C89.4232 8.22808 89.6271 8.38899 89.8642 8.47986C91.8525 9.37624 93.829 10.275 95.77 11.2235C97.7109 12.1721 99.6116 13.1681 101.451 14.2565C108.77 18.506 115.251 24.304 119.092 31.909C120.06 33.7827 120.867 35.735 121.507 37.745C122.217 39.9076 122.927 41.8522 124.347 43.7516C125.093 41.6174 125.024 39.4666 124.555 37.3513ZM141.34 96.8206C143.234 93.3536 143.759 89.2014 143.286 85.3479C142.625 79.8937 140.381 74.8617 137.778 70.1213C138.168 69.5985 138.502 69.0357 138.774 68.4424C136.447 69.1229 134.807 70.6762 133.001 72.1346C127.749 76.4291 122.569 80.8114 117.646 85.4854C117.554 85.5582 117.477 85.6484 117.42 85.7509C117.363 85.8535 117.326 85.9663 117.312 86.083C116.874 88.8433 116.725 91.7292 117.348 94.5773C118.548 100.579 124.051 104.916 130.163 104.57C131.83 104.494 133.464 104.083 134.969 103.361C136.473 102.638 137.818 101.62 138.921 100.366C139.85 99.2732 140.661 98.0848 141.34 96.8206ZM133.792 61.5772C134.24 61.1417 134.541 60.576 134.651 59.96C134.065 59.6844 133.397 59.6403 132.781 59.8367C131.299 60.5078 129.971 61.4848 128.7 62.5044C127.062 63.7897 125.741 65.5872 124.319 67.0243C122.139 69.2439 117.641 72.6231 116.167 67.9586C115.881 68.1397 115.651 68.3974 115.504 68.7025C115.356 69.0076 115.297 69.348 115.333 69.685C115.423 71.1339 117.042 72.0208 118.261 72.2176C121.317 72.7393 123.942 70.6525 126.044 68.8004C127.585 67.3231 128.702 65.7034 130.267 64.3162C131.349 63.2965 132.596 62.4594 133.792 61.5772ZM121.807 126.655C122.401 125.654 122.96 124.494 122.475 123.321C121.696 123.925 121.386 124.762 120.946 125.564L120.236 126.622C118.633 128.448 115.975 128.654 113.65 128.078L113.161 127.976C112.488 127.831 111.702 128.213 111.279 128.661C109.6 130.219 108.067 131.981 107.084 134.077C106.951 134.499 106.927 134.947 107.014 135.381C107.102 135.814 107.298 136.218 107.584 136.555C108.341 137.672 109.311 138.628 110.438 139.368C111.647 140.149 113.029 140.617 114.462 140.731C116.058 140.575 117.861 139.833 118.898 138.443C120.953 135.659 120.486 131.922 119.845 128.72C120.653 128.197 121.325 127.489 121.807 126.655ZM121.824 113.873C122.221 113.849 123.171 110.243 121.616 109.382C120.695 108.872 119.412 109.607 119.225 109.718C119.795 110.185 120.29 110.737 120.692 111.355C121.613 112.773 121.601 113.887 121.824 113.873ZM114.784 123.311C113.811 122.799 112.865 123.074 111.932 123.231C109.456 123.705 105.865 125.602 105.418 128.35C107.129 127.454 108.126 126.135 109.823 125.351C110.595 124.946 111.397 124.602 112.223 124.324C113.063 124.023 113.932 123.996 114.784 123.311ZM110.928 113.444C111.332 112.827 111.827 112.275 112.396 111.808C112.209 111.696 110.926 110.961 110.008 111.471C108.45 112.332 109.399 115.939 109.797 115.965C110.019 115.988 110.01 114.871 110.928 113.453V113.444ZM104.223 79.0234C106.386 77.2093 104.956 72.7559 101.96 73.1448C102.019 73.9465 102.216 74.7319 102.542 75.4664C102.75 75.879 102.937 76.3865 102.798 76.7683C102.737 76.9059 102.642 77.0253 102.521 77.1145C101.787 77.6243 100.887 77.75 99.8839 77.9089C97.7849 78.1789 95.652 77.9597 93.6515 77.2686C91.4359 76.5572 89.3908 75.6087 87.0924 74.883C83.9867 73.9252 80.7555 73.4376 77.506 73.4365C75.8987 73.4673 74.2797 73.7637 72.7885 74.7407C74.4051 75.4782 75.9058 75.7035 77.4113 75.8624C80.3968 76.0765 83.3413 76.6824 86.1693 77.6646C89.1233 78.7104 91.9898 80.202 95.2184 80.7261C96.9245 81.0041 98.6664 80.9744 100.362 80.6383C101.628 80.3751 103.15 80.0241 104.223 79.0234ZM95.2113 112.621C101.661 110.176 105.288 102.989 103.733 96.3226C103.049 93.0691 101.387 90.157 99.3489 87.66C99.2679 87.5525 99.1641 87.4644 99.045 87.4021C98.9259 87.3397 98.7944 87.3047 98.6601 87.2995C90.1388 86.2632 81.5772 85.6277 73.011 85.1107C70.1066 84.94 67.2638 84.6365 64.3737 85.4048C65.2262 85.7913 66.113 86.0969 67.0224 86.3178C66.4944 89.198 66.2856 92.1278 66.3999 95.0539C66.6366 101.869 69.9504 107.949 76.3177 110.871C79.2528 112.294 82.4152 113.005 85.5491 113.434C88.6831 113.864 92.1815 113.899 95.2113 112.621Z" fill="white"/>
<path d="M118.399 129.411C118.713 131.369 118.912 133.414 118.484 135.311C118.334 136.122 117.966 136.877 117.421 137.495C117.436 137.139 117.398 136.783 117.307 136.439C116.723 134.217 114.074 132.546 111.108 131.09C111.503 130.646 111.915 130.222 112.337 129.828C112.746 129.385 112.881 129.52 113.328 129.591C115.004 129.992 116.756 129.93 118.399 129.411Z" fill="white"/>
<path d="M199.155 146.828C201.349 150.127 200.812 156.451 197.559 165.621C196.227 168.604 193.995 170.471 191.429 170.739C190.377 170.847 189.316 170.671 188.355 170.23C187.394 169.788 186.569 169.097 185.966 168.227C183.994 165.491 183.956 161.255 185.819 156.456C187.028 156.977 188.423 157.013 189.902 156.285C193.902 153.978 194.494 148.417 194.544 144.129C196.686 144.509 198.203 145.4 199.155 146.828Z" fill="white"/>
<path d="M191.419 142.636C191.522 144.087 191.53 145.544 191.443 146.997C191.206 149.489 190.851 152.52 188.688 154.035C185.786 155.543 183.561 151.384 183.243 148.887C183.024 147.689 182.707 146.511 182.297 145.365C181.532 146.468 181.173 147.804 181.281 149.143C181.402 150.9 181.997 152.592 183.002 154.037C180.216 160.421 180.247 166.33 183.104 170.293C183.318 170.592 183.549 170.878 183.795 171.151C180.344 171.389 176.379 170.784 171.636 169.354C171.488 169.309 171.334 169.292 171.181 169.304C165.005 169.755 158.368 169.418 151.445 168.308C152.072 162.721 150.713 158.552 147.873 157.658C144.438 156.065 140.845 155.866 137.744 157.096C135.625 157.966 133.792 159.412 132.452 161.272L124.281 158.23C124.004 158.126 123.719 158.046 123.429 157.993C123.585 156.074 123.395 153.928 121.918 152.14C128.406 148.649 133.905 143.162 138.294 135.801C150.543 138.702 163.062 141.422 172.684 141.614C172.036 142.516 171.743 143.626 171.86 144.732C174.724 144.585 175.922 142.012 177.828 140.35C179.096 139.09 180.398 137.895 181.766 136.759C182.079 136.508 182.656 136.048 182.971 135.811C183.27 135.587 183.62 135.442 183.99 135.39C184.359 135.338 184.736 135.38 185.085 135.512C185.551 135.733 186.004 135.981 186.441 136.254C188.813 137.72 191.445 139.541 191.419 142.636Z" fill="white"/>
<path d="M156.089 171.946C156.723 171.946 157.344 172.134 157.871 172.487C158.399 172.841 158.81 173.343 159.052 173.93C159.295 174.517 159.358 175.163 159.234 175.787C159.11 176.41 158.805 176.983 158.356 177.432C157.907 177.881 157.335 178.187 156.713 178.311C156.091 178.434 155.446 178.371 154.86 178.127C154.274 177.883 153.773 177.471 153.421 176.942C153.069 176.414 152.881 175.792 152.882 175.157C152.883 174.305 153.221 173.489 153.823 172.887C154.424 172.285 155.239 171.946 156.089 171.946Z" fill="white"/>
<path d="M138.585 172.558L147.515 175.548C145.361 180.765 142.277 183.423 140.518 182.913C138.684 182.382 137.505 178.327 138.585 172.558Z" fill="white"/>
<path d="M139.809 168.052L151.407 172.835C151.138 173.376 150.965 173.959 150.896 174.559L139.013 170.58C139.07 170.359 139.132 170.131 139.2 169.892C139.39 169.261 139.592 168.648 139.809 168.052Z" fill="white"/>
<path d="M147.243 159.572C149.007 160.082 150.226 164.014 149.213 169.726C149.213 169.726 149.213 169.741 149.213 169.745L140.568 166.188C142.777 161.268 145.598 159.095 147.243 159.572Z" fill="white"/>
<path d="M138.495 158.97C140.21 158.314 142.074 158.15 143.877 158.495C141.823 159.875 139.82 162.633 138.305 166.361C137.91 167.338 137.566 168.336 137.276 169.349C137.1 169.963 136.961 170.516 136.85 171.026C135.775 175.726 136.005 179.883 137.292 182.408C136.002 182.051 134.828 181.359 133.891 180.402C130.577 176.945 130.369 170.442 132.066 166.145C133.484 162.557 135.709 160.067 138.495 158.97Z" fill="white"/>
<path d="M123.587 160.12L131.335 163.004C130.897 163.775 130.514 164.576 130.187 165.401C129.714 166.623 129.387 167.896 129.214 169.195L121.31 166.233C120.944 166.096 120.608 165.888 120.322 165.62C120.036 165.352 119.805 165.03 119.644 164.673C119.482 164.316 119.393 163.93 119.381 163.538C119.369 163.146 119.434 162.756 119.573 162.389L119.774 161.858C120.052 161.123 120.609 160.528 121.323 160.203C122.038 159.877 122.851 159.847 123.587 160.12Z" fill="white"/>
<path d="M95.3627 168.46C94.5603 170.746 93.5377 172.558 92.3045 173.881C92.3045 173.793 92.3045 173.705 92.3163 173.618C92.4678 171.448 91.4666 169.261 90.0085 167.758C89.5029 167.248 88.9479 166.79 88.3516 166.39L88.6782 166.217C88.878 166.111 89.0992 166.052 89.3252 166.044C89.5511 166.036 89.7758 166.08 89.9824 166.172C91.7293 166.945 93.5354 167.718 95.3627 168.46Z" fill="white"/>
<path d="M100.629 170.459C98.9606 175.783 96.5628 179.136 93.4904 180.419C91.7577 181.147 89.7434 181.242 87.4663 180.708C89.0738 179.999 90.4085 178.787 91.2701 177.253C93.8549 175.778 95.8574 173.07 97.2327 169.19C98.3665 169.643 99.5027 170.065 100.629 170.459Z" fill="white"/>
<path d="M112.853 155.173C112.931 155.375 112.969 155.591 112.963 155.808C112.958 156.025 112.909 156.239 112.82 156.437L109.854 163.048C109.682 163.433 109.369 163.736 108.98 163.895C108.59 164.054 108.155 164.057 107.764 163.902L101.295 161.36C100.201 160.929 99.2117 160.269 98.3928 159.425C97.574 158.581 96.9445 157.571 96.5463 156.463C96.2347 155.579 96.2526 154.612 96.5967 153.741C96.9408 152.869 97.5879 152.151 98.4187 151.72L98.4684 151.694C99.5536 151.132 100.75 150.82 101.971 150.779C103.192 150.738 104.406 150.969 105.527 151.457L111.977 154.265C112.176 154.35 112.356 154.475 112.506 154.631C112.656 154.787 112.774 154.971 112.853 155.173Z" fill="white"/>
<path d="M120.008 153.025C121.208 154.165 121.634 155.688 121.414 158.054C120.621 158.241 119.885 158.62 119.271 159.157C118.658 159.695 118.185 160.374 117.894 161.137L117.693 161.668C117.351 162.578 117.281 163.567 117.491 164.516C117.701 165.465 118.183 166.332 118.877 167.011C117.613 168.524 115.766 169.762 113.373 170.694C112.726 170.947 112.028 171.049 111.335 170.99C105.361 170.464 97.2255 167.151 90.8038 164.322C90.502 164.189 90.1834 164.098 89.857 164.052C89.8357 157.281 87.9633 152.363 84.2637 149.389C87.9586 148.104 91.5257 145.875 94.5342 143.8C95.2157 143.331 96.0541 143.15 96.8681 143.295C105.704 144.836 113.378 148.007 119.655 152.702C119.741 152.769 119.824 152.84 119.892 152.909L119.928 153.044L120.008 153.025ZM114.659 157.26C114.855 156.819 114.963 156.343 114.975 155.859C114.987 155.376 114.903 154.895 114.729 154.444C114.554 153.994 114.292 153.582 113.958 153.234C113.624 152.885 113.224 152.606 112.782 152.413L106.331 149.605C104.938 148.996 103.426 148.706 101.907 148.756C100.387 148.806 98.8979 149.195 97.5474 149.895L97.4977 149.921C96.2321 150.577 95.2469 151.67 94.7246 152.998C94.2023 154.327 94.1784 155.799 94.6573 157.144C95.1511 158.522 95.9336 159.779 96.9522 160.83C97.9708 161.881 99.202 162.701 100.563 163.236L107.03 165.778C107.901 166.122 108.871 166.117 109.739 165.764C110.607 165.411 111.306 164.737 111.69 163.881L113.38 160.113L114.659 157.26Z" fill="white"/>
<path d="M81.7453 150.108C85.8261 152.56 87.8712 157.362 87.8286 164.393L87.7387 164.438L86.2995 165.202C85.9018 164.998 85.5042 164.808 85.116 164.621C81.9205 163.262 79.2955 161.578 76.9284 159.178C76.1555 158.383 75.4582 157.518 74.8455 156.594C75.2455 156.02 75.636 155.477 76.0077 154.96C77.2953 153.169 78.3013 151.765 78.7013 150.478C79.7254 150.451 80.7447 150.328 81.7453 150.108Z" fill="white"/>
<path d="M89.0001 171.626C90.2949 174.194 88.7871 177.514 86.2307 178.704C85.0472 179.28 83.5252 179.031 82.2067 178.628L82.1073 178.576V178.595L81.899 178.526C80.9853 178.163 80.2942 177.933 79.1982 178.244C79.292 178.816 79.5938 179.333 80.0456 179.695C78.2017 186.383 73.2901 191.045 66.0281 190.841C60.9626 190.713 55.8996 188.137 52.7396 184.108C52.2038 183.427 51.7181 182.707 51.2862 181.955C51.0779 181.573 50.9312 181.168 50.5217 180.867C50.1122 180.566 49.5962 180.288 48.5618 180.134C47.828 180.936 47.5771 181.647 47.6623 182.358C40.0476 181.068 33.6448 178.707 28.4728 175.676C28.3812 175.608 28.2828 175.55 28.1793 175.503C17.3549 169.048 12.022 159.643 12.3652 151.108C12.7818 140.774 21.7765 129.24 45.6551 127.518C51.5371 135.699 58.8134 142.458 66.8921 147.295C63.8339 148.905 61.0052 151.457 58.508 154.101C54.875 152.523 51.3726 150.659 48.0339 148.526C45.0065 146.674 42.3199 144.599 38.9232 143.266C40.5044 146.012 42.6939 148.102 45.0775 150.072C48.4458 152.887 52.1194 155.429 56.2025 157.082C56.1458 157.459 56.2125 157.844 56.3926 158.179C56.5728 158.515 56.8567 158.783 57.2017 158.943C57.5468 159.104 57.9345 159.148 58.3066 159.069C58.6786 158.989 59.0151 158.792 59.2655 158.505C65.7606 151.12 70.5917 148.289 74.9281 149.335C75.0606 149.379 75.1896 149.434 75.3139 149.498C75.1009 150.179 74.0239 151.68 73.141 152.906C72.1611 154.27 70.942 155.967 69.7609 157.948C69.534 158.343 69.4691 158.812 69.5798 159.255C69.6906 159.698 69.9684 160.08 70.3548 160.322C70.7413 160.564 71.2063 160.647 71.6521 160.552C72.098 160.458 72.49 160.194 72.7457 159.816C73.2467 160.478 73.7907 161.106 74.3742 161.697C76.9353 164.334 80.396 166.428 83.7264 167.699C85.7762 168.562 88.0201 169.513 89.0001 171.626Z" fill="white"/>
<path d="M56.9931 246.411C56.8937 247.723 56.8274 249.063 56.7967 250.417C52.9684 254.071 48.466 256.942 43.5413 258.871C40.8861 259.936 38.1578 260.807 35.3774 261.479C32.4352 262.271 29.3036 262.385 26.9295 264.624C27.1985 264.794 27.4775 264.947 27.7651 265.084C27.6396 271.23 23.5423 275.183 19.6769 276.85C15.1512 278.802 10.2609 278.162 7.21688 275.216C2.26032 270.419 2.284 260.241 7.27369 247.256C13.4919 240.964 19.7669 234.903 27.7177 229.738C34.1111 237.588 44.0739 243.279 56.9931 246.411Z" fill="white"/>
<path d="M120.605 168.13L122.394 168.801C120.422 190.222 112.999 207.998 99.7346 223.023C95.5592 214.533 88.4888 207.872 79.5462 203.613C78.8361 203.264 78.1449 202.916 77.4159 202.615C76.7886 202.363 75.9057 201.868 75.2335 201.78C74.2971 201.633 73.3389 201.822 72.528 202.313C72.7615 203.22 73.2905 204.022 74.031 204.592C74.5423 204.972 75.4512 205.349 75.998 205.633C77.2833 206.255 78.6562 207.011 79.8823 207.751C99.7204 219.468 101.896 238.894 98.8186 259.684C95.9187 258.682 92.9211 257.991 89.8759 257.621C89.2048 257.527 88.5213 257.579 87.8721 257.773C87.2229 257.968 86.6235 258.301 86.1147 258.75C86.568 259.3 87.1328 259.748 87.7716 260.063C89.3788 260.837 91.1612 260.775 92.8394 261.275C98.3404 262.608 106.568 265.895 107.224 272.25C107.442 275.847 104.239 280.135 100.937 281.622C99.5476 282.283 97.9901 282.456 96.4586 282.549C91.406 282.935 86.3284 282.267 81.5463 280.588C76.7768 278.864 72.4262 276.082 68.6058 272.762C66.6317 271.012 64.667 269.046 63.5972 266.597C60.5768 259.21 60.6549 251.036 61.2301 243.12C61.784 240.834 60.4892 238.271 58.1056 237.763C57.8098 239.333 57.5423 241.059 57.3222 242.885C42.5637 239.21 32.0494 232.05 26.8372 222.091C21.0972 211.123 21.599 196.85 28.3166 179.643C34.0259 182.714 40.9707 185.031 49.1464 186.181C49.2288 186.192 49.3118 186.198 49.395 186.198H49.5488C50.775 188.024 52.2863 189.642 54.0249 190.988C62.8586 197.988 76.8052 196.748 81.8825 185.861C82.5405 184.454 83.0353 182.977 83.3571 181.457C85.8307 182.546 88.1219 183.096 90.2215 183.096C91.6097 183.107 92.986 182.839 94.2691 182.309C97.9025 180.781 100.681 177.018 102.537 171.118C105.581 172.088 108.519 172.795 111.151 173.015C111.335 173.032 111.522 173.039 111.709 173.039C112.525 173.034 113.332 172.877 114.091 172.576C116.905 171.481 119.08 169.968 120.572 168.106L120.605 168.13Z" fill="white"/>
<path d="M202.099 144.872C204.989 149.216 204.587 156.411 200.871 166.869C200.856 166.909 200.84 166.949 200.823 166.987C198.97 171.194 195.684 173.841 191.812 174.248C191.479 174.284 191.145 174.301 190.811 174.301C189.373 174.302 187.955 173.968 186.668 173.326C185.251 173.593 183.812 173.725 182.37 173.72C179.07 173.72 175.389 173.094 171.157 171.823C167.484 172.072 163.798 172.072 160.125 171.823C160.602 172.417 160.943 173.109 161.124 173.85C161.305 174.59 161.322 175.362 161.174 176.11C161.025 176.858 160.715 177.565 160.264 178.179C159.813 178.794 159.234 179.303 158.566 179.669C157.898 180.035 157.158 180.25 156.398 180.298C155.638 180.347 154.877 180.228 154.168 179.95C153.459 179.672 152.82 179.241 152.295 178.689C151.77 178.137 151.372 177.476 151.13 176.753L149.435 176.183C147.236 181.593 143.948 184.991 140.999 184.991C140.692 184.99 140.387 184.952 140.09 184.877C138.632 184.787 135.048 184.514 132.444 181.794C129.947 179.186 128.937 175.135 129.053 171.284L125.817 170.07C123.594 192.124 115.347 211.123 101.28 226.57C102.239 229.128 102.94 231.776 103.373 234.474C104.869 243.324 104.083 252.466 102.239 261.145C104.032 262.057 105.693 263.209 107.176 264.569C111.764 268.79 112.277 274.828 108.746 279.917C107.233 282.179 105.233 284.247 102.722 285.406C100.89 286.319 98.828 286.692 96.8041 286.829C91.1394 287.367 85.4254 286.684 80.0456 284.828C75.3027 283.119 70.9003 280.58 67.0435 277.33C65.1499 275.708 63.0764 273.934 61.5993 271.906C58.6003 267.799 57.2582 261.894 56.8842 255.781C51.3146 261.102 43.6738 264.116 36.1561 265.314C34.4992 265.551 32.8636 265.864 31.254 265.838C30.8658 272.115 27.0502 277.5 21.0758 280.08C18.9815 280.995 16.7231 281.471 14.4387 281.482C10.7816 281.482 7.33757 280.201 4.78591 277.742C1.2188 274.289 -3.60994 265.525 4.13971 245.622C4.2264 245.397 4.35857 245.193 4.52791 245.022C10.9189 238.551 17.3643 232.29 25.63 226.895C24.944 225.865 24.3119 224.799 23.7363 223.703C17.4448 211.681 17.9608 196.25 25.2607 177.822C14.0055 170.653 8.47611 160.357 8.85247 150.966C9.13178 143.98 12.6397 137.537 18.7017 132.825C24.7234 128.149 33.2116 125.182 43.3827 124.17C34.5631 110.487 29.706 93.8162 29.99 77.9423C30.293 60.8826 36.4118 45.9762 47.2906 35.6346C43.9047 34.4838 40.3791 33.7962 36.8094 33.5905C36.183 34.5735 35.3183 35.3816 34.296 35.9393C33.2737 36.497 32.127 36.7862 30.9629 36.78C29.765 36.7803 28.5873 36.4708 27.5438 35.8814C26.5003 35.292 25.6263 34.4428 25.0065 33.4159C24.3866 32.389 24.0418 31.2191 24.0055 30.0196C23.9692 28.8201 24.2425 27.6314 24.7991 26.5688C25.3557 25.5061 26.1767 24.6053 27.1826 23.9537C28.1885 23.302 29.3453 22.9216 30.541 22.8491C31.7367 22.7766 32.9309 23.0146 34.0079 23.5399C35.0849 24.0653 36.0083 24.8603 36.6887 25.848C38.6779 25.308 40.7277 25.0243 42.7886 25.0038C47.7333 25.0038 52.349 26.3887 56.6262 28.5774C62.6432 24.973 69.5715 22.3763 77.2383 20.861C85.4637 19.3433 93.2441 19.2793 100.454 20.6618C97.1403 17.4059 93.237 14.9278 89.0474 12.8363C87.8183 13.8993 86.2702 14.5209 84.6485 14.6024C83.0268 14.6839 81.4243 14.2207 80.0952 13.2863C78.7661 12.3518 77.7865 10.9996 77.3115 9.44399C76.8366 7.8884 76.8936 6.2185 77.4736 4.69908C78.0535 3.17966 79.1232 1.89768 80.5129 1.05642C81.9027 0.21517 83.533 -0.137206 85.1453 0.0551708C86.7577 0.247548 88.2598 0.973666 89.4135 2.11839C90.5671 3.26311 91.3063 4.76091 91.5138 6.37429C104.012 10.4791 116.368 18.0912 122.06 30.4532C135.571 40.9773 144.647 58.5136 147.624 79.8584C150.266 98.7985 147.451 118.305 140.095 132.607C153.26 135.711 166.605 138.536 175.872 138.061C177.102 136.756 178.4 135.517 179.761 134.35C179.998 134.151 180.621 133.639 180.86 133.444C181.745 132.694 182.846 132.246 184.003 132.166C185.16 132.087 186.312 132.379 187.291 133.001C190.744 134.988 193.466 137.032 194.304 140.544C197.848 140.964 200.468 142.42 202.099 144.872ZM197.576 165.621C200.828 156.451 201.363 150.127 199.169 146.828C198.222 145.405 196.702 144.509 194.56 144.132C194.51 148.419 193.919 153.98 189.918 156.288C188.434 157.016 187.045 156.98 185.835 156.458C183.972 161.258 184.01 165.493 185.982 168.23C186.586 169.099 187.411 169.79 188.372 170.231C189.333 170.672 190.394 170.847 191.445 170.739C194.011 170.471 196.243 168.605 197.576 165.621ZM191.459 146.997C191.546 145.544 191.538 144.087 191.436 142.636C191.462 139.553 188.832 137.72 186.465 136.252C186.027 135.978 185.573 135.73 185.106 135.51C184.758 135.377 184.381 135.335 184.012 135.388C183.643 135.44 183.293 135.585 182.995 135.809C182.68 136.046 182.1 136.52 181.79 136.757C180.422 137.893 179.12 139.088 177.851 140.347C175.958 142.007 174.748 144.583 171.884 144.73C171.767 143.624 172.06 142.514 172.708 141.611C163.086 141.419 150.566 138.699 138.317 135.799C133.929 143.15 128.43 148.647 121.942 152.138C123.419 153.926 123.599 156.072 123.452 157.99C123.743 158.044 124.028 158.124 124.304 158.227L132.475 161.27C133.814 159.412 135.645 157.966 137.761 157.096C140.862 155.866 144.455 156.065 147.889 157.658C150.73 158.552 152.088 162.721 151.461 168.308C158.385 169.418 165.02 169.755 171.197 169.304C171.351 169.292 171.505 169.309 171.652 169.354C176.386 170.777 180.36 171.377 183.811 171.151C183.565 170.878 183.334 170.592 183.12 170.293C180.263 166.33 180.232 160.421 183.018 154.037C182.019 152.59 181.43 150.899 181.314 149.143C181.202 147.805 181.557 146.469 182.32 145.365C182.731 146.511 183.048 147.689 183.267 148.887C183.579 151.384 185.804 155.543 188.711 154.035C190.867 152.52 191.211 149.489 191.459 146.997ZM159.313 175.157C159.313 174.521 159.125 173.9 158.772 173.372C158.42 172.843 157.919 172.431 157.333 172.188C156.747 171.945 156.102 171.881 155.48 172.005C154.857 172.129 154.286 172.435 153.837 172.885C153.389 173.334 153.083 173.906 152.96 174.53C152.836 175.153 152.899 175.799 153.142 176.386C153.385 176.973 153.796 177.475 154.323 177.828C154.851 178.181 155.471 178.37 156.105 178.37C156.956 178.369 157.771 178.031 158.373 177.428C158.974 176.826 159.312 176.009 159.313 175.157ZM152.718 171.185L152.86 171.068L152.2 170.976L152.718 171.185ZM151.433 172.845L139.834 168.062C139.617 168.657 139.418 169.271 139.233 169.902C139.167 170.139 139.105 170.376 139.049 170.589L150.931 174.569C150.996 173.966 151.166 173.379 151.433 172.835V172.845ZM149.229 169.736C150.242 164.023 149.023 160.091 147.26 159.581C145.603 159.107 142.793 161.277 140.582 166.195L149.227 169.752C149.227 169.752 149.229 169.733 149.229 169.726V169.736ZM147.532 175.557L138.601 172.567C137.524 178.327 138.708 182.382 140.535 182.913C142.294 183.423 145.378 180.753 147.532 175.548V175.557ZM143.894 158.484C142.09 158.138 140.227 158.302 138.511 158.958C135.725 160.068 133.5 162.558 132.08 166.143C130.383 170.435 130.601 176.942 133.905 180.4C134.843 181.357 136.016 182.049 137.306 182.406C136.019 179.871 135.789 175.714 136.864 171.023C136.975 170.514 137.115 169.961 137.29 169.347C137.58 168.333 137.924 167.336 138.319 166.359C139.837 162.622 141.839 159.864 143.894 158.484ZM135.922 132.923C150.545 107.075 148.131 60.7996 124.56 37.3563C125.033 39.4715 125.097 41.6247 124.345 43.759C122.924 41.8619 122.214 39.915 121.504 37.7523C120.865 35.7423 120.057 33.79 119.09 31.9163C115.26 24.3042 108.779 18.4967 101.46 14.2567C99.6185 13.1683 97.7155 12.1723 95.7792 11.2237C93.843 10.2752 91.8618 9.37644 89.8735 8.48007C89.6364 8.3892 89.4324 8.22828 89.2887 8.01865C89.145 7.80901 89.0683 7.56056 89.0687 7.30624C89.0682 6.18714 88.676 5.10365 87.9605 4.24433C87.2449 3.38501 86.2512 2.80427 85.1523 2.60317C84.0535 2.40207 82.919 2.59336 81.9464 3.14373C80.9738 3.6941 80.2246 4.56872 79.8292 5.61537C79.4338 6.66201 79.4173 7.81441 79.7824 8.87202C80.1476 9.92962 80.8714 10.8255 81.8278 11.4036C82.7842 11.9818 83.9127 12.2057 85.0169 12.0363C86.1211 11.867 87.131 11.3151 87.871 10.4768C88.0413 10.2834 88.267 10.1473 88.5173 10.087C88.7677 10.0268 89.0305 10.0453 89.2699 10.14C99.718 13.4599 107.733 20.9891 111.757 31.2073C112.424 32.8313 112.992 34.4943 113.459 36.1872C114.015 37.8471 114.244 39.6114 113.295 41.5773C110.895 39.9173 110.644 37.2567 109.574 34.8331C108.259 31.4332 106.521 28.2128 104.402 25.248C96.3828 22.8767 87.471 22.5636 77.9034 24.3303C71.387 25.6203 65.4316 27.7309 60.1768 30.6145C64.809 33.5597 69.0058 37.3444 72.7575 41.1481C74.3513 42.778 75.8867 44.4546 77.3637 46.1778C78.9662 47.9942 80.4716 49.666 80.6042 52.3267C78.1685 51.8264 76.5803 50.0312 75.0157 48.2954C73.4929 46.6765 71.9385 45.0956 70.3526 43.5527C61.3366 34.8687 49.6908 25.7223 36.4307 28.5419C36.1487 28.615 35.8501 28.5882 35.5856 28.4658C35.3212 28.3435 35.1071 28.1333 34.9797 27.8708C34.5425 26.9621 33.8103 26.2291 32.903 25.7916C31.9957 25.3542 30.967 25.2384 29.9854 25.463C29.0038 25.6877 28.1274 26.2396 27.4997 27.0283C26.872 27.817 26.5302 28.7959 26.5302 29.8046C26.5302 30.8134 26.872 31.7922 27.4997 32.581C28.1274 33.3697 29.0038 33.9216 29.9854 34.1462C30.967 34.3709 31.9957 34.255 32.903 33.8176C33.8103 33.3802 34.5425 32.6472 34.9797 31.7385C35.0831 31.5248 35.2445 31.3447 35.4455 31.2188C35.6465 31.093 35.8789 31.0265 36.1159 31.0271C39.7271 30.8315 43.3466 31.2027 46.8433 32.1274C53.8923 33.9676 60.1673 38.3546 64.6741 44.053C65.804 45.4457 66.8482 46.906 67.8009 48.4258L68.5111 49.5617C69.3155 50.7632 69.6243 52.2301 69.3727 53.6547C67.2423 52.8532 66.5062 51.3545 65.5097 49.972C64.5457 48.585 63.4958 47.26 62.3663 46.0047C61.6561 45.1438 60.5531 44.0767 59.7625 43.2752C58.5468 42.1412 57.2673 41.0779 55.9303 40.0905C54.3467 38.9431 52.6615 37.9437 50.8956 37.1049C26.3993 58.848 30.1983 99.3012 47.9676 124.675C54.2876 133.707 62.3568 140.978 71.3302 145.742C72.8376 145.484 74.382 145.543 75.8654 145.915L75.9932 145.953C76.54 146.136 78.2088 146.693 78.7366 148.325C78.7508 148.367 78.7603 148.408 78.7721 148.448C83.7689 148.303 89.1468 145.052 93.3838 142.128C94.4985 141.358 95.8716 141.061 97.2042 141.301C105.538 142.754 112.886 145.616 119.083 149.821L119.031 149.622L119.184 149.581C125.897 146.314 131.524 140.691 135.922 132.923ZM131.351 163.003L123.604 160.12C122.868 159.848 122.054 159.877 121.34 160.202C120.626 160.527 120.068 161.121 119.788 161.856L119.589 162.387C119.45 162.754 119.384 163.144 119.396 163.536C119.408 163.929 119.498 164.315 119.659 164.672C119.821 165.03 120.051 165.352 120.337 165.619C120.623 165.887 120.96 166.096 121.327 166.233L129.24 169.197C129.414 167.899 129.739 166.626 130.21 165.403C130.536 164.578 130.917 163.777 131.351 163.003ZM122.411 168.79L120.621 168.13L120.593 168.118C119.102 169.989 116.926 171.493 114.112 172.588C113.35 172.881 112.54 173.029 111.724 173.025C111.537 173.025 111.35 173.025 111.165 173.001C108.533 172.764 105.595 172.064 102.551 171.104C100.696 177.004 97.9167 180.767 94.2833 182.294C93.0001 182.825 91.6238 183.093 90.2356 183.082C88.1456 183.082 85.8543 182.532 83.3713 181.443C83.0495 182.959 82.5556 184.434 81.899 185.837C76.8217 196.724 62.8752 197.965 54.0414 190.964C52.3028 189.618 50.7915 188.001 49.5654 186.174H49.4115C49.3323 186.174 49.2532 186.168 49.1748 186.157C41.0038 185.007 34.059 182.691 28.3449 179.62C21.6273 196.824 21.1255 211.097 26.8656 222.067C32.073 232.027 42.5921 239.186 57.3505 242.862C57.5707 241.036 57.8381 239.305 58.134 237.74C60.5176 238.247 61.8124 240.822 61.2585 243.096C60.6738 251.014 60.5957 259.189 63.6255 266.573C64.6954 269.018 66.66 270.984 68.6341 272.739C72.4545 276.08 76.8051 278.85 81.5747 280.564C86.3566 282.244 91.4343 282.912 96.487 282.525C98.0208 282.433 99.5783 282.26 100.968 281.598C104.267 280.111 107.472 275.824 107.255 272.226C106.592 265.871 98.3711 262.584 92.8701 261.252C91.1919 260.744 89.4096 260.813 87.8023 260.04C87.1631 259.725 86.5982 259.277 86.1454 258.726C86.6542 258.278 87.2537 257.945 87.9028 257.75C88.552 257.555 89.2355 257.503 89.9066 257.597C92.9518 257.967 95.9494 258.659 98.8493 259.661C101.926 238.873 99.7582 219.447 79.913 207.727C78.6869 206.988 77.3093 206.231 76.0287 205.61C75.4725 205.325 74.573 204.948 74.0617 204.569C73.3213 203.998 72.7922 203.196 72.5587 202.29C73.3731 201.801 74.334 201.616 75.2713 201.768C75.9435 201.856 76.8264 202.352 77.4537 202.603C78.1638 202.904 78.8739 203.253 79.584 203.601C88.5266 207.87 95.597 214.51 99.7724 223.011C113.016 207.986 120.439 190.21 122.411 168.79ZM121.428 158.054C121.651 155.683 121.225 154.165 120.025 153.025L119.939 153.048L119.904 152.913C119.826 152.844 119.743 152.773 119.667 152.707C113.39 148.012 105.716 144.841 96.8799 143.3C96.0659 143.154 95.2275 143.336 94.546 143.805C91.5233 145.88 87.9586 148.109 84.266 149.396C87.9609 152.37 89.838 157.288 89.8593 164.059C90.1857 164.105 90.5043 164.196 90.8061 164.329C97.2278 167.158 105.363 170.471 111.338 170.997C112.031 171.056 112.728 170.954 113.376 170.701C115.769 169.769 117.615 168.531 118.879 167.018C118.185 166.339 117.704 165.472 117.494 164.523C117.283 163.574 117.354 162.585 117.696 161.675L117.897 161.144C118.187 160.379 118.661 159.696 119.277 159.157C119.893 158.618 120.632 158.24 121.428 158.054ZM93.4974 180.426C96.5745 179.136 98.9676 175.783 100.636 170.466C99.5097 170.072 98.3735 169.65 97.2397 169.212C95.8644 173.084 93.8619 175.792 91.2771 177.274C90.4155 178.808 89.0809 180.02 87.4733 180.729C89.7599 181.249 91.7742 181.154 93.4974 180.426ZM92.3139 173.881C93.5471 172.558 94.5697 170.746 95.3721 168.46C93.5448 167.718 91.7387 166.94 89.9942 166.172C89.7876 166.08 89.5628 166.036 89.3369 166.044C89.111 166.052 88.8898 166.111 88.69 166.217L88.3633 166.39C88.9596 166.79 89.5147 167.248 90.0202 167.758C91.4783 169.261 92.4796 171.448 92.3281 173.618C92.3305 173.705 92.3257 173.793 92.3139 173.881ZM86.2448 178.704C88.8012 177.519 90.309 174.199 89.0143 171.626C88.0296 169.513 85.7856 168.562 83.7429 167.692C80.4101 166.421 76.9519 164.327 74.3908 161.69C73.8072 161.099 73.2632 160.471 72.7622 159.809C72.5026 160.179 72.1111 160.435 71.6686 160.524C71.2262 160.613 70.7664 160.528 70.3844 160.288C70.0023 160.047 69.727 159.669 69.6154 159.231C69.5038 158.792 69.5643 158.328 69.7845 157.933C70.968 155.953 72.1847 154.255 73.1646 152.892C74.0452 151.666 75.1245 150.165 75.3376 149.484C75.2124 149.42 75.0826 149.365 74.9494 149.321C70.6153 148.275 65.7842 151.106 59.2891 158.491C59.0387 158.778 58.7023 158.975 58.3302 159.054C57.9581 159.134 57.5704 159.09 57.2254 158.929C56.8803 158.769 56.5964 158.501 56.4162 158.165C56.2361 157.83 56.1694 157.445 56.2262 157.068C52.136 155.408 48.4623 152.873 45.1011 150.058C42.7199 148.087 40.5304 145.998 38.9469 143.252C42.3436 144.585 45.0301 146.66 48.0576 148.512C51.3963 150.645 54.8986 152.509 58.5317 154.087C61.0289 151.443 63.8551 148.891 66.9157 147.281C58.837 142.453 51.5608 135.685 45.6787 127.504C21.7764 129.24 12.7983 140.774 12.3817 151.111C12.0385 159.648 17.3714 169.05 28.1958 175.505C28.2993 175.553 28.3977 175.611 28.4893 175.678C33.6613 178.709 40.0641 181.071 47.6788 182.361C47.5936 181.635 47.8445 180.938 48.5807 180.134C49.6151 180.288 50.1548 180.549 50.5406 180.867C50.9264 181.185 51.0968 181.578 51.3051 181.955C51.7362 182.708 52.2219 183.428 52.7585 184.109C55.9185 188.14 60.9815 190.713 66.047 190.841C73.309 191.045 78.2206 186.383 80.0645 179.695C79.6127 179.333 79.3109 178.816 79.2171 178.244C80.3131 177.934 81.0042 178.164 81.9179 178.526L82.1262 178.595V178.576L82.2256 178.628C83.5559 179.039 85.0637 179.276 86.2519 178.704H86.2448ZM87.8378 164.391C87.8804 157.36 85.8353 152.557 81.7546 150.105C80.7532 150.326 79.7332 150.451 78.7082 150.478C78.3082 151.765 77.3022 153.169 76.0145 154.96C75.6429 155.477 75.2524 156.02 74.8523 156.594C75.465 157.518 76.1624 158.383 76.9353 159.178C79.3023 161.578 81.9297 163.262 85.1181 164.618C85.5134 164.806 85.9111 164.995 86.3016 165.199L87.7408 164.436L87.8378 164.391ZM56.8085 250.417C56.8392 249.063 56.9055 247.723 57.0049 246.412C44.0857 243.279 34.1229 237.588 27.7295 229.739C19.7787 234.903 13.506 240.965 7.2926 247.246C2.3029 260.232 2.27923 270.41 7.23579 275.207C10.2798 278.152 15.1701 278.793 19.6958 276.841C23.5588 275.181 27.6585 271.221 27.784 265.074C27.4964 264.938 27.2174 264.784 26.9484 264.614C29.3154 262.376 32.4541 262.262 35.3963 261.47C38.1767 260.798 40.9051 259.926 43.5602 258.861C48.4814 256.934 52.9812 254.066 56.8085 250.417Z" fill="black"/>
<path d="M143.302 85.3481C143.776 89.2016 143.255 93.3539 141.356 96.8208C140.679 98.0842 139.871 99.2725 138.944 100.366C137.842 101.621 136.498 102.641 134.993 103.365C133.489 104.088 131.854 104.501 130.186 104.578C124.075 104.924 118.571 100.587 117.371 94.5846C116.749 91.7389 116.898 88.8506 117.336 86.0903C117.35 85.9736 117.386 85.8608 117.443 85.7583C117.501 85.6557 117.578 85.5655 117.67 85.4928C122.593 80.8188 127.772 76.4365 133.025 72.1419C134.831 70.6835 136.471 69.1303 138.798 68.4497C138.526 69.043 138.192 69.6058 137.801 70.1286C140.398 74.8619 142.639 79.8987 143.302 85.3481ZM127.793 93.6906C129.292 93.5104 130.267 91.388 129.971 88.9478C129.675 86.5077 128.222 84.6794 126.724 84.8715C125.225 85.0635 124.248 87.1741 124.543 89.6142C124.839 92.0543 126.293 93.8756 127.793 93.6906Z" fill="black"/>
<path d="M134.667 59.96C134.557 60.5766 134.256 61.1426 133.806 61.5773C132.622 62.4594 131.365 63.2965 130.284 64.3162C128.719 65.7035 127.602 67.3231 126.061 68.8005C123.957 70.6525 121.327 72.7393 118.278 72.2176C117.059 72.0208 115.438 71.1339 115.35 69.685C115.314 69.348 115.373 69.0075 115.52 68.7023C115.667 68.3972 115.897 68.1395 116.183 67.9586C117.663 72.6231 122.15 69.2321 124.335 67.0243C125.755 65.5873 127.079 63.7898 128.717 62.5045C129.988 61.4848 131.32 60.5078 132.797 59.8367C133.414 59.6404 134.082 59.6844 134.667 59.96Z" fill="black"/>
<path d="M122.491 123.312C122.965 124.497 122.418 125.645 121.824 126.646C121.337 127.482 120.659 128.191 119.845 128.714C120.486 131.912 120.953 135.65 118.898 138.436C117.861 139.826 116.058 140.57 114.462 140.725C113.029 140.61 111.646 140.142 110.438 139.361C109.311 138.621 108.34 137.665 107.581 136.549C107.295 136.212 107.099 135.808 107.012 135.374C106.925 134.941 106.949 134.492 107.082 134.07C108.067 131.979 109.6 130.212 111.279 128.654C111.702 128.194 112.488 127.824 113.172 127.969L113.662 128.071C115.994 128.647 118.645 128.441 120.247 126.615L120.957 125.557C121.402 124.763 121.713 123.926 122.491 123.312ZM118.5 135.311C118.929 133.414 118.737 131.369 118.415 129.411C116.773 129.931 115.02 129.994 113.345 129.593C112.898 129.52 112.763 129.385 112.353 129.83C111.932 130.224 111.52 130.649 111.125 131.092C114.091 132.548 116.739 134.22 117.324 136.442C117.415 136.786 117.453 137.142 117.438 137.497C117.983 136.878 118.351 136.123 118.5 135.311ZM115.897 139.529C116.775 138.925 116.704 137.476 116.687 137.158C116.522 133.793 110.516 131.55 109.87 131.315C109.465 131.672 109.098 132.07 108.772 132.501C108.467 132.911 107.901 133.67 107.766 134.296C107.342 136.3 110.969 138.752 113.771 139.555C114.735 139.849 115.397 139.868 115.89 139.529H115.897Z" fill="black"/>
<path d="M121.632 109.382C123.187 110.243 122.238 113.849 121.84 113.873C121.618 113.887 121.63 112.773 120.709 111.355C120.306 110.737 119.811 110.185 119.241 109.719C119.428 109.607 120.718 108.872 121.632 109.382Z" fill="black"/>
<path d="M116.68 137.165C116.697 137.475 116.768 138.924 115.89 139.536C115.397 139.875 114.735 139.856 113.759 139.579C110.957 138.775 107.33 136.323 107.754 134.319C107.889 133.693 108.464 132.934 108.76 132.524C109.086 132.093 109.454 131.696 109.858 131.338C110.509 131.557 116.515 133.8 116.68 137.165ZM115.497 138.742C115.899 138.059 116.017 137.428 115.859 136.823C115.404 135.095 112.673 133.518 110.138 132.292C109.59 133.019 109.108 133.794 108.696 134.606C108.564 134.974 108.767 135.284 108.985 135.571C109.62 136.497 110.432 137.287 111.373 137.895C112.286 138.464 113.308 138.835 114.372 138.986C114.76 138.947 115.141 138.865 115.511 138.742H115.497Z" fill="black"/>
<path d="M115.864 136.828C116.022 137.433 115.904 138.064 115.502 138.747C115.136 138.866 114.759 138.946 114.377 138.984C113.313 138.833 112.291 138.462 111.378 137.893C110.436 137.285 109.624 136.495 108.99 135.569C108.772 135.282 108.568 134.972 108.701 134.604C109.113 133.792 109.595 133.017 110.143 132.29C112.671 133.508 115.409 135.095 115.864 136.828Z" fill="#FC4C93"/>
<path d="M114.744 154.445C114.92 154.895 115.005 155.376 114.993 155.86C114.98 156.343 114.872 156.819 114.673 157.26L113.397 160.106L111.705 163.869C111.32 164.725 110.621 165.399 109.753 165.752C108.886 166.105 107.915 166.11 107.044 165.766L100.577 163.224C99.214 162.691 97.9806 161.871 96.9599 160.82C95.9392 159.769 95.1549 158.512 94.6597 157.132C94.1808 155.787 94.2047 154.315 94.727 152.986C95.2493 151.658 96.2346 150.565 97.5002 149.909L97.5499 149.883C98.9004 149.183 100.39 148.794 101.909 148.744C103.429 148.694 104.94 148.984 106.334 149.593L112.784 152.401C113.231 152.592 113.635 152.872 113.972 153.223C114.309 153.574 114.571 153.99 114.744 154.445ZM112.836 156.437C112.924 156.239 112.972 156.025 112.978 155.808C112.983 155.591 112.945 155.375 112.867 155.173C112.789 154.971 112.671 154.786 112.521 154.629C112.371 154.473 112.192 154.347 111.993 154.26L105.543 151.452C104.423 150.965 103.208 150.733 101.987 150.774C100.767 150.815 99.5701 151.128 98.4849 151.69L98.4351 151.716C97.6044 152.147 96.9573 152.864 96.6132 153.736C96.2691 154.608 96.2512 155.575 96.5628 156.458C96.9601 157.567 97.589 158.577 98.4075 159.423C99.2259 160.268 100.215 160.929 101.309 161.36L107.778 163.902C108.169 164.057 108.604 164.054 108.994 163.895C109.383 163.736 109.696 163.433 109.868 163.049L112.836 156.437Z" fill="black"/>
<path d="M111.96 123.24C112.893 123.074 113.84 122.808 114.813 123.321C113.961 123.996 113.092 124.032 112.252 124.333C111.419 124.611 110.609 124.954 109.83 125.36C108.133 126.145 107.136 127.463 105.425 128.36C105.882 125.621 109.473 123.721 111.96 123.24Z" fill="black"/>
<path d="M112.412 111.817C111.843 112.285 111.349 112.837 110.945 113.453C110.027 114.876 110.036 115.988 109.813 115.974C109.416 115.948 108.467 112.341 110.024 111.48C110.943 110.98 112.225 111.706 112.412 111.817Z" fill="black"/>
<path d="M101.976 73.145C104.973 72.7561 106.4 77.2096 104.239 79.0237C103.167 80.0244 101.635 80.3753 100.381 80.6386C98.6853 80.9746 96.9434 81.0044 95.2373 80.7263C92.0087 80.2022 89.1422 78.7106 86.1882 77.6649C83.3602 76.6826 80.4157 76.0767 77.4302 75.8626C75.9247 75.7037 74.4241 75.4785 72.8074 74.741C74.2986 73.764 75.9176 73.4675 77.5249 73.4367C80.7744 73.4379 84.0056 73.9254 87.1113 74.8832C89.4121 75.6065 91.4548 76.5432 93.6704 77.2688C95.6709 77.96 97.8038 78.1791 99.9027 77.9091C100.904 77.7502 101.796 77.6245 102.537 77.1147C102.659 77.0262 102.756 76.9067 102.817 76.7685C102.956 76.3867 102.769 75.8792 102.561 75.4666C102.234 74.7323 102.036 73.9469 101.976 73.145Z" fill="black"/>
<path d="M103.74 96.3226C105.304 102.989 101.678 110.176 95.2183 112.621C92.1885 113.899 88.6995 113.887 85.5585 113.427C82.4174 112.967 79.2598 112.289 76.3271 110.864C69.9621 107.942 66.6554 101.853 66.4092 95.0469C66.2978 92.1228 66.509 89.1954 67.0389 86.3178C66.127 86.0974 65.2379 85.7918 64.3831 85.4049C67.2732 84.6436 70.116 84.9306 73.0203 85.1108C81.5866 85.6278 90.1434 86.2633 98.6671 87.2996C98.8018 87.3044 98.9338 87.3393 99.0533 87.4016C99.1729 87.464 99.2771 87.5522 99.3583 87.66C101.394 90.1523 103.056 93.0691 103.74 96.3226ZM93.1922 100.029C94.6929 99.8465 95.6681 97.7241 95.3722 95.2864C95.0763 92.8486 93.623 91.0179 92.1246 91.21C90.6263 91.4021 89.6487 93.5149 89.9446 95.9527C90.2405 98.3905 91.6938 100.212 93.1922 100.029Z" fill="black"/>
</g>
<defs>
<clipPath id="clip0_1932_1511">
<rect width="204" height="287" fill="white"/>
</clipPath>
</defs>
</svg>
