<svg width="236" height="258" viewBox="0 0 236 258" fill="none" xmlns="http://www.w3.org/2000/svg">
<g clip-path="url(#clip0_1932_859)">
<path d="M232.843 150.793C232.926 151.681 232.606 152.535 231.834 153.407C230.635 154.777 228.421 156.054 225.597 157.004C222.868 157.881 220.044 158.436 217.184 158.657C216.604 158.706 216.021 158.746 215.434 158.772C215.256 158.772 215.083 158.772 214.908 158.772C214.617 158.772 214.325 158.772 214.037 158.739C208.975 158.361 204.501 154.772 201.592 151.761C200.321 150.467 199.154 149.075 198.103 147.597C197.876 147.231 197.668 146.854 197.48 146.466C196.834 145.175 196.356 143.806 196.059 142.393C195.278 138.548 196.135 135.173 198.603 132.365C202.201 128.268 207.604 128.476 210.126 129.909C210.364 130.047 210.55 130.258 210.655 130.512C210.76 130.765 210.779 131.045 210.708 131.31C210.637 131.575 210.481 131.809 210.263 131.976C210.045 132.144 209.778 132.235 209.503 132.236H209.475C207.272 132.2 205.469 132.816 204.264 134.014C203.118 135.161 202.559 136.77 202.606 138.794C202.679 142.348 204.456 145.229 207.36 146.495C210.469 147.85 214.198 147.101 217.09 144.542C218.511 143.29 219.221 141.835 219.254 140.225C219.288 137.669 217.466 135.435 215.938 134.009C215.82 133.899 215.726 133.766 215.663 133.618C215.599 133.47 215.567 133.31 215.569 133.149C215.569 133.011 215.599 132.875 215.656 132.749C215.714 132.624 215.798 132.512 215.903 132.422C216.947 131.515 218.608 131.836 220.834 133.367C224.2 135.695 224.624 139.127 224.567 140.966C224.475 144.239 222.857 147.392 220.541 148.811C220.201 149.014 219.951 149.337 219.84 149.715C219.729 150.093 219.765 150.499 219.94 150.853C220.116 151.206 220.419 151.48 220.788 151.621C221.157 151.762 221.566 151.758 221.933 151.612C223.44 151.069 224.978 150.618 226.54 150.264C230.735 149.331 232.149 149.938 232.48 150.146C232.593 150.211 232.686 150.306 232.75 150.42C232.814 150.534 232.846 150.662 232.843 150.793Z" fill="white"/>
<path d="M37.39 132.353C39.858 135.161 40.706 138.536 39.9338 142.381C39.6366 143.798 39.1591 145.172 38.5127 146.468C38.3277 146.855 38.1221 147.232 37.8969 147.597C36.8479 149.086 35.6821 150.489 34.4104 151.794C31.5018 154.805 27.0276 158.392 21.9684 158.772C21.5026 158.808 21.0352 158.815 20.5686 158.793C19.9812 158.767 19.3985 158.728 18.8206 158.678C15.9592 158.458 13.1338 157.904 10.4028 157.025C7.57944 156.08 5.36484 154.798 4.16873 153.428C3.40605 152.557 3.07682 151.702 3.15736 150.814C3.15625 150.683 3.1901 150.554 3.25544 150.44C3.32079 150.326 3.41527 150.232 3.52922 150.167C3.72581 150.044 4.30373 149.779 5.61117 149.779C6.91262 149.801 8.20787 149.964 9.47428 150.263C11.0348 150.618 12.5717 151.068 14.0764 151.612C14.4424 151.75 14.8469 151.746 15.2106 151.603C15.5744 151.459 15.8714 151.185 16.0437 150.835C16.2159 150.485 16.2511 150.083 16.1422 149.708C16.0333 149.334 15.7882 149.013 15.4549 148.809C13.1384 147.392 11.5183 144.237 11.4283 140.964C11.3691 139.124 11.7931 135.693 15.1588 133.364C17.3876 131.824 19.0456 131.503 20.0925 132.42C20.197 132.51 20.2807 132.622 20.3379 132.747C20.3951 132.873 20.4245 133.009 20.4241 133.147C20.4265 133.308 20.3948 133.468 20.3311 133.616C20.2675 133.764 20.1733 133.897 20.0546 134.006C18.5221 135.423 16.7031 137.667 16.7386 140.222C16.7576 141.833 17.4871 143.292 18.9035 144.539C20.841 146.256 23.1669 147.158 25.4075 147.156C26.5165 147.159 27.6142 146.933 28.6311 146.492C31.535 145.226 33.3137 142.345 33.3872 138.791C33.4298 136.767 32.8685 135.159 31.7292 134.011C30.5449 132.814 28.733 132.198 26.5184 132.233C26.2377 132.246 25.9612 132.161 25.7367 131.992C25.5123 131.824 25.3539 131.582 25.2891 131.31C25.2051 131.045 25.2172 130.759 25.3233 130.503C25.4294 130.246 25.6228 130.035 25.8694 129.907C28.3848 128.469 33.7898 128.256 37.39 132.353Z" fill="white"/>
<path d="M87.2669 41.8493C88.2204 44.0616 89.3647 46.1871 90.6871 48.2019C89.171 49.1779 87.7192 50.2499 86.3408 51.4112C85.9571 51.7356 85.5781 52.067 85.2039 52.4055C80.4528 47.1623 77.1418 40.7837 75.5923 33.8885C74.2991 28.1334 74.2872 21.9886 75.5615 17.4544C76.3289 14.7245 77.3948 13.3005 78.0627 13.1304C78.3781 13.0467 78.7027 13.0023 79.0291 12.9982C79.5124 12.987 79.9869 13.1292 80.3839 13.4044C81.5445 14.2144 81.9826 16.139 82.0608 16.8499C82.4256 28.516 85.0878 36.883 87.2669 41.8493Z" fill="white"/>
<path d="M95.2892 45.6299C94.3781 46.0676 93.4852 46.5359 92.6104 47.035C91.3156 45.0727 90.1996 42.9989 89.2755 40.8383C87.1959 36.0632 84.645 28.0056 84.3015 16.7504C84.3015 16.7268 84.3015 16.7032 84.3015 16.6796C84.2897 16.5379 83.951 13.1797 81.6961 11.5857C80.5308 10.7591 79.1096 10.5513 77.5085 10.9575C75.8031 11.3897 74.3418 13.482 73.3967 16.8496C72.0064 21.8089 72.0087 28.1851 73.3967 34.3771C75.0373 41.6709 78.5463 48.4161 83.5815 53.9544C82.4083 55.1365 81.3013 56.3821 80.2655 57.6856C78.1563 55.2475 76.3016 52.6015 74.7302 49.7886C70.3188 41.9132 67.942 33.0671 67.814 24.0476C67.7217 18.1933 69.067 12.7759 71.6037 8.79433C73.7354 5.46454 76.5777 3.36275 79.2257 3.15257C82.9941 2.8621 85.7653 6.45875 86.644 12.7641L87.1485 16.4127C89.2613 31.836 89.8131 35.846 95.2892 45.6299Z" fill="white"/>
<path d="M164.41 8.79451C166.95 12.7761 168.295 18.1935 168.2 24.0478C168.072 33.0673 165.695 41.9133 161.284 49.7888C159.712 52.6018 157.856 55.2478 155.746 57.6858C154.711 56.3822 153.604 55.1366 152.43 53.9545C157.465 48.4163 160.975 41.6711 162.615 34.3772C164.005 28.1876 164.005 21.7996 162.615 16.8498C161.668 13.4822 160.211 11.3899 158.503 10.9577C156.895 10.5515 155.488 10.7593 154.328 11.5764C152.066 13.1705 151.722 16.5357 151.722 16.6703C151.722 16.6939 151.722 16.7175 151.722 16.7411C151.381 28.0058 148.833 36.0634 146.748 40.829C145.825 42.99 144.709 45.0639 143.413 47.0257C142.542 46.5282 141.649 46.0599 140.737 45.6206C146.211 35.8367 146.765 31.8268 148.889 16.4034C149.048 15.2557 149.214 14.0419 149.394 12.7548C150.27 6.44712 153.046 2.85283 156.812 3.1433C159.441 3.35584 162.291 5.46471 164.41 8.79451Z" fill="white"/>
<path d="M160.443 17.4544C161.717 21.9886 161.706 28.1334 160.412 33.8885C158.863 40.7842 155.551 47.1631 150.798 52.4055C149.851 51.5443 148.867 50.7303 147.847 49.9636C147.025 49.3449 146.181 48.7576 145.318 48.2019C146.642 46.1873 147.789 44.0618 148.745 41.8493C150.924 36.89 153.593 28.516 153.956 16.8499C154.034 16.1414 154.474 14.2144 155.633 13.4044C156.239 12.9793 156.999 12.8895 157.954 13.1304C158.61 13.3005 159.676 14.7245 160.443 17.4544Z" fill="white"/>
<path d="M97.8211 77.7945C99.0433 78.0306 99.7728 79.5279 99.4531 81.1266C99.1333 82.7254 97.8851 83.8259 96.6629 83.5826C95.4407 83.3394 94.7112 81.8469 95.031 80.2481C95.3507 78.6494 96.6108 77.5512 97.8211 77.7945Z" fill="white"/>
<path d="M140.962 80.2478C141.284 81.8466 140.552 83.3391 139.332 83.5823C138.113 83.8256 136.862 82.7274 136.542 81.1263C136.222 79.5252 136.952 78.035 138.174 77.7942C139.396 77.5533 140.645 78.6396 140.962 80.2478Z" fill="white"/>
<path d="M129.477 105.193C129.085 107.029 128.215 108.729 126.954 110.122L126.876 110.077C118.823 105.699 111.864 108.514 109.024 110.077H109.008C107.764 108.689 106.907 107 106.521 105.179C106.269 104.007 106.177 102.805 106.248 101.608C111.571 104.069 117.646 104.329 117.935 104.341H118.056C118.345 104.329 124.42 104.069 129.742 101.608C129.817 102.81 129.728 104.016 129.477 105.193Z" fill="white"/>
<path d="M138.863 242.489V242.799L138.837 243.108C138.727 244.759 138.189 246.353 137.276 247.734C136.813 248.438 136.278 249.091 135.678 249.683C135.061 250.284 134.392 250.829 133.679 251.312C132.205 252.292 130.598 253.057 128.908 253.586C127.185 254.137 125.407 254.499 123.605 254.665L123.418 254.682C121.665 254.721 119.859 254.742 117.999 254.743C117.118 254.743 116.251 254.743 115.393 254.729C111.248 248.166 110.54 241.283 113.29 234.262C114.561 231.083 116.38 228.149 118.664 225.595C119.304 225.812 119.943 226.032 120.578 226.258C124.145 227.541 127.662 228.991 130.877 230.826C132.46 231.694 133.936 232.743 135.275 233.952C135.889 234.512 136.43 235.147 136.886 235.842C137.092 236.149 137.291 236.578 137.494 236.959C137.698 237.339 137.845 237.757 138.025 238.139C138.332 238.936 138.562 239.76 138.712 240.6C138.785 241.013 138.835 241.429 138.863 241.847C138.866 242.074 138.859 242.281 138.863 242.489Z" fill="white"/>
<path d="M171.099 156.243C171.097 156.262 171.097 156.281 171.099 156.3C171.039 156.296 170.979 156.287 170.919 156.274C170.458 156.146 170.013 155.966 169.593 155.738C169.103 155.501 168.593 155.218 168.068 154.932C166.968 154.275 165.797 153.746 164.576 153.355C164.94 154.653 165.623 155.84 166.563 156.807C167.017 157.31 167.52 157.766 168.065 158.168C168.357 158.382 168.663 158.575 168.982 158.746C169.336 158.941 169.71 159.1 170.097 159.219C170.594 159.378 171.118 159.433 171.637 159.382C171.797 159.358 171.955 159.325 172.111 159.282C172.273 159.232 172.431 159.17 172.584 159.096C172.868 158.954 173.128 158.77 173.356 158.55C173.791 158.122 174.097 157.581 174.24 156.989C174.348 156.532 174.387 156.062 174.356 155.594C174.339 155.331 174.309 155.081 174.271 154.843C177.421 156 182.298 157.733 186.22 158.857C186.22 158.985 186.22 159.11 186.22 159.237C186.22 159.847 186.26 160.447 186.31 161.042C186.411 162.22 186.574 163.392 186.798 164.553C187.035 165.703 187.295 166.837 187.625 167.949C187.776 168.509 187.975 169.054 188.146 169.602C188.316 170.15 188.537 170.686 188.731 171.225C188.664 170.653 188.586 170.086 188.529 169.52C188.473 168.953 188.42 168.384 188.402 167.815C188.333 166.681 188.33 165.55 188.364 164.428C188.409 163.316 188.511 162.207 188.669 161.105C188.75 160.562 188.842 160.021 188.961 159.495C189.017 159.23 189.084 158.973 189.15 158.718L189.193 158.567C190.301 157.568 194.01 154.162 196.644 150.915C198.007 152.649 199.512 154.266 201.144 155.749C203.036 157.492 205.164 158.961 207.466 160.114C209.36 161.061 211.41 161.658 213.518 161.878C211.495 168.115 204.28 177.169 204.205 177.268C204.031 177.485 203.919 177.744 203.879 178.019C203.839 178.294 203.872 178.574 203.976 178.832C204.08 179.089 204.251 179.315 204.471 179.485C204.691 179.656 204.952 179.765 205.228 179.802C206.412 179.96 207.781 180.418 208.198 180.777C207.781 181.757 206.493 182.619 200.884 182.525C200.568 182.519 200.258 182.609 199.994 182.782C199.73 182.955 199.524 183.203 199.404 183.494C199.283 183.785 199.253 184.105 199.318 184.413C199.382 184.721 199.538 185.003 199.766 185.222C200.557 185.984 201.36 187.175 201.424 187.664C200.87 187.9 198.558 187.857 195.348 186.754C192.089 185.618 189.484 183.935 188.366 182.23C188.246 182.045 188.088 181.887 187.903 181.768C187.718 181.648 187.509 181.569 187.291 181.535C187.198 181.521 178.053 180.073 168.304 177.698C168.115 177.53 167.921 177.374 167.717 177.225C167.336 176.936 166.941 176.667 166.533 176.418C166.123 176.163 165.696 175.936 165.256 175.738C164.791 175.534 164.293 175.415 163.785 175.386C163.987 175.872 164.181 176.297 164.394 176.696L165.036 177.863L165.68 179.006C165.825 179.266 165.978 179.533 166.125 179.783C166.171 179.882 166.227 179.976 166.291 180.064C166.875 180.873 167.399 181.723 167.859 182.607C169.02 184.863 168.707 185.559 168.705 185.566C168.702 185.574 168.451 185.729 167.911 185.751C167.763 185.756 167.616 185.782 167.475 185.829C167.26 185.829 167.035 185.829 166.8 185.81C166.23 185.765 165.616 185.682 164.865 185.666C164.933 186.023 165.058 186.368 165.235 186.686C165.406 186.992 165.61 187.278 165.843 187.541C166.082 187.812 166.345 188.06 166.63 188.282L166.777 188.389C167.454 189.591 170.396 195.298 170.412 203.739C170.176 203.847 169.96 203.956 169.744 204.074C169.208 204.367 168.688 204.69 168.188 205.042C167.205 205.733 166.281 206.503 165.424 207.345C164.588 208.178 163.814 209.071 163.11 210.018C162.748 210.476 162.442 210.982 162.118 211.461C161.793 211.94 161.526 212.465 161.256 212.975C161.717 212.618 162.144 212.236 162.596 211.886C163.049 211.536 163.484 211.178 163.949 210.852L164.631 210.353C164.856 210.19 165.093 210.037 165.322 209.881C165.775 209.557 166.253 209.272 166.715 208.977C167.663 208.407 168.61 207.886 169.586 207.425C170.059 207.189 170.555 206.979 171.04 206.787C171.277 206.683 171.514 206.591 171.751 206.506C171.869 206.466 171.987 206.421 172.104 206.388C172.22 206.355 172.34 206.308 172.402 206.294L172.492 206.263C175.161 205.319 182.393 203.46 186.554 205.153C186.044 205.467 185.483 205.688 184.896 205.807C184.544 205.897 184.235 206.106 184.019 206.397C183.804 206.689 183.697 207.046 183.716 207.407C183.734 207.769 183.878 208.113 184.122 208.381C184.366 208.649 184.696 208.824 185.055 208.877C185.173 208.892 196.294 210.434 198.368 217.924C197.943 217.984 197.51 217.956 197.096 217.843C196.682 217.729 196.296 217.532 195.962 217.263C195.692 217.048 195.359 216.927 195.014 216.92C194.669 216.912 194.33 217.018 194.051 217.221C193.772 217.424 193.568 217.713 193.471 218.044C193.373 218.374 193.387 218.727 193.51 219.049C193.972 220.418 194.25 221.843 194.337 223.285C194.591 226.689 193.975 230.102 192.546 233.204C189.358 240.22 182.307 245.933 171.575 250.207C171.62 250.005 171.74 249.829 171.912 249.713C172.257 249.511 172.513 249.185 172.625 248.802C172.738 248.419 172.7 248.007 172.519 247.651C172.337 247.295 172.026 247.021 171.65 246.886C171.273 246.75 170.858 246.763 170.491 246.922C170.45 246.943 166.199 248.901 157.644 250.838C152.494 252.002 145.055 253.312 135.393 254.085L135.521 253.997C136.4 253.404 137.225 252.734 137.985 251.995C138.753 251.236 139.434 250.395 140.017 249.487C141.211 247.637 141.908 245.512 142.04 243.316L142.066 242.907V242.499C142.066 242.227 142.066 241.953 142.047 241.684C142.006 241.145 141.936 240.609 141.838 240.078C141.644 239.028 141.344 237.999 140.943 237.008C140.723 236.536 140.528 236.04 140.28 235.591C140.031 235.143 139.818 234.689 139.489 234.198C138.884 233.293 138.168 232.468 137.357 231.742C135.824 230.394 134.139 229.229 132.336 228.27C129.273 226.654 126.084 225.288 122.8 224.187C123.847 223.872 124.898 223.564 125.952 223.262C128.451 222.539 130.959 221.845 133.482 221.169C136.004 220.494 138.536 219.856 141.061 219.186C143.586 218.515 146.13 217.854 148.667 217.112C146.023 217.157 143.397 217.393 140.779 217.698C138.162 218.002 135.569 218.418 132.963 218.879C130.358 219.339 127.783 219.863 125.206 220.451C122.629 221.039 120.085 221.741 117.556 222.518C115.14 221.809 112.707 221.169 110.265 220.581C106.504 219.672 102.722 218.879 98.9272 218.165C97.0323 217.806 95.1233 217.502 93.1953 217.313C91.2608 217.102 89.313 217.037 87.3686 217.119C91.0517 218.449 94.7751 219.332 98.5222 220.147C102.269 220.961 105.969 221.852 109.664 222.86C111.595 223.392 113.513 223.954 115.419 224.544C113.33 227.095 111.642 229.948 110.415 233.005C108.972 236.478 108.34 240.231 108.566 243.983C108.792 247.735 109.87 251.386 111.72 254.661C96.5231 254.248 85.3577 252.406 78.3871 250.828C69.8319 248.892 65.5803 246.934 65.5401 246.915C65.331 246.815 65.1018 246.763 64.8698 246.764C64.5218 246.765 64.1841 246.881 63.9093 247.094C63.6344 247.307 63.438 247.604 63.3506 247.94C63.2632 248.276 63.2898 248.631 63.4263 248.95C63.5627 249.269 63.8013 249.534 64.1047 249.704C64.2777 249.819 64.3991 249.997 64.4434 250.2C53.7092 245.928 46.6604 240.215 43.4723 233.197C42.0439 230.095 41.4278 226.682 41.6817 223.278C41.7675 221.837 42.0447 220.414 42.5059 219.046C42.6341 218.724 42.6515 218.368 42.5552 218.035C42.459 217.701 42.2546 217.409 41.9741 217.204C41.6936 216.999 41.3528 216.892 41.005 216.901C40.6572 216.909 40.3221 217.033 40.0521 217.251C39.7179 217.522 39.3313 217.721 38.9165 217.837C38.5017 217.952 38.0675 217.981 37.6409 217.922C38.4439 215.006 40.6964 212.649 44.3558 210.908C46.4496 209.931 48.6697 209.249 50.9522 208.882C51.3114 208.829 51.6412 208.654 51.8855 208.386C52.1299 208.118 52.2737 207.774 52.2927 207.413C52.3117 207.051 52.2046 206.694 51.9896 206.402C51.7746 206.111 51.465 205.902 51.1132 205.812C50.5263 205.693 49.965 205.472 49.4553 205.158C53.6168 203.465 60.848 205.314 63.5173 206.268C63.5498 206.281 63.583 206.292 63.6168 206.301C63.6737 206.315 63.8039 206.358 63.9058 206.393C64.0076 206.428 64.1426 206.471 64.2587 206.511C64.4956 206.596 64.7324 206.688 64.9693 206.792C65.4572 206.983 65.9427 207.201 66.4259 207.43C67.3923 207.89 68.3516 208.412 69.2942 208.981C69.7679 209.276 70.2417 209.562 70.6893 209.886C70.9262 210.042 71.163 210.195 71.3809 210.358L72.0631 210.856C72.5368 211.18 72.9537 211.548 73.4132 211.891C73.8727 212.233 74.2919 212.623 74.7561 212.979C74.4837 212.469 74.1948 211.966 73.894 211.466C73.5932 210.965 73.2639 210.481 72.9015 210.023C72.1959 209.074 71.4209 208.179 70.5827 207.345C69.7258 206.506 68.8013 205.738 67.8186 205.049C67.3187 204.698 66.7991 204.374 66.2625 204.081C66.0446 203.963 65.8219 203.845 65.5946 203.746C65.6088 195.289 68.5576 189.576 69.2303 188.396L69.3771 188.289C69.6621 188.067 69.9254 187.819 70.1635 187.548C70.3966 187.285 70.6007 186.999 70.7722 186.693C70.9482 186.374 71.0729 186.03 71.1417 185.673C70.379 185.689 69.7774 185.772 69.2066 185.817C68.9697 185.831 68.7471 185.838 68.5316 185.836C68.3907 185.789 68.244 185.763 68.0958 185.758C67.5534 185.736 67.3212 185.614 67.3023 185.574C67.2833 185.533 66.9873 184.865 68.1479 182.615C68.6078 181.731 69.131 180.882 69.7135 180.073C69.7818 179.983 69.8398 179.884 69.8864 179.781C70.0309 179.544 70.1824 179.273 70.3246 179.018L70.957 177.87L71.5988 176.704C71.812 176.304 72.0062 175.879 72.2076 175.393C71.7001 175.421 71.2019 175.541 70.7367 175.745C70.2969 175.942 69.8711 176.169 69.4624 176.425C69.0541 176.674 68.6588 176.943 68.2781 177.233C68.0768 177.388 67.8826 177.544 67.6907 177.705C62.8163 178.886 58.0934 179.849 54.5761 180.508C51.0588 181.167 48.7518 181.535 48.7044 181.542C48.4864 181.576 48.2779 181.656 48.0926 181.775C47.9074 181.895 47.7494 182.052 47.6291 182.237C46.5206 183.942 43.9081 185.628 40.6419 186.75C37.4349 187.852 35.1232 187.885 34.5689 187.659C34.6352 187.201 35.3576 186.065 36.2269 185.217C36.4531 184.998 36.6081 184.716 36.672 184.409C36.7359 184.101 36.7056 183.781 36.5852 183.49C36.4648 183.2 36.2597 182.952 35.9966 182.779C35.7334 182.606 35.4242 182.516 35.1089 182.52C29.5026 182.615 28.2141 181.755 27.7949 180.772C28.2117 180.414 29.5808 179.955 30.7627 179.797C31.0394 179.762 31.3017 179.653 31.5224 179.483C31.7432 179.313 31.9145 179.087 32.0187 178.829C32.123 178.571 32.1563 178.29 32.1154 178.015C32.0745 177.739 31.9607 177.48 31.7859 177.263C31.7077 177.164 24.4955 168.11 22.4751 161.873C24.5847 161.656 26.6375 161.06 28.5339 160.114C30.8302 158.961 32.9533 157.494 34.8413 155.754C36.4744 154.27 37.9798 152.653 39.3415 150.918C41.973 154.165 45.6845 157.573 46.793 158.572C46.8072 158.621 46.8191 158.673 46.8356 158.723C46.902 158.978 46.9683 159.235 47.0228 159.5C47.1412 160.026 47.2359 160.567 47.3165 161.11C47.4753 162.212 47.5765 163.321 47.6196 164.433C47.6528 165.555 47.6528 166.686 47.5841 167.819C47.5652 168.388 47.4965 168.953 47.4562 169.524C47.4159 170.096 47.3212 170.658 47.2549 171.229C47.4491 170.691 47.6528 170.153 47.8399 169.607C48.027 169.062 48.2094 168.511 48.3586 167.954C48.6902 166.842 48.9555 165.708 49.1876 164.558C49.4108 163.397 49.5737 162.225 49.6755 161.046C49.7229 160.451 49.7584 159.851 49.7632 159.242C49.7632 159.115 49.7632 158.99 49.7632 158.862C53.6831 157.74 58.56 156.007 61.7101 154.847C61.6675 155.096 61.6391 155.347 61.6249 155.598C61.5943 156.067 61.6326 156.537 61.7386 156.994C61.8828 157.586 62.1895 158.127 62.6244 158.555C62.852 158.775 63.1125 158.959 63.3965 159.1C63.5496 159.174 63.7079 159.237 63.8703 159.287C64.026 159.33 64.1842 159.363 64.344 159.386C64.8629 159.438 65.3871 159.383 65.8835 159.223C66.2706 159.104 66.6444 158.946 66.9991 158.751C67.3178 158.58 67.6241 158.386 67.9157 158.172C68.4602 157.77 68.9632 157.314 69.4174 156.812C70.3603 155.847 71.0466 154.663 71.4141 153.367C70.1929 153.758 69.0207 154.287 67.9205 154.944C67.397 155.23 66.8878 155.506 66.3975 155.749C65.9774 155.978 65.5324 156.158 65.0711 156.286C65.0118 156.299 64.9517 156.307 64.8911 156.312C64.8911 156.312 64.8911 156.283 64.8911 156.255C64.8722 156.105 64.8722 155.954 64.8911 155.804C64.9574 154.996 65.3648 153.837 65.7604 152.904C65.8499 152.735 65.9077 152.552 65.9309 152.363C66.1535 150.502 66.8215 149.118 67.9134 148.249C68.3767 147.87 68.9213 147.603 69.505 147.467C69.8853 147.425 70.2358 147.242 70.4871 146.954C70.7385 146.666 70.8723 146.295 70.8622 145.914V116.515C71.2347 116.25 71.5863 115.957 71.9139 115.638C72.2388 115.327 72.5338 114.987 72.795 114.621C73.0479 114.259 73.2517 113.866 73.4013 113.452C73.0246 113.612 72.6367 113.746 72.2407 113.851C71.8675 113.952 71.4887 114.03 71.1062 114.087C70.7296 114.141 70.353 114.167 69.9859 114.186H69.749C69.6713 114.165 69.5921 114.15 69.5121 114.141C69.4221 114.125 68.6476 113.981 68.605 113.544C68.6239 113.426 68.8111 112.554 70.6183 110.001C71.6675 108.518 72.7144 107.245 72.7239 107.234C72.9492 106.961 73.0754 106.62 73.082 106.266C73.0886 105.913 72.9752 105.567 72.7601 105.286C72.5451 105.005 72.2411 104.805 71.8974 104.717C71.5537 104.63 71.1906 104.661 70.867 104.806C69.3842 105.467 66.2459 106.294 65.7106 105.21C65.4193 104.617 66.4212 102.95 67.3094 101.479C68.8466 98.9233 70.9546 95.4211 71.1678 90.8964C71.2246 89.6873 71.8783 78.7533 77.5747 67.6563C78.6207 65.6088 79.8078 63.6361 81.1275 61.7524C81.9486 60.5842 82.8123 59.4712 83.7187 58.4132C84.9728 56.945 86.3311 55.5686 87.7831 54.2946L93.5577 50.2304C93.6726 50.1493 93.7714 50.0476 93.849 49.9305C93.9295 49.8809 94.0124 49.836 94.0859 49.7888C95.8013 48.8061 97.5873 47.9512 99.4293 47.2312C101.563 46.4014 103.758 45.7374 105.995 45.2451C106.068 45.3467 106.142 45.4506 106.22 45.5474C106.528 45.9453 106.867 46.3188 107.234 46.6644C107.947 47.3376 108.737 47.9264 109.586 48.4191C110.419 48.8988 111.299 49.2921 112.212 49.5928C112.658 49.751 113.129 49.8431 113.584 49.9564C114.048 50.044 114.517 50.1071 114.988 50.1454C114.643 49.8124 114.278 49.5243 113.944 49.222C113.61 48.9197 113.262 48.6293 112.94 48.3246C112.617 48.02 112.286 47.7366 111.992 47.4201C111.698 47.1037 111.383 46.8156 111.092 46.5109C110.512 45.8993 109.979 45.2688 109.484 44.6359C109.247 44.3194 108.998 44.0053 108.773 43.6912C108.657 43.5377 108.56 43.3748 108.458 43.2189C108.408 43.1434 108.354 43.0654 108.314 42.9828C108.273 42.9001 108.212 42.8222 108.205 42.8222C108.157 42.7194 108.098 42.622 108.03 42.5317C107.598 41.948 107.202 41.3383 106.845 40.7062C106.234 39.6034 106.068 38.9351 106.047 38.6399C108.437 38.2053 111.021 39.6034 111.592 39.9364C111.921 40.3237 112.25 40.685 112.591 41.0557C113.078 41.5753 113.577 42.0775 114.088 42.5624C115.097 43.5359 116.209 44.3973 117.404 45.1318C116.599 44.0463 115.916 42.8758 115.367 41.6414C115.088 41.0321 114.829 40.4173 114.59 39.797C114.429 39.372 114.266 38.9303 114.117 38.5029C114.11 38.423 114.096 38.3439 114.074 38.2667C111.983 30.6035 114.706 25.8237 116.516 23.6558C116.603 23.5536 116.711 23.4711 116.832 23.4137C116.954 23.3563 117.086 23.3254 117.221 23.3229C117.355 23.3205 117.489 23.3466 117.612 23.3995C117.736 23.4524 117.846 23.5309 117.937 23.6298C123.093 29.2976 123.832 42.808 123.84 42.9426C123.858 43.3117 124.006 43.6625 124.258 43.9333C124.51 44.2041 124.85 44.3777 125.218 44.4233C129.106 44.8802 132.921 45.8236 136.573 47.2312C138.412 47.9483 140.196 48.8 141.909 49.7793L142.146 49.921C142.224 50.0415 142.325 50.1458 142.442 50.228L148.24 54.3159C149.689 55.5857 151.044 56.9565 152.298 58.4179C153.203 59.4727 154.066 60.5866 154.889 61.7595C155.966 63.2977 156.955 64.8959 157.85 66.5464C164.079 78.0023 164.787 89.6164 164.849 90.9035C165.059 95.4282 167.167 98.9328 168.707 101.486C169.593 102.957 170.602 104.624 170.306 105.217C169.771 106.301 166.632 105.474 165.152 104.815C164.828 104.67 164.465 104.638 164.121 104.724C163.776 104.81 163.472 105.011 163.256 105.292C163.04 105.573 162.926 105.918 162.932 106.272C162.939 106.626 163.065 106.967 163.29 107.241C163.302 107.253 164.349 108.525 165.398 110.008C167.205 112.561 167.392 113.433 167.411 113.551C167.366 113.988 166.594 114.132 166.502 114.148C166.422 114.157 166.343 114.172 166.265 114.193H166.028C165.661 114.174 165.284 114.148 164.91 114.094C164.527 114.037 164.147 113.959 163.773 113.858C163.373 113.752 162.981 113.617 162.601 113.454C162.75 113.869 162.954 114.262 163.207 114.623C163.468 114.989 163.763 115.33 164.088 115.641C164.416 115.959 164.766 116.251 165.138 116.517V145.902C165.138 146.283 165.277 146.65 165.529 146.937C165.78 147.223 166.128 147.408 166.507 147.458C166.537 147.458 169.531 147.902 170.059 152.351C170.083 152.54 170.141 152.723 170.23 152.892C170.628 153.837 171.033 154.984 171.099 155.792C171.118 155.942 171.118 156.093 171.099 156.243ZM152.241 126.466C152.28 125.694 152.215 124.921 152.047 124.166C151.889 123.454 151.645 122.763 151.32 122.109C151.01 121.455 150.606 120.85 150.121 120.312C150.194 121.757 150.358 123.091 150.391 124.374C150.42 124.981 150.365 125.59 150.228 126.183C150.164 126.439 150.072 126.688 149.953 126.924C149.843 127.119 149.708 127.297 149.55 127.456C149.224 127.737 148.82 127.914 148.392 127.966C147.842 128.076 147.28 128.114 146.72 128.077C145.674 128.014 144.677 127.616 143.878 126.941L143.804 126.879C143.7 126.79 143.587 126.711 143.468 126.643C143.334 126.563 143.192 126.498 143.044 126.45C142.822 126.122 142.577 125.811 142.31 125.519C141.757 124.893 141.074 124.395 140.308 124.06C140.372 124.903 140.41 125.628 140.436 126.348C140.45 126.7 140.462 127.042 140.483 127.378C140.448 127.434 140.415 127.492 140.386 127.552C140.32 127.685 140.268 127.825 140.23 127.968L140.175 128.204C140.145 128.339 140.121 128.481 140.083 128.613C139.957 129.131 139.759 129.628 139.493 130.091C139.371 130.308 139.232 130.516 139.079 130.712C138.922 130.897 138.75 131.068 138.562 131.222C138.171 131.55 137.723 131.805 137.241 131.976C136.222 132.353 134.943 132.413 133.664 132.276C133.018 132.247 132.364 132.124 131.675 132.091C130.968 132.001 130.256 131.96 129.543 131.969C130.604 132.979 131.891 133.722 133.297 134.136C134.017 134.359 134.755 134.517 135.502 134.609C135.893 134.632 136.284 134.661 136.687 134.67C137.092 134.635 137.501 134.614 137.911 134.543C139.553 134.255 141.263 133.189 142.146 131.688C142.474 131.175 142.741 130.627 142.942 130.053C144.084 130.69 145.376 131.012 146.684 130.984C147.504 130.961 148.316 130.817 149.093 130.554C149.782 130.367 150.413 130.009 150.925 129.514C151.438 129.018 151.817 128.401 152.025 127.72C152.145 127.312 152.217 126.891 152.241 126.466ZM151.862 161.122C151.966 160.266 151.877 159.398 151.601 158.581C150.922 160.109 150.159 161.415 149.2 162.298C148.756 162.726 148.235 163.066 147.665 163.302L147.466 163.401L147.246 163.467C147.099 163.512 146.954 163.557 146.812 163.609L146.338 163.698C146.183 163.738 146.025 163.764 145.865 163.776L145.391 163.831C145.23 163.854 145.071 163.831 144.917 163.831C144.595 163.837 144.272 163.824 143.951 163.791C143.286 163.706 142.632 163.548 142.002 163.318C140.58 162.767 139.241 162.023 138.022 161.108C138.427 162.761 139.5 164.194 140.948 165.25C141.701 165.779 142.545 166.168 143.437 166.398C143.892 166.513 144.356 166.583 144.825 166.606C145.292 166.641 145.761 166.629 146.225 166.57C148.067 166.424 150.05 165.318 151 163.661C151.469 162.887 151.763 162.021 151.862 161.122ZM147.16 200.104C148.312 199.391 149.221 198.346 149.766 197.107C148.439 197.407 147.312 197.771 146.241 197.981C145.27 198.204 144.271 198.284 143.276 198.217C142.294 198.13 141.334 197.882 140.434 197.483C139.345 196.996 138.286 196.444 137.265 195.83C137.426 197.188 138.141 198.387 139.136 199.372C140.197 200.384 141.572 201.008 143.034 201.141C144.487 201.259 145.937 200.894 147.16 200.104ZM142.951 92.0559C147.132 91.2246 149.633 86.1142 148.539 80.6401C147.445 75.1661 143.167 71.4017 138.986 72.233C134.806 73.0643 132.305 78.1676 133.401 83.6488C134.498 89.1299 138.771 92.8872 142.951 92.0559ZM132.58 105.725C133.062 103.429 133.035 101.056 132.501 98.7722C132.437 98.5368 132.319 98.3197 132.156 98.138C131.993 97.9563 131.789 97.8151 131.562 97.7256C131.334 97.6362 131.089 97.601 130.845 97.6227C130.602 97.6445 130.367 97.7228 130.159 97.8512C126.642 100.014 121.999 100.803 119.574 101.079V97.6528C123.705 96.9278 127.099 93.5744 126.928 92.0795C126.734 90.3981 118.001 90.2068 118.001 90.2068C118.001 90.2068 109.268 90.3981 109.076 92.0795C108.906 93.5744 112.3 96.9278 116.419 97.6528V101.075C113.996 100.798 109.351 100.01 105.836 97.8464C105.628 97.7186 105.393 97.6408 105.149 97.6193C104.906 97.5977 104.66 97.633 104.433 97.7224C104.205 97.8118 104.002 97.9527 103.838 98.1341C103.675 98.3155 103.556 98.5323 103.491 98.7675C102.961 101.052 102.934 103.424 103.413 105.72C104.147 109.201 106.454 113.907 113.269 116.583C116.304 117.776 119.681 117.776 122.717 116.583C129.541 113.912 131.845 109.206 132.58 105.725ZM106.717 131.957C106.005 131.948 105.292 131.989 104.586 132.08C103.899 132.113 103.245 132.235 102.598 132.264C101.319 132.401 100.04 132.342 99.0195 131.964C98.5384 131.793 98.0917 131.538 97.7003 131.211C97.5132 131.056 97.3403 130.886 97.1839 130.7C97.0295 130.505 96.8909 130.297 96.7694 130.079C96.5033 129.617 96.3039 129.119 96.1773 128.601C96.1394 128.469 96.1181 128.327 96.0849 128.192L96.0328 127.956C95.9951 127.813 95.9427 127.673 95.8765 127.541C95.8474 127.481 95.8149 127.422 95.7794 127.366C95.8007 127.031 95.8102 126.688 95.8267 126.336C95.8528 125.628 95.8907 124.891 95.9546 124.048C95.1883 124.383 94.5045 124.881 93.9509 125.507C93.6843 125.799 93.4397 126.11 93.219 126.438C93.0706 126.486 92.9284 126.551 92.795 126.631C92.6756 126.699 92.563 126.778 92.4587 126.868L92.3829 126.929C91.5878 127.602 90.5957 128 89.5548 128.065C88.995 128.102 88.4326 128.065 87.8826 127.954C87.454 127.903 87.0505 127.726 86.7244 127.444C86.566 127.286 86.4305 127.107 86.3217 126.912C86.202 126.676 86.1091 126.428 86.0446 126.171C85.91 125.578 85.8551 124.97 85.8812 124.362C85.912 123.08 86.0778 121.745 86.1536 120.3C85.6677 120.838 85.2631 121.443 84.9527 122.097C84.6295 122.752 84.3862 123.442 84.2279 124.154C84.0601 124.909 83.994 125.682 84.0314 126.454C84.0578 126.879 84.1325 127.299 84.254 127.706C84.4625 128.387 84.8406 129.003 85.353 129.499C85.8653 129.995 86.4952 130.353 87.1839 130.54C87.9616 130.802 88.7744 130.947 89.5951 130.97C90.9034 130.998 92.1954 130.676 93.3374 130.039C93.5373 130.613 93.8044 131.162 94.1332 131.673C95.0167 133.175 96.7268 134.24 98.3658 134.528C98.7779 134.599 99.1853 134.621 99.5904 134.656C99.9883 134.656 100.381 134.618 100.775 134.595C101.522 134.503 102.26 134.345 102.98 134.122C104.38 133.705 105.661 132.963 106.717 131.957ZM102.603 83.6488C103.697 78.177 101.196 73.0643 97.0158 72.233C92.8353 71.4017 88.56 75.1661 87.4658 80.6401C86.3715 86.1142 88.8703 91.2246 93.0508 92.0559C97.2313 92.8872 101.509 89.1229 102.603 83.6488ZM98.6998 156.149C97.5155 156.094 96.4165 156.149 95.3957 156.108C94.9131 156.095 94.432 156.049 93.9556 155.971C93.5463 155.91 93.1476 155.791 92.7713 155.62C92.0665 155.279 91.4908 154.721 91.1299 154.028C90.6395 153.09 90.226 152.114 89.8935 151.109C89.551 151.617 89.3209 152.192 89.2185 152.795C89.0991 153.419 89.0991 154.06 89.2185 154.684C89.3491 155.368 89.6423 156.01 90.0735 156.557C90.5308 157.131 91.1311 157.576 91.8144 157.847C92.4499 158.105 93.1324 158.228 93.8182 158.208C94.1355 158.203 94.452 158.176 94.7656 158.128C95.0664 158.059 95.372 158.007 95.6586 157.913C96.7929 157.565 97.833 156.964 98.6998 156.156V156.149ZM94.6377 196.271C95.8486 195.813 96.9534 195.114 97.885 194.217C96.5942 194.354 95.4051 194.581 94.2446 194.71C93.1571 194.861 92.0539 194.861 90.9665 194.71C89.9595 194.563 89.015 194.134 88.2426 193.473C87.3749 192.687 86.6533 191.755 86.1109 190.719C85.9016 192.064 86.228 193.437 87.0205 194.545C87.4422 195.135 87.9796 195.634 88.6 196.011C89.2204 196.388 89.911 196.635 90.6301 196.739C91.984 196.936 93.3661 196.775 94.6377 196.271Z" fill="white"/>
<path d="M152.047 124.166C152.215 124.92 152.28 125.694 152.241 126.466C152.215 126.89 152.142 127.31 152.021 127.717C151.812 128.398 151.434 129.015 150.921 129.511C150.408 130.007 149.778 130.365 149.089 130.551C148.312 130.814 147.5 130.959 146.68 130.981C145.371 131.009 144.079 130.688 142.937 130.051C142.737 130.625 142.47 131.173 142.142 131.685C141.258 133.187 139.536 134.252 137.907 134.54C137.497 134.611 137.089 134.632 136.682 134.668C136.284 134.668 135.893 134.63 135.498 134.606C134.75 134.514 134.012 134.356 133.293 134.134C131.893 133.713 130.614 132.967 129.56 131.956C130.272 131.948 130.985 131.989 131.692 132.079C132.381 132.112 133.034 132.235 133.681 132.263C134.96 132.4 136.239 132.341 137.258 131.964C137.74 131.793 138.187 131.538 138.579 131.21C138.766 131.056 138.939 130.885 139.096 130.7C139.249 130.504 139.388 130.296 139.51 130.079C139.775 129.616 139.974 129.119 140.1 128.601C140.138 128.468 140.161 128.327 140.195 128.192L140.247 127.956C140.284 127.812 140.337 127.673 140.403 127.54C140.432 127.48 140.465 127.422 140.5 127.366C140.479 127.03 140.467 126.688 140.453 126.336C140.427 125.627 140.389 124.891 140.325 124.048C141.091 124.383 141.774 124.881 142.326 125.507C142.594 125.799 142.839 126.11 143.061 126.437C143.209 126.486 143.351 126.551 143.485 126.631C143.604 126.699 143.716 126.778 143.821 126.867L143.894 126.929C144.694 127.604 145.691 128.002 146.737 128.065C147.296 128.102 147.859 128.064 148.409 127.954C148.837 127.903 149.241 127.725 149.567 127.444C149.725 127.286 149.861 127.107 149.97 126.912C150.089 126.676 150.181 126.427 150.244 126.171C150.381 125.578 150.437 124.969 150.41 124.362C150.379 123.079 150.214 121.745 150.138 120.3C150.623 120.837 151.027 121.443 151.336 122.097C151.656 122.755 151.895 123.45 152.047 124.166ZM141.822 129.293L141.765 129.248C141.785 129.265 141.808 129.28 141.831 129.293H141.822Z" fill="black"/>
<path d="M151.602 158.581C151.877 159.398 151.966 160.266 151.862 161.122C151.765 162.027 151.47 162.9 150.998 163.679C150.05 165.332 148.068 166.442 146.223 166.589C145.758 166.648 145.289 166.66 144.823 166.624C144.354 166.601 143.889 166.532 143.435 166.416C142.542 166.186 141.699 165.798 140.945 165.268C139.498 164.213 138.425 162.768 138.02 161.126C139.239 162.042 140.578 162.785 141.999 163.337C142.63 163.566 143.283 163.725 143.949 163.809C144.27 163.842 144.592 163.856 144.915 163.849C145.076 163.849 145.235 163.861 145.389 163.849L145.863 163.795C146.022 163.783 146.181 163.757 146.336 163.717L146.81 163.627C146.952 163.575 147.097 163.53 147.243 163.486L147.464 163.419L147.663 163.32C148.233 163.085 148.754 162.744 149.197 162.317C150.166 161.417 150.922 160.113 151.602 158.581Z" fill="black"/>
<path d="M149.771 197.107C149.226 198.346 148.317 199.391 147.165 200.104C145.94 200.892 144.487 201.253 143.034 201.131C141.572 200.998 140.197 200.375 139.136 199.363C138.141 198.39 137.426 197.19 137.265 195.82C138.286 196.435 139.345 196.987 140.434 197.473C141.334 197.872 142.295 198.121 143.276 198.208C144.271 198.275 145.27 198.195 146.241 197.972C147.324 197.771 148.444 197.407 149.771 197.107Z" fill="black"/>
<path d="M148.539 80.6398C149.633 86.1139 147.132 91.2243 142.951 92.0556C138.771 92.8868 134.496 89.1225 133.401 83.6484C132.307 78.1744 134.806 73.0639 138.986 72.2327C143.167 71.4014 147.445 75.1657 148.539 80.6398ZM139.332 83.5823C140.552 83.3462 141.284 81.8466 140.964 80.2478C140.644 78.649 139.394 77.5509 138.174 77.7941C136.954 78.0374 136.222 79.5275 136.542 81.1263C136.862 82.7251 138.11 83.835 139.332 83.5823Z" fill="black"/>
<path d="M118.001 83.835C106.841 83.835 97.7903 93.4748 97.7903 105.368C97.7903 117.26 106.841 126.9 118.001 126.9C129.162 126.9 138.212 117.258 138.212 105.368C138.212 93.4772 129.164 83.835 118.001 83.835ZM126.954 110.119L126.876 110.077C118.823 105.698 111.864 108.513 109.024 110.077H109.008C107.764 108.688 106.907 107 106.521 105.179C106.268 104.006 106.176 102.803 106.248 101.606C111.571 104.069 117.646 104.329 117.935 104.34H118.056C118.345 104.329 124.42 104.069 129.74 101.606C129.813 102.803 129.722 104.005 129.47 105.179C129.083 107.018 128.215 108.722 126.954 110.119Z" fill="#FFC9A4"/>
<path d="M128.33 110.934C126.957 112.542 124.974 114.004 122.151 115.119C119.486 116.16 116.525 116.16 113.861 115.119C111.038 114.011 109.055 112.542 107.681 110.934C108.109 110.624 108.557 110.342 109.022 110.091H109.039C111.881 108.523 118.847 105.708 126.89 110.091L126.969 110.133C127.428 110.369 127.871 110.636 128.33 110.934Z" fill="#FC226B"/>
<path d="M132.501 98.7719C133.035 101.056 133.062 103.429 132.58 105.724C131.845 109.205 129.541 113.912 122.726 116.587C119.691 117.781 116.314 117.781 113.278 116.587C106.464 113.919 104.157 109.212 103.423 105.724C102.943 103.429 102.97 101.056 103.501 98.7719C103.566 98.5368 103.685 98.32 103.848 98.1386C104.011 97.9572 104.215 97.8162 104.442 97.7269C104.67 97.6375 104.915 97.6022 105.159 97.6237C105.402 97.6452 105.638 97.723 105.846 97.8509C109.361 100.014 114.005 100.803 116.428 101.079V97.6525C112.3 96.9275 108.906 93.5741 109.086 92.0793C109.278 90.3978 118.011 90.2065 118.011 90.2065C118.011 90.2065 126.743 90.3978 126.938 92.0793C127.108 93.5741 123.714 96.9275 119.595 97.6525V101.074C122.018 100.798 126.661 100.009 130.178 97.8462C130.386 97.7178 130.621 97.6395 130.865 97.6178C131.108 97.596 131.353 97.6312 131.581 97.7206C131.808 97.8101 132.012 97.9513 132.175 98.133C132.338 98.3147 132.456 98.5319 132.52 98.7672L132.501 98.7719ZM129.477 105.193C129.729 104.02 129.82 102.818 129.747 101.62C124.427 104.083 118.352 104.343 118.063 104.355H117.954C117.665 104.343 111.59 104.083 106.267 101.62C106.195 102.818 106.287 104.02 106.54 105.193C106.926 107.014 107.783 108.703 109.027 110.091C110.363 111.579 112.167 112.769 114.441 113.662C116.738 114.562 119.291 114.562 121.587 113.662C123.842 112.778 125.637 111.598 126.973 110.119C128.228 108.725 129.091 107.026 129.477 105.193Z" fill="black"/>
<path d="M104.586 132.079C105.293 131.989 106.005 131.948 106.718 131.956C105.662 132.969 104.38 133.716 102.978 134.136C102.258 134.359 101.52 134.517 100.772 134.608C100.382 134.632 99.9885 134.66 99.5882 134.67C99.1855 134.634 98.7758 134.613 98.3636 134.542C96.7246 134.254 95.0145 133.189 94.1311 131.687C93.8022 131.176 93.5351 130.627 93.3352 130.053C92.1932 130.69 90.9012 131.011 89.5929 130.983C88.7722 130.961 87.9594 130.816 87.1817 130.554C86.493 130.367 85.8631 130.008 85.3508 129.513C84.8384 129.017 84.4604 128.4 84.2518 127.72C84.1303 127.312 84.0556 126.892 84.0292 126.468C83.9918 125.696 84.0579 124.923 84.2258 124.168C84.384 123.456 84.6273 122.765 84.9505 122.111C85.2609 121.457 85.6655 120.852 86.1514 120.314C86.078 121.759 85.9145 123.094 85.879 124.376C85.8529 124.983 85.9079 125.592 86.0424 126.185C86.1069 126.441 86.1998 126.69 86.3196 126.926C86.4283 127.121 86.5638 127.3 86.7222 127.458C87.0483 127.74 87.4518 127.917 87.8804 127.968C88.4304 128.079 88.9928 128.116 89.5526 128.079C90.5913 128.012 91.5807 127.613 92.3736 126.94L92.4494 126.879C92.5537 126.79 92.6664 126.711 92.7857 126.643C92.9191 126.562 93.0614 126.497 93.2097 126.449C93.4304 126.122 93.6751 125.811 93.9416 125.519C94.4952 124.893 95.179 124.395 95.9454 124.059C95.8814 124.902 95.8435 125.627 95.8175 126.348C95.8032 126.7 95.7914 127.042 95.7701 127.377C95.8056 127.434 95.8381 127.492 95.8672 127.552C95.9334 127.685 95.9858 127.824 96.0235 127.968L96.0756 128.204C96.1088 128.339 96.1301 128.48 96.168 128.612C96.2958 129.13 96.4951 129.628 96.7601 130.091C96.8817 130.308 97.0203 130.516 97.1746 130.712C97.3311 130.897 97.5039 131.068 97.691 131.222C98.0824 131.549 98.5291 131.804 99.0103 131.975C100.031 132.353 101.31 132.412 102.589 132.275C103.245 132.247 103.899 132.112 104.586 132.079ZM94.5053 129.248L94.4484 129.293C94.4696 129.281 94.4888 129.266 94.5053 129.248ZM92.9989 128.775V128.726V128.712V128.733V128.775Z" fill="black"/>
<path d="M97.0159 72.2327C101.199 73.0639 103.698 78.1767 102.603 83.6484C101.509 89.1202 97.2315 92.8868 93.051 92.0556C88.8705 91.2243 86.3693 86.1139 87.4659 80.6398C88.5626 75.1657 92.8473 71.4014 97.0159 72.2327ZM99.4627 81.1263C99.7824 79.5275 99.0529 78.035 97.8307 77.7941C96.6086 77.5533 95.3603 78.649 95.0406 80.2478C94.7208 81.8466 95.4527 83.3391 96.6725 83.5823C97.8923 83.8256 99.1429 82.7274 99.4627 81.1263Z" fill="black"/>
<path d="M95.3958 156.115C96.4166 156.153 97.5085 156.101 98.6999 156.156C97.8324 156.964 96.7915 157.565 95.6563 157.913C95.3697 158.007 95.0642 158.059 94.7634 158.127C94.4498 158.176 94.1332 158.203 93.8159 158.208C93.1301 158.227 92.4476 158.104 91.8121 157.846C91.1288 157.576 90.5285 157.131 90.0713 156.557C89.6401 156.01 89.3468 155.368 89.2162 154.684C89.0969 154.06 89.0969 153.419 89.2162 152.795C89.3186 152.192 89.5487 151.617 89.8912 151.109C90.3128 152.245 90.6681 153.234 91.1276 154.028C91.4885 154.721 92.0642 155.279 92.769 155.619C93.1453 155.791 93.544 155.91 93.9533 155.971C94.4303 156.052 94.9122 156.1 95.3958 156.115Z" fill="black"/>
<path d="M97.885 194.217C96.9535 195.114 95.8487 195.813 94.6378 196.271C93.3666 196.777 91.9845 196.939 90.6302 196.744C89.911 196.64 89.2204 196.392 88.6 196.015C87.9796 195.638 87.4423 195.14 87.0205 194.55C86.229 193.441 85.9026 192.069 86.111 190.724C86.6533 191.76 87.375 192.692 88.2427 193.478C89.015 194.139 89.9595 194.568 90.9665 194.715C92.0539 194.866 93.1571 194.866 94.2446 194.715C95.4052 194.592 96.5942 194.356 97.885 194.217Z" fill="black"/>
<path d="M64.8983 156.299C64.8817 156.299 64.8722 156.299 64.8746 156.299C64.877 156.299 64.8462 156.283 64.8296 156.299C64.813 156.316 64.813 156.299 64.8036 156.299C64.7941 156.299 64.8391 156.299 64.9007 156.299H64.8983ZM171.128 156.299C171.189 156.299 171.225 156.299 171.225 156.299C171.225 156.299 171.225 156.299 171.199 156.299C171.173 156.299 171.156 156.314 171.154 156.299C171.151 156.285 171.154 156.299 171.13 156.299H171.128ZM171.102 156.299C171.1 156.281 171.1 156.262 171.102 156.243C171.121 156.093 171.121 155.941 171.102 155.792C171.035 154.984 170.628 153.825 170.232 152.892C170.143 152.723 170.085 152.54 170.062 152.351C169.524 147.902 166.53 147.46 166.509 147.458C166.13 147.408 165.783 147.223 165.531 146.936C165.279 146.65 165.14 146.282 165.14 145.902V116.514C164.769 116.249 164.418 115.956 164.091 115.638C163.765 115.328 163.47 114.987 163.21 114.62C162.957 114.259 162.753 113.866 162.603 113.451C162.984 113.614 163.376 113.749 163.776 113.855C164.15 113.956 164.529 114.035 164.913 114.091C165.287 114.146 165.664 114.172 166.031 114.191H166.268C166.345 114.17 166.424 114.155 166.504 114.146C166.597 114.129 167.371 113.985 167.414 113.548C167.395 113.43 167.208 112.559 165.401 110.006C164.351 108.523 163.304 107.25 163.293 107.238C163.067 106.965 162.941 106.623 162.935 106.27C162.929 105.916 163.043 105.57 163.258 105.289C163.474 105.008 163.779 104.808 164.123 104.721C164.467 104.635 164.831 104.667 165.154 104.813C166.635 105.472 169.773 106.298 170.308 105.214C170.6 104.622 169.598 102.954 168.71 101.483C167.17 98.9278 165.062 95.4256 164.851 90.9009C164.79 89.6138 164.081 77.9997 157.852 66.5438C156.957 64.8934 155.969 63.2951 154.891 61.7569C154.07 60.5856 153.207 59.4717 152.3 58.4153C151.046 56.9547 149.689 55.5847 148.24 54.3157L142.452 50.2302C142.334 50.1479 142.234 50.0436 142.156 49.9232L141.919 49.7815C140.202 48.8009 138.416 47.9484 136.573 47.231C132.926 45.8259 129.116 44.8841 125.232 44.4278C124.865 44.3822 124.525 44.2086 124.273 43.9378C124.021 43.667 123.872 43.3162 123.854 42.9471C123.854 42.8125 123.108 29.2903 117.951 23.6343C117.861 23.5354 117.75 23.4569 117.626 23.404C117.503 23.3511 117.369 23.325 117.235 23.3274C117.101 23.3299 116.968 23.3608 116.847 23.4182C116.725 23.4756 116.617 23.5581 116.53 23.6603C114.721 25.8282 111.997 30.608 114.088 38.2712C114.11 38.3486 114.125 38.4276 114.133 38.5074C114.273 38.9348 114.437 39.3765 114.607 39.8015C114.845 40.4218 115.104 41.0366 115.384 41.6459C115.933 42.8799 116.616 44.0503 117.421 45.1363C116.226 44.4018 115.114 43.5404 114.105 42.5669C113.593 42.0804 113.094 41.5782 112.608 41.0602C112.267 40.6895 111.938 40.3282 111.608 39.9409C111.038 39.6079 108.454 38.2098 106.064 38.6444C106.085 38.9396 106.251 39.6079 106.862 40.7107C107.219 41.3428 107.614 41.9525 108.046 42.5362C108.116 42.6259 108.175 42.7234 108.221 42.8267C108.221 42.8267 108.285 42.9282 108.33 42.9873C108.375 43.0463 108.425 43.1361 108.475 43.2234C108.577 43.3746 108.674 43.5375 108.792 43.6957C109.003 44.0169 109.247 44.331 109.489 44.6404C109.984 45.2733 110.517 45.9038 111.097 46.5154C111.388 46.8201 111.68 47.1342 111.997 47.4246C112.314 47.7151 112.629 48.0174 112.944 48.3291C113.259 48.6408 113.615 48.9148 113.949 49.2265C114.283 49.5382 114.647 49.8169 114.993 50.1499C114.522 50.1116 114.053 50.0485 113.589 49.9609C113.134 49.8476 112.662 49.7555 112.217 49.5973C111.304 49.3007 110.424 48.9122 109.59 48.4377C108.741 47.945 107.952 47.3563 107.239 46.6831C106.872 46.3374 106.533 45.964 106.225 45.5661C106.149 45.4693 106.073 45.3654 106 45.2638C103.762 45.7497 101.565 46.4074 99.4294 47.231C97.5892 47.9497 95.8048 48.8029 94.0907 49.7838C94.0078 49.8311 93.9249 49.8759 93.8538 49.9255C93.7753 50.0448 93.6748 50.1481 93.5578 50.2302L87.7761 54.2991C86.3247 55.5737 84.9664 56.9501 83.7117 58.4177C82.8069 59.4725 81.9432 60.5856 81.1205 61.7569C79.8008 63.6406 78.6137 65.6133 77.5677 67.6608C71.8832 78.7601 71.2176 89.6918 71.1607 90.9009C70.9476 95.4256 68.8396 98.9302 67.3024 101.483C66.4165 102.954 65.4075 104.622 65.7036 105.214C66.2389 106.298 69.3772 105.472 70.8599 104.81C71.1838 104.666 71.5471 104.635 71.8909 104.723C72.2347 104.81 72.5386 105.011 72.7535 105.292C72.9683 105.574 73.0814 105.92 73.0743 106.273C73.0672 106.627 72.9404 106.968 72.7145 107.24C72.7027 107.252 71.6558 108.525 70.6065 110.008C68.7993 112.561 68.6122 113.432 68.5932 113.551C68.6359 113.987 69.4104 114.132 69.5004 114.148C69.5804 114.157 69.6596 114.172 69.7372 114.193H69.9741C70.3412 114.174 70.7178 114.148 71.0944 114.094C71.4777 114.037 71.8573 113.958 72.2313 113.858C72.6306 113.751 73.0216 113.616 73.4014 113.454C73.2518 113.868 73.0479 114.261 72.795 114.623C72.5339 114.989 72.2389 115.329 71.9139 115.641C71.5864 115.959 71.2348 116.252 70.8623 116.517V145.902C70.8729 146.283 70.7393 146.655 70.4879 146.943C70.2365 147.23 69.8857 147.413 69.5051 147.455C68.9214 147.591 68.3768 147.858 67.9135 148.237C66.8216 149.106 66.1536 150.49 65.931 152.351C65.9078 152.54 65.85 152.723 65.7605 152.892C65.3625 153.836 64.9575 154.984 64.8912 155.792C64.8722 155.941 64.8722 156.093 64.8912 156.243C64.8912 156.271 64.8912 156.29 64.8912 156.299C64.9518 156.295 65.0119 156.287 65.0712 156.273C65.5325 156.146 65.9775 155.966 66.3976 155.737C66.8879 155.501 67.3971 155.218 67.9206 154.932C69.021 154.275 70.1932 153.746 71.4142 153.355C71.0546 154.651 70.3765 155.838 69.4412 156.807C68.987 157.309 68.484 157.765 67.9395 158.167C67.6479 158.381 67.3416 158.575 67.0229 158.746C66.6682 158.941 66.2944 159.099 65.9073 159.218C65.4108 159.378 64.8867 159.433 64.3677 159.381C64.2079 159.358 64.0497 159.325 63.894 159.282C63.7317 159.232 63.5734 159.169 63.4203 159.096C63.1363 158.954 62.8758 158.77 62.6482 158.55C62.213 158.122 61.907 157.582 61.7647 156.989C61.6569 156.532 61.6178 156.062 61.6486 155.593C61.6629 155.342 61.6913 155.091 61.7339 154.842C58.5837 156.002 53.7069 157.735 49.7869 158.857C49.7869 158.985 49.7869 159.11 49.7869 159.237C49.7869 159.846 49.7467 160.446 49.6993 161.041C49.5975 162.22 49.4346 163.392 49.2114 164.553C48.9745 165.703 48.714 166.837 48.3824 167.949C48.2332 168.509 48.0342 169.054 47.8637 169.602C47.6931 170.15 47.4729 170.686 47.2787 171.224C47.345 170.653 47.4208 170.086 47.48 169.519C47.5392 168.953 47.5889 168.384 47.6079 167.814C47.6766 166.681 47.6766 165.55 47.6434 164.428C47.6003 163.316 47.4991 162.207 47.3402 161.105C47.2597 160.562 47.165 160.021 47.0465 159.495C46.9921 159.23 46.9257 158.973 46.8594 158.718C46.8428 158.668 46.831 158.616 46.8168 158.567C45.7083 157.568 41.9944 154.16 39.363 150.913C38.0012 152.648 36.4959 154.265 34.8627 155.749C32.9689 157.492 30.8394 158.961 28.5363 160.113C26.643 161.06 24.5936 161.658 22.487 161.877C24.5074 168.114 31.7244 177.169 31.7978 177.268C31.9727 177.485 32.0864 177.744 32.1273 178.019C32.1683 178.294 32.1349 178.575 32.0307 178.834C31.9265 179.092 31.7552 179.317 31.5344 179.488C31.3136 179.658 31.0513 179.766 30.7746 179.802C29.5903 179.96 28.2237 180.418 27.8068 180.777C28.226 181.759 29.5145 182.619 35.1209 182.525C35.4341 182.522 35.7411 182.612 36.0024 182.784C36.2638 182.957 36.4676 183.203 36.5877 183.491C36.7078 183.78 36.7387 184.097 36.6766 184.404C36.6144 184.71 36.462 184.99 36.2388 185.21C35.3648 186.057 34.6424 187.193 34.5809 187.651C35.1351 187.888 37.4468 187.845 40.6538 186.742C43.92 185.621 46.5326 183.934 47.6434 182.229C47.763 182.045 47.9205 181.887 48.1054 181.768C48.2903 181.648 48.4985 181.569 48.7164 181.535C48.7637 181.535 51.0849 181.162 54.5904 180.501C58.0958 179.839 62.8282 178.885 67.7027 177.698C67.8945 177.53 68.0887 177.374 68.2901 177.225C68.6707 176.936 69.066 176.666 69.4743 176.418C69.883 176.162 70.3088 175.935 70.7486 175.737C71.2138 175.533 71.712 175.414 72.2195 175.386C72.0182 175.872 71.8239 176.297 71.6108 176.696L70.9689 177.863L70.3246 179.006C70.1825 179.261 70.0309 179.523 69.8865 179.769C69.8399 179.872 69.7819 179.97 69.7136 180.061C69.1311 180.87 68.6079 181.719 68.1479 182.602C66.9874 184.858 67.2976 185.554 67.3024 185.561C67.3071 185.569 67.5534 185.724 68.0958 185.746C68.2441 185.751 68.3908 185.777 68.5317 185.824C68.7472 185.824 68.9722 185.824 69.2067 185.805C69.7775 185.76 70.3791 185.677 71.1418 185.661C71.0741 186.018 70.9493 186.363 70.7723 186.681C70.6008 186.987 70.3967 187.273 70.1636 187.536C69.9255 187.807 69.6622 188.055 69.3772 188.277L69.2304 188.384C68.5577 189.564 65.6089 195.286 65.5947 203.734C65.8315 203.842 66.0471 203.951 66.2626 204.069C66.7992 204.362 67.3188 204.685 67.8187 205.037C68.8019 205.73 69.7263 206.501 70.5828 207.344C71.4191 208.178 72.1926 209.071 72.8969 210.018C73.2593 210.476 73.5648 210.981 73.8893 211.461C74.2138 211.94 74.4791 212.464 74.7515 212.974C74.2778 212.618 73.8633 212.235 73.4085 211.886C72.9537 211.536 72.5227 211.177 72.0584 210.851L71.3763 210.353C71.1513 210.19 70.9144 210.037 70.6847 209.881C70.2299 209.557 69.7538 209.271 69.2896 208.976C68.3422 208.407 67.3948 207.885 66.4213 207.425C65.9476 207.189 65.4525 206.978 64.9646 206.787C64.7278 206.683 64.4909 206.591 64.2541 206.506C64.1356 206.466 64.0172 206.421 63.9011 206.388C63.7851 206.355 63.6643 206.31 63.6122 206.296C63.5783 206.287 63.5451 206.276 63.5127 206.263C60.8433 205.318 53.6122 203.46 49.4506 205.153C49.9605 205.466 50.5217 205.688 51.1086 205.807C51.4583 205.899 51.7655 206.108 51.9788 206.4C52.192 206.691 52.2982 207.046 52.2796 207.406C52.261 207.766 52.1187 208.109 51.8765 208.377C51.6344 208.645 51.3072 208.821 50.9499 208.877C48.6666 209.244 46.4456 209.926 44.3511 210.903C40.6917 212.644 38.4297 215.001 37.6363 217.917C38.0609 217.978 38.4936 217.951 38.9075 217.839C39.3214 217.726 39.7078 217.53 40.0427 217.263C40.3127 217.044 40.6479 216.921 40.9956 216.912C41.3434 216.904 41.6842 217.01 41.9647 217.216C42.2453 217.421 42.4496 217.713 42.5458 218.046C42.6421 218.38 42.6247 218.735 42.4965 219.058C42.0353 220.426 41.7582 221.849 41.6723 223.29C41.4184 226.694 42.0345 230.106 43.4629 233.208C46.651 240.224 53.7022 245.937 64.4341 250.211C64.3897 250.009 64.2683 249.831 64.0954 249.716C63.7919 249.546 63.5533 249.281 63.4169 248.962C63.2805 248.642 63.2539 248.287 63.3412 247.951C63.4286 247.616 63.6251 247.318 63.8999 247.105C64.1747 246.893 64.5125 246.777 64.8604 246.775C65.0924 246.775 65.3216 246.826 65.5307 246.927C65.571 246.945 69.8225 248.903 78.3777 250.84C85.3484 252.417 96.5137 254.259 111.71 254.672C109.861 251.397 108.783 247.746 108.556 243.995C108.33 240.243 108.963 236.489 110.405 233.017C111.633 229.96 113.321 227.106 115.41 224.555C113.503 223.96 111.584 223.399 109.654 222.872C105.969 221.863 102.246 220.964 98.5057 220.142C94.7657 219.32 91.0352 218.444 87.3522 217.102C89.2965 217.02 91.2443 217.085 93.1788 217.296C95.1068 217.485 97.0135 217.79 98.9107 218.149C102.7 218.857 106.49 219.655 110.249 220.564C112.691 221.152 115.123 221.79 117.539 222.501C120.069 221.724 122.62 221.03 125.19 220.435C127.76 219.839 130.351 219.313 132.949 218.862C135.547 218.411 138.143 217.99 140.765 217.681C143.387 217.372 146.009 217.14 148.653 217.095C146.118 217.837 143.582 218.512 141.047 219.169C138.513 219.825 135.981 220.475 133.468 221.152C130.955 221.83 128.437 222.522 125.938 223.245C124.885 223.544 123.834 223.853 122.786 224.171C126.07 225.272 129.259 226.637 132.321 228.254C134.125 229.212 135.81 230.377 137.343 231.725C138.154 232.452 138.87 233.277 139.474 234.181C139.804 234.672 140.012 235.126 140.266 235.575C140.519 236.023 140.708 236.519 140.929 236.991C141.33 237.982 141.63 239.011 141.824 240.061C141.922 240.593 141.992 241.129 142.033 241.667C142.047 241.937 142.047 242.21 142.051 242.482V242.891L142.025 243.299C141.894 245.495 141.197 247.62 140.003 249.47C139.42 250.378 138.737 251.219 137.968 251.978C137.208 252.717 136.384 253.387 135.505 253.98L135.377 254.068C145.038 253.296 152.478 251.985 157.627 250.821C166.182 248.884 170.434 246.927 170.474 246.905C170.842 246.74 171.26 246.722 171.642 246.855C172.023 246.988 172.338 247.262 172.522 247.621C172.707 247.979 172.746 248.394 172.632 248.781C172.518 249.167 172.259 249.495 171.909 249.697C171.736 249.811 171.615 249.988 171.571 250.19C182.303 245.921 189.354 240.208 192.542 233.187C193.97 230.085 194.586 226.672 194.332 223.268C194.246 221.832 193.969 220.413 193.511 219.048C193.387 218.727 193.373 218.374 193.471 218.043C193.568 217.713 193.773 217.424 194.051 217.221C194.33 217.018 194.669 216.912 195.014 216.919C195.359 216.927 195.692 217.048 195.962 217.263C196.296 217.535 196.682 217.736 197.097 217.852C197.512 217.969 197.946 217.999 198.373 217.941C196.298 210.45 185.178 208.908 185.06 208.894C184.701 208.84 184.371 208.665 184.127 208.397C183.883 208.129 183.739 207.785 183.721 207.423C183.702 207.062 183.809 206.705 184.024 206.413C184.239 206.122 184.549 205.913 184.901 205.824C185.488 205.704 186.049 205.483 186.559 205.169C182.397 203.476 175.166 205.328 172.497 206.279L172.407 206.31C172.355 206.324 172.215 206.367 172.108 206.405C172.002 206.442 171.872 206.483 171.755 206.523C171.519 206.608 171.282 206.7 171.045 206.804C170.571 206.995 170.074 207.212 169.591 207.441C168.622 207.902 167.665 208.424 166.72 208.993C166.246 209.288 165.773 209.574 165.327 209.897C165.09 210.053 164.854 210.207 164.636 210.37L163.953 210.868C163.48 211.191 163.061 211.56 162.603 211.902C162.146 212.245 161.722 212.634 161.26 212.991C161.53 212.481 161.822 211.978 162.123 211.477C162.423 210.977 162.753 210.492 163.115 210.034C163.817 209.082 164.589 208.183 165.424 207.344C166.281 206.505 167.206 205.738 168.188 205.049C168.688 204.697 169.208 204.374 169.745 204.081C169.96 203.963 170.185 203.845 170.412 203.745C170.396 195.296 167.454 189.576 166.777 188.395L166.63 188.289C166.345 188.067 166.082 187.819 165.844 187.548C165.61 187.285 165.406 186.999 165.235 186.693C165.058 186.374 164.933 186.03 164.865 185.672C165.626 185.689 166.23 185.772 166.8 185.817C167.037 185.831 167.26 185.838 167.475 185.835C167.616 185.789 167.763 185.763 167.911 185.758C168.451 185.736 168.686 185.613 168.705 185.573C168.724 185.533 169.02 184.865 167.859 182.614C167.399 181.73 166.875 180.88 166.291 180.071C166.227 179.983 166.171 179.889 166.125 179.79C165.979 179.54 165.825 179.273 165.68 179.013L165.048 177.865L164.406 176.699C164.193 176.299 163.998 175.874 163.797 175.388C164.305 175.417 164.803 175.536 165.268 175.74C165.708 175.938 166.135 176.165 166.545 176.42C166.953 176.669 167.348 176.938 167.729 177.228C167.933 177.383 168.127 177.539 168.316 177.7C178.065 180.076 187.21 181.523 187.303 181.537C187.521 181.571 187.73 181.65 187.915 181.77C188.1 181.889 188.258 182.047 188.378 182.232C189.484 183.934 192.089 185.618 195.353 186.742C198.563 187.845 200.874 187.878 201.429 187.651C201.36 187.163 200.559 185.972 199.771 185.21C199.543 184.991 199.387 184.709 199.323 184.401C199.258 184.093 199.288 183.773 199.409 183.482C199.529 183.191 199.735 182.943 199.999 182.77C200.263 182.597 200.573 182.507 200.889 182.513C206.5 182.607 207.786 181.745 208.203 180.765C207.786 180.406 206.414 179.948 205.233 179.79C204.957 179.753 204.695 179.644 204.475 179.473C204.256 179.303 204.085 179.077 203.981 178.82C203.877 178.562 203.843 178.282 203.883 178.007C203.924 177.732 204.036 177.473 204.209 177.256C204.29 177.157 211.5 168.102 213.522 161.866C211.414 161.65 209.363 161.056 207.466 160.113C205.17 158.961 203.048 157.494 201.161 155.754C199.528 154.271 198.022 152.654 196.661 150.92C194.025 154.167 190.315 157.572 189.207 158.571L189.164 158.722C189.098 158.977 189.032 159.235 188.975 159.499C188.856 160.026 188.764 160.567 188.683 161.11C188.525 162.212 188.423 163.321 188.38 164.433C188.345 165.554 188.347 166.686 188.416 167.819C188.435 168.388 188.501 168.953 188.544 169.524C188.586 170.096 188.679 170.658 188.745 171.229C188.551 170.691 188.345 170.152 188.16 169.607C187.975 169.061 187.791 168.511 187.639 167.954C187.31 166.841 187.042 165.708 186.812 164.558C186.588 163.397 186.425 162.224 186.324 161.046C186.275 160.451 186.242 159.851 186.234 159.242C186.234 159.114 186.234 158.989 186.234 158.862C182.312 157.738 177.435 156.004 174.285 154.847C174.323 155.083 174.354 155.336 174.37 155.598C174.401 156.066 174.362 156.537 174.254 156.994C174.111 157.586 173.805 158.126 173.371 158.555C173.143 158.775 172.883 158.959 172.599 159.1C172.446 159.174 172.287 159.236 172.125 159.287C171.969 159.329 171.811 159.362 171.651 159.386C171.132 159.438 170.608 159.382 170.112 159.223C169.725 159.104 169.351 158.946 168.996 158.751C168.677 158.579 168.371 158.386 168.079 158.172C167.535 157.77 167.031 157.314 166.578 156.812C165.635 155.847 164.949 154.663 164.581 153.366C165.802 153.757 166.973 154.287 168.072 154.944C168.598 155.23 169.107 155.506 169.598 155.749C170.018 155.978 170.463 156.158 170.924 156.285C170.979 156.294 171.034 156.298 171.09 156.299H171.102ZM235.988 150.507C236.149 152.242 235.536 153.957 234.219 155.466C231.232 158.885 224.631 161.287 216.808 161.842C215.436 167.037 210.633 173.952 208.16 177.275C209.543 177.747 210.465 178.387 210.976 179.211C211.202 179.573 211.342 179.981 211.387 180.405C211.431 180.829 211.378 181.257 211.232 181.658C210.285 184.376 207.693 185.347 203.987 185.59C204.424 186.339 204.628 187.2 204.574 188.065C204.526 188.521 204.373 188.959 204.127 189.346C203.88 189.733 203.547 190.057 203.153 190.294C200.784 191.765 195.521 190.1 194.489 189.753C192.698 189.149 188.47 187.477 186.173 184.525C184.188 184.197 177.947 183.124 170.855 181.511C171.976 183.814 172.208 185.585 171.566 186.919C171.291 187.496 170.847 187.976 170.294 188.296C171.478 190.821 173.373 195.853 173.565 202.659C175.045 202.248 176.548 201.92 178.065 201.677C183.122 200.888 186.985 201.403 189.543 203.207C189.713 203.327 189.858 203.48 189.968 203.657C190.079 203.833 190.153 204.029 190.188 204.234C190.281 205 190.096 205.775 189.666 206.416C189.605 206.516 189.539 206.61 189.47 206.704C190.655 207.073 191.813 207.524 192.935 208.053C198.125 210.5 201.173 214.228 201.751 218.838C201.791 219.157 201.732 219.481 201.581 219.766C201.43 220.05 201.195 220.281 200.908 220.428C199.762 220.961 198.495 221.18 197.236 221.063C197.97 225.596 197.346 230.244 195.441 234.424C193.747 238.184 191.045 241.644 187.407 244.707C183.11 248.322 177.459 251.43 170.59 253.938C170.382 254.014 170.161 254.045 169.94 254.03C169.719 254.014 169.504 253.952 169.309 253.849C169.113 253.745 168.942 253.601 168.806 253.427C168.67 253.253 168.573 253.052 168.52 252.837C168.387 252.272 168.319 251.694 168.319 251.114C165.092 252.201 161.809 253.117 158.484 253.858C151.379 255.473 140.033 257.36 124.614 257.794C122.402 258.04 120.172 258.069 117.954 257.882C99.1689 257.882 85.6089 255.688 77.5369 253.853C74.2123 253.113 70.9296 252.197 67.7027 251.109C67.7014 251.689 67.6331 252.268 67.499 252.833C67.4465 253.047 67.3492 253.248 67.2136 253.422C67.0779 253.596 66.907 253.74 66.7118 253.844C66.5167 253.948 66.3018 254.009 66.0811 254.025C65.8604 254.04 65.639 254.009 65.4312 253.933C58.5624 251.425 52.8992 248.317 48.6027 244.702C44.9669 241.632 42.2644 238.179 40.5709 234.42C38.6655 230.239 38.0401 225.591 38.7732 221.058C37.5145 221.176 36.2472 220.956 35.1019 220.423C34.8151 220.276 34.5804 220.045 34.4296 219.76C34.2788 219.476 34.2192 219.153 34.2587 218.833C34.8367 214.224 37.8873 210.495 43.0768 208.048C44.203 207.521 45.3649 207.073 46.5539 206.707C46.4828 206.612 46.4189 206.518 46.3549 206.419C45.9255 205.777 45.7414 205.003 45.8362 204.237C45.8699 204.031 45.9442 203.835 46.0548 203.658C46.1654 203.482 46.3101 203.329 46.4805 203.209C49.0385 201.405 52.8992 200.89 57.9584 201.679C59.4798 201.922 60.9863 202.25 62.4705 202.662C62.66 195.846 64.5478 190.823 65.7415 188.299C65.1881 187.978 64.7447 187.498 64.4696 186.922C63.8277 185.587 64.0598 183.816 65.1802 181.514C58.0887 183.127 51.8476 184.199 49.8627 184.527C47.5652 187.479 43.3374 189.151 41.5468 189.756C40.5022 190.105 35.2369 191.758 32.8755 190.296C32.4795 190.061 32.1439 189.737 31.8952 189.35C31.6465 188.963 31.4915 188.524 31.4425 188.067C31.3887 187.202 31.5931 186.341 32.0299 185.592C28.3231 185.356 25.7296 184.381 24.7822 181.66C24.638 181.259 24.5864 180.831 24.6311 180.408C24.6758 179.984 24.8157 179.576 25.0403 179.214C25.5496 178.389 26.4615 177.754 27.8542 177.277C25.3814 173.954 20.5827 167.052 19.209 161.844C11.3927 161.287 4.78212 158.885 1.79538 155.468C0.473728 153.957 -0.134989 152.242 0.0260721 150.507C0.0669097 149.893 0.254979 149.299 0.574435 148.773C0.893891 148.247 1.33538 147.806 1.8617 147.486C3.51968 146.456 6.12509 146.341 9.86977 147.139C8.88683 145.255 8.34659 143.173 8.28994 141.051C8.17152 136.843 10.0261 133.102 13.3752 130.788C15.218 129.512 16.928 128.835 18.4866 128.773C19.8303 128.705 21.1481 129.16 22.1625 130.041L22.1862 130.063C22.3129 129.457 22.5688 128.885 22.9366 128.386C23.3044 127.887 23.7755 127.473 24.3179 127.172C26.3501 126.015 29.055 125.573 31.7575 125.956C34.8641 126.386 37.7092 127.923 39.7656 130.285C42.8968 133.848 44.029 138.285 43.0034 143.12C42.6278 144.871 42.0201 146.565 41.1962 148.157L41.2696 148.254C43.5127 151.194 47.1389 154.601 48.5885 155.926C53.5861 154.509 60.5804 151.923 62.9774 151.019C63.5553 148.124 64.9978 146.504 66.1655 145.635C66.6495 145.273 67.1771 144.973 67.7358 144.742V116.854C66.6463 116.356 65.5283 115.369 65.4596 113.652C65.4312 112.915 65.6586 111.706 67.5913 108.853C67.4184 108.865 67.2526 108.87 67.0916 108.87C64.4483 108.87 63.3351 107.51 62.885 106.601C61.8358 104.475 63.1219 102.35 64.6093 99.8701C66.0518 97.4731 67.8471 94.4928 68.0224 90.7568C68.2256 87.4854 68.7058 84.2369 69.4578 81.0461C70.6058 75.9091 72.3904 70.9344 74.7704 66.2368C75.8276 64.1671 77.0224 62.1703 78.3469 60.2597C75.9272 57.5615 73.815 54.604 72.049 51.4416C69.9617 47.7682 68.2933 43.8734 67.075 39.8299C65.5469 34.7184 64.7347 29.4209 64.6614 24.0877C64.5913 20.8668 64.9627 17.6513 65.7652 14.5305C66.4338 11.9064 67.5052 9.40117 68.9414 7.10343C71.6321 2.88097 75.2891 0.297429 78.977 0.0187655C81.6037 -0.177244 84.0836 0.850033 85.9547 2.92112C87.904 5.07249 89.1783 8.2417 89.7444 12.3343L90.2489 15.9852C92.3806 31.3991 92.8543 34.9202 98.1788 44.3641C100.146 43.5882 102.164 42.9459 104.219 42.4418C104.159 42.3378 104.1 42.2316 104.043 42.1253C102.954 40.1322 102.651 38.583 103.115 37.3809C103.33 36.8213 103.923 35.8436 105.462 35.5578C107.234 35.2319 108.989 35.5437 110.398 35.9947C109.358 28.7258 112.167 23.9767 114.107 21.6553C114.482 21.2092 114.948 20.8482 115.474 20.5965C116 20.3449 116.574 20.2084 117.157 20.1963C117.741 20.1842 118.32 20.2968 118.856 20.5265C119.392 20.7561 119.873 21.0976 120.266 21.5278C125.206 26.9594 126.559 37.7352 126.897 41.49C130.636 42.025 134.3 42.9894 137.816 44.3641C143.136 34.9178 143.622 31.3991 145.746 15.9852L146.251 12.3343C146.822 8.2417 148.096 5.07249 150.041 2.92112C151.919 0.850033 154.399 -0.177244 157.035 0.0258501C160.723 0.306875 164.377 2.89042 167.07 7.11052C168.507 9.40825 169.578 11.9135 170.247 14.5376C171.048 17.6562 171.418 20.8692 171.348 24.0877C171.271 29.4182 170.456 34.7125 168.925 39.8204C167.706 43.8635 166.037 47.7583 163.951 51.4322C162.185 54.5946 160.073 57.552 157.653 60.2502C158.722 61.7927 159.706 63.3914 160.602 65.0395C163.223 69.9261 165.181 75.1379 166.426 80.5384C167.243 83.8894 167.762 87.3055 167.978 90.7474C168.153 94.4834 169.948 97.4636 171.391 99.8606C172.878 102.331 174.164 104.463 173.115 106.591C172.641 107.555 171.414 109.026 168.409 108.844C170.344 111.697 170.571 112.906 170.54 113.643C170.474 115.36 169.356 116.347 168.267 116.845V144.742C168.825 144.973 169.353 145.273 169.837 145.635C171.005 146.504 172.442 148.124 173.025 151.019C175.422 151.923 182.416 154.519 187.414 155.926C188.878 154.587 192.573 151.116 194.804 148.159C193.982 146.563 193.378 144.865 193.008 143.11C191.995 138.276 193.113 133.839 196.244 130.275C198.301 127.915 201.146 126.377 204.252 125.946C206.947 125.564 209.659 126.005 211.692 127.163C212.234 127.464 212.705 127.878 213.073 128.377C213.44 128.875 213.696 129.447 213.823 130.053L213.845 130.032C214.86 129.151 216.179 128.697 217.523 128.764C219.07 128.825 220.789 129.503 222.634 130.778C225.983 133.092 227.845 136.833 227.72 141.041C227.661 143.165 227.118 145.247 226.133 147.13C229.868 146.331 232.49 146.447 234.141 147.477C234.668 147.798 235.109 148.241 235.429 148.769C235.748 149.296 235.936 149.892 235.976 150.507H235.988ZM231.834 153.407C232.594 152.535 232.926 151.68 232.843 150.792C232.845 150.661 232.811 150.532 232.746 150.418C232.681 150.304 232.585 150.21 232.471 150.145C232.139 149.937 230.725 149.33 226.531 150.263C224.972 150.618 223.436 151.069 221.933 151.612C221.567 151.748 221.164 151.743 220.801 151.599C220.439 151.455 220.143 151.181 219.971 150.832C219.8 150.482 219.765 150.081 219.873 149.708C219.981 149.334 220.225 149.013 220.557 148.809C222.874 147.392 224.491 144.237 224.584 140.964C224.636 139.124 224.216 135.693 220.851 133.364C218.624 131.824 216.964 131.503 215.919 132.419C215.815 132.51 215.731 132.621 215.673 132.747C215.615 132.872 215.586 133.009 215.585 133.147C215.584 133.308 215.615 133.467 215.679 133.616C215.743 133.764 215.837 133.897 215.955 134.006C217.487 135.423 219.309 137.667 219.271 140.222C219.25 141.833 218.522 143.292 217.106 144.539C214.214 147.099 210.474 147.845 207.376 146.492C204.472 145.226 202.696 142.345 202.622 138.791C202.58 136.767 203.139 135.159 204.28 134.011C205.479 132.814 207.281 132.197 209.491 132.233H209.52C209.795 132.232 210.062 132.141 210.279 131.974C210.497 131.807 210.654 131.572 210.724 131.308C210.795 131.043 210.777 130.762 210.672 130.509C210.566 130.256 210.38 130.044 210.143 129.907C207.622 128.473 202.217 128.265 198.62 132.363C196.152 135.171 195.304 138.545 196.076 142.39C196.372 143.803 196.85 145.172 197.497 146.464C197.685 146.851 197.893 147.229 198.12 147.595C199.169 149.084 200.336 150.487 201.609 151.791C204.517 154.802 208.994 158.392 214.053 158.77C214.342 158.793 214.633 158.803 214.925 158.803C215.1 158.803 215.273 158.803 215.45 158.803C216.038 158.777 216.621 158.737 217.201 158.687C220.06 158.467 222.884 157.912 225.614 157.034C228.423 156.054 230.635 154.776 231.834 153.407ZM216.121 140.182C216.135 139.084 215.311 137.707 213.8 136.302C213.184 135.73 212.75 134.991 212.551 134.176C211.712 134.971 210.592 135.403 209.434 135.376H209.304C208.39 135.376 207.21 135.532 206.512 136.233C205.99 136.753 205.739 137.594 205.763 138.732C205.81 141.067 206.857 142.85 208.634 143.625C210.604 144.485 213.049 143.939 215.012 142.208C215.749 141.533 216.111 140.874 216.121 140.172V140.182ZM168.203 24.0476C168.295 18.1933 166.95 12.7759 164.413 8.79431C162.293 5.46451 159.439 3.36273 156.793 3.15255C153.027 2.86208 150.251 6.45873 149.375 12.7641C149.195 14.0488 149.029 15.265 148.871 16.4127C146.739 31.836 146.192 35.8459 140.718 45.6299C141.629 46.0675 142.521 46.5359 143.394 47.035C144.69 45.0732 145.806 42.9993 146.729 40.8383C148.811 36.0632 151.36 28.0056 151.703 16.7504C151.703 16.7268 151.703 16.7032 151.703 16.6795C151.718 16.5378 152.056 13.1797 154.309 11.5857C155.469 10.7686 156.876 10.5608 158.484 10.9669C160.192 11.3991 161.651 13.4914 162.599 16.859C163.987 21.8183 163.987 28.1945 162.599 34.3865C160.958 41.6803 157.449 48.4255 152.414 53.9638C153.587 55.1458 154.694 56.3915 155.73 57.695C157.851 55.2555 159.717 52.6063 161.298 49.7886C165.706 41.9121 168.078 33.0661 168.203 24.0476ZM160.412 33.8882C161.706 28.1331 161.718 21.9883 160.443 17.4541C159.676 14.7242 158.61 13.3002 157.942 13.1301C156.995 12.894 156.227 12.979 155.621 13.4041C154.463 14.2141 154.022 16.134 153.944 16.8496C153.586 28.5157 150.917 36.8827 148.733 41.849C147.78 44.0613 146.635 46.1868 145.313 48.2016C146.177 48.7558 147.02 49.343 147.843 49.9633C148.858 50.7285 149.842 51.5424 150.794 52.4052C155.548 47.1633 158.862 40.7844 160.412 33.8882ZM138.859 242.799V242.489C138.859 242.281 138.859 242.074 138.859 241.868C138.83 241.45 138.78 241.034 138.707 240.621C138.557 239.781 138.327 238.957 138.02 238.16C137.84 237.766 137.693 237.357 137.49 236.98C137.286 236.602 137.087 236.17 136.881 235.863C136.426 235.168 135.884 234.533 135.27 233.973C133.931 232.764 132.455 231.715 130.872 230.847C127.665 228.991 124.138 227.541 120.559 226.258C119.924 226.022 119.285 225.812 118.645 225.595C116.368 228.152 114.555 231.087 113.29 234.266C110.54 241.287 111.248 248.171 115.396 254.734C116.253 254.743 117.122 254.748 118.001 254.748C119.861 254.748 121.668 254.728 123.42 254.687L123.608 254.67C125.409 254.503 127.188 254.142 128.911 253.591C130.601 253.062 132.207 252.296 133.681 251.317C134.394 250.834 135.063 250.288 135.68 249.687C136.28 249.095 136.816 248.442 137.279 247.739C138.192 246.358 138.73 244.764 138.84 243.113L138.859 242.799ZM92.6103 47.035C93.4835 46.5375 94.3765 46.0691 95.2892 45.6299C89.8131 35.8459 89.2612 31.836 87.1366 16.4127L86.6321 12.7641C85.7558 6.45637 82.9822 2.86208 79.2138 3.15255C76.5634 3.35564 73.714 5.46451 71.5918 8.79431C69.0551 12.7759 67.7098 18.1933 67.8021 24.0476C67.9301 33.0671 70.3069 41.9132 74.7183 49.7886C76.2897 52.6014 78.1444 55.2474 80.2536 57.6856C81.2894 56.3821 82.3964 55.1364 83.5696 53.9543C78.5344 48.4161 75.0254 41.6709 73.3848 34.377C71.9945 28.1874 71.9921 21.7994 73.3848 16.8496C74.3322 13.482 75.7913 11.3897 77.4966 10.9575C79.1096 10.5513 80.5307 10.7591 81.6866 11.5715C83.9486 13.1655 84.292 16.5308 84.292 16.6654C84.2943 16.6889 84.2943 16.7127 84.292 16.7362C84.6354 28.0008 87.184 36.0585 89.2659 40.8241C90.1923 42.9899 91.3116 45.0685 92.6103 47.035ZM90.6871 48.2016C89.3647 46.1868 88.2204 44.0613 87.2669 41.849C85.0878 36.8897 82.4185 28.5157 82.0561 16.8496C81.9779 16.1411 81.5397 14.2141 80.3791 13.4041C79.9846 13.1265 79.5119 12.981 79.0291 12.9884C78.7027 12.9926 78.3781 13.037 78.0627 13.1207C77.3948 13.2907 76.3289 14.7147 75.5615 17.4447C74.2872 21.9789 74.2991 28.1236 75.5923 33.8788C77.1417 40.7744 80.4536 47.1533 85.2062 52.3957C85.5789 52.0556 85.9571 51.7242 86.3408 51.4015C87.7195 50.2434 89.1713 49.1746 90.6871 48.2016ZM39.9338 142.38C40.713 138.536 39.858 135.161 37.39 132.353C33.7898 128.256 28.3895 128.464 25.867 129.897C25.6203 130.026 25.427 130.237 25.3209 130.493C25.2148 130.75 25.2027 131.035 25.2867 131.3C25.3519 131.575 25.5119 131.818 25.7389 131.987C25.9658 132.155 26.2451 132.239 26.5278 132.223C28.7353 132.188 30.5354 132.804 31.7386 134.002C32.885 135.149 33.4463 136.758 33.3966 138.781C33.3232 142.336 31.5444 145.217 28.6405 146.482C27.6236 146.924 26.5259 147.149 25.4169 147.146C23.1526 147.148 20.8433 146.246 18.9011 144.527C17.4799 143.275 16.7551 141.821 16.7362 140.21C16.703 137.655 18.5221 135.421 20.0522 133.995C20.1708 133.885 20.2651 133.752 20.3287 133.604C20.3924 133.456 20.424 133.296 20.4217 133.135C20.4221 132.997 20.3927 132.861 20.3355 132.735C20.2782 132.61 20.1945 132.498 20.0901 132.408C19.0455 131.501 17.3852 131.822 15.1564 133.352C11.7907 135.681 11.3667 139.112 11.4259 140.952C11.5159 144.225 13.136 147.377 15.4524 148.797C15.8041 148.992 16.0674 149.314 16.1881 149.697C16.3089 150.079 16.2779 150.494 16.1016 150.854C15.9253 151.215 15.6171 151.494 15.2404 151.635C14.8636 151.776 14.447 151.768 14.0763 151.612C12.5716 151.068 11.0347 150.618 9.47422 150.263C8.20931 149.957 6.91489 149.787 5.61348 149.758C4.30604 149.758 3.71864 150.022 3.53153 150.145C3.41758 150.211 3.32309 150.305 3.25775 150.419C3.19241 150.532 3.15856 150.661 3.15966 150.792C3.07913 151.68 3.40836 152.535 4.17104 153.407C5.35531 154.776 7.58175 156.054 10.4074 157.003C13.1376 157.882 15.9623 158.437 18.8229 158.656C19.4008 158.708 19.9835 158.747 20.5709 158.772C21.0375 158.793 21.505 158.786 21.9707 158.751C27.0299 158.371 31.5041 154.783 34.4151 151.772C35.6839 150.474 36.8481 149.078 37.8968 147.597C38.1236 147.237 38.3299 146.864 38.515 146.48C39.1615 145.18 39.6383 143.802 39.9338 142.38ZM30.2393 138.715C30.263 137.577 30.0024 136.736 29.4908 136.217C28.7566 135.482 27.4965 135.345 26.568 135.36C25.41 135.387 24.2883 134.956 23.4487 134.16C23.2483 134.974 22.8146 135.713 22.2004 136.285C20.6893 137.702 19.8651 139.067 19.8793 140.165C19.8793 140.874 20.2488 141.526 20.9854 142.177C22.9513 143.913 25.3956 144.461 27.3663 143.594C29.145 142.834 30.1896 141.051 30.2393 138.715Z" fill="black"/>
</g>
<defs>
<clipPath id="clip0_1932_859">
<rect width="236" height="258" fill="white"/>
</clipPath>
</defs>
</svg>
