<svg width="139" height="252" viewBox="0 0 139 252" fill="none" xmlns="http://www.w3.org/2000/svg">
<g clip-path="url(#clip0_1932_885)">
<path d="M72.8037 69.4222C72.6307 70.3825 72.2244 71.2854 71.6205 72.0512C70.492 71.2143 69.1202 70.7724 67.7164 70.7934C66.3125 70.8144 64.9545 71.2971 63.8515 72.1673L63.7095 72.2835L63.6053 72.1673C62.9487 71.3792 62.509 70.4329 62.3298 69.4222C62.6161 69.4699 62.9058 69.4937 63.1959 69.4933C64.0576 69.4924 64.906 69.2809 65.6676 68.8773C66.4292 68.4738 67.0811 67.8902 67.5668 67.1772C67.7401 67.43 67.934 67.6678 68.1465 67.8884C68.6371 68.3977 69.2254 68.8025 69.8761 69.0782C70.5267 69.354 71.2263 69.4952 71.9328 69.4933C72.2246 69.4937 72.5159 69.4699 72.8037 69.4222Z" fill="white"/>
<path d="M53.8649 54.386C54.9562 54.386 55.8409 53.2864 55.8409 51.93C55.8409 50.5737 54.9562 49.4741 53.8649 49.4741C52.7736 49.4741 51.8889 50.5737 51.8889 51.93C51.8889 53.2864 52.7736 54.386 53.8649 54.386Z" fill="white"/>
<path d="M84.3448 49.6943C85.3126 49.6943 86.1007 50.6971 86.1007 51.9298C86.1007 53.1625 85.3126 54.1653 84.3448 54.1653C83.3769 54.1653 82.5889 53.1625 82.5889 51.9298C82.5889 50.6971 83.3769 49.6943 84.3448 49.6943Z" fill="white"/>
<path d="M108.435 26.6284C108.44 28.3522 107.926 30.0375 106.961 31.4644C104.176 26.5623 100.427 22.2775 95.9404 18.8695C97.134 18.2708 98.4511 17.9606 99.7859 17.9639C102.079 17.967 104.277 18.8809 105.898 20.5051C107.52 22.1293 108.432 24.3314 108.435 26.6284Z" fill="white"/>
<path d="M113.483 26.6287C113.49 28.466 113.127 30.2858 112.413 31.9783C111.699 33.6708 110.65 35.2009 109.33 36.476C108.953 35.5065 108.539 34.5511 108.085 33.6171C109.735 31.6648 110.637 29.1871 110.629 26.6287C110.626 23.7488 109.482 20.9879 107.449 18.9515C105.417 16.9152 102.661 15.7698 99.7857 15.7666C97.7311 15.7599 95.7181 16.3467 93.988 17.4569C93.1408 16.8784 92.2691 16.3253 91.373 15.7975C93.7731 13.9137 96.7367 12.8948 99.7857 12.9054C103.418 12.9091 106.9 14.3562 109.468 16.9291C112.036 19.502 113.48 22.9904 113.483 26.6287Z" fill="white"/>
<path d="M42.0092 15.9541C41.1288 16.4804 40.2706 17.0335 39.4345 17.6135C37.2363 16.1338 34.5733 15.5118 31.9486 15.8649C29.3238 16.218 26.919 17.5218 25.1884 19.53C23.4579 21.5382 22.5213 24.1117 22.5558 26.7644C22.5903 29.4172 23.5933 31.9654 25.3754 33.9278C24.9306 34.8603 24.5267 35.8085 24.1638 36.7725C22.1257 34.9071 20.6979 32.4682 20.0676 29.7756C19.4373 27.083 19.6339 24.2625 20.6317 21.6839C21.6296 19.1052 23.382 16.8888 25.6592 15.3253C27.9364 13.7618 30.6322 12.9241 33.3929 12.9221C36.5287 12.9034 39.5739 13.975 42.0092 15.9541Z" fill="white"/>
<path d="M33.4023 17.9643C34.8392 17.9656 36.253 18.3266 37.5152 19.0145C34.5855 21.273 31.9606 23.9026 29.706 26.8374C28.5029 28.4078 27.4177 30.0655 26.4592 31.7966C25.501 30.5088 24.9193 28.9793 24.779 27.3793C24.6387 25.7792 24.9454 24.1716 25.6649 22.7362C26.3843 21.3007 27.488 20.094 28.8528 19.2509C30.2175 18.4077 31.7895 17.9615 33.3929 17.9619L33.4023 17.9643Z" fill="white"/>
<path d="M107.519 39.2494C108.659 42.739 109.239 46.3877 109.237 50.0593C109.237 57.9486 106.563 65.2855 101.989 71.3779C103.951 65.9137 103.556 60.4946 101.868 56.8605C100.406 53.71 98.0394 51.9652 95.4009 51.9652H95.3299C96.6953 41.8357 91.2572 35.5916 85.9233 33.2637C80.3598 30.8386 72.4842 31.6043 66.7953 38.4363C61.1159 31.5996 53.2309 30.8386 47.6697 33.2637C42.3334 35.5916 36.8953 41.8357 38.2608 51.9652H38.1898C35.5536 51.9652 33.1848 53.71 31.7223 56.8605C30.035 60.4946 29.6422 65.9161 31.604 71.3827C27.0249 65.2903 24.3508 57.951 24.3508 50.0474C24.3505 46.4715 24.8988 42.9168 25.9766 39.5078C26.028 39.4011 26.0646 39.2879 26.0854 39.1712C29.0411 30.1393 35.6246 22.3851 44.6951 17.4377C44.7988 17.3965 44.8973 17.3432 44.9886 17.2789C46.9421 16.232 48.9701 15.3312 51.0561 14.5835L51.2052 14.529C58.6382 11.772 63.5935 8.86094 66.6533 5.3833C66.525 6.99079 66.159 8.57026 65.5671 10.0699C65.4672 10.3269 65.45 10.6087 65.5181 10.8759C65.5862 11.1431 65.736 11.3822 65.9467 11.5597C66.1573 11.7373 66.4181 11.8443 66.6926 11.8658C66.967 11.8873 67.2412 11.8222 67.4769 11.6796L74.0082 7.72781C73.8423 8.71339 73.5396 9.67089 73.109 10.5725C73.0248 10.7579 72.9845 10.9602 72.9913 11.1638C72.998 11.3673 73.0515 11.5665 73.1477 11.7459C73.2439 11.9253 73.3801 12.0801 73.5458 12.1981C73.7115 12.3161 73.9021 12.3942 74.1029 12.4263C79.0411 13.1841 83.8213 14.7507 88.2518 17.0632C88.3903 17.1808 88.5514 17.2687 88.7251 17.3216C97.6963 22.1765 104.396 29.8856 107.42 38.9863C107.444 39.0771 107.478 39.1652 107.519 39.2494Z" fill="white"/>
<path d="M99.4805 57.9723C102.14 63.702 100.773 75.3416 89.487 82.3087C82.5563 86.1942 74.7472 88.2353 66.805 88.2374C58.8629 88.2395 51.0527 86.2024 44.12 82.3206C32.8179 75.3534 31.45 63.7044 34.1099 57.9723C34.7086 56.6827 36.4314 53.793 39.4486 54.8266C39.6688 54.9017 39.9048 54.9172 40.1329 54.8715C40.3609 54.8257 40.5728 54.7203 40.7471 54.566C40.9213 54.4117 41.0517 54.2139 41.125 53.9928C41.1982 53.7717 41.2118 53.5351 41.1643 53.307C39.1386 43.6184 43.9685 37.7607 48.7203 35.6865C53.3041 33.6881 60.5052 33.9749 65.7208 41.3759C65.8426 41.5481 66.0039 41.6885 66.191 41.7855C66.3781 41.8824 66.5857 41.933 66.7964 41.933C67.0071 41.933 67.2147 41.8824 67.4018 41.7855C67.5889 41.6885 67.7502 41.5481 67.8719 41.3759C73.0781 33.9844 80.2887 33.6952 84.8701 35.6865C89.6219 37.7607 94.4518 43.6184 92.4261 53.307C92.3794 53.5349 92.3935 53.7712 92.467 53.9919C92.5406 54.2127 92.6709 54.4101 92.8449 54.5642C93.019 54.7183 93.2305 54.8238 93.4582 54.8698C93.6859 54.9159 93.9217 54.901 94.1418 54.8266C97.159 53.793 98.8818 56.6827 99.4805 57.9723ZM89.0279 53.7053C89.0279 49.8697 86.2261 46.7618 82.7711 46.7618C79.316 46.7618 76.5142 49.8697 76.5142 53.7053C76.5142 57.5409 79.316 60.6487 82.7711 60.6487C86.2261 60.6487 89.0279 57.5385 89.0279 53.7053ZM77.4087 63.3109C77.4156 63.1623 77.3923 63.0138 77.3403 62.8745C77.2883 62.7352 77.2086 62.6079 77.1061 62.5003C77.0036 62.3927 76.8803 62.3071 76.7438 62.2485C76.6073 62.19 76.4603 62.1599 76.3119 62.1599C76.1634 62.1599 76.0164 62.19 75.8799 62.2485C75.7434 62.3071 75.6201 62.3927 75.5176 62.5003C75.4151 62.6079 75.3354 62.7352 75.2834 62.8745C75.2314 63.0138 75.2081 63.1623 75.215 63.3109C75.215 65.0864 74.5287 66.2314 73.6035 66.817C73.531 66.8503 73.462 66.8908 73.3976 66.9379C72.9477 67.1731 72.4474 67.2951 71.9399 67.2934C70.3969 67.2934 68.8398 66.1864 68.6813 63.7376C70.2999 63.4294 71.4831 62.4693 71.4831 61.3314C71.4831 59.947 69.7296 59.5156 67.569 59.5156C65.4085 59.5156 63.6573 59.9399 63.6573 61.3243C63.6573 62.4622 64.8405 63.4223 66.4592 63.7305C66.3006 66.1888 64.7435 67.2863 63.1982 67.2863C62.6824 67.2885 62.1742 67.1623 61.7192 66.9189C61.6671 66.8815 61.6116 66.849 61.5535 66.8217C60.6212 66.2385 59.9278 65.0935 59.9278 63.3061C59.9278 63.0144 59.8121 62.7346 59.6062 62.5283C59.4003 62.3221 59.121 62.2062 58.8298 62.2062C58.5386 62.2062 58.2593 62.3221 58.0534 62.5283C57.8474 62.7346 57.7317 63.0144 57.7317 63.3061C57.7317 65.6577 58.6428 67.0991 59.4072 67.8837C59.593 68.0764 59.7932 68.2547 60.0059 68.4171C60.2733 73.5091 63.9437 76.1665 67.5785 76.1665C71.2134 76.1665 74.8766 73.5067 75.1511 68.4147C76.4621 67.4072 77.4087 65.6933 77.4087 63.3109ZM58.6215 53.7053C58.6215 49.8697 55.822 46.7618 52.3647 46.7618C48.9073 46.7618 46.1102 49.8697 46.1102 53.7053C46.1102 57.5409 48.912 60.6487 52.3647 60.6487C55.8173 60.6487 58.6215 57.5385 58.6215 53.7053Z" fill="white"/>
<path d="M32.2808 76.2849C32.7257 76.7591 33.1808 77.2276 33.6462 77.6907C30.0019 80.0234 26.6605 83.0269 23.4705 86.8269L23.4398 86.8648C23.2717 87.0829 21.1112 89.9063 19.9469 93.2891C15.2803 93.2133 11.1153 94.9485 8.09101 98.2365C5.22525 101.363 3.40783 105.742 2.6482 111.339C2.44232 99.96 5.4122 90.3449 11.404 83.7831C16.88 77.7547 24.4715 75.0428 32.2808 76.2849Z" fill="white"/>
<path d="M19.9682 142.96C20.6781 146.473 21.504 149.861 22.4056 153.092C22.3583 164.521 20.2095 171.244 16.0162 173.074C15.6464 173.235 15.2427 173.303 14.8407 173.27C14.4386 173.238 14.0507 173.107 13.7113 172.889C13.3354 172.656 13.0219 172.334 12.798 171.952C12.5741 171.57 12.4465 171.139 12.4263 170.696C11.8084 158.202 9.82451 145.814 6.51022 133.753C2.65055 113.257 6.28777 104.097 10.0244 100.022C12.9777 96.8098 16.6197 96.0085 19.3056 95.9351C19.2426 96.4065 19.2142 96.8818 19.2204 97.3574C16.1298 108.686 16.3712 125.39 19.9682 142.96Z" fill="white"/>
<path d="M104.123 72.9263L108.184 80.3106C107.884 82.5413 105.723 93.6333 92.135 98.3437C92.7296 97.5006 93.1924 96.5718 93.5076 95.589C93.8504 94.5181 93.9419 93.3824 93.775 92.2702C93.2552 93.169 92.688 94.0394 92.0759 94.8779C91.5037 95.6608 90.8707 96.3971 90.1827 97.0801C89.4906 97.7572 88.7572 98.3906 87.9867 98.9766C87.2199 99.5787 86.4106 100.143 85.6084 100.743L85.5398 100.8C81.4624 102.841 76.0598 106.686 73.4709 113.416C72.838 115.063 72.4034 116.779 72.1765 118.529C72.1481 118.739 72.1197 118.96 72.0913 119.191C72.0653 119.402 72.0392 119.613 72.0108 119.819C71.6251 122.69 71.0217 125.093 68.88 125.949C68.5312 126.085 68.1673 126.178 67.7962 126.226C67.1576 126.333 66.5093 126.37 65.8628 126.335C65.5633 126.312 65.2673 126.255 64.9801 126.167C63.8371 125.814 61.8635 123.595 62.183 121.748C62.2173 121.545 62.2033 121.336 62.1421 121.138C62.0808 120.941 61.974 120.761 61.8304 120.613C61.687 120.463 61.5107 120.349 61.3155 120.28C61.1203 120.211 60.9117 120.189 60.7063 120.215C60.6827 120.215 60.6069 120.215 60.5005 120.215C59.2912 120.215 58.5268 119.61 58.2287 118.411C57.7743 116.597 58.5363 115.495 59.5042 114.101L59.542 114.042C60.8778 112.12 61.8773 109.984 62.4977 107.726C63.1184 105.396 64.1049 103.18 65.4203 101.16C65.4608 101.098 65.4964 101.033 65.5268 100.966C65.5794 100.911 65.6276 100.852 65.6711 100.79C66.0205 100.494 66.3237 100.147 66.5704 99.7613C66.8408 99.3435 67.0781 98.9052 67.2803 98.4503C67.7285 97.5203 68.0692 96.542 68.2955 95.5345C68.3052 95.4897 68.2994 95.4428 68.2789 95.4018C68.2671 95.3775 68.2506 95.3559 68.2303 95.3381C68.2101 95.3203 68.1865 95.3067 68.161 95.2981C68.1354 95.2895 68.1085 95.286 68.0816 95.288C68.0547 95.2899 68.0285 95.2971 68.0044 95.3093C67.0853 95.7889 66.2232 96.371 65.4345 97.0446C65.0475 97.3575 64.6851 97.6999 64.3507 98.0687C64.1585 98.285 63.9829 98.5156 63.8253 98.7585C54.6672 98.96 45.9752 95.8142 42.6149 94.4298L42.7261 94.1382C43.0127 93.3385 43.2389 92.5183 43.4029 91.6847V91.6681C43.4112 91.6354 43.4112 91.6012 43.4029 91.5685C43.387 91.5151 43.3508 91.4701 43.3022 91.4431C43.2535 91.4161 43.1963 91.4092 43.1426 91.4239C42.6991 91.5651 42.2765 91.7652 41.886 92.0189C41.5185 92.2526 41.166 92.5091 40.8306 92.787C40.5024 93.0495 40.2012 93.3441 39.9314 93.6665C39.8556 93.7613 39.7823 93.8585 39.7136 93.9604C39.6428 94.0317 39.5808 94.1113 39.5291 94.1975C38.8871 95.2247 38.3223 96.2984 37.8394 97.4096C37.4584 98.2488 37.1295 98.9742 36.7509 99.4057C36.6084 99.5576 36.4199 99.6583 36.2146 99.6922C36.0093 99.726 35.7985 99.6911 35.615 99.5929C35.4992 99.534 35.3956 99.4535 35.3097 99.3559C34.6937 98.6537 33.8286 98.2199 32.8983 98.1469C31.968 98.0738 31.046 98.3673 30.3283 98.9647L28.7192 100.314C27.0839 101.689 24.6962 101.708 23.1793 100.359C22.791 100.008 22.4766 99.5838 22.2547 99.1099C22.0328 98.636 21.9078 98.1223 21.8872 97.5993C21.8044 96.4472 22.086 95.1837 22.5238 93.977C23.5248 91.2106 25.3493 88.7357 25.5103 88.5247C28.6884 84.7318 32.0156 81.8017 35.6552 79.571C37.8361 81.4578 40.1929 83.1304 42.693 84.5658L43.0101 84.7602C43.0754 84.8 43.1443 84.8333 43.216 84.8598C50.4449 88.8244 58.5538 90.9024 66.7952 90.9024C75.0366 90.9024 83.1454 88.8244 90.3744 84.8598C90.4461 84.8333 90.515 84.8 90.5803 84.7602L90.9187 84.5516C96.0609 81.6125 100.553 77.6574 104.123 72.9263Z" fill="white"/>
<path d="M130.58 100.039C134.473 108.729 136.475 120.229 136.366 133.295C136.163 158.17 128.557 179.873 123.706 180.859C122.475 181.096 121.405 179.292 120.814 178C121.879 157.867 119.893 142.406 114.746 130.745C109.112 117.977 99.5253 110 86.2567 107.039C86.128 107.009 85.9955 107 85.8639 107.01C83.4768 107.196 81.1535 107.872 79.0391 108.997C81.4244 106.119 84.3541 104.256 86.756 103.071C86.8508 103.043 86.9421 103.005 87.0282 102.957L87.1891 102.862C88.5129 102.233 89.8932 101.732 91.3114 101.364L91.3871 101.345C106.073 97.0232 109.737 85.7487 110.596 81.6523C119.46 84.0419 126.179 90.222 130.58 100.039Z" fill="white"/>
<path d="M64.8949 128.867L64.7316 129.322C60.0248 142.598 57.3956 160.64 55.4291 176.544C55.0079 179.96 53.0106 182.871 50.0881 184.332C46.7751 185.991 43.4313 185.263 39.8887 182.101C35.3404 178.035 30.9246 170.137 27.3702 160.055C27.3564 160.004 27.339 159.954 27.3182 159.905C26.497 157.568 25.7232 155.112 25.0038 152.556C25.0038 152.516 24.9825 152.478 24.9707 152.438C24.0691 149.235 23.2574 145.883 22.5474 142.422C19.4095 127.089 18.8629 112.501 20.8909 101.776C21.0566 101.956 21.2341 102.132 21.4257 102.305C22.6542 103.383 24.2343 103.973 25.8676 103.964C27.5274 103.963 29.1336 103.375 30.404 102.305L32.0132 100.956C32.1998 100.798 32.4412 100.72 32.6849 100.739C32.9286 100.758 33.155 100.872 33.3147 101.058C33.6259 101.417 34.0046 101.712 34.4293 101.925C35.1342 102.289 35.9398 102.406 36.7186 102.258C37.4974 102.111 38.2049 101.708 38.7292 101.112C39.3539 100.401 39.7609 99.5075 40.2295 98.481C40.4874 97.9145 40.769 97.2957 41.1145 96.6533C44.101 97.9358 52.6533 101.219 62.1995 101.394C61.2353 103.182 60.4794 105.074 59.9467 107.034C59.4063 109.006 58.5339 110.87 57.3672 112.548L57.327 112.607C56.2526 114.16 54.9156 116.09 55.6705 119.062C56.3426 121.758 58.2736 122.554 59.5515 122.782C59.8828 125.548 62.2847 128.099 64.1992 128.689C64.4277 128.761 64.66 128.82 64.8949 128.867Z" fill="white"/>
<path d="M69.4266 241.275L66.8898 245.27C65.9721 246.712 64.6566 247.857 63.1025 248.566C61.5484 249.274 59.8225 249.516 58.134 249.262L48.9498 247.87C46.7246 247.532 44.7126 246.355 43.3255 244.579C41.9384 242.804 41.2812 240.564 41.4884 238.319C41.5719 237.425 41.5822 236.525 41.5192 235.629L41.7369 235.543L41.9286 235.278C42.0303 235.152 43.3058 233.644 46.3988 233.038C49.2693 232.471 54.2506 232.627 61.899 236.392C62.2145 236.55 62.53 236.708 62.8455 236.866C63.2245 237.294 63.625 237.702 64.0453 238.089C65.283 239.239 67.2329 240.74 69.4266 241.275Z" fill="white"/>
<path d="M84.3093 109.896C89.099 148.252 82.163 188.983 63.1202 234.316C59.5327 232.535 56.1747 231.345 53.1244 230.779C50.384 230.267 47.8756 230.252 45.6653 230.731C43.994 231.065 42.4207 231.776 41.065 232.81C40.9798 232.474 40.8851 232.137 40.7763 231.805L37.4065 221.265C33.8781 210.226 31.4865 198.853 30.2693 187.326L28.4116 169.698C31.3602 176.021 34.6756 180.977 38.1353 184.071C40.9277 186.565 43.8148 187.824 46.6545 187.824C48.2564 187.812 49.8334 187.426 51.2596 186.695C54.9749 184.837 57.5094 181.162 58.0395 176.867C60.1527 159.704 62.7936 141.884 67.6827 128.9L68.156 128.841C73.6532 128.092 74.3395 122.514 74.7087 119.518C74.7371 119.295 74.7607 119.082 74.7891 118.88C74.9642 117.532 75.2742 116.205 75.7144 114.919C78.1944 112.309 81.0389 110.562 84.3093 109.896Z" fill="white"/>
<path d="M115.123 139.689C115.556 152.177 113.736 164.608 109.557 177.685C103.108 197.858 91.5435 216.69 76.1143 232.149C74.4889 233.781 73.0463 235.586 71.8121 237.532L70.83 239.078C68.7476 238.969 66.5207 237.196 65.2618 235.944L65.1104 235.79C69.5853 225.179 73.4473 214.718 76.5852 204.683C79.8849 194.208 82.5427 183.541 84.5436 172.742C86.5002 162.12 87.6778 151.368 88.0672 140.573C88.4203 130.322 87.9724 120.058 86.7278 109.876C101.092 113.43 110.513 123.27 115.123 139.689Z" fill="white"/>
<path d="M72.3232 72.9333C71.7258 73.6064 70.9928 74.1451 70.1726 74.5141C69.3524 74.883 68.4635 75.0737 67.5643 75.0737C66.6652 75.0737 65.7763 74.883 64.9561 74.5141C64.1358 74.1451 63.4029 73.6064 62.8054 72.9333C63.0468 72.6537 63.3138 72.3974 63.6029 72.1676C64.732 71.2781 66.1267 70.7944 67.5632 70.7944C68.9996 70.7944 70.3943 71.2781 71.5234 72.1676C71.8121 72.3987 72.0797 72.6549 72.3232 72.9333Z" fill="#FF2C4B"/>
<path d="M82.7686 46.7617C86.2236 46.7617 89.0231 49.8696 89.0231 53.7052C89.0231 57.5408 86.2236 60.6486 82.7686 60.6486C79.3136 60.6486 76.5117 57.5384 76.5117 53.7052C76.5117 49.8719 79.3112 46.7617 82.7686 46.7617ZM86.0958 51.9296C86.0958 50.6969 85.3078 49.6941 84.3399 49.6941C83.372 49.6941 82.584 50.6969 82.584 51.9296C82.584 53.1623 83.372 54.165 84.3399 54.165C85.3078 54.165 86.0958 53.1623 86.0958 51.9296Z" fill="black"/>
<path d="M76.3084 62.2113C76.5996 62.2113 76.8789 62.3271 77.0848 62.5334C77.2907 62.7397 77.4064 63.0195 77.4064 63.3112C77.4064 65.6936 76.4598 67.4076 75.1251 68.4198C74.8601 73.5118 71.1897 76.1716 67.5525 76.1716C63.9153 76.1716 60.2568 73.5142 59.9799 68.4222C59.7672 68.2598 59.567 68.0815 59.3812 67.8888C58.6168 67.0994 57.7058 65.6628 57.7058 63.3112C57.6989 63.1626 57.7221 63.0142 57.7742 62.8749C57.8262 62.7355 57.9059 62.6082 58.0084 62.5006C58.1109 62.393 58.2342 62.3074 58.3707 62.2489C58.5072 62.1904 58.6541 62.1602 58.8026 62.1602C58.9511 62.1602 59.098 62.1904 59.2346 62.2489C59.3711 62.3074 59.4943 62.393 59.5969 62.5006C59.6994 62.6082 59.7791 62.7355 59.8311 62.8749C59.8831 63.0142 59.9064 63.1626 59.8995 63.3112C59.8995 65.0986 60.5928 66.2436 61.5252 66.8268C61.584 66.854 61.6403 66.8865 61.6932 66.924C62.1481 67.1676 62.6564 67.2939 63.1723 67.2914C64.7152 67.2914 66.2723 66.1867 66.4308 63.7355C64.8406 63.4226 63.6574 62.4625 63.6574 61.3247C63.6574 59.9402 65.4109 59.5088 67.5715 59.5088C69.732 59.5088 71.4856 59.9402 71.4856 61.3247C71.4856 62.4625 70.3023 63.4226 68.6837 63.7308C68.8422 66.1867 70.3994 67.2867 71.9446 67.2867C72.4521 67.2878 72.9522 67.1658 73.4024 66.9311C73.4665 66.8835 73.5355 66.843 73.6083 66.8102C74.5335 66.2246 75.2174 65.0797 75.2174 63.3041C75.2193 63.0148 75.3348 62.7379 75.539 62.5334C75.7432 62.3289 76.0196 62.2131 76.3084 62.2113ZM71.5234 72.1677C72.1805 71.3808 72.6202 70.4351 72.7989 69.4249C71.9584 69.5627 71.097 69.4949 70.2882 69.2275C69.4794 68.96 68.7471 68.5008 68.1536 67.8888C67.9404 67.6688 67.7464 67.4309 67.5738 67.1776C67.005 68.0132 66.2095 68.6684 65.2813 69.0661C64.353 69.4639 63.3306 69.5876 62.3345 69.4226C62.5159 70.433 62.9563 71.379 63.6124 72.1677C64.1051 72.7351 64.7136 73.1901 65.3967 73.5018C66.0799 73.8136 66.8219 73.9749 67.5726 73.9749C68.3234 73.9749 69.0654 73.8136 69.7485 73.5018C70.4317 73.1901 71.0402 72.7351 71.5329 72.1677H71.5234Z" fill="black"/>
<path d="M52.3624 46.7617C55.8174 46.7617 58.6193 49.8696 58.6193 53.7052C58.6193 57.5408 55.8174 60.6486 52.3624 60.6486C48.9074 60.6486 46.1079 57.5384 46.1079 53.7052C46.1079 49.8719 48.9074 46.7617 52.3624 46.7617ZM55.8482 51.9296C55.8482 50.5736 54.9631 49.4737 53.8722 49.4737C52.7813 49.4737 51.8962 50.5736 51.8962 51.9296C51.8962 53.2856 52.7813 54.3831 53.8722 54.3831C54.9631 54.3831 55.8482 53.2856 55.8482 51.9296Z" fill="black"/>
<path d="M43.3982 91.6797C43.2353 92.5137 43.0091 93.3339 42.7214 94.1333C42.6859 94.2305 42.6504 94.3277 42.6126 94.4249C45.9705 95.8093 54.6648 98.9551 63.823 98.7536C63.9789 98.5102 64.1538 98.2795 64.346 98.0637C64.6813 97.6949 65.0444 97.3526 65.4322 97.0396C66.2192 96.3631 67.0806 95.7785 67.9997 95.2973C68.0238 95.2851 68.05 95.2778 68.0769 95.2759C68.1038 95.274 68.1307 95.2774 68.1563 95.286C68.1818 95.2946 68.2054 95.3082 68.2256 95.326C68.2459 95.3438 68.2624 95.3655 68.2743 95.3897C68.2943 95.4309 68.3009 95.4773 68.2932 95.5225C68.0644 96.5352 67.7222 97.5189 67.2732 98.4549C67.0692 98.9088 66.8319 99.347 66.5633 99.7658C66.3159 100.151 66.0128 100.498 65.6641 100.795C65.6198 100.857 65.5707 100.915 65.5173 100.97C65.4878 101.037 65.453 101.102 65.4132 101.164C64.0962 103.184 63.1088 105.4 62.4883 107.731C61.8697 109.989 60.8709 112.125 59.535 114.046L59.4948 114.105C58.5292 115.499 57.7649 116.602 58.2216 118.415C58.5198 119.615 59.2818 120.219 60.491 120.219C60.5975 120.219 60.6732 120.219 60.6969 120.219C60.902 120.193 61.1104 120.215 61.3055 120.283C61.5005 120.352 61.6769 120.465 61.8206 120.614C61.9642 120.763 62.0712 120.944 62.1329 121.141C62.1946 121.339 62.2093 121.549 62.1759 121.753C61.8541 123.6 63.8324 125.818 64.9707 126.172C65.2588 126.26 65.5555 126.316 65.8557 126.34C66.5023 126.374 67.1506 126.338 67.7891 126.231C68.1594 126.182 68.5225 126.089 68.8706 125.954C71.0122 125.098 71.618 122.694 72.0014 119.823C72.0298 119.617 72.0582 119.406 72.0842 119.195C72.1102 118.984 72.1386 118.745 72.167 118.534C72.3927 116.785 72.8256 115.069 73.4568 113.423C76.0433 106.693 81.4482 102.848 85.5256 100.806C85.5475 100.786 85.5704 100.767 85.5942 100.75C86.3965 100.15 87.2058 99.5856 87.9607 98.9835C88.7317 98.3981 89.4652 97.7647 90.1567 97.087C90.8446 96.404 91.4777 95.6676 92.0499 94.8848C92.6612 94.0463 93.2276 93.1759 93.7466 92.2771C93.9148 93.3892 93.8232 94.5253 93.4792 95.5959C93.165 96.5791 92.7021 97.5081 92.1067 98.3506C105.697 93.6402 107.858 82.5483 108.156 80.3175L104.123 72.9261C100.553 77.6476 96.0618 81.5938 90.9235 84.5253L90.5874 84.7339C90.5211 84.7733 90.4514 84.8066 90.3792 84.8335C83.1502 88.7981 75.0414 90.8761 66.8 90.8761C58.5585 90.8761 50.4497 88.7981 43.2207 84.8335C43.1492 84.8066 43.0803 84.7733 43.0149 84.7339L42.6978 84.5396C40.1984 83.103 37.8417 81.4304 35.66 79.5447C32.0227 81.7755 28.6932 84.7126 25.515 88.4984C25.3541 88.7165 23.5319 91.1914 22.5309 93.9508C22.0932 95.1574 21.821 96.4209 21.8944 97.573C21.9145 98.0959 22.039 98.6095 22.2605 99.0834C22.4821 99.5573 22.7961 99.982 23.1841 100.332C24.7081 101.681 27.0911 101.662 28.7239 100.287L30.3331 98.9385C31.0499 98.3436 31.9696 98.0515 32.8976 98.1241C33.8256 98.1966 34.689 98.6282 35.305 99.3272C35.3917 99.425 35.4961 99.5054 35.6126 99.5643C35.7959 99.6619 36.0062 99.6965 36.211 99.6626C36.4158 99.6288 36.6039 99.5284 36.7462 99.377C37.1224 98.9456 37.4561 98.2202 37.8371 97.381C38.3182 96.2748 38.8806 95.2059 39.5196 94.1831C39.5722 94.0968 39.635 94.0173 39.7066 93.946C39.7752 93.8441 39.8486 93.7469 39.9219 93.6521C40.193 93.3308 40.4941 93.0363 40.8212 92.7726C41.1574 92.4947 41.5107 92.2381 41.879 92.0045C42.2687 91.751 42.6905 91.5509 43.1332 91.4095C43.1868 91.3941 43.2444 91.4007 43.2932 91.4278C43.342 91.455 43.3781 91.5004 43.3935 91.5541C43.4005 91.5869 43.4005 91.6209 43.3935 91.6537L43.3982 91.6797ZM132.98 98.9693C137.026 108.001 139.107 119.883 138.998 133.326C138.797 157.589 131.619 181.952 124.226 183.454C122.57 183.791 120.203 183.251 118.27 178.782C118.189 178.594 118.153 178.389 118.164 178.185C118.703 168.252 118.477 159.402 117.484 151.634C116.791 160.436 114.995 169.309 112.061 178.488C105.484 199.06 93.6993 218.262 77.9838 234.014C76.495 235.507 75.1738 237.158 74.0436 238.938L69.1001 246.685C68.065 248.311 66.638 249.649 64.9506 250.577C63.2632 251.504 61.3698 251.991 59.4451 251.993C58.8723 251.993 58.3003 251.949 57.7341 251.862L48.55 250.471C45.6603 250.032 43.0475 248.503 41.2461 246.197C39.4447 243.891 38.5909 240.983 38.8594 238.068C39.0339 236.224 38.8318 234.364 38.2654 232.601L34.8956 222.062C31.3113 210.851 28.8817 199.302 27.6448 187.596L24.8217 160.808C24.7696 160.661 24.7175 160.514 24.6678 160.365C23.7757 168.676 21.2673 173.64 17.0668 175.48C16.3068 175.817 15.4753 175.96 14.6466 175.897C13.8179 175.833 13.0177 175.566 12.3174 175.117C11.579 174.658 10.9633 174.026 10.5234 173.275C10.0835 172.524 9.83258 171.677 9.79239 170.807C9.18712 158.526 7.24135 146.347 3.98988 134.49C3.97805 134.45 3.96621 134.409 3.95675 134.367C3.61914 133.125 3.26733 131.884 2.90132 130.645C-2.60303 110.305 -0.208186 92.5829 9.44216 82.003C14.8684 76.0552 22.1499 73.0138 29.8172 73.3836C24.7128 66.7673 21.7145 58.7239 21.7145 50.0594C21.7125 46.4666 22.2306 42.8925 23.2527 39.4487C20.5944 37.3396 18.6575 34.4536 17.711 31.1916C16.7645 27.9295 16.8554 24.4532 17.971 21.2452C19.0866 18.0372 21.1715 15.2568 23.9364 13.2899C26.7013 11.323 30.0089 10.2672 33.4 10.2692C37.5 10.2531 41.4526 11.7997 44.456 14.5955C46.2998 13.6455 48.2033 12.8164 50.1544 12.1135L50.2964 12.0637C59.3977 8.68804 64.4406 5.18906 66.6414 0.734732C66.7655 0.481233 66.9676 0.274357 67.2179 0.144572C67.4682 0.0147868 67.7535 -0.0310473 68.0318 0.0138195C68.3101 0.0586864 68.5666 0.191883 68.7636 0.393792C68.9606 0.595702 69.0877 0.855652 69.1262 1.13536C69.4401 3.31472 69.3921 5.53108 68.9842 7.69476L74.6045 4.29298C74.7872 4.18231 74.994 4.11786 75.2072 4.10517C75.4203 4.09248 75.6333 4.13195 75.8278 4.22015C76.0224 4.30836 76.1925 4.44266 76.3236 4.61147C76.4548 4.78027 76.5429 4.9785 76.5805 5.18906C76.8597 6.73705 76.7106 8.3609 76.1237 10.1199C80.5604 10.954 84.8575 12.4105 88.8883 14.4462C91.8722 11.7465 95.7532 10.2573 99.7739 10.2692C103.131 10.2654 106.408 11.2982 109.158 13.2269C111.908 15.1556 113.997 17.8866 115.142 21.0479C116.287 24.2091 116.431 27.6471 115.556 30.8935C114.68 34.1399 112.826 37.037 110.248 39.1903C111.834 44.4213 112.256 49.937 111.484 55.349C110.713 60.7611 108.766 65.9379 105.782 70.5152L110.387 78.8928C120.497 81.3108 128.093 88.0551 132.98 98.9693ZM136.364 133.305C136.47 120.238 134.471 108.738 130.578 100.048C126.174 90.2218 119.456 84.0417 110.593 81.6569C109.737 85.7533 106.071 97.0278 91.3873 101.349L91.3115 101.368C89.8926 101.737 88.5116 102.238 87.1868 102.867C87.1348 102.9 87.0804 102.931 87.0259 102.961C86.9401 103.01 86.8487 103.048 86.7538 103.075C84.3519 104.246 81.4222 106.119 79.0392 109.002C81.153 107.878 83.4756 107.203 85.8616 107.02C85.9933 107.009 86.1257 107.019 86.2545 107.048C99.5231 110.014 109.11 117.991 114.744 130.754C119.889 142.415 121.872 157.881 120.809 178.009C121.401 179.301 122.466 181.112 123.701 180.868C128.555 179.882 136.158 158.179 136.364 133.305ZM109.552 177.684C113.731 164.608 115.551 152.177 115.12 139.689C110.513 123.27 101.087 113.43 86.723 109.864C87.9673 120.046 88.4159 130.31 88.0648 140.561C87.6746 151.356 86.4961 162.108 84.5388 172.73C82.5379 183.529 79.8802 194.196 76.5805 204.671C73.4426 214.706 69.5734 225.167 65.1056 235.778C65.1553 235.83 65.205 235.88 65.2594 235.932C66.5183 237.184 68.7428 238.957 70.8276 239.066L71.8097 237.52C73.0431 235.578 74.4849 233.777 76.1095 232.149C91.5411 216.69 103.104 197.858 109.552 177.684ZM109.315 36.476C110.637 35.2013 111.686 33.6714 112.4 31.9788C113.115 30.2863 113.479 28.4662 113.471 26.6286C113.463 22.9919 112.018 19.5063 109.451 16.9347C106.884 14.3632 103.404 12.9152 99.7739 12.9077C96.7249 12.8971 93.7613 13.916 91.3612 15.7998C92.2558 16.3261 93.1235 16.8792 93.9643 17.4592C95.6953 16.349 97.7091 15.7622 99.7645 15.769C101.829 15.7683 103.852 16.3585 105.593 17.4701C107.335 18.5817 108.723 20.1685 109.595 22.0437C110.467 23.919 110.786 26.0046 110.515 28.0553C110.243 30.106 109.393 32.0365 108.064 33.6194C108.535 34.5511 108.949 35.5064 109.33 36.476H109.315ZM109.226 50.0594C109.226 46.3879 108.646 42.7394 107.507 39.2496C107.473 39.1734 107.446 39.094 107.427 39.0125C104.4 29.9166 97.7009 22.198 88.7416 17.343C88.5677 17.2905 88.4066 17.2025 88.2683 17.0846C83.8376 14.7725 79.0575 13.2059 74.1194 12.4478C73.9182 12.4164 73.727 12.3389 73.5607 12.2211C73.3945 12.1033 73.2578 11.9485 73.1612 11.769C73.0647 11.5894 73.011 11.3898 73.0044 11.186C72.9978 10.9821 73.0384 10.7795 73.1231 10.594C73.5537 9.69237 73.8564 8.73487 74.0223 7.74928L67.491 11.701C67.2555 11.8443 66.9811 11.91 66.7065 11.8888C66.4318 11.8675 66.1707 11.7605 65.96 11.5827C65.7493 11.4049 65.5997 11.1653 65.5321 10.8977C65.4646 10.6302 65.4826 10.3482 65.5836 10.0914C66.1735 8.59126 66.5387 7.01197 66.6674 5.40478C63.61 8.88242 58.6547 11.8054 51.2217 14.5505L51.0702 14.605C48.9788 15.3487 46.9452 16.2464 44.9861 17.2909C44.8946 17.3548 44.7962 17.4081 44.6927 17.4497C35.6221 22.3971 29.0363 30.1513 26.0806 39.1832C26.0609 39.3001 26.0242 39.4135 25.9717 39.5198C24.8939 42.9288 24.3456 46.4835 24.346 50.0594C24.346 57.9511 27.0224 65.2904 31.5991 71.3947C29.6374 65.9281 30.0326 60.5066 31.7175 56.8725C33.1799 53.722 35.5511 51.9772 38.1873 51.9772H38.2583C36.8929 41.8477 42.3286 35.6036 47.6649 33.2757C53.226 30.8506 61.1039 31.6163 66.7929 38.4483C72.4723 31.6116 80.3573 30.8506 85.9184 33.2757C91.2548 35.6036 96.6928 41.8477 95.3274 51.9772H95.3984C98.0346 51.9772 100.403 53.722 101.866 56.8725C103.553 60.5066 103.946 65.9257 101.987 71.3899C106.561 65.2857 109.235 57.9487 109.235 50.0594H109.226ZM106.963 31.4646C107.929 30.0377 108.442 28.3524 108.437 26.6286C108.434 24.3316 107.522 22.1296 105.901 20.5054C104.279 18.8811 102.081 17.9673 99.7881 17.9641C98.4509 17.9601 97.1314 18.2703 95.9356 18.8697C100.424 22.2772 104.176 26.562 106.963 31.4646ZM89.4847 82.3088C100.77 75.3417 102.136 63.7021 99.4781 57.9724C98.8771 56.6828 97.1567 53.7931 94.1371 54.8267C93.9171 54.9013 93.6813 54.9164 93.4536 54.8704C93.2259 54.8244 93.0144 54.7189 92.8405 54.5647C92.6666 54.4104 92.5365 54.2129 92.4633 53.9921C92.3901 53.7712 92.3765 53.5349 92.4238 53.3071C94.4494 43.6186 89.6172 37.7609 84.8677 35.6866C80.2839 33.6858 73.0829 33.975 67.8672 41.376C67.7454 41.5482 67.5842 41.6887 67.3971 41.7856C67.2099 41.8825 67.0023 41.9331 66.7917 41.9331C66.581 41.9331 66.3734 41.8825 66.1863 41.7856C65.9991 41.6887 65.8379 41.5482 65.7161 41.376C60.51 33.9845 53.2994 33.6977 48.718 35.6866C43.9662 37.7609 39.1339 43.6186 41.1596 53.3071C41.2069 53.5349 41.1932 53.7712 41.1201 53.9921C41.0469 54.2129 40.9167 54.4104 40.7428 54.5647C40.5689 54.7189 40.3574 54.8244 40.1297 54.8704C39.902 54.9164 39.6663 54.9013 39.4463 54.8267C36.4267 53.7931 34.7134 56.6828 34.1052 57.9724C31.4453 63.7045 32.8155 75.3535 44.1152 82.3207C51.0484 86.2025 58.8589 88.2396 66.8015 88.2375C74.7441 88.2354 82.5536 86.1943 89.4847 82.3088ZM63.1154 234.315C82.1582 188.983 89.0966 148.263 84.3045 109.895C81.0341 110.561 78.1896 112.309 75.7025 114.919C75.262 116.204 74.9528 117.532 74.7796 118.88C74.7512 119.081 74.7252 119.295 74.6968 119.517C74.33 122.514 73.6437 128.092 68.1465 128.841L67.6732 128.9C62.7817 141.884 60.1408 159.704 58.0276 176.867C57.4975 181.162 54.963 184.837 51.2477 186.695C49.8224 187.426 48.2461 187.812 46.645 187.823C43.8052 187.823 40.9111 186.565 38.1258 184.071C34.6637 180.977 31.3483 176.011 28.3997 169.698L30.2574 187.326C31.4754 198.853 33.8677 210.226 37.3969 221.265L40.7667 231.805C40.8732 232.137 40.9679 232.473 41.0531 232.81C42.4145 231.773 43.9946 231.062 45.6724 230.731C47.8803 230.257 50.391 230.257 53.129 230.778C56.1699 231.345 59.5302 232.535 63.1154 234.315ZM66.8851 245.27L69.4243 241.275C67.2283 240.74 65.2807 239.239 64.0478 238.096C63.4798 237.57 63.0633 237.12 62.8456 236.873C62.5301 236.707 62.2146 236.549 61.8991 236.399C54.246 232.627 49.2646 232.471 46.3823 233.028C43.2917 233.635 42.0138 235.143 41.9145 235.268L41.7228 235.534L41.5027 235.619C41.5665 236.515 41.557 237.415 41.4743 238.31C41.2671 240.555 41.9243 242.794 43.3114 244.57C44.6985 246.345 46.7105 247.523 48.9357 247.861L58.1198 249.252C59.8089 249.51 61.5363 249.271 63.0922 248.564C64.6482 247.857 65.9658 246.712 66.8851 245.27ZM64.727 129.322C64.7814 129.171 64.8358 129.016 64.8926 128.867C64.6529 128.821 64.4159 128.762 64.1827 128.689C62.2682 128.099 59.8663 125.548 59.5373 122.782C58.2571 122.545 56.3261 121.758 55.6564 119.062C54.9086 116.09 56.2456 114.16 57.3129 112.607L57.3531 112.548C58.5191 110.87 59.3906 109.006 59.9302 107.034C60.4627 105.073 61.2194 103.181 62.1854 101.394C52.6368 101.231 44.0845 97.9476 41.1004 96.6532C40.7525 97.298 40.4709 97.9144 40.213 98.4809C39.7397 99.5074 39.3398 100.396 38.7127 101.112C38.1908 101.705 37.4873 102.107 36.7125 102.256C35.9377 102.405 35.1355 102.292 34.4318 101.935C34.0078 101.722 33.6299 101.427 33.3195 101.067C33.1594 100.882 32.9326 100.767 32.6885 100.748C32.4444 100.729 32.2026 100.807 32.0156 100.965L30.4065 102.314C29.1363 103.385 27.5299 103.972 25.87 103.974C24.2367 103.983 22.6566 103.392 21.4282 102.314C21.242 102.147 21.0643 101.971 20.8957 101.786C18.8606 112.51 19.4072 127.099 22.5522 142.432C23.2622 145.893 24.0739 149.245 24.9731 152.447C24.9874 152.486 24.9985 152.525 25.0062 152.566C25.7162 155.114 26.4995 157.57 27.3206 159.915C27.3419 159.962 27.3585 160.014 27.375 160.064C30.9247 170.144 35.3429 178.042 39.8935 182.11C43.4432 185.273 46.7704 186.003 50.0905 184.341C53.0154 182.881 55.0103 179.97 55.4316 176.554C57.3839 160.64 60.0225 142.59 64.727 129.322ZM39.4321 17.6085C40.2682 17.0301 41.1256 16.477 42.0044 15.9491C39.5745 13.967 36.5336 12.8904 33.4 12.9029C30.6398 12.9061 27.9449 13.7445 25.6685 15.3083C23.3921 16.872 21.6403 19.0881 20.6427 21.6662C19.6451 24.2443 19.4481 27.0642 20.0777 29.7564C20.7073 32.4485 22.134 34.8874 24.1709 36.7534C24.5353 35.7956 24.9392 34.8474 25.3825 33.9087C23.604 31.9452 22.6041 29.3977 22.5715 26.7466C22.5389 24.0955 23.4758 21.5241 25.2054 19.5173C26.9351 17.5105 29.338 16.2071 31.9609 15.8529C34.5838 15.4986 37.2455 16.118 39.4439 17.5943L39.4321 17.6085ZM37.5129 19.0143C35.7817 18.0738 33.7818 17.7537 31.8443 18.1072C29.9068 18.4607 28.1479 19.4664 26.8589 20.9579C25.5699 22.4494 24.8281 24.3372 24.7562 26.3087C24.6844 28.2802 25.2869 30.2172 26.464 31.7988C27.4233 30.0682 28.5085 28.4106 29.7107 26.8396C31.9637 23.905 34.5862 21.2748 37.5129 19.0143ZM33.6437 77.6909C33.1705 77.2342 32.7145 76.7656 32.2759 76.2852C24.4667 75.043 16.8775 77.7644 11.3874 83.7833C5.40028 90.3451 2.43039 99.9507 2.63154 111.339C3.40064 105.742 5.22043 101.364 8.07436 98.2368C11.1223 94.9393 15.2778 93.2135 19.9468 93.2894C21.1087 89.9065 23.2598 87.0832 23.4397 86.8651C23.4486 86.8514 23.4589 86.8387 23.4704 86.8272C26.6556 83.0271 29.9971 80.0236 33.6437 77.6909ZM22.4008 153.092C21.4992 149.861 20.6828 146.473 19.9634 142.96C16.3687 125.389 16.125 108.686 19.2156 97.3478C19.2089 96.8722 19.2382 96.3967 19.3031 95.9255C16.6148 95.9966 12.9753 96.8002 10.029 100.012C6.29479 104.097 2.65521 113.257 6.51724 133.753C9.83156 145.814 11.8155 158.202 12.4333 170.696C12.4544 171.139 12.5826 171.57 12.8068 171.952C13.0311 172.334 13.3447 172.655 13.7207 172.889C14.0601 173.107 14.448 173.238 14.85 173.27C15.2521 173.302 15.6558 173.235 16.0256 173.074C20.2047 171.244 22.3535 164.518 22.4008 153.092Z" fill="black"/>
</g>
<defs>
<clipPath id="clip0_1932_885">
<rect width="139" height="252" fill="white"/>
</clipPath>
</defs>
</svg>
