<svg width="177" height="227" viewBox="0 0 177 227" fill="none" xmlns="http://www.w3.org/2000/svg">
<g clip-path="url(#clip0_1932_961)">
<path d="M58.0708 157.362C57.9616 157.599 57.8642 157.858 57.7787 158.114L57.7573 158.188C57.0449 158.216 56.3325 158.226 55.575 158.216C55.1642 158.216 54.7462 158.197 54.3235 158.181C53.6903 158.154 53.0467 158.115 52.3929 158.064C51.5238 157.998 50.6388 157.908 49.738 157.794L49.5005 157.723C49.4895 157.734 49.48 157.747 49.472 157.761C49.0066 157.702 48.5372 157.637 48.0638 157.564L47.8644 157.476C47.8532 157.493 47.8429 157.51 47.8335 157.528C47.3158 157.448 46.7958 157.36 46.2733 157.265L46.0359 157.222C45.4707 157.118 44.9103 157.007 44.3546 156.89C43.8226 156.776 43.2955 156.653 42.7778 156.534C42.2142 156.398 41.6601 156.258 41.1155 156.112C40.0778 155.832 39.0733 155.533 38.1115 155.213C38.2967 155.213 38.482 155.213 38.6672 155.23L37.8028 155.109C37.4205 154.981 37.0477 154.848 36.6796 154.71C36.036 154.473 35.4162 154.236 34.8249 153.975L34.7323 153.935C34.2051 153.698 33.697 153.477 33.2125 153.237L33.0653 153.164L32.9846 153.124C32.8183 153.041 32.6568 152.958 32.4977 152.872C31.8442 152.531 31.21 152.154 30.598 151.743C30.3605 151.582 30.142 151.423 29.9449 151.269C29.601 151.006 29.2772 150.718 28.9761 150.408C29.2278 150.55 29.4914 150.692 29.7716 150.837C29.9521 150.932 30.1373 151.027 30.3273 151.119C30.4721 151.193 30.6194 151.266 30.769 151.338C31.4956 151.684 32.2682 152.023 33.0867 152.355C33.3004 152.44 33.5189 152.528 33.7397 152.611C34.1307 152.769 34.5321 152.92 34.9437 153.062C35.2215 153.159 35.4994 153.259 35.7843 153.354C36.1215 153.47 36.4659 153.591 36.8149 153.695V153.724H36.898C38.0363 154.086 39.2237 154.429 40.4601 154.753L41.0039 154.893C41.4662 155.012 41.9324 155.126 42.4026 155.235C42.9725 155.367 43.5448 155.496 44.1242 155.619C45.0583 155.815 45.9979 155.997 46.943 156.164C47.4987 156.264 48.0567 156.357 48.6171 156.444C48.9401 156.497 49.2631 156.544 49.5884 156.591L49.8259 156.627L50.4575 156.712C50.9206 156.776 51.3813 156.833 51.8396 156.888C52.4539 156.962 53.0634 157.027 53.6681 157.082C55.1832 157.225 56.6602 157.32 58.0708 157.362Z" fill="white"/>
<path d="M118.139 194.339C118.554 202.031 116.761 212.956 113.653 218.938C113.16 219.927 112.542 220.848 111.815 221.68C111.448 222.095 111.019 222.452 110.544 222.738C110.163 222.966 109.732 223.098 109.288 223.122C107.21 223.198 105.766 222.816 104.862 221.957C104.256 221.386 103.862 220.575 103.603 219.6C103.128 217.847 103.1 215.567 103.064 213.195C103.047 211.848 103.026 210.454 102.919 209.099C102.62 205.276 100.732 202.375 99.0651 199.818C97.2746 197.069 95.8592 194.898 96.4767 192.152C96.6072 191.533 96.8113 190.931 97.0846 190.361C97.512 189.497 98.0772 188.907 98.773 188.601C99.2748 188.391 99.8152 188.288 100.359 188.3C101.258 188.322 102.148 188.49 102.993 188.798C102.908 189.135 102.841 189.477 102.793 189.822C102.76 190.043 102.736 190.266 102.722 190.486C102.546 193.01 103.506 195.536 104.622 197.671C105.878 200.413 107.36 203.219 107.766 206.17C107.795 206.405 107.909 206.622 108.085 206.78C108.262 206.938 108.49 207.027 108.727 207.03C108.964 207.034 109.195 206.952 109.376 206.799C109.557 206.646 109.677 206.432 109.713 206.198C109.996 204.412 109.746 202.666 109.407 201.032C109.049 199.425 108.595 197.841 108.049 196.288C107.32 194.263 106.624 192.284 106.861 190.209C106.891 189.96 106.933 189.712 106.987 189.467C107.035 189.256 107.095 189.049 107.165 188.845C107.165 188.845 107.165 188.831 107.144 188.859C107.179 188.807 107.21 188.754 107.239 188.698C108.426 186.428 110.43 185.354 112.591 185.823C113.864 186.101 115.173 186.94 116.201 188.338C117.229 189.735 117.998 191.763 118.139 194.339Z" fill="white"/>
<path d="M30.9541 196.566L27.1784 199.412C26.8443 199.663 26.6009 200.016 26.485 200.418C26.4303 200.605 25.2026 205.005 27.8077 209.035C28.0206 209.36 28.1038 209.754 28.041 210.137C27.9781 210.521 27.7737 210.867 27.4681 211.108C27.1095 211.414 26.124 211.995 24.7491 210.762C22.8683 209.08 15.1981 198.316 4.25785 181.971C4.01979 181.618 3.88117 181.208 3.85652 180.783C3.83187 180.358 3.9221 179.934 4.11775 179.556C4.30394 179.18 4.589 178.862 4.94245 178.635C5.29589 178.408 5.70443 178.281 6.12436 178.268C6.49006 178.254 6.85814 178.247 7.22622 178.247C12.783 178.247 18.4371 180.09 20.3013 190.951C20.3496 191.234 20.4604 191.503 20.6256 191.738C20.7908 191.972 21.0063 192.167 21.2564 192.309C21.5066 192.45 21.785 192.534 22.0716 192.554C22.3582 192.575 22.6458 192.531 22.9134 192.427L27.6628 190.581C28.6273 192.646 29.7268 194.645 30.9541 196.566Z" fill="white"/>
<path d="M99.1934 213.252C99.2243 215.428 99.2551 217.641 99.647 219.657C71.6256 219.595 46.3446 210.88 36.5443 197.835C36.4422 197.697 36.3401 197.562 36.2403 197.424C35.4488 196.357 34.7205 195.29 34.0556 194.225C33.0301 192.594 32.1031 190.904 31.2796 189.163C30.712 187.977 30.2134 186.774 29.774 185.605C29.3751 184.533 29.0244 183.473 28.7221 182.424C28.4814 181.602 28.2701 180.788 28.088 179.981C27.8909 179.132 27.7271 178.29 27.587 177.462C27.3495 176.094 27.1928 174.753 27.093 173.451L27.1714 173.522C28.0459 174.301 28.9761 175.014 29.9545 175.657C30.5339 176.041 31.1363 176.407 31.7617 176.753C32.3538 177.08 32.9633 177.391 33.5902 177.685C36.3374 178.952 39.2397 179.853 42.2222 180.363C44.2264 180.714 46.2571 180.893 48.2919 180.897C52.0582 180.897 55.6273 180.261 58.7025 179.016C60.7166 178.235 62.5642 177.08 64.1477 175.612C67.9733 180.119 73.0196 183.323 78.3341 185.726C83.0436 187.773 88.0053 189.184 93.0881 189.922C92.935 190.376 92.8058 190.837 92.701 191.305C91.725 195.641 93.8076 198.838 95.8237 201.926C97.3744 204.31 98.8396 206.559 99.0628 209.4C99.1554 210.629 99.1744 211.964 99.1934 213.252Z" fill="white"/>
<path d="M61.5806 172.203L62.3096 173.219C58.6431 177.014 51.0132 178.835 42.7398 177.396C39.7058 176.88 36.7645 175.921 34.0104 174.549C33.3788 174.229 32.7708 173.89 32.1938 173.537C31.5605 173.148 30.9629 172.742 30.4009 172.32C29.0988 171.357 27.9423 170.213 26.9671 168.921C26.1084 167.79 25.4968 166.493 25.1718 165.111C25.076 164.678 25.0172 164.238 24.9961 163.795C25.1178 163.889 25.2447 163.976 25.376 164.056C25.6711 164.229 25.9792 164.379 26.2974 164.504C26.6202 164.617 26.9225 164.781 27.1927 164.99L27.2236 165.019C27.385 165.178 27.461 165.424 27.6035 165.949C27.841 166.874 28.228 168.268 29.9616 169.186C30.2259 169.329 30.5006 169.452 30.7832 169.554C31.396 169.778 32.0479 169.876 32.6996 169.841C33.0273 169.824 33.3289 169.782 33.6067 169.741C33.9598 169.676 34.319 169.651 34.6777 169.665C34.8378 169.674 34.9967 169.697 35.1526 169.734C35.5278 169.815 35.6276 169.945 36.0004 170.572C36.4089 171.283 37.0263 172.329 38.5176 172.706C39.8617 173.043 41.1297 172.706 42.2387 172.4C43.0509 172.18 43.8155 171.973 44.5351 172.033C45.1857 172.085 45.7818 172.343 46.4728 172.645C47.3752 173.036 48.4675 173.51 49.8401 173.51C50.0879 173.511 50.3353 173.495 50.581 173.463C52.267 173.257 53.3285 172.471 54.1811 171.841C54.6964 171.459 55.1024 171.157 55.5251 171.072C55.6415 171.048 55.746 171.086 56.2233 171.421C56.9357 171.912 58.123 172.735 59.8471 172.068C60.281 171.902 60.7018 171.703 61.1057 171.473L61.4832 172.059C61.5165 172.104 61.5497 172.151 61.5806 172.203Z" fill="white"/>
<path d="M52.5782 169.279L52.3906 169.416C51.6781 169.943 51.113 170.365 50.2153 170.472C49.3177 170.579 48.5839 170.273 47.6768 169.879C46.8599 169.525 45.9338 169.122 44.7868 169.027C44.6134 169.013 44.4448 169.008 44.2786 169.008C43.3196 169.039 42.369 169.198 41.4527 169.483C40.5836 169.72 39.8332 169.919 39.2514 169.774C39.0139 169.718 38.9403 169.623 38.6031 169.046C38.1638 168.294 37.4965 167.149 35.7986 166.786C35.5582 166.732 35.3147 166.693 35.0696 166.67C34.4352 166.617 33.7968 166.646 33.1698 166.755H33.1033C32.4313 166.85 32.0703 166.888 31.3627 166.518C31.3009 166.485 31.2439 166.451 31.1941 166.418C30.7904 166.155 30.6906 165.851 30.503 165.156C30.446 164.943 30.3843 164.706 30.2964 164.459C30.1622 164.054 29.9694 163.672 29.7241 163.323C30.1931 163.587 30.6785 163.82 31.1774 164.022C31.2843 164.068 31.3912 164.108 31.5004 164.151C32.1128 164.38 32.7415 164.564 33.3811 164.701C34.0141 164.831 34.6566 164.91 35.3023 164.938C35.4851 164.938 35.6704 164.952 35.8556 164.952C36.0408 164.952 36.207 164.952 36.3828 164.952C37.1052 165.783 38.0463 166.395 39.0994 166.719C39.5857 166.859 40.0896 166.927 40.5955 166.923C42.5142 166.923 44.6704 166.046 46.6818 164.891C47.7884 166.636 49.5647 168.067 51.7375 168.961C52.0059 169.079 52.2908 169.184 52.5782 169.279Z" fill="white"/>
<path d="M57.9947 165.125C58.1775 165.714 58.3936 166.295 58.6359 166.867C58.101 166.943 57.5614 166.981 57.0211 166.98H56.8786C56.3812 166.975 55.8847 166.938 55.392 166.869C52.6208 166.478 50.3221 165.109 49.1941 163.278C49.3746 163.15 49.5503 163.024 49.7236 162.896C49.897 162.768 50.1107 162.606 50.2983 162.462C50.6308 162.208 50.949 161.957 51.2482 161.717C51.5474 161.477 51.7968 161.266 52.0437 161.058C53.0411 161.138 54.0171 161.188 54.9646 161.214H55.3422H56.1804C56.5715 161.214 56.9585 161.209 57.3417 161.2C57.3417 161.394 57.3417 161.591 57.3607 161.786C57.3607 161.942 57.382 162.099 57.3987 162.26C57.4366 162.647 57.4936 163.031 57.5649 163.413C57.629 163.75 57.705 164.082 57.8023 164.414C57.8546 164.656 57.9211 164.891 57.9947 165.125Z" fill="white"/>
<path d="M47.8001 160.567L47.3656 160.878L46.9595 161.16C46.4964 161.475 46.0334 161.777 45.5703 162.056H45.5561C43.6136 163.242 41.7376 164.02 40.4244 163.916C40.2636 163.905 40.1044 163.877 39.9494 163.833C39.4621 163.677 39.0246 163.396 38.6813 163.017C38.3186 162.628 38.0103 162.191 37.7647 161.72C37.703 161.608 37.6412 161.482 37.5866 161.373C37.5059 161.212 37.4299 161.048 37.3491 160.88C37.3376 160.858 37.3281 160.835 37.3206 160.811C37.1158 160.322 36.9367 159.822 36.784 159.314C36.632 158.812 36.499 158.299 36.385 157.796C37.8526 158.309 39.4127 158.781 41.0442 159.198C41.4573 159.305 41.8777 159.407 42.3004 159.507L42.5236 159.559C43.0128 159.673 43.5091 159.782 44.0078 159.884C44.5065 159.986 44.9576 160.078 45.4492 160.168C45.4618 160.166 45.4746 160.166 45.4872 160.168L45.9906 160.258C46.3088 160.315 46.6271 160.368 46.9405 160.42C46.9394 160.433 46.9394 160.447 46.9405 160.46V160.42C47.235 160.481 47.5176 160.524 47.8001 160.567Z" fill="white"/>
<path d="M34.0342 160.626C34.1719 161.039 34.3262 161.451 34.5091 161.855C34.2716 161.819 34.0342 161.772 33.7967 161.715C33.296 161.595 32.8054 161.436 32.3291 161.24C32.1938 161.186 32.0608 161.127 31.9278 161.067C31.5772 160.907 31.2363 160.726 30.9067 160.526C30.2335 160.122 29.6177 159.629 29.0758 159.061C28.843 158.817 28.6272 158.558 28.4299 158.285C28.3001 158.108 28.179 157.925 28.0666 157.737C28.0541 157.719 28.043 157.7 28.0333 157.68L27.9977 157.621C27.7516 157.195 27.5609 156.74 27.4301 156.266C27.2625 155.675 27.2213 155.055 27.309 154.447C27.3534 154.149 27.4331 153.858 27.5465 153.579C27.586 153.481 27.6304 153.385 27.6795 153.292C27.9169 153.491 28.1734 153.693 28.4536 153.897C28.779 154.134 29.1328 154.371 29.5222 154.608C29.7193 154.732 29.9236 154.846 30.1373 154.983C30.4412 155.161 30.7642 155.339 31.1014 155.517C31.5763 155.765 32.0679 156.009 32.5761 156.247L33.0795 156.485C33.1318 156.824 33.1911 157.196 33.2648 157.569C33.3574 158.043 33.4666 158.565 33.5996 159.089C33.6851 159.421 33.7777 159.76 33.8798 160.099L33.9724 160.391C33.9843 160.474 34.008 160.548 34.0342 160.626Z" fill="white"/>
<path d="M29.3916 133.908H29.5816L29.2705 134.252C27.0714 136.697 25.5734 139.688 24.9343 142.912L24.9034 143.073C24.6385 144.513 24.8908 146 25.6158 147.272C25.4325 147.606 25.3042 147.967 25.2359 148.342C25.0815 149.211 25.2263 150.107 25.6467 150.884C24.9437 151.81 24.4863 152.899 24.3169 154.048C24.163 155.13 24.2523 156.232 24.5781 157.274C24.2077 157.828 23.919 158.432 23.7208 159.067C22.9024 159.688 22.3438 160.59 22.1535 161.598L22.1322 161.715C21.7627 163.951 22.1075 166.246 23.1177 168.275C23.0503 170.253 23.1027 172.234 23.2744 174.205C19.4939 170.799 15.9342 165.799 14.9606 159.286C14.7509 157.853 14.6596 156.405 14.6875 154.957C14.868 145.324 20.0686 135.908 26.7486 134.24C27.5535 134.037 28.3788 133.926 29.2088 133.908H29.3916Z" fill="white"/>
<path d="M62.3168 152.481C62.3643 152.566 62.4118 152.651 62.4616 152.734C61.9774 152.99 61.5144 153.285 61.0772 153.614C60.7608 153.851 60.4595 154.107 60.1748 154.381C57.5118 154.388 54.851 154.229 52.2077 153.906C51.5602 153.83 50.9056 153.745 50.2439 153.65L49.6763 153.569C47.1591 153.192 44.6633 152.701 42.2388 152.106L41.7377 151.98C40.8329 151.743 39.9519 151.506 39.1018 151.269C38.4583 151.076 37.8337 150.882 37.2258 150.68C36.583 150.467 35.9609 150.248 35.3593 150.023C34.7157 149.786 34.0959 149.549 33.5047 149.286V149.264H33.4429C32.968 149.058 32.493 148.849 32.0537 148.633C31.7498 148.489 31.4553 148.342 31.1703 148.192C31.0041 148.104 30.8426 148.019 30.6954 147.934C30.4579 147.805 30.2323 147.675 30.0186 147.549L29.7811 147.405C29.4046 147.176 29.0624 146.895 28.7648 146.57L28.6912 146.487L28.6128 146.394C28.5368 146.299 28.4656 146.202 28.3991 146.105C28.2059 145.819 28.054 145.508 27.9479 145.18C27.7922 144.691 27.7612 144.171 27.8576 143.666L27.8885 143.508C28.1942 141.952 28.7466 140.456 29.5247 139.074C29.9106 138.388 30.348 137.731 30.8331 137.11C31.5298 136.218 32.316 135.398 33.1793 134.665C33.4959 134.395 33.8237 134.135 34.1624 133.887C34.3714 133.73 34.5875 133.579 34.806 133.431C35.4655 132.989 36.1523 132.588 36.8625 132.231C37.1427 132.089 37.4253 131.954 37.715 131.826C38.8461 131.322 40.0198 130.921 41.2224 130.625C41.3909 132.378 42.1362 134.026 43.3418 135.311C44.5474 136.596 46.1454 137.446 47.8858 137.727C48.1908 138.916 48.7679 140.019 49.5717 140.948C50.3754 141.876 51.3839 142.606 52.5179 143.08C53.6519 143.553 54.8804 143.758 56.1068 143.677C57.3332 143.596 58.5242 143.232 59.5859 142.613C60.1047 143.248 60.7192 143.797 61.4073 144.243C61.2188 144.831 61.0868 145.435 61.0131 146.048C60.9722 146.398 60.9493 146.749 60.9442 147.101C60.9299 148.131 61.0675 149.157 61.3527 150.147C61.4381 150.448 61.5379 150.744 61.6495 151.038C61.8161 151.479 62.0096 151.909 62.2289 152.326L62.3168 152.481Z" fill="white"/>
<path d="M90.9508 12.0448C96.1751 18.9068 97.3934 24.7394 97.638 27.6996C91.3456 27.9367 85.0927 28.802 78.9729 30.2827C74.11 31.4179 69.3721 33.0333 64.8292 35.1048C63.3442 34.3111 62.0273 33.2374 60.9513 31.943C59.4292 30.017 58.9922 27.9344 59.612 25.572C60.2104 23.2878 61.2743 21.8219 62.8273 21.089C63.7136 20.6976 64.6749 20.5049 65.6437 20.5245C68.2559 20.5245 70.7279 21.6606 70.7588 21.6749C71.1834 21.8741 71.666 21.9128 72.117 21.7836C72.5679 21.6545 72.9567 21.3663 73.211 20.9726C73.4654 20.5789 73.5682 20.1063 73.5002 19.6427C73.4322 19.179 73.1981 18.7557 72.8414 18.4514C72.7607 18.3826 66.0166 12.5571 68.9849 7.33883C70.1153 5.34876 72.4543 4.09638 75.3966 3.8995C79.6948 3.60775 86.0423 5.59782 90.9508 12.0448Z" fill="white"/>
<path d="M41.8208 95.3521C43.3549 95.5466 44.395 97.3137 44.1409 99.299C43.8868 101.284 42.4382 102.736 40.9042 102.541C39.3701 102.347 38.33 100.577 38.5817 98.5922C38.8335 96.6068 40.2844 95.16 41.8208 95.3521Z" fill="white"/>
<path d="M48.6315 99.1331C50.6238 99.3869 51.9917 101.557 51.6829 103.984C51.3742 106.41 49.5077 108.161 47.5106 107.924C45.5135 107.686 44.1504 105.499 44.4591 103.075C44.7678 100.651 46.6367 98.8793 48.6315 99.1331Z" fill="white"/>
<path d="M73.6156 112.119C74.4372 113.471 74.601 114.838 74.0667 115.865C74.0667 115.865 73.3662 116.854 69.1986 117.345C62.0199 118.187 53.9721 116.728 52.8441 115.62C52.279 114.795 52.3383 113.585 53.0056 112.3C54.193 110.035 57.4392 107.385 62.7608 107.378H62.7893C68.6287 107.373 72.2097 109.821 73.6156 112.119Z" fill="white"/>
<path d="M99.4213 97.3757C99.7229 99.7477 98.4714 101.861 96.6476 102.094C94.8239 102.326 93.0856 100.592 92.7793 98.2201C92.4729 95.8482 93.7173 93.7348 95.5529 93.5023C97.3885 93.2699 99.1197 95.0038 99.4213 97.3757Z" fill="white"/>
<path d="M92.2283 103.218C92.5964 106.116 90.965 108.711 88.5808 109.015C86.1966 109.318 83.9668 107.214 83.594 104.316C83.2211 101.417 84.8573 98.8248 87.2415 98.5212C89.6257 98.2176 91.8579 100.333 92.2283 103.218Z" fill="white"/>
<path d="M168.62 156.487C173.528 165.187 176.931 178.88 165.229 194.694C156.179 206.931 139.204 215.318 118.172 218.371C121.154 211.087 122.363 200.735 122.007 194.129C121.85 191.25 121.071 188.868 119.936 186.997C124.086 185.317 127.932 182.967 131.32 180.042C134.385 177.36 137.006 174.212 139.088 170.714C139.192 170.532 139.224 170.319 139.177 170.115C139.131 169.912 139.011 169.733 138.839 169.614C138.667 169.495 138.457 169.444 138.25 169.472C138.043 169.5 137.854 169.605 137.72 169.765C134.712 173.502 131.134 176.743 127.117 179.369C124.062 181.304 120.78 182.856 117.345 183.989C116.204 183.044 114.858 182.379 113.413 182.047C110.088 181.323 106.913 182.569 104.8 185.337C102.964 184.625 99.9603 183.859 97.227 185.059C96.6155 185.326 96.0466 185.68 95.5386 186.112C88.5338 185.318 81.755 183.149 75.5912 179.732C72.1645 177.732 69.018 175.337 66.6006 172.305C66.4415 172.101 66.2824 171.897 66.1256 171.688C66.0022 171.518 65.7813 171.214 65.5557 170.913C65.2874 170.55 65.0119 170.175 64.8694 169.978C64.727 169.781 64.5916 169.549 64.4539 169.331L64.4064 169.257C64.2211 168.966 64.0375 168.671 63.8554 168.37L63.7866 168.252C63.5824 167.912 63.3829 167.568 63.1929 167.222C63.143 167.134 63.0955 167.044 63.048 166.956C62.9436 166.762 62.8414 166.565 62.7441 166.368C62.6539 166.188 62.566 166.01 62.4829 165.825C62.4496 165.756 62.4188 165.687 62.3879 165.619C62.3048 165.431 62.2264 165.244 62.1504 165.057C61.9562 164.578 61.7889 164.09 61.6494 163.593C61.6137 163.465 61.5805 163.334 61.5496 163.204C61.5259 163.112 61.5045 163.017 61.4855 162.922C61.3447 162.272 61.2691 161.61 61.2599 160.946C61.2611 160.936 61.2611 160.927 61.2599 160.917C61.2813 160.709 61.3098 160.289 61.324 160.118L61.3881 159.857C61.4203 159.687 61.4623 159.519 61.514 159.354C61.7159 158.72 62.0429 158.133 62.4757 157.628C62.5644 157.523 62.657 157.421 62.7536 157.322C62.9527 157.119 63.167 156.932 63.3948 156.762L63.5254 156.662C63.9457 156.361 64.4254 156.138 64.8528 155.846C64.8908 155.823 64.9264 155.794 64.9644 155.768C65.0568 155.7 65.1456 155.627 65.2304 155.55C65.3566 155.434 65.4741 155.308 65.5818 155.175C65.6898 155.045 65.7874 154.907 65.8739 154.762C66.0827 154.414 66.235 154.034 66.3251 153.638L66.3417 153.567C66.4984 152.83 66.422 152.062 66.1233 151.37C66.1043 151.323 66.0829 151.276 66.0592 151.23L65.9523 151.045C65.0024 149.352 64.499 147.326 65.1354 145.493C65.2039 145.302 65.2832 145.115 65.3729 144.933C65.5173 144.608 65.6956 144.298 65.9048 144.01C65.9737 143.915 66.0473 143.823 66.1233 143.733C66.5454 143.266 67.0362 142.866 67.579 142.547C68.0981 142.234 68.6331 141.948 69.1819 141.69C70.1871 141.226 71.2224 140.83 72.2808 140.504C73.2569 140.196 74.2518 139.93 75.2516 139.684C78.9907 138.809 82.7895 138.212 86.6169 137.898C89.5639 137.661 92.8243 137.49 96.2367 137.452C99.2621 137.416 102.411 137.485 105.567 137.689C115.175 138.339 124.892 140.334 131.643 144.885C131.762 144.977 131.911 145.019 132.059 145.003C132.208 144.987 132.345 144.914 132.441 144.8C132.537 144.686 132.586 144.539 132.576 144.39C132.566 144.241 132.499 144.102 132.389 144.001C130.919 142.587 129.277 141.364 127.502 140.36C123.066 137.898 118.055 136.209 112.822 135.115C116.99 133.517 121.082 131.746 125.099 129.805C125.375 129.675 125.588 129.441 125.691 129.155C125.794 128.868 125.779 128.553 125.65 128.277C125.52 128.002 125.286 127.789 124.999 127.686C124.712 127.582 124.396 127.597 124.12 127.727C118.751 130.201 113.247 132.372 107.633 134.228C100.409 133.246 92.9905 133.242 86.2607 133.754C79.1746 134.518 71.7299 135.459 65.4441 139.19C64.9505 139.489 64.4847 139.831 64.0525 140.213C63.1771 140.142 62.3064 140.055 61.4404 139.954C61.4071 139.895 61.3739 139.836 61.343 139.774C61.2383 139.565 61.0862 139.383 60.8987 139.242C60.7111 139.102 60.4934 139.007 60.2628 138.966C60.0322 138.924 59.7952 138.937 59.5704 139.003C59.3457 139.07 59.1395 139.187 58.9683 139.347C58.8781 139.43 58.7855 139.511 58.6929 139.584C56.1807 139.201 53.6921 138.678 51.2387 138.016C50.9355 137.446 50.7505 136.821 50.6949 136.178C50.655 135.801 50.4766 135.452 50.1942 135.198C49.9118 134.945 49.5454 134.804 49.1656 134.805C47.856 134.804 46.6001 134.284 45.6736 133.36C44.7472 132.435 44.2258 131.182 44.2239 129.873C44.222 129.591 44.2467 129.309 44.2975 129.031C44.3418 128.794 44.3283 128.55 44.2581 128.319C44.1879 128.088 44.0631 127.877 43.8943 127.705C43.7255 127.532 43.5175 127.403 43.288 127.327C43.0586 127.252 42.8143 127.233 42.5758 127.271C40.0703 127.664 37.6427 128.45 35.3829 129.601C32.6961 126.821 30.7135 123.441 29.6005 119.74C27.4253 112.281 29.0757 103.737 34.5066 94.3607C34.7107 94.0101 34.7988 93.6042 34.7583 93.2008C34.7465 93.0822 33.6422 81.1038 38.6813 67.904C43.5542 55.029 52.2954 45.4914 64.7198 39.3742C66.4074 38.5472 68.1623 37.7818 69.9845 37.0781C73.2077 35.8449 76.5115 34.8329 79.8727 34.0492C84.7886 32.869 89.7916 32.0861 94.8333 31.7081C96.7125 31.5736 98.5616 31.5072 100.381 31.5088H100.905C126.025 31.6843 145.217 44.6518 155.998 69.2583C156.013 69.294 156.03 69.3289 156.048 69.3627C164.034 87.6409 167.003 111.42 164.872 140.047C164.465 145.776 165.769 151.498 168.62 156.487ZM93.6768 112.466C99.4307 111.735 103.375 105.468 102.482 98.4712C101.589 91.474 96.2035 86.3957 90.4472 87.1262C84.691 87.8568 80.749 94.1235 81.6395 101.121C82.53 108.118 87.9206 113.199 93.6768 112.466ZM80.3548 108.908C80.4444 108.759 80.4846 108.585 80.4695 108.412C80.4545 108.238 80.385 108.074 80.2709 107.943C80.1569 107.811 80.0042 107.719 79.8346 107.679C79.665 107.64 79.4872 107.655 79.3266 107.722C78.3135 108.204 77.4131 108.893 76.6835 109.745C74.0832 105.829 68.9278 103.505 62.7797 103.505H62.7465C55.6865 103.505 51.2292 107.3 49.5551 110.521C48.9344 111.682 48.6013 112.976 48.5838 114.292C48.5674 115.576 48.9535 116.832 49.688 117.886C51.659 120.673 59.6617 121.444 64.9953 121.444C66.0734 121.444 67.0399 121.413 67.8283 121.358C70.9154 121.152 73.2616 120.67 74.9191 119.895C75.4796 121.537 76.4267 123.021 77.6809 124.221C77.7762 124.31 77.8975 124.367 78.0272 124.383C78.1569 124.4 78.2884 124.374 78.4028 124.311C78.5171 124.248 78.6084 124.15 78.6634 124.031C78.7185 123.913 78.7345 123.78 78.7091 123.652C78.5524 122.409 78.3292 121.311 78.1725 120.106C78.0455 118.879 78.0304 117.644 78.1273 116.415C78.3244 113.813 79.3551 111.311 80.3548 108.908ZM64.1167 164.276C64.1178 164.267 64.1178 164.257 64.1167 164.248L64.1 164.264L64.1167 164.276ZM53.4614 101.733C54.2094 95.8763 50.9086 90.6343 46.0999 90.0224C41.2911 89.4104 36.7745 93.6586 36.0288 99.5101C35.2832 105.362 38.5816 110.608 43.3904 111.22C48.1991 111.832 52.7181 107.589 53.4614 101.733Z" fill="white"/>
<path d="M40.8851 138.453C40.8851 138.545 40.8764 138.636 40.859 138.726C40.7901 139.082 40.5812 139.34 40.3366 139.34C40.2658 139.339 40.1966 139.319 40.1371 139.281C40.0349 139.216 39.9527 139.124 39.8996 139.015C39.8145 138.84 39.7714 138.648 39.7738 138.453C39.7651 138.306 39.7881 138.158 39.8414 138.021C39.8947 137.883 39.9769 137.759 40.0825 137.656L40.111 137.635L40.168 137.601H40.1917L40.2606 137.58H40.2938H40.3698C40.4311 137.592 40.4895 137.615 40.5416 137.649C40.5938 137.684 40.6387 137.728 40.6738 137.779C40.813 137.976 40.8869 138.212 40.8851 138.453Z" fill="white"/>
<path d="M41.1701 133.303C41.1463 133.372 41.1014 133.432 41.0419 133.474C40.9079 133.553 40.757 133.599 40.6017 133.608C40.4465 133.617 40.2912 133.589 40.149 133.526C39.6859 133.362 39.3938 132.997 39.4959 132.71C39.5315 132.616 39.601 132.539 39.6907 132.494C39.8215 132.439 39.962 132.411 40.1039 132.411C40.2458 132.411 40.3862 132.439 40.5171 132.494C40.9801 132.656 41.2722 133.021 41.1701 133.303Z" fill="white"/>
<path d="M48.3962 138.941C48.3796 139.247 47.9688 139.47 47.4772 139.442C46.9857 139.413 46.6057 139.145 46.6224 138.842C46.639 138.538 47.0522 138.313 47.5414 138.341C48.0305 138.37 48.4129 138.638 48.3962 138.941Z" fill="white"/>
<path d="M49.1254 144.452C49.0245 144.635 48.8781 144.789 48.7003 144.9C48.2895 145.166 47.8193 145.173 47.6555 144.916C47.5367 144.734 47.6056 144.463 47.8051 144.229C47.8913 144.129 47.9912 144.043 48.1019 143.972C48.5151 143.707 48.9829 143.697 49.1468 143.953C49.1881 144.031 49.2079 144.118 49.2041 144.205C49.2003 144.293 49.1732 144.378 49.1254 144.452Z" fill="white"/>
<path d="M56.3421 145.721C56.1046 145.915 55.6629 145.768 55.3495 145.393C55.036 145.019 54.9695 144.554 55.2022 144.359C55.4349 144.165 55.8814 144.309 56.1972 144.687C56.5131 145.064 56.5772 145.524 56.3421 145.721Z" fill="white"/>
<path d="M63.0957 147.466C62.8582 147.663 62.4165 147.516 62.1031 147.139L62.0556 147.08C61.7825 146.717 61.735 146.29 61.9559 146.105C62.0053 146.065 62.0641 146.038 62.1268 146.026C62.2873 146.019 62.4471 146.052 62.5912 146.123C62.7353 146.194 62.8591 146.3 62.9509 146.432C63.2643 146.809 63.3308 147.272 63.0957 147.466Z" fill="white"/>
<path d="M107.167 188.859C107.189 188.831 107.191 188.833 107.186 188.845C107.117 189.049 107.058 189.256 107.011 189.466C106.954 189.711 106.912 189.959 106.885 190.209C106.647 192.284 107.36 194.253 108.072 196.283C108.618 197.837 109.073 199.421 109.433 201.027C109.77 202.662 110.022 204.407 109.737 206.193C109.701 206.428 109.581 206.641 109.4 206.794C109.219 206.947 108.988 207.029 108.751 207.026C108.514 207.022 108.286 206.933 108.109 206.775C107.932 206.617 107.819 206.4 107.79 206.165C107.386 203.214 105.902 200.408 104.646 197.666C103.529 195.531 102.568 193.005 102.746 190.482C102.76 190.261 102.784 190.038 102.817 189.817C102.865 189.473 102.932 189.13 103.017 188.793C102.172 188.485 101.282 188.317 100.383 188.295C99.839 188.283 99.2985 188.386 98.7967 188.596C98.1009 188.902 97.5357 189.492 97.1083 190.356C96.835 190.927 96.6309 191.528 96.5004 192.147C95.883 194.893 97.2983 197.064 99.0888 199.813C100.751 202.37 102.651 205.268 102.943 209.094C103.05 210.449 103.071 211.843 103.09 213.191C103.123 215.563 103.157 217.842 103.627 219.595C103.886 220.57 104.28 221.381 104.885 221.953C105.79 222.811 107.234 223.193 109.314 223.117C109.757 223.093 110.188 222.961 110.568 222.733C111.043 222.447 111.472 222.09 111.839 221.675C112.569 220.843 113.189 219.921 113.684 218.931C116.792 212.949 118.585 202.023 118.169 194.331C118.029 191.755 117.272 189.753 116.222 188.33C115.173 186.907 113.885 186.093 112.615 185.816C110.454 185.342 108.452 186.421 107.26 188.691C107.232 188.752 107.201 188.807 107.167 188.859ZM172.025 154.585C176.504 162.526 181.999 178.591 168.375 196.995C165.139 201.372 161.086 205.246 156.217 208.617C151.347 211.989 145.706 214.835 139.292 217.156C132.216 219.709 124.353 221.526 116.049 222.546C115.647 223.159 115.197 223.74 114.705 224.284C113.13 226.011 111.373 226.919 109.473 226.995C109.257 226.995 109.043 226.995 108.835 226.995C105.985 226.995 103.819 226.262 102.235 224.756C101.839 224.381 101.485 223.962 101.181 223.509H100.542H99.9745C86.0921 223.509 72.5849 221.447 60.8729 217.536C48.3654 213.359 38.8927 207.348 33.4784 200.152L33.1792 199.751L30.1325 202.052C29.9924 203.022 29.895 205.081 31.0824 206.931C31.806 208.043 32.0959 209.382 31.8972 210.694C31.6985 212.005 31.025 213.198 30.0043 214.047C28.9974 214.905 27.7183 215.378 26.3947 215.382C25.034 215.382 23.5641 214.877 22.1797 213.637C19.4013 211.144 9.15922 196.205 1.05915 184.113C0.440031 183.19 0.0781591 182.12 0.0107725 181.011C-0.0566141 179.903 0.172918 178.796 0.67575 177.806C1.17858 176.815 1.93655 175.977 2.87167 175.376C3.80678 174.775 4.88526 174.434 5.99613 174.388C9.59854 174.25 20.1968 173.842 23.6615 187.977L26.1786 186.997C25.304 184.671 24.6117 182.28 24.1079 179.846C18.3422 175.885 12.5004 168.935 11.1587 159.843C10.263 153.496 11.2833 147.026 14.0891 141.261C16.915 135.569 21.1965 131.636 25.8391 130.478C27.4153 130.076 29.0484 129.943 30.6692 130.085C28.5047 127.342 26.8824 124.213 25.8889 120.865C23.424 112.482 25.091 103.075 30.8425 92.9234C30.6597 90.172 30.294 79.0713 34.9959 66.6494C38.6529 56.9837 46.0144 45.188 60.8183 37.102C59.743 36.3076 58.7762 35.3762 57.9425 34.3316C56.8429 32.9896 56.0829 31.403 55.7266 29.7058C55.3703 28.0086 55.4282 26.2507 55.8955 24.5805C56.7955 21.1554 58.5908 18.7977 61.2362 17.5667C62.8544 16.8536 64.6228 16.5474 66.3869 16.6748C64.5631 13.6862 63.2808 9.6088 65.6603 5.42706C67.4413 2.28898 70.9036 0.325008 75.1733 0.0380024C81.9388 -0.419783 89.184 3.2852 94.0734 9.70131C100.01 17.4884 101.335 24.1702 101.57 27.6783C110.903 27.842 119.54 29.7087 127.4 33.2785C141.522 39.6827 152.334 51.2412 159.537 67.6124C159.553 67.648 159.57 67.6812 159.586 67.7191C167.862 86.5951 170.954 111.028 168.772 140.336C168.419 145.303 169.551 150.262 172.025 154.585ZM165.262 194.694C176.957 178.88 173.559 165.187 168.651 156.487C165.802 151.498 164.499 145.778 164.908 140.049C167.045 111.432 164.07 87.653 156.084 69.3652C156.067 69.3297 156.048 69.2965 156.034 69.2609C145.246 44.6638 126.051 31.6964 100.924 31.5208H100.4C98.5806 31.5208 96.7323 31.5873 94.8547 31.7201C89.813 32.098 84.81 32.8809 79.8942 34.0612C76.5329 34.8449 73.2291 35.8569 70.0059 37.0902C68.1853 37.7923 66.4312 38.5576 64.7436 39.3862C52.3169 45.494 43.5756 55.0411 38.6743 67.8875C33.6352 81.0969 34.7394 93.0657 34.7513 93.1843C34.7949 93.5862 34.7119 93.9917 34.5138 94.3442C29.0805 103.732 27.4301 112.276 29.6053 119.736C30.7182 123.434 32.699 126.814 35.3829 129.594C37.6427 128.444 40.0703 127.657 42.5759 127.264C42.8143 127.226 43.0586 127.245 43.2881 127.32C43.5176 127.396 43.7255 127.525 43.8943 127.698C44.0632 127.87 44.188 128.081 44.2581 128.312C44.3283 128.543 44.3418 128.787 44.2975 129.024C44.2467 129.302 44.2221 129.584 44.2239 129.866C44.2258 131.175 44.7472 132.428 45.6737 133.353C46.6002 134.278 47.856 134.797 49.1656 134.798C49.5454 134.797 49.9119 134.938 50.1943 135.191C50.4767 135.445 50.655 135.794 50.695 136.171C50.7505 136.814 50.9355 137.439 51.2388 138.009C53.6921 138.671 56.1808 139.194 58.6929 139.577C58.7879 139.501 58.8781 139.421 58.9684 139.34C59.1396 139.18 59.3457 139.063 59.5705 138.996C59.7952 138.93 60.0323 138.917 60.2629 138.959C60.4935 139 60.7112 139.095 60.8987 139.235C61.0862 139.376 61.2384 139.558 61.3431 139.767L61.4404 139.947C62.3096 140.048 63.1803 140.135 64.0526 140.206C64.4848 139.824 64.9505 139.482 65.4442 139.183C71.73 135.452 79.1746 134.511 86.2607 133.747C93.0001 133.228 100.419 133.232 107.645 134.221C113.258 132.365 118.761 130.194 124.13 127.72C124.406 127.59 124.722 127.575 125.009 127.679C125.295 127.782 125.529 127.995 125.659 128.27C125.789 128.546 125.804 128.861 125.7 129.148C125.597 129.434 125.384 129.668 125.108 129.798C121.092 131.732 117 133.502 112.831 135.108C118.055 136.202 123.076 137.891 127.511 140.353C129.287 141.352 130.931 142.569 132.403 143.977C132.514 144.078 132.58 144.218 132.59 144.367C132.6 144.516 132.551 144.662 132.455 144.777C132.359 144.891 132.222 144.964 132.074 144.979C131.925 144.995 131.776 144.953 131.658 144.862C124.906 140.31 115.189 138.315 105.584 137.665C102.425 137.452 99.2764 137.383 96.251 137.428C92.8386 137.466 89.5805 137.637 86.6312 137.874C82.8078 138.188 79.013 138.785 75.2778 139.658C74.278 139.895 73.283 140.17 72.307 140.479C71.2486 140.804 70.2133 141.2 69.208 141.665C68.6601 141.922 68.1259 142.208 67.6075 142.521C67.0644 142.839 66.5734 143.239 66.1518 143.707C66.0727 143.797 65.999 143.889 65.931 143.984C65.7226 144.272 65.5451 144.582 65.4014 144.907C65.3108 145.089 65.2315 145.275 65.1639 145.467C64.5275 147.3 65.0333 149.326 65.9808 151.02L66.0877 151.205C66.1115 151.25 66.1329 151.297 66.1518 151.344C66.4506 152.036 66.5269 152.804 66.3703 153.541L66.3537 153.612C66.2636 154.008 66.1113 154.388 65.9025 154.736C65.816 154.881 65.7183 155.019 65.6104 155.149C65.5026 155.282 65.3851 155.408 65.2589 155.524C65.1741 155.601 65.0853 155.674 64.993 155.742C64.9574 155.768 64.9193 155.797 64.8814 155.82C64.4539 156.112 63.9742 156.335 63.5539 156.636L63.4233 156.736C63.196 156.906 62.9817 157.094 62.7821 157.296C62.6856 157.395 62.5929 157.497 62.5043 157.602C62.0747 158.108 61.7516 158.695 61.5544 159.328C61.5008 159.493 61.458 159.661 61.4262 159.831L61.3621 160.092C61.3478 160.263 61.3193 160.683 61.3003 160.892C61.3003 160.892 61.3003 160.911 61.3003 160.92C61.3095 161.584 61.3851 162.246 61.5259 162.896L61.59 163.178C61.6209 163.309 61.6565 163.439 61.6898 163.567C61.8293 164.064 61.9966 164.552 62.1908 165.031C62.2668 165.218 62.3452 165.405 62.4283 165.593L62.5233 165.799C62.6088 165.984 62.6943 166.162 62.7869 166.342C62.8842 166.539 62.984 166.736 63.0885 166.931C63.136 167.018 63.1835 167.108 63.2333 167.196C63.4233 167.542 63.6228 167.886 63.827 168.226C63.8507 168.266 63.8721 168.304 63.8982 168.344C64.0787 168.643 64.2624 168.939 64.4492 169.231L64.4943 169.305L64.9099 169.952C65.0523 170.149 65.3278 170.524 65.5961 170.887C65.8217 171.195 66.0426 171.492 66.1684 171.663C66.3204 171.871 66.4795 172.075 66.6434 172.279C69.0584 175.311 72.2049 177.706 75.634 179.706C81.7976 183.124 88.5764 185.292 95.5814 186.086C96.0894 185.654 96.6583 185.3 97.2698 185.033C100.003 183.833 103.007 184.592 104.843 185.311C106.956 182.543 110.124 181.297 113.456 182.021C114.9 182.353 116.247 183.018 117.388 183.963C120.823 182.831 124.106 181.279 127.16 179.343C131.177 176.717 134.755 173.476 137.763 169.739C137.898 169.582 138.087 169.481 138.292 169.455C138.498 169.429 138.705 169.48 138.876 169.598C139.046 169.715 139.166 169.892 139.214 170.093C139.261 170.295 139.233 170.506 139.133 170.688C137.05 174.185 134.429 177.333 131.366 180.017C127.978 182.941 124.133 185.29 119.984 186.971C121.121 188.843 121.898 191.224 122.054 194.104C122.411 200.709 121.202 211.061 118.219 218.345C139.235 215.318 156.21 206.931 165.262 194.694ZM99.6777 219.642C99.2883 217.633 99.255 215.42 99.2241 213.238C99.2051 211.95 99.1861 210.629 99.0888 209.386C98.8679 206.54 97.4004 204.296 95.8497 201.912C93.8336 198.828 91.7534 195.626 92.727 191.29C92.8318 190.823 92.961 190.361 93.1141 189.908C88.0334 189.173 83.0734 187.766 78.3649 185.723C73.0503 183.321 68.0041 180.114 64.1785 175.609C62.595 177.077 60.7473 178.232 58.7333 179.013C55.6604 180.258 52.0841 180.894 48.325 180.894C46.2894 180.89 44.2579 180.712 42.2529 180.36C39.2704 179.85 36.3682 178.95 33.6209 177.683C32.9877 177.388 32.3782 177.078 31.7924 176.75C31.1687 176.404 30.5663 176.039 29.9853 175.655C29.0071 175.012 28.0777 174.299 27.2045 173.52L27.1238 173.449C27.2259 174.751 27.385 176.091 27.6177 177.46C27.7578 178.287 27.924 179.12 28.1188 179.979C28.304 180.783 28.513 181.599 28.7528 182.422C29.0568 183.47 29.4074 184.53 29.8048 185.602C30.2433 186.782 30.7452 187.968 31.3103 189.16C32.1339 190.901 33.0609 192.592 34.0864 194.222C34.756 195.288 35.4843 196.355 36.2711 197.422C36.3708 197.559 36.4729 197.695 36.575 197.832C46.3778 210.866 71.6658 219.588 99.6777 219.642ZM97.6782 27.702C97.4408 24.7323 96.2225 18.8997 90.9911 12.0472C86.0755 5.60022 79.7256 3.61015 75.4345 3.9019C72.4851 4.09877 70.146 5.35116 69.0228 7.34123C66.0545 12.5595 72.7986 18.385 72.8674 18.4443C73.2242 18.7487 73.4582 19.1719 73.5262 19.6356C73.5942 20.0992 73.4914 20.5718 73.2371 20.9655C72.9827 21.3592 72.5939 21.6474 72.143 21.7766C71.692 21.9057 71.2094 21.8671 70.7848 21.6678C70.754 21.6535 68.2843 20.5174 65.6698 20.5174C64.701 20.4978 63.7396 20.6905 62.8534 21.0819C61.2884 21.8148 60.2412 23.2807 59.638 25.5649C59.0182 27.9368 59.4576 30.0099 60.9797 31.9359C62.0515 33.2326 63.3653 34.3089 64.8481 35.1049C69.3986 33.0385 74.1437 31.4295 79.0131 30.3017C85.1327 28.8178 91.3855 27.9493 97.6782 27.7091V27.702ZM62.4924 152.734C62.4426 152.651 62.3951 152.566 62.3499 152.481C62.3048 152.395 62.2834 152.364 62.2526 152.305C62.0332 151.888 61.8397 151.458 61.6731 151.017C61.5615 150.723 61.4642 150.427 61.3787 150.125C61.0947 149.135 60.9563 148.109 60.9679 147.08C60.9729 146.728 60.9959 146.376 61.0367 146.027C61.1105 145.414 61.2425 144.809 61.4309 144.222C60.7428 143.776 60.1283 143.226 59.6095 142.592C59.2893 142.779 58.9559 142.943 58.6122 143.083C57.5616 143.515 56.4303 143.717 55.2949 143.674C54.1596 143.631 53.0467 143.345 52.0317 142.835C51.0167 142.325 50.1233 141.603 49.412 140.718C48.7008 139.833 48.1884 138.806 47.9094 137.706C46.169 137.424 44.5711 136.575 43.3655 135.29C42.1598 134.005 41.4145 132.357 41.2461 130.604C40.0435 130.899 38.8697 131.301 37.7386 131.804C37.4489 131.932 37.1663 132.068 36.8861 132.21C36.176 132.566 35.4891 132.967 34.8296 133.41C34.6112 133.557 34.3974 133.709 34.1861 133.866C33.8465 134.103 33.5212 134.373 33.2054 134.644C32.3408 135.38 31.5538 136.202 30.8568 137.099C30.3716 137.719 29.9342 138.376 29.5483 139.063C28.7702 140.444 28.2179 141.94 27.9122 143.496L27.8813 143.655C27.7848 144.159 27.8166 144.679 27.9739 145.168C28.078 145.497 28.23 145.808 28.4251 146.093C28.4911 146.193 28.5624 146.29 28.6388 146.382C28.6626 146.414 28.6887 146.445 28.7172 146.475L28.7884 146.558C29.0861 146.883 29.4283 147.164 29.8048 147.393L30.0423 147.537C30.256 147.663 30.4816 147.794 30.719 147.922C30.8734 148.007 31.0349 148.093 31.194 148.18C31.479 148.331 31.7734 148.478 32.0774 148.621C32.5214 148.837 32.9845 149.046 33.4666 149.252H33.5307V149.274C34.122 149.525 34.7418 149.772 35.3853 150.011C35.9853 150.238 36.6075 150.457 37.2518 150.668C37.8597 150.87 38.4867 151.065 39.1278 151.257C39.978 151.508 40.8574 151.745 41.7661 151.968L42.2648 152.094C44.6894 152.689 47.1875 153.18 49.7023 153.557L50.2699 153.638C50.93 153.733 51.5847 153.818 52.2338 153.894C54.877 154.218 57.5379 154.376 60.2008 154.369C60.4855 154.095 60.7869 153.839 61.1032 153.603C61.5424 153.277 62.0069 152.986 62.4924 152.734ZM62.3428 173.214L61.6114 172.203C61.5805 172.156 61.5473 172.108 61.5164 172.059L61.1388 171.473C60.7358 171.703 60.3158 171.902 59.8826 172.068C58.1467 172.735 56.9641 171.912 56.2565 171.421C55.7815 171.086 55.6747 171.048 55.5583 171.072C55.1356 171.157 54.7296 171.459 54.2166 171.84C53.3617 172.471 52.3002 173.264 50.6166 173.463C50.3701 173.495 50.1218 173.511 49.8733 173.51C48.5007 173.51 47.4108 173.036 46.506 172.645C45.8173 172.343 45.2189 172.085 44.5682 172.033C43.8558 171.973 43.0841 172.18 42.2719 172.4C41.1582 172.701 39.8972 173.043 38.5508 172.706C37.0595 172.334 36.4421 171.283 36.0336 170.571C35.6655 169.945 35.5587 169.815 35.1858 169.734C35.0299 169.697 34.8709 169.674 34.7109 169.665C34.3522 169.651 33.993 169.676 33.6399 169.741C33.3621 169.782 33.0605 169.824 32.7328 169.841C32.0811 169.876 31.4292 169.778 30.8164 169.554C30.5339 169.451 30.2593 169.329 29.9948 169.186C28.2612 168.268 27.886 166.874 27.6367 165.949C27.4966 165.424 27.4182 165.178 27.2567 165.019L27.2259 164.99C26.9557 164.781 26.6534 164.617 26.3306 164.504C26.0124 164.379 25.7043 164.229 25.4092 164.056C25.2783 163.976 25.1522 163.889 25.0317 163.795C25.052 164.238 25.11 164.678 25.205 165.111C25.5328 166.493 26.1477 167.791 27.0098 168.921C27.985 170.212 29.1415 171.357 30.4436 172.32C31.0072 172.742 31.6048 173.147 32.2365 173.536C32.8135 173.89 33.4238 174.229 34.0531 174.549C36.8073 175.921 39.7486 176.88 42.7825 177.396C51.0559 178.831 58.6739 177.016 62.3428 173.214ZM58.6668 166.866C58.4293 166.295 58.2109 165.714 58.0256 165.125C57.9544 164.888 57.8855 164.651 57.8238 164.414C57.7359 164.082 57.6599 163.75 57.5982 163.413C57.5246 163.031 57.4676 162.647 57.4296 162.26C57.413 162.106 57.4011 161.949 57.394 161.786C57.3821 161.591 57.375 161.394 57.3726 161.2C56.9926 161.2 56.6032 161.214 56.2114 161.214H55.3755H54.9979C54.048 161.188 53.0744 161.138 52.077 161.058C51.8301 161.266 51.5649 161.486 51.2815 161.717C50.9823 161.954 50.6665 162.208 50.3316 162.462C50.1464 162.606 49.954 162.751 49.757 162.896C49.5599 163.041 49.4079 163.15 49.2298 163.278C50.3554 165.109 52.6541 166.477 55.4253 166.869C55.9172 166.938 56.4129 166.975 56.9095 166.98H57.052C57.5923 166.981 58.132 166.943 58.6668 166.866ZM57.8095 158.114C57.895 157.858 57.9924 157.606 58.1016 157.362C56.6934 157.319 55.214 157.225 53.6894 157.08C53.0863 157.023 52.4768 156.958 51.8609 156.885C51.405 156.831 50.9419 156.774 50.4789 156.71L49.8496 156.624L49.6121 156.589C49.2868 156.541 48.9638 156.494 48.6408 156.442C48.0804 156.354 47.5247 156.262 46.9667 156.162C46.0168 155.996 45.0772 155.814 44.1479 155.616C43.5717 155.493 42.9978 155.365 42.4263 155.232C41.9513 155.123 41.4851 155.009 41.0276 154.891L40.4838 154.751C39.2513 154.428 38.0616 154.084 36.9217 153.721H36.8386V153.693C36.4896 153.581 36.1452 153.456 35.808 153.351C35.5254 153.256 35.2452 153.157 34.9674 153.059C34.5573 152.912 34.156 152.762 33.7634 152.609C33.5426 152.526 33.3241 152.438 33.1104 152.353C32.2935 152.02 31.5193 151.681 30.795 151.335L30.351 151.117C30.161 151.024 29.9758 150.929 29.7953 150.834C29.5151 150.69 29.2515 150.547 28.9998 150.405C29.3014 150.715 29.6252 151.003 29.9686 151.266C30.1657 151.418 30.3818 151.577 30.6217 151.741C31.2337 152.152 31.8679 152.528 32.5214 152.87C32.6805 152.955 32.8444 153.038 33.0083 153.121L33.089 153.161L33.2362 153.235C33.7112 153.472 34.2288 153.709 34.756 153.932L34.8486 153.973C35.4423 154.226 36.0621 154.473 36.7033 154.708C37.0713 154.845 37.4442 154.978 37.8265 155.106L38.6909 155.227C38.5057 155.227 38.3204 155.213 38.1352 155.211C39.097 155.531 40.1015 155.83 41.1416 156.11C41.6854 156.257 42.2411 156.397 42.8039 156.532C43.3215 156.655 43.8487 156.769 44.3806 156.888C44.9126 157.006 45.4968 157.125 46.0643 157.22L46.3018 157.262C46.8242 157.357 47.3443 157.445 47.8619 157.526C47.8714 157.508 47.8817 157.49 47.8928 157.474L48.0923 157.561C48.5672 157.632 49.0366 157.698 49.5005 157.758L49.529 157.72L49.7665 157.791C50.6673 157.905 51.5522 157.995 52.4214 158.062C53.0768 158.114 53.7203 158.153 54.352 158.178C54.7747 158.195 55.1926 158.207 55.6034 158.214C56.3538 158.214 57.0829 158.214 57.7858 158.185L57.8095 158.114ZM52.4237 169.416C52.4831 169.371 52.5448 169.324 52.609 169.279C52.3216 169.184 52.0438 169.079 51.7683 168.968C49.5955 168.074 47.8192 166.644 46.7126 164.898C44.7012 166.053 42.545 166.931 40.6263 166.931C40.1204 166.934 39.6165 166.866 39.1302 166.727C38.0774 166.402 37.1364 165.79 36.4136 164.959C36.2378 164.959 36.0621 164.959 35.8864 164.959C35.7106 164.959 35.5183 164.959 35.3331 164.945C34.6874 164.917 34.045 164.838 33.4119 164.708C32.7723 164.571 32.1436 164.387 31.5312 164.158C31.4243 164.115 31.3151 164.075 31.2082 164.03C30.7093 163.828 30.2239 163.594 29.7549 163.33C30.0011 163.678 30.194 164.061 30.3272 164.466C30.4151 164.703 30.4792 164.94 30.5338 165.163C30.7214 165.858 30.8235 166.162 31.2249 166.425C31.2771 166.459 31.3317 166.492 31.3935 166.525C32.1059 166.9 32.4621 166.862 33.1341 166.762H33.2006C33.8276 166.653 34.4661 166.624 35.1004 166.677C35.3455 166.7 35.589 166.739 35.8294 166.793C37.5273 167.163 38.2041 168.301 38.6339 169.053C38.9711 169.63 39.0566 169.725 39.2822 169.782C39.8664 169.926 40.6144 169.725 41.4859 169.49C42.4014 169.205 43.3511 169.046 44.3094 169.015C44.478 169.015 44.6442 169.015 44.8176 169.034C45.9646 169.129 46.8907 169.533 47.7076 169.886C48.6147 170.28 49.3319 170.598 50.2461 170.479C51.1604 170.36 51.7089 169.943 52.4237 169.416ZM47.3965 160.877L47.8311 160.567C47.5485 160.524 47.2659 160.481 46.9809 160.434V160.474C46.9798 160.461 46.9798 160.447 46.9809 160.434C46.6651 160.382 46.3469 160.329 46.0311 160.272L45.5276 160.182C45.5151 160.18 45.5022 160.18 45.4896 160.182C45.0052 160.092 44.5247 159.997 44.0482 159.898C43.5495 159.796 43.0532 159.687 42.564 159.573L42.3408 159.521C41.9181 159.421 41.4994 159.318 41.0846 159.212C39.4555 158.795 37.893 158.323 36.4254 157.81C36.5394 158.313 36.6629 158.826 36.8244 159.328C36.9771 159.836 37.1563 160.336 37.3611 160.825L37.3896 160.894C37.4608 161.062 37.5368 161.226 37.627 161.387C37.684 161.506 37.7434 161.624 37.8051 161.734C38.0469 162.202 38.3504 162.636 38.7075 163.024C39.0495 163.403 39.4863 163.685 39.9732 163.84C40.1282 163.884 40.2874 163.912 40.4482 163.923C41.7614 164.027 43.6374 163.24 45.5822 162.063H45.5941C46.0572 161.783 46.5202 161.482 46.9833 161.167L47.3894 160.884L47.3965 160.877ZM34.5281 161.855C34.3571 161.451 34.2027 161.039 34.0531 160.626C34.0294 160.548 34.0032 160.474 33.9795 160.389C33.9486 160.291 33.9178 160.194 33.8893 160.097C33.7848 159.758 33.6922 159.419 33.6067 159.087C33.4761 158.562 33.3692 158.05 33.2718 157.566C33.2006 157.184 33.1389 156.821 33.0866 156.482L32.5832 156.245C32.0718 156.008 31.5811 155.764 31.1109 155.514C30.7705 155.337 30.4491 155.159 30.1467 154.981C29.9306 154.855 29.7264 154.729 29.5293 154.606C29.1423 154.369 28.786 154.132 28.4607 153.894C28.1805 153.69 27.924 153.489 27.6889 153.289C27.6414 153.382 27.5963 153.479 27.556 153.576C27.4437 153.856 27.364 154.147 27.3185 154.445C27.2307 155.053 27.272 155.673 27.4396 156.264C27.5704 156.738 27.7611 157.193 28.0072 157.618L28.0428 157.678C28.0428 157.697 28.0641 157.718 28.076 157.734C28.1868 157.923 28.3079 158.105 28.4393 158.282C28.6366 158.555 28.8524 158.815 29.0853 159.058C29.6278 159.626 30.2435 160.119 30.9161 160.524C31.2463 160.724 31.588 160.905 31.9396 161.065C32.0702 161.124 32.2032 161.183 32.3386 161.238C32.8148 161.433 33.3055 161.592 33.8061 161.712C34.0531 161.767 34.2906 161.819 34.5281 161.855ZM27.2093 199.417L30.985 196.57C29.7567 194.647 28.6556 192.646 27.6889 190.579L22.9396 192.424C22.6719 192.529 22.3844 192.572 22.0978 192.552C21.8112 192.532 21.5327 192.448 21.2826 192.306C21.0325 192.165 20.817 191.97 20.6518 191.735C20.4865 191.5 20.3757 191.232 20.3274 190.949C18.468 180.083 12.8234 178.24 7.2571 178.24C6.88902 178.24 6.52094 178.24 6.15524 178.261C5.73456 178.275 5.32552 178.403 4.972 178.631C4.61848 178.859 4.33384 179.179 4.14862 179.556C3.9516 179.935 3.86063 180.36 3.88528 180.787C3.90994 181.213 4.04933 181.624 4.28873 181.978C15.2408 198.323 22.8992 209.087 24.7799 210.774C26.1549 212.007 27.1404 211.426 27.5013 211.12C27.8062 210.879 28.0097 210.532 28.0721 210.149C28.1345 209.765 28.0512 209.372 27.8385 209.047C25.2264 205.014 26.4612 200.617 26.5158 200.43C26.6304 200.026 26.8739 199.67 27.2093 199.417ZM29.6148 133.908H29.2467C28.4177 133.926 27.5932 134.036 26.7889 134.238C20.1113 135.898 14.9155 145.322 14.7302 154.955C14.7015 156.402 14.7921 157.85 15.001 159.283C15.9651 165.792 19.5129 170.797 23.2934 174.21C23.1228 172.238 23.0705 170.258 23.1367 168.28C22.1265 166.251 21.7817 163.955 22.1512 161.719L22.1725 161.603C22.3637 160.592 22.925 159.688 23.747 159.068C23.9433 158.432 24.2313 157.827 24.6018 157.274C24.276 156.232 24.1868 155.13 24.3406 154.048C24.5101 152.899 24.9675 151.81 25.6705 150.884C25.2472 150.108 25.0983 149.213 25.2478 148.342C25.3171 147.967 25.4454 147.606 25.6277 147.272C24.9027 146 24.6504 144.513 24.9153 143.073L24.9462 142.912C25.5917 139.687 27.0963 136.695 29.3014 134.252C29.4058 134.136 29.508 134.015 29.6148 133.908Z" fill="black"/>
<path d="M102.516 98.4715C103.406 105.469 99.464 111.735 93.7078 112.466C87.9515 113.197 82.561 108.118 81.6705 101.121C80.78 94.1237 84.7219 87.8594 90.4782 87.1265C96.2344 86.3935 101.623 91.4742 102.516 98.4715ZM96.6785 102.093C98.5118 101.856 99.7537 99.7476 99.4521 97.3756C99.1506 95.0037 97.4194 93.2698 95.5838 93.5023C93.7481 93.7347 92.4967 95.8481 92.8101 98.2201C93.1236 100.592 94.8429 102.326 96.6785 102.093ZM88.6046 109.015C90.9793 108.711 92.6225 106.116 92.2521 103.218C91.8816 100.319 89.6518 98.2177 87.2652 98.5213C84.8787 98.8249 83.2496 101.42 83.6177 104.316C83.9858 107.212 86.2275 109.318 88.6117 109.015H88.6046Z" fill="black"/>
<path d="M79.3574 107.72C79.5181 107.652 79.6959 107.638 79.8655 107.677C80.0351 107.717 80.1878 107.809 80.3018 107.941C80.4158 108.072 80.4854 108.236 80.5004 108.41C80.5155 108.583 80.4753 108.757 80.3857 108.906C79.3859 111.309 78.3553 113.811 78.1535 116.413C78.0597 117.64 78.0764 118.873 78.2033 120.097C78.3601 121.302 78.5833 122.4 78.74 123.643C78.7654 123.771 78.7494 123.904 78.6943 124.022C78.6392 124.14 78.548 124.238 78.4336 124.302C78.3193 124.365 78.1878 124.39 78.0581 124.374C77.9283 124.358 77.8071 124.301 77.7118 124.212C76.4575 123.012 75.511 121.528 74.9524 119.885C73.2901 120.661 70.9415 121.143 67.8592 121.349C67.0708 121.404 66.1043 121.434 65.0262 121.434C59.6926 121.434 51.6899 120.661 49.7189 117.876C48.9858 116.825 48.5998 115.571 48.6147 114.29C48.6322 112.973 48.9652 111.68 49.5859 110.519C51.2601 107.288 55.7174 103.512 62.7773 103.502H62.8106C68.9587 103.502 74.1141 105.827 76.7144 109.743C77.4444 108.892 78.3447 108.203 79.3574 107.72ZM74.0904 115.865C74.6247 114.838 74.4608 113.472 73.6392 112.12C72.2429 109.824 68.6666 107.376 62.813 107.376H62.7845C57.4628 107.376 54.2047 110.032 53.0292 112.298C52.3619 113.588 52.3026 114.798 52.8677 115.618C53.9957 116.726 62.0436 118.185 69.2222 117.343C73.3898 116.854 74.0904 115.875 74.0904 115.865Z" fill="black"/>
<path d="M64.1312 164.248C64.1324 164.258 64.1324 164.267 64.1312 164.277L64.1096 164.265L64.1312 164.248Z" fill="black"/>
<path d="M46.1237 90.0225C50.9396 90.6345 54.2404 95.8765 53.4853 101.733C52.7301 107.589 48.2301 111.84 43.4142 111.221C38.5983 110.602 35.2975 105.367 36.0527 99.5103C36.8078 93.654 41.3197 89.4224 46.1237 90.0225ZM51.7137 103.984C52.0225 101.557 50.657 99.387 48.6623 99.1332C46.6675 98.8794 44.801 100.639 44.4899 103.066C44.1789 105.492 45.549 107.66 47.5414 107.914C49.5338 108.168 51.405 106.408 51.7137 103.984ZM44.1694 99.3039C44.4234 97.3186 43.3833 95.5515 41.8493 95.357C40.3152 95.1625 38.8643 96.6118 38.6126 98.5971C38.3609 100.582 39.3986 102.35 40.9326 102.546C42.4667 102.743 43.9319 101.282 44.1694 99.3039Z" fill="black"/>
</g>
<defs>
<clipPath id="clip0_1932_961">
<rect width="177" height="227" fill="white"/>
</clipPath>
</defs>
</svg>
